ISO-10303-21;
HEADER;
FILE_DESCRIPTION(('Open CASCADE Model'),'2;1');
FILE_NAME('Open CASCADE Shape Model','2026-07-11T20:15:52',('Author'),(
    'Open CASCADE'),'Open CASCADE STEP processor 8.0','Open CASCADE 8.0'
  ,'Unknown');
FILE_SCHEMA(('AUTOMOTIVE_DESIGN { 1 0 10303 214 1 1 1 1 }'));
ENDSEC;
DATA;
#1 = APPLICATION_PROTOCOL_DEFINITION('international standard',
  'automotive_design',2000,#2);
#2 = APPLICATION_CONTEXT(
  'core data for automotive mechanical design processes');
#3 = SHAPE_DEFINITION_REPRESENTATION(#4,#10);
#4 = PRODUCT_DEFINITION_SHAPE('','',#5);
#5 = PRODUCT_DEFINITION('design','',#6,#9);
#6 = PRODUCT_DEFINITION_FORMATION('','',#7);
#7 = PRODUCT('Open CASCADE STEP translator 8.0 1',
  'Open CASCADE STEP translator 8.0 1','',(#8));
#8 = PRODUCT_CONTEXT('',#2,'mechanical');
#9 = PRODUCT_DEFINITION_CONTEXT('part definition',#2,'design');
#10 = MANIFOLD_SURFACE_SHAPE_REPRESENTATION('',(#11,#15),#609);
#11 = AXIS2_PLACEMENT_3D('',#12,#13,#14);
#12 = CARTESIAN_POINT('',(0.,0.,0.));
#13 = DIRECTION('',(0.,0.,1.));
#14 = DIRECTION('',(1.,0.,-0.));
#15 = SHELL_BASED_SURFACE_MODEL('',(#16));
#16 = OPEN_SHELL('',(#17,#194,#287,#369,#411,#486,#531,#554,#591));
#17 = ADVANCED_FACE('',(#18),#31,.T.);
#18 = FACE_BOUND('',#19,.T.);
#19 = EDGE_LOOP('',(#20,#41,#55,#140,#171));
#20 = ORIENTED_EDGE('',*,*,#21,.T.);
#21 = EDGE_CURVE('',#22,#24,#26,.T.);
#22 = VERTEX_POINT('',#23);
#23 = CARTESIAN_POINT('',(40.,10.840664,0.));
#24 = VERTEX_POINT('',#25);
#25 = CARTESIAN_POINT('',(40.,42.18862,0.));
#26 = SURFACE_CURVE('',#27,(#30),.PCURVE_S1.);
#27 = B_SPLINE_CURVE_WITH_KNOTS('',1,(#28,#29),.UNSPECIFIED.,.F.,.F.,(2,
    2),(0.,1.),.PIECEWISE_BEZIER_KNOTS.);
#28 = CARTESIAN_POINT('',(40.,10.840664,0.));
#29 = CARTESIAN_POINT('',(40.,42.18862,0.));
#30 = PCURVE('',#31,#36);
#31 = B_SPLINE_SURFACE_WITH_KNOTS('',1,1,(
    (#32,#33)
    ,(#34,#35)),.UNSPECIFIED.,.F.,.F.,.F.,(2,2),(2,2),(0.,1.),(0.,1.),
  .PIECEWISE_BEZIER_KNOTS.);
#32 = CARTESIAN_POINT('',(1.802993,-4.491728,0.));
#33 = CARTESIAN_POINT('',(-14.584689,36.334283,0.));
#34 = CARTESIAN_POINT('',(50.83705,15.190688,0.));
#35 = CARTESIAN_POINT('',(34.449368,56.016699,0.));
#36 = DEFINITIONAL_REPRESENTATION('',(#37),#40);
#37 = B_SPLINE_CURVE_WITH_KNOTS('',1,(#38,#39),.UNSPECIFIED.,.F.,.F.,(2,
    2),(0.,1.),.PIECEWISE_BEZIER_KNOTS.);
#38 = CARTESIAN_POINT('',(0.77898932,1.110223E-16));
#39 = CARTESIAN_POINT('',(1.,0.66129244));
#40 = ( GEOMETRIC_REPRESENTATION_CONTEXT(2) 
PARAMETRIC_REPRESENTATION_CONTEXT() REPRESENTATION_CONTEXT('2D SPACE',''
  ) );
#41 = ORIENTED_EDGE('',*,*,#42,.T.);
#42 = EDGE_CURVE('',#24,#43,#45,.T.);
#43 = VERTEX_POINT('',#44);
#44 = CARTESIAN_POINT('',(0.,42.18862,0.));
#45 = SURFACE_CURVE('',#46,(#49),.PCURVE_S1.);
#46 = B_SPLINE_CURVE_WITH_KNOTS('',1,(#47,#48),.UNSPECIFIED.,.F.,.F.,(2,
    2),(0.,1.),.PIECEWISE_BEZIER_KNOTS.);
#47 = CARTESIAN_POINT('',(40.,42.18862,0.));
#48 = CARTESIAN_POINT('',(0.,42.18862,0.));
#49 = PCURVE('',#31,#50);
#50 = DEFINITIONAL_REPRESENTATION('',(#51),#54);
#51 = B_SPLINE_CURVE_WITH_KNOTS('',1,(#52,#53),.UNSPECIFIED.,.F.,.F.,(2,
    2),(0.,1.),.PIECEWISE_BEZIER_KNOTS.);
#52 = CARTESIAN_POINT('',(1.,0.66129244));
#53 = CARTESIAN_POINT('',(0.29743998,1.));
#54 = ( GEOMETRIC_REPRESENTATION_CONTEXT(2) 
PARAMETRIC_REPRESENTATION_CONTEXT() REPRESENTATION_CONTEXT('2D SPACE',''
  ) );
#55 = ORIENTED_EDGE('',*,*,#56,.F.);
#56 = EDGE_CURVE('',#57,#43,#59,.T.);
#57 = VERTEX_POINT('',#58);
#58 = CARTESIAN_POINT('',(7.7715612E-16,1.6653345E-15,-1.5595164E-15));
#59 = SURFACE_CURVE('',#60,(#67,#73),.PCURVE_S1.);
#60 = B_SPLINE_CURVE_WITH_KNOTS('',5,(#61,#62,#63,#64,#65,#66),
  .UNSPECIFIED.,.F.,.F.,(6,6),(0.,1.),.PIECEWISE_BEZIER_KNOTS.);
#61 = CARTESIAN_POINT('',(7.7715612E-16,1.6653345E-15,-1.5595164E-15));
#62 = CARTESIAN_POINT('',(4.8572257E-16,8.4377241,-9.4368957E-16));
#63 = CARTESIAN_POINT('',(1.9428903E-16,16.875448,-3.1918912E-16));
#64 = CARTESIAN_POINT('',(-5.5511151E-17,25.313172,2.0816682E-16));
#65 = CARTESIAN_POINT('',(-2.220446E-16,33.750896,5.2735594E-16));
#66 = CARTESIAN_POINT('',(-2.220446E-16,42.18862,5.5511151E-16));
#67 = PCURVE('',#31,#68);
#68 = DEFINITIONAL_REPRESENTATION('',(#69),#72);
#69 = B_SPLINE_CURVE_WITH_KNOTS('',1,(#70,#71),.UNSPECIFIED.,.F.,.F.,(2,
    2),(0.,1.),.PIECEWISE_BEZIER_KNOTS.);
#70 = CARTESIAN_POINT('',(1.6653345E-16,0.11002123));
#71 = CARTESIAN_POINT('',(0.29743998,1.));
#72 = ( GEOMETRIC_REPRESENTATION_CONTEXT(2) 
PARAMETRIC_REPRESENTATION_CONTEXT() REPRESENTATION_CONTEXT('2D SPACE',''
  ) );
#73 = PCURVE('',#74,#135);
#74 = B_SPLINE_SURFACE_WITH_KNOTS('',9,5,(
    (#75,#76,#77,#78,#79,#80)
    ,(#81,#82,#83,#84,#85,#86)
    ,(#87,#88,#89,#90,#91,#92)
    ,(#93,#94,#95,#96,#97,#98)
    ,(#99,#100,#101,#102,#103,#104)
    ,(#105,#106,#107,#108,#109,#110)
    ,(#111,#112,#113,#114,#115,#116)
    ,(#117,#118,#119,#120,#121,#122)
    ,(#123,#124,#125,#126,#127,#128)
    ,(#129,#130,#131,#132,#133,#134
  )),.UNSPECIFIED.,.F.,.F.,.F.,(10,10),(6,6),(0.,1.),(0.,1.),
  .PIECEWISE_BEZIER_KNOTS.);
#75 = CARTESIAN_POINT('',(-10.,-42.18862,-10.));
#76 = CARTESIAN_POINT('',(-10.,-25.313172,-10.));
#77 = CARTESIAN_POINT('',(-10.,-8.4377241,-10.));
#78 = CARTESIAN_POINT('',(-10.,8.4377241,-10.));
#79 = CARTESIAN_POINT('',(-10.,25.313172,-10.));
#80 = CARTESIAN_POINT('',(-10.,42.18862,-10.));
#81 = CARTESIAN_POINT('',(-10.,-42.18862,-8.2546707));
#82 = CARTESIAN_POINT('',(-10.,-25.313172,-8.2546707));
#83 = CARTESIAN_POINT('',(-10.,-8.4377245,-8.2546709));
#84 = CARTESIAN_POINT('',(-10.,8.437725,-8.254671));
#85 = CARTESIAN_POINT('',(-10.,25.313172,-8.2546707));
#86 = CARTESIAN_POINT('',(-10.,42.18862,-8.2546707));
#87 = CARTESIAN_POINT('',(-9.6573054,-42.18862,-6.5093415));
#88 = CARTESIAN_POINT('',(-9.6573054,-25.313172,-6.5093415));
#89 = CARTESIAN_POINT('',(-9.6573057,-8.4377234,-6.5093414));
#90 = CARTESIAN_POINT('',(-9.6573058,8.4377231,-6.5093415));
#91 = CARTESIAN_POINT('',(-9.6573054,25.313172,-6.5093415));
#92 = CARTESIAN_POINT('',(-9.6573054,42.18862,-6.5093415));
#93 = CARTESIAN_POINT('',(-8.9719162,-42.18862,-4.8409127));
#94 = CARTESIAN_POINT('',(-8.9719162,-25.313172,-4.8409127));
#95 = CARTESIAN_POINT('',(-8.9719154,-8.4377259,-4.8409132));
#96 = CARTESIAN_POINT('',(-8.9719154,8.4377264,-4.8409132));
#97 = CARTESIAN_POINT('',(-8.9719162,25.313172,-4.8409127));
#98 = CARTESIAN_POINT('',(-8.9719162,42.18862,-4.8409127));
#99 = CARTESIAN_POINT('',(-7.9639605,-42.18862,-3.3262806));
#100 = CARTESIAN_POINT('',(-7.9639605,-25.313172,-3.3262806));
#101 = CARTESIAN_POINT('',(-7.9639715,-8.4377211,-3.326289));
#102 = CARTESIAN_POINT('',(-7.9639716,8.4377211,-3.326289));
#103 = CARTESIAN_POINT('',(-7.9639605,25.313172,-3.3262806));
#104 = CARTESIAN_POINT('',(-7.9639605,42.18862,-3.3262806));
#105 = CARTESIAN_POINT('',(-6.6737194,-42.18862,-2.0360395));
#106 = CARTESIAN_POINT('',(-6.6737194,-25.313172,-2.0360395));
#107 = CARTESIAN_POINT('',(-6.6737102,-8.4377282,-2.0360293));
#108 = CARTESIAN_POINT('',(-6.6737103,8.4377282,-2.0360293));
#109 = CARTESIAN_POINT('',(-6.6737194,25.313172,-2.0360395));
#110 = CARTESIAN_POINT('',(-6.6737194,42.18862,-2.0360395));
#111 = CARTESIAN_POINT('',(-5.1590873,-42.18862,-1.0280838));
#112 = CARTESIAN_POINT('',(-5.1590873,-25.313172,-1.0280838));
#113 = CARTESIAN_POINT('',(-5.159088,-8.43772,-1.0280844));
#114 = CARTESIAN_POINT('',(-5.159088,8.4377205,-1.0280844));
#115 = CARTESIAN_POINT('',(-5.1590873,25.313172,-1.0280838));
#116 = CARTESIAN_POINT('',(-5.1590873,42.18862,-1.0280838));
#117 = CARTESIAN_POINT('',(-3.4906585,-42.18862,-0.3426946));
#118 = CARTESIAN_POINT('',(-3.4906585,-25.313172,-0.3426946));
#119 = CARTESIAN_POINT('',(-3.490658,-8.4377276,-0.34269451));
#120 = CARTESIAN_POINT('',(-3.490658,8.4377273,-0.34269452));
#121 = CARTESIAN_POINT('',(-3.4906585,25.313172,-0.3426946));
#122 = CARTESIAN_POINT('',(-3.4906585,42.18862,-0.3426946));
#123 = CARTESIAN_POINT('',(-1.7453293,-42.18862,-3.9968029E-15));
#124 = CARTESIAN_POINT('',(-1.7453293,-25.313172,-3.9968029E-15));
#125 = CARTESIAN_POINT('',(-1.74533,-8.437722,-7.870174E-08));
#126 = CARTESIAN_POINT('',(-1.74533,8.4377224,-7.870178E-08));
#127 = CARTESIAN_POINT('',(-1.7453293,25.313172,-2.220446E-16));
#128 = CARTESIAN_POINT('',(-1.7453293,42.18862,-1.6653345E-16));
#129 = CARTESIAN_POINT('',(1.9984014E-15,-42.18862,-4.052314E-15));
#130 = CARTESIAN_POINT('',(1.9984014E-15,-25.313172,-4.052314E-15));
#131 = CARTESIAN_POINT('',(1.3322676E-15,-8.4377241,-2.942091E-15));
#132 = CARTESIAN_POINT('',(6.6613381E-16,8.4377241,-1.2212453E-15));
#133 = CARTESIAN_POINT('',(0.,25.313172,0.));
#134 = CARTESIAN_POINT('',(0.,42.18862,5.5511151E-17));
#135 = DEFINITIONAL_REPRESENTATION('',(#136),#139);
#136 = B_SPLINE_CURVE_WITH_KNOTS('',1,(#137,#138),.UNSPECIFIED.,.F.,.F.,
  (2,2),(0.,1.),.PIECEWISE_BEZIER_KNOTS.);
#137 = CARTESIAN_POINT('',(1.,0.5));
#138 = CARTESIAN_POINT('',(1.,1.));
#139 = ( GEOMETRIC_REPRESENTATION_CONTEXT(2) 
PARAMETRIC_REPRESENTATION_CONTEXT() REPRESENTATION_CONTEXT('2D SPACE',''
  ) );
#140 = ORIENTED_EDGE('',*,*,#141,.T.);
#141 = EDGE_CURVE('',#57,#142,#144,.T.);
#142 = VERTEX_POINT('',#143);
#143 = CARTESIAN_POINT('',(32.555112,10.840664,0.));
#144 = SURFACE_CURVE('',#145,(#150,#156),.PCURVE_S1.);
#145 = B_SPLINE_CURVE_WITH_KNOTS('',3,(#146,#147,#148,#149),
  .UNSPECIFIED.,.F.,.F.,(4,4),(0.,1.),.PIECEWISE_BEZIER_KNOTS.);
#146 = CARTESIAN_POINT('',(3.2555292E-11,1.0833651E-11,0.));
#147 = CARTESIAN_POINT('',(10.851704,3.6135547,0.));
#148 = CARTESIAN_POINT('',(21.703408,7.2271094,0.));
#149 = CARTESIAN_POINT('',(32.555112,10.840664,0.));
#150 = PCURVE('',#31,#151);
#151 = DEFINITIONAL_REPRESENTATION('',(#152),#155);
#152 = B_SPLINE_CURVE_WITH_KNOTS('',1,(#153,#154),.UNSPECIFIED.,.F.,.F.,
  (2,2),(0.,1.),.PIECEWISE_BEZIER_KNOTS.);
#153 = CARTESIAN_POINT('',(0.,0.11002123));
#154 = CARTESIAN_POINT('',(0.64822731,6.3040996E-02));
#155 = ( GEOMETRIC_REPRESENTATION_CONTEXT(2) 
PARAMETRIC_REPRESENTATION_CONTEXT() REPRESENTATION_CONTEXT('2D SPACE',''
  ) );
#156 = PCURVE('',#157,#166);
#157 = B_SPLINE_SURFACE_WITH_KNOTS('',3,1,(
    (#158,#159)
    ,(#160,#161)
    ,(#162,#163)
    ,(#164,#165)),.UNSPECIFIED.,.F.,.F.,.F.,(4,4),(2,2),(0.,1.),(0.,1.),
  .PIECEWISE_BEZIER_KNOTS.);
#158 = CARTESIAN_POINT('',(-2.1866454,0.,4.556681));
#159 = CARTESIAN_POINT('',(3.2555292E-11,1.0833651E-11,0.));
#160 = CARTESIAN_POINT('',(7.7415145,3.6135547,6.4812253));
#161 = CARTESIAN_POINT('',(10.851704,3.6135547,0.));
#162 = CARTESIAN_POINT('',(17.669674,7.2271094,8.4057696));
#163 = CARTESIAN_POINT('',(21.703408,7.2271094,0.));
#164 = CARTESIAN_POINT('',(27.597834,10.840664,10.330314));
#165 = CARTESIAN_POINT('',(32.555112,10.840664,0.));
#166 = DEFINITIONAL_REPRESENTATION('',(#167),#170);
#167 = B_SPLINE_CURVE_WITH_KNOTS('',1,(#168,#169),.UNSPECIFIED.,.F.,.F.,
  (2,2),(0.,1.),.PIECEWISE_BEZIER_KNOTS.);
#168 = CARTESIAN_POINT('',(0.,1.));
#169 = CARTESIAN_POINT('',(1.,1.));
#170 = ( GEOMETRIC_REPRESENTATION_CONTEXT(2) 
PARAMETRIC_REPRESENTATION_CONTEXT() REPRESENTATION_CONTEXT('2D SPACE',''
  ) );
#171 = ORIENTED_EDGE('',*,*,#172,.T.);
#172 = EDGE_CURVE('',#142,#22,#173,.T.);
#173 = SURFACE_CURVE('',#174,(#177,#183),.PCURVE_S1.);
#174 = B_SPLINE_CURVE_WITH_KNOTS('',1,(#175,#176),.UNSPECIFIED.,.F.,.F.,
  (2,2),(0.,1.),.PIECEWISE_BEZIER_KNOTS.);
#175 = CARTESIAN_POINT('',(32.555112,10.840664,0.));
#176 = CARTESIAN_POINT('',(40.,10.840664,0.));
#177 = PCURVE('',#31,#178);
#178 = DEFINITIONAL_REPRESENTATION('',(#179),#182);
#179 = B_SPLINE_CURVE_WITH_KNOTS('',1,(#180,#181),.UNSPECIFIED.,.F.,.F.,
  (2,2),(0.,1.),.PIECEWISE_BEZIER_KNOTS.);
#180 = CARTESIAN_POINT('',(0.64822731,6.3040996E-02));
#181 = CARTESIAN_POINT('',(0.77898932,1.942890293094E-16));
#182 = ( GEOMETRIC_REPRESENTATION_CONTEXT(2) 
PARAMETRIC_REPRESENTATION_CONTEXT() REPRESENTATION_CONTEXT('2D SPACE',''
  ) );
#183 = PCURVE('',#184,#189);
#184 = B_SPLINE_SURFACE_WITH_KNOTS('',1,1,(
    (#185,#186)
    ,(#187,#188)),.UNSPECIFIED.,.F.,.F.,.F.,(2,2),(2,2),(0.,1.),(0.,1.),
  .PIECEWISE_BEZIER_KNOTS.);
#185 = CARTESIAN_POINT('',(27.597834,10.840664,10.330314));
#186 = CARTESIAN_POINT('',(35.042722,10.840664,10.330314));
#187 = CARTESIAN_POINT('',(32.555112,10.840664,0.));
#188 = CARTESIAN_POINT('',(40.,10.840664,0.));
#189 = DEFINITIONAL_REPRESENTATION('',(#190),#193);
#190 = B_SPLINE_CURVE_WITH_KNOTS('',1,(#191,#192),.UNSPECIFIED.,.F.,.F.,
  (2,2),(0.,1.),.PIECEWISE_BEZIER_KNOTS.);
#191 = CARTESIAN_POINT('',(1.,0.));
#192 = CARTESIAN_POINT('',(1.,1.));
#193 = ( GEOMETRIC_REPRESENTATION_CONTEXT(2) 
PARAMETRIC_REPRESENTATION_CONTEXT() REPRESENTATION_CONTEXT('2D SPACE',''
  ) );
#194 = ADVANCED_FACE('',(#195),#74,.T.);
#195 = FACE_BOUND('',#196,.T.);
#196 = EDGE_LOOP('',(#197,#217,#239,#266,#267));
#197 = ORIENTED_EDGE('',*,*,#198,.F.);
#198 = EDGE_CURVE('',#199,#201,#203,.T.);
#199 = VERTEX_POINT('',#200);
#200 = CARTESIAN_POINT('',(-10.,-42.18862,-10.));
#201 = VERTEX_POINT('',#202);
#202 = CARTESIAN_POINT('',(-10.,42.18862,-10.));
#203 = SURFACE_CURVE('',#204,(#211),.PCURVE_S1.);
#204 = B_SPLINE_CURVE_WITH_KNOTS('',5,(#205,#206,#207,#208,#209,#210),
  .UNSPECIFIED.,.F.,.F.,(6,6),(0.,1.),.PIECEWISE_BEZIER_KNOTS.);
#205 = CARTESIAN_POINT('',(-10.,-42.18862,-10.));
#206 = CARTESIAN_POINT('',(-10.,-25.313172,-10.));
#207 = CARTESIAN_POINT('',(-10.,-8.4377241,-10.));
#208 = CARTESIAN_POINT('',(-10.,8.4377241,-10.));
#209 = CARTESIAN_POINT('',(-10.,25.313172,-10.));
#210 = CARTESIAN_POINT('',(-10.,42.18862,-10.));
#211 = PCURVE('',#74,#212);
#212 = DEFINITIONAL_REPRESENTATION('',(#213),#216);
#213 = B_SPLINE_CURVE_WITH_KNOTS('',1,(#214,#215),.UNSPECIFIED.,.F.,.F.,
  (2,2),(0.,1.),.PIECEWISE_BEZIER_KNOTS.);
#214 = CARTESIAN_POINT('',(0.,0.));
#215 = CARTESIAN_POINT('',(0.,1.));
#216 = ( GEOMETRIC_REPRESENTATION_CONTEXT(2) 
PARAMETRIC_REPRESENTATION_CONTEXT() REPRESENTATION_CONTEXT('2D SPACE',''
  ) );
#217 = ORIENTED_EDGE('',*,*,#218,.T.);
#218 = EDGE_CURVE('',#199,#219,#221,.T.);
#219 = VERTEX_POINT('',#220);
#220 = CARTESIAN_POINT('',(1.734723475977E-15,-42.18862,
    -1.734723475977E-15));
#221 = SURFACE_CURVE('',#222,(#233),.PCURVE_S1.);
#222 = B_SPLINE_CURVE_WITH_KNOTS('',9,(#223,#224,#225,#226,#227,#228,
    #229,#230,#231,#232),.UNSPECIFIED.,.F.,.F.,(10,10),(0.,1.),
  .PIECEWISE_BEZIER_KNOTS.);
#223 = CARTESIAN_POINT('',(-10.,-42.18862,-10.));
#224 = CARTESIAN_POINT('',(-10.,-42.18862,-8.2546707));
#225 = CARTESIAN_POINT('',(-9.6573054,-42.18862,-6.5093415));
#226 = CARTESIAN_POINT('',(-8.9719162,-42.18862,-4.8409127));
#227 = CARTESIAN_POINT('',(-7.9639605,-42.18862,-3.3262806));
#228 = CARTESIAN_POINT('',(-6.6737194,-42.18862,-2.0360395));
#229 = CARTESIAN_POINT('',(-5.1590873,-42.18862,-1.0280838));
#230 = CARTESIAN_POINT('',(-3.4906585,-42.18862,-0.3426946));
#231 = CARTESIAN_POINT('',(-1.7453293,-42.18862,-3.9968029E-15));
#232 = CARTESIAN_POINT('',(1.9984014E-15,-42.18862,-4.052314E-15));
#233 = PCURVE('',#74,#234);
#234 = DEFINITIONAL_REPRESENTATION('',(#235),#238);
#235 = B_SPLINE_CURVE_WITH_KNOTS('',1,(#236,#237),.UNSPECIFIED.,.F.,.F.,
  (2,2),(0.,1.),.PIECEWISE_BEZIER_KNOTS.);
#236 = CARTESIAN_POINT('',(0.,0.));
#237 = CARTESIAN_POINT('',(1.,0.));
#238 = ( GEOMETRIC_REPRESENTATION_CONTEXT(2) 
PARAMETRIC_REPRESENTATION_CONTEXT() REPRESENTATION_CONTEXT('2D SPACE',''
  ) );
#239 = ORIENTED_EDGE('',*,*,#240,.T.);
#240 = EDGE_CURVE('',#219,#57,#241,.T.);
#241 = SURFACE_CURVE('',#242,(#249,#255),.PCURVE_S1.);
#242 = B_SPLINE_CURVE_WITH_KNOTS('',5,(#243,#244,#245,#246,#247,#248),
  .UNSPECIFIED.,.F.,.F.,(6,6),(0.,1.),.PIECEWISE_BEZIER_KNOTS.);
#243 = CARTESIAN_POINT('',(1.7763568E-15,-42.18862,-3.5527137E-15));
#244 = CARTESIAN_POINT('',(1.7763568E-15,-33.750896,-3.5527137E-15));
#245 = CARTESIAN_POINT('',(1.6098234E-15,-25.313172,-3.2751579E-15));
#246 = CARTESIAN_POINT('',(1.3600232E-15,-16.875448,-2.7824965E-15));
#247 = CARTESIAN_POINT('',(1.0685897E-15,-8.4377241,-2.1753432E-15));
#248 = CARTESIAN_POINT('',(7.7715612E-16,7.1054274E-15,-1.5595164E-15));
#249 = PCURVE('',#74,#250);
#250 = DEFINITIONAL_REPRESENTATION('',(#251),#254);
#251 = B_SPLINE_CURVE_WITH_KNOTS('',1,(#252,#253),.UNSPECIFIED.,.F.,.F.,
  (2,2),(0.,1.),.PIECEWISE_BEZIER_KNOTS.);
#252 = CARTESIAN_POINT('',(1.,0.));
#253 = CARTESIAN_POINT('',(1.,0.5));
#254 = ( GEOMETRIC_REPRESENTATION_CONTEXT(2) 
PARAMETRIC_REPRESENTATION_CONTEXT() REPRESENTATION_CONTEXT('2D SPACE',''
  ) );
#255 = PCURVE('',#256,#261);
#256 = B_SPLINE_SURFACE_WITH_KNOTS('',1,1,(
    (#257,#258)
    ,(#259,#260)),.UNSPECIFIED.,.F.,.F.,.F.,(2,2),(2,2),(0.,1.),(0.,1.),
  .PIECEWISE_BEZIER_KNOTS.);
#257 = CARTESIAN_POINT('',(-14.584689,-36.334283,0.));
#258 = CARTESIAN_POINT('',(1.802993,4.491728,0.));
#259 = CARTESIAN_POINT('',(34.449368,-56.016699,0.));
#260 = CARTESIAN_POINT('',(50.83705,-15.190688,0.));
#261 = DEFINITIONAL_REPRESENTATION('',(#262),#265);
#262 = B_SPLINE_CURVE_WITH_KNOTS('',1,(#263,#264),.UNSPECIFIED.,.F.,.F.,
  (2,2),(0.,1.),.PIECEWISE_BEZIER_KNOTS.);
#263 = CARTESIAN_POINT('',(0.29743998,0.));
#264 = CARTESIAN_POINT('',(5.551115123126E-17,0.88997877));
#265 = ( GEOMETRIC_REPRESENTATION_CONTEXT(2) 
PARAMETRIC_REPRESENTATION_CONTEXT() REPRESENTATION_CONTEXT('2D SPACE',''
  ) );
#266 = ORIENTED_EDGE('',*,*,#56,.T.);
#267 = ORIENTED_EDGE('',*,*,#268,.F.);
#268 = EDGE_CURVE('',#201,#43,#269,.T.);
#269 = SURFACE_CURVE('',#270,(#281),.PCURVE_S1.);
#270 = B_SPLINE_CURVE_WITH_KNOTS('',9,(#271,#272,#273,#274,#275,#276,
    #277,#278,#279,#280),.UNSPECIFIED.,.F.,.F.,(10,10),(0.,1.),
  .PIECEWISE_BEZIER_KNOTS.);
#271 = CARTESIAN_POINT('',(-10.,42.18862,-10.));
#272 = CARTESIAN_POINT('',(-10.,42.18862,-8.2546707));
#273 = CARTESIAN_POINT('',(-9.6573054,42.18862,-6.5093415));
#274 = CARTESIAN_POINT('',(-8.9719162,42.18862,-4.8409127));
#275 = CARTESIAN_POINT('',(-7.9639605,42.18862,-3.3262806));
#276 = CARTESIAN_POINT('',(-6.6737194,42.18862,-2.0360395));
#277 = CARTESIAN_POINT('',(-5.1590873,42.18862,-1.0280838));
#278 = CARTESIAN_POINT('',(-3.4906585,42.18862,-0.3426946));
#279 = CARTESIAN_POINT('',(-1.7453293,42.18862,-1.6653345E-16));
#280 = CARTESIAN_POINT('',(0.,42.18862,5.5511151E-17));
#281 = PCURVE('',#74,#282);
#282 = DEFINITIONAL_REPRESENTATION('',(#283),#286);
#283 = B_SPLINE_CURVE_WITH_KNOTS('',1,(#284,#285),.UNSPECIFIED.,.F.,.F.,
  (2,2),(0.,1.),.PIECEWISE_BEZIER_KNOTS.);
#284 = CARTESIAN_POINT('',(0.,1.));
#285 = CARTESIAN_POINT('',(1.,1.));
#286 = ( GEOMETRIC_REPRESENTATION_CONTEXT(2) 
PARAMETRIC_REPRESENTATION_CONTEXT() REPRESENTATION_CONTEXT('2D SPACE',''
  ) );
#287 = ADVANCED_FACE('',(#288),#157,.T.);
#288 = FACE_BOUND('',#289,.T.);
#289 = EDGE_LOOP('',(#290,#319,#350,#368));
#290 = ORIENTED_EDGE('',*,*,#291,.F.);
#291 = EDGE_CURVE('',#292,#57,#294,.T.);
#292 = VERTEX_POINT('',#293);
#293 = CARTESIAN_POINT('',(-2.1866454,0.,4.556681));
#294 = SURFACE_CURVE('',#295,(#298,#304),.PCURVE_S1.);
#295 = B_SPLINE_CURVE_WITH_KNOTS('',1,(#296,#297),.UNSPECIFIED.,.F.,.F.,
  (2,2),(0.,1.),.PIECEWISE_BEZIER_KNOTS.);
#296 = CARTESIAN_POINT('',(-2.1866454,0.,4.556681));
#297 = CARTESIAN_POINT('',(3.2555292E-11,1.0833651E-11,0.));
#298 = PCURVE('',#157,#299);
#299 = DEFINITIONAL_REPRESENTATION('',(#300),#303);
#300 = B_SPLINE_CURVE_WITH_KNOTS('',1,(#301,#302),.UNSPECIFIED.,.F.,.F.,
  (2,2),(0.,1.),.PIECEWISE_BEZIER_KNOTS.);
#301 = CARTESIAN_POINT('',(0.,0.));
#302 = CARTESIAN_POINT('',(0.,1.));
#303 = ( GEOMETRIC_REPRESENTATION_CONTEXT(2) 
PARAMETRIC_REPRESENTATION_CONTEXT() REPRESENTATION_CONTEXT('2D SPACE',''
  ) );
#304 = PCURVE('',#305,#314);
#305 = B_SPLINE_SURFACE_WITH_KNOTS('',3,1,(
    (#306,#307)
    ,(#308,#309)
    ,(#310,#311)
    ,(#312,#313)),.UNSPECIFIED.,.F.,.F.,.F.,(4,4),(2,2),(0.,1.),(0.,1.),
  .PIECEWISE_BEZIER_KNOTS.);
#306 = CARTESIAN_POINT('',(-2.1866454,0.,4.556681));
#307 = CARTESIAN_POINT('',(3.2555292E-11,-1.0833651E-11,0.));
#308 = CARTESIAN_POINT('',(7.7415145,-3.6135547,6.4812253));
#309 = CARTESIAN_POINT('',(10.851704,-3.6135547,0.));
#310 = CARTESIAN_POINT('',(17.669674,-7.2271094,8.4057696));
#311 = CARTESIAN_POINT('',(21.703408,-7.2271094,0.));
#312 = CARTESIAN_POINT('',(27.597834,-10.840664,10.330314));
#313 = CARTESIAN_POINT('',(32.555112,-10.840664,0.));
#314 = DEFINITIONAL_REPRESENTATION('',(#315),#318);
#315 = B_SPLINE_CURVE_WITH_KNOTS('',1,(#316,#317),.UNSPECIFIED.,.F.,.F.,
  (2,2),(0.,1.),.PIECEWISE_BEZIER_KNOTS.);
#316 = CARTESIAN_POINT('',(0.,0.));
#317 = CARTESIAN_POINT('',(0.,1.));
#318 = ( GEOMETRIC_REPRESENTATION_CONTEXT(2) 
PARAMETRIC_REPRESENTATION_CONTEXT() REPRESENTATION_CONTEXT('2D SPACE',''
  ) );
#319 = ORIENTED_EDGE('',*,*,#320,.T.);
#320 = EDGE_CURVE('',#292,#321,#323,.T.);
#321 = VERTEX_POINT('',#322);
#322 = CARTESIAN_POINT('',(27.597834,10.840664,10.330314));
#323 = SURFACE_CURVE('',#324,(#329,#335),.PCURVE_S1.);
#324 = B_SPLINE_CURVE_WITH_KNOTS('',3,(#325,#326,#327,#328),
  .UNSPECIFIED.,.F.,.F.,(4,4),(0.,1.),.PIECEWISE_BEZIER_KNOTS.);
#325 = CARTESIAN_POINT('',(-2.1866454,0.,4.556681));
#326 = CARTESIAN_POINT('',(7.7415145,3.6135547,6.4812253));
#327 = CARTESIAN_POINT('',(17.669674,7.2271094,8.4057696));
#328 = CARTESIAN_POINT('',(27.597834,10.840664,10.330314));
#329 = PCURVE('',#157,#330);
#330 = DEFINITIONAL_REPRESENTATION('',(#331),#334);
#331 = B_SPLINE_CURVE_WITH_KNOTS('',1,(#332,#333),.UNSPECIFIED.,.F.,.F.,
  (2,2),(0.,1.),.PIECEWISE_BEZIER_KNOTS.);
#332 = CARTESIAN_POINT('',(0.,0.));
#333 = CARTESIAN_POINT('',(1.,0.));
#334 = ( GEOMETRIC_REPRESENTATION_CONTEXT(2) 
PARAMETRIC_REPRESENTATION_CONTEXT() REPRESENTATION_CONTEXT('2D SPACE',''
  ) );
#335 = PCURVE('',#336,#345);
#336 = B_SPLINE_SURFACE_WITH_KNOTS('',1,3,(
    (#337,#338,#339,#340)
    ,(#341,#342,#343,#344
    )),.UNSPECIFIED.,.F.,.F.,.F.,(2,2),(4,4),(0.,1.),(0.,1.),
  .PIECEWISE_BEZIER_KNOTS.);
#337 = CARTESIAN_POINT('',(27.597834,-10.840664,10.330314));
#338 = CARTESIAN_POINT('',(17.669674,-7.2271094,8.4057696));
#339 = CARTESIAN_POINT('',(7.7415145,-3.6135547,6.4812253));
#340 = CARTESIAN_POINT('',(-2.1866454,8.8817842E-16,4.556681));
#341 = CARTESIAN_POINT('',(27.597834,10.840664,10.330314));
#342 = CARTESIAN_POINT('',(17.669674,7.2271094,8.4057696));
#343 = CARTESIAN_POINT('',(7.7415145,3.6135547,6.4812253));
#344 = CARTESIAN_POINT('',(-2.1866454,-8.8817842E-16,4.556681));
#345 = DEFINITIONAL_REPRESENTATION('',(#346),#349);
#346 = B_SPLINE_CURVE_WITH_KNOTS('',1,(#347,#348),.UNSPECIFIED.,.F.,.F.,
  (2,2),(0.,1.),.PIECEWISE_BEZIER_KNOTS.);
#347 = CARTESIAN_POINT('',(1.,1.));
#348 = CARTESIAN_POINT('',(1.,0.));
#349 = ( GEOMETRIC_REPRESENTATION_CONTEXT(2) 
PARAMETRIC_REPRESENTATION_CONTEXT() REPRESENTATION_CONTEXT('2D SPACE',''
  ) );
#350 = ORIENTED_EDGE('',*,*,#351,.T.);
#351 = EDGE_CURVE('',#321,#142,#352,.T.);
#352 = SURFACE_CURVE('',#353,(#356,#362),.PCURVE_S1.);
#353 = B_SPLINE_CURVE_WITH_KNOTS('',1,(#354,#355),.UNSPECIFIED.,.F.,.F.,
  (2,2),(0.,1.),.PIECEWISE_BEZIER_KNOTS.);
#354 = CARTESIAN_POINT('',(27.597834,10.840664,10.330314));
#355 = CARTESIAN_POINT('',(32.555112,10.840664,0.));
#356 = PCURVE('',#157,#357);
#357 = DEFINITIONAL_REPRESENTATION('',(#358),#361);
#358 = B_SPLINE_CURVE_WITH_KNOTS('',1,(#359,#360),.UNSPECIFIED.,.F.,.F.,
  (2,2),(0.,1.),.PIECEWISE_BEZIER_KNOTS.);
#359 = CARTESIAN_POINT('',(1.,0.));
#360 = CARTESIAN_POINT('',(1.,1.));
#361 = ( GEOMETRIC_REPRESENTATION_CONTEXT(2) 
PARAMETRIC_REPRESENTATION_CONTEXT() REPRESENTATION_CONTEXT('2D SPACE',''
  ) );
#362 = PCURVE('',#184,#363);
#363 = DEFINITIONAL_REPRESENTATION('',(#364),#367);
#364 = B_SPLINE_CURVE_WITH_KNOTS('',1,(#365,#366),.UNSPECIFIED.,.F.,.F.,
  (2,2),(0.,1.),.PIECEWISE_BEZIER_KNOTS.);
#365 = CARTESIAN_POINT('',(0.,0.));
#366 = CARTESIAN_POINT('',(1.,0.));
#367 = ( GEOMETRIC_REPRESENTATION_CONTEXT(2) 
PARAMETRIC_REPRESENTATION_CONTEXT() REPRESENTATION_CONTEXT('2D SPACE',''
  ) );
#368 = ORIENTED_EDGE('',*,*,#141,.F.);
#369 = ADVANCED_FACE('',(#370),#184,.F.);
#370 = FACE_BOUND('',#371,.T.);
#371 = EDGE_LOOP('',(#372,#386,#387,#388));
#372 = ORIENTED_EDGE('',*,*,#373,.F.);
#373 = EDGE_CURVE('',#22,#374,#376,.T.);
#374 = VERTEX_POINT('',#375);
#375 = CARTESIAN_POINT('',(35.042722,10.840664,10.330314));
#376 = SURFACE_CURVE('',#377,(#380),.PCURVE_S1.);
#377 = B_SPLINE_CURVE_WITH_KNOTS('',1,(#378,#379),.UNSPECIFIED.,.F.,.F.,
  (2,2),(0.,1.),.PIECEWISE_BEZIER_KNOTS.);
#378 = CARTESIAN_POINT('',(40.,10.840664,0.));
#379 = CARTESIAN_POINT('',(35.042722,10.840664,10.330314));
#380 = PCURVE('',#184,#381);
#381 = DEFINITIONAL_REPRESENTATION('',(#382),#385);
#382 = B_SPLINE_CURVE_WITH_KNOTS('',1,(#383,#384),.UNSPECIFIED.,.F.,.F.,
  (2,2),(0.,1.),.PIECEWISE_BEZIER_KNOTS.);
#383 = CARTESIAN_POINT('',(1.,1.));
#384 = CARTESIAN_POINT('',(0.,1.));
#385 = ( GEOMETRIC_REPRESENTATION_CONTEXT(2) 
PARAMETRIC_REPRESENTATION_CONTEXT() REPRESENTATION_CONTEXT('2D SPACE',''
  ) );
#386 = ORIENTED_EDGE('',*,*,#172,.F.);
#387 = ORIENTED_EDGE('',*,*,#351,.F.);
#388 = ORIENTED_EDGE('',*,*,#389,.T.);
#389 = EDGE_CURVE('',#321,#374,#390,.T.);
#390 = SURFACE_CURVE('',#391,(#394,#400),.PCURVE_S1.);
#391 = B_SPLINE_CURVE_WITH_KNOTS('',1,(#392,#393),.UNSPECIFIED.,.F.,.F.,
  (2,2),(0.,1.),.PIECEWISE_BEZIER_KNOTS.);
#392 = CARTESIAN_POINT('',(27.597834,10.840664,10.330314));
#393 = CARTESIAN_POINT('',(35.042722,10.840664,10.330314));
#394 = PCURVE('',#184,#395);
#395 = DEFINITIONAL_REPRESENTATION('',(#396),#399);
#396 = B_SPLINE_CURVE_WITH_KNOTS('',1,(#397,#398),.UNSPECIFIED.,.F.,.F.,
  (2,2),(0.,1.),.PIECEWISE_BEZIER_KNOTS.);
#397 = CARTESIAN_POINT('',(0.,0.));
#398 = CARTESIAN_POINT('',(0.,1.));
#399 = ( GEOMETRIC_REPRESENTATION_CONTEXT(2) 
PARAMETRIC_REPRESENTATION_CONTEXT() REPRESENTATION_CONTEXT('2D SPACE',''
  ) );
#400 = PCURVE('',#401,#406);
#401 = B_SPLINE_SURFACE_WITH_KNOTS('',1,1,(
    (#402,#403)
    ,(#404,#405)),.UNSPECIFIED.,.F.,.F.,.F.,(2,2),(2,2),(0.,1.),(0.,1.),
  .PIECEWISE_BEZIER_KNOTS.);
#402 = CARTESIAN_POINT('',(35.042722,10.840664,10.330314));
#403 = CARTESIAN_POINT('',(35.042722,-10.840664,10.330314));
#404 = CARTESIAN_POINT('',(27.597834,10.840664,10.330314));
#405 = CARTESIAN_POINT('',(27.597834,-10.840664,10.330314));
#406 = DEFINITIONAL_REPRESENTATION('',(#407),#410);
#407 = B_SPLINE_CURVE_WITH_KNOTS('',1,(#408,#409),.UNSPECIFIED.,.F.,.F.,
  (2,2),(0.,1.),.PIECEWISE_BEZIER_KNOTS.);
#408 = CARTESIAN_POINT('',(1.,0.));
#409 = CARTESIAN_POINT('',(0.,0.));
#410 = ( GEOMETRIC_REPRESENTATION_CONTEXT(2) 
PARAMETRIC_REPRESENTATION_CONTEXT() REPRESENTATION_CONTEXT('2D SPACE',''
  ) );
#411 = ADVANCED_FACE('',(#412),#256,.T.);
#412 = FACE_BOUND('',#413,.T.);
#413 = EDGE_LOOP('',(#414,#441,#459,#460,#474));
#414 = ORIENTED_EDGE('',*,*,#415,.T.);
#415 = EDGE_CURVE('',#416,#418,#420,.T.);
#416 = VERTEX_POINT('',#417);
#417 = CARTESIAN_POINT('',(40.,-10.840664,0.));
#418 = VERTEX_POINT('',#419);
#419 = CARTESIAN_POINT('',(32.555112,-10.840664,0.));
#420 = SURFACE_CURVE('',#421,(#424,#430),.PCURVE_S1.);
#421 = B_SPLINE_CURVE_WITH_KNOTS('',1,(#422,#423),.UNSPECIFIED.,.F.,.F.,
  (2,2),(0.,1.),.PIECEWISE_BEZIER_KNOTS.);
#422 = CARTESIAN_POINT('',(40.,-10.840664,0.));
#423 = CARTESIAN_POINT('',(32.555112,-10.840664,0.));
#424 = PCURVE('',#256,#425);
#425 = DEFINITIONAL_REPRESENTATION('',(#426),#429);
#426 = B_SPLINE_CURVE_WITH_KNOTS('',1,(#427,#428),.UNSPECIFIED.,.F.,.F.,
  (2,2),(0.,1.),.PIECEWISE_BEZIER_KNOTS.);
#427 = CARTESIAN_POINT('',(0.77898932,1.));
#428 = CARTESIAN_POINT('',(0.64822731,0.936959));
#429 = ( GEOMETRIC_REPRESENTATION_CONTEXT(2) 
PARAMETRIC_REPRESENTATION_CONTEXT() REPRESENTATION_CONTEXT('2D SPACE',''
  ) );
#430 = PCURVE('',#431,#436);
#431 = B_SPLINE_SURFACE_WITH_KNOTS('',1,1,(
    (#432,#433)
    ,(#434,#435)),.UNSPECIFIED.,.F.,.F.,.F.,(2,2),(2,2),(0.,1.),(0.,1.),
  .PIECEWISE_BEZIER_KNOTS.);
#432 = CARTESIAN_POINT('',(27.597834,-10.840664,10.330314));
#433 = CARTESIAN_POINT('',(35.042722,-10.840664,10.330314));
#434 = CARTESIAN_POINT('',(32.555112,-10.840664,0.));
#435 = CARTESIAN_POINT('',(40.,-10.840664,0.));
#436 = DEFINITIONAL_REPRESENTATION('',(#437),#440);
#437 = B_SPLINE_CURVE_WITH_KNOTS('',1,(#438,#439),.UNSPECIFIED.,.F.,.F.,
  (2,2),(0.,1.),.PIECEWISE_BEZIER_KNOTS.);
#438 = CARTESIAN_POINT('',(1.,1.));
#439 = CARTESIAN_POINT('',(1.,0.));
#440 = ( GEOMETRIC_REPRESENTATION_CONTEXT(2) 
PARAMETRIC_REPRESENTATION_CONTEXT() REPRESENTATION_CONTEXT('2D SPACE',''
  ) );
#441 = ORIENTED_EDGE('',*,*,#442,.T.);
#442 = EDGE_CURVE('',#418,#57,#443,.T.);
#443 = SURFACE_CURVE('',#444,(#447,#453),.PCURVE_S1.);
#444 = B_SPLINE_CURVE_WITH_KNOTS('',1,(#445,#446),.UNSPECIFIED.,.F.,.F.,
  (2,2),(0.,1.),.PIECEWISE_BEZIER_KNOTS.);
#445 = CARTESIAN_POINT('',(32.555112,-10.840664,0.));
#446 = CARTESIAN_POINT('',(3.2557068E-11,-1.0834E-11,0.));
#447 = PCURVE('',#256,#448);
#448 = DEFINITIONAL_REPRESENTATION('',(#449),#452);
#449 = B_SPLINE_CURVE_WITH_KNOTS('',1,(#450,#451),.UNSPECIFIED.,.F.,.F.,
  (2,2),(0.,1.),.PIECEWISE_BEZIER_KNOTS.);
#450 = CARTESIAN_POINT('',(0.64822731,0.936959));
#451 = CARTESIAN_POINT('',(-1.110223024625E-16,0.88997877));
#452 = ( GEOMETRIC_REPRESENTATION_CONTEXT(2) 
PARAMETRIC_REPRESENTATION_CONTEXT() REPRESENTATION_CONTEXT('2D SPACE',''
  ) );
#453 = PCURVE('',#305,#454);
#454 = DEFINITIONAL_REPRESENTATION('',(#455),#458);
#455 = B_SPLINE_CURVE_WITH_KNOTS('',1,(#456,#457),.UNSPECIFIED.,.F.,.F.,
  (2,2),(0.,1.),.PIECEWISE_BEZIER_KNOTS.);
#456 = CARTESIAN_POINT('',(1.,1.));
#457 = CARTESIAN_POINT('',(0.,1.));
#458 = ( GEOMETRIC_REPRESENTATION_CONTEXT(2) 
PARAMETRIC_REPRESENTATION_CONTEXT() REPRESENTATION_CONTEXT('2D SPACE',''
  ) );
#459 = ORIENTED_EDGE('',*,*,#240,.F.);
#460 = ORIENTED_EDGE('',*,*,#461,.T.);
#461 = EDGE_CURVE('',#219,#462,#464,.T.);
#462 = VERTEX_POINT('',#463);
#463 = CARTESIAN_POINT('',(40.,-42.18862,0.));
#464 = SURFACE_CURVE('',#465,(#468),.PCURVE_S1.);
#465 = B_SPLINE_CURVE_WITH_KNOTS('',1,(#466,#467),.UNSPECIFIED.,.F.,.F.,
  (2,2),(0.,1.),.PIECEWISE_BEZIER_KNOTS.);
#466 = CARTESIAN_POINT('',(0.,-42.18862,0.));
#467 = CARTESIAN_POINT('',(40.,-42.18862,0.));
#468 = PCURVE('',#256,#469);
#469 = DEFINITIONAL_REPRESENTATION('',(#470),#473);
#470 = B_SPLINE_CURVE_WITH_KNOTS('',1,(#471,#472),.UNSPECIFIED.,.F.,.F.,
  (2,2),(0.,1.),.PIECEWISE_BEZIER_KNOTS.);
#471 = CARTESIAN_POINT('',(0.29743998,0.));
#472 = CARTESIAN_POINT('',(1.,0.33870756));
#473 = ( GEOMETRIC_REPRESENTATION_CONTEXT(2) 
PARAMETRIC_REPRESENTATION_CONTEXT() REPRESENTATION_CONTEXT('2D SPACE',''
  ) );
#474 = ORIENTED_EDGE('',*,*,#475,.T.);
#475 = EDGE_CURVE('',#462,#416,#476,.T.);
#476 = SURFACE_CURVE('',#477,(#480),.PCURVE_S1.);
#477 = B_SPLINE_CURVE_WITH_KNOTS('',1,(#478,#479),.UNSPECIFIED.,.F.,.F.,
  (2,2),(0.,1.),.PIECEWISE_BEZIER_KNOTS.);
#478 = CARTESIAN_POINT('',(40.,-42.18862,0.));
#479 = CARTESIAN_POINT('',(40.,-10.840664,0.));
#480 = PCURVE('',#256,#481);
#481 = DEFINITIONAL_REPRESENTATION('',(#482),#485);
#482 = B_SPLINE_CURVE_WITH_KNOTS('',1,(#483,#484),.UNSPECIFIED.,.F.,.F.,
  (2,2),(0.,1.),.PIECEWISE_BEZIER_KNOTS.);
#483 = CARTESIAN_POINT('',(1.,0.33870756));
#484 = CARTESIAN_POINT('',(0.77898932,1.));
#485 = ( GEOMETRIC_REPRESENTATION_CONTEXT(2) 
PARAMETRIC_REPRESENTATION_CONTEXT() REPRESENTATION_CONTEXT('2D SPACE',''
  ) );
#486 = ADVANCED_FACE('',(#487),#305,.F.);
#487 = FACE_BOUND('',#488,.T.);
#488 = EDGE_LOOP('',(#489,#490,#510,#530));
#489 = ORIENTED_EDGE('',*,*,#442,.F.);
#490 = ORIENTED_EDGE('',*,*,#491,.F.);
#491 = EDGE_CURVE('',#492,#418,#494,.T.);
#492 = VERTEX_POINT('',#493);
#493 = CARTESIAN_POINT('',(27.597834,-10.840664,10.330314));
#494 = SURFACE_CURVE('',#495,(#498,#504),.PCURVE_S1.);
#495 = B_SPLINE_CURVE_WITH_KNOTS('',1,(#496,#497),.UNSPECIFIED.,.F.,.F.,
  (2,2),(0.,1.),.PIECEWISE_BEZIER_KNOTS.);
#496 = CARTESIAN_POINT('',(27.597834,-10.840664,10.330314));
#497 = CARTESIAN_POINT('',(32.555112,-10.840664,0.));
#498 = PCURVE('',#305,#499);
#499 = DEFINITIONAL_REPRESENTATION('',(#500),#503);
#500 = B_SPLINE_CURVE_WITH_KNOTS('',1,(#501,#502),.UNSPECIFIED.,.F.,.F.,
  (2,2),(0.,1.),.PIECEWISE_BEZIER_KNOTS.);
#501 = CARTESIAN_POINT('',(1.,0.));
#502 = CARTESIAN_POINT('',(1.,1.));
#503 = ( GEOMETRIC_REPRESENTATION_CONTEXT(2) 
PARAMETRIC_REPRESENTATION_CONTEXT() REPRESENTATION_CONTEXT('2D SPACE',''
  ) );
#504 = PCURVE('',#431,#505);
#505 = DEFINITIONAL_REPRESENTATION('',(#506),#509);
#506 = B_SPLINE_CURVE_WITH_KNOTS('',1,(#507,#508),.UNSPECIFIED.,.F.,.F.,
  (2,2),(0.,1.),.PIECEWISE_BEZIER_KNOTS.);
#507 = CARTESIAN_POINT('',(0.,0.));
#508 = CARTESIAN_POINT('',(1.,0.));
#509 = ( GEOMETRIC_REPRESENTATION_CONTEXT(2) 
PARAMETRIC_REPRESENTATION_CONTEXT() REPRESENTATION_CONTEXT('2D SPACE',''
  ) );
#510 = ORIENTED_EDGE('',*,*,#511,.F.);
#511 = EDGE_CURVE('',#292,#492,#512,.T.);
#512 = SURFACE_CURVE('',#513,(#518,#524),.PCURVE_S1.);
#513 = B_SPLINE_CURVE_WITH_KNOTS('',3,(#514,#515,#516,#517),
  .UNSPECIFIED.,.F.,.F.,(4,4),(0.,1.),.PIECEWISE_BEZIER_KNOTS.);
#514 = CARTESIAN_POINT('',(-2.1866454,0.,4.556681));
#515 = CARTESIAN_POINT('',(7.7415145,-3.6135547,6.4812253));
#516 = CARTESIAN_POINT('',(17.669674,-7.2271094,8.4057696));
#517 = CARTESIAN_POINT('',(27.597834,-10.840664,10.330314));
#518 = PCURVE('',#305,#519);
#519 = DEFINITIONAL_REPRESENTATION('',(#520),#523);
#520 = B_SPLINE_CURVE_WITH_KNOTS('',1,(#521,#522),.UNSPECIFIED.,.F.,.F.,
  (2,2),(0.,1.),.PIECEWISE_BEZIER_KNOTS.);
#521 = CARTESIAN_POINT('',(0.,0.));
#522 = CARTESIAN_POINT('',(1.,0.));
#523 = ( GEOMETRIC_REPRESENTATION_CONTEXT(2) 
PARAMETRIC_REPRESENTATION_CONTEXT() REPRESENTATION_CONTEXT('2D SPACE',''
  ) );
#524 = PCURVE('',#336,#525);
#525 = DEFINITIONAL_REPRESENTATION('',(#526),#529);
#526 = B_SPLINE_CURVE_WITH_KNOTS('',1,(#527,#528),.UNSPECIFIED.,.F.,.F.,
  (2,2),(0.,1.),.PIECEWISE_BEZIER_KNOTS.);
#527 = CARTESIAN_POINT('',(0.,1.));
#528 = CARTESIAN_POINT('',(0.,0.));
#529 = ( GEOMETRIC_REPRESENTATION_CONTEXT(2) 
PARAMETRIC_REPRESENTATION_CONTEXT() REPRESENTATION_CONTEXT('2D SPACE',''
  ) );
#530 = ORIENTED_EDGE('',*,*,#291,.T.);
#531 = ADVANCED_FACE('',(#532),#336,.T.);
#532 = FACE_BOUND('',#533,.T.);
#533 = EDGE_LOOP('',(#534,#535,#553));
#534 = ORIENTED_EDGE('',*,*,#511,.T.);
#535 = ORIENTED_EDGE('',*,*,#536,.F.);
#536 = EDGE_CURVE('',#321,#492,#537,.T.);
#537 = SURFACE_CURVE('',#538,(#541,#547),.PCURVE_S1.);
#538 = B_SPLINE_CURVE_WITH_KNOTS('',1,(#539,#540),.UNSPECIFIED.,.F.,.F.,
  (2,2),(0.,1.),.PIECEWISE_BEZIER_KNOTS.);
#539 = CARTESIAN_POINT('',(27.597834,10.840664,10.330314));
#540 = CARTESIAN_POINT('',(27.597834,-10.840664,10.330314));
#541 = PCURVE('',#336,#542);
#542 = DEFINITIONAL_REPRESENTATION('',(#543),#546);
#543 = B_SPLINE_CURVE_WITH_KNOTS('',1,(#544,#545),.UNSPECIFIED.,.F.,.F.,
  (2,2),(0.,1.),.PIECEWISE_BEZIER_KNOTS.);
#544 = CARTESIAN_POINT('',(1.,0.));
#545 = CARTESIAN_POINT('',(0.,0.));
#546 = ( GEOMETRIC_REPRESENTATION_CONTEXT(2) 
PARAMETRIC_REPRESENTATION_CONTEXT() REPRESENTATION_CONTEXT('2D SPACE',''
  ) );
#547 = PCURVE('',#401,#548);
#548 = DEFINITIONAL_REPRESENTATION('',(#549),#552);
#549 = B_SPLINE_CURVE_WITH_KNOTS('',1,(#550,#551),.UNSPECIFIED.,.F.,.F.,
  (2,2),(0.,1.),.PIECEWISE_BEZIER_KNOTS.);
#550 = CARTESIAN_POINT('',(1.,0.));
#551 = CARTESIAN_POINT('',(1.,1.));
#552 = ( GEOMETRIC_REPRESENTATION_CONTEXT(2) 
PARAMETRIC_REPRESENTATION_CONTEXT() REPRESENTATION_CONTEXT('2D SPACE',''
  ) );
#553 = ORIENTED_EDGE('',*,*,#320,.F.);
#554 = ADVANCED_FACE('',(#555),#401,.T.);
#555 = FACE_BOUND('',#556,.T.);
#556 = EDGE_LOOP('',(#557,#571,#572,#573));
#557 = ORIENTED_EDGE('',*,*,#558,.F.);
#558 = EDGE_CURVE('',#374,#559,#561,.T.);
#559 = VERTEX_POINT('',#560);
#560 = CARTESIAN_POINT('',(35.042722,-10.840664,10.330314));
#561 = SURFACE_CURVE('',#562,(#565),.PCURVE_S1.);
#562 = B_SPLINE_CURVE_WITH_KNOTS('',1,(#563,#564),.UNSPECIFIED.,.F.,.F.,
  (2,2),(0.,1.),.PIECEWISE_BEZIER_KNOTS.);
#563 = CARTESIAN_POINT('',(35.042722,10.840664,10.330314));
#564 = CARTESIAN_POINT('',(35.042722,-10.840664,10.330314));
#565 = PCURVE('',#401,#566);
#566 = DEFINITIONAL_REPRESENTATION('',(#567),#570);
#567 = B_SPLINE_CURVE_WITH_KNOTS('',1,(#568,#569),.UNSPECIFIED.,.F.,.F.,
  (2,2),(0.,1.),.PIECEWISE_BEZIER_KNOTS.);
#568 = CARTESIAN_POINT('',(0.,0.));
#569 = CARTESIAN_POINT('',(0.,1.));
#570 = ( GEOMETRIC_REPRESENTATION_CONTEXT(2) 
PARAMETRIC_REPRESENTATION_CONTEXT() REPRESENTATION_CONTEXT('2D SPACE',''
  ) );
#571 = ORIENTED_EDGE('',*,*,#389,.F.);
#572 = ORIENTED_EDGE('',*,*,#536,.T.);
#573 = ORIENTED_EDGE('',*,*,#574,.T.);
#574 = EDGE_CURVE('',#492,#559,#575,.T.);
#575 = SURFACE_CURVE('',#576,(#579,#585),.PCURVE_S1.);
#576 = B_SPLINE_CURVE_WITH_KNOTS('',1,(#577,#578),.UNSPECIFIED.,.F.,.F.,
  (2,2),(0.,1.),.PIECEWISE_BEZIER_KNOTS.);
#577 = CARTESIAN_POINT('',(27.597834,-10.840664,10.330314));
#578 = CARTESIAN_POINT('',(35.042722,-10.840664,10.330314));
#579 = PCURVE('',#401,#580);
#580 = DEFINITIONAL_REPRESENTATION('',(#581),#584);
#581 = B_SPLINE_CURVE_WITH_KNOTS('',1,(#582,#583),.UNSPECIFIED.,.F.,.F.,
  (2,2),(0.,1.),.PIECEWISE_BEZIER_KNOTS.);
#582 = CARTESIAN_POINT('',(1.,1.));
#583 = CARTESIAN_POINT('',(0.,1.));
#584 = ( GEOMETRIC_REPRESENTATION_CONTEXT(2) 
PARAMETRIC_REPRESENTATION_CONTEXT() REPRESENTATION_CONTEXT('2D SPACE',''
  ) );
#585 = PCURVE('',#431,#586);
#586 = DEFINITIONAL_REPRESENTATION('',(#587),#590);
#587 = B_SPLINE_CURVE_WITH_KNOTS('',1,(#588,#589),.UNSPECIFIED.,.F.,.F.,
  (2,2),(0.,1.),.PIECEWISE_BEZIER_KNOTS.);
#588 = CARTESIAN_POINT('',(0.,0.));
#589 = CARTESIAN_POINT('',(0.,1.));
#590 = ( GEOMETRIC_REPRESENTATION_CONTEXT(2) 
PARAMETRIC_REPRESENTATION_CONTEXT() REPRESENTATION_CONTEXT('2D SPACE',''
  ) );
#591 = ADVANCED_FACE('',(#592),#431,.T.);
#592 = FACE_BOUND('',#593,.T.);
#593 = EDGE_LOOP('',(#594,#595,#596,#597));
#594 = ORIENTED_EDGE('',*,*,#574,.F.);
#595 = ORIENTED_EDGE('',*,*,#491,.T.);
#596 = ORIENTED_EDGE('',*,*,#415,.F.);
#597 = ORIENTED_EDGE('',*,*,#598,.F.);
#598 = EDGE_CURVE('',#559,#416,#599,.T.);
#599 = SURFACE_CURVE('',#600,(#603),.PCURVE_S1.);
#600 = B_SPLINE_CURVE_WITH_KNOTS('',1,(#601,#602),.UNSPECIFIED.,.F.,.F.,
  (2,2),(0.,1.),.PIECEWISE_BEZIER_KNOTS.);
#601 = CARTESIAN_POINT('',(35.042722,-10.840664,10.330314));
#602 = CARTESIAN_POINT('',(40.,-10.840664,0.));
#603 = PCURVE('',#431,#604);
#604 = DEFINITIONAL_REPRESENTATION('',(#605),#608);
#605 = B_SPLINE_CURVE_WITH_KNOTS('',1,(#606,#607),.UNSPECIFIED.,.F.,.F.,
  (2,2),(0.,1.),.PIECEWISE_BEZIER_KNOTS.);
#606 = CARTESIAN_POINT('',(0.,1.));
#607 = CARTESIAN_POINT('',(1.,1.));
#608 = ( GEOMETRIC_REPRESENTATION_CONTEXT(2) 
PARAMETRIC_REPRESENTATION_CONTEXT() REPRESENTATION_CONTEXT('2D SPACE',''
  ) );
#609 = ( GEOMETRIC_REPRESENTATION_CONTEXT(3) 
GLOBAL_UNCERTAINTY_ASSIGNED_CONTEXT((#613)) GLOBAL_UNIT_ASSIGNED_CONTEXT
((#610,#611,#612)) REPRESENTATION_CONTEXT('Context #1',
  '3D Context with UNIT and UNCERTAINTY') );
#610 = ( LENGTH_UNIT() NAMED_UNIT(*) SI_UNIT(.MILLI.,.METRE.) );
#611 = ( NAMED_UNIT(*) PLANE_ANGLE_UNIT() SI_UNIT($,.RADIAN.) );
#612 = ( NAMED_UNIT(*) SI_UNIT($,.STERADIAN.) SOLID_ANGLE_UNIT() );
#613 = UNCERTAINTY_MEASURE_WITH_UNIT(LENGTH_MEASURE(1.E-03),#610,
  'distance_accuracy_value','confusion accuracy');
#614 = PRODUCT_RELATED_PRODUCT_CATEGORY('part',$,(#7));
ENDSEC;
END-ISO-10303-21;
