ISO-10303-21;
HEADER;
FILE_DESCRIPTION(('Open CASCADE Model'),'2;1');
FILE_NAME('Open CASCADE Shape Model','2026-07-11T20:15:53',('Author'),(
    'Open CASCADE'),'Open CASCADE STEP processor 8.0','Open CASCADE 8.0'
  ,'Unknown');
FILE_SCHEMA(('AUTOMOTIVE_DESIGN { 1 0 10303 214 1 1 1 1 }'));
ENDSEC;
DATA;
#1 = APPLICATION_PROTOCOL_DEFINITION('international standard',
  'automotive_design',2000,#2);
#2 = APPLICATION_CONTEXT(
  'core data for automotive mechanical design processes');
#3 = SHAPE_DEFINITION_REPRESENTATION(#4,#10);
#4 = PRODUCT_DEFINITION_SHAPE('','',#5);
#5 = PRODUCT_DEFINITION('design','',#6,#9);
#6 = PRODUCT_DEFINITION_FORMATION('','',#7);
#7 = PRODUCT('Open CASCADE STEP translator 8.0 1',
  'Open CASCADE STEP translator 8.0 1','',(#8));
#8 = PRODUCT_CONTEXT('',#2,'mechanical');
#9 = PRODUCT_DEFINITION_CONTEXT('part definition',#2,'design');
#10 = MANIFOLD_SURFACE_SHAPE_REPRESENTATION('',(#11,#15),#380);
#11 = AXIS2_PLACEMENT_3D('',#12,#13,#14);
#12 = CARTESIAN_POINT('',(0.,0.,0.));
#13 = DIRECTION('',(0.,0.,1.));
#14 = DIRECTION('',(1.,0.,-0.));
#15 = SHELL_BASED_SURFACE_MODEL('',(#16));
#16 = OPEN_SHELL('',(#17,#236,#305,#349));
#17 = ADVANCED_FACE('',(#18,#92),#31,.T.);
#18 = FACE_BOUND('',#19,.T.);
#19 = EDGE_LOOP('',(#20,#41,#55,#80));
#20 = ORIENTED_EDGE('',*,*,#21,.F.);
#21 = EDGE_CURVE('',#22,#24,#26,.T.);
#22 = VERTEX_POINT('',#23);
#23 = CARTESIAN_POINT('',(0.,200.00004,75.));
#24 = VERTEX_POINT('',#25);
#25 = CARTESIAN_POINT('',(0.,4.481653301247E-05,75.));
#26 = SURFACE_CURVE('',#27,(#30),.PCURVE_S1.);
#27 = B_SPLINE_CURVE_WITH_KNOTS('',1,(#28,#29),.UNSPECIFIED.,.F.,.F.,(2,
    2),(0.,1.),.PIECEWISE_BEZIER_KNOTS.);
#28 = CARTESIAN_POINT('',(0.,200.00004,75.));
#29 = CARTESIAN_POINT('',(0.,4.4816533E-05,75.));
#30 = PCURVE('',#31,#36);
#31 = B_SPLINE_SURFACE_WITH_KNOTS('',1,1,(
    (#32,#33)
    ,(#34,#35)),.UNSPECIFIED.,.F.,.F.,.F.,(2,2),(2,2),(0.,1.),(0.,1.),
  .PIECEWISE_BEZIER_KNOTS.);
#32 = CARTESIAN_POINT('',(0.,200.00004,75.));
#33 = CARTESIAN_POINT('',(0.,4.4816533E-05,75.));
#34 = CARTESIAN_POINT('',(100.,200.00004,75.));
#35 = CARTESIAN_POINT('',(100.,4.4816533E-05,75.));
#36 = DEFINITIONAL_REPRESENTATION('',(#37),#40);
#37 = B_SPLINE_CURVE_WITH_KNOTS('',1,(#38,#39),.UNSPECIFIED.,.F.,.F.,(2,
    2),(0.,1.),.PIECEWISE_BEZIER_KNOTS.);
#38 = CARTESIAN_POINT('',(0.,0.));
#39 = CARTESIAN_POINT('',(0.,1.));
#40 = ( GEOMETRIC_REPRESENTATION_CONTEXT(2) 
PARAMETRIC_REPRESENTATION_CONTEXT() REPRESENTATION_CONTEXT('2D SPACE',''
  ) );
#41 = ORIENTED_EDGE('',*,*,#42,.T.);
#42 = EDGE_CURVE('',#22,#43,#45,.T.);
#43 = VERTEX_POINT('',#44);
#44 = CARTESIAN_POINT('',(100.,200.00004,75.));
#45 = SURFACE_CURVE('',#46,(#49),.PCURVE_S1.);
#46 = B_SPLINE_CURVE_WITH_KNOTS('',1,(#47,#48),.UNSPECIFIED.,.F.,.F.,(2,
    2),(0.,1.),.PIECEWISE_BEZIER_KNOTS.);
#47 = CARTESIAN_POINT('',(0.,200.00004,75.));
#48 = CARTESIAN_POINT('',(100.,200.00004,75.));
#49 = PCURVE('',#31,#50);
#50 = DEFINITIONAL_REPRESENTATION('',(#51),#54);
#51 = B_SPLINE_CURVE_WITH_KNOTS('',1,(#52,#53),.UNSPECIFIED.,.F.,.F.,(2,
    2),(0.,1.),.PIECEWISE_BEZIER_KNOTS.);
#52 = CARTESIAN_POINT('',(0.,0.));
#53 = CARTESIAN_POINT('',(1.,0.));
#54 = ( GEOMETRIC_REPRESENTATION_CONTEXT(2) 
PARAMETRIC_REPRESENTATION_CONTEXT() REPRESENTATION_CONTEXT('2D SPACE',''
  ) );
#55 = ORIENTED_EDGE('',*,*,#56,.T.);
#56 = EDGE_CURVE('',#43,#57,#59,.T.);
#57 = VERTEX_POINT('',#58);
#58 = CARTESIAN_POINT('',(100.,4.481653301247E-05,75.));
#59 = SURFACE_CURVE('',#60,(#63,#69),.PCURVE_S1.);
#60 = B_SPLINE_CURVE_WITH_KNOTS('',1,(#61,#62),.UNSPECIFIED.,.F.,.F.,(2,
    2),(0.,1.),.PIECEWISE_BEZIER_KNOTS.);
#61 = CARTESIAN_POINT('',(100.,200.00004,75.));
#62 = CARTESIAN_POINT('',(100.,4.4816533E-05,75.));
#63 = PCURVE('',#31,#64);
#64 = DEFINITIONAL_REPRESENTATION('',(#65),#68);
#65 = B_SPLINE_CURVE_WITH_KNOTS('',1,(#66,#67),.UNSPECIFIED.,.F.,.F.,(2,
    2),(0.,1.),.PIECEWISE_BEZIER_KNOTS.);
#66 = CARTESIAN_POINT('',(1.,0.));
#67 = CARTESIAN_POINT('',(1.,1.));
#68 = ( GEOMETRIC_REPRESENTATION_CONTEXT(2) 
PARAMETRIC_REPRESENTATION_CONTEXT() REPRESENTATION_CONTEXT('2D SPACE',''
  ) );
#69 = PCURVE('',#70,#75);
#70 = B_SPLINE_SURFACE_WITH_KNOTS('',1,1,(
    (#71,#72)
    ,(#73,#74)),.UNSPECIFIED.,.F.,.F.,.F.,(2,2),(2,2),(0.,1.),(0.,1.),
  .PIECEWISE_BEZIER_KNOTS.);
#71 = CARTESIAN_POINT('',(100.,200.00004,0.));
#72 = CARTESIAN_POINT('',(100.,200.00004,75.));
#73 = CARTESIAN_POINT('',(100.,4.4816533E-05,0.));
#74 = CARTESIAN_POINT('',(100.,4.4816533E-05,75.));
#75 = DEFINITIONAL_REPRESENTATION('',(#76),#79);
#76 = B_SPLINE_CURVE_WITH_KNOTS('',1,(#77,#78),.UNSPECIFIED.,.F.,.F.,(2,
    2),(0.,1.),.PIECEWISE_BEZIER_KNOTS.);
#77 = CARTESIAN_POINT('',(0.,1.));
#78 = CARTESIAN_POINT('',(1.,1.));
#79 = ( GEOMETRIC_REPRESENTATION_CONTEXT(2) 
PARAMETRIC_REPRESENTATION_CONTEXT() REPRESENTATION_CONTEXT('2D SPACE',''
  ) );
#80 = ORIENTED_EDGE('',*,*,#81,.F.);
#81 = EDGE_CURVE('',#24,#57,#82,.T.);
#82 = SURFACE_CURVE('',#83,(#86),.PCURVE_S1.);
#83 = B_SPLINE_CURVE_WITH_KNOTS('',1,(#84,#85),.UNSPECIFIED.,.F.,.F.,(2,
    2),(0.,1.),.PIECEWISE_BEZIER_KNOTS.);
#84 = CARTESIAN_POINT('',(0.,4.4816533E-05,75.));
#85 = CARTESIAN_POINT('',(100.,4.4816533E-05,75.));
#86 = PCURVE('',#31,#87);
#87 = DEFINITIONAL_REPRESENTATION('',(#88),#91);
#88 = B_SPLINE_CURVE_WITH_KNOTS('',1,(#89,#90),.UNSPECIFIED.,.F.,.F.,(2,
    2),(0.,1.),.PIECEWISE_BEZIER_KNOTS.);
#89 = CARTESIAN_POINT('',(0.,1.));
#90 = CARTESIAN_POINT('',(1.,1.));
#91 = ( GEOMETRIC_REPRESENTATION_CONTEXT(2) 
PARAMETRIC_REPRESENTATION_CONTEXT() REPRESENTATION_CONTEXT('2D SPACE',''
  ) );
#92 = FACE_BOUND('',#93,.T.);
#93 = EDGE_LOOP('',(#94,#167));
#94 = ORIENTED_EDGE('',*,*,#95,.T.);
#95 = EDGE_CURVE('',#96,#98,#100,.T.);
#96 = VERTEX_POINT('',#97);
#97 = CARTESIAN_POINT('',(70.,129.99995,75.));
#98 = VERTEX_POINT('',#99);
#99 = CARTESIAN_POINT('',(70.,70.000045,75.));
#100 = SURFACE_CURVE('',#101,(#117,#130),.PCURVE_S1.);
#101 = B_SPLINE_CURVE_WITH_KNOTS('',14,(#102,#103,#104,#105,#106,#107,
    #108,#109,#110,#111,#112,#113,#114,#115,#116),.UNSPECIFIED.,.F.,.F.,
  (15,15),(0.,1.),.PIECEWISE_BEZIER_KNOTS.);
#102 = CARTESIAN_POINT('',(70.,129.99995,75.));
#103 = CARTESIAN_POINT('',(63.268052,129.99995,75.));
#104 = CARTESIAN_POINT('',(56.536104,128.3731,75.));
#105 = CARTESIAN_POINT('',(50.230057,125.1194,75.));
#106 = CARTESIAN_POINT('',(44.77581,120.36049,75.));
#107 = CARTESIAN_POINT('',(40.561057,114.33964,75.));
#108 = CARTESIAN_POINT('',(37.897071,107.40843,75.));
#109 = CARTESIAN_POINT('',(36.985731,100.00004,75.));
#110 = CARTESIAN_POINT('',(37.897017,92.591656,75.));
#111 = CARTESIAN_POINT('',(40.560968,85.660425,75.));
#112 = CARTESIAN_POINT('',(44.775705,79.639552,75.));
#113 = CARTESIAN_POINT('',(50.229958,74.880618,75.));
#114 = CARTESIAN_POINT('',(56.536031,71.626903,75.));
#115 = CARTESIAN_POINT('',(63.268016,70.000045,75.));
#116 = CARTESIAN_POINT('',(70.,70.000045,75.));
#117 = PCURVE('',#31,#118);
#118 = DEFINITIONAL_REPRESENTATION('',(#119),#129);
#119 = B_SPLINE_CURVE_WITH_KNOTS('',8,(#120,#121,#122,#123,#124,#125,
    #126,#127,#128),.UNSPECIFIED.,.F.,.F.,(9,9),(0.,1.),
  .PIECEWISE_BEZIER_KNOTS.);
#120 = CARTESIAN_POINT('',(0.7,0.3500005));
#121 = CARTESIAN_POINT('',(0.58219124,0.3500005));
#122 = CARTESIAN_POINT('',(0.46437913,0.37644278));
#123 = CARTESIAN_POINT('',(0.37426868,0.42927977));
#124 = CARTESIAN_POINT('',(0.33945455,0.49999991));
#125 = CARTESIAN_POINT('',(0.37426737,0.57072031));
#126 = CARTESIAN_POINT('',(0.46437789,0.62355757));
#127 = CARTESIAN_POINT('',(0.5821906,0.65));
#128 = CARTESIAN_POINT('',(0.7,0.65));
#129 = ( GEOMETRIC_REPRESENTATION_CONTEXT(2) 
PARAMETRIC_REPRESENTATION_CONTEXT() REPRESENTATION_CONTEXT('2D SPACE',''
  ) );
#130 = PCURVE('',#131,#162);
#131 = B_SPLINE_SURFACE_WITH_KNOTS('',14,1,(
    (#132,#133)
    ,(#134,#135)
    ,(#136,#137)
    ,(#138,#139)
    ,(#140,#141)
    ,(#142,#143)
    ,(#144,#145)
    ,(#146,#147)
    ,(#148,#149)
    ,(#150,#151)
    ,(#152,#153)
    ,(#154,#155)
    ,(#156,#157)
    ,(#158,#159)
    ,(#160,#161
    )),.UNSPECIFIED.,.F.,.F.,.F.,(15,15),(2,2),(0.,1.),(0.,1.),
  .PIECEWISE_BEZIER_KNOTS.);
#132 = CARTESIAN_POINT('',(70.,119.99998,95.));
#133 = CARTESIAN_POINT('',(70.,129.99995,75.));
#134 = CARTESIAN_POINT('',(65.512035,119.99998,95.));
#135 = CARTESIAN_POINT('',(63.268052,129.99995,75.));
#136 = CARTESIAN_POINT('',(61.024069,118.91541,95.));
#137 = CARTESIAN_POINT('',(56.536104,128.3731,75.));
#138 = CARTESIAN_POINT('',(56.820038,116.74628,95.));
#139 = CARTESIAN_POINT('',(50.230057,125.1194,75.));
#140 = CARTESIAN_POINT('',(53.183874,113.57367,95.));
#141 = CARTESIAN_POINT('',(44.77581,120.36049,75.));
#142 = CARTESIAN_POINT('',(50.374038,109.55977,95.));
#143 = CARTESIAN_POINT('',(40.561057,114.33964,75.));
#144 = CARTESIAN_POINT('',(48.598047,104.93897,95.));
#145 = CARTESIAN_POINT('',(37.897071,107.40843,75.));
#146 = CARTESIAN_POINT('',(47.990488,100.00004,95.));
#147 = CARTESIAN_POINT('',(36.985731,100.00004,75.));
#148 = CARTESIAN_POINT('',(48.598011,95.061119,95.));
#149 = CARTESIAN_POINT('',(37.897017,92.591656,75.));
#150 = CARTESIAN_POINT('',(50.373979,90.440298,95.));
#151 = CARTESIAN_POINT('',(40.560968,85.660425,75.));
#152 = CARTESIAN_POINT('',(53.183803,86.426383,95.));
#153 = CARTESIAN_POINT('',(44.775705,79.639552,75.));
#154 = CARTESIAN_POINT('',(56.819972,83.253761,95.));
#155 = CARTESIAN_POINT('',(50.229958,74.880618,75.));
#156 = CARTESIAN_POINT('',(61.024021,81.084617,95.));
#157 = CARTESIAN_POINT('',(56.536031,71.626903,75.));
#158 = CARTESIAN_POINT('',(65.51201,80.000045,95.));
#159 = CARTESIAN_POINT('',(63.268016,70.000045,75.));
#160 = CARTESIAN_POINT('',(70.,80.000045,95.));
#161 = CARTESIAN_POINT('',(70.,70.000045,75.));
#162 = DEFINITIONAL_REPRESENTATION('',(#163),#166);
#163 = B_SPLINE_CURVE_WITH_KNOTS('',1,(#164,#165),.UNSPECIFIED.,.F.,.F.,
  (2,2),(0.,1.),.PIECEWISE_BEZIER_KNOTS.);
#164 = CARTESIAN_POINT('',(0.,1.));
#165 = CARTESIAN_POINT('',(1.,1.));
#166 = ( GEOMETRIC_REPRESENTATION_CONTEXT(2) 
PARAMETRIC_REPRESENTATION_CONTEXT() REPRESENTATION_CONTEXT('2D SPACE',''
  ) );
#167 = ORIENTED_EDGE('',*,*,#168,.T.);
#168 = EDGE_CURVE('',#98,#96,#169,.T.);
#169 = SURFACE_CURVE('',#170,(#186,#199),.PCURVE_S1.);
#170 = B_SPLINE_CURVE_WITH_KNOTS('',14,(#171,#172,#173,#174,#175,#176,
    #177,#178,#179,#180,#181,#182,#183,#184,#185),.UNSPECIFIED.,.F.,.F.,
  (15,15),(0.,1.),.PIECEWISE_BEZIER_KNOTS.);
#171 = CARTESIAN_POINT('',(70.,70.000045,75.));
#172 = CARTESIAN_POINT('',(76.731984,70.000045,75.));
#173 = CARTESIAN_POINT('',(83.463969,71.626903,75.));
#174 = CARTESIAN_POINT('',(89.770042,74.880618,75.));
#175 = CARTESIAN_POINT('',(95.224295,79.639552,75.));
#176 = CARTESIAN_POINT('',(99.439032,85.660425,75.));
#177 = CARTESIAN_POINT('',(102.10298,92.591656,75.));
#178 = CARTESIAN_POINT('',(103.01427,100.00004,75.));
#179 = CARTESIAN_POINT('',(102.10293,107.40843,75.));
#180 = CARTESIAN_POINT('',(99.438943,114.33964,75.));
#181 = CARTESIAN_POINT('',(95.22419,120.36049,75.));
#182 = CARTESIAN_POINT('',(89.769943,125.1194,75.));
#183 = CARTESIAN_POINT('',(83.463896,128.3731,75.));
#184 = CARTESIAN_POINT('',(76.731948,129.99995,75.));
#185 = CARTESIAN_POINT('',(70.,129.99995,75.));
#186 = PCURVE('',#31,#187);
#187 = DEFINITIONAL_REPRESENTATION('',(#188),#198);
#188 = B_SPLINE_CURVE_WITH_KNOTS('',8,(#189,#190,#191,#192,#193,#194,
    #195,#196,#197),.UNSPECIFIED.,.F.,.F.,(9,9),(0.,1.),
  .PIECEWISE_BEZIER_KNOTS.);
#189 = CARTESIAN_POINT('',(0.7,0.65));
#190 = CARTESIAN_POINT('',(0.81780939,0.65));
#191 = CARTESIAN_POINT('',(0.93562217,0.62355757));
#192 = CARTESIAN_POINT('',(1.0257325,0.57072031));
#193 = CARTESIAN_POINT('',(1.0605456,0.49999992));
#194 = CARTESIAN_POINT('',(1.0257312,0.42927976));
#195 = CARTESIAN_POINT('',(0.93562092,0.37644278));
#196 = CARTESIAN_POINT('',(0.81780875,0.3500005));
#197 = CARTESIAN_POINT('',(0.7,0.3500005));
#198 = ( GEOMETRIC_REPRESENTATION_CONTEXT(2) 
PARAMETRIC_REPRESENTATION_CONTEXT() REPRESENTATION_CONTEXT('2D SPACE',''
  ) );
#199 = PCURVE('',#200,#231);
#200 = B_SPLINE_SURFACE_WITH_KNOTS('',14,1,(
    (#201,#202)
    ,(#203,#204)
    ,(#205,#206)
    ,(#207,#208)
    ,(#209,#210)
    ,(#211,#212)
    ,(#213,#214)
    ,(#215,#216)
    ,(#217,#218)
    ,(#219,#220)
    ,(#221,#222)
    ,(#223,#224)
    ,(#225,#226)
    ,(#227,#228)
    ,(#229,#230
    )),.UNSPECIFIED.,.F.,.F.,.F.,(15,15),(2,2),(0.,1.),(0.,1.),
  .PIECEWISE_BEZIER_KNOTS.);
#201 = CARTESIAN_POINT('',(70.,80.000045,95.));
#202 = CARTESIAN_POINT('',(70.,70.000045,75.));
#203 = CARTESIAN_POINT('',(74.48799,80.000045,95.));
#204 = CARTESIAN_POINT('',(76.731984,70.000045,75.));
#205 = CARTESIAN_POINT('',(78.975979,81.084617,95.));
#206 = CARTESIAN_POINT('',(83.463969,71.626903,75.));
#207 = CARTESIAN_POINT('',(83.180028,83.253761,95.));
#208 = CARTESIAN_POINT('',(89.770042,74.880618,75.));
#209 = CARTESIAN_POINT('',(86.816197,86.426383,95.));
#210 = CARTESIAN_POINT('',(95.224295,79.639552,75.));
#211 = CARTESIAN_POINT('',(89.626021,90.440298,95.));
#212 = CARTESIAN_POINT('',(99.439032,85.660425,75.));
#213 = CARTESIAN_POINT('',(91.401989,95.061119,95.));
#214 = CARTESIAN_POINT('',(102.10298,92.591656,75.));
#215 = CARTESIAN_POINT('',(92.009512,100.00004,95.));
#216 = CARTESIAN_POINT('',(103.01427,100.00004,75.));
#217 = CARTESIAN_POINT('',(91.401953,104.93897,95.));
#218 = CARTESIAN_POINT('',(102.10293,107.40843,75.));
#219 = CARTESIAN_POINT('',(89.625962,109.55977,95.));
#220 = CARTESIAN_POINT('',(99.438943,114.33964,75.));
#221 = CARTESIAN_POINT('',(86.816126,113.57367,95.));
#222 = CARTESIAN_POINT('',(95.22419,120.36049,75.));
#223 = CARTESIAN_POINT('',(83.179962,116.74628,95.));
#224 = CARTESIAN_POINT('',(89.769943,125.1194,75.));
#225 = CARTESIAN_POINT('',(78.975931,118.91541,95.));
#226 = CARTESIAN_POINT('',(83.463896,128.3731,75.));
#227 = CARTESIAN_POINT('',(74.487965,119.99998,95.));
#228 = CARTESIAN_POINT('',(76.731948,129.99995,75.));
#229 = CARTESIAN_POINT('',(70.,119.99998,95.));
#230 = CARTESIAN_POINT('',(70.,129.99995,75.));
#231 = DEFINITIONAL_REPRESENTATION('',(#232),#235);
#232 = B_SPLINE_CURVE_WITH_KNOTS('',1,(#233,#234),.UNSPECIFIED.,.F.,.F.,
  (2,2),(0.,1.),.PIECEWISE_BEZIER_KNOTS.);
#233 = CARTESIAN_POINT('',(0.,1.));
#234 = CARTESIAN_POINT('',(1.,1.));
#235 = ( GEOMETRIC_REPRESENTATION_CONTEXT(2) 
PARAMETRIC_REPRESENTATION_CONTEXT() REPRESENTATION_CONTEXT('2D SPACE',''
  ) );
#236 = ADVANCED_FACE('',(#237),#200,.T.);
#237 = FACE_BOUND('',#238,.T.);
#238 = EDGE_LOOP('',(#239,#259,#286,#304));
#239 = ORIENTED_EDGE('',*,*,#240,.F.);
#240 = EDGE_CURVE('',#241,#98,#243,.T.);
#241 = VERTEX_POINT('',#242);
#242 = CARTESIAN_POINT('',(70.,80.000045,95.));
#243 = SURFACE_CURVE('',#244,(#247,#253),.PCURVE_S1.);
#244 = B_SPLINE_CURVE_WITH_KNOTS('',1,(#245,#246),.UNSPECIFIED.,.F.,.F.,
  (2,2),(0.,1.),.PIECEWISE_BEZIER_KNOTS.);
#245 = CARTESIAN_POINT('',(70.,80.000045,95.));
#246 = CARTESIAN_POINT('',(70.,70.000045,75.));
#247 = PCURVE('',#200,#248);
#248 = DEFINITIONAL_REPRESENTATION('',(#249),#252);
#249 = B_SPLINE_CURVE_WITH_KNOTS('',1,(#250,#251),.UNSPECIFIED.,.F.,.F.,
  (2,2),(0.,1.),.PIECEWISE_BEZIER_KNOTS.);
#250 = CARTESIAN_POINT('',(0.,0.));
#251 = CARTESIAN_POINT('',(0.,1.));
#252 = ( GEOMETRIC_REPRESENTATION_CONTEXT(2) 
PARAMETRIC_REPRESENTATION_CONTEXT() REPRESENTATION_CONTEXT('2D SPACE',''
  ) );
#253 = PCURVE('',#131,#254);
#254 = DEFINITIONAL_REPRESENTATION('',(#255),#258);
#255 = B_SPLINE_CURVE_WITH_KNOTS('',1,(#256,#257),.UNSPECIFIED.,.F.,.F.,
  (2,2),(0.,1.),.PIECEWISE_BEZIER_KNOTS.);
#256 = CARTESIAN_POINT('',(1.,0.));
#257 = CARTESIAN_POINT('',(1.,1.));
#258 = ( GEOMETRIC_REPRESENTATION_CONTEXT(2) 
PARAMETRIC_REPRESENTATION_CONTEXT() REPRESENTATION_CONTEXT('2D SPACE',''
  ) );
#259 = ORIENTED_EDGE('',*,*,#260,.T.);
#260 = EDGE_CURVE('',#241,#261,#263,.T.);
#261 = VERTEX_POINT('',#262);
#262 = CARTESIAN_POINT('',(70.,119.99998,95.));
#263 = SURFACE_CURVE('',#264,(#280),.PCURVE_S1.);
#264 = B_SPLINE_CURVE_WITH_KNOTS('',14,(#265,#266,#267,#268,#269,#270,
    #271,#272,#273,#274,#275,#276,#277,#278,#279),.UNSPECIFIED.,.F.,.F.,
  (15,15),(0.,1.),.PIECEWISE_BEZIER_KNOTS.);
#265 = CARTESIAN_POINT('',(70.,80.000045,95.));
#266 = CARTESIAN_POINT('',(74.48799,80.000045,95.));
#267 = CARTESIAN_POINT('',(78.975979,81.084617,95.));
#268 = CARTESIAN_POINT('',(83.180028,83.253761,95.));
#269 = CARTESIAN_POINT('',(86.816197,86.426383,95.));
#270 = CARTESIAN_POINT('',(89.626021,90.440298,95.));
#271 = CARTESIAN_POINT('',(91.401989,95.061119,95.));
#272 = CARTESIAN_POINT('',(92.009512,100.00004,95.));
#273 = CARTESIAN_POINT('',(91.401953,104.93897,95.));
#274 = CARTESIAN_POINT('',(89.625962,109.55977,95.));
#275 = CARTESIAN_POINT('',(86.816126,113.57367,95.));
#276 = CARTESIAN_POINT('',(83.179962,116.74628,95.));
#277 = CARTESIAN_POINT('',(78.975931,118.91541,95.));
#278 = CARTESIAN_POINT('',(74.487965,119.99998,95.));
#279 = CARTESIAN_POINT('',(70.,119.99998,95.));
#280 = PCURVE('',#200,#281);
#281 = DEFINITIONAL_REPRESENTATION('',(#282),#285);
#282 = B_SPLINE_CURVE_WITH_KNOTS('',1,(#283,#284),.UNSPECIFIED.,.F.,.F.,
  (2,2),(0.,1.),.PIECEWISE_BEZIER_KNOTS.);
#283 = CARTESIAN_POINT('',(0.,0.));
#284 = CARTESIAN_POINT('',(1.,0.));
#285 = ( GEOMETRIC_REPRESENTATION_CONTEXT(2) 
PARAMETRIC_REPRESENTATION_CONTEXT() REPRESENTATION_CONTEXT('2D SPACE',''
  ) );
#286 = ORIENTED_EDGE('',*,*,#287,.T.);
#287 = EDGE_CURVE('',#261,#96,#288,.T.);
#288 = SURFACE_CURVE('',#289,(#292,#298),.PCURVE_S1.);
#289 = B_SPLINE_CURVE_WITH_KNOTS('',1,(#290,#291),.UNSPECIFIED.,.F.,.F.,
  (2,2),(0.,1.),.PIECEWISE_BEZIER_KNOTS.);
#290 = CARTESIAN_POINT('',(70.,119.99998,95.));
#291 = CARTESIAN_POINT('',(70.,129.99995,75.));
#292 = PCURVE('',#200,#293);
#293 = DEFINITIONAL_REPRESENTATION('',(#294),#297);
#294 = B_SPLINE_CURVE_WITH_KNOTS('',1,(#295,#296),.UNSPECIFIED.,.F.,.F.,
  (2,2),(0.,1.),.PIECEWISE_BEZIER_KNOTS.);
#295 = CARTESIAN_POINT('',(1.,0.));
#296 = CARTESIAN_POINT('',(1.,1.));
#297 = ( GEOMETRIC_REPRESENTATION_CONTEXT(2) 
PARAMETRIC_REPRESENTATION_CONTEXT() REPRESENTATION_CONTEXT('2D SPACE',''
  ) );
#298 = PCURVE('',#131,#299);
#299 = DEFINITIONAL_REPRESENTATION('',(#300),#303);
#300 = B_SPLINE_CURVE_WITH_KNOTS('',1,(#301,#302),.UNSPECIFIED.,.F.,.F.,
  (2,2),(0.,1.),.PIECEWISE_BEZIER_KNOTS.);
#301 = CARTESIAN_POINT('',(0.,0.));
#302 = CARTESIAN_POINT('',(0.,1.));
#303 = ( GEOMETRIC_REPRESENTATION_CONTEXT(2) 
PARAMETRIC_REPRESENTATION_CONTEXT() REPRESENTATION_CONTEXT('2D SPACE',''
  ) );
#304 = ORIENTED_EDGE('',*,*,#168,.F.);
#305 = ADVANCED_FACE('',(#306),#70,.T.);
#306 = FACE_BOUND('',#307,.T.);
#307 = EDGE_LOOP('',(#308,#322,#336,#348));
#308 = ORIENTED_EDGE('',*,*,#309,.F.);
#309 = EDGE_CURVE('',#310,#43,#312,.T.);
#310 = VERTEX_POINT('',#311);
#311 = CARTESIAN_POINT('',(100.,200.00004,0.));
#312 = SURFACE_CURVE('',#313,(#316),.PCURVE_S1.);
#313 = B_SPLINE_CURVE_WITH_KNOTS('',1,(#314,#315),.UNSPECIFIED.,.F.,.F.,
  (2,2),(0.,1.),.PIECEWISE_BEZIER_KNOTS.);
#314 = CARTESIAN_POINT('',(100.,200.00004,0.));
#315 = CARTESIAN_POINT('',(100.,200.00004,75.));
#316 = PCURVE('',#70,#317);
#317 = DEFINITIONAL_REPRESENTATION('',(#318),#321);
#318 = B_SPLINE_CURVE_WITH_KNOTS('',1,(#319,#320),.UNSPECIFIED.,.F.,.F.,
  (2,2),(0.,1.),.PIECEWISE_BEZIER_KNOTS.);
#319 = CARTESIAN_POINT('',(0.,0.));
#320 = CARTESIAN_POINT('',(0.,1.));
#321 = ( GEOMETRIC_REPRESENTATION_CONTEXT(2) 
PARAMETRIC_REPRESENTATION_CONTEXT() REPRESENTATION_CONTEXT('2D SPACE',''
  ) );
#322 = ORIENTED_EDGE('',*,*,#323,.T.);
#323 = EDGE_CURVE('',#310,#324,#326,.T.);
#324 = VERTEX_POINT('',#325);
#325 = CARTESIAN_POINT('',(100.,4.481653301247E-05,0.));
#326 = SURFACE_CURVE('',#327,(#330),.PCURVE_S1.);
#327 = B_SPLINE_CURVE_WITH_KNOTS('',1,(#328,#329),.UNSPECIFIED.,.F.,.F.,
  (2,2),(0.,1.),.PIECEWISE_BEZIER_KNOTS.);
#328 = CARTESIAN_POINT('',(100.,200.00004,0.));
#329 = CARTESIAN_POINT('',(100.,4.4816533E-05,0.));
#330 = PCURVE('',#70,#331);
#331 = DEFINITIONAL_REPRESENTATION('',(#332),#335);
#332 = B_SPLINE_CURVE_WITH_KNOTS('',1,(#333,#334),.UNSPECIFIED.,.F.,.F.,
  (2,2),(0.,1.),.PIECEWISE_BEZIER_KNOTS.);
#333 = CARTESIAN_POINT('',(0.,0.));
#334 = CARTESIAN_POINT('',(1.,0.));
#335 = ( GEOMETRIC_REPRESENTATION_CONTEXT(2) 
PARAMETRIC_REPRESENTATION_CONTEXT() REPRESENTATION_CONTEXT('2D SPACE',''
  ) );
#336 = ORIENTED_EDGE('',*,*,#337,.T.);
#337 = EDGE_CURVE('',#324,#57,#338,.T.);
#338 = SURFACE_CURVE('',#339,(#342),.PCURVE_S1.);
#339 = B_SPLINE_CURVE_WITH_KNOTS('',1,(#340,#341),.UNSPECIFIED.,.F.,.F.,
  (2,2),(0.,1.),.PIECEWISE_BEZIER_KNOTS.);
#340 = CARTESIAN_POINT('',(100.,4.4816533E-05,0.));
#341 = CARTESIAN_POINT('',(100.,4.4816533E-05,75.));
#342 = PCURVE('',#70,#343);
#343 = DEFINITIONAL_REPRESENTATION('',(#344),#347);
#344 = B_SPLINE_CURVE_WITH_KNOTS('',1,(#345,#346),.UNSPECIFIED.,.F.,.F.,
  (2,2),(0.,1.),.PIECEWISE_BEZIER_KNOTS.);
#345 = CARTESIAN_POINT('',(1.,0.));
#346 = CARTESIAN_POINT('',(1.,1.));
#347 = ( GEOMETRIC_REPRESENTATION_CONTEXT(2) 
PARAMETRIC_REPRESENTATION_CONTEXT() REPRESENTATION_CONTEXT('2D SPACE',''
  ) );
#348 = ORIENTED_EDGE('',*,*,#56,.F.);
#349 = ADVANCED_FACE('',(#350),#131,.T.);
#350 = FACE_BOUND('',#351,.T.);
#351 = EDGE_LOOP('',(#352,#353,#378,#379));
#352 = ORIENTED_EDGE('',*,*,#287,.F.);
#353 = ORIENTED_EDGE('',*,*,#354,.T.);
#354 = EDGE_CURVE('',#261,#241,#355,.T.);
#355 = SURFACE_CURVE('',#356,(#372),.PCURVE_S1.);
#356 = B_SPLINE_CURVE_WITH_KNOTS('',14,(#357,#358,#359,#360,#361,#362,
    #363,#364,#365,#366,#367,#368,#369,#370,#371),.UNSPECIFIED.,.F.,.F.,
  (15,15),(0.,1.),.PIECEWISE_BEZIER_KNOTS.);
#357 = CARTESIAN_POINT('',(70.,119.99998,95.));
#358 = CARTESIAN_POINT('',(65.512035,119.99998,95.));
#359 = CARTESIAN_POINT('',(61.024069,118.91541,95.));
#360 = CARTESIAN_POINT('',(56.820038,116.74628,95.));
#361 = CARTESIAN_POINT('',(53.183874,113.57367,95.));
#362 = CARTESIAN_POINT('',(50.374038,109.55977,95.));
#363 = CARTESIAN_POINT('',(48.598047,104.93897,95.));
#364 = CARTESIAN_POINT('',(47.990488,100.00004,95.));
#365 = CARTESIAN_POINT('',(48.598011,95.061119,95.));
#366 = CARTESIAN_POINT('',(50.373979,90.440298,95.));
#367 = CARTESIAN_POINT('',(53.183803,86.426383,95.));
#368 = CARTESIAN_POINT('',(56.819972,83.253761,95.));
#369 = CARTESIAN_POINT('',(61.024021,81.084617,95.));
#370 = CARTESIAN_POINT('',(65.51201,80.000045,95.));
#371 = CARTESIAN_POINT('',(70.,80.000045,95.));
#372 = PCURVE('',#131,#373);
#373 = DEFINITIONAL_REPRESENTATION('',(#374),#377);
#374 = B_SPLINE_CURVE_WITH_KNOTS('',1,(#375,#376),.UNSPECIFIED.,.F.,.F.,
  (2,2),(0.,1.),.PIECEWISE_BEZIER_KNOTS.);
#375 = CARTESIAN_POINT('',(0.,0.));
#376 = CARTESIAN_POINT('',(1.,0.));
#377 = ( GEOMETRIC_REPRESENTATION_CONTEXT(2) 
PARAMETRIC_REPRESENTATION_CONTEXT() REPRESENTATION_CONTEXT('2D SPACE',''
  ) );
#378 = ORIENTED_EDGE('',*,*,#240,.T.);
#379 = ORIENTED_EDGE('',*,*,#95,.F.);
#380 = ( GEOMETRIC_REPRESENTATION_CONTEXT(3) 
GLOBAL_UNCERTAINTY_ASSIGNED_CONTEXT((#384)) GLOBAL_UNIT_ASSIGNED_CONTEXT
((#381,#382,#383)) REPRESENTATION_CONTEXT('Context #1',
  '3D Context with UNIT and UNCERTAINTY') );
#381 = ( LENGTH_UNIT() NAMED_UNIT(*) SI_UNIT(.MILLI.,.METRE.) );
#382 = ( NAMED_UNIT(*) PLANE_ANGLE_UNIT() SI_UNIT($,.RADIAN.) );
#383 = ( NAMED_UNIT(*) SI_UNIT($,.STERADIAN.) SOLID_ANGLE_UNIT() );
#384 = UNCERTAINTY_MEASURE_WITH_UNIT(LENGTH_MEASURE(1.E-03),#381,
  'distance_accuracy_value','confusion accuracy');
#385 = PRODUCT_RELATED_PRODUCT_CATEGORY('part',$,(#7));
ENDSEC;
END-ISO-10303-21;
