ISO-10303-21;
HEADER;
FILE_DESCRIPTION(('Open CASCADE Model'),'2;1');
FILE_NAME('Open CASCADE Shape Model','2026-07-11T20:15:53',('Author'),(
    'Open CASCADE'),'Open CASCADE STEP processor 8.0','Open CASCADE 8.0'
  ,'Unknown');
FILE_SCHEMA(('AUTOMOTIVE_DESIGN { 1 0 10303 214 1 1 1 1 }'));
ENDSEC;
DATA;
#1 = APPLICATION_PROTOCOL_DEFINITION('international standard',
  'automotive_design',2000,#2);
#2 = APPLICATION_CONTEXT(
  'core data for automotive mechanical design processes');
#3 = SHAPE_DEFINITION_REPRESENTATION(#4,#10);
#4 = PRODUCT_DEFINITION_SHAPE('','',#5);
#5 = PRODUCT_DEFINITION('design','',#6,#9);
#6 = PRODUCT_DEFINITION_FORMATION('','',#7);
#7 = PRODUCT('Open CASCADE STEP translator 8.0 1',
  'Open CASCADE STEP translator 8.0 1','',(#8));
#8 = PRODUCT_CONTEXT('',#2,'mechanical');
#9 = PRODUCT_DEFINITION_CONTEXT('part definition',#2,'design');
#10 = MANIFOLD_SURFACE_SHAPE_REPRESENTATION('',(#11,#15),#300);
#11 = AXIS2_PLACEMENT_3D('',#12,#13,#14);
#12 = CARTESIAN_POINT('',(0.,0.,0.));
#13 = DIRECTION('',(0.,0.,1.));
#14 = DIRECTION('',(1.,0.,-0.));
#15 = SHELL_BASED_SURFACE_MODEL('',(#16));
#16 = OPEN_SHELL('',(#17,#174,#230,#265));
#17 = ADVANCED_FACE('',(#18),#31,.T.);
#18 = FACE_BOUND('',#19,.T.);
#19 = EDGE_LOOP('',(#20,#52,#93,#107,#121,#135));
#20 = ORIENTED_EDGE('',*,*,#21,.F.);
#21 = EDGE_CURVE('',#22,#24,#26,.T.);
#22 = VERTEX_POINT('',#23);
#23 = CARTESIAN_POINT('',(70.,109.96193717496,31.628330505797));
#24 = VERTEX_POINT('',#25);
#25 = CARTESIAN_POINT('',(70.,190.03806282503,24.621669427489));
#26 = SURFACE_CURVE('',#27,(#30,#41),.PCURVE_S1.);
#27 = B_SPLINE_CURVE_WITH_KNOTS('',1,(#28,#29),.UNSPECIFIED.,.F.,.F.,(2,
    2),(0.,1.),.PIECEWISE_BEZIER_KNOTS.);
#28 = CARTESIAN_POINT('',(70.,109.96193717496,31.628330502142));
#29 = CARTESIAN_POINT('',(70.,190.03806282503,24.621669456663));
#30 = PCURVE('',#31,#36);
#31 = B_SPLINE_SURFACE_WITH_KNOTS('',1,1,(
    (#32,#33)
    ,(#34,#35)),.UNSPECIFIED.,.F.,.F.,.F.,(2,2),(2,2),(0.,1.),(0.,1.),
  .PIECEWISE_BEZIER_KNOTS.);
#32 = CARTESIAN_POINT('',(1.42108547152E-14,99.99999985289,
    32.49999875767));
#33 = CARTESIAN_POINT('',(70.000000069877,100.000000016,32.500000021816)
  );
#34 = CARTESIAN_POINT('',(-7.500105425606E-08,200.00000000015,
    23.749998621794));
#35 = CARTESIAN_POINT('',(69.999999994876,200.00000016326,
    23.749999885939));
#36 = DEFINITIONAL_REPRESENTATION('',(#37),#40);
#37 = B_SPLINE_CURVE_WITH_KNOTS('',1,(#38,#39),.UNSPECIFIED.,.F.,.F.,(2,
    2),(0.,1.),.PIECEWISE_BEZIER_KNOTS.);
#38 = CARTESIAN_POINT('',(9.961937144287E-02,0.999999999108));
#39 = CARTESIAN_POINT('',(0.900380626764,0.999999999966));
#40 = ( GEOMETRIC_REPRESENTATION_CONTEXT(2) 
PARAMETRIC_REPRESENTATION_CONTEXT() REPRESENTATION_CONTEXT('2D SPACE',''
  ) );
#41 = PCURVE('',#42,#47);
#42 = B_SPLINE_SURFACE_WITH_KNOTS('',1,1,(
    (#43,#44)
    ,(#45,#46)),.UNSPECIFIED.,.F.,.F.,.F.,(2,2),(2,2),(0.,1.),(0.,1.),
  .PIECEWISE_BEZIER_KNOTS.);
#43 = CARTESIAN_POINT('',(70.,109.96193717496,31.628330502142));
#44 = CARTESIAN_POINT('',(73.324130907348,109.9925092388,0.));
#45 = CARTESIAN_POINT('',(70.,190.03806282503,24.621669456663));
#46 = CARTESIAN_POINT('',(72.587732299872,190.06186222382,0.));
#47 = DEFINITIONAL_REPRESENTATION('',(#48),#51);
#48 = B_SPLINE_CURVE_WITH_KNOTS('',1,(#49,#50),.UNSPECIFIED.,.F.,.F.,(2,
    2),(0.,1.),.PIECEWISE_BEZIER_KNOTS.);
#49 = CARTESIAN_POINT('',(0.,0.));
#50 = CARTESIAN_POINT('',(1.,0.));
#51 = ( GEOMETRIC_REPRESENTATION_CONTEXT(2) 
PARAMETRIC_REPRESENTATION_CONTEXT() REPRESENTATION_CONTEXT('2D SPACE',''
  ) );
#52 = ORIENTED_EDGE('',*,*,#53,.F.);
#53 = EDGE_CURVE('',#54,#22,#56,.T.);
#54 = VERTEX_POINT('',#55);
#55 = CARTESIAN_POINT('',(60.,100.,32.499999840534));
#56 = SURFACE_CURVE('',#57,(#64,#74),.PCURVE_S1.);
#57 = B_SPLINE_CURVE_WITH_KNOTS('',5,(#58,#59,#60,#61,#62,#63),
  .UNSPECIFIED.,.F.,.F.,(6,6),(0.,1.),.PIECEWISE_BEZIER_KNOTS.);
#58 = CARTESIAN_POINT('',(60.,100.,32.499999840483));
#59 = CARTESIAN_POINT('',(63.14159265359,100.,32.499999897702));
#60 = CARTESIAN_POINT('',(66.28318530718,101.22900473731,32.392462038837
    ));
#61 = CARTESIAN_POINT('',(68.766299449864,103.70266744608,
    32.176016593889));
#62 = CARTESIAN_POINT('',(70.,106.83230231052,31.902173561726));
#63 = CARTESIAN_POINT('',(70.,109.96193717496,31.628330507094));
#64 = PCURVE('',#31,#65);
#65 = DEFINITIONAL_REPRESENTATION('',(#66),#73);
#66 = B_SPLINE_CURVE_WITH_KNOTS('',5,(#67,#68,#69,#70,#71,#72),
  .UNSPECIFIED.,.F.,.F.,(6,6),(0.,1.),.PIECEWISE_BEZIER_KNOTS.);
#67 = CARTESIAN_POINT('',(7.298082797813E-11,0.857142856287));
#68 = CARTESIAN_POINT('',(-2.243084190612E-13,0.902022751294));
#69 = CARTESIAN_POINT('',(1.229004728164E-02,0.946902646313));
#70 = CARTESIAN_POINT('',(3.702667427503E-02,0.982375705486));
#71 = CARTESIAN_POINT('',(6.832302284458E-02,0.999999999075));
#72 = CARTESIAN_POINT('',(9.961937144287E-02,0.999999999108));
#73 = ( GEOMETRIC_REPRESENTATION_CONTEXT(2) 
PARAMETRIC_REPRESENTATION_CONTEXT() REPRESENTATION_CONTEXT('2D SPACE',''
  ) );
#74 = PCURVE('',#75,#88);
#75 = B_SPLINE_SURFACE_WITH_KNOTS('',5,1,(
    (#76,#77)
    ,(#78,#79)
    ,(#80,#81)
    ,(#82,#83)
    ,(#84,#85)
    ,(#86,#87)),.UNSPECIFIED.,.F.,.F.,.F.,(6,6),(2,2),(0.,1.),(0.,1.),
  .PIECEWISE_BEZIER_KNOTS.);
#76 = CARTESIAN_POINT('',(60.,100.,32.499999840483));
#77 = CARTESIAN_POINT('',(59.999999993461,96.584112370631,0.));
#78 = CARTESIAN_POINT('',(63.14159265359,100.,32.499999897702));
#79 = CARTESIAN_POINT('',(64.220472378762,96.584112362552,0.));
#80 = CARTESIAN_POINT('',(66.28318530718,101.22900473731,32.392462038837
    ));
#81 = CARTESIAN_POINT('',(68.451529139142,98.256007743699,0.));
#82 = CARTESIAN_POINT('',(68.766299449864,103.70266744608,
    32.176016593889));
#83 = CARTESIAN_POINT('',(71.74922270099,101.59674190433,0.));
#84 = CARTESIAN_POINT('',(70.,106.83230231052,31.902173561726));
#85 = CARTESIAN_POINT('',(73.362552949835,105.81484243319,0.));
#86 = CARTESIAN_POINT('',(70.,109.96193717496,31.628330507094));
#87 = CARTESIAN_POINT('',(73.324130907867,109.99250923903,0.));
#88 = DEFINITIONAL_REPRESENTATION('',(#89),#92);
#89 = B_SPLINE_CURVE_WITH_KNOTS('',1,(#90,#91),.UNSPECIFIED.,.F.,.F.,(2,
    2),(0.,1.),.PIECEWISE_BEZIER_KNOTS.);
#90 = CARTESIAN_POINT('',(0.,0.));
#91 = CARTESIAN_POINT('',(1.,0.));
#92 = ( GEOMETRIC_REPRESENTATION_CONTEXT(2) 
PARAMETRIC_REPRESENTATION_CONTEXT() REPRESENTATION_CONTEXT('2D SPACE',''
  ) );
#93 = ORIENTED_EDGE('',*,*,#94,.T.);
#94 = EDGE_CURVE('',#54,#95,#97,.T.);
#95 = VERTEX_POINT('',#96);
#96 = CARTESIAN_POINT('',(-7.213007050163E-16,100.,32.499998744798));
#97 = SURFACE_CURVE('',#98,(#101),.PCURVE_S1.);
#98 = B_SPLINE_CURVE_WITH_KNOTS('',1,(#99,#100),.UNSPECIFIED.,.F.,.F.,(2
    ,2),(0.,1.),.PIECEWISE_BEZIER_KNOTS.);
#99 = CARTESIAN_POINT('',(60.,100.,32.499999840483));
#100 = CARTESIAN_POINT('',(0.,100.,32.499998747683));
#101 = PCURVE('',#31,#102);
#102 = DEFINITIONAL_REPRESENTATION('',(#103),#106);
#103 = B_SPLINE_CURVE_WITH_KNOTS('',1,(#104,#105),.UNSPECIFIED.,.F.,.F.,
  (2,2),(0.,1.),.PIECEWISE_BEZIER_KNOTS.);
#104 = CARTESIAN_POINT('',(7.298071310186E-11,0.857142856287));
#105 = CARTESIAN_POINT('',(1.471096039823E-09,-2.22044604925E-16));
#106 = ( GEOMETRIC_REPRESENTATION_CONTEXT(2) 
PARAMETRIC_REPRESENTATION_CONTEXT() REPRESENTATION_CONTEXT('2D SPACE',''
  ) );
#107 = ORIENTED_EDGE('',*,*,#108,.T.);
#108 = EDGE_CURVE('',#95,#109,#111,.T.);
#109 = VERTEX_POINT('',#110);
#110 = CARTESIAN_POINT('',(-1.072731652314E-15,200.,23.749998621807));
#111 = SURFACE_CURVE('',#112,(#115),.PCURVE_S1.);
#112 = B_SPLINE_CURVE_WITH_KNOTS('',1,(#113,#114),.UNSPECIFIED.,.F.,.F.,
  (2,2),(0.,1.),.PIECEWISE_BEZIER_KNOTS.);
#113 = CARTESIAN_POINT('',(0.,100.,32.499998747683));
#114 = CARTESIAN_POINT('',(0.,200.,23.749998620061));
#115 = PCURVE('',#31,#116);
#116 = DEFINITIONAL_REPRESENTATION('',(#117),#120);
#117 = B_SPLINE_CURVE_WITH_KNOTS('',1,(#118,#119),.UNSPECIFIED.,.F.,.F.,
  (2,2),(0.,1.),.PIECEWISE_BEZIER_KNOTS.);
#118 = CARTESIAN_POINT('',(1.471096022776E-09,-2.014360131109E-16));
#119 = CARTESIAN_POINT('',(0.999999999998,1.071443631158E-09));
#120 = ( GEOMETRIC_REPRESENTATION_CONTEXT(2) 
PARAMETRIC_REPRESENTATION_CONTEXT() REPRESENTATION_CONTEXT('2D SPACE',''
  ) );
#121 = ORIENTED_EDGE('',*,*,#122,.T.);
#122 = EDGE_CURVE('',#109,#123,#125,.T.);
#123 = VERTEX_POINT('',#124);
#124 = CARTESIAN_POINT('',(60.,200.,23.749999715228));
#125 = SURFACE_CURVE('',#126,(#129),.PCURVE_S1.);
#126 = B_SPLINE_CURVE_WITH_KNOTS('',1,(#127,#128),.UNSPECIFIED.,.F.,.F.,
  (2,2),(0.,1.),.PIECEWISE_BEZIER_KNOTS.);
#127 = CARTESIAN_POINT('',(0.,200.,23.749998620061));
#128 = CARTESIAN_POINT('',(60.,200.,23.749999712861));
#129 = PCURVE('',#31,#130);
#130 = DEFINITIONAL_REPRESENTATION('',(#131),#134);
#131 = B_SPLINE_CURVE_WITH_KNOTS('',1,(#132,#133),.UNSPECIFIED.,.F.,.F.,
  (2,2),(0.,1.),.PIECEWISE_BEZIER_KNOTS.);
#132 = CARTESIAN_POINT('',(0.999999999998,1.071443600509E-09));
#133 = CARTESIAN_POINT('',(0.9999999986,0.857142857359));
#134 = ( GEOMETRIC_REPRESENTATION_CONTEXT(2) 
PARAMETRIC_REPRESENTATION_CONTEXT() REPRESENTATION_CONTEXT('2D SPACE',''
  ) );
#135 = ORIENTED_EDGE('',*,*,#136,.F.);
#136 = EDGE_CURVE('',#24,#123,#137,.T.);
#137 = SURFACE_CURVE('',#138,(#145,#155),.PCURVE_S1.);
#138 = B_SPLINE_CURVE_WITH_KNOTS('',5,(#139,#140,#141,#142,#143,#144),
  .UNSPECIFIED.,.F.,.F.,(6,6),(0.,1.),.PIECEWISE_BEZIER_KNOTS.);
#139 = CARTESIAN_POINT('',(70.,190.03806282503,24.621669410518));
#140 = CARTESIAN_POINT('',(70.,193.16769768947,24.347826355885));
#141 = CARTESIAN_POINT('',(68.766299449864,196.29733255391,
    24.073983278783));
#142 = CARTESIAN_POINT('',(66.28318530718,198.77099526268,
    23.857537743383));
#143 = CARTESIAN_POINT('',(63.14159265359,200.,23.74999977008));
#144 = CARTESIAN_POINT('',(60.,200.,23.749999712861));
#145 = PCURVE('',#31,#146);
#146 = DEFINITIONAL_REPRESENTATION('',(#147),#154);
#147 = B_SPLINE_CURVE_WITH_KNOTS('',5,(#148,#149,#150,#151,#152,#153),
  .UNSPECIFIED.,.F.,.F.,(6,6),(0.,1.),.PIECEWISE_BEZIER_KNOTS.);
#148 = CARTESIAN_POINT('',(0.900380626764,0.999999999966));
#149 = CARTESIAN_POINT('',(0.931676975363,1.));
#150 = CARTESIAN_POINT('',(0.96297332399,0.982375706478));
#151 = CARTESIAN_POINT('',(0.987709951099,0.946902647358));
#152 = CARTESIAN_POINT('',(0.999999998527,0.902022752365));
#153 = CARTESIAN_POINT('',(0.9999999986,0.857142857359));
#154 = ( GEOMETRIC_REPRESENTATION_CONTEXT(2) 
PARAMETRIC_REPRESENTATION_CONTEXT() REPRESENTATION_CONTEXT('2D SPACE',''
  ) );
#155 = PCURVE('',#156,#169);
#156 = B_SPLINE_SURFACE_WITH_KNOTS('',5,1,(
    (#157,#158)
    ,(#159,#160)
    ,(#161,#162)
    ,(#163,#164)
    ,(#165,#166)
    ,(#167,#168)),.UNSPECIFIED.,.F.,.F.,.F.,(6,6),(2,2),(0.,1.),(0.,1.),
  .PIECEWISE_BEZIER_KNOTS.);
#157 = CARTESIAN_POINT('',(70.,190.03806282503,24.621669410518));
#158 = CARTESIAN_POINT('',(72.58773229502,190.06186222395,0.));
#159 = CARTESIAN_POINT('',(70.,193.16769768947,24.347826355885));
#160 = CARTESIAN_POINT('',(72.551446078119,194.00729864767,0.));
#161 = CARTESIAN_POINT('',(68.766299449864,196.29733255391,
    24.073983278783));
#162 = CARTESIAN_POINT('',(70.953525919328,197.93208355774,0.));
#163 = CARTESIAN_POINT('',(66.28318530718,198.77099526268,
    23.857537743383));
#164 = CARTESIAN_POINT('',(67.836458874125,200.97383336935,0.));
#165 = CARTESIAN_POINT('',(63.14159265359,200.,23.74999977008));
#166 = CARTESIAN_POINT('',(63.915635449614,202.49622556487,0.));
#167 = CARTESIAN_POINT('',(60.,200.,23.749999712861));
#168 = CARTESIAN_POINT('',(59.999999995222,202.49622555738,0.));
#169 = DEFINITIONAL_REPRESENTATION('',(#170),#173);
#170 = B_SPLINE_CURVE_WITH_KNOTS('',1,(#171,#172),.UNSPECIFIED.,.F.,.F.,
  (2,2),(0.,1.),.PIECEWISE_BEZIER_KNOTS.);
#171 = CARTESIAN_POINT('',(0.,0.));
#172 = CARTESIAN_POINT('',(1.,0.));
#173 = ( GEOMETRIC_REPRESENTATION_CONTEXT(2) 
PARAMETRIC_REPRESENTATION_CONTEXT() REPRESENTATION_CONTEXT('2D SPACE',''
  ) );
#174 = ADVANCED_FACE('',(#175),#42,.T.);
#175 = FACE_BOUND('',#176,.T.);
#176 = EDGE_LOOP('',(#177,#197,#198,#218));
#177 = ORIENTED_EDGE('',*,*,#178,.F.);
#178 = EDGE_CURVE('',#22,#179,#181,.T.);
#179 = VERTEX_POINT('',#180);
#180 = CARTESIAN_POINT('',(73.324130907607,109.99250923891,0.));
#181 = SURFACE_CURVE('',#182,(#185,#191),.PCURVE_S1.);
#182 = B_SPLINE_CURVE_WITH_KNOTS('',1,(#183,#184),.UNSPECIFIED.,.F.,.F.,
  (2,2),(0.,1.),.PIECEWISE_BEZIER_KNOTS.);
#183 = CARTESIAN_POINT('',(70.,109.96193717496,31.628330502142));
#184 = CARTESIAN_POINT('',(73.324130907348,109.9925092388,0.));
#185 = PCURVE('',#42,#186);
#186 = DEFINITIONAL_REPRESENTATION('',(#187),#190);
#187 = B_SPLINE_CURVE_WITH_KNOTS('',1,(#188,#189),.UNSPECIFIED.,.F.,.F.,
  (2,2),(0.,1.),.PIECEWISE_BEZIER_KNOTS.);
#188 = CARTESIAN_POINT('',(0.,0.));
#189 = CARTESIAN_POINT('',(0.,1.));
#190 = ( GEOMETRIC_REPRESENTATION_CONTEXT(2) 
PARAMETRIC_REPRESENTATION_CONTEXT() REPRESENTATION_CONTEXT('2D SPACE',''
  ) );
#191 = PCURVE('',#75,#192);
#192 = DEFINITIONAL_REPRESENTATION('',(#193),#196);
#193 = B_SPLINE_CURVE_WITH_KNOTS('',1,(#194,#195),.UNSPECIFIED.,.F.,.F.,
  (2,2),(0.,1.),.PIECEWISE_BEZIER_KNOTS.);
#194 = CARTESIAN_POINT('',(1.,0.));
#195 = CARTESIAN_POINT('',(1.,1.));
#196 = ( GEOMETRIC_REPRESENTATION_CONTEXT(2) 
PARAMETRIC_REPRESENTATION_CONTEXT() REPRESENTATION_CONTEXT('2D SPACE',''
  ) );
#197 = ORIENTED_EDGE('',*,*,#21,.T.);
#198 = ORIENTED_EDGE('',*,*,#199,.T.);
#199 = EDGE_CURVE('',#24,#200,#202,.T.);
#200 = VERTEX_POINT('',#201);
#201 = CARTESIAN_POINT('',(72.587732297446,190.06186222388,0.));
#202 = SURFACE_CURVE('',#203,(#206,#212),.PCURVE_S1.);
#203 = B_SPLINE_CURVE_WITH_KNOTS('',1,(#204,#205),.UNSPECIFIED.,.F.,.F.,
  (2,2),(0.,1.),.PIECEWISE_BEZIER_KNOTS.);
#204 = CARTESIAN_POINT('',(70.,190.03806282503,24.621669410518));
#205 = CARTESIAN_POINT('',(72.58773229502,190.06186222395,0.));
#206 = PCURVE('',#42,#207);
#207 = DEFINITIONAL_REPRESENTATION('',(#208),#211);
#208 = B_SPLINE_CURVE_WITH_KNOTS('',1,(#209,#210),.UNSPECIFIED.,.F.,.F.,
  (2,2),(0.,1.),.PIECEWISE_BEZIER_KNOTS.);
#209 = CARTESIAN_POINT('',(1.,0.));
#210 = CARTESIAN_POINT('',(1.,1.));
#211 = ( GEOMETRIC_REPRESENTATION_CONTEXT(2) 
PARAMETRIC_REPRESENTATION_CONTEXT() REPRESENTATION_CONTEXT('2D SPACE',''
  ) );
#212 = PCURVE('',#156,#213);
#213 = DEFINITIONAL_REPRESENTATION('',(#214),#217);
#214 = B_SPLINE_CURVE_WITH_KNOTS('',1,(#215,#216),.UNSPECIFIED.,.F.,.F.,
  (2,2),(0.,1.),.PIECEWISE_BEZIER_KNOTS.);
#215 = CARTESIAN_POINT('',(0.,0.));
#216 = CARTESIAN_POINT('',(0.,1.));
#217 = ( GEOMETRIC_REPRESENTATION_CONTEXT(2) 
PARAMETRIC_REPRESENTATION_CONTEXT() REPRESENTATION_CONTEXT('2D SPACE',''
  ) );
#218 = ORIENTED_EDGE('',*,*,#219,.F.);
#219 = EDGE_CURVE('',#179,#200,#220,.T.);
#220 = SURFACE_CURVE('',#221,(#224),.PCURVE_S1.);
#221 = B_SPLINE_CURVE_WITH_KNOTS('',1,(#222,#223),.UNSPECIFIED.,.F.,.F.,
  (2,2),(0.,1.),.PIECEWISE_BEZIER_KNOTS.);
#222 = CARTESIAN_POINT('',(73.324130907348,109.9925092388,0.));
#223 = CARTESIAN_POINT('',(72.587732299872,190.06186222382,0.));
#224 = PCURVE('',#42,#225);
#225 = DEFINITIONAL_REPRESENTATION('',(#226),#229);
#226 = B_SPLINE_CURVE_WITH_KNOTS('',1,(#227,#228),.UNSPECIFIED.,.F.,.F.,
  (2,2),(0.,1.),.PIECEWISE_BEZIER_KNOTS.);
#227 = CARTESIAN_POINT('',(0.,1.));
#228 = CARTESIAN_POINT('',(1.,1.));
#229 = ( GEOMETRIC_REPRESENTATION_CONTEXT(2) 
PARAMETRIC_REPRESENTATION_CONTEXT() REPRESENTATION_CONTEXT('2D SPACE',''
  ) );
#230 = ADVANCED_FACE('',(#231),#75,.T.);
#231 = FACE_BOUND('',#232,.T.);
#232 = EDGE_LOOP('',(#233,#247,#248,#249));
#233 = ORIENTED_EDGE('',*,*,#234,.F.);
#234 = EDGE_CURVE('',#54,#235,#237,.T.);
#235 = VERTEX_POINT('',#236);
#236 = CARTESIAN_POINT('',(59.999999993461,96.584112370631,0.));
#237 = SURFACE_CURVE('',#238,(#241),.PCURVE_S1.);
#238 = B_SPLINE_CURVE_WITH_KNOTS('',1,(#239,#240),.UNSPECIFIED.,.F.,.F.,
  (2,2),(0.,1.),.PIECEWISE_BEZIER_KNOTS.);
#239 = CARTESIAN_POINT('',(60.,100.,32.499999840483));
#240 = CARTESIAN_POINT('',(59.999999993461,96.584112370631,0.));
#241 = PCURVE('',#75,#242);
#242 = DEFINITIONAL_REPRESENTATION('',(#243),#246);
#243 = B_SPLINE_CURVE_WITH_KNOTS('',1,(#244,#245),.UNSPECIFIED.,.F.,.F.,
  (2,2),(0.,1.),.PIECEWISE_BEZIER_KNOTS.);
#244 = CARTESIAN_POINT('',(0.,0.));
#245 = CARTESIAN_POINT('',(0.,1.));
#246 = ( GEOMETRIC_REPRESENTATION_CONTEXT(2) 
PARAMETRIC_REPRESENTATION_CONTEXT() REPRESENTATION_CONTEXT('2D SPACE',''
  ) );
#247 = ORIENTED_EDGE('',*,*,#53,.T.);
#248 = ORIENTED_EDGE('',*,*,#178,.T.);
#249 = ORIENTED_EDGE('',*,*,#250,.F.);
#250 = EDGE_CURVE('',#235,#179,#251,.T.);
#251 = SURFACE_CURVE('',#252,(#259),.PCURVE_S1.);
#252 = B_SPLINE_CURVE_WITH_KNOTS('',5,(#253,#254,#255,#256,#257,#258),
  .UNSPECIFIED.,.F.,.F.,(6,6),(0.,1.),.PIECEWISE_BEZIER_KNOTS.);
#253 = CARTESIAN_POINT('',(59.999999993461,96.584112370631,0.));
#254 = CARTESIAN_POINT('',(64.220472378762,96.584112362552,0.));
#255 = CARTESIAN_POINT('',(68.451529139142,98.256007743699,0.));
#256 = CARTESIAN_POINT('',(71.74922270099,101.59674190433,0.));
#257 = CARTESIAN_POINT('',(73.362552949835,105.81484243319,0.));
#258 = CARTESIAN_POINT('',(73.324130907867,109.99250923903,0.));
#259 = PCURVE('',#75,#260);
#260 = DEFINITIONAL_REPRESENTATION('',(#261),#264);
#261 = B_SPLINE_CURVE_WITH_KNOTS('',1,(#262,#263),.UNSPECIFIED.,.F.,.F.,
  (2,2),(0.,1.),.PIECEWISE_BEZIER_KNOTS.);
#262 = CARTESIAN_POINT('',(0.,1.));
#263 = CARTESIAN_POINT('',(1.,1.));
#264 = ( GEOMETRIC_REPRESENTATION_CONTEXT(2) 
PARAMETRIC_REPRESENTATION_CONTEXT() REPRESENTATION_CONTEXT('2D SPACE',''
  ) );
#265 = ADVANCED_FACE('',(#266),#156,.T.);
#266 = FACE_BOUND('',#267,.T.);
#267 = EDGE_LOOP('',(#268,#269,#270,#284));
#268 = ORIENTED_EDGE('',*,*,#199,.F.);
#269 = ORIENTED_EDGE('',*,*,#136,.T.);
#270 = ORIENTED_EDGE('',*,*,#271,.T.);
#271 = EDGE_CURVE('',#123,#272,#274,.T.);
#272 = VERTEX_POINT('',#273);
#273 = CARTESIAN_POINT('',(59.999999995222,202.49622555738,0.));
#274 = SURFACE_CURVE('',#275,(#278),.PCURVE_S1.);
#275 = B_SPLINE_CURVE_WITH_KNOTS('',1,(#276,#277),.UNSPECIFIED.,.F.,.F.,
  (2,2),(0.,1.),.PIECEWISE_BEZIER_KNOTS.);
#276 = CARTESIAN_POINT('',(60.,200.,23.749999712861));
#277 = CARTESIAN_POINT('',(59.999999995222,202.49622555738,0.));
#278 = PCURVE('',#156,#279);
#279 = DEFINITIONAL_REPRESENTATION('',(#280),#283);
#280 = B_SPLINE_CURVE_WITH_KNOTS('',1,(#281,#282),.UNSPECIFIED.,.F.,.F.,
  (2,2),(0.,1.),.PIECEWISE_BEZIER_KNOTS.);
#281 = CARTESIAN_POINT('',(1.,0.));
#282 = CARTESIAN_POINT('',(1.,1.));
#283 = ( GEOMETRIC_REPRESENTATION_CONTEXT(2) 
PARAMETRIC_REPRESENTATION_CONTEXT() REPRESENTATION_CONTEXT('2D SPACE',''
  ) );
#284 = ORIENTED_EDGE('',*,*,#285,.F.);
#285 = EDGE_CURVE('',#200,#272,#286,.T.);
#286 = SURFACE_CURVE('',#287,(#294),.PCURVE_S1.);
#287 = B_SPLINE_CURVE_WITH_KNOTS('',5,(#288,#289,#290,#291,#292,#293),
  .UNSPECIFIED.,.F.,.F.,(6,6),(0.,1.),.PIECEWISE_BEZIER_KNOTS.);
#288 = CARTESIAN_POINT('',(72.58773229502,190.06186222395,0.));
#289 = CARTESIAN_POINT('',(72.551446078119,194.00729864767,0.));
#290 = CARTESIAN_POINT('',(70.953525919328,197.93208355774,0.));
#291 = CARTESIAN_POINT('',(67.836458874125,200.97383336935,0.));
#292 = CARTESIAN_POINT('',(63.915635449614,202.49622556487,0.));
#293 = CARTESIAN_POINT('',(59.999999995222,202.49622555738,0.));
#294 = PCURVE('',#156,#295);
#295 = DEFINITIONAL_REPRESENTATION('',(#296),#299);
#296 = B_SPLINE_CURVE_WITH_KNOTS('',1,(#297,#298),.UNSPECIFIED.,.F.,.F.,
  (2,2),(0.,1.),.PIECEWISE_BEZIER_KNOTS.);
#297 = CARTESIAN_POINT('',(0.,1.));
#298 = CARTESIAN_POINT('',(1.,1.));
#299 = ( GEOMETRIC_REPRESENTATION_CONTEXT(2) 
PARAMETRIC_REPRESENTATION_CONTEXT() REPRESENTATION_CONTEXT('2D SPACE',''
  ) );
#300 = ( GEOMETRIC_REPRESENTATION_CONTEXT(3) 
GLOBAL_UNCERTAINTY_ASSIGNED_CONTEXT((#304)) GLOBAL_UNIT_ASSIGNED_CONTEXT
((#301,#302,#303)) REPRESENTATION_CONTEXT('Context #1',
  '3D Context with UNIT and UNCERTAINTY') );
#301 = ( LENGTH_UNIT() NAMED_UNIT(*) SI_UNIT(.MILLI.,.METRE.) );
#302 = ( NAMED_UNIT(*) PLANE_ANGLE_UNIT() SI_UNIT($,.RADIAN.) );
#303 = ( NAMED_UNIT(*) SI_UNIT($,.STERADIAN.) SOLID_ANGLE_UNIT() );
#304 = UNCERTAINTY_MEASURE_WITH_UNIT(LENGTH_MEASURE(1.E-03),#301,
  'distance_accuracy_value','confusion accuracy');
#305 = PRODUCT_RELATED_PRODUCT_CATEGORY('part',$,(#7));
ENDSEC;
END-ISO-10303-21;
