ISO-10303-21;
HEADER;
FILE_DESCRIPTION(('Open CASCADE Model'),'2;1');
FILE_NAME('Open CASCADE Shape Model','2026-07-11T20:15:53',('Author'),(
    'Open CASCADE'),'Open CASCADE STEP processor 8.0','Open CASCADE 8.0'
  ,'Unknown');
FILE_SCHEMA(('AUTOMOTIVE_DESIGN { 1 0 10303 214 1 1 1 1 }'));
ENDSEC;
DATA;
#1 = APPLICATION_PROTOCOL_DEFINITION('international standard',
  'automotive_design',2000,#2);
#2 = APPLICATION_CONTEXT(
  'core data for automotive mechanical design processes');
#3 = SHAPE_DEFINITION_REPRESENTATION(#4,#10);
#4 = PRODUCT_DEFINITION_SHAPE('','',#5);
#5 = PRODUCT_DEFINITION('design','',#6,#9);
#6 = PRODUCT_DEFINITION_FORMATION('','',#7);
#7 = PRODUCT('Open CASCADE STEP translator 8.0 1',
  'Open CASCADE STEP translator 8.0 1','',(#8));
#8 = PRODUCT_CONTEXT('',#2,'mechanical');
#9 = PRODUCT_DEFINITION_CONTEXT('part definition',#2,'design');
#10 = ADVANCED_BREP_SHAPE_REPRESENTATION('',(#11,#15),#837);
#11 = AXIS2_PLACEMENT_3D('',#12,#13,#14);
#12 = CARTESIAN_POINT('',(0.,0.,0.));
#13 = DIRECTION('',(0.,0.,1.));
#14 = DIRECTION('',(1.,0.,-0.));
#15 = MANIFOLD_SOLID_BREP('',#16);
#16 = CLOSED_SHELL('',(#17,#172,#257,#386,#496,#605,#666,#804,#830));
#17 = ADVANCED_FACE('',(#18),#32,.F.);
#18 = FACE_BOUND('',#19,.F.);
#19 = EDGE_LOOP('',(#20,#55,#90,#118,#146));
#20 = ORIENTED_EDGE('',*,*,#21,.T.);
#21 = EDGE_CURVE('',#22,#24,#26,.T.);
#22 = VERTEX_POINT('',#23);
#23 = CARTESIAN_POINT('',(118.38681995868,-82.05510675907,0.));
#24 = VERTEX_POINT('',#25);
#25 = CARTESIAN_POINT('',(118.38681995868,-82.05510675907,90.));
#26 = SURFACE_CURVE('',#27,(#31,#43),.PCURVE_S1.);
#27 = LINE('',#28,#29);
#28 = CARTESIAN_POINT('',(118.38681995868,-82.05510675907,0.));
#29 = VECTOR('',#30,1.);
#30 = DIRECTION('',(0.,-0.,1.));
#31 = PCURVE('',#32,#37);
#32 = PLANE('',#33);
#33 = AXIS2_PLACEMENT_3D('',#34,#35,#36);
#34 = CARTESIAN_POINT('',(118.38681995868,-82.05510675907,0.));
#35 = DIRECTION('',(-0.94763159994,0.319365544158,0.));
#36 = DIRECTION('',(0.319365544158,0.94763159994,0.));
#37 = DEFINITIONAL_REPRESENTATION('',(#38),#42);
#38 = LINE('',#39,#40);
#39 = CARTESIAN_POINT('',(0.,0.));
#40 = VECTOR('',#41,1.);
#41 = DIRECTION('',(0.,-1.));
#42 = ( GEOMETRIC_REPRESENTATION_CONTEXT(2) 
PARAMETRIC_REPRESENTATION_CONTEXT() REPRESENTATION_CONTEXT('2D SPACE',''
  ) );
#43 = PCURVE('',#44,#49);
#44 = PLANE('',#45);
#45 = AXIS2_PLACEMENT_3D('',#46,#47,#48);
#46 = CARTESIAN_POINT('',(-153.0789285898,-82.05510675907,0.));
#47 = DIRECTION('',(-0.,1.,0.));
#48 = DIRECTION('',(1.,0.,0.));
#49 = DEFINITIONAL_REPRESENTATION('',(#50),#54);
#50 = LINE('',#51,#52);
#51 = CARTESIAN_POINT('',(271.4657485485,0.));
#52 = VECTOR('',#53,1.);
#53 = DIRECTION('',(0.,-1.));
#54 = ( GEOMETRIC_REPRESENTATION_CONTEXT(2) 
PARAMETRIC_REPRESENTATION_CONTEXT() REPRESENTATION_CONTEXT('2D SPACE',''
  ) );
#55 = ORIENTED_EDGE('',*,*,#56,.T.);
#56 = EDGE_CURVE('',#24,#57,#59,.T.);
#57 = VERTEX_POINT('',#58);
#58 = CARTESIAN_POINT('',(121.75696447664,-72.05510675907,100.));
#59 = SURFACE_CURVE('',#60,(#65,#72),.PCURVE_S1.);
#60 = ELLIPSE('',#61,10.552624037267,10.);
#61 = AXIS2_PLACEMENT_3D('',#62,#63,#64);
#62 = CARTESIAN_POINT('',(121.75696447664,-72.05510675907,90.));
#63 = DIRECTION('',(-0.94763159994,0.319365544158,0.));
#64 = DIRECTION('',(0.319365544158,0.94763159994,0.));
#65 = PCURVE('',#32,#66);
#66 = DEFINITIONAL_REPRESENTATION('',(#67),#71);
#67 = ELLIPSE('',#68,10.552624037267,10.);
#68 = AXIS2_PLACEMENT_2D('',#69,#70);
#69 = CARTESIAN_POINT('',(10.552624037267,-90.));
#70 = DIRECTION('',(1.,0.));
#71 = ( GEOMETRIC_REPRESENTATION_CONTEXT(2) 
PARAMETRIC_REPRESENTATION_CONTEXT() REPRESENTATION_CONTEXT('2D SPACE',''
  ) );
#72 = PCURVE('',#73,#78);
#73 = CYLINDRICAL_SURFACE('',#74,10.);
#74 = AXIS2_PLACEMENT_3D('',#75,#76,#77);
#75 = CARTESIAN_POINT('',(-153.0789285898,-72.05510675907,90.));
#76 = DIRECTION('',(1.,0.,0.));
#77 = DIRECTION('',(0.,-1.,-0.));
#78 = DEFINITIONAL_REPRESENTATION('',(#79),#89);
#79 = B_SPLINE_CURVE_WITH_KNOTS('',8,(#80,#81,#82,#83,#84,#85,#86,#87,
    #88),.UNSPECIFIED.,.F.,.F.,(9,9),(3.14159265359,4.712388980385),
  .PIECEWISE_BEZIER_KNOTS.);
#80 = CARTESIAN_POINT('',(6.610029701862E-17,271.4657485485));
#81 = CARTESIAN_POINT('',(-0.196349541599,271.46574854916));
#82 = CARTESIAN_POINT('',(-0.392699082198,271.61423973206));
#83 = CARTESIAN_POINT('',(-0.589048622798,271.91122083593));
#84 = CARTESIAN_POINT('',(-0.785398163392,272.34448424087));
#85 = CARTESIAN_POINT('',(-0.981747703997,272.88958991471));
#86 = CARTESIAN_POINT('',(-1.178097244595,273.51244025038));
#87 = CARTESIAN_POINT('',(-1.374446785196,274.17416673523));
#88 = CARTESIAN_POINT('',(-1.570796326795,274.83589306646));
#89 = ( GEOMETRIC_REPRESENTATION_CONTEXT(2) 
PARAMETRIC_REPRESENTATION_CONTEXT() REPRESENTATION_CONTEXT('2D SPACE',''
  ) );
#90 = ORIENTED_EDGE('',*,*,#91,.T.);
#91 = EDGE_CURVE('',#57,#92,#94,.T.);
#92 = VERTEX_POINT('',#93);
#93 = CARTESIAN_POINT('',(173.0268895626,80.074645578861,100.));
#94 = SURFACE_CURVE('',#95,(#99,#106),.PCURVE_S1.);
#95 = LINE('',#96,#97);
#96 = CARTESIAN_POINT('',(118.38681995868,-82.05510675907,100.));
#97 = VECTOR('',#98,1.);
#98 = DIRECTION('',(0.319365544158,0.94763159994,0.));
#99 = PCURVE('',#32,#100);
#100 = DEFINITIONAL_REPRESENTATION('',(#101),#105);
#101 = LINE('',#102,#103);
#102 = CARTESIAN_POINT('',(0.,-100.));
#103 = VECTOR('',#104,1.);
#104 = DIRECTION('',(1.,0.));
#105 = ( GEOMETRIC_REPRESENTATION_CONTEXT(2) 
PARAMETRIC_REPRESENTATION_CONTEXT() REPRESENTATION_CONTEXT('2D SPACE',''
  ) );
#106 = PCURVE('',#107,#112);
#107 = PLANE('',#108);
#108 = AXIS2_PLACEMENT_3D('',#109,#110,#111);
#109 = CARTESIAN_POINT('',(173.0268895626,80.074645578861,100.));
#110 = DIRECTION('',(0.,0.,1.));
#111 = DIRECTION('',(0.319365544158,0.94763159994,0.));
#112 = DEFINITIONAL_REPRESENTATION('',(#113),#117);
#113 = LINE('',#114,#115);
#114 = CARTESIAN_POINT('',(-171.0894321677,7.105427357601E-14));
#115 = VECTOR('',#116,1.);
#116 = DIRECTION('',(1.,0.));
#117 = ( GEOMETRIC_REPRESENTATION_CONTEXT(2) 
PARAMETRIC_REPRESENTATION_CONTEXT() REPRESENTATION_CONTEXT('2D SPACE',''
  ) );
#118 = ORIENTED_EDGE('',*,*,#119,.F.);
#119 = EDGE_CURVE('',#120,#92,#122,.T.);
#120 = VERTEX_POINT('',#121);
#121 = CARTESIAN_POINT('',(173.0268895626,80.074645578861,0.));
#122 = SURFACE_CURVE('',#123,(#127,#134),.PCURVE_S1.);
#123 = LINE('',#124,#125);
#124 = CARTESIAN_POINT('',(173.0268895626,80.074645578861,0.));
#125 = VECTOR('',#126,1.);
#126 = DIRECTION('',(0.,-0.,1.));
#127 = PCURVE('',#32,#128);
#128 = DEFINITIONAL_REPRESENTATION('',(#129),#133);
#129 = LINE('',#130,#131);
#130 = CARTESIAN_POINT('',(171.08943216774,0.));
#131 = VECTOR('',#132,1.);
#132 = DIRECTION('',(0.,-1.));
#133 = ( GEOMETRIC_REPRESENTATION_CONTEXT(2) 
PARAMETRIC_REPRESENTATION_CONTEXT() REPRESENTATION_CONTEXT('2D SPACE',''
  ) );
#134 = PCURVE('',#135,#140);
#135 = PLANE('',#136);
#136 = AXIS2_PLACEMENT_3D('',#137,#138,#139);
#137 = CARTESIAN_POINT('',(173.0268895626,80.074645578861,0.));
#138 = DIRECTION('',(-0.319365544158,-0.94763159994,0.));
#139 = DIRECTION('',(-0.94763159994,0.319365544158,0.));
#140 = DEFINITIONAL_REPRESENTATION('',(#141),#145);
#141 = LINE('',#142,#143);
#142 = CARTESIAN_POINT('',(0.,0.));
#143 = VECTOR('',#144,1.);
#144 = DIRECTION('',(0.,-1.));
#145 = ( GEOMETRIC_REPRESENTATION_CONTEXT(2) 
PARAMETRIC_REPRESENTATION_CONTEXT() REPRESENTATION_CONTEXT('2D SPACE',''
  ) );
#146 = ORIENTED_EDGE('',*,*,#147,.F.);
#147 = EDGE_CURVE('',#22,#120,#148,.T.);
#148 = SURFACE_CURVE('',#149,(#153,#160),.PCURVE_S1.);
#149 = LINE('',#150,#151);
#150 = CARTESIAN_POINT('',(118.38681995868,-82.05510675907,0.));
#151 = VECTOR('',#152,1.);
#152 = DIRECTION('',(0.319365544158,0.94763159994,0.));
#153 = PCURVE('',#32,#154);
#154 = DEFINITIONAL_REPRESENTATION('',(#155),#159);
#155 = LINE('',#156,#157);
#156 = CARTESIAN_POINT('',(0.,0.));
#157 = VECTOR('',#158,1.);
#158 = DIRECTION('',(1.,0.));
#159 = ( GEOMETRIC_REPRESENTATION_CONTEXT(2) 
PARAMETRIC_REPRESENTATION_CONTEXT() REPRESENTATION_CONTEXT('2D SPACE',''
  ) );
#160 = PCURVE('',#161,#166);
#161 = PLANE('',#162);
#162 = AXIS2_PLACEMENT_3D('',#163,#164,#165);
#163 = CARTESIAN_POINT('',(173.0268895626,80.074645578861,0.));
#164 = DIRECTION('',(0.,-0.,1.));
#165 = DIRECTION('',(0.319365544158,0.94763159994,0.));
#166 = DEFINITIONAL_REPRESENTATION('',(#167),#171);
#167 = LINE('',#168,#169);
#168 = CARTESIAN_POINT('',(-171.0894321677,7.105427357601E-14));
#169 = VECTOR('',#170,1.);
#170 = DIRECTION('',(1.,0.));
#171 = ( GEOMETRIC_REPRESENTATION_CONTEXT(2) 
PARAMETRIC_REPRESENTATION_CONTEXT() REPRESENTATION_CONTEXT('2D SPACE',''
  ) );
#172 = ADVANCED_FACE('',(#173),#44,.F.);
#173 = FACE_BOUND('',#174,.F.);
#174 = EDGE_LOOP('',(#175,#197,#198,#221));
#175 = ORIENTED_EDGE('',*,*,#176,.T.);
#176 = EDGE_CURVE('',#177,#24,#179,.T.);
#177 = VERTEX_POINT('',#178);
#178 = CARTESIAN_POINT('',(-62.13398599115,-82.05510675907,90.));
#179 = SURFACE_CURVE('',#180,(#184,#191),.PCURVE_S1.);
#180 = LINE('',#181,#182);
#181 = CARTESIAN_POINT('',(-153.0789285898,-82.05510675907,90.));
#182 = VECTOR('',#183,1.);
#183 = DIRECTION('',(1.,0.,0.));
#184 = PCURVE('',#44,#185);
#185 = DEFINITIONAL_REPRESENTATION('',(#186),#190);
#186 = LINE('',#187,#188);
#187 = CARTESIAN_POINT('',(0.,-90.));
#188 = VECTOR('',#189,1.);
#189 = DIRECTION('',(1.,0.));
#190 = ( GEOMETRIC_REPRESENTATION_CONTEXT(2) 
PARAMETRIC_REPRESENTATION_CONTEXT() REPRESENTATION_CONTEXT('2D SPACE',''
  ) );
#191 = PCURVE('',#73,#192);
#192 = DEFINITIONAL_REPRESENTATION('',(#193),#196);
#193 = B_SPLINE_CURVE_WITH_KNOTS('',1,(#194,#195),.UNSPECIFIED.,.F.,.F.,
  (2,2),(14.111553143251,271.4657485485),.PIECEWISE_BEZIER_KNOTS.);
#194 = CARTESIAN_POINT('',(0.,14.111553143251));
#195 = CARTESIAN_POINT('',(0.,271.4657485485));
#196 = ( GEOMETRIC_REPRESENTATION_CONTEXT(2) 
PARAMETRIC_REPRESENTATION_CONTEXT() REPRESENTATION_CONTEXT('2D SPACE',''
  ) );
#197 = ORIENTED_EDGE('',*,*,#21,.F.);
#198 = ORIENTED_EDGE('',*,*,#199,.F.);
#199 = EDGE_CURVE('',#200,#22,#202,.T.);
#200 = VERTEX_POINT('',#201);
#201 = CARTESIAN_POINT('',(-62.13398599115,-82.05510675907,0.));
#202 = SURFACE_CURVE('',#203,(#207,#214),.PCURVE_S1.);
#203 = LINE('',#204,#205);
#204 = CARTESIAN_POINT('',(-153.0789285898,-82.05510675907,0.));
#205 = VECTOR('',#206,1.);
#206 = DIRECTION('',(1.,0.,0.));
#207 = PCURVE('',#44,#208);
#208 = DEFINITIONAL_REPRESENTATION('',(#209),#213);
#209 = LINE('',#210,#211);
#210 = CARTESIAN_POINT('',(0.,0.));
#211 = VECTOR('',#212,1.);
#212 = DIRECTION('',(1.,0.));
#213 = ( GEOMETRIC_REPRESENTATION_CONTEXT(2) 
PARAMETRIC_REPRESENTATION_CONTEXT() REPRESENTATION_CONTEXT('2D SPACE',''
  ) );
#214 = PCURVE('',#161,#215);
#215 = DEFINITIONAL_REPRESENTATION('',(#216),#220);
#216 = LINE('',#217,#218);
#217 = CARTESIAN_POINT('',(-257.7862386731,257.24952162591));
#218 = VECTOR('',#219,1.);
#219 = DIRECTION('',(0.319365544158,-0.94763159994));
#220 = ( GEOMETRIC_REPRESENTATION_CONTEXT(2) 
PARAMETRIC_REPRESENTATION_CONTEXT() REPRESENTATION_CONTEXT('2D SPACE',''
  ) );
#221 = ORIENTED_EDGE('',*,*,#222,.T.);
#222 = EDGE_CURVE('',#200,#177,#223,.T.);
#223 = SURFACE_CURVE('',#224,(#230,#239),.PCURVE_S1.);
#224 = B_SPLINE_CURVE_WITH_KNOTS('',4,(#225,#226,#227,#228,#229),
  .UNSPECIFIED.,.F.,.F.,(5,5),(0.,1.),.PIECEWISE_BEZIER_KNOTS.);
#225 = CARTESIAN_POINT('',(-62.13398599115,-82.05510675907,0.));
#226 = CARTESIAN_POINT('',(-62.13398599115,-82.05510675907,
    22.500000000001));
#227 = CARTESIAN_POINT('',(-62.13398599115,-82.05510675907,
    44.999999999995));
#228 = CARTESIAN_POINT('',(-62.13398599115,-82.05510675907,
    67.499999999999));
#229 = CARTESIAN_POINT('',(-62.13398599115,-82.05510675907,90.));
#230 = PCURVE('',#44,#231);
#231 = DEFINITIONAL_REPRESENTATION('',(#232),#238);
#232 = B_SPLINE_CURVE_WITH_KNOTS('',4,(#233,#234,#235,#236,#237),
  .UNSPECIFIED.,.F.,.F.,(5,5),(0.,1.),.PIECEWISE_BEZIER_KNOTS.);
#233 = CARTESIAN_POINT('',(90.944942598662,0.));
#234 = CARTESIAN_POINT('',(90.944942598662,-22.5));
#235 = CARTESIAN_POINT('',(90.944942598662,-44.99999999999));
#236 = CARTESIAN_POINT('',(90.944942598662,-67.49999999999));
#237 = CARTESIAN_POINT('',(90.944942598662,-90.));
#238 = ( GEOMETRIC_REPRESENTATION_CONTEXT(2) 
PARAMETRIC_REPRESENTATION_CONTEXT() REPRESENTATION_CONTEXT('2D SPACE',''
  ) );
#239 = PCURVE('',#240,#249);
#240 = SURFACE_OF_LINEAR_EXTRUSION('',#241,#247);
#241 = B_SPLINE_CURVE_WITH_KNOTS('',3,(#242,#243,#244,#245,#246),
  .UNSPECIFIED.,.F.,.F.,(4,1,4),(0.,0.506987797361,1.),.UNSPECIFIED.);
#242 = CARTESIAN_POINT('',(-146.1405009031,71.404598653316,125.));
#243 = CARTESIAN_POINT('',(-117.2714736517,42.568384914729,125.));
#244 = CARTESIAN_POINT('',(-69.5717486024,-25.55580484939,125.));
#245 = CARTESIAN_POINT('',(-55.79121383773,-107.4017098828,125.));
#246 = CARTESIAN_POINT('',(-55.94102293252,-147.0804065465,125.));
#247 = VECTOR('',#248,1.);
#248 = DIRECTION('',(-0.,-0.,1.));
#249 = DEFINITIONAL_REPRESENTATION('',(#250),#256);
#250 = B_SPLINE_CURVE_WITH_KNOTS('',4,(#251,#252,#253,#254,#255),
  .UNSPECIFIED.,.F.,.F.,(5,5),(0.,1.),.PIECEWISE_BEZIER_KNOTS.);
#251 = CARTESIAN_POINT('',(0.730469169912,-125.));
#252 = CARTESIAN_POINT('',(0.730469169912,-102.5));
#253 = CARTESIAN_POINT('',(0.730469169912,-79.99999999999));
#254 = CARTESIAN_POINT('',(0.730469169912,-57.5));
#255 = CARTESIAN_POINT('',(0.730469169912,-35.));
#256 = ( GEOMETRIC_REPRESENTATION_CONTEXT(2) 
PARAMETRIC_REPRESENTATION_CONTEXT() REPRESENTATION_CONTEXT('2D SPACE',''
  ) );
#257 = ADVANCED_FACE('',(#258),#73,.T.);
#258 = FACE_BOUND('',#259,.F.);
#259 = EDGE_LOOP('',(#260,#364,#384,#385));
#260 = ORIENTED_EDGE('',*,*,#261,.F.);
#261 = EDGE_CURVE('',#262,#177,#264,.T.);
#262 = VERTEX_POINT('',#263);
#263 = CARTESIAN_POINT('',(-64.305972518,-72.05510675907,100.));
#264 = SURFACE_CURVE('',#265,(#296,#330),.PCURVE_S1.);
#265 = B_SPLINE_CURVE_WITH_KNOTS('',8,(#266,#267,#268,#269,#270,#271,
    #272,#273,#274,#275,#276,#277,#278,#279,#280,#281,#282,#283,#284,
    #285,#286,#287,#288,#289,#290,#291,#292,#293,#294,#295),
  .UNSPECIFIED.,.F.,.F.,(9,7,7,7,9),(0.,8.476644878495E-03,
    0.224304752668,0.609989794181,1.),.UNSPECIFIED.);
#266 = CARTESIAN_POINT('',(-64.305972518,-72.05510675907,100.));
#267 = CARTESIAN_POINT('',(-64.30137974313,-72.07465331152,
    100.00000000001));
#268 = CARTESIAN_POINT('',(-64.29678840047,-72.09420047487,
    99.999956335457));
#269 = CARTESIAN_POINT('',(-64.29219852818,-72.11374808672,
    99.999869000903));
#270 = CARTESIAN_POINT('',(-64.28761016831,-72.13329596771,
    99.999737992551));
#271 = CARTESIAN_POINT('',(-64.28302336678,-72.15284392153,
    99.999563308221));
#272 = CARTESIAN_POINT('',(-64.27843817341,-72.1723917349,99.99934494735
    ));
#273 = CARTESIAN_POINT('',(-64.27385464192,-72.1919391776,99.999082911)
  );
#274 = CARTESIAN_POINT('',(-64.15261301539,-72.70917751539,
    99.990993387825));
#275 = CARTESIAN_POINT('',(-64.03701111996,-73.20671071672,
    99.95489336217));
#276 = CARTESIAN_POINT('',(-63.92335293713,-73.70028800913,
    99.890480455228));
#277 = CARTESIAN_POINT('',(-63.81236038953,-74.18662488081,
    99.798508375693));
#278 = CARTESIAN_POINT('',(-63.7046174466,-74.66288159966,
    99.680238111917));
#279 = CARTESIAN_POINT('',(-63.60058946077,-75.1266246025,
    99.537297869838));
#280 = CARTESIAN_POINT('',(-63.50063808405,-75.57580404957,
    99.37159773673));
#281 = CARTESIAN_POINT('',(-63.2341892045,-76.78238028946,
    98.852248528671));
#282 = CARTESIAN_POINT('',(-63.07739173425,-77.50338898318,
    98.453634594051));
#283 = CARTESIAN_POINT('',(-62.93522898643,-78.16643459025,
    97.999924785575));
#284 = CARTESIAN_POINT('',(-62.80758423211,-78.76923916049,
    97.501297750278));
#285 = CARTESIAN_POINT('',(-62.69400156708,-79.31141214073,
    96.966747414897));
#286 = CARTESIAN_POINT('',(-62.59380724186,-79.79402392612,
    96.403840501457));
#287 = CARTESIAN_POINT('',(-62.50624146276,-80.21900631787,
    95.818315498945));
#288 = CARTESIAN_POINT('',(-62.35410024323,-80.96198598601,
    94.602268687431));
#289 = CARTESIAN_POINT('',(-62.28989955482,-81.27821282632,
    93.972161968736));
#290 = CARTESIAN_POINT('',(-62.23725680205,-81.5392424174,
    93.327524893428));
#291 = CARTESIAN_POINT('',(-62.19567324736,-81.74645709502,
    92.672008959247));
#292 = CARTESIAN_POINT('',(-62.16476048481,-81.90100007897,
    92.008861396343));
#293 = CARTESIAN_POINT('',(-62.14425026213,-82.0037073539,
    91.340920584654));
#294 = CARTESIAN_POINT('',(-62.13398599115,-82.05510675907,
    90.670629459639));
#295 = CARTESIAN_POINT('',(-62.13398599115,-82.05510675907,90.));
#296 = PCURVE('',#73,#297);
#297 = DEFINITIONAL_REPRESENTATION('',(#298),#329);
#298 = B_SPLINE_CURVE_WITH_KNOTS('',8,(#299,#300,#301,#302,#303,#304,
    #305,#306,#307,#308,#309,#310,#311,#312,#313,#314,#315,#316,#317,
    #318,#319,#320,#321,#322,#323,#324,#325,#326,#327,#328),
  .UNSPECIFIED.,.F.,.F.,(9,7,7,7,9),(0.,8.476644878495E-03,
    0.224304752668,0.609989794181,1.),.UNSPECIFIED.);
#299 = CARTESIAN_POINT('',(-1.570796326795,88.772956071812));
#300 = CARTESIAN_POINT('',(-1.568841671549,88.777548846685));
#301 = CARTESIAN_POINT('',(-1.566886955216,88.782140189344));
#302 = CARTESIAN_POINT('',(-1.564932182651,88.786730061633));
#303 = CARTESIAN_POINT('',(-1.562977360408,88.791318421509));
#304 = CARTESIAN_POINT('',(-1.561022496733,88.79590522304));
#305 = CARTESIAN_POINT('',(-1.55906760157,88.800490416406));
#306 = CARTESIAN_POINT('',(-1.557112686557,88.805073947899));
#307 = CARTESIAN_POINT('',(-1.505382527224,88.926315574426));
#308 = CARTESIAN_POINT('',(-1.455578847416,89.04191746986));
#309 = CARTESIAN_POINT('',(-1.405938462535,89.155575652691));
#310 = CARTESIAN_POINT('',(-1.356602326488,89.266568200291));
#311 = CARTESIAN_POINT('',(-1.30768299411,89.374311143218));
#312 = CARTESIAN_POINT('',(-1.259276216078,89.478339129049));
#313 = CARTESIAN_POINT('',(-1.211466777047,89.578290505763));
#314 = CARTESIAN_POINT('',(-1.080106591962,89.844739385316));
#315 = CARTESIAN_POINT('',(-0.998120446313,90.001536855568));
#316 = CARTESIAN_POINT('',(-0.918369402714,90.143699603383));
#317 = CARTESIAN_POINT('',(-0.840758905676,90.271344357711));
#318 = CARTESIAN_POINT('',(-0.765169798489,90.384927022731));
#319 = CARTESIAN_POINT('',(-0.691431050916,90.485121347958));
#320 = CARTESIAN_POINT('',(-0.619309144334,90.572687127057));
#321 = CARTESIAN_POINT('',(-0.476803402869,90.724828346588));
#322 = CARTESIAN_POINT('',(-0.406547309517,90.789029035001));
#323 = CARTESIAN_POINT('',(-0.337368741126,90.841671787768));
#324 = CARTESIAN_POINT('',(-0.269037632042,90.883255342454));
#325 = CARTESIAN_POINT('',(-0.201345625729,90.914168105004));
#326 = CARTESIAN_POINT('',(-0.134092081673,90.93467832769));
#327 = CARTESIAN_POINT('',(-6.706294596391E-02,90.944942598662));
#328 = CARTESIAN_POINT('',(0.,90.944942598662));
#329 = ( GEOMETRIC_REPRESENTATION_CONTEXT(2) 
PARAMETRIC_REPRESENTATION_CONTEXT() REPRESENTATION_CONTEXT('2D SPACE',''
  ) );
#330 = PCURVE('',#240,#331);
#331 = DEFINITIONAL_REPRESENTATION('',(#332),#363);
#332 = B_SPLINE_CURVE_WITH_KNOTS('',8,(#333,#334,#335,#336,#337,#338,
    #339,#340,#341,#342,#343,#344,#345,#346,#347,#348,#349,#350,#351,
    #352,#353,#354,#355,#356,#357,#358,#359,#360,#361,#362),
  .UNSPECIFIED.,.F.,.F.,(9,7,7,7,9),(0.,8.476644878495E-03,
    0.224304752668,0.609989794181,1.),.UNSPECIFIED.);
#333 = CARTESIAN_POINT('',(0.688414168879,-25.00000214696));
#334 = CARTESIAN_POINT('',(0.688496686506,-25.00000214694));
#335 = CARTESIAN_POINT('',(0.688579205237,-25.00004475339));
#336 = CARTESIAN_POINT('',(0.688661724358,-25.00013087649));
#337 = CARTESIAN_POINT('',(0.688744243094,-25.00026109355));
#338 = CARTESIAN_POINT('',(0.688826760611,-25.00043564905));
#339 = CARTESIAN_POINT('',(0.688909276011,-25.0006544546));
#340 = CARTESIAN_POINT('',(0.688991788336,-25.000917089));
#341 = CARTESIAN_POINT('',(0.691175080068,-25.00900661217));
#342 = CARTESIAN_POINT('',(0.693274220391,-25.04510663783));
#343 = CARTESIAN_POINT('',(0.69535570229,-25.10951954477));
#344 = CARTESIAN_POINT('',(0.697405717877,-25.2014916243));
#345 = CARTESIAN_POINT('',(0.699412367095,-25.31976188808));
#346 = CARTESIAN_POINT('',(0.701365483958,-25.46270213016));
#347 = CARTESIAN_POINT('',(0.703256532328,-25.62840226327));
#348 = CARTESIAN_POINT('',(0.708334399815,-26.14775147132));
#349 = CARTESIAN_POINT('',(0.711366588638,-26.54636540594));
#350 = CARTESIAN_POINT('',(0.714153235705,-27.00007521442));
#351 = CARTESIAN_POINT('',(0.716685326092,-27.49870224972));
#352 = CARTESIAN_POINT('',(0.718961697313,-28.0332525851));
#353 = CARTESIAN_POINT('',(0.720987232964,-28.59615949854));
#354 = CARTESIAN_POINT('',(0.722770345793,-29.18168450105));
#355 = CARTESIAN_POINT('',(0.725886911198,-30.39773131256));
#356 = CARTESIAN_POINT('',(0.727212927294,-31.02783803126));
#357 = CARTESIAN_POINT('',(0.728307202739,-31.67247510657));
#358 = CARTESIAN_POINT('',(0.729175712284,-32.32799104075));
#359 = CARTESIAN_POINT('',(0.72982337573,-32.99113860365));
#360 = CARTESIAN_POINT('',(0.730253777311,-33.65907941534));
#361 = CARTESIAN_POINT('',(0.730469169912,-34.32937054036));
#362 = CARTESIAN_POINT('',(0.730469169912,-35.));
#363 = ( GEOMETRIC_REPRESENTATION_CONTEXT(2) 
PARAMETRIC_REPRESENTATION_CONTEXT() REPRESENTATION_CONTEXT('2D SPACE',''
  ) );
#364 = ORIENTED_EDGE('',*,*,#365,.T.);
#365 = EDGE_CURVE('',#262,#57,#366,.T.);
#366 = SURFACE_CURVE('',#367,(#371,#377),.PCURVE_S1.);
#367 = LINE('',#368,#369);
#368 = CARTESIAN_POINT('',(-153.0789285898,-72.05510675907,100.));
#369 = VECTOR('',#370,1.);
#370 = DIRECTION('',(1.,0.,0.));
#371 = PCURVE('',#73,#372);
#372 = DEFINITIONAL_REPRESENTATION('',(#373),#376);
#373 = B_SPLINE_CURVE_WITH_KNOTS('',1,(#374,#375),.UNSPECIFIED.,.F.,.F.,
  (2,2),(14.111553143251,274.83589306646),.PIECEWISE_BEZIER_KNOTS.);
#374 = CARTESIAN_POINT('',(-1.570796326795,14.111553143251));
#375 = CARTESIAN_POINT('',(-1.570796326795,274.83589306646));
#376 = ( GEOMETRIC_REPRESENTATION_CONTEXT(2) 
PARAMETRIC_REPRESENTATION_CONTEXT() REPRESENTATION_CONTEXT('2D SPACE',''
  ) );
#377 = PCURVE('',#107,#378);
#378 = DEFINITIONAL_REPRESENTATION('',(#379),#383);
#379 = LINE('',#380,#381);
#380 = CARTESIAN_POINT('',(-248.3099226737,260.44317706749));
#381 = VECTOR('',#382,1.);
#382 = DIRECTION('',(0.319365544158,-0.94763159994));
#383 = ( GEOMETRIC_REPRESENTATION_CONTEXT(2) 
PARAMETRIC_REPRESENTATION_CONTEXT() REPRESENTATION_CONTEXT('2D SPACE',''
  ) );
#384 = ORIENTED_EDGE('',*,*,#56,.F.);
#385 = ORIENTED_EDGE('',*,*,#176,.F.);
#386 = ADVANCED_FACE('',(#387),#161,.F.);
#387 = FACE_BOUND('',#388,.F.);
#388 = EDGE_LOOP('',(#389,#412,#440,#494,#495));
#389 = ORIENTED_EDGE('',*,*,#390,.T.);
#390 = EDGE_CURVE('',#120,#391,#393,.T.);
#391 = VERTEX_POINT('',#392);
#392 = CARTESIAN_POINT('',(-67.63967218251,161.18275495091,0.));
#393 = SURFACE_CURVE('',#394,(#398,#405),.PCURVE_S1.);
#394 = LINE('',#395,#396);
#395 = CARTESIAN_POINT('',(173.0268895626,80.074645578861,0.));
#396 = VECTOR('',#397,1.);
#397 = DIRECTION('',(-0.94763159994,0.319365544158,0.));
#398 = PCURVE('',#161,#399);
#399 = DEFINITIONAL_REPRESENTATION('',(#400),#404);
#400 = LINE('',#401,#402);
#401 = CARTESIAN_POINT('',(0.,0.));
#402 = VECTOR('',#403,1.);
#403 = DIRECTION('',(0.,1.));
#404 = ( GEOMETRIC_REPRESENTATION_CONTEXT(2) 
PARAMETRIC_REPRESENTATION_CONTEXT() REPRESENTATION_CONTEXT('2D SPACE',''
  ) );
#405 = PCURVE('',#135,#406);
#406 = DEFINITIONAL_REPRESENTATION('',(#407),#411);
#407 = LINE('',#408,#409);
#408 = CARTESIAN_POINT('',(0.,0.));
#409 = VECTOR('',#410,1.);
#410 = DIRECTION('',(1.,0.));
#411 = ( GEOMETRIC_REPRESENTATION_CONTEXT(2) 
PARAMETRIC_REPRESENTATION_CONTEXT() REPRESENTATION_CONTEXT('2D SPACE',''
  ) );
#412 = ORIENTED_EDGE('',*,*,#413,.T.);
#413 = EDGE_CURVE('',#391,#414,#416,.T.);
#414 = VERTEX_POINT('',#415);
#415 = CARTESIAN_POINT('',(-112.8118495645,32.58163765175,0.));
#416 = SURFACE_CURVE('',#417,(#421,#428),.PCURVE_S1.);
#417 = LINE('',#418,#419);
#418 = CARTESIAN_POINT('',(-67.63967218251,161.18275495091,0.));
#419 = VECTOR('',#420,1.);
#420 = DIRECTION('',(-0.331407636033,-0.943487667529,0.));
#421 = PCURVE('',#161,#422);
#422 = DEFINITIONAL_REPRESENTATION('',(#423),#427);
#423 = LINE('',#424,#425);
#424 = CARTESIAN_POINT('',(4.831690603169E-13,253.9663744438));
#425 = VECTOR('',#426,1.);
#426 = DIRECTION('',(-0.999918907924,1.273489602001E-02));
#427 = ( GEOMETRIC_REPRESENTATION_CONTEXT(2) 
PARAMETRIC_REPRESENTATION_CONTEXT() REPRESENTATION_CONTEXT('2D SPACE',''
  ) );
#428 = PCURVE('',#429,#434);
#429 = PLANE('',#430);
#430 = AXIS2_PLACEMENT_3D('',#431,#432,#433);
#431 = CARTESIAN_POINT('',(-67.63967218251,161.18275495091,0.));
#432 = DIRECTION('',(0.943487667529,-0.331407636033,-0.));
#433 = DIRECTION('',(-0.331407636033,-0.943487667529,0.));
#434 = DEFINITIONAL_REPRESENTATION('',(#435),#439);
#435 = LINE('',#436,#437);
#436 = CARTESIAN_POINT('',(0.,0.));
#437 = VECTOR('',#438,1.);
#438 = DIRECTION('',(1.,0.));
#439 = ( GEOMETRIC_REPRESENTATION_CONTEXT(2) 
PARAMETRIC_REPRESENTATION_CONTEXT() REPRESENTATION_CONTEXT('2D SPACE',''
  ) );
#440 = ORIENTED_EDGE('',*,*,#441,.F.);
#441 = EDGE_CURVE('',#200,#414,#442,.T.);
#442 = SURFACE_CURVE('',#443,(#458,#476),.PCURVE_S1.);
#443 = B_SPLINE_CURVE_WITH_KNOTS('',7,(#444,#445,#446,#447,#448,#449,
    #450,#451,#452,#453,#454,#455,#456,#457),.UNSPECIFIED.,.F.,.F.,(8,6,
    8),(0.,0.528469027198,1.),.UNSPECIFIED.);
#444 = CARTESIAN_POINT('',(-57.85991418079,-109.9421173913,0.));
#445 = CARTESIAN_POINT('',(-59.130062326,-98.21386087903,0.));
#446 = CARTESIAN_POINT('',(-60.89715604383,-86.54001268659,0.));
#447 = CARTESIAN_POINT('',(-63.17229954797,-74.94598151161,0.));
#448 = CARTESIAN_POINT('',(-65.96893089003,-63.46203277245,0.));
#449 = CARTESIAN_POINT('',(-69.30111535609,-52.12286602309,0.));
#450 = CARTESIAN_POINT('',(-73.18221597413,-40.96729399076,0.));
#451 = CARTESIAN_POINT('',(-81.58433224627,-20.285512194,0.));
#452 = CARTESIAN_POINT('',(-85.99075894645,-10.71472231812,0.));
#453 = CARTESIAN_POINT('',(-90.81550422369,-1.341948889236,0.));
#454 = CARTESIAN_POINT('',(-96.03247262419,7.819164865294,0.));
#455 = CARTESIAN_POINT('',(-101.6169956809,16.757338407511,0.));
#456 = CARTESIAN_POINT('',(-107.5465983765,25.463212722748,0.));
#457 = CARTESIAN_POINT('',(-113.8018696268,33.928864155827,0.));
#458 = PCURVE('',#161,#459);
#459 = DEFINITIONAL_REPRESENTATION('',(#460),#475);
#460 = B_SPLINE_CURVE_WITH_KNOTS('',7,(#461,#462,#463,#464,#465,#466,
    #467,#468,#469,#470,#471,#472,#473,#474),.UNSPECIFIED.,.F.,.F.,(8,6,
    8),(0.,0.528469027198,1.),.UNSPECIFIED.);
#461 = CARTESIAN_POINT('',(-253.8031788252,158.11082433126));
#462 = CARTESIAN_POINT('',(-243.0947538955,163.06005787335));
#463 = CARTESIAN_POINT('',(-232.5965953022,168.46283660081));
#464 = CARTESIAN_POINT('',(-222.3363274333,174.32156855492));
#465 = CARTESIAN_POINT('',(-212.3469224064,180.63932232621));
#466 = CARTESIAN_POINT('',(-202.665754583,187.41834478227));
#467 = CARTESIAN_POINT('',(-193.3338718205,194.65890370298));
#468 = CARTESIAN_POINT('',(-176.4185082822,209.2260630865));
#469 = CARTESIAN_POINT('',(-168.7561862203,216.45831278714));
#470 = CARTESIAN_POINT('',(-161.4151073409,224.0237347599));
#471 = CARTESIAN_POINT('',(-154.3998664085,231.89324295142));
#472 = CARTESIAN_POINT('',(-147.7132749591,240.03985812768));
#473 = CARTESIAN_POINT('',(-141.3570241444,248.43929330514));
#474 = CARTESIAN_POINT('',(-135.332423439,257.07062338471));
#475 = ( GEOMETRIC_REPRESENTATION_CONTEXT(2) 
PARAMETRIC_REPRESENTATION_CONTEXT() REPRESENTATION_CONTEXT('2D SPACE',''
  ) );
#476 = PCURVE('',#240,#477);
#477 = DEFINITIONAL_REPRESENTATION('',(#478),#493);
#478 = B_SPLINE_CURVE_WITH_KNOTS('',7,(#479,#480,#481,#482,#483,#484,
    #485,#486,#487,#488,#489,#490,#491,#492),.UNSPECIFIED.,.F.,.F.,(8,6,
    8),(0.,0.528469027198,1.),.UNSPECIFIED.);
#479 = CARTESIAN_POINT('',(0.846493026926,-125.));
#480 = CARTESIAN_POINT('',(0.797954955301,-125.));
#481 = CARTESIAN_POINT('',(0.749480723656,-125.));
#482 = CARTESIAN_POINT('',(0.701020077236,-125.));
#483 = CARTESIAN_POINT('',(0.652546648968,-125.));
#484 = CARTESIAN_POINT('',(0.604046324223,-125.));
#485 = CARTESIAN_POINT('',(0.555523782148,-125.));
#486 = CARTESIAN_POINT('',(0.463704243725,-125.));
#487 = CARTESIAN_POINT('',(0.420414164329,-125.));
#488 = CARTESIAN_POINT('',(0.377144901071,-125.));
#489 = CARTESIAN_POINT('',(0.333901552111,-125.));
#490 = CARTESIAN_POINT('',(0.29067552052,-125.));
#491 = CARTESIAN_POINT('',(0.247451578663,-125.));
#492 = CARTESIAN_POINT('',(0.204198484475,-125.));
#493 = ( GEOMETRIC_REPRESENTATION_CONTEXT(2) 
PARAMETRIC_REPRESENTATION_CONTEXT() REPRESENTATION_CONTEXT('2D SPACE',''
  ) );
#494 = ORIENTED_EDGE('',*,*,#199,.T.);
#495 = ORIENTED_EDGE('',*,*,#147,.T.);
#496 = ADVANCED_FACE('',(#497),#107,.T.);
#497 = FACE_BOUND('',#498,.T.);
#498 = EDGE_LOOP('',(#499,#500,#501,#524,#551));
#499 = ORIENTED_EDGE('',*,*,#365,.T.);
#500 = ORIENTED_EDGE('',*,*,#91,.T.);
#501 = ORIENTED_EDGE('',*,*,#502,.T.);
#502 = EDGE_CURVE('',#92,#503,#505,.T.);
#503 = VERTEX_POINT('',#504);
#504 = CARTESIAN_POINT('',(-58.16258766665,157.98884050818,100.));
#505 = SURFACE_CURVE('',#506,(#510,#517),.PCURVE_S1.);
#506 = LINE('',#507,#508);
#507 = CARTESIAN_POINT('',(173.0268895626,80.074645578861,100.));
#508 = VECTOR('',#509,1.);
#509 = DIRECTION('',(-0.94763159994,0.319365544158,0.));
#510 = PCURVE('',#107,#511);
#511 = DEFINITIONAL_REPRESENTATION('',(#512),#516);
#512 = LINE('',#513,#514);
#513 = CARTESIAN_POINT('',(0.,0.));
#514 = VECTOR('',#515,1.);
#515 = DIRECTION('',(0.,1.));
#516 = ( GEOMETRIC_REPRESENTATION_CONTEXT(2) 
PARAMETRIC_REPRESENTATION_CONTEXT() REPRESENTATION_CONTEXT('2D SPACE',''
  ) );
#517 = PCURVE('',#135,#518);
#518 = DEFINITIONAL_REPRESENTATION('',(#519),#523);
#519 = LINE('',#520,#521);
#520 = CARTESIAN_POINT('',(0.,-100.));
#521 = VECTOR('',#522,1.);
#522 = DIRECTION('',(1.,0.));
#523 = ( GEOMETRIC_REPRESENTATION_CONTEXT(2) 
PARAMETRIC_REPRESENTATION_CONTEXT() REPRESENTATION_CONTEXT('2D SPACE',''
  ) );
#524 = ORIENTED_EDGE('',*,*,#525,.T.);
#525 = EDGE_CURVE('',#503,#526,#528,.T.);
#526 = VERTEX_POINT('',#527);
#527 = CARTESIAN_POINT('',(-105.7496844079,22.512665468144,100.));
#528 = SURFACE_CURVE('',#529,(#533,#540),.PCURVE_S1.);
#529 = LINE('',#530,#531);
#530 = CARTESIAN_POINT('',(-58.20479550722,157.86867859058,100.));
#531 = VECTOR('',#532,1.);
#532 = DIRECTION('',(-0.331407636033,-0.943487667529,0.));
#533 = PCURVE('',#107,#534);
#534 = DEFINITIONAL_REPRESENTATION('',(#535),#539);
#535 = LINE('',#536,#537);
#536 = CARTESIAN_POINT('',(-0.1273489602,243.96718536456));
#537 = VECTOR('',#538,1.);
#538 = DIRECTION('',(-0.999918907924,1.273489602001E-02));
#539 = ( GEOMETRIC_REPRESENTATION_CONTEXT(2) 
PARAMETRIC_REPRESENTATION_CONTEXT() REPRESENTATION_CONTEXT('2D SPACE',''
  ) );
#540 = PCURVE('',#541,#546);
#541 = CYLINDRICAL_SURFACE('',#542,10.);
#542 = AXIS2_PLACEMENT_3D('',#543,#544,#545);
#543 = CARTESIAN_POINT('',(-58.20479550722,157.86867859058,90.));
#544 = DIRECTION('',(-0.331407636033,-0.943487667529,0.));
#545 = DIRECTION('',(-0.943487667529,0.331407636033,0.));
#546 = DEFINITIONAL_REPRESENTATION('',(#547),#550);
#547 = B_SPLINE_CURVE_WITH_KNOTS('',1,(#548,#549),.UNSPECIFIED.,.F.,.F.,
  (2,2),(-0.127359288029,243.69559164657),.PIECEWISE_BEZIER_KNOTS.);
#548 = CARTESIAN_POINT('',(-1.570796326795,-0.127359288029));
#549 = CARTESIAN_POINT('',(-1.570796326795,243.69559164657));
#550 = ( GEOMETRIC_REPRESENTATION_CONTEXT(2) 
PARAMETRIC_REPRESENTATION_CONTEXT() REPRESENTATION_CONTEXT('2D SPACE',''
  ) );
#551 = ORIENTED_EDGE('',*,*,#552,.F.);
#552 = EDGE_CURVE('',#262,#526,#553,.T.);
#553 = SURFACE_CURVE('',#554,(#569,#587),.PCURVE_S1.);
#554 = B_SPLINE_CURVE_WITH_KNOTS('',7,(#555,#556,#557,#558,#559,#560,
    #561,#562,#563,#564,#565,#566,#567,#568),.UNSPECIFIED.,.F.,.F.,(8,6,
    8),(0.,0.538242995493,1.),.UNSPECIFIED.);
#555 = CARTESIAN_POINT('',(-59.24556598552,-98.92250867073,100.));
#556 = CARTESIAN_POINT('',(-60.69469572985,-88.81580446619,100.));
#557 = CARTESIAN_POINT('',(-62.52192622302,-78.76359014955,100.));
#558 = CARTESIAN_POINT('',(-64.73516264606,-68.78368354515,100.));
#559 = CARTESIAN_POINT('',(-67.34328024301,-58.89672838143,100.));
#560 = CARTESIAN_POINT('',(-70.35528000482,-49.12596541083,100.));
#561 = CARTESIAN_POINT('',(-73.7795203473,-39.49703122458,100.));
#562 = CARTESIAN_POINT('',(-80.91933242429,-21.92240708664,100.));
#563 = CARTESIAN_POINT('',(-84.524120012,-13.93256247795,100.));
#564 = CARTESIAN_POINT('',(-88.42166727776,-6.07788967078,100.));
#565 = CARTESIAN_POINT('',(-92.59686577588,1.633364212948,100.));
#566 = CARTESIAN_POINT('',(-97.03521921945,9.19422253657,100.));
#567 = CARTESIAN_POINT('',(-101.7232060015,16.598784769802,100.));
#568 = CARTESIAN_POINT('',(-106.6486568324,23.842022998954,100.));
#569 = PCURVE('',#107,#570);
#570 = DEFINITIONAL_REPRESENTATION('',(#571),#586);
#571 = B_SPLINE_CURVE_WITH_KNOTS('',7,(#572,#573,#574,#575,#576,#577,
    #578,#579,#580,#581,#582,#583,#584,#585),.UNSPECIFIED.,.F.,.F.,(8,6,
    8),(0.,0.538242995493,1.),.UNSPECIFIED.);
#572 = CARTESIAN_POINT('',(-243.8031788252,162.9431951034));
#573 = CARTESIAN_POINT('',(-234.6885486591,167.54416932948));
#574 = CARTESIAN_POINT('',(-225.746307184,172.4860415804));
#575 = CARTESIAN_POINT('',(-216.9958637759,177.77061265637));
#576 = CARTESIAN_POINT('',(-208.4596155311,183.39970012353));
#577 = CARTESIAN_POINT('',(-200.1624607276,189.37441130977));
#578 = CARTESIAN_POINT('',(-192.1313627992,195.69447947015));
#579 = CARTESIAN_POINT('',(-177.7573035782,208.07312041312));
#580 = CARTESIAN_POINT('',(-171.3371192979,214.0408121135));
#581 = CARTESIAN_POINT('',(-165.1385254421,220.24276292004));
#582 = CARTESIAN_POINT('',(-159.164512127,226.66202174559));
#583 = CARTESIAN_POINT('',(-153.4170610196,233.28262335325));
#584 = CARTESIAN_POINT('',(-147.8974453133,240.08986981495));
#585 = CARTESIAN_POINT('',(-142.6065431663,247.07062338471));
#586 = ( GEOMETRIC_REPRESENTATION_CONTEXT(2) 
PARAMETRIC_REPRESENTATION_CONTEXT() REPRESENTATION_CONTEXT('2D SPACE',''
  ) );
#587 = PCURVE('',#240,#588);
#588 = DEFINITIONAL_REPRESENTATION('',(#589),#604);
#589 = B_SPLINE_CURVE_WITH_KNOTS('',7,(#590,#591,#592,#593,#594,#595,
    #596,#597,#598,#599,#600,#601,#602,#603),.UNSPECIFIED.,.F.,.F.,(8,6,
    8),(0.,0.538242995493,1.),.UNSPECIFIED.);
#590 = CARTESIAN_POINT('',(0.800813216623,-25.));
#591 = CARTESIAN_POINT('',(0.758836933995,-25.));
#592 = CARTESIAN_POINT('',(0.716887604365,-25.));
#593 = CARTESIAN_POINT('',(0.67493825568,-25.));
#594 = CARTESIAN_POINT('',(0.632975577102,-25.));
#595 = CARTESIAN_POINT('',(0.590993164117,-25.));
#596 = CARTESIAN_POINT('',(0.548996353811,-25.));
#597 = CARTESIAN_POINT('',(0.47097145769,-25.));
#598 = CARTESIAN_POINT('',(0.434945945676,-25.));
#599 = CARTESIAN_POINT('',(0.398933216205,-25.));
#600 = CARTESIAN_POINT('',(0.362937047382,-25.));
#601 = CARTESIAN_POINT('',(0.326955725099,-25.));
#602 = CARTESIAN_POINT('',(0.2909821499,-25.));
#603 = CARTESIAN_POINT('',(0.25500298381,-25.));
#604 = ( GEOMETRIC_REPRESENTATION_CONTEXT(2) 
PARAMETRIC_REPRESENTATION_CONTEXT() REPRESENTATION_CONTEXT('2D SPACE',''
  ) );
#605 = ADVANCED_FACE('',(#606),#135,.F.);
#606 = FACE_BOUND('',#607,.F.);
#607 = EDGE_LOOP('',(#608,#631,#632,#633,#634));
#608 = ORIENTED_EDGE('',*,*,#609,.F.);
#609 = EDGE_CURVE('',#391,#610,#612,.T.);
#610 = VERTEX_POINT('',#611);
#611 = CARTESIAN_POINT('',(-67.63967218251,161.18275495091,90.));
#612 = SURFACE_CURVE('',#613,(#617,#624),.PCURVE_S1.);
#613 = LINE('',#614,#615);
#614 = CARTESIAN_POINT('',(-67.63967218251,161.18275495091,0.));
#615 = VECTOR('',#616,1.);
#616 = DIRECTION('',(0.,-0.,1.));
#617 = PCURVE('',#135,#618);
#618 = DEFINITIONAL_REPRESENTATION('',(#619),#623);
#619 = LINE('',#620,#621);
#620 = CARTESIAN_POINT('',(253.9663744438,0.));
#621 = VECTOR('',#622,1.);
#622 = DIRECTION('',(0.,-1.));
#623 = ( GEOMETRIC_REPRESENTATION_CONTEXT(2) 
PARAMETRIC_REPRESENTATION_CONTEXT() REPRESENTATION_CONTEXT('2D SPACE',''
  ) );
#624 = PCURVE('',#429,#625);
#625 = DEFINITIONAL_REPRESENTATION('',(#626),#630);
#626 = LINE('',#627,#628);
#627 = CARTESIAN_POINT('',(0.,0.));
#628 = VECTOR('',#629,1.);
#629 = DIRECTION('',(0.,-1.));
#630 = ( GEOMETRIC_REPRESENTATION_CONTEXT(2) 
PARAMETRIC_REPRESENTATION_CONTEXT() REPRESENTATION_CONTEXT('2D SPACE',''
  ) );
#631 = ORIENTED_EDGE('',*,*,#390,.F.);
#632 = ORIENTED_EDGE('',*,*,#119,.T.);
#633 = ORIENTED_EDGE('',*,*,#502,.T.);
#634 = ORIENTED_EDGE('',*,*,#635,.F.);
#635 = EDGE_CURVE('',#610,#503,#636,.T.);
#636 = SURFACE_CURVE('',#637,(#642,#653),.PCURVE_S1.);
#637 = ELLIPSE('',#638,10.000810986527,10.);
#638 = AXIS2_PLACEMENT_3D('',#639,#640,#641);
#639 = CARTESIAN_POINT('',(-58.16258766665,157.98884050818,90.));
#640 = DIRECTION('',(0.319365544158,0.94763159994,-0.));
#641 = DIRECTION('',(-0.94763159994,0.319365544158,0.));
#642 = PCURVE('',#135,#643);
#643 = DEFINITIONAL_REPRESENTATION('',(#644),#652);
#644 = ( BOUNDED_CURVE() B_SPLINE_CURVE(2,(#645,#646,#647,#648,#649,#650
,#651),.UNSPECIFIED.,.T.,.F.) B_SPLINE_CURVE_WITH_KNOTS((1,2,2,2,2,1),(
    -2.094395102393,0.,2.094395102393,4.188790204786,6.28318530718,
8.377580409573),.UNSPECIFIED.) CURVE() GEOMETRIC_REPRESENTATION_ITEM() 
RATIONAL_B_SPLINE_CURVE((1.,0.5,1.,0.5,1.,0.5,1.)) REPRESENTATION_ITEM(
  '') );
#645 = CARTESIAN_POINT('',(253.9663744438,-90.));
#646 = CARTESIAN_POINT('',(253.9663744438,-107.3205080756));
#647 = CARTESIAN_POINT('',(238.965157964,-98.66025403784));
#648 = CARTESIAN_POINT('',(223.96394148421,-90.));
#649 = CARTESIAN_POINT('',(238.965157964,-81.33974596215));
#650 = CARTESIAN_POINT('',(253.9663744438,-72.67949192431));
#651 = CARTESIAN_POINT('',(253.9663744438,-90.));
#652 = ( GEOMETRIC_REPRESENTATION_CONTEXT(2) 
PARAMETRIC_REPRESENTATION_CONTEXT() REPRESENTATION_CONTEXT('2D SPACE',''
  ) );
#653 = PCURVE('',#541,#654);
#654 = DEFINITIONAL_REPRESENTATION('',(#655),#665);
#655 = B_SPLINE_CURVE_WITH_KNOTS('',8,(#656,#657,#658,#659,#660,#661,
    #662,#663,#664),.UNSPECIFIED.,.F.,.F.,(9,9),(0.,1.570796326795),
  .PIECEWISE_BEZIER_KNOTS.);
#656 = CARTESIAN_POINT('',(6.610029825939E-17,5.551121491084E-14));
#657 = CARTESIAN_POINT('',(-0.196349541599,-2.495142654436E-11));
#658 = CARTESIAN_POINT('',(-0.392699082198,-5.611549095702E-03));
#659 = CARTESIAN_POINT('',(-0.5890486228,-1.683459953866E-02));
#660 = CARTESIAN_POINT('',(-0.785398163392,-3.320781989674E-02));
#661 = CARTESIAN_POINT('',(-0.981747704,-5.380761023402E-02));
#662 = CARTESIAN_POINT('',(-1.178097244594,-7.734540657837E-02));
#663 = CARTESIAN_POINT('',(-1.374446785196,-0.102352350206));
#664 = CARTESIAN_POINT('',(-1.570796326795,-0.127359288029));
#665 = ( GEOMETRIC_REPRESENTATION_CONTEXT(2) 
PARAMETRIC_REPRESENTATION_CONTEXT() REPRESENTATION_CONTEXT('2D SPACE',''
  ) );
#666 = ADVANCED_FACE('',(#667),#240,.T.);
#667 = FACE_BOUND('',#668,.T.);
#668 = EDGE_LOOP('',(#669,#670,#671,#672,#673,#777));
#669 = ORIENTED_EDGE('',*,*,#441,.F.);
#670 = ORIENTED_EDGE('',*,*,#222,.T.);
#671 = ORIENTED_EDGE('',*,*,#261,.F.);
#672 = ORIENTED_EDGE('',*,*,#552,.T.);
#673 = ORIENTED_EDGE('',*,*,#674,.F.);
#674 = EDGE_CURVE('',#675,#526,#677,.T.);
#675 = VERTEX_POINT('',#676);
#676 = CARTESIAN_POINT('',(-112.8118495645,32.58163765175,90.));
#677 = SURFACE_CURVE('',#678,(#709,#743),.PCURVE_S1.);
#678 = B_SPLINE_CURVE_WITH_KNOTS('',8,(#679,#680,#681,#682,#683,#684,
    #685,#686,#687,#688,#689,#690,#691,#692,#693,#694,#695,#696,#697,
    #698,#699,#700,#701,#702,#703,#704,#705,#706,#707,#708),
  .UNSPECIFIED.,.F.,.F.,(9,7,7,7,9),(0.,0.355379134504,0.82672580651,
    0.922543352478,1.),.UNSPECIFIED.);
#679 = CARTESIAN_POINT('',(-112.8118495645,32.58163765175,90.));
#680 = CARTESIAN_POINT('',(-112.8118495645,32.58163765175,
    90.700894378336));
#681 = CARTESIAN_POINT('',(-112.7716597711,32.526645414985,
    91.40188678735));
#682 = CARTESIAN_POINT('',(-112.6912614846,32.416635509497,
    92.097773884251));
#683 = CARTESIAN_POINT('',(-112.5710724809,32.252040882659,
    92.783414419699));
#684 = CARTESIAN_POINT('',(-112.4119239229,32.033722601812,
    93.453730649875));
#685 = CARTESIAN_POINT('',(-112.215060356,31.762982781006,
    94.103714465139));
#686 = CARTESIAN_POINT('',(-111.982181136,31.441650874857,
    94.728454432923));
#687 = CARTESIAN_POINT('',(-111.3618921829,30.582360721004,
    96.112023195462));
#688 = CARTESIAN_POINT('',(-110.9484273779,30.00733877738,
    96.849034794933));
#689 = CARTESIAN_POINT('',(-110.4806822464,29.353518218347,
    97.521770758674));
#690 = CARTESIAN_POINT('',(-109.9656437913,28.629064044605,
    98.120412688401));
#691 = CARTESIAN_POINT('',(-109.4111125373,27.843314816451,
    98.636984379676));
#692 = CARTESIAN_POINT('',(-108.8255933714,27.00686082107,
    99.065450584709));
#693 = CARTESIAN_POINT('',(-108.2180970439,26.131466115014,
    99.401630930043));
#694 = CARTESIAN_POINT('',(-107.4723308564,25.047364940113,
    99.693136472405));
#695 = CARTESIAN_POINT('',(-107.3458030115,24.863116172511,
    99.738513894086));
#696 = CARTESIAN_POINT('',(-107.2188105335,24.677867218164,
    99.780008260393));
#697 = CARTESIAN_POINT('',(-107.0914248641,24.491716600591,
    99.817609635822));
#698 = CARTESIAN_POINT('',(-106.9637164972,24.304762411548,
    99.851311257103));
#699 = CARTESIAN_POINT('',(-106.8357549787,24.11710231103,
    99.881109533205));
#700 = CARTESIAN_POINT('',(-106.7076089064,23.928833527267,
    99.907004045327));
#701 = CARTESIAN_POINT('',(-106.4756611611,23.587447008709,
    99.946776575607));
#702 = CARTESIAN_POINT('',(-106.3718999522,23.434506595381,
    99.962006289686));
#703 = CARTESIAN_POINT('',(-106.2680974507,23.281281881557,
    99.974688024156));
#704 = CARTESIAN_POINT('',(-106.1642886422,23.127823309117,
    99.984824203632));
#705 = CARTESIAN_POINT('',(-106.0605083512,22.97418149701,
    99.992418342331));
#706 = CARTESIAN_POINT('',(-105.9567912408,22.820407241249,
    99.997475044076));
#707 = CARTESIAN_POINT('',(-105.8531718129,22.666551514912,
    100.00000000228));
#708 = CARTESIAN_POINT('',(-105.7496844079,22.512665468144,100.));
#709 = PCURVE('',#240,#710);
#710 = DEFINITIONAL_REPRESENTATION('',(#711),#742);
#711 = B_SPLINE_CURVE_WITH_KNOTS('',8,(#712,#713,#714,#715,#716,#717,
    #718,#719,#720,#721,#722,#723,#724,#725,#726,#727,#728,#729,#730,
    #731,#732,#733,#734,#735,#736,#737,#738,#739,#740,#741),
  .UNSPECIFIED.,.F.,.F.,(9,7,7,7,9),(0.,0.355379134504,0.82672580651,
    0.922543352478,1.),.UNSPECIFIED.);
#712 = CARTESIAN_POINT('',(0.211068200894,-35.));
#713 = CARTESIAN_POINT('',(0.211068200894,-34.29910562166));
#714 = CARTESIAN_POINT('',(0.211348066511,-33.59811321265));
#715 = CARTESIAN_POINT('',(0.211907927418,-32.90222611574));
#716 = CARTESIAN_POINT('',(0.212745329673,-32.2165855803));
#717 = CARTESIAN_POINT('',(0.213855391729,-31.54626935012));
#718 = CARTESIAN_POINT('',(0.215230764859,-30.89628553486));
#719 = CARTESIAN_POINT('',(0.216861251457,-30.27154556707));
#720 = CARTESIAN_POINT('',(0.221215386845,-28.88797680453));
#721 = CARTESIAN_POINT('',(0.224125129819,-28.15096520506));
#722 = CARTESIAN_POINT('',(0.227427808413,-27.47822924132));
#723 = CARTESIAN_POINT('',(0.231079419722,-26.87958731159));
#724 = CARTESIAN_POINT('',(0.235030137578,-26.36301562032));
#725 = CARTESIAN_POINT('',(0.239224327895,-25.93454941529));
#726 = CARTESIAN_POINT('',(0.243601266658,-25.59836906995));
#727 = CARTESIAN_POINT('',(0.249006315925,-25.30686352759));
#728 = CARTESIAN_POINT('',(0.2499244185,-25.26148610591));
#729 = CARTESIAN_POINT('',(0.250846984199,-25.2199917396));
#730 = CARTESIAN_POINT('',(0.251773514141,-25.18239036417));
#731 = CARTESIAN_POINT('',(0.252703513148,-25.14868874289));
#732 = CARTESIAN_POINT('',(0.253636489744,-25.11889046679));
#733 = CARTESIAN_POINT('',(0.254571956152,-25.09299595467));
#734 = CARTESIAN_POINT('',(0.256267258709,-25.05322342439));
#735 = CARTESIAN_POINT('',(0.257026399627,-25.03799056961));
#736 = CARTESIAN_POINT('',(0.257786600253,-25.02530641415));
#737 = CARTESIAN_POINT('',(0.258547609296,-25.0151707057));
#738 = CARTESIAN_POINT('',(0.259309174977,-25.00758041423));
#739 = CARTESIAN_POINT('',(0.260071045027,-25.00252973201));
#740 = CARTESIAN_POINT('',(0.260832966685,-25.00001007362));
#741 = CARTESIAN_POINT('',(0.261594686705,-25.00001007591));
#742 = ( GEOMETRIC_REPRESENTATION_CONTEXT(2) 
PARAMETRIC_REPRESENTATION_CONTEXT() REPRESENTATION_CONTEXT('2D SPACE',''
  ) );
#743 = PCURVE('',#541,#744);
#744 = DEFINITIONAL_REPRESENTATION('',(#745),#776);
#745 = B_SPLINE_CURVE_WITH_KNOTS('',8,(#746,#747,#748,#749,#750,#751,
    #752,#753,#754,#755,#756,#757,#758,#759,#760,#761,#762,#763,#764,
    #765,#766,#767,#768,#769,#770,#771,#772,#773,#774,#775),
  .UNSPECIFIED.,.F.,.F.,(9,7,7,7,9),(0.,0.355379134504,0.82672580651,
    0.922543352478,1.),.UNSPECIFIED.);
#746 = CARTESIAN_POINT('',(0.,136.30397272283));
#747 = CARTESIAN_POINT('',(-7.008943783359E-02,136.30397272283));
#748 = CARTESIAN_POINT('',(-0.140188693809,136.34253801562));
#749 = CARTESIAN_POINT('',(-0.210302017933,136.41968639867));
#750 = CARTESIAN_POINT('',(-0.280440788147,136.53514784563));
#751 = CARTESIAN_POINT('',(-0.350615340466,136.68838540384));
#752 = CARTESIAN_POINT('',(-0.420831217762,136.87858299655));
#753 = CARTESIAN_POINT('',(-0.491082985518,137.10457773539));
#754 = CARTESIAN_POINT('',(-0.654520448663,137.7097389028));
#755 = CARTESIAN_POINT('',(-0.747821593731,138.11523962155));
#756 = CARTESIAN_POINT('',(-0.841031140678,138.57709694748));
#757 = CARTESIAN_POINT('',(-0.934067128811,139.0899228492));
#758 = CARTESIAN_POINT('',(-1.026869898843,139.64749166375));
#759 = CARTESIAN_POINT('',(-1.119382968996,140.24263017024));
#760 = CARTESIAN_POINT('',(-1.211528035523,140.8672253578));
#761 = CARTESIAN_POINT('',(-1.321742970283,141.64290883745));
#762 = CARTESIAN_POINT('',(-1.340344468235,141.77481298348));
#763 = CARTESIAN_POINT('',(-1.358927354477,141.90750681039));
#764 = CARTESIAN_POINT('',(-1.377491470877,142.04092103881));
#765 = CARTESIAN_POINT('',(-1.39603673982,142.1749864826));
#766 = CARTESIAN_POINT('',(-1.414563164214,142.30963404877));
#767 = CARTESIAN_POINT('',(-1.433070827488,142.44479473756));
#768 = CARTESIAN_POINT('',(-1.466506019184,142.69001945371));
#769 = CARTESIAN_POINT('',(-1.481439986834,142.79992959061));
#770 = CARTESIAN_POINT('',(-1.496361958726,142.91009427681));
#771 = CARTESIAN_POINT('',(-1.511272079451,143.02047751557));
#772 = CARTESIAN_POINT('',(-1.526170476008,143.1310430896));
#773 = CARTESIAN_POINT('',(-1.541057257806,143.24175456113));
#774 = CARTESIAN_POINT('',(-1.55593251666,143.35257527184));
#775 = CARTESIAN_POINT('',(-1.570796326795,143.46346834291));
#776 = ( GEOMETRIC_REPRESENTATION_CONTEXT(2) 
PARAMETRIC_REPRESENTATION_CONTEXT() REPRESENTATION_CONTEXT('2D SPACE',''
  ) );
#777 = ORIENTED_EDGE('',*,*,#778,.F.);
#778 = EDGE_CURVE('',#414,#675,#779,.T.);
#779 = SURFACE_CURVE('',#780,(#786,#795),.PCURVE_S1.);
#780 = B_SPLINE_CURVE_WITH_KNOTS('',4,(#781,#782,#783,#784,#785),
  .UNSPECIFIED.,.F.,.F.,(5,5),(0.,1.),.PIECEWISE_BEZIER_KNOTS.);
#781 = CARTESIAN_POINT('',(-112.8118495645,32.58163765175,0.));
#782 = CARTESIAN_POINT('',(-112.8118495645,32.58163765175,
    22.500000000001));
#783 = CARTESIAN_POINT('',(-112.8118495645,32.58163765175,
    44.999999999995));
#784 = CARTESIAN_POINT('',(-112.8118495645,32.58163765175,
    67.499999999999));
#785 = CARTESIAN_POINT('',(-112.8118495645,32.58163765175,90.));
#786 = PCURVE('',#240,#787);
#787 = DEFINITIONAL_REPRESENTATION('',(#788),#794);
#788 = B_SPLINE_CURVE_WITH_KNOTS('',4,(#789,#790,#791,#792,#793),
  .UNSPECIFIED.,.F.,.F.,(5,5),(0.,1.),.PIECEWISE_BEZIER_KNOTS.);
#789 = CARTESIAN_POINT('',(0.211068200894,-125.));
#790 = CARTESIAN_POINT('',(0.211068200894,-102.5));
#791 = CARTESIAN_POINT('',(0.211068200894,-79.99999999999));
#792 = CARTESIAN_POINT('',(0.211068200894,-57.5));
#793 = CARTESIAN_POINT('',(0.211068200894,-35.));
#794 = ( GEOMETRIC_REPRESENTATION_CONTEXT(2) 
PARAMETRIC_REPRESENTATION_CONTEXT() REPRESENTATION_CONTEXT('2D SPACE',''
  ) );
#795 = PCURVE('',#429,#796);
#796 = DEFINITIONAL_REPRESENTATION('',(#797),#803);
#797 = B_SPLINE_CURVE_WITH_KNOTS('',4,(#798,#799,#800,#801,#802),
  .UNSPECIFIED.,.F.,.F.,(5,5),(0.,1.),.PIECEWISE_BEZIER_KNOTS.);
#798 = CARTESIAN_POINT('',(136.30397272283,0.));
#799 = CARTESIAN_POINT('',(136.30397272283,-22.5));
#800 = CARTESIAN_POINT('',(136.30397272283,-44.99999999999));
#801 = CARTESIAN_POINT('',(136.30397272283,-67.49999999999));
#802 = CARTESIAN_POINT('',(136.30397272283,-90.));
#803 = ( GEOMETRIC_REPRESENTATION_CONTEXT(2) 
PARAMETRIC_REPRESENTATION_CONTEXT() REPRESENTATION_CONTEXT('2D SPACE',''
  ) );
#804 = ADVANCED_FACE('',(#805),#429,.F.);
#805 = FACE_BOUND('',#806,.F.);
#806 = EDGE_LOOP('',(#807,#808,#828,#829));
#807 = ORIENTED_EDGE('',*,*,#609,.T.);
#808 = ORIENTED_EDGE('',*,*,#809,.T.);
#809 = EDGE_CURVE('',#610,#675,#810,.T.);
#810 = SURFACE_CURVE('',#811,(#815,#822),.PCURVE_S1.);
#811 = LINE('',#812,#813);
#812 = CARTESIAN_POINT('',(-67.63967218251,161.18275495091,90.));
#813 = VECTOR('',#814,1.);
#814 = DIRECTION('',(-0.331407636033,-0.943487667529,0.));
#815 = PCURVE('',#429,#816);
#816 = DEFINITIONAL_REPRESENTATION('',(#817),#821);
#817 = LINE('',#818,#819);
#818 = CARTESIAN_POINT('',(0.,-90.));
#819 = VECTOR('',#820,1.);
#820 = DIRECTION('',(1.,0.));
#821 = ( GEOMETRIC_REPRESENTATION_CONTEXT(2) 
PARAMETRIC_REPRESENTATION_CONTEXT() REPRESENTATION_CONTEXT('2D SPACE',''
  ) );
#822 = PCURVE('',#541,#823);
#823 = DEFINITIONAL_REPRESENTATION('',(#824),#827);
#824 = B_SPLINE_CURVE_WITH_KNOTS('',1,(#825,#826),.UNSPECIFIED.,.F.,.F.,
  (2,2),(0.,243.69559164657),.PIECEWISE_BEZIER_KNOTS.);
#825 = CARTESIAN_POINT('',(0.,0.));
#826 = CARTESIAN_POINT('',(0.,243.69559164657));
#827 = ( GEOMETRIC_REPRESENTATION_CONTEXT(2) 
PARAMETRIC_REPRESENTATION_CONTEXT() REPRESENTATION_CONTEXT('2D SPACE',''
  ) );
#828 = ORIENTED_EDGE('',*,*,#778,.F.);
#829 = ORIENTED_EDGE('',*,*,#413,.F.);
#830 = ADVANCED_FACE('',(#831),#541,.T.);
#831 = FACE_BOUND('',#832,.F.);
#832 = EDGE_LOOP('',(#833,#834,#835,#836));
#833 = ORIENTED_EDGE('',*,*,#809,.F.);
#834 = ORIENTED_EDGE('',*,*,#635,.T.);
#835 = ORIENTED_EDGE('',*,*,#525,.T.);
#836 = ORIENTED_EDGE('',*,*,#674,.F.);
#837 = ( GEOMETRIC_REPRESENTATION_CONTEXT(3) 
GLOBAL_UNCERTAINTY_ASSIGNED_CONTEXT((#841)) GLOBAL_UNIT_ASSIGNED_CONTEXT
((#838,#839,#840)) REPRESENTATION_CONTEXT('Context #1',
  '3D Context with UNIT and UNCERTAINTY') );
#838 = ( LENGTH_UNIT() NAMED_UNIT(*) SI_UNIT(.MILLI.,.METRE.) );
#839 = ( NAMED_UNIT(*) PLANE_ANGLE_UNIT() SI_UNIT($,.RADIAN.) );
#840 = ( NAMED_UNIT(*) SI_UNIT($,.STERADIAN.) SOLID_ANGLE_UNIT() );
#841 = UNCERTAINTY_MEASURE_WITH_UNIT(LENGTH_MEASURE(1.E-04),#838,
  'distance_accuracy_value','confusion accuracy');
#842 = PRODUCT_RELATED_PRODUCT_CATEGORY('part',$,(#7));
ENDSEC;
END-ISO-10303-21;
