ISO-10303-21;
HEADER;
FILE_DESCRIPTION(('Open CASCADE Model'),'2;1');
FILE_NAME('Open CASCADE Shape Model','2026-07-11T20:15:54',('Author'),(
    'Open CASCADE'),'Open CASCADE STEP processor 8.0','Open CASCADE 8.0'
  ,'Unknown');
FILE_SCHEMA(('AUTOMOTIVE_DESIGN { 1 0 10303 214 1 1 1 1 }'));
ENDSEC;
DATA;
#1 = APPLICATION_PROTOCOL_DEFINITION('international standard',
  'automotive_design',2000,#2);
#2 = APPLICATION_CONTEXT(
  'core data for automotive mechanical design processes');
#3 = SHAPE_DEFINITION_REPRESENTATION(#4,#10);
#4 = PRODUCT_DEFINITION_SHAPE('','',#5);
#5 = PRODUCT_DEFINITION('design','',#6,#9);
#6 = PRODUCT_DEFINITION_FORMATION('','',#7);
#7 = PRODUCT('Open CASCADE STEP translator 8.0 1',
  'Open CASCADE STEP translator 8.0 1','',(#8));
#8 = PRODUCT_CONTEXT('',#2,'mechanical');
#9 = PRODUCT_DEFINITION_CONTEXT('part definition',#2,'design');
#10 = ADVANCED_BREP_SHAPE_REPRESENTATION('',(#11,#15),#681);
#11 = AXIS2_PLACEMENT_3D('',#12,#13,#14);
#12 = CARTESIAN_POINT('',(0.,0.,0.));
#13 = DIRECTION('',(0.,0.,1.));
#14 = DIRECTION('',(1.,0.,-0.));
#15 = MANIFOLD_SOLID_BREP('',#16);
#16 = CLOSED_SHELL('',(#17,#129,#199,#269,#339,#409,#479,#549,#614,#657,
    #669));
#17 = ADVANCED_FACE('',(#18),#32,.T.);
#18 = FACE_BOUND('',#19,.T.);
#19 = EDGE_LOOP('',(#20,#53,#79,#105));
#20 = ORIENTED_EDGE('',*,*,#21,.T.);
#21 = EDGE_CURVE('',#22,#24,#26,.T.);
#22 = VERTEX_POINT('',#23);
#23 = CARTESIAN_POINT('',(-118.,-90.49694997159,124.));
#24 = VERTEX_POINT('',#25);
#25 = CARTESIAN_POINT('',(-79.,-91.30035732396,121.95609655098));
#26 = SURFACE_CURVE('',#27,(#31,#42),.PCURVE_S1.);
#27 = LINE('',#28,#29);
#28 = CARTESIAN_POINT('',(-117.4613405408,-90.508046458,123.97177005317)
  );
#29 = VECTOR('',#30,1.);
#30 = DIRECTION('',(0.99841828902,-2.056760497794E-02,
    -5.232488678183E-02));
#31 = PCURVE('',#32,#37);
#32 = PLANE('',#33);
#33 = AXIS2_PLACEMENT_3D('',#34,#35,#36);
#34 = CARTESIAN_POINT('',(-118.,-90.49694997159,124.));
#35 = DIRECTION('',(5.233595769799E-02,0.680006238008,0.731336081293));
#36 = DIRECTION('',(3.469446951954E-18,0.732339727494,-0.6809394419));
#37 = DEFINITIONAL_REPRESENTATION('',(#38),#41);
#38 = B_SPLINE_CURVE_WITH_KNOTS('',1,(#39,#40),.UNSPECIFIED.,.F.,.F.,(2,
    2),(-0.539512812459,38.522271640926),.PIECEWISE_BEZIER_KNOTS.);
#39 = CARTESIAN_POINT('',(-1.049334230618E-14,-1.110223024625E-15));
#40 = CARTESIAN_POINT('',(0.803407352371,-39.0535214969));
#41 = ( GEOMETRIC_REPRESENTATION_CONTEXT(2) 
PARAMETRIC_REPRESENTATION_CONTEXT() REPRESENTATION_CONTEXT('2D SPACE',''
  ) );
#42 = PCURVE('',#43,#48);
#43 = PLANE('',#44);
#44 = AXIS2_PLACEMENT_3D('',#45,#46,#47);
#45 = CARTESIAN_POINT('',(-118.,-142.9593356541,124.));
#46 = DIRECTION('',(5.233595769799E-02,0.,0.998629534678));
#47 = DIRECTION('',(-0.,1.,0.));
#48 = DEFINITIONAL_REPRESENTATION('',(#49),#52);
#49 = B_SPLINE_CURVE_WITH_KNOTS('',1,(#50,#51),.UNSPECIFIED.,.F.,.F.,(2,
    2),(-0.539512812459,38.522271640926),.PIECEWISE_BEZIER_KNOTS.);
#50 = CARTESIAN_POINT('',(52.462385682518,-1.110223024625E-16));
#51 = CARTESIAN_POINT('',(51.658978330148,-39.0535214969));
#52 = ( GEOMETRIC_REPRESENTATION_CONTEXT(2) 
PARAMETRIC_REPRESENTATION_CONTEXT() REPRESENTATION_CONTEXT('2D SPACE',''
  ) );
#53 = ORIENTED_EDGE('',*,*,#54,.T.);
#54 = EDGE_CURVE('',#24,#55,#57,.T.);
#55 = VERTEX_POINT('',#56);
#56 = CARTESIAN_POINT('',(-79.,-74.09260738483,105.95609655098));
#57 = SURFACE_CURVE('',#58,(#62,#68),.PCURVE_S1.);
#58 = LINE('',#59,#60);
#59 = CARTESIAN_POINT('',(-79.,-63.63156349071,96.229275618662));
#60 = VECTOR('',#61,1.);
#61 = DIRECTION('',(0.,0.732339727494,-0.6809394419));
#62 = PCURVE('',#32,#63);
#63 = DEFINITIONAL_REPRESENTATION('',(#64),#67);
#64 = B_SPLINE_CURVE_WITH_KNOTS('',1,(#65,#66),.UNSPECIFIED.,.F.,.F.,(2,
    2),(-37.78136402342,-14.28441405183),.PIECEWISE_BEZIER_KNOTS.);
#65 = CARTESIAN_POINT('',(0.803407352371,-39.0535214969));
#66 = CARTESIAN_POINT('',(24.300357323963,-39.0535214969));
#67 = ( GEOMETRIC_REPRESENTATION_CONTEXT(2) 
PARAMETRIC_REPRESENTATION_CONTEXT() REPRESENTATION_CONTEXT('2D SPACE',''
  ) );
#68 = PCURVE('',#69,#74);
#69 = PLANE('',#70);
#70 = AXIS2_PLACEMENT_3D('',#71,#72,#73);
#71 = CARTESIAN_POINT('',(-79.,6.613092715396E-15,108.));
#72 = DIRECTION('',(1.,0.,0.));
#73 = DIRECTION('',(0.,0.732339727494,-0.6809394419));
#74 = DEFINITIONAL_REPRESENTATION('',(#75),#78);
#75 = B_SPLINE_CURVE_WITH_KNOTS('',1,(#76,#77),.UNSPECIFIED.,.F.,.F.,(2,
    2),(-37.78136402342,-14.28441405183),.PIECEWISE_BEZIER_KNOTS.);
#76 = CARTESIAN_POINT('',(-76.36613539922,-51.94941041639));
#77 = CARTESIAN_POINT('',(-52.86918542763,-51.94941041639));
#78 = ( GEOMETRIC_REPRESENTATION_CONTEXT(2) 
PARAMETRIC_REPRESENTATION_CONTEXT() REPRESENTATION_CONTEXT('2D SPACE',''
  ) );
#79 = ORIENTED_EDGE('',*,*,#80,.F.);
#80 = EDGE_CURVE('',#81,#55,#83,.T.);
#81 = VERTEX_POINT('',#82);
#82 = CARTESIAN_POINT('',(-118.,-73.28920003246,108.));
#83 = SURFACE_CURVE('',#84,(#88,#94),.PCURVE_S1.);
#84 = LINE('',#85,#86);
#85 = CARTESIAN_POINT('',(-118.2412557911,-73.28423011768,108.0126436806
    ));
#86 = VECTOR('',#87,1.);
#87 = DIRECTION('',(0.99841828902,-2.056760497794E-02,
    -5.232488678183E-02));
#88 = PCURVE('',#32,#89);
#89 = DEFINITIONAL_REPRESENTATION('',(#90),#93);
#90 = B_SPLINE_CURVE_WITH_KNOTS('',1,(#91,#92),.UNSPECIFIED.,.F.,.F.,(2,
    2),(0.241637992601,39.303422445987),.PIECEWISE_BEZIER_KNOTS.);
#91 = CARTESIAN_POINT('',(23.496949971593,-7.49400541622E-16));
#92 = CARTESIAN_POINT('',(24.300357323963,-39.0535214969));
#93 = ( GEOMETRIC_REPRESENTATION_CONTEXT(2) 
PARAMETRIC_REPRESENTATION_CONTEXT() REPRESENTATION_CONTEXT('2D SPACE',''
  ) );
#94 = PCURVE('',#95,#100);
#95 = PLANE('',#96);
#96 = AXIS2_PLACEMENT_3D('',#97,#98,#99);
#97 = CARTESIAN_POINT('',(-118.,-73.28920003246,108.));
#98 = DIRECTION('',(5.233595769799E-02,0.,0.998629534678));
#99 = DIRECTION('',(-0.,1.,0.));
#100 = DEFINITIONAL_REPRESENTATION('',(#101),#104);
#101 = B_SPLINE_CURVE_WITH_KNOTS('',1,(#102,#103),.UNSPECIFIED.,.F.,.F.,
  (2,2),(0.241637992601,39.303422445987),.PIECEWISE_BEZIER_KNOTS.);
#102 = CARTESIAN_POINT('',(-1.495765317161E-14,-7.49400541622E-16));
#103 = CARTESIAN_POINT('',(-0.803407352371,-39.0535214969));
#104 = ( GEOMETRIC_REPRESENTATION_CONTEXT(2) 
PARAMETRIC_REPRESENTATION_CONTEXT() REPRESENTATION_CONTEXT('2D SPACE',''
  ) );
#105 = ORIENTED_EDGE('',*,*,#106,.F.);
#106 = EDGE_CURVE('',#22,#81,#107,.T.);
#107 = SURFACE_CURVE('',#108,(#112,#118),.PCURVE_S1.);
#108 = LINE('',#109,#110);
#109 = CARTESIAN_POINT('',(-118.,-62.23978901683,97.72610731354));
#110 = VECTOR('',#111,1.);
#111 = DIRECTION('',(0.,0.732339727494,-0.6809394419));
#112 = PCURVE('',#32,#113);
#113 = DEFINITIONAL_REPRESENTATION('',(#114),#117);
#114 = B_SPLINE_CURVE_WITH_KNOTS('',1,(#115,#116),.UNSPECIFIED.,.F.,.F.,
  (2,2),(-38.58477137579,-15.0878214042),.PIECEWISE_BEZIER_KNOTS.);
#115 = CARTESIAN_POINT('',(0.,1.338678174416E-16));
#116 = CARTESIAN_POINT('',(23.496949971593,5.234639598244E-17));
#117 = ( GEOMETRIC_REPRESENTATION_CONTEXT(2) 
PARAMETRIC_REPRESENTATION_CONTEXT() REPRESENTATION_CONTEXT('2D SPACE',''
  ) );
#118 = PCURVE('',#119,#124);
#119 = PLANE('',#120);
#120 = AXIS2_PLACEMENT_3D('',#121,#122,#123);
#121 = CARTESIAN_POINT('',(-118.,6.613092715396E-15,108.));
#122 = DIRECTION('',(1.,-0.,0.));
#123 = DIRECTION('',(0.,0.732339727494,-0.6809394419));
#124 = DEFINITIONAL_REPRESENTATION('',(#125),#128);
#125 = B_SPLINE_CURVE_WITH_KNOTS('',1,(#126,#127),.UNSPECIFIED.,.F.,.F.,
  (2,2),(-38.58477137579,-15.0878214042),.PIECEWISE_BEZIER_KNOTS.);
#126 = CARTESIAN_POINT('',(-77.16954275159,-49.90550696737));
#127 = CARTESIAN_POINT('',(-53.67259278,-49.90550696737));
#128 = ( GEOMETRIC_REPRESENTATION_CONTEXT(2) 
PARAMETRIC_REPRESENTATION_CONTEXT() REPRESENTATION_CONTEXT('2D SPACE',''
  ) );
#129 = ADVANCED_FACE('',(#130),#95,.T.);
#130 = FACE_BOUND('',#131,.T.);
#131 = EDGE_LOOP('',(#132,#133,#154,#180));
#132 = ORIENTED_EDGE('',*,*,#80,.T.);
#133 = ORIENTED_EDGE('',*,*,#134,.T.);
#134 = EDGE_CURVE('',#55,#135,#137,.T.);
#135 = VERTEX_POINT('',#136);
#136 = CARTESIAN_POINT('',(-79.,-8.043903449019,105.95609655098));
#137 = SURFACE_CURVE('',#138,(#142,#148),.PCURVE_S1.);
#138 = LINE('',#139,#140);
#139 = CARTESIAN_POINT('',(-79.,-36.64460001623,105.95609655098));
#140 = VECTOR('',#141,1.);
#141 = DIRECTION('',(0.,1.,-0.));
#142 = PCURVE('',#95,#143);
#143 = DEFINITIONAL_REPRESENTATION('',(#144),#147);
#144 = B_SPLINE_CURVE_WITH_KNOTS('',1,(#145,#146),.UNSPECIFIED.,.F.,.F.,
  (2,2),(-37.4480073686,28.600696567213),.PIECEWISE_BEZIER_KNOTS.);
#145 = CARTESIAN_POINT('',(-0.803407352371,-39.0535214969));
#146 = CARTESIAN_POINT('',(65.245296583446,-39.0535214969));
#147 = ( GEOMETRIC_REPRESENTATION_CONTEXT(2) 
PARAMETRIC_REPRESENTATION_CONTEXT() REPRESENTATION_CONTEXT('2D SPACE',''
  ) );
#148 = PCURVE('',#69,#149);
#149 = DEFINITIONAL_REPRESENTATION('',(#150),#153);
#150 = B_SPLINE_CURVE_WITH_KNOTS('',1,(#151,#152),.UNSPECIFIED.,.F.,.F.,
  (2,2),(-37.4480073686,28.600696567213),.PIECEWISE_BEZIER_KNOTS.);
#151 = CARTESIAN_POINT('',(-52.86918542763,-51.94941041639));
#152 = CARTESIAN_POINT('',(-4.499095585968,-6.974242820148));
#153 = ( GEOMETRIC_REPRESENTATION_CONTEXT(2) 
PARAMETRIC_REPRESENTATION_CONTEXT() REPRESENTATION_CONTEXT('2D SPACE',''
  ) );
#154 = ORIENTED_EDGE('',*,*,#155,.F.);
#155 = EDGE_CURVE('',#156,#135,#158,.T.);
#156 = VERTEX_POINT('',#157);
#157 = CARTESIAN_POINT('',(-118.,-6.,108.));
#158 = SURFACE_CURVE('',#159,(#163,#169),.PCURVE_S1.);
#159 = LINE('',#160,#161);
#160 = CARTESIAN_POINT('',(-111.0577891392,-6.363825864669,
    107.63617413533));
#161 = VECTOR('',#162,1.);
#162 = DIRECTION('',(0.997264688482,-5.226442913781E-02,
    -5.226442913781E-02));
#163 = PCURVE('',#95,#164);
#164 = DEFINITIONAL_REPRESENTATION('',(#165),#168);
#165 = B_SPLINE_CURVE_WITH_KNOTS('',1,(#166,#167),.UNSPECIFIED.,.F.,.F.,
  (2,2),(-6.961252053654,32.145717691109),.PIECEWISE_BEZIER_KNOTS.);
#166 = CARTESIAN_POINT('',(67.289200032466,6.217248937901E-15));
#167 = CARTESIAN_POINT('',(65.245296583446,-39.0535214969));
#168 = ( GEOMETRIC_REPRESENTATION_CONTEXT(2) 
PARAMETRIC_REPRESENTATION_CONTEXT() REPRESENTATION_CONTEXT('2D SPACE',''
  ) );
#169 = PCURVE('',#170,#175);
#170 = PLANE('',#171);
#171 = AXIS2_PLACEMENT_3D('',#172,#173,#174);
#172 = CARTESIAN_POINT('',(-118.,-6.,-91.09664473776));
#173 = DIRECTION('',(-5.233595769799E-02,-0.998629534678,0.));
#174 = DIRECTION('',(0.,0.,1.));
#175 = DEFINITIONAL_REPRESENTATION('',(#176),#179);
#176 = B_SPLINE_CURVE_WITH_KNOTS('',1,(#177,#178),.UNSPECIFIED.,.F.,.F.,
  (2,2),(-6.961252053654,32.145717691109),.PIECEWISE_BEZIER_KNOTS.);
#177 = CARTESIAN_POINT('',(199.09664473776,6.217248937901E-15));
#178 = CARTESIAN_POINT('',(197.05274128874,-39.0535214969));
#179 = ( GEOMETRIC_REPRESENTATION_CONTEXT(2) 
PARAMETRIC_REPRESENTATION_CONTEXT() REPRESENTATION_CONTEXT('2D SPACE',''
  ) );
#180 = ORIENTED_EDGE('',*,*,#181,.F.);
#181 = EDGE_CURVE('',#81,#156,#182,.T.);
#182 = SURFACE_CURVE('',#183,(#187,#193),.PCURVE_S1.);
#183 = LINE('',#184,#185);
#184 = CARTESIAN_POINT('',(-118.,-36.64460001623,108.));
#185 = VECTOR('',#186,1.);
#186 = DIRECTION('',(0.,1.,-0.));
#187 = PCURVE('',#95,#188);
#188 = DEFINITIONAL_REPRESENTATION('',(#189),#192);
#189 = B_SPLINE_CURVE_WITH_KNOTS('',1,(#190,#191),.UNSPECIFIED.,.F.,.F.,
  (2,2),(-36.64460001623,30.644600016233),.PIECEWISE_BEZIER_KNOTS.);
#190 = CARTESIAN_POINT('',(0.,0.));
#191 = CARTESIAN_POINT('',(67.289200032466,0.));
#192 = ( GEOMETRIC_REPRESENTATION_CONTEXT(2) 
PARAMETRIC_REPRESENTATION_CONTEXT() REPRESENTATION_CONTEXT('2D SPACE',''
  ) );
#193 = PCURVE('',#119,#194);
#194 = DEFINITIONAL_REPRESENTATION('',(#195),#198);
#195 = B_SPLINE_CURVE_WITH_KNOTS('',1,(#196,#197),.UNSPECIFIED.,.F.,.F.,
  (2,2),(-36.64460001623,30.644600016233),.PIECEWISE_BEZIER_KNOTS.);
#196 = CARTESIAN_POINT('',(-53.67259278,-49.90550696737));
#197 = CARTESIAN_POINT('',(-4.394038364962,-4.085636651398));
#198 = ( GEOMETRIC_REPRESENTATION_CONTEXT(2) 
PARAMETRIC_REPRESENTATION_CONTEXT() REPRESENTATION_CONTEXT('2D SPACE',''
  ) );
#199 = ADVANCED_FACE('',(#200),#170,.F.);
#200 = FACE_BOUND('',#201,.F.);
#201 = EDGE_LOOP('',(#202,#230,#249,#250));
#202 = ORIENTED_EDGE('',*,*,#203,.T.);
#203 = EDGE_CURVE('',#204,#206,#208,.T.);
#204 = VERTEX_POINT('',#205);
#205 = CARTESIAN_POINT('',(-118.,-6.,-91.09664473776));
#206 = VERTEX_POINT('',#207);
#207 = CARTESIAN_POINT('',(-79.,-8.043903449019,-90.16518427232));
#208 = SURFACE_CURVE('',#209,(#213,#219),.PCURVE_S1.);
#209 = LINE('',#210,#211);
#210 = CARTESIAN_POINT('',(-117.6389103583,-6.018923906768,
    -91.08802061659));
#211 = VECTOR('',#212,1.);
#212 = DIRECTION('',(0.998345613611,-5.232107802492E-02,
    2.384408897231E-02));
#213 = PCURVE('',#170,#214);
#214 = DEFINITIONAL_REPRESENTATION('',(#215),#218);
#215 = B_SPLINE_CURVE_WITH_KNOTS('',1,(#216,#217),.UNSPECIFIED.,.F.,.F.,
  (2,2),(-0.361688013368,38.702939975486),.PIECEWISE_BEZIER_KNOTS.);
#216 = CARTESIAN_POINT('',(-6.682154829463E-15,4.996003610813E-16));
#217 = CARTESIAN_POINT('',(0.931460465437,-39.0535214969));
#218 = ( GEOMETRIC_REPRESENTATION_CONTEXT(2) 
PARAMETRIC_REPRESENTATION_CONTEXT() REPRESENTATION_CONTEXT('2D SPACE',''
  ) );
#219 = PCURVE('',#220,#225);
#220 = PLANE('',#221);
#221 = AXIS2_PLACEMENT_3D('',#222,#223,#224);
#222 = CARTESIAN_POINT('',(-118.,-28.8961910893,-111.));
#223 = DIRECTION('',(-5.233595769799E-02,-0.655159922876,0.753675276886)
  );
#224 = DIRECTION('',(0.,0.754709580193,0.656059029024));
#225 = DEFINITIONAL_REPRESENTATION('',(#226),#229);
#226 = B_SPLINE_CURVE_WITH_KNOTS('',1,(#227,#228),.UNSPECIFIED.,.F.,.F.,
  (2,2),(-0.361688013368,38.702939975486),.PIECEWISE_BEZIER_KNOTS.);
#227 = CARTESIAN_POINT('',(30.337750692705,4.996003610813E-16));
#228 = CARTESIAN_POINT('',(29.406290227269,-39.0535214969));
#229 = ( GEOMETRIC_REPRESENTATION_CONTEXT(2) 
PARAMETRIC_REPRESENTATION_CONTEXT() REPRESENTATION_CONTEXT('2D SPACE',''
  ) );
#230 = ORIENTED_EDGE('',*,*,#231,.T.);
#231 = EDGE_CURVE('',#206,#135,#232,.T.);
#232 = SURFACE_CURVE('',#233,(#237,#243),.PCURVE_S1.);
#233 = LINE('',#234,#235);
#234 = CARTESIAN_POINT('',(-79.,-8.043903449019,8.451677631119));
#235 = VECTOR('',#236,1.);
#236 = DIRECTION('',(0.,0.,1.));
#237 = PCURVE('',#170,#238);
#238 = DEFINITIONAL_REPRESENTATION('',(#239),#242);
#239 = B_SPLINE_CURVE_WITH_KNOTS('',1,(#240,#241),.UNSPECIFIED.,.F.,.F.,
  (2,2),(-98.61686190344,97.504418919862),.PIECEWISE_BEZIER_KNOTS.);
#240 = CARTESIAN_POINT('',(0.931460465437,-39.0535214969));
#241 = CARTESIAN_POINT('',(197.05274128874,-39.0535214969));
#242 = ( GEOMETRIC_REPRESENTATION_CONTEXT(2) 
PARAMETRIC_REPRESENTATION_CONTEXT() REPRESENTATION_CONTEXT('2D SPACE',''
  ) );
#243 = PCURVE('',#69,#244);
#244 = DEFINITIONAL_REPRESENTATION('',(#245),#248);
#245 = B_SPLINE_CURVE_WITH_KNOTS('',1,(#246,#247),.UNSPECIFIED.,.F.,.F.,
  (2,2),(-98.61686190344,97.504418919862),.PIECEWISE_BEZIER_KNOTS.);
#246 = CARTESIAN_POINT('',(129.04761992249,-150.6016481739));
#247 = CARTESIAN_POINT('',(-4.499095585968,-6.974242820148));
#248 = ( GEOMETRIC_REPRESENTATION_CONTEXT(2) 
PARAMETRIC_REPRESENTATION_CONTEXT() REPRESENTATION_CONTEXT('2D SPACE',''
  ) );
#249 = ORIENTED_EDGE('',*,*,#155,.F.);
#250 = ORIENTED_EDGE('',*,*,#251,.F.);
#251 = EDGE_CURVE('',#204,#156,#252,.T.);
#252 = SURFACE_CURVE('',#253,(#257,#263),.PCURVE_S1.);
#253 = LINE('',#254,#255);
#254 = CARTESIAN_POINT('',(-118.,-6.,8.451677631119));
#255 = VECTOR('',#256,1.);
#256 = DIRECTION('',(0.,0.,1.));
#257 = PCURVE('',#170,#258);
#258 = DEFINITIONAL_REPRESENTATION('',(#259),#262);
#259 = B_SPLINE_CURVE_WITH_KNOTS('',1,(#260,#261),.UNSPECIFIED.,.F.,.F.,
  (2,2),(-99.54832236888,99.548322368882),.PIECEWISE_BEZIER_KNOTS.);
#260 = CARTESIAN_POINT('',(0.,0.));
#261 = CARTESIAN_POINT('',(199.09664473776,0.));
#262 = ( GEOMETRIC_REPRESENTATION_CONTEXT(2) 
PARAMETRIC_REPRESENTATION_CONTEXT() REPRESENTATION_CONTEXT('2D SPACE',''
  ) );
#263 = PCURVE('',#119,#264);
#264 = DEFINITIONAL_REPRESENTATION('',(#265),#268);
#265 = B_SPLINE_CURVE_WITH_KNOTS('',1,(#266,#267),.UNSPECIFIED.,.F.,.F.,
  (2,2),(-99.54832236888,99.548322368882),.PIECEWISE_BEZIER_KNOTS.);
#266 = CARTESIAN_POINT('',(131.17871978686,-149.8920192035));
#267 = CARTESIAN_POINT('',(-4.394038364962,-4.085636651398));
#268 = ( GEOMETRIC_REPRESENTATION_CONTEXT(2) 
PARAMETRIC_REPRESENTATION_CONTEXT() REPRESENTATION_CONTEXT('2D SPACE',''
  ) );
#269 = ADVANCED_FACE('',(#270),#220,.F.);
#270 = FACE_BOUND('',#271,.F.);
#271 = EDGE_LOOP('',(#272,#300,#319,#320));
#272 = ORIENTED_EDGE('',*,*,#273,.T.);
#273 = EDGE_CURVE('',#274,#276,#278,.T.);
#274 = VERTEX_POINT('',#275);
#275 = CARTESIAN_POINT('',(-118.,-28.8961910893,-111.));
#276 = VERTEX_POINT('',#277);
#277 = CARTESIAN_POINT('',(-79.,-29.66037527529,-108.9560965509));
#278 = SURFACE_CURVE('',#279,(#283,#289),.PCURVE_S1.);
#279 = LINE('',#280,#281);
#280 = CARTESIAN_POINT('',(-116.2898209054,-28.92970113595,
    -110.9103733089));
#281 = VECTOR('',#282,1.);
#282 = DIRECTION('',(0.998438406198,-1.95638677102E-02,
    5.232594107848E-02));
#283 = PCURVE('',#220,#284);
#284 = DEFINITIONAL_REPRESENTATION('',(#285),#288);
#285 = B_SPLINE_CURVE_WITH_KNOTS('',1,(#286,#287),.UNSPECIFIED.,.F.,.F.,
  (2,2),(-1.712853876541,37.348143534931),.PIECEWISE_BEZIER_KNOTS.);
#286 = CARTESIAN_POINT('',(-2.768618667659E-15,-3.552713678801E-15));
#287 = CARTESIAN_POINT('',(0.764184185987,-39.0535214969));
#288 = ( GEOMETRIC_REPRESENTATION_CONTEXT(2) 
PARAMETRIC_REPRESENTATION_CONTEXT() REPRESENTATION_CONTEXT('2D SPACE',''
  ) );
#289 = PCURVE('',#290,#295);
#290 = PLANE('',#291);
#291 = AXIS2_PLACEMENT_3D('',#292,#293,#294);
#292 = CARTESIAN_POINT('',(-118.,-204.,-111.));
#293 = DIRECTION('',(-5.233595769799E-02,0.,0.998629534678));
#294 = DIRECTION('',(0.,1.,0.));
#295 = DEFINITIONAL_REPRESENTATION('',(#296),#299);
#296 = B_SPLINE_CURVE_WITH_KNOTS('',1,(#297,#298),.UNSPECIFIED.,.F.,.F.,
  (2,2),(-1.712853876541,37.348143534931),.PIECEWISE_BEZIER_KNOTS.);
#297 = CARTESIAN_POINT('',(175.10380891069,-3.552713678801E-15));
#298 = CARTESIAN_POINT('',(174.3396247247,-39.0535214969));
#299 = ( GEOMETRIC_REPRESENTATION_CONTEXT(2) 
PARAMETRIC_REPRESENTATION_CONTEXT() REPRESENTATION_CONTEXT('2D SPACE',''
  ) );
#300 = ORIENTED_EDGE('',*,*,#301,.T.);
#301 = EDGE_CURVE('',#276,#206,#302,.T.);
#302 = SURFACE_CURVE('',#303,(#307,#313),.PCURVE_S1.);
#303 = LINE('',#304,#305);
#304 = CARTESIAN_POINT('',(-79.,32.20950526444,-55.17342992265));
#305 = VECTOR('',#306,1.);
#306 = DIRECTION('',(0.,0.754709580193,0.656059029024));
#307 = PCURVE('',#220,#308);
#308 = DEFINITIONAL_REPRESENTATION('',(#309),#312);
#309 = B_SPLINE_CURVE_WITH_KNOTS('',1,(#310,#311),.UNSPECIFIED.,.F.,.F.,
  (2,2),(-81.97839561527,-53.33628957398),.PIECEWISE_BEZIER_KNOTS.);
#310 = CARTESIAN_POINT('',(0.764184185987,-39.0535214969));
#311 = CARTESIAN_POINT('',(29.406290227269,-39.0535214969));
#312 = ( GEOMETRIC_REPRESENTATION_CONTEXT(2) 
PARAMETRIC_REPRESENTATION_CONTEXT() REPRESENTATION_CONTEXT('2D SPACE',''
  ) );
#313 = PCURVE('',#69,#314);
#314 = DEFINITIONAL_REPRESENTATION('',(#315),#318);
#315 = B_SPLINE_CURVE_WITH_KNOTS('',1,(#316,#317),.UNSPECIFIED.,.F.,.F.,
  (2,2),(-81.97839561527,-53.33628957398),.PIECEWISE_BEZIER_KNOTS.);
#316 = CARTESIAN_POINT('',(126.01249215568,-179.0824880127));
#317 = CARTESIAN_POINT('',(129.04761992249,-150.6016481739));
#318 = ( GEOMETRIC_REPRESENTATION_CONTEXT(2) 
PARAMETRIC_REPRESENTATION_CONTEXT() REPRESENTATION_CONTEXT('2D SPACE',''
  ) );
#319 = ORIENTED_EDGE('',*,*,#203,.F.);
#320 = ORIENTED_EDGE('',*,*,#321,.F.);
#321 = EDGE_CURVE('',#274,#204,#322,.T.);
#322 = SURFACE_CURVE('',#323,(#327,#333),.PCURVE_S1.);
#323 = LINE('',#324,#325);
#324 = CARTESIAN_POINT('',(-118.,33.550426576623,-56.71598343662));
#325 = VECTOR('',#326,1.);
#326 = DIRECTION('',(0.,0.754709580193,0.656059029024));
#327 = PCURVE('',#220,#328);
#328 = DEFINITIONAL_REPRESENTATION('',(#329),#332);
#329 = B_SPLINE_CURVE_WITH_KNOTS('',1,(#330,#331),.UNSPECIFIED.,.F.,.F.,
  (2,2),(-82.74257980125,-52.40482910855),.PIECEWISE_BEZIER_KNOTS.);
#330 = CARTESIAN_POINT('',(0.,4.440892098501E-16));
#331 = CARTESIAN_POINT('',(30.337750692705,4.440892098501E-16));
#332 = ( GEOMETRIC_REPRESENTATION_CONTEXT(2) 
PARAMETRIC_REPRESENTATION_CONTEXT() REPRESENTATION_CONTEXT('2D SPACE',''
  ) );
#333 = PCURVE('',#119,#334);
#334 = DEFINITIONAL_REPRESENTATION('',(#335),#338);
#335 = B_SPLINE_CURVE_WITH_KNOTS('',1,(#336,#337),.UNSPECIFIED.,.F.,.F.,
  (2,2),(-82.74257980125,-52.40482910855),.PIECEWISE_BEZIER_KNOTS.);
#336 = CARTESIAN_POINT('',(127.96390906807,-180.0589565544));
#337 = CARTESIAN_POINT('',(131.17871978686,-149.8920192035));
#338 = ( GEOMETRIC_REPRESENTATION_CONTEXT(2) 
PARAMETRIC_REPRESENTATION_CONTEXT() REPRESENTATION_CONTEXT('2D SPACE',''
  ) );
#339 = ADVANCED_FACE('',(#340),#290,.F.);
#340 = FACE_BOUND('',#341,.F.);
#341 = EDGE_LOOP('',(#342,#370,#389,#390));
#342 = ORIENTED_EDGE('',*,*,#343,.T.);
#343 = EDGE_CURVE('',#344,#346,#348,.T.);
#344 = VERTEX_POINT('',#345);
#345 = CARTESIAN_POINT('',(-118.,-204.,-111.));
#346 = VERTEX_POINT('',#347);
#347 = CARTESIAN_POINT('',(-79.,-201.9560965509,-108.9560965509));
#348 = SURFACE_CURVE('',#349,(#353,#359),.PCURVE_S1.);
#349 = LINE('',#350,#351);
#350 = CARTESIAN_POINT('',(-118.,-204.,-111.));
#351 = VECTOR('',#352,1.);
#352 = DIRECTION('',(0.997264688482,5.226442913781E-02,
    5.226442913781E-02));
#353 = PCURVE('',#290,#354);
#354 = DEFINITIONAL_REPRESENTATION('',(#355),#358);
#355 = B_SPLINE_CURVE_WITH_KNOTS('',1,(#356,#357),.UNSPECIFIED.,.F.,.F.,
  (2,2),(0.,39.106969744763),.PIECEWISE_BEZIER_KNOTS.);
#356 = CARTESIAN_POINT('',(0.,0.));
#357 = CARTESIAN_POINT('',(2.043903449019,-39.0535214969));
#358 = ( GEOMETRIC_REPRESENTATION_CONTEXT(2) 
PARAMETRIC_REPRESENTATION_CONTEXT() REPRESENTATION_CONTEXT('2D SPACE',''
  ) );
#359 = PCURVE('',#360,#365);
#360 = PLANE('',#361);
#361 = AXIS2_PLACEMENT_3D('',#362,#363,#364);
#362 = CARTESIAN_POINT('',(-118.,-204.,-111.));
#363 = DIRECTION('',(5.233595769799E-02,-0.998629534678,0.));
#364 = DIRECTION('',(0.,0.,1.));
#365 = DEFINITIONAL_REPRESENTATION('',(#366),#369);
#366 = B_SPLINE_CURVE_WITH_KNOTS('',1,(#367,#368),.UNSPECIFIED.,.F.,.F.,
  (2,2),(0.,39.106969744763),.PIECEWISE_BEZIER_KNOTS.);
#367 = CARTESIAN_POINT('',(0.,0.));
#368 = CARTESIAN_POINT('',(2.043903449019,-39.0535214969));
#369 = ( GEOMETRIC_REPRESENTATION_CONTEXT(2) 
PARAMETRIC_REPRESENTATION_CONTEXT() REPRESENTATION_CONTEXT('2D SPACE',''
  ) );
#370 = ORIENTED_EDGE('',*,*,#371,.T.);
#371 = EDGE_CURVE('',#346,#276,#372,.T.);
#372 = SURFACE_CURVE('',#373,(#377,#383),.PCURVE_S1.);
#373 = LINE('',#374,#375);
#374 = CARTESIAN_POINT('',(-79.,-102.,-108.9560965509));
#375 = VECTOR('',#376,1.);
#376 = DIRECTION('',(0.,1.,0.));
#377 = PCURVE('',#290,#378);
#378 = DEFINITIONAL_REPRESENTATION('',(#379),#382);
#379 = B_SPLINE_CURVE_WITH_KNOTS('',1,(#380,#381),.UNSPECIFIED.,.F.,.F.,
  (2,2),(-99.95609655098,72.339624724709),.PIECEWISE_BEZIER_KNOTS.);
#380 = CARTESIAN_POINT('',(2.043903449019,-39.0535214969));
#381 = CARTESIAN_POINT('',(174.3396247247,-39.0535214969));
#382 = ( GEOMETRIC_REPRESENTATION_CONTEXT(2) 
PARAMETRIC_REPRESENTATION_CONTEXT() REPRESENTATION_CONTEXT('2D SPACE',''
  ) );
#383 = PCURVE('',#69,#384);
#384 = DEFINITIONAL_REPRESENTATION('',(#385),#388);
#385 = B_SPLINE_CURVE_WITH_KNOTS('',1,(#386,#387),.UNSPECIFIED.,.F.,.F.,
  (2,2),(-99.95609655098,72.339624724709),.PIECEWISE_BEZIER_KNOTS.);
#386 = CARTESIAN_POINT('',(-0.166509411669,-296.4054402998));
#387 = CARTESIAN_POINT('',(126.01249215568,-179.0824880127));
#388 = ( GEOMETRIC_REPRESENTATION_CONTEXT(2) 
PARAMETRIC_REPRESENTATION_CONTEXT() REPRESENTATION_CONTEXT('2D SPACE',''
  ) );
#389 = ORIENTED_EDGE('',*,*,#273,.F.);
#390 = ORIENTED_EDGE('',*,*,#391,.F.);
#391 = EDGE_CURVE('',#344,#274,#392,.T.);
#392 = SURFACE_CURVE('',#393,(#397,#403),.PCURVE_S1.);
#393 = LINE('',#394,#395);
#394 = CARTESIAN_POINT('',(-118.,-102.,-111.));
#395 = VECTOR('',#396,1.);
#396 = DIRECTION('',(0.,1.,0.));
#397 = PCURVE('',#290,#398);
#398 = DEFINITIONAL_REPRESENTATION('',(#399),#402);
#399 = B_SPLINE_CURVE_WITH_KNOTS('',1,(#400,#401),.UNSPECIFIED.,.F.,.F.,
  (2,2),(-102.,73.103808910696),.PIECEWISE_BEZIER_KNOTS.);
#400 = CARTESIAN_POINT('',(0.,-7.437386912271E-16));
#401 = CARTESIAN_POINT('',(175.10380891069,-7.437386912271E-16));
#402 = ( GEOMETRIC_REPRESENTATION_CONTEXT(2) 
PARAMETRIC_REPRESENTATION_CONTEXT() REPRESENTATION_CONTEXT('2D SPACE',''
  ) );
#403 = PCURVE('',#119,#404);
#404 = DEFINITIONAL_REPRESENTATION('',(#405),#408);
#405 = B_SPLINE_CURVE_WITH_KNOTS('',1,(#406,#407),.UNSPECIFIED.,.F.,.F.,
  (2,2),(-102.,73.103808910696),.PIECEWISE_BEZIER_KNOTS.);
#406 = CARTESIAN_POINT('',(-0.271566632675,-299.2940464686));
#407 = CARTESIAN_POINT('',(127.96390906807,-180.0589565544));
#408 = ( GEOMETRIC_REPRESENTATION_CONTEXT(2) 
PARAMETRIC_REPRESENTATION_CONTEXT() REPRESENTATION_CONTEXT('2D SPACE',''
  ) );
#409 = ADVANCED_FACE('',(#410),#360,.T.);
#410 = FACE_BOUND('',#411,.T.);
#411 = EDGE_LOOP('',(#412,#413,#434,#460));
#412 = ORIENTED_EDGE('',*,*,#343,.T.);
#413 = ORIENTED_EDGE('',*,*,#414,.T.);
#414 = EDGE_CURVE('',#346,#415,#417,.T.);
#415 = VERTEX_POINT('',#416);
#416 = CARTESIAN_POINT('',(-79.,-201.9560965509,59.580838999309));
#417 = SURFACE_CURVE('',#418,(#422,#428),.PCURVE_S1.);
#418 = LINE('',#419,#420);
#419 = CARTESIAN_POINT('',(-79.,-201.9560965509,-1.5));
#420 = VECTOR('',#421,1.);
#421 = DIRECTION('',(0.,0.,1.));
#422 = PCURVE('',#360,#423);
#423 = DEFINITIONAL_REPRESENTATION('',(#424),#427);
#424 = B_SPLINE_CURVE_WITH_KNOTS('',1,(#425,#426),.UNSPECIFIED.,.F.,.F.,
  (2,2),(-107.4560965509,61.080838999309),.PIECEWISE_BEZIER_KNOTS.);
#425 = CARTESIAN_POINT('',(2.043903449019,-39.0535214969));
#426 = CARTESIAN_POINT('',(170.5808389993,-39.0535214969));
#427 = ( GEOMETRIC_REPRESENTATION_CONTEXT(2) 
PARAMETRIC_REPRESENTATION_CONTEXT() REPRESENTATION_CONTEXT('2D SPACE',''
  ) );
#428 = PCURVE('',#69,#429);
#429 = DEFINITIONAL_REPRESENTATION('',(#430),#433);
#430 = B_SPLINE_CURVE_WITH_KNOTS('',1,(#431,#432),.UNSPECIFIED.,.F.,.F.,
  (2,2),(-107.4560965509,61.080838999309),.PIECEWISE_BEZIER_KNOTS.);
#431 = CARTESIAN_POINT('',(-0.166509411668,-296.4054402998));
#432 = CARTESIAN_POINT('',(-114.9299562447,-172.9791468463));
#433 = ( GEOMETRIC_REPRESENTATION_CONTEXT(2) 
PARAMETRIC_REPRESENTATION_CONTEXT() REPRESENTATION_CONTEXT('2D SPACE',''
  ) );
#434 = ORIENTED_EDGE('',*,*,#435,.F.);
#435 = EDGE_CURVE('',#436,#415,#438,.T.);
#436 = VERTEX_POINT('',#437);
#437 = CARTESIAN_POINT('',(-118.,-204.,60.071537173679));
#438 = SURFACE_CURVE('',#439,(#443,#449),.PCURVE_S1.);
#439 = LINE('',#440,#441);
#440 = CARTESIAN_POINT('',(-116.6147656681,-203.9274029428,
    60.054108149123));
#441 = VECTOR('',#442,1.);
#442 = DIRECTION('',(0.998550715578,5.233182696385E-02,
    -1.256376956795E-02));
#443 = PCURVE('',#360,#444);
#444 = DEFINITIONAL_REPRESENTATION('',(#445),#448);
#445 = B_SPLINE_CURVE_WITH_KNOTS('',1,(#446,#447),.UNSPECIFIED.,.F.,.F.,
  (2,2),(-1.387244844159,37.669359283789),.PIECEWISE_BEZIER_KNOTS.);
#446 = CARTESIAN_POINT('',(171.07153717367,-4.440892098501E-16));
#447 = CARTESIAN_POINT('',(170.5808389993,-39.0535214969));
#448 = ( GEOMETRIC_REPRESENTATION_CONTEXT(2) 
PARAMETRIC_REPRESENTATION_CONTEXT() REPRESENTATION_CONTEXT('2D SPACE',''
  ) );
#449 = PCURVE('',#450,#455);
#450 = PLANE('',#451);
#451 = AXIS2_PLACEMENT_3D('',#452,#453,#454);
#452 = CARTESIAN_POINT('',(-118.,-181.4089426463,104.4089460793));
#453 = DIRECTION('',(-5.233595769799E-02,0.889785275175,-0.453368626631)
  );
#454 = DIRECTION('',(1.387778780781E-17,-0.453990805286,-0.891006368504)
  );
#455 = DEFINITIONAL_REPRESENTATION('',(#456),#459);
#456 = B_SPLINE_CURVE_WITH_KNOTS('',1,(#457,#458),.UNSPECIFIED.,.F.,.F.,
  (2,2),(-1.387244844159,37.669359283789),.PIECEWISE_BEZIER_KNOTS.);
#457 = CARTESIAN_POINT('',(49.761046018157,-4.440892098501E-16));
#458 = CARTESIAN_POINT('',(49.270347843786,-39.0535214969));
#459 = ( GEOMETRIC_REPRESENTATION_CONTEXT(2) 
PARAMETRIC_REPRESENTATION_CONTEXT() REPRESENTATION_CONTEXT('2D SPACE',''
  ) );
#460 = ORIENTED_EDGE('',*,*,#461,.F.);
#461 = EDGE_CURVE('',#344,#436,#462,.T.);
#462 = SURFACE_CURVE('',#463,(#467,#473),.PCURVE_S1.);
#463 = LINE('',#464,#465);
#464 = CARTESIAN_POINT('',(-118.,-204.,-1.5));
#465 = VECTOR('',#466,1.);
#466 = DIRECTION('',(0.,0.,1.));
#467 = PCURVE('',#360,#468);
#468 = DEFINITIONAL_REPRESENTATION('',(#469),#472);
#469 = B_SPLINE_CURVE_WITH_KNOTS('',1,(#470,#471),.UNSPECIFIED.,.F.,.F.,
  (2,2),(-109.5,61.571537173679),.PIECEWISE_BEZIER_KNOTS.);
#470 = CARTESIAN_POINT('',(0.,0.));
#471 = CARTESIAN_POINT('',(171.07153717367,0.));
#472 = ( GEOMETRIC_REPRESENTATION_CONTEXT(2) 
PARAMETRIC_REPRESENTATION_CONTEXT() REPRESENTATION_CONTEXT('2D SPACE',''
  ) );
#473 = PCURVE('',#119,#474);
#474 = DEFINITIONAL_REPRESENTATION('',(#475),#478);
#475 = B_SPLINE_CURVE_WITH_KNOTS('',1,(#476,#477),.UNSPECIFIED.,.F.,.F.,
  (2,2),(-109.5,61.571537173679),.PIECEWISE_BEZIER_KNOTS.);
#476 = CARTESIAN_POINT('',(-0.271566632675,-299.2940464686));
#477 = CARTESIAN_POINT('',(-116.7609236806,-174.0115635529));
#478 = ( GEOMETRIC_REPRESENTATION_CONTEXT(2) 
PARAMETRIC_REPRESENTATION_CONTEXT() REPRESENTATION_CONTEXT('2D SPACE',''
  ) );
#479 = ADVANCED_FACE('',(#480),#450,.F.);
#480 = FACE_BOUND('',#481,.F.);
#481 = EDGE_LOOP('',(#482,#510,#529,#530));
#482 = ORIENTED_EDGE('',*,*,#483,.T.);
#483 = EDGE_CURVE('',#484,#486,#488,.T.);
#484 = VERTEX_POINT('',#485);
#485 = CARTESIAN_POINT('',(-118.,-181.4089426463,104.4089460793));
#486 = VERTEX_POINT('',#487);
#487 = CARTESIAN_POINT('',(-79.,-179.8893088052,102.889311737));
#488 = SURFACE_CURVE('',#489,(#493,#499),.PCURVE_S1.);
#489 = LINE('',#490,#491);
#490 = CARTESIAN_POINT('',(-118.,-181.4089426463,104.4089460793));
#491 = VECTOR('',#492,1.);
#492 = DIRECTION('',(0.998485179577,3.890594535197E-02,
    -3.890595818354E-02));
#493 = PCURVE('',#450,#494);
#494 = DEFINITIONAL_REPRESENTATION('',(#495),#498);
#495 = B_SPLINE_CURVE_WITH_KNOTS('',1,(#496,#497),.UNSPECIFIED.,.F.,.F.,
  (2,2),(0.,39.05916762484),.PIECEWISE_BEZIER_KNOTS.);
#496 = CARTESIAN_POINT('',(0.,0.));
#497 = CARTESIAN_POINT('',(0.66410408552,-39.0535214969));
#498 = ( GEOMETRIC_REPRESENTATION_CONTEXT(2) 
PARAMETRIC_REPRESENTATION_CONTEXT() REPRESENTATION_CONTEXT('2D SPACE',''
  ) );
#499 = PCURVE('',#500,#505);
#500 = PLANE('',#501);
#501 = AXIS2_PLACEMENT_3D('',#502,#503,#504);
#502 = CARTESIAN_POINT('',(-118.,-181.4089426463,104.4089460793));
#503 = DIRECTION('',(5.233595769799E-02,-0.453368333171,0.8897854247));
#504 = DIRECTION('',(-3.469446951954E-18,0.891006518235,0.453990511424)
  );
#505 = DEFINITIONAL_REPRESENTATION('',(#506),#509);
#506 = B_SPLINE_CURVE_WITH_KNOTS('',1,(#507,#508),.UNSPECIFIED.,.F.,.F.,
  (2,2),(0.,39.05916762484),.PIECEWISE_BEZIER_KNOTS.);
#507 = CARTESIAN_POINT('',(0.,0.));
#508 = CARTESIAN_POINT('',(0.66410408552,-39.0535214969));
#509 = ( GEOMETRIC_REPRESENTATION_CONTEXT(2) 
PARAMETRIC_REPRESENTATION_CONTEXT() REPRESENTATION_CONTEXT('2D SPACE',''
  ) );
#510 = ORIENTED_EDGE('',*,*,#511,.T.);
#511 = EDGE_CURVE('',#486,#415,#512,.T.);
#512 = SURFACE_CURVE('',#513,(#517,#523),.PCURVE_S1.);
#513 = LINE('',#514,#515);
#514 = CARTESIAN_POINT('',(-79.,-160.1666198369,141.59723548825));
#515 = VECTOR('',#516,1.);
#516 = DIRECTION('',(0.,-0.453990805286,-0.891006368504));
#517 = PCURVE('',#450,#518);
#518 = DEFINITIONAL_REPRESENTATION('',(#519),#522);
#519 = B_SPLINE_CURVE_WITH_KNOTS('',1,(#520,#521),.UNSPECIFIED.,.F.,.F.,
  (2,2),(43.442926021083,92.04916977935),.PIECEWISE_BEZIER_KNOTS.);
#520 = CARTESIAN_POINT('',(0.66410408552,-39.0535214969));
#521 = CARTESIAN_POINT('',(49.270347843786,-39.0535214969));
#522 = ( GEOMETRIC_REPRESENTATION_CONTEXT(2) 
PARAMETRIC_REPRESENTATION_CONTEXT() REPRESENTATION_CONTEXT('2D SPACE',''
  ) );
#523 = PCURVE('',#69,#524);
#524 = DEFINITIONAL_REPRESENTATION('',(#525),#528);
#525 = B_SPLINE_CURVE_WITH_KNOTS('',1,(#526,#527),.UNSPECIFIED.,.F.,.F.,
  (2,2),(43.442926021083,92.04916977935),.PIECEWISE_BEZIER_KNOTS.);
#526 = CARTESIAN_POINT('',(-128.2600181759,-126.2364855913));
#527 = CARTESIAN_POINT('',(-114.9299562447,-172.9791468463));
#528 = ( GEOMETRIC_REPRESENTATION_CONTEXT(2) 
PARAMETRIC_REPRESENTATION_CONTEXT() REPRESENTATION_CONTEXT('2D SPACE',''
  ) );
#529 = ORIENTED_EDGE('',*,*,#435,.F.);
#530 = ORIENTED_EDGE('',*,*,#531,.F.);
#531 = EDGE_CURVE('',#484,#436,#532,.T.);
#532 = SURFACE_CURVE('',#533,(#537,#543),.PCURVE_S1.);
#533 = LINE('',#534,#535);
#534 = CARTESIAN_POINT('',(-118.,-161.9877508266,142.525148861));
#535 = VECTOR('',#536,1.);
#536 = DIRECTION('',(0.,-0.453990805286,-0.891006368504));
#537 = PCURVE('',#450,#538);
#538 = DEFINITIONAL_REPRESENTATION('',(#539),#542);
#539 = B_SPLINE_CURVE_WITH_KNOTS('',1,(#540,#541),.UNSPECIFIED.,.F.,.F.,
  (2,2),(42.778821935563,92.53986795372),.PIECEWISE_BEZIER_KNOTS.);
#540 = CARTESIAN_POINT('',(0.,9.992007221626E-16));
#541 = CARTESIAN_POINT('',(49.761046018157,9.992007221626E-16));
#542 = ( GEOMETRIC_REPRESENTATION_CONTEXT(2) 
PARAMETRIC_REPRESENTATION_CONTEXT() REPRESENTATION_CONTEXT('2D SPACE',''
  ) );
#543 = PCURVE('',#119,#544);
#544 = DEFINITIONAL_REPRESENTATION('',(#545),#548);
#545 = B_SPLINE_CURVE_WITH_KNOTS('',1,(#546,#547),.UNSPECIFIED.,.F.,.F.,
  (2,2),(42.778821935563,92.53986795372),.PIECEWISE_BEZIER_KNOTS.);
#546 = CARTESIAN_POINT('',(-130.4076853699,-126.1583756108));
#547 = CARTESIAN_POINT('',(-116.7609236806,-174.0115635529));
#548 = ( GEOMETRIC_REPRESENTATION_CONTEXT(2) 
PARAMETRIC_REPRESENTATION_CONTEXT() REPRESENTATION_CONTEXT('2D SPACE',''
  ) );
#549 = ADVANCED_FACE('',(#550),#500,.T.);
#550 = FACE_BOUND('',#551,.T.);
#551 = EDGE_LOOP('',(#552,#553,#574,#595));
#552 = ORIENTED_EDGE('',*,*,#483,.T.);
#553 = ORIENTED_EDGE('',*,*,#554,.T.);
#554 = EDGE_CURVE('',#486,#555,#557,.T.);
#555 = VERTEX_POINT('',#556);
#556 = CARTESIAN_POINT('',(-79.,-142.4686378362,121.95609655098));
#557 = SURFACE_CURVE('',#558,(#562,#568),.PCURVE_S1.);
#558 = LINE('',#559,#560);
#559 = CARTESIAN_POINT('',(-79.,-107.7451139683,139.64861623136));
#560 = VECTOR('',#561,1.);
#561 = DIRECTION('',(0.,0.891006518235,0.453990511424));
#562 = PCURVE('',#500,#563);
#563 = DEFINITIONAL_REPRESENTATION('',(#564),#567);
#564 = B_SPLINE_CURVE_WITH_KNOTS('',1,(#565,#566),.UNSPECIFIED.,.F.,.F.,
  (2,2),(-80.96932329948,-38.97112216047),.PIECEWISE_BEZIER_KNOTS.);
#565 = CARTESIAN_POINT('',(0.66410408552,-39.0535214969));
#566 = CARTESIAN_POINT('',(42.662305224534,-39.0535214969));
#567 = ( GEOMETRIC_REPRESENTATION_CONTEXT(2) 
PARAMETRIC_REPRESENTATION_CONTEXT() REPRESENTATION_CONTEXT('2D SPACE',''
  ) );
#568 = PCURVE('',#69,#569);
#569 = DEFINITIONAL_REPRESENTATION('',(#570),#573);
#570 = B_SPLINE_CURVE_WITH_KNOTS('',1,(#571,#572),.UNSPECIFIED.,.F.,.F.,
  (2,2),(-80.96932329948,-38.97112216047),.PIECEWISE_BEZIER_KNOTS.);
#571 = CARTESIAN_POINT('',(-128.2600181759,-126.2364855913));
#572 = CARTESIAN_POINT('',(-113.8387000058,-86.79191079137));
#573 = ( GEOMETRIC_REPRESENTATION_CONTEXT(2) 
PARAMETRIC_REPRESENTATION_CONTEXT() REPRESENTATION_CONTEXT('2D SPACE',''
  ) );
#574 = ORIENTED_EDGE('',*,*,#575,.F.);
#575 = EDGE_CURVE('',#576,#555,#578,.T.);
#576 = VERTEX_POINT('',#577);
#577 = CARTESIAN_POINT('',(-118.,-142.9593356541,124.));
#578 = SURFACE_CURVE('',#579,(#583,#589),.PCURVE_S1.);
#579 = LINE('',#580,#581);
#580 = CARTESIAN_POINT('',(-117.7293108785,-142.9559298448,
    123.98581378387));
#581 = VECTOR('',#582,1.);
#582 = DIRECTION('',(0.998550715692,1.256376044222E-02,
    -5.233182696985E-02));
#583 = PCURVE('',#500,#584);
#584 = DEFINITIONAL_REPRESENTATION('',(#585),#588);
#585 = B_SPLINE_CURVE_WITH_KNOTS('',1,(#586,#587),.UNSPECIFIED.,.F.,.F.,
  (2,2),(-0.271081996294,38.785522127176),.PIECEWISE_BEZIER_KNOTS.);
#586 = CARTESIAN_POINT('',(43.153003042428,4.440892098501E-16));
#587 = CARTESIAN_POINT('',(42.662305224534,-39.0535214969));
#588 = ( GEOMETRIC_REPRESENTATION_CONTEXT(2) 
PARAMETRIC_REPRESENTATION_CONTEXT() REPRESENTATION_CONTEXT('2D SPACE',''
  ) );
#589 = PCURVE('',#43,#590);
#590 = DEFINITIONAL_REPRESENTATION('',(#591),#594);
#591 = B_SPLINE_CURVE_WITH_KNOTS('',1,(#592,#593),.UNSPECIFIED.,.F.,.F.,
  (2,2),(-0.271081996294,38.785522127176),.PIECEWISE_BEZIER_KNOTS.);
#592 = CARTESIAN_POINT('',(-5.35062445739E-14,4.440892098501E-16));
#593 = CARTESIAN_POINT('',(0.490697817894,-39.0535214969));
#594 = ( GEOMETRIC_REPRESENTATION_CONTEXT(2) 
PARAMETRIC_REPRESENTATION_CONTEXT() REPRESENTATION_CONTEXT('2D SPACE',''
  ) );
#595 = ORIENTED_EDGE('',*,*,#596,.F.);
#596 = EDGE_CURVE('',#484,#576,#597,.T.);
#597 = SURFACE_CURVE('',#598,(#602,#608),.PCURVE_S1.);
#598 = LINE('',#599,#600);
#599 = CARTESIAN_POINT('',(-118.,-108.6730267404,141.46974752708));
#600 = VECTOR('',#601,1.);
#601 = DIRECTION('',(0.,0.891006518235,0.453990511424));
#602 = PCURVE('',#500,#603);
#603 = DEFINITIONAL_REPRESENTATION('',(#604),#607);
#604 = B_SPLINE_CURVE_WITH_KNOTS('',1,(#605,#606),.UNSPECIFIED.,.F.,.F.,
  (2,2),(-81.633427385,-38.48042434257),.PIECEWISE_BEZIER_KNOTS.);
#605 = CARTESIAN_POINT('',(0.,0.));
#606 = CARTESIAN_POINT('',(43.153003042428,0.));
#607 = ( GEOMETRIC_REPRESENTATION_CONTEXT(2) 
PARAMETRIC_REPRESENTATION_CONTEXT() REPRESENTATION_CONTEXT('2D SPACE',''
  ) );
#608 = PCURVE('',#119,#609);
#609 = DEFINITIONAL_REPRESENTATION('',(#610),#613);
#610 = B_SPLINE_CURVE_WITH_KNOTS('',1,(#611,#612),.UNSPECIFIED.,.F.,.F.,
  (2,2),(-81.633427385,-38.48042434257),.PIECEWISE_BEZIER_KNOTS.);
#611 = CARTESIAN_POINT('',(-130.4076853699,-126.1583756108));
#612 = CARTESIAN_POINT('',(-115.5898319859,-85.62921459475));
#613 = ( GEOMETRIC_REPRESENTATION_CONTEXT(2) 
PARAMETRIC_REPRESENTATION_CONTEXT() REPRESENTATION_CONTEXT('2D SPACE',''
  ) );
#614 = ADVANCED_FACE('',(#615),#43,.T.);
#615 = FACE_BOUND('',#616,.T.);
#616 = EDGE_LOOP('',(#617,#618,#637,#638));
#617 = ORIENTED_EDGE('',*,*,#575,.T.);
#618 = ORIENTED_EDGE('',*,*,#619,.T.);
#619 = EDGE_CURVE('',#555,#24,#620,.T.);
#620 = SURFACE_CURVE('',#621,(#625,#631),.PCURVE_S1.);
#621 = LINE('',#622,#623);
#622 = CARTESIAN_POINT('',(-79.,-71.47966782705,121.95609655098));
#623 = VECTOR('',#624,1.);
#624 = DIRECTION('',(0.,1.,-0.));
#625 = PCURVE('',#43,#626);
#626 = DEFINITIONAL_REPRESENTATION('',(#627),#630);
#627 = B_SPLINE_CURVE_WITH_KNOTS('',1,(#628,#629),.UNSPECIFIED.,.F.,.F.,
  (2,2),(-70.98897000916,-19.8206894969),.PIECEWISE_BEZIER_KNOTS.);
#628 = CARTESIAN_POINT('',(0.490697817894,-39.0535214969));
#629 = CARTESIAN_POINT('',(51.658978330148,-39.0535214969));
#630 = ( GEOMETRIC_REPRESENTATION_CONTEXT(2) 
PARAMETRIC_REPRESENTATION_CONTEXT() REPRESENTATION_CONTEXT('2D SPACE',''
  ) );
#631 = PCURVE('',#69,#632);
#632 = DEFINITIONAL_REPRESENTATION('',(#633),#636);
#633 = B_SPLINE_CURVE_WITH_KNOTS('',1,(#634,#635),.UNSPECIFIED.,.F.,.F.,
  (2,2),(-70.98897000916,-19.8206894969),.PIECEWISE_BEZIER_KNOTS.);
#634 = CARTESIAN_POINT('',(-113.8387000058,-86.79191079137));
#635 = CARTESIAN_POINT('',(-76.36613539922,-51.94941041639));
#636 = ( GEOMETRIC_REPRESENTATION_CONTEXT(2) 
PARAMETRIC_REPRESENTATION_CONTEXT() REPRESENTATION_CONTEXT('2D SPACE',''
  ) );
#637 = ORIENTED_EDGE('',*,*,#21,.F.);
#638 = ORIENTED_EDGE('',*,*,#639,.F.);
#639 = EDGE_CURVE('',#576,#22,#640,.T.);
#640 = SURFACE_CURVE('',#641,(#645,#651),.PCURVE_S1.);
#641 = LINE('',#642,#643);
#642 = CARTESIAN_POINT('',(-118.,-71.47966782705,124.));
#643 = VECTOR('',#644,1.);
#644 = DIRECTION('',(0.,1.,-0.));
#645 = PCURVE('',#43,#646);
#646 = DEFINITIONAL_REPRESENTATION('',(#647),#650);
#647 = B_SPLINE_CURVE_WITH_KNOTS('',1,(#648,#649),.UNSPECIFIED.,.F.,.F.,
  (2,2),(-71.47966782705,-19.01728214453),.PIECEWISE_BEZIER_KNOTS.);
#648 = CARTESIAN_POINT('',(0.,0.));
#649 = CARTESIAN_POINT('',(52.462385682518,0.));
#650 = ( GEOMETRIC_REPRESENTATION_CONTEXT(2) 
PARAMETRIC_REPRESENTATION_CONTEXT() REPRESENTATION_CONTEXT('2D SPACE',''
  ) );
#651 = PCURVE('',#119,#652);
#652 = DEFINITIONAL_REPRESENTATION('',(#653),#656);
#653 = B_SPLINE_CURVE_WITH_KNOTS('',1,(#654,#655),.UNSPECIFIED.,.F.,.F.,
  (2,2),(-71.47966782705,-19.01728214453),.PIECEWISE_BEZIER_KNOTS.);
#654 = CARTESIAN_POINT('',(-115.5898319859,-85.62921459475));
#655 = CARTESIAN_POINT('',(-77.16954275159,-49.90550696737));
#656 = ( GEOMETRIC_REPRESENTATION_CONTEXT(2) 
PARAMETRIC_REPRESENTATION_CONTEXT() REPRESENTATION_CONTEXT('2D SPACE',''
  ) );
#657 = ADVANCED_FACE('',(#658),#119,.F.);
#658 = FACE_BOUND('',#659,.T.);
#659 = EDGE_LOOP('',(#660,#661,#662,#663,#664,#665,#666,#667,#668));
#660 = ORIENTED_EDGE('',*,*,#106,.T.);
#661 = ORIENTED_EDGE('',*,*,#181,.T.);
#662 = ORIENTED_EDGE('',*,*,#251,.F.);
#663 = ORIENTED_EDGE('',*,*,#321,.F.);
#664 = ORIENTED_EDGE('',*,*,#391,.F.);
#665 = ORIENTED_EDGE('',*,*,#461,.T.);
#666 = ORIENTED_EDGE('',*,*,#531,.F.);
#667 = ORIENTED_EDGE('',*,*,#596,.T.);
#668 = ORIENTED_EDGE('',*,*,#639,.T.);
#669 = ADVANCED_FACE('',(#670),#69,.T.);
#670 = FACE_BOUND('',#671,.F.);
#671 = EDGE_LOOP('',(#672,#673,#674,#675,#676,#677,#678,#679,#680));
#672 = ORIENTED_EDGE('',*,*,#54,.T.);
#673 = ORIENTED_EDGE('',*,*,#134,.T.);
#674 = ORIENTED_EDGE('',*,*,#231,.F.);
#675 = ORIENTED_EDGE('',*,*,#301,.F.);
#676 = ORIENTED_EDGE('',*,*,#371,.F.);
#677 = ORIENTED_EDGE('',*,*,#414,.T.);
#678 = ORIENTED_EDGE('',*,*,#511,.F.);
#679 = ORIENTED_EDGE('',*,*,#554,.T.);
#680 = ORIENTED_EDGE('',*,*,#619,.T.);
#681 = ( GEOMETRIC_REPRESENTATION_CONTEXT(3) 
GLOBAL_UNCERTAINTY_ASSIGNED_CONTEXT((#685)) GLOBAL_UNIT_ASSIGNED_CONTEXT
((#682,#683,#684)) REPRESENTATION_CONTEXT('Context #1',
  '3D Context with UNIT and UNCERTAINTY') );
#682 = ( LENGTH_UNIT() NAMED_UNIT(*) SI_UNIT(.MILLI.,.METRE.) );
#683 = ( NAMED_UNIT(*) PLANE_ANGLE_UNIT() SI_UNIT($,.RADIAN.) );
#684 = ( NAMED_UNIT(*) SI_UNIT($,.STERADIAN.) SOLID_ANGLE_UNIT() );
#685 = UNCERTAINTY_MEASURE_WITH_UNIT(LENGTH_MEASURE(1.E-07),#682,
  'distance_accuracy_value','confusion accuracy');
#686 = PRODUCT_RELATED_PRODUCT_CATEGORY('part',$,(#7));
ENDSEC;
END-ISO-10303-21;
