ISO-10303-21;
HEADER;
FILE_DESCRIPTION(('Open CASCADE Model'),'2;1');
FILE_NAME('Open CASCADE Shape Model','2026-07-11T20:15:55',('Author'),(
    'Open CASCADE'),'Open CASCADE STEP processor 8.0','Open CASCADE 8.0'
  ,'Unknown');
FILE_SCHEMA(('AUTOMOTIVE_DESIGN { 1 0 10303 214 1 1 1 1 }'));
ENDSEC;
DATA;
#1 = APPLICATION_PROTOCOL_DEFINITION('international standard',
  'automotive_design',2000,#2);
#2 = APPLICATION_CONTEXT(
  'core data for automotive mechanical design processes');
#3 = SHAPE_DEFINITION_REPRESENTATION(#4,#10);
#4 = PRODUCT_DEFINITION_SHAPE('','',#5);
#5 = PRODUCT_DEFINITION('design','',#6,#9);
#6 = PRODUCT_DEFINITION_FORMATION('','',#7);
#7 = PRODUCT('Open CASCADE STEP translator 8.0 1',
  'Open CASCADE STEP translator 8.0 1','',(#8));
#8 = PRODUCT_CONTEXT('',#2,'mechanical');
#9 = PRODUCT_DEFINITION_CONTEXT('part definition',#2,'design');
#10 = ADVANCED_BREP_SHAPE_REPRESENTATION('',(#11,#15),#1023);
#11 = AXIS2_PLACEMENT_3D('',#12,#13,#14);
#12 = CARTESIAN_POINT('',(0.,0.,0.));
#13 = DIRECTION('',(0.,0.,1.));
#14 = DIRECTION('',(1.,0.,-0.));
#15 = MANIFOLD_SOLID_BREP('',#16);
#16 = CLOSED_SHELL('',(#17,#137,#659,#719,#775,#908,#955,#982,#1009,
    #1016));
#17 = ADVANCED_FACE('',(#18),#32,.F.);
#18 = FACE_BOUND('',#19,.F.);
#19 = EDGE_LOOP('',(#20,#55,#83,#111));
#20 = ORIENTED_EDGE('',*,*,#21,.T.);
#21 = EDGE_CURVE('',#22,#24,#26,.T.);
#22 = VERTEX_POINT('',#23);
#23 = CARTESIAN_POINT('',(-52.02771860866,61.77105295839,-39.63378635978
    ));
#24 = VERTEX_POINT('',#25);
#25 = CARTESIAN_POINT('',(-52.02771860866,61.77105295839,39.63378635978)
  );
#26 = SURFACE_CURVE('',#27,(#31,#43),.PCURVE_S1.);
#27 = LINE('',#28,#29);
#28 = CARTESIAN_POINT('',(-52.02771860866,61.77105295839,-55.));
#29 = VECTOR('',#30,1.);
#30 = DIRECTION('',(0.,0.,1.));
#31 = PCURVE('',#32,#37);
#32 = PLANE('',#33);
#33 = AXIS2_PLACEMENT_3D('',#34,#35,#36);
#34 = CARTESIAN_POINT('',(-52.02771860866,61.77105295839,-55.));
#35 = DIRECTION('',(0.996194693032,-8.715580058482E-02,0.));
#36 = DIRECTION('',(-8.715580058482E-02,-0.996194693032,0.));
#37 = DEFINITIONAL_REPRESENTATION('',(#38),#42);
#38 = LINE('',#39,#40);
#39 = CARTESIAN_POINT('',(0.,0.));
#40 = VECTOR('',#41,1.);
#41 = DIRECTION('',(0.,-1.));
#42 = ( GEOMETRIC_REPRESENTATION_CONTEXT(2) 
PARAMETRIC_REPRESENTATION_CONTEXT() REPRESENTATION_CONTEXT('2D SPACE',''
  ) );
#43 = PCURVE('',#44,#49);
#44 = CYLINDRICAL_SURFACE('',#45,455.27572670088);
#45 = AXIS2_PLACEMENT_3D('',#46,#47,#48);
#46 = CARTESIAN_POINT('',(49.062650275116,-382.1396640128,-55.));
#47 = DIRECTION('',(0.,0.,-1.));
#48 = DIRECTION('',(1.,0.,0.));
#49 = DEFINITIONAL_REPRESENTATION('',(#50),#54);
#50 = LINE('',#51,#52);
#51 = CARTESIAN_POINT('',(-1.794704659976,0.));
#52 = VECTOR('',#53,1.);
#53 = DIRECTION('',(-0.,-1.));
#54 = ( GEOMETRIC_REPRESENTATION_CONTEXT(2) 
PARAMETRIC_REPRESENTATION_CONTEXT() REPRESENTATION_CONTEXT('2D SPACE',''
  ) );
#55 = ORIENTED_EDGE('',*,*,#56,.T.);
#56 = EDGE_CURVE('',#24,#57,#59,.T.);
#57 = VERTEX_POINT('',#58);
#58 = CARTESIAN_POINT('',(-57.43198909034,-7.105427357601E-15,
    45.038053069683));
#59 = SURFACE_CURVE('',#60,(#64,#71),.PCURVE_S1.);
#60 = LINE('',#61,#62);
#61 = CARTESIAN_POINT('',(-52.10282035331,60.912636662976,
    39.708888052019));
#62 = VECTOR('',#63,1.);
#63 = DIRECTION('',(-8.682665150545E-02,-0.992432504355,
    8.682659090697E-02));
#64 = PCURVE('',#32,#65);
#65 = DEFINITIONAL_REPRESENTATION('',(#66),#70);
#66 = LINE('',#67,#68);
#67 = CARTESIAN_POINT('',(0.861695310584,-94.70888805201));
#68 = VECTOR('',#69,1.);
#69 = DIRECTION('',(0.996223440354,-8.682659090697E-02));
#70 = ( GEOMETRIC_REPRESENTATION_CONTEXT(2) 
PARAMETRIC_REPRESENTATION_CONTEXT() REPRESENTATION_CONTEXT('2D SPACE',''
  ) );
#71 = PCURVE('',#72,#77);
#72 = CYLINDRICAL_SURFACE('',#73,10.);
#73 = AXIS2_PLACEMENT_3D('',#74,#75,#76);
#74 = CARTESIAN_POINT('',(-42.14087342299,60.041078657128,
    39.708888052019));
#75 = DIRECTION('',(-8.682665150545E-02,-0.992432504355,
    8.682659090697E-02));
#76 = DIRECTION('',(-0.996194693032,8.715580058482E-02,
    -8.673617379884E-19));
#77 = DEFINITIONAL_REPRESENTATION('',(#78),#82);
#78 = LINE('',#79,#80);
#79 = CARTESIAN_POINT('',(-0.,0.));
#80 = VECTOR('',#81,1.);
#81 = DIRECTION('',(-0.,1.));
#82 = ( GEOMETRIC_REPRESENTATION_CONTEXT(2) 
PARAMETRIC_REPRESENTATION_CONTEXT() REPRESENTATION_CONTEXT('2D SPACE',''
  ) );
#83 = ORIENTED_EDGE('',*,*,#84,.F.);
#84 = EDGE_CURVE('',#85,#57,#87,.T.);
#85 = VERTEX_POINT('',#86);
#86 = CARTESIAN_POINT('',(-57.43198909034,-7.105427357601E-15,
    -45.03805306968));
#87 = SURFACE_CURVE('',#88,(#92,#99),.PCURVE_S1.);
#88 = LINE('',#89,#90);
#89 = CARTESIAN_POINT('',(-57.43198909034,0.,-55.));
#90 = VECTOR('',#91,1.);
#91 = DIRECTION('',(0.,0.,1.));
#92 = PCURVE('',#32,#93);
#93 = DEFINITIONAL_REPRESENTATION('',(#94),#98);
#94 = LINE('',#95,#96);
#95 = CARTESIAN_POINT('',(62.007008660533,0.));
#96 = VECTOR('',#97,1.);
#97 = DIRECTION('',(0.,-1.));
#98 = ( GEOMETRIC_REPRESENTATION_CONTEXT(2) 
PARAMETRIC_REPRESENTATION_CONTEXT() REPRESENTATION_CONTEXT('2D SPACE',''
  ) );
#99 = PCURVE('',#100,#105);
#100 = PLANE('',#101);
#101 = AXIS2_PLACEMENT_3D('',#102,#103,#104);
#102 = CARTESIAN_POINT('',(-57.43198909034,0.,-55.));
#103 = DIRECTION('',(0.,1.,0.));
#104 = DIRECTION('',(1.,0.,0.));
#105 = DEFINITIONAL_REPRESENTATION('',(#106),#110);
#106 = LINE('',#107,#108);
#107 = CARTESIAN_POINT('',(0.,0.));
#108 = VECTOR('',#109,1.);
#109 = DIRECTION('',(0.,-1.));
#110 = ( GEOMETRIC_REPRESENTATION_CONTEXT(2) 
PARAMETRIC_REPRESENTATION_CONTEXT() REPRESENTATION_CONTEXT('2D SPACE',''
  ) );
#111 = ORIENTED_EDGE('',*,*,#112,.F.);
#112 = EDGE_CURVE('',#22,#85,#113,.T.);
#113 = SURFACE_CURVE('',#114,(#118,#125),.PCURVE_S1.);
#114 = LINE('',#115,#116);
#115 = CARTESIAN_POINT('',(-52.10282035331,60.912636662976,
    -39.70888805201));
#116 = VECTOR('',#117,1.);
#117 = DIRECTION('',(-8.682665150545E-02,-0.992432504355,
    -8.682659090697E-02));
#118 = PCURVE('',#32,#119);
#119 = DEFINITIONAL_REPRESENTATION('',(#120),#124);
#120 = LINE('',#121,#122);
#121 = CARTESIAN_POINT('',(0.861695310584,-15.29111194798));
#122 = VECTOR('',#123,1.);
#123 = DIRECTION('',(0.996223440354,8.682659090697E-02));
#124 = ( GEOMETRIC_REPRESENTATION_CONTEXT(2) 
PARAMETRIC_REPRESENTATION_CONTEXT() REPRESENTATION_CONTEXT('2D SPACE',''
  ) );
#125 = PCURVE('',#126,#131);
#126 = CYLINDRICAL_SURFACE('',#127,10.);
#127 = AXIS2_PLACEMENT_3D('',#128,#129,#130);
#128 = CARTESIAN_POINT('',(-42.14087342299,60.041078657128,
    -39.70888805201));
#129 = DIRECTION('',(-8.682665150545E-02,-0.992432504355,
    -8.682659090697E-02));
#130 = DIRECTION('',(-0.996194693032,8.715580058482E-02,
    8.673617379884E-19));
#131 = DEFINITIONAL_REPRESENTATION('',(#132),#136);
#132 = LINE('',#133,#134);
#133 = CARTESIAN_POINT('',(0.,0.));
#134 = VECTOR('',#135,1.);
#135 = DIRECTION('',(0.,1.));
#136 = ( GEOMETRIC_REPRESENTATION_CONTEXT(2) 
PARAMETRIC_REPRESENTATION_CONTEXT() REPRESENTATION_CONTEXT('2D SPACE',''
  ) );
#137 = ADVANCED_FACE('',(#138),#44,.T.);
#138 = FACE_BOUND('',#139,.F.);
#139 = EDGE_LOOP('',(#140,#170,#277,#312,#414,#415,#519,#554));
#140 = ORIENTED_EDGE('',*,*,#141,.T.);
#141 = EDGE_CURVE('',#142,#144,#146,.T.);
#142 = VERTEX_POINT('',#143);
#143 = CARTESIAN_POINT('',(53.969057333984,73.109624281761,
    -38.64178993741));
#144 = VERTEX_POINT('',#145);
#145 = CARTESIAN_POINT('',(53.969057333984,73.109624281761,
    38.64178993741));
#146 = SURFACE_CURVE('',#147,(#151,#158),.PCURVE_S1.);
#147 = LINE('',#148,#149);
#148 = CARTESIAN_POINT('',(53.969057333984,73.109624281761,-55.));
#149 = VECTOR('',#150,1.);
#150 = DIRECTION('',(0.,0.,1.));
#151 = PCURVE('',#44,#152);
#152 = DEFINITIONAL_REPRESENTATION('',(#153),#157);
#153 = LINE('',#154,#155);
#154 = CARTESIAN_POINT('',(-1.560019336617,0.));
#155 = VECTOR('',#156,1.);
#156 = DIRECTION('',(-0.,-1.));
#157 = ( GEOMETRIC_REPRESENTATION_CONTEXT(2) 
PARAMETRIC_REPRESENTATION_CONTEXT() REPRESENTATION_CONTEXT('2D SPACE',''
  ) );
#158 = PCURVE('',#159,#164);
#159 = PLANE('',#160);
#160 = AXIS2_PLACEMENT_3D('',#161,#162,#163);
#161 = CARTESIAN_POINT('',(60.365324930372,4.440892098501E-16,-55.));
#162 = DIRECTION('',(-0.996194693032,-8.715580058482E-02,0.));
#163 = DIRECTION('',(-8.715580058482E-02,0.996194693032,0.));
#164 = DEFINITIONAL_REPRESENTATION('',(#165),#169);
#165 = LINE('',#166,#167);
#166 = CARTESIAN_POINT('',(73.388891542146,0.));
#167 = VECTOR('',#168,1.);
#168 = DIRECTION('',(0.,-1.));
#169 = ( GEOMETRIC_REPRESENTATION_CONTEXT(2) 
PARAMETRIC_REPRESENTATION_CONTEXT() REPRESENTATION_CONTEXT('2D SPACE',''
  ) );
#170 = ORIENTED_EDGE('',*,*,#171,.T.);
#171 = EDGE_CURVE('',#144,#172,#174,.T.);
#172 = VERTEX_POINT('',#173);
#173 = CARTESIAN_POINT('',(44.007252967242,73.107994170075,
    48.603879484015));
#174 = SURFACE_CURVE('',#175,(#192,#212),.PCURVE_S1.);
#175 = B_SPLINE_CURVE_WITH_KNOTS('',8,(#176,#177,#178,#179,#180,#181,
    #182,#183,#184,#185,#186,#187,#188,#189,#190,#191),.UNSPECIFIED.,.F.
  ,.F.,(9,7,9),(0.,0.501508486137,1.),.UNSPECIFIED.);
#176 = CARTESIAN_POINT('',(53.969057333984,73.109624281761,
    38.64178993741));
#177 = CARTESIAN_POINT('',(53.969057333984,73.109624281761,
    39.534598501155));
#178 = CARTESIAN_POINT('',(53.878222635995,73.110603477653,
    40.451126360907));
#179 = CARTESIAN_POINT('',(53.687773961904,73.112654708061,
    41.385570915549));
#180 = CARTESIAN_POINT('',(53.387527257111,73.115792720927,
    42.325903201653));
#181 = CARTESIAN_POINT('',(52.968710151436,73.119844726127,
    43.254597307489));
#182 = CARTESIAN_POINT('',(52.427943039562,73.124392384385,
    44.150685926125));
#183 = CARTESIAN_POINT('',(51.765426166173,73.128685414632,
    44.989063502956));
#184 = CARTESIAN_POINT('',(50.236865478843,73.135186113225,
    46.492790527866));
#185 = CARTESIAN_POINT('',(49.381189006367,73.13736762484,
    47.150182925378));
#186 = CARTESIAN_POINT('',(48.465933945209,73.137717978504,
    47.68074163839));
#187 = CARTESIAN_POINT('',(47.526527905044,73.135715148007,
    48.081627197727));
#188 = CARTESIAN_POINT('',(46.591212578935,73.13135260851,
    48.359217621034));
#189 = CARTESIAN_POINT('',(45.682717433535,73.12495090754,
    48.527486230013));
#190 = CARTESIAN_POINT('',(44.817625610671,73.116993128082,
    48.603092180227));
#191 = CARTESIAN_POINT('',(44.007252967463,73.107994167548,
    48.603879484236));
#192 = PCURVE('',#44,#193);
#193 = DEFINITIONAL_REPRESENTATION('',(#194),#211);
#194 = B_SPLINE_CURVE_WITH_KNOTS('',8,(#195,#196,#197,#198,#199,#200,
    #201,#202,#203,#204,#205,#206,#207,#208,#209,#210),.UNSPECIFIED.,.F.
  ,.F.,(9,7,9),(0.,0.501508486137,1.),.UNSPECIFIED.);
#195 = CARTESIAN_POINT('',(-1.560019336617,-93.64178993741));
#196 = CARTESIAN_POINT('',(-1.560019336617,-94.53459850115));
#197 = CARTESIAN_POINT('',(-1.560218863993,-95.4511263609));
#198 = CARTESIAN_POINT('',(-1.560637203335,-96.38557091554));
#199 = CARTESIAN_POINT('',(-1.561296722368,-97.32590320165));
#200 = CARTESIAN_POINT('',(-1.562216684903,-98.25459730748));
#201 = CARTESIAN_POINT('',(-1.56340450334,-99.15068592612));
#202 = CARTESIAN_POINT('',(-1.564859729473,-99.98906350295));
#203 = CARTESIAN_POINT('',(-1.568217199289,-101.4927905278));
#204 = CARTESIAN_POINT('',(-1.570096671358,-102.1501829253));
#205 = CARTESIAN_POINT('',(-1.572106994938,-102.6807416383));
#206 = CARTESIAN_POINT('',(-1.574170364614,-103.0816271977));
#207 = CARTESIAN_POINT('',(-1.576224768228,-103.359217621));
#208 = CARTESIAN_POINT('',(-1.57822029329,-103.52748623));
#209 = CARTESIAN_POINT('',(-1.580120519466,-103.6030921802));
#210 = CARTESIAN_POINT('',(-1.581900589344,-103.6038794842));
#211 = ( GEOMETRIC_REPRESENTATION_CONTEXT(2) 
PARAMETRIC_REPRESENTATION_CONTEXT() REPRESENTATION_CONTEXT('2D SPACE',''
  ) );
#212 = PCURVE('',#213,#218);
#213 = CYLINDRICAL_SURFACE('',#214,10.);
#214 = AXIS2_PLACEMENT_3D('',#215,#216,#217);
#215 = CARTESIAN_POINT('',(50.47847974471,-1.729974301262,
    45.113154761922));
#216 = DIRECTION('',(-8.682665150545E-02,0.992432504355,
    -8.682659090697E-02));
#217 = DIRECTION('',(0.996194693032,8.715580058482E-02,
    -1.387778780781E-17));
#218 = DEFINITIONAL_REPRESENTATION('',(#219),#276);
#219 = B_SPLINE_CURVE_WITH_KNOTS('',10,(#220,#221,#222,#223,#224,#225,
    #226,#227,#228,#229,#230,#231,#232,#233,#234,#235,#236,#237,#238,
    #239,#240,#241,#242,#243,#244,#245,#246,#247,#248,#249,#250,#251,
    #252,#253,#254,#255,#256,#257,#258,#259,#260,#261,#262,#263,#264,
    #265,#266,#267,#268,#269,#270,#271,#272,#273,#274,#275),
  .UNSPECIFIED.,.F.,.F.,(11,9,9,9,9,9,11),(0.,0.5,0.53125,0.5625,0.625,
    0.75,1.),.UNSPECIFIED.);
#220 = CARTESIAN_POINT('',(0.,74.532061628985));
#221 = CARTESIAN_POINT('',(-7.094091873131E-02,74.470232546475));
#222 = CARTESIAN_POINT('',(-0.143390996545,74.412608308079));
#223 = CARTESIAN_POINT('',(-0.217582446313,74.359819026432));
#224 = CARTESIAN_POINT('',(-0.293624280633,74.312680933061));
#225 = CARTESIAN_POINT('',(-0.371545237511,74.272121707817));
#226 = CARTESIAN_POINT('',(-0.45133303276,74.239050412633));
#227 = CARTESIAN_POINT('',(-0.532930065682,74.214287034267));
#228 = CARTESIAN_POINT('',(-0.616225802916,74.198524495635));
#229 = CARTESIAN_POINT('',(-0.701024946719,74.192231448926));
#230 = CARTESIAN_POINT('',(-0.792127109205,74.19561631555));
#231 = CARTESIAN_POINT('',(-0.797491305567,74.195852515179));
#232 = CARTESIAN_POINT('',(-0.802846722284,74.196125270259));
#233 = CARTESIAN_POINT('',(-0.808215517565,74.196435210165));
#234 = CARTESIAN_POINT('',(-0.813568961493,74.196781349808));
#235 = CARTESIAN_POINT('',(-0.81893422653,74.197164396949));
#236 = CARTESIAN_POINT('',(-0.824290843901,74.197583633329));
#237 = CARTESIAN_POINT('',(-0.829649447242,74.198039229525));
#238 = CARTESIAN_POINT('',(-0.835005583684,74.198530917966));
#239 = CARTESIAN_POINT('',(-0.845714374462,74.199586210808));
#240 = CARTESIAN_POINT('',(-0.851066911755,74.200149813434));
#241 = CARTESIAN_POINT('',(-0.856417313418,74.200749208509));
#242 = CARTESIAN_POINT('',(-0.861765309745,74.201384223494));
#243 = CARTESIAN_POINT('',(-0.867110638849,74.202054677244));
#244 = CARTESIAN_POINT('',(-0.872453046669,74.202760379735));
#245 = CARTESIAN_POINT('',(-0.877792286967,74.203501132394));
#246 = CARTESIAN_POINT('',(-0.883128121329,74.204276727781));
#247 = CARTESIAN_POINT('',(-0.888460319164,74.205086949834));
#248 = CARTESIAN_POINT('',(-0.904445334785,74.207620821486));
#249 = CARTESIAN_POINT('',(-0.915086550037,74.209447712939));
#250 = CARTESIAN_POINT('',(-0.925710541852,74.211410417071));
#251 = CARTESIAN_POINT('',(-0.936315634255,74.213507020595));
#252 = CARTESIAN_POINT('',(-0.946900236909,74.215735527512));
#253 = CARTESIAN_POINT('',(-0.957462845111,74.218093859796));
#254 = CARTESIAN_POINT('',(-0.968002039794,74.220579856536));
#255 = CARTESIAN_POINT('',(-0.978516487527,74.223191274795));
#256 = CARTESIAN_POINT('',(-0.989004940513,74.225925788926));
#257 = CARTESIAN_POINT('',(-1.020388828748,74.23449139513));
#258 = CARTESIAN_POINT('',(-1.041202690805,74.240684706581));
#259 = CARTESIAN_POINT('',(-1.061898358894,74.247341904987));
#260 = CARTESIAN_POINT('',(-1.082467347644,74.254443245033));
#261 = CARTESIAN_POINT('',(-1.102902041697,74.261968418434));
#262 = CARTESIAN_POINT('',(-1.123195587238,74.269896716245));
#263 = CARTESIAN_POINT('',(-1.143341783506,74.278207190734));
#264 = CARTESIAN_POINT('',(-1.163334974328,74.286878817716));
#265 = CARTESIAN_POINT('',(-1.183169939631,74.295890658493));
#266 = CARTESIAN_POINT('',(-1.24218548165,74.323884749224));
#267 = CARTESIAN_POINT('',(-1.280876741335,74.343825438099));
#268 = CARTESIAN_POINT('',(-1.318877006996,74.364877815642));
#269 = CARTESIAN_POINT('',(-1.356153612976,74.386878190558));
#270 = CARTESIAN_POINT('',(-1.392678171339,74.409667821925));
#271 = CARTESIAN_POINT('',(-1.428425325676,74.433094696229));
#272 = CARTESIAN_POINT('',(-1.463371874366,74.45701471386));
#273 = CARTESIAN_POINT('',(-1.497496263295,74.48129228382));
#274 = CARTESIAN_POINT('',(-1.530778448025,74.505800327861));
#275 = CARTESIAN_POINT('',(-1.563200125428,74.53041969309));
#276 = ( GEOMETRIC_REPRESENTATION_CONTEXT(2) 
PARAMETRIC_REPRESENTATION_CONTEXT() REPRESENTATION_CONTEXT('2D SPACE',''
  ) );
#277 = ORIENTED_EDGE('',*,*,#278,.T.);
#278 = EDGE_CURVE('',#172,#279,#281,.T.);
#279 = VERTEX_POINT('',#280);
#280 = CARTESIAN_POINT('',(-41.87410821369,63.961774315365,
    49.404070012021));
#281 = SURFACE_CURVE('',#282,(#287,#300),.PCURVE_S1.);
#282 = ELLIPSE('',#283,457.0148059128,455.27572670088);
#283 = AXIS2_PLACEMENT_3D('',#284,#285,#286);
#284 = CARTESIAN_POINT('',(49.062650275116,-382.1396640128,
    88.432887507192));
#285 = DIRECTION('',(0.,8.715574021868E-02,0.996194698313));
#286 = DIRECTION('',(0.,0.996194698313,-8.715574021868E-02));
#287 = PCURVE('',#44,#288);
#288 = DEFINITIONAL_REPRESENTATION('',(#289),#299);
#289 = B_SPLINE_CURVE_WITH_KNOTS('',8,(#290,#291,#292,#293,#294,#295,
    #296,#297,#298),.UNSPECIFIED.,.F.,.F.,(9,9),(6.294289569234,
    6.48427783934),.PIECEWISE_BEZIER_KNOTS.);
#290 = CARTESIAN_POINT('',(-1.581900589344,-103.6038794886));
#291 = CARTESIAN_POINT('',(-1.605649123108,-103.6143832261));
#292 = CARTESIAN_POINT('',(-1.629397651964,-103.650559268));
#293 = CARTESIAN_POINT('',(-1.653146200187,-103.7123986484));
#294 = CARTESIAN_POINT('',(-1.676894711202,-103.7998612795));
#295 = CARTESIAN_POINT('',(-1.700643267354,-103.9128766751));
#296 = CARTESIAN_POINT('',(-1.724391787333,-104.0513429339));
#297 = CARTESIAN_POINT('',(-1.748140325628,-104.2151282143));
#298 = CARTESIAN_POINT('',(-1.771888859391,-104.4040700099));
#299 = ( GEOMETRIC_REPRESENTATION_CONTEXT(2) 
PARAMETRIC_REPRESENTATION_CONTEXT() REPRESENTATION_CONTEXT('2D SPACE',''
  ) );
#300 = PCURVE('',#301,#306);
#301 = PLANE('',#302);
#302 = AXIS2_PLACEMENT_3D('',#303,#304,#305);
#303 = CARTESIAN_POINT('',(-57.43198909034,0.,55.));
#304 = DIRECTION('',(0.,8.715574021868E-02,0.996194698313));
#305 = DIRECTION('',(-8.715580058482E-02,-0.992403871686,
    8.682408587309E-02));
#306 = DEFINITIONAL_REPRESENTATION('',(#307),#311);
#307 = ELLIPSE('',#308,457.0148059128,455.27572670088);
#308 = AXIS2_PLACEMENT_2D('',#309,#310);
#309 = CARTESIAN_POINT('',(372.85803643507,139.52230523579));
#310 = DIRECTION('',(-0.996194693032,-8.715580058482E-02));
#311 = ( GEOMETRIC_REPRESENTATION_CONTEXT(2) 
PARAMETRIC_REPRESENTATION_CONTEXT() REPRESENTATION_CONTEXT('2D SPACE',''
  ) );
#312 = ORIENTED_EDGE('',*,*,#313,.F.);
#313 = EDGE_CURVE('',#24,#279,#314,.T.);
#314 = SURFACE_CURVE('',#315,(#332,#352),.PCURVE_S1.);
#315 = B_SPLINE_CURVE_WITH_KNOTS('',8,(#316,#317,#318,#319,#320,#321,
    #322,#323,#324,#325,#326,#327,#328,#329,#330,#331),.UNSPECIFIED.,.F.
  ,.F.,(9,7,9),(0.,0.448022630738,1.),.UNSPECIFIED.);
#316 = CARTESIAN_POINT('',(-52.02771860866,61.77105295839,39.63378635978
    ));
#317 = CARTESIAN_POINT('',(-52.02771860866,61.77105295839,
    40.675636543259));
#318 = CARTESIAN_POINT('',(-51.90162416054,61.799767753034,
    41.768817081821));
#319 = CARTESIAN_POINT('',(-51.62617366867,61.862496844729,
    42.832451871971));
#320 = CARTESIAN_POINT('',(-51.22252667115,61.95420300661,43.82414736594
    ));
#321 = CARTESIAN_POINT('',(-50.71867065999,62.067908941689,
    44.719063800704));
#322 = CARTESIAN_POINT('',(-50.14602253299,62.196127965669,
    45.507545387307));
#323 = CARTESIAN_POINT('',(-49.53207174813,62.332486729967,
    46.190366885733));
#324 = CARTESIAN_POINT('',(-48.11159271314,62.64545088449,
    47.495583575068));
#325 = CARTESIAN_POINT('',(-47.27704439262,62.827664045741,
    48.082266589638));
#326 = CARTESIAN_POINT('',(-46.40816199747,63.015414447805,
    48.553529662358));
#327 = CARTESIAN_POINT('',(-45.51631289652,63.205983977875,
    48.916411248057));
#328 = CARTESIAN_POINT('',(-44.61116387455,63.397158013869,
    49.178792219971));
#329 = CARTESIAN_POINT('',(-43.69955457104,63.587440446303,
    49.345396982335));
#330 = CARTESIAN_POINT('',(-42.78641799789,63.775802051272,
    49.420340476384));
#331 = CARTESIAN_POINT('',(-41.87410821368,63.961774315393,
    49.404070012019));
#332 = PCURVE('',#44,#333);
#333 = DEFINITIONAL_REPRESENTATION('',(#334),#351);
#334 = B_SPLINE_CURVE_WITH_KNOTS('',8,(#335,#336,#337,#338,#339,#340,
    #341,#342,#343,#344,#345,#346,#347,#348,#349,#350),.UNSPECIFIED.,.F.
  ,.F.,(9,7,9),(0.,0.448022630738,1.),.UNSPECIFIED.);
#335 = CARTESIAN_POINT('',(-1.794704659976,-94.63378635978));
#336 = CARTESIAN_POINT('',(-1.794704659976,-95.67563654325));
#337 = CARTESIAN_POINT('',(-1.79442060649,-96.76881708182));
#338 = CARTESIAN_POINT('',(-1.793800096962,-97.83245187197));
#339 = CARTESIAN_POINT('',(-1.792890903978,-98.82414736593));
#340 = CARTESIAN_POINT('',(-1.791756370626,-99.7190638007));
#341 = CARTESIAN_POINT('',(-1.790467424909,-100.5075453873));
#342 = CARTESIAN_POINT('',(-1.789086041625,-101.1903668857));
#343 = CARTESIAN_POINT('',(-1.785891170892,-102.495583575));
#344 = CARTESIAN_POINT('',(-1.78401492945,-103.0822665896));
#345 = CARTESIAN_POINT('',(-1.782062415279,-103.5535296623));
#346 = CARTESIAN_POINT('',(-1.780059283413,-103.916411248));
#347 = CARTESIAN_POINT('',(-1.778027301005,-104.1787922199));
#348 = CARTESIAN_POINT('',(-1.775981832074,-104.3453969823));
#349 = CARTESIAN_POINT('',(-1.773933931892,-104.4203404763));
#350 = CARTESIAN_POINT('',(-1.771888859391,-104.404070012));
#351 = ( GEOMETRIC_REPRESENTATION_CONTEXT(2) 
PARAMETRIC_REPRESENTATION_CONTEXT() REPRESENTATION_CONTEXT('2D SPACE',''
  ) );
#352 = PCURVE('',#72,#353);
#353 = DEFINITIONAL_REPRESENTATION('',(#354),#413);
#354 = B_SPLINE_CURVE_WITH_KNOTS('',8,(#355,#356,#357,#358,#359,#360,
    #361,#362,#363,#364,#365,#366,#367,#368,#369,#370,#371,#372,#373,
    #374,#375,#376,#377,#378,#379,#380,#381,#382,#383,#384,#385,#386,
    #387,#388,#389,#390,#391,#392,#393,#394,#395,#396,#397,#398,#399,
    #400,#401,#402,#403,#404,#405,#406,#407,#408,#409,#410,#411,#412),
  .UNSPECIFIED.,.F.,.F.,(9,7,7,7,7,7,7,7,9),(0.,0.25,0.375,0.4375,
    0.4453125,0.453125,0.46875,0.5,1.),.UNSPECIFIED.);
#355 = CARTESIAN_POINT('',(-5.551115123126E-17,-0.864961890756));
#356 = CARTESIAN_POINT('',(-5.791647022435E-02,-0.814484362691));
#357 = CARTESIAN_POINT('',(-0.117532150269,-0.774901539337));
#358 = CARTESIAN_POINT('',(-0.177754689871,-0.748697500858));
#359 = CARTESIAN_POINT('',(-0.237922888987,-0.736667111918));
#360 = CARTESIAN_POINT('',(-0.297591258666,-0.738631313134));
#361 = CARTESIAN_POINT('',(-0.356434039111,-0.753832884223));
#362 = CARTESIAN_POINT('',(-0.414212030153,-0.781155691636));
#363 = CARTESIAN_POINT('',(-0.499012368894,-0.838387804351));
#364 = CARTESIAN_POINT('',(-0.526968005978,-0.860173242016));
#365 = CARTESIAN_POINT('',(-0.554590311928,-0.884504959116));
#366 = CARTESIAN_POINT('',(-0.581860611606,-0.911210893937));
#367 = CARTESIAN_POINT('',(-0.608763547226,-0.940112952761));
#368 = CARTESIAN_POINT('',(-0.635286882207,-0.971031252271));
#369 = CARTESIAN_POINT('',(-0.661421305024,-1.003788361949));
#370 = CARTESIAN_POINT('',(-0.700029697077,-1.055426138725));
#371 = CARTESIAN_POINT('',(-0.71280030829,-1.073055818817));
#372 = CARTESIAN_POINT('',(-0.725471251516,-1.091080996904));
#373 = CARTESIAN_POINT('',(-0.738041913221,-1.109480667431));
#374 = CARTESIAN_POINT('',(-0.750511881521,-1.128234409124));
#375 = CARTESIAN_POINT('',(-0.762880946182,-1.147322384989));
#376 = CARTESIAN_POINT('',(-0.77514909862,-1.166725342316));
#377 = CARTESIAN_POINT('',(-0.788837461061,-1.188887021469));
#378 = CARTESIAN_POINT('',(-0.790356816516,-1.191354061213));
#379 = CARTESIAN_POINT('',(-0.791874598833,-1.193825696318));
#380 = CARTESIAN_POINT('',(-0.793390808579,-1.196301891191));
#381 = CARTESIAN_POINT('',(-0.794905446322,-1.198782610242));
#382 = CARTESIAN_POINT('',(-0.796418512628,-1.201267817882));
#383 = CARTESIAN_POINT('',(-0.797930008066,-1.203757478518));
#384 = CARTESIAN_POINT('',(-0.800949858336,-1.208745634605));
#385 = CARTESIAN_POINT('',(-0.802458397319,-1.211244435887));
#386 = CARTESIAN_POINT('',(-0.803964684683,-1.213746489905));
#387 = CARTESIAN_POINT('',(-0.805469916791,-1.216253735313));
#388 = CARTESIAN_POINT('',(-0.806974390356,-1.2187666433));
#389 = CARTESIAN_POINT('',(-0.808477687643,-1.221284501436));
#390 = CARTESIAN_POINT('',(-0.809979778216,-1.223807218911));
#391 = CARTESIAN_POINT('',(-0.81448286485,-1.231390604474));
#392 = CARTESIAN_POINT('',(-0.817480516924,-1.236466230858));
#393 = CARTESIAN_POINT('',(-0.820473804219,-1.241561743751));
#394 = CARTESIAN_POINT('',(-0.823462767638,-1.246676993653));
#395 = CARTESIAN_POINT('',(-0.826447448087,-1.251811831065));
#396 = CARTESIAN_POINT('',(-0.829427886467,-1.256966106485));
#397 = CARTESIAN_POINT('',(-0.832404123683,-1.262139670414));
#398 = CARTESIAN_POINT('',(-0.841320354552,-1.27771777923));
#399 = CARTESIAN_POINT('',(-0.847247861403,-1.28817975626));
#400 = CARTESIAN_POINT('',(-0.853159033227,-1.298717140546));
#401 = CARTESIAN_POINT('',(-0.859054172372,-1.309328789588));
#402 = CARTESIAN_POINT('',(-0.864933571494,-1.320013582288));
#403 = CARTESIAN_POINT('',(-0.870797513566,-1.330770418946));
#404 = CARTESIAN_POINT('',(-0.876646271868,-1.341598221263));
#405 = CARTESIAN_POINT('',(-0.975821520032,-1.526859309533));
#406 = CARTESIAN_POINT('',(-1.065344018228,-1.719120405438));
#407 = CARTESIAN_POINT('',(-1.152130803312,-1.924938328801));
#408 = CARTESIAN_POINT('',(-1.236732853581,-2.141329129627));
#409 = CARTESIAN_POINT('',(-1.319666710875,-2.365736421059));
#410 = CARTESIAN_POINT('',(-1.401372786959,-2.596446608802));
#411 = CARTESIAN_POINT('',(-1.482340346787,-2.832169969519));
#412 = CARTESIAN_POINT('',(-1.563200125428,-3.072388542998));
#413 = ( GEOMETRIC_REPRESENTATION_CONTEXT(2) 
PARAMETRIC_REPRESENTATION_CONTEXT() REPRESENTATION_CONTEXT('2D SPACE',''
  ) );
#414 = ORIENTED_EDGE('',*,*,#21,.F.);
#415 = ORIENTED_EDGE('',*,*,#416,.T.);
#416 = EDGE_CURVE('',#22,#417,#419,.T.);
#417 = VERTEX_POINT('',#418);
#418 = CARTESIAN_POINT('',(-41.87410821369,63.961774315365,
    -49.40407001202));
#419 = SURFACE_CURVE('',#420,(#437,#457),.PCURVE_S1.);
#420 = B_SPLINE_CURVE_WITH_KNOTS('',8,(#421,#422,#423,#424,#425,#426,
    #427,#428,#429,#430,#431,#432,#433,#434,#435,#436),.UNSPECIFIED.,.F.
  ,.F.,(9,7,9),(0.,0.44802263074,1.),.UNSPECIFIED.);
#421 = CARTESIAN_POINT('',(-52.02771860866,61.77105295839,
    -39.63378635978));
#422 = CARTESIAN_POINT('',(-52.02771860866,61.77105295839,
    -40.67563654326));
#423 = CARTESIAN_POINT('',(-51.90162416054,61.799767753035,
    -41.76881708182));
#424 = CARTESIAN_POINT('',(-51.62617366866,61.862496844729,
    -42.83245187198));
#425 = CARTESIAN_POINT('',(-51.22252667115,61.954203006612,
    -43.82414736594));
#426 = CARTESIAN_POINT('',(-50.71867065999,62.067908941689,
    -44.71906380071));
#427 = CARTESIAN_POINT('',(-50.14602253298,62.196127965671,
    -45.50754538732));
#428 = CARTESIAN_POINT('',(-49.53207174812,62.332486729969,
    -46.19036688574));
#429 = CARTESIAN_POINT('',(-48.11159271313,62.645450884493,
    -47.49558357507));
#430 = CARTESIAN_POINT('',(-47.27704439261,62.827664045743,
    -48.08226658964));
#431 = CARTESIAN_POINT('',(-46.40816199746,63.015414447808,
    -48.55352966235));
#432 = CARTESIAN_POINT('',(-45.51631289653,63.205983977874,
    -48.91641124807));
#433 = CARTESIAN_POINT('',(-44.61116387453,63.397158013873,
    -49.17879221996));
#434 = CARTESIAN_POINT('',(-43.69955457104,63.587440446303,
    -49.34539698233));
#435 = CARTESIAN_POINT('',(-42.78641799789,63.775802051273,
    -49.42034047638));
#436 = CARTESIAN_POINT('',(-41.87410821368,63.961774315393,
    -49.40407001201));
#437 = PCURVE('',#44,#438);
#438 = DEFINITIONAL_REPRESENTATION('',(#439),#456);
#439 = B_SPLINE_CURVE_WITH_KNOTS('',8,(#440,#441,#442,#443,#444,#445,
    #446,#447,#448,#449,#450,#451,#452,#453,#454,#455),.UNSPECIFIED.,.F.
  ,.F.,(9,7,9),(0.,0.44802263074,1.),.UNSPECIFIED.);
#440 = CARTESIAN_POINT('',(-1.794704659976,-15.36621364022));
#441 = CARTESIAN_POINT('',(-1.794704659976,-14.32436345673));
#442 = CARTESIAN_POINT('',(-1.79442060649,-13.23118291817));
#443 = CARTESIAN_POINT('',(-1.793800096962,-12.167548128));
#444 = CARTESIAN_POINT('',(-1.792890903978,-11.17585263406));
#445 = CARTESIAN_POINT('',(-1.791756370626,-10.28093619927));
#446 = CARTESIAN_POINT('',(-1.790467424908,-9.492454612681));
#447 = CARTESIAN_POINT('',(-1.789086041625,-8.809633114255));
#448 = CARTESIAN_POINT('',(-1.785891170892,-7.504416424923));
#449 = CARTESIAN_POINT('',(-1.784014929449,-6.917733410352));
#450 = CARTESIAN_POINT('',(-1.782062415279,-6.446470337655));
#451 = CARTESIAN_POINT('',(-1.780059283413,-6.083588751916));
#452 = CARTESIAN_POINT('',(-1.778027301005,-5.821207780045));
#453 = CARTESIAN_POINT('',(-1.775981832074,-5.654603017659));
#454 = CARTESIAN_POINT('',(-1.773933931892,-5.579659523616));
#455 = CARTESIAN_POINT('',(-1.771888859391,-5.595929987982));
#456 = ( GEOMETRIC_REPRESENTATION_CONTEXT(2) 
PARAMETRIC_REPRESENTATION_CONTEXT() REPRESENTATION_CONTEXT('2D SPACE',''
  ) );
#457 = PCURVE('',#126,#458);
#458 = DEFINITIONAL_REPRESENTATION('',(#459),#518);
#459 = B_SPLINE_CURVE_WITH_KNOTS('',8,(#460,#461,#462,#463,#464,#465,
    #466,#467,#468,#469,#470,#471,#472,#473,#474,#475,#476,#477,#478,
    #479,#480,#481,#482,#483,#484,#485,#486,#487,#488,#489,#490,#491,
    #492,#493,#494,#495,#496,#497,#498,#499,#500,#501,#502,#503,#504,
    #505,#506,#507,#508,#509,#510,#511,#512,#513,#514,#515,#516,#517),
  .UNSPECIFIED.,.F.,.F.,(9,7,7,7,7,7,7,7,9),(0.,0.25,0.375,0.4375,
    0.4453125,0.453125,0.46875,0.5,1.),.UNSPECIFIED.);
#460 = CARTESIAN_POINT('',(-2.775557561563E-17,-0.864961890755));
#461 = CARTESIAN_POINT('',(5.791647022439E-02,-0.81448436269));
#462 = CARTESIAN_POINT('',(0.117532150269,-0.774901539337));
#463 = CARTESIAN_POINT('',(0.177754689871,-0.748697500858));
#464 = CARTESIAN_POINT('',(0.237922888987,-0.736667111918));
#465 = CARTESIAN_POINT('',(0.297591258666,-0.738631313134));
#466 = CARTESIAN_POINT('',(0.356434039111,-0.753832884223));
#467 = CARTESIAN_POINT('',(0.414212030153,-0.781155691636));
#468 = CARTESIAN_POINT('',(0.499012368893,-0.838387804351));
#469 = CARTESIAN_POINT('',(0.526968005977,-0.860173242015));
#470 = CARTESIAN_POINT('',(0.554590311927,-0.884504959116));
#471 = CARTESIAN_POINT('',(0.581860611605,-0.911210893936));
#472 = CARTESIAN_POINT('',(0.608763547226,-0.94011295276));
#473 = CARTESIAN_POINT('',(0.635286882207,-0.971031252271));
#474 = CARTESIAN_POINT('',(0.661421305023,-1.003788361948));
#475 = CARTESIAN_POINT('',(0.700029697077,-1.055426138724));
#476 = CARTESIAN_POINT('',(0.71280030829,-1.073055818816));
#477 = CARTESIAN_POINT('',(0.725471251516,-1.091080996904));
#478 = CARTESIAN_POINT('',(0.73804191322,-1.109480667431));
#479 = CARTESIAN_POINT('',(0.75051188152,-1.128234409123));
#480 = CARTESIAN_POINT('',(0.762880946181,-1.147322384988));
#481 = CARTESIAN_POINT('',(0.77514909862,-1.166725342315));
#482 = CARTESIAN_POINT('',(0.788837461061,-1.188887021468));
#483 = CARTESIAN_POINT('',(0.790356816516,-1.191354061213));
#484 = CARTESIAN_POINT('',(0.791874598833,-1.193825696317));
#485 = CARTESIAN_POINT('',(0.793390808579,-1.19630189119));
#486 = CARTESIAN_POINT('',(0.794905446322,-1.198782610242));
#487 = CARTESIAN_POINT('',(0.796418512628,-1.201267817881));
#488 = CARTESIAN_POINT('',(0.797930008065,-1.203757478518));
#489 = CARTESIAN_POINT('',(0.800949858336,-1.208745634604));
#490 = CARTESIAN_POINT('',(0.802458397318,-1.211244435886));
#491 = CARTESIAN_POINT('',(0.803964684682,-1.213746489904));
#492 = CARTESIAN_POINT('',(0.80546991679,-1.216253735312));
#493 = CARTESIAN_POINT('',(0.806974390356,-1.218766643299));
#494 = CARTESIAN_POINT('',(0.808477687643,-1.221284501435));
#495 = CARTESIAN_POINT('',(0.809979778215,-1.223807218911));
#496 = CARTESIAN_POINT('',(0.81448286485,-1.231390604473));
#497 = CARTESIAN_POINT('',(0.817480516924,-1.236466230857));
#498 = CARTESIAN_POINT('',(0.820473804219,-1.24156174375));
#499 = CARTESIAN_POINT('',(0.823462767638,-1.246676993653));
#500 = CARTESIAN_POINT('',(0.826447448086,-1.251811831064));
#501 = CARTESIAN_POINT('',(0.829427886466,-1.256966106484));
#502 = CARTESIAN_POINT('',(0.832404123683,-1.262139670414));
#503 = CARTESIAN_POINT('',(0.841320354551,-1.277717779229));
#504 = CARTESIAN_POINT('',(0.847247861402,-1.288179756259));
#505 = CARTESIAN_POINT('',(0.853159033227,-1.298717140545));
#506 = CARTESIAN_POINT('',(0.859054172371,-1.309328789587));
#507 = CARTESIAN_POINT('',(0.864933571494,-1.320013582287));
#508 = CARTESIAN_POINT('',(0.870797513565,-1.330770418946));
#509 = CARTESIAN_POINT('',(0.876646271868,-1.341598221263));
#510 = CARTESIAN_POINT('',(0.975821520031,-1.526859309532));
#511 = CARTESIAN_POINT('',(1.065344018228,-1.719120405438));
#512 = CARTESIAN_POINT('',(1.152130803312,-1.924938328802));
#513 = CARTESIAN_POINT('',(1.23673285358,-2.141329129624));
#514 = CARTESIAN_POINT('',(1.319666710876,-2.365736421063));
#515 = CARTESIAN_POINT('',(1.401372786958,-2.596446608799));
#516 = CARTESIAN_POINT('',(1.482340346787,-2.832169969519));
#517 = CARTESIAN_POINT('',(1.563200125428,-3.072388542998));
#518 = ( GEOMETRIC_REPRESENTATION_CONTEXT(2) 
PARAMETRIC_REPRESENTATION_CONTEXT() REPRESENTATION_CONTEXT('2D SPACE',''
  ) );
#519 = ORIENTED_EDGE('',*,*,#520,.F.);
#520 = EDGE_CURVE('',#521,#417,#523,.T.);
#521 = VERTEX_POINT('',#522);
#522 = CARTESIAN_POINT('',(44.007252967242,73.107994170075,
    -48.60387948401));
#523 = SURFACE_CURVE('',#524,(#529,#542),.PCURVE_S1.);
#524 = ELLIPSE('',#525,457.0148059128,455.27572670088);
#525 = AXIS2_PLACEMENT_3D('',#526,#527,#528);
#526 = CARTESIAN_POINT('',(49.062650275116,-382.1396640128,
    -88.43288750719));
#527 = DIRECTION('',(0.,-8.715574021868E-02,0.996194698313));
#528 = DIRECTION('',(0.,-0.996194698313,-8.715574021868E-02));
#529 = PCURVE('',#44,#530);
#530 = DEFINITIONAL_REPRESENTATION('',(#531),#541);
#531 = B_SPLINE_CURVE_WITH_KNOTS('',8,(#532,#533,#534,#535,#536,#537,
    #538,#539,#540),.UNSPECIFIED.,.F.,.F.,(9,9),(3.152696915643,
    3.34268518575),.PIECEWISE_BEZIER_KNOTS.);
#532 = CARTESIAN_POINT('',(-1.581900589344,-6.396120511368));
#533 = CARTESIAN_POINT('',(-1.605649123108,-6.385616773822));
#534 = CARTESIAN_POINT('',(-1.62939765196,-6.349440731998));
#535 = CARTESIAN_POINT('',(-1.653146200194,-6.287601351584));
#536 = CARTESIAN_POINT('',(-1.676894711193,-6.200138720451));
#537 = CARTESIAN_POINT('',(-1.700643267359,-6.087123324893));
#538 = CARTESIAN_POINT('',(-1.72439178733,-5.948657066118));
#539 = CARTESIAN_POINT('',(-1.748140325628,-5.784871785695));
#540 = CARTESIAN_POINT('',(-1.771888859391,-5.595929990019));
#541 = ( GEOMETRIC_REPRESENTATION_CONTEXT(2) 
PARAMETRIC_REPRESENTATION_CONTEXT() REPRESENTATION_CONTEXT('2D SPACE',''
  ) );
#542 = PCURVE('',#543,#548);
#543 = PLANE('',#544);
#544 = AXIS2_PLACEMENT_3D('',#545,#546,#547);
#545 = CARTESIAN_POINT('',(-57.43198909034,0.,-55.));
#546 = DIRECTION('',(0.,-8.715574021868E-02,0.996194698313));
#547 = DIRECTION('',(-8.715580058482E-02,-0.992403871686,
    -8.682408587309E-02));
#548 = DEFINITIONAL_REPRESENTATION('',(#549),#553);
#549 = ELLIPSE('',#550,457.0148059128,455.27572670088);
#550 = AXIS2_PLACEMENT_2D('',#551,#552);
#551 = CARTESIAN_POINT('',(372.85803643507,139.52230523579));
#552 = DIRECTION('',(0.996194693032,8.715580058482E-02));
#553 = ( GEOMETRIC_REPRESENTATION_CONTEXT(2) 
PARAMETRIC_REPRESENTATION_CONTEXT() REPRESENTATION_CONTEXT('2D SPACE',''
  ) );
#554 = ORIENTED_EDGE('',*,*,#555,.F.);
#555 = EDGE_CURVE('',#142,#521,#556,.T.);
#556 = SURFACE_CURVE('',#557,(#574,#594),.PCURVE_S1.);
#557 = B_SPLINE_CURVE_WITH_KNOTS('',8,(#558,#559,#560,#561,#562,#563,
    #564,#565,#566,#567,#568,#569,#570,#571,#572,#573),.UNSPECIFIED.,.F.
  ,.F.,(9,7,9),(0.,0.501508486136,1.),.UNSPECIFIED.);
#558 = CARTESIAN_POINT('',(53.969057333984,73.109624281761,
    -38.64178993741));
#559 = CARTESIAN_POINT('',(53.969057333984,73.109624281761,
    -39.53459850115));
#560 = CARTESIAN_POINT('',(53.878222635999,73.110603477653,
    -40.4511263609));
#561 = CARTESIAN_POINT('',(53.687773961894,73.112654708061,
    -41.38557091553));
#562 = CARTESIAN_POINT('',(53.38752725713,73.115792720926,
    -42.32590320165));
#563 = CARTESIAN_POINT('',(52.968710151431,73.119844726128,
    -43.25459730747));
#564 = CARTESIAN_POINT('',(52.427943039574,73.124392384384,
    -44.15068592611));
#565 = CARTESIAN_POINT('',(51.765426166183,73.128685414632,
    -44.98906350294));
#566 = CARTESIAN_POINT('',(50.236865478859,73.135186113225,
    -46.49279052785));
#567 = CARTESIAN_POINT('',(49.381189006376,73.13736762484,
    -47.15018292537));
#568 = CARTESIAN_POINT('',(48.465933945227,73.137717978504,
    -47.68074163837));
#569 = CARTESIAN_POINT('',(47.526527905048,73.135715148006,
    -48.08162719772));
#570 = CARTESIAN_POINT('',(46.591212578947,73.13135260851,
    -48.35921762103));
#571 = CARTESIAN_POINT('',(45.682717433535,73.12495090754,
    -48.52748623001));
#572 = CARTESIAN_POINT('',(44.817625610674,73.116993128082,
    -48.60309218022));
#573 = CARTESIAN_POINT('',(44.007252967463,73.107994167548,
    -48.60387948423));
#574 = PCURVE('',#44,#575);
#575 = DEFINITIONAL_REPRESENTATION('',(#576),#593);
#576 = B_SPLINE_CURVE_WITH_KNOTS('',8,(#577,#578,#579,#580,#581,#582,
    #583,#584,#585,#586,#587,#588,#589,#590,#591,#592),.UNSPECIFIED.,.F.
  ,.F.,(9,7,9),(0.,0.501508486136,1.),.UNSPECIFIED.);
#577 = CARTESIAN_POINT('',(-1.560019336617,-16.35821006259));
#578 = CARTESIAN_POINT('',(-1.560019336617,-15.46540149884));
#579 = CARTESIAN_POINT('',(-1.560218863993,-14.54887363909));
#580 = CARTESIAN_POINT('',(-1.560637203335,-13.61442908446));
#581 = CARTESIAN_POINT('',(-1.561296722368,-12.67409679835));
#582 = CARTESIAN_POINT('',(-1.562216684903,-11.74540269252));
#583 = CARTESIAN_POINT('',(-1.56340450334,-10.84931407388));
#584 = CARTESIAN_POINT('',(-1.564859729473,-10.01093649705));
#585 = CARTESIAN_POINT('',(-1.568217199289,-8.507209472147));
#586 = CARTESIAN_POINT('',(-1.570096671358,-7.849817074621));
#587 = CARTESIAN_POINT('',(-1.572106994938,-7.319258361635));
#588 = CARTESIAN_POINT('',(-1.574170364614,-6.918372802252));
#589 = CARTESIAN_POINT('',(-1.576224768228,-6.640782378983));
#590 = CARTESIAN_POINT('',(-1.57822029329,-6.472513769982));
#591 = CARTESIAN_POINT('',(-1.580120519466,-6.396907819773));
#592 = CARTESIAN_POINT('',(-1.581900589344,-6.396120515764));
#593 = ( GEOMETRIC_REPRESENTATION_CONTEXT(2) 
PARAMETRIC_REPRESENTATION_CONTEXT() REPRESENTATION_CONTEXT('2D SPACE',''
  ) );
#594 = PCURVE('',#595,#600);
#595 = CYLINDRICAL_SURFACE('',#596,10.);
#596 = AXIS2_PLACEMENT_3D('',#597,#598,#599);
#597 = CARTESIAN_POINT('',(50.47847974471,-1.729974301262,
    -45.11315476192));
#598 = DIRECTION('',(-8.682665150545E-02,0.992432504355,
    8.682659090697E-02));
#599 = DIRECTION('',(0.996194693032,8.715580058482E-02,
    1.387778780781E-17));
#600 = DEFINITIONAL_REPRESENTATION('',(#601),#658);
#601 = B_SPLINE_CURVE_WITH_KNOTS('',10,(#602,#603,#604,#605,#606,#607,
    #608,#609,#610,#611,#612,#613,#614,#615,#616,#617,#618,#619,#620,
    #621,#622,#623,#624,#625,#626,#627,#628,#629,#630,#631,#632,#633,
    #634,#635,#636,#637,#638,#639,#640,#641,#642,#643,#644,#645,#646,
    #647,#648,#649,#650,#651,#652,#653,#654,#655,#656,#657),
  .UNSPECIFIED.,.F.,.F.,(11,9,9,9,9,9,11),(0.,0.5,0.53125,0.5625,0.625,
    0.75,1.),.UNSPECIFIED.);
#602 = CARTESIAN_POINT('',(0.,74.532061628985));
#603 = CARTESIAN_POINT('',(7.094091873119E-02,74.470232546477));
#604 = CARTESIAN_POINT('',(0.143390996545,74.412608308074));
#605 = CARTESIAN_POINT('',(0.217582446313,74.359819026442));
#606 = CARTESIAN_POINT('',(0.293624280633,74.312680933046));
#607 = CARTESIAN_POINT('',(0.371545237511,74.272121707833));
#608 = CARTESIAN_POINT('',(0.451333032759,74.239050412621));
#609 = CARTESIAN_POINT('',(0.532930065682,74.214287034274));
#610 = CARTESIAN_POINT('',(0.616225802916,74.198524495632));
#611 = CARTESIAN_POINT('',(0.701024946719,74.192231448927));
#612 = CARTESIAN_POINT('',(0.792127109205,74.19561631555));
#613 = CARTESIAN_POINT('',(0.797491305567,74.19585251518));
#614 = CARTESIAN_POINT('',(0.802846722284,74.196125270254));
#615 = CARTESIAN_POINT('',(0.808215517565,74.196435210173));
#616 = CARTESIAN_POINT('',(0.813568961493,74.196781349796));
#617 = CARTESIAN_POINT('',(0.81893422653,74.197164396961));
#618 = CARTESIAN_POINT('',(0.8242908439,74.197583633321));
#619 = CARTESIAN_POINT('',(0.829649447241,74.198039229528));
#620 = CARTESIAN_POINT('',(0.835005583684,74.198530917966));
#621 = CARTESIAN_POINT('',(0.845714374462,74.199586210808));
#622 = CARTESIAN_POINT('',(0.851066911754,74.200149813436));
#623 = CARTESIAN_POINT('',(0.856417313418,74.200749208503));
#624 = CARTESIAN_POINT('',(0.861765309744,74.201384223503));
#625 = CARTESIAN_POINT('',(0.867110638848,74.202054677234));
#626 = CARTESIAN_POINT('',(0.872453046669,74.202760379744));
#627 = CARTESIAN_POINT('',(0.877792286967,74.203501132389));
#628 = CARTESIAN_POINT('',(0.883128121329,74.204276727783));
#629 = CARTESIAN_POINT('',(0.888460319164,74.205086949833));
#630 = CARTESIAN_POINT('',(0.904445334785,74.207620821487));
#631 = CARTESIAN_POINT('',(0.915086550037,74.209447712932));
#632 = CARTESIAN_POINT('',(0.925710541851,74.211410417087));
#633 = CARTESIAN_POINT('',(0.936315634255,74.213507020572));
#634 = CARTESIAN_POINT('',(0.946900236908,74.215735527537));
#635 = CARTESIAN_POINT('',(0.957462845111,74.218093859777));
#636 = CARTESIAN_POINT('',(0.968002039794,74.220579856546));
#637 = CARTESIAN_POINT('',(0.978516487527,74.223191274792));
#638 = CARTESIAN_POINT('',(0.989004940513,74.225925788926));
#639 = CARTESIAN_POINT('',(1.020388828748,74.234491395131));
#640 = CARTESIAN_POINT('',(1.041202690805,74.240684706578));
#641 = CARTESIAN_POINT('',(1.061898358894,74.247341904994));
#642 = CARTESIAN_POINT('',(1.082467347644,74.254443245023));
#643 = CARTESIAN_POINT('',(1.102902041697,74.261968418445));
#644 = CARTESIAN_POINT('',(1.123195587237,74.269896716237));
#645 = CARTESIAN_POINT('',(1.143341783506,74.278207190739));
#646 = CARTESIAN_POINT('',(1.163334974327,74.286878817714));
#647 = CARTESIAN_POINT('',(1.183169939631,74.295890658493));
#648 = CARTESIAN_POINT('',(1.242185481649,74.323884749223));
#649 = CARTESIAN_POINT('',(1.280876741335,74.343825438099));
#650 = CARTESIAN_POINT('',(1.318877006996,74.364877815641));
#651 = CARTESIAN_POINT('',(1.356153612976,74.386878190558));
#652 = CARTESIAN_POINT('',(1.392678171339,74.409667821924));
#653 = CARTESIAN_POINT('',(1.428425325676,74.43309469623));
#654 = CARTESIAN_POINT('',(1.463371874366,74.45701471386));
#655 = CARTESIAN_POINT('',(1.497496263295,74.48129228382));
#656 = CARTESIAN_POINT('',(1.530778448025,74.505800327861));
#657 = CARTESIAN_POINT('',(1.563200125428,74.53041969309));
#658 = ( GEOMETRIC_REPRESENTATION_CONTEXT(2) 
PARAMETRIC_REPRESENTATION_CONTEXT() REPRESENTATION_CONTEXT('2D SPACE',''
  ) );
#659 = ADVANCED_FACE('',(#660),#126,.T.);
#660 = FACE_BOUND('',#661,.T.);
#661 = EDGE_LOOP('',(#662,#663,#686,#718));
#662 = ORIENTED_EDGE('',*,*,#416,.T.);
#663 = ORIENTED_EDGE('',*,*,#664,.T.);
#664 = EDGE_CURVE('',#417,#665,#667,.T.);
#665 = VERTEX_POINT('',#666);
#666 = CARTESIAN_POINT('',(-47.47004210721,-7.105427357601E-15,-55.));
#667 = SURFACE_CURVE('',#668,(#672,#679),.PCURVE_S1.);
#668 = LINE('',#669,#670);
#669 = CARTESIAN_POINT('',(-42.14087342299,60.912636059315,
    -49.67083503514));
#670 = VECTOR('',#671,1.);
#671 = DIRECTION('',(-8.682665150545E-02,-0.992432504355,
    -8.682659090697E-02));
#672 = PCURVE('',#126,#673);
#673 = DEFINITIONAL_REPRESENTATION('',(#674),#678);
#674 = LINE('',#675,#676);
#675 = CARTESIAN_POINT('',(1.563200125428,0.));
#676 = VECTOR('',#677,1.);
#677 = DIRECTION('',(0.,1.));
#678 = ( GEOMETRIC_REPRESENTATION_CONTEXT(2) 
PARAMETRIC_REPRESENTATION_CONTEXT() REPRESENTATION_CONTEXT('2D SPACE',''
  ) );
#679 = PCURVE('',#543,#680);
#680 = DEFINITIONAL_REPRESENTATION('',(#681),#685);
#681 = LINE('',#682,#683);
#682 = CARTESIAN_POINT('',(-62.2453451642,9.90375962238));
#683 = VECTOR('',#684,1.);
#684 = DIRECTION('',(0.999999945417,3.304016016984E-04));
#685 = ( GEOMETRIC_REPRESENTATION_CONTEXT(2) 
PARAMETRIC_REPRESENTATION_CONTEXT() REPRESENTATION_CONTEXT('2D SPACE',''
  ) );
#686 = ORIENTED_EDGE('',*,*,#687,.F.);
#687 = EDGE_CURVE('',#85,#665,#688,.T.);
#688 = SURFACE_CURVE('',#689,(#694,#707),.PCURVE_S1.);
#689 = ELLIPSE('',#690,10.076251993078,10.);
#690 = AXIS2_PLACEMENT_3D('',#691,#692,#693);
#691 = CARTESIAN_POINT('',(-47.39379066391,0.,-44.96180162679));
#692 = DIRECTION('',(0.,-1.,0.));
#693 = DIRECTION('',(-0.70710702794,-0.,-0.707106534433));
#694 = PCURVE('',#126,#695);
#695 = DEFINITIONAL_REPRESENTATION('',(#696),#706);
#696 = B_SPLINE_CURVE_WITH_KNOTS('',8,(#697,#698,#699,#700,#701,#702,
    #703,#704,#705),.UNSPECIFIED.,.F.,.F.,(9,9),(5.501585593418,
    7.064785718846),.PIECEWISE_BEZIER_KNOTS.);
#697 = CARTESIAN_POINT('',(2.726774365218E-17,61.377107657896));
#698 = CARTESIAN_POINT('',(0.195400016428,61.547409987527));
#699 = CARTESIAN_POINT('',(0.390800031857,61.679391353799));
#700 = CARTESIAN_POINT('',(0.586200047284,61.76314338285));
#701 = CARTESIAN_POINT('',(0.781600062713,61.79187937337));
#702 = CARTESIAN_POINT('',(0.977000078143,61.763143206655));
#703 = CARTESIAN_POINT('',(1.17240009357,61.679391011603));
#704 = CARTESIAN_POINT('',(1.367800108999,61.547409499024));
#705 = CARTESIAN_POINT('',(1.563200125428,61.377107049631));
#706 = ( GEOMETRIC_REPRESENTATION_CONTEXT(2) 
PARAMETRIC_REPRESENTATION_CONTEXT() REPRESENTATION_CONTEXT('2D SPACE',''
  ) );
#707 = PCURVE('',#100,#708);
#708 = DEFINITIONAL_REPRESENTATION('',(#709),#717);
#709 = ( BOUNDED_CURVE() B_SPLINE_CURVE(2,(#710,#711,#712,#713,#714,#715
,#716),.UNSPECIFIED.,.T.,.F.) B_SPLINE_CURVE_WITH_KNOTS((1,2,2,2,2,1),(
    -2.094395102393,0.,2.094395102393,4.188790204786,6.28318530718,
8.377580409573),.UNSPECIFIED.) CURVE() GEOMETRIC_REPRESENTATION_ITEM() 
RATIONAL_B_SPLINE_CURVE((1.,0.5,1.,0.5,1.,0.5,1.)) REPRESENTATION_ITEM(
  '') );
#710 = CARTESIAN_POINT('',(2.913209826819,-2.913214746308));
#711 = CARTESIAN_POINT('',(15.160654266832,9.334238241509));
#712 = CARTESIAN_POINT('',(19.72441494623,-7.476963692744));
#713 = CARTESIAN_POINT('',(24.288175625628,-24.28816562699));
#714 = CARTESIAN_POINT('',(7.476970506217,-19.72441668056));
#715 = CARTESIAN_POINT('',(-9.334234613195,-15.16066773412));
#716 = CARTESIAN_POINT('',(2.913209826819,-2.913214746308));
#717 = ( GEOMETRIC_REPRESENTATION_CONTEXT(2) 
PARAMETRIC_REPRESENTATION_CONTEXT() REPRESENTATION_CONTEXT('2D SPACE',''
  ) );
#718 = ORIENTED_EDGE('',*,*,#112,.F.);
#719 = ADVANCED_FACE('',(#720),#72,.T.);
#720 = FACE_BOUND('',#721,.F.);
#721 = EDGE_LOOP('',(#722,#723,#746,#774));
#722 = ORIENTED_EDGE('',*,*,#313,.T.);
#723 = ORIENTED_EDGE('',*,*,#724,.T.);
#724 = EDGE_CURVE('',#279,#725,#727,.T.);
#725 = VERTEX_POINT('',#726);
#726 = CARTESIAN_POINT('',(-47.47004210721,7.105427357601E-15,55.));
#727 = SURFACE_CURVE('',#728,(#732,#739),.PCURVE_S1.);
#728 = LINE('',#729,#730);
#729 = CARTESIAN_POINT('',(-42.14087342299,60.912636059315,
    49.670835035149));
#730 = VECTOR('',#731,1.);
#731 = DIRECTION('',(-8.682665150545E-02,-0.992432504355,
    8.682659090697E-02));
#732 = PCURVE('',#72,#733);
#733 = DEFINITIONAL_REPRESENTATION('',(#734),#738);
#734 = LINE('',#735,#736);
#735 = CARTESIAN_POINT('',(-1.563200125428,0.));
#736 = VECTOR('',#737,1.);
#737 = DIRECTION('',(-0.,1.));
#738 = ( GEOMETRIC_REPRESENTATION_CONTEXT(2) 
PARAMETRIC_REPRESENTATION_CONTEXT() REPRESENTATION_CONTEXT('2D SPACE',''
  ) );
#739 = PCURVE('',#301,#740);
#740 = DEFINITIONAL_REPRESENTATION('',(#741),#745);
#741 = LINE('',#742,#743);
#742 = CARTESIAN_POINT('',(-62.2453451642,9.90375962238));
#743 = VECTOR('',#744,1.);
#744 = DIRECTION('',(0.999999945417,3.304016016984E-04));
#745 = ( GEOMETRIC_REPRESENTATION_CONTEXT(2) 
PARAMETRIC_REPRESENTATION_CONTEXT() REPRESENTATION_CONTEXT('2D SPACE',''
  ) );
#746 = ORIENTED_EDGE('',*,*,#747,.F.);
#747 = EDGE_CURVE('',#57,#725,#748,.T.);
#748 = SURFACE_CURVE('',#749,(#754,#767),.PCURVE_S1.);
#749 = ELLIPSE('',#750,10.076251993078,10.);
#750 = AXIS2_PLACEMENT_3D('',#751,#752,#753);
#751 = CARTESIAN_POINT('',(-47.39379066391,0.,44.961801626796));
#752 = DIRECTION('',(0.,1.,0.));
#753 = DIRECTION('',(-0.70710702794,0.,0.707106534433));
#754 = PCURVE('',#72,#755);
#755 = DEFINITIONAL_REPRESENTATION('',(#756),#766);
#756 = B_SPLINE_CURVE_WITH_KNOTS('',8,(#757,#758,#759,#760,#761,#762,
    #763,#764,#765),.UNSPECIFIED.,.F.,.F.,(9,9),(5.501585593418,
    7.064785718846),.PIECEWISE_BEZIER_KNOTS.);
#757 = CARTESIAN_POINT('',(-2.726774230801E-17,61.377107657896));
#758 = CARTESIAN_POINT('',(-0.195400016428,61.547409987527));
#759 = CARTESIAN_POINT('',(-0.390800031856,61.679391353784));
#760 = CARTESIAN_POINT('',(-0.586200047289,61.763143383025));
#761 = CARTESIAN_POINT('',(-0.781600062706,61.791879373137));
#762 = CARTESIAN_POINT('',(-0.977000078145,61.763143206714));
#763 = CARTESIAN_POINT('',(-1.172400093569,61.67939101161));
#764 = CARTESIAN_POINT('',(-1.367800108999,61.547409499024));
#765 = CARTESIAN_POINT('',(-1.563200125428,61.377107049631));
#766 = ( GEOMETRIC_REPRESENTATION_CONTEXT(2) 
PARAMETRIC_REPRESENTATION_CONTEXT() REPRESENTATION_CONTEXT('2D SPACE',''
  ) );
#767 = PCURVE('',#100,#768);
#768 = DEFINITIONAL_REPRESENTATION('',(#769),#773);
#769 = ELLIPSE('',#770,10.076251993078,10.);
#770 = AXIS2_PLACEMENT_2D('',#771,#772);
#771 = CARTESIAN_POINT('',(10.038198426422,-99.96180162679));
#772 = DIRECTION('',(-0.70710702794,-0.707106534433));
#773 = ( GEOMETRIC_REPRESENTATION_CONTEXT(2) 
PARAMETRIC_REPRESENTATION_CONTEXT() REPRESENTATION_CONTEXT('2D SPACE',''
  ) );
#774 = ORIENTED_EDGE('',*,*,#56,.F.);
#775 = ADVANCED_FACE('',(#776),#100,.F.);
#776 = FACE_BOUND('',#777,.F.);
#777 = EDGE_LOOP('',(#778,#779,#780,#801,#835,#858,#888,#907));
#778 = ORIENTED_EDGE('',*,*,#84,.T.);
#779 = ORIENTED_EDGE('',*,*,#747,.T.);
#780 = ORIENTED_EDGE('',*,*,#781,.T.);
#781 = EDGE_CURVE('',#725,#782,#784,.T.);
#782 = VERTEX_POINT('',#783);
#783 = CARTESIAN_POINT('',(50.403377947242,2.6645352591E-15,55.));
#784 = SURFACE_CURVE('',#785,(#789,#795),.PCURVE_S1.);
#785 = LINE('',#786,#787);
#786 = CARTESIAN_POINT('',(-57.43198909034,0.,55.));
#787 = VECTOR('',#788,1.);
#788 = DIRECTION('',(1.,0.,0.));
#789 = PCURVE('',#100,#790);
#790 = DEFINITIONAL_REPRESENTATION('',(#791),#794);
#791 = B_SPLINE_CURVE_WITH_KNOTS('',1,(#792,#793),.UNSPECIFIED.,.F.,.F.,
  (2,2),(0.,117.79731402071),.PIECEWISE_BEZIER_KNOTS.);
#792 = CARTESIAN_POINT('',(0.,-110.));
#793 = CARTESIAN_POINT('',(117.79731402071,-110.));
#794 = ( GEOMETRIC_REPRESENTATION_CONTEXT(2) 
PARAMETRIC_REPRESENTATION_CONTEXT() REPRESENTATION_CONTEXT('2D SPACE',''
  ) );
#795 = PCURVE('',#301,#796);
#796 = DEFINITIONAL_REPRESENTATION('',(#797),#800);
#797 = B_SPLINE_CURVE_WITH_KNOTS('',1,(#798,#799),.UNSPECIFIED.,.F.,.F.,
  (2,2),(0.,117.79731402071),.PIECEWISE_BEZIER_KNOTS.);
#798 = CARTESIAN_POINT('',(0.,0.));
#799 = CARTESIAN_POINT('',(-10.26671921021,117.34905908081));
#800 = ( GEOMETRIC_REPRESENTATION_CONTEXT(2) 
PARAMETRIC_REPRESENTATION_CONTEXT() REPRESENTATION_CONTEXT('2D SPACE',''
  ) );
#801 = ORIENTED_EDGE('',*,*,#802,.F.);
#802 = EDGE_CURVE('',#803,#782,#805,.T.);
#803 = VERTEX_POINT('',#804);
#804 = CARTESIAN_POINT('',(60.365324930372,8.881784197001E-16,
    45.038053069683));
#805 = SURFACE_CURVE('',#806,(#811,#822),.PCURVE_S1.);
#806 = ELLIPSE('',#807,10.076251993078,10.);
#807 = AXIS2_PLACEMENT_3D('',#808,#809,#810);
#808 = CARTESIAN_POINT('',(50.327126503951,0.,44.961801626796));
#809 = DIRECTION('',(0.,-1.,0.));
#810 = DIRECTION('',(-0.70710702794,-0.,-0.707106534433));
#811 = PCURVE('',#100,#812);
#812 = DEFINITIONAL_REPRESENTATION('',(#813),#821);
#813 = ( BOUNDED_CURVE() B_SPLINE_CURVE(2,(#814,#815,#816,#817,#818,#819
,#820),.UNSPECIFIED.,.T.,.F.) B_SPLINE_CURVE_WITH_KNOTS((1,2,2,2,2,1),(
    -2.094395102393,0.,2.094395102393,4.188790204786,6.28318530718,
8.377580409573),.UNSPECIFIED.) CURVE() GEOMETRIC_REPRESENTATION_ITEM() 
RATIONAL_B_SPLINE_CURVE((1.,0.5,1.,0.5,1.,0.5,1.)) REPRESENTATION_ITEM(
  '') );
#814 = CARTESIAN_POINT('',(100.63412699468,-92.8368179999));
#815 = CARTESIAN_POINT('',(112.8815714347,-80.58936501208));
#816 = CARTESIAN_POINT('',(117.44533211409,-97.40056694633));
#817 = CARTESIAN_POINT('',(122.00909279349,-114.2117688805));
#818 = CARTESIAN_POINT('',(105.19788767408,-109.6480199341));
#819 = CARTESIAN_POINT('',(88.386682554674,-105.0842709877));
#820 = CARTESIAN_POINT('',(100.63412699468,-92.8368179999));
#821 = ( GEOMETRIC_REPRESENTATION_CONTEXT(2) 
PARAMETRIC_REPRESENTATION_CONTEXT() REPRESENTATION_CONTEXT('2D SPACE',''
  ) );
#822 = PCURVE('',#213,#823);
#823 = DEFINITIONAL_REPRESENTATION('',(#824),#834);
#824 = B_SPLINE_CURVE_WITH_KNOTS('',8,(#825,#826,#827,#828,#829,#830,
    #831,#832,#833),.UNSPECIFIED.,.F.,.F.,(9,9),(2.359992939828,
    3.923193065256),.PIECEWISE_BEZIER_KNOTS.);
#825 = CARTESIAN_POINT('',(-2.726774259235E-17,0.864961890755));
#826 = CARTESIAN_POINT('',(-0.195400016428,0.694659561124));
#827 = CARTESIAN_POINT('',(-0.390800031856,0.562678194827));
#828 = CARTESIAN_POINT('',(-0.586200047283,0.47892616567));
#829 = CARTESIAN_POINT('',(-0.781600062712,0.450190175111));
#830 = CARTESIAN_POINT('',(-0.977000078142,0.478926341994));
#831 = CARTESIAN_POINT('',(-1.172400093571,0.562678537027));
#832 = CARTESIAN_POINT('',(-1.367800108999,0.694660049628));
#833 = CARTESIAN_POINT('',(-1.563200125428,0.86496249902));
#834 = ( GEOMETRIC_REPRESENTATION_CONTEXT(2) 
PARAMETRIC_REPRESENTATION_CONTEXT() REPRESENTATION_CONTEXT('2D SPACE',''
  ) );
#835 = ORIENTED_EDGE('',*,*,#836,.F.);
#836 = EDGE_CURVE('',#837,#803,#839,.T.);
#837 = VERTEX_POINT('',#838);
#838 = CARTESIAN_POINT('',(60.365324930372,8.881784197001E-16,
    -45.03805306968));
#839 = SURFACE_CURVE('',#840,(#844,#851),.PCURVE_S1.);
#840 = LINE('',#841,#842);
#841 = CARTESIAN_POINT('',(60.365324930372,0.,-55.));
#842 = VECTOR('',#843,1.);
#843 = DIRECTION('',(0.,0.,1.));
#844 = PCURVE('',#100,#845);
#845 = DEFINITIONAL_REPRESENTATION('',(#846),#850);
#846 = LINE('',#847,#848);
#847 = CARTESIAN_POINT('',(117.79731402071,0.));
#848 = VECTOR('',#849,1.);
#849 = DIRECTION('',(0.,-1.));
#850 = ( GEOMETRIC_REPRESENTATION_CONTEXT(2) 
PARAMETRIC_REPRESENTATION_CONTEXT() REPRESENTATION_CONTEXT('2D SPACE',''
  ) );
#851 = PCURVE('',#159,#852);
#852 = DEFINITIONAL_REPRESENTATION('',(#853),#857);
#853 = LINE('',#854,#855);
#854 = CARTESIAN_POINT('',(-4.390387898017E-16,-0.));
#855 = VECTOR('',#856,1.);
#856 = DIRECTION('',(0.,-1.));
#857 = ( GEOMETRIC_REPRESENTATION_CONTEXT(2) 
PARAMETRIC_REPRESENTATION_CONTEXT() REPRESENTATION_CONTEXT('2D SPACE',''
  ) );
#858 = ORIENTED_EDGE('',*,*,#859,.T.);
#859 = EDGE_CURVE('',#837,#860,#862,.T.);
#860 = VERTEX_POINT('',#861);
#861 = CARTESIAN_POINT('',(50.403377947242,1.7763568394E-15,-55.));
#862 = SURFACE_CURVE('',#863,(#868,#875),.PCURVE_S1.);
#863 = ELLIPSE('',#864,10.076251993078,10.);
#864 = AXIS2_PLACEMENT_3D('',#865,#866,#867);
#865 = CARTESIAN_POINT('',(50.327126503951,0.,-44.96180162679));
#866 = DIRECTION('',(0.,1.,0.));
#867 = DIRECTION('',(-0.70710702794,0.,0.707106534433));
#868 = PCURVE('',#100,#869);
#869 = DEFINITIONAL_REPRESENTATION('',(#870),#874);
#870 = ELLIPSE('',#871,10.076251993078,10.);
#871 = AXIS2_PLACEMENT_2D('',#872,#873);
#872 = CARTESIAN_POINT('',(107.75911559429,-10.0381983732));
#873 = DIRECTION('',(-0.70710702794,-0.707106534433));
#874 = ( GEOMETRIC_REPRESENTATION_CONTEXT(2) 
PARAMETRIC_REPRESENTATION_CONTEXT() REPRESENTATION_CONTEXT('2D SPACE',''
  ) );
#875 = PCURVE('',#595,#876);
#876 = DEFINITIONAL_REPRESENTATION('',(#877),#887);
#877 = B_SPLINE_CURVE_WITH_KNOTS('',8,(#878,#879,#880,#881,#882,#883,
    #884,#885,#886),.UNSPECIFIED.,.F.,.F.,(9,9),(2.359992939828,
    3.923193065256),.PIECEWISE_BEZIER_KNOTS.);
#878 = CARTESIAN_POINT('',(2.726774259235E-17,0.864961890755));
#879 = CARTESIAN_POINT('',(0.195400016428,0.694659561124));
#880 = CARTESIAN_POINT('',(0.390800031856,0.562678194828));
#881 = CARTESIAN_POINT('',(0.586200047283,0.478926165668));
#882 = CARTESIAN_POINT('',(0.781600062712,0.450190175118));
#883 = CARTESIAN_POINT('',(0.977000078142,0.478926341991));
#884 = CARTESIAN_POINT('',(1.172400093571,0.562678537028));
#885 = CARTESIAN_POINT('',(1.367800108999,0.694660049628));
#886 = CARTESIAN_POINT('',(1.563200125428,0.86496249902));
#887 = ( GEOMETRIC_REPRESENTATION_CONTEXT(2) 
PARAMETRIC_REPRESENTATION_CONTEXT() REPRESENTATION_CONTEXT('2D SPACE',''
  ) );
#888 = ORIENTED_EDGE('',*,*,#889,.F.);
#889 = EDGE_CURVE('',#665,#860,#890,.T.);
#890 = SURFACE_CURVE('',#891,(#895,#901),.PCURVE_S1.);
#891 = LINE('',#892,#893);
#892 = CARTESIAN_POINT('',(-57.43198909034,0.,-55.));
#893 = VECTOR('',#894,1.);
#894 = DIRECTION('',(1.,0.,0.));
#895 = PCURVE('',#100,#896);
#896 = DEFINITIONAL_REPRESENTATION('',(#897),#900);
#897 = B_SPLINE_CURVE_WITH_KNOTS('',1,(#898,#899),.UNSPECIFIED.,.F.,.F.,
  (2,2),(7.105427357601E-15,117.79731402071),.PIECEWISE_BEZIER_KNOTS.);
#898 = CARTESIAN_POINT('',(7.105427357601E-15,0.));
#899 = CARTESIAN_POINT('',(117.79731402071,0.));
#900 = ( GEOMETRIC_REPRESENTATION_CONTEXT(2) 
PARAMETRIC_REPRESENTATION_CONTEXT() REPRESENTATION_CONTEXT('2D SPACE',''
  ) );
#901 = PCURVE('',#543,#902);
#902 = DEFINITIONAL_REPRESENTATION('',(#903),#906);
#903 = B_SPLINE_CURVE_WITH_KNOTS('',1,(#904,#905),.UNSPECIFIED.,.F.,.F.,
  (2,2),(7.105427357601E-15,117.79731402071),.PIECEWISE_BEZIER_KNOTS.);
#904 = CARTESIAN_POINT('',(-6.19279209849E-16,7.078389025364E-15));
#905 = CARTESIAN_POINT('',(-10.26671921021,117.34905908081));
#906 = ( GEOMETRIC_REPRESENTATION_CONTEXT(2) 
PARAMETRIC_REPRESENTATION_CONTEXT() REPRESENTATION_CONTEXT('2D SPACE',''
  ) );
#907 = ORIENTED_EDGE('',*,*,#687,.F.);
#908 = ADVANCED_FACE('',(#909),#159,.F.);
#909 = FACE_BOUND('',#910,.F.);
#910 = EDGE_LOOP('',(#911,#912,#933,#934));
#911 = ORIENTED_EDGE('',*,*,#836,.T.);
#912 = ORIENTED_EDGE('',*,*,#913,.T.);
#913 = EDGE_CURVE('',#803,#144,#914,.T.);
#914 = SURFACE_CURVE('',#915,(#919,#926),.PCURVE_S1.);
#915 = LINE('',#916,#917);
#916 = CARTESIAN_POINT('',(60.440426675026,-0.858416295414,
    45.113154761922));
#917 = VECTOR('',#918,1.);
#918 = DIRECTION('',(-8.682665150545E-02,0.992432504355,
    -8.682659090697E-02));
#919 = PCURVE('',#159,#920);
#920 = DEFINITIONAL_REPRESENTATION('',(#921),#925);
#921 = LINE('',#922,#923);
#922 = CARTESIAN_POINT('',(-0.861695310584,-100.1131547619));
#923 = VECTOR('',#924,1.);
#924 = DIRECTION('',(0.996223440354,8.682659090697E-02));
#925 = ( GEOMETRIC_REPRESENTATION_CONTEXT(2) 
PARAMETRIC_REPRESENTATION_CONTEXT() REPRESENTATION_CONTEXT('2D SPACE',''
  ) );
#926 = PCURVE('',#213,#927);
#927 = DEFINITIONAL_REPRESENTATION('',(#928),#932);
#928 = LINE('',#929,#930);
#929 = CARTESIAN_POINT('',(-0.,0.));
#930 = VECTOR('',#931,1.);
#931 = DIRECTION('',(-0.,1.));
#932 = ( GEOMETRIC_REPRESENTATION_CONTEXT(2) 
PARAMETRIC_REPRESENTATION_CONTEXT() REPRESENTATION_CONTEXT('2D SPACE',''
  ) );
#933 = ORIENTED_EDGE('',*,*,#141,.F.);
#934 = ORIENTED_EDGE('',*,*,#935,.F.);
#935 = EDGE_CURVE('',#837,#142,#936,.T.);
#936 = SURFACE_CURVE('',#937,(#941,#948),.PCURVE_S1.);
#937 = LINE('',#938,#939);
#938 = CARTESIAN_POINT('',(60.440426675026,-0.858416295414,
    -45.11315476192));
#939 = VECTOR('',#940,1.);
#940 = DIRECTION('',(-8.682665150545E-02,0.992432504355,
    8.682659090697E-02));
#941 = PCURVE('',#159,#942);
#942 = DEFINITIONAL_REPRESENTATION('',(#943),#947);
#943 = LINE('',#944,#945);
#944 = CARTESIAN_POINT('',(-0.861695310584,-9.886845238078));
#945 = VECTOR('',#946,1.);
#946 = DIRECTION('',(0.996223440354,-8.682659090697E-02));
#947 = ( GEOMETRIC_REPRESENTATION_CONTEXT(2) 
PARAMETRIC_REPRESENTATION_CONTEXT() REPRESENTATION_CONTEXT('2D SPACE',''
  ) );
#948 = PCURVE('',#595,#949);
#949 = DEFINITIONAL_REPRESENTATION('',(#950),#954);
#950 = LINE('',#951,#952);
#951 = CARTESIAN_POINT('',(0.,0.));
#952 = VECTOR('',#953,1.);
#953 = DIRECTION('',(0.,1.));
#954 = ( GEOMETRIC_REPRESENTATION_CONTEXT(2) 
PARAMETRIC_REPRESENTATION_CONTEXT() REPRESENTATION_CONTEXT('2D SPACE',''
  ) );
#955 = ADVANCED_FACE('',(#956),#595,.T.);
#956 = FACE_BOUND('',#957,.T.);
#957 = EDGE_LOOP('',(#958,#959,#980,#981));
#958 = ORIENTED_EDGE('',*,*,#859,.T.);
#959 = ORIENTED_EDGE('',*,*,#960,.T.);
#960 = EDGE_CURVE('',#860,#521,#961,.T.);
#961 = SURFACE_CURVE('',#962,(#966,#973),.PCURVE_S1.);
#962 = LINE('',#963,#964);
#963 = CARTESIAN_POINT('',(50.47847974471,-0.858416899075,
    -55.07510174505));
#964 = VECTOR('',#965,1.);
#965 = DIRECTION('',(-8.682665150545E-02,0.992432504355,
    8.682659090697E-02));
#966 = PCURVE('',#595,#967);
#967 = DEFINITIONAL_REPRESENTATION('',(#968),#972);
#968 = LINE('',#969,#970);
#969 = CARTESIAN_POINT('',(1.563200125428,0.));
#970 = VECTOR('',#971,1.);
#971 = DIRECTION('',(0.,1.));
#972 = ( GEOMETRIC_REPRESENTATION_CONTEXT(2) 
PARAMETRIC_REPRESENTATION_CONTEXT() REPRESENTATION_CONTEXT('2D SPACE',''
  ) );
#973 = PCURVE('',#543,#974);
#974 = DEFINITIONAL_REPRESENTATION('',(#975),#979);
#975 = LINE('',#976,#977);
#976 = CARTESIAN_POINT('',(-8.546606408278,107.5749381731));
#977 = VECTOR('',#978,1.);
#978 = DIRECTION('',(-0.984865052769,-0.173322900489));
#979 = ( GEOMETRIC_REPRESENTATION_CONTEXT(2) 
PARAMETRIC_REPRESENTATION_CONTEXT() REPRESENTATION_CONTEXT('2D SPACE',''
  ) );
#980 = ORIENTED_EDGE('',*,*,#555,.F.);
#981 = ORIENTED_EDGE('',*,*,#935,.F.);
#982 = ADVANCED_FACE('',(#983),#213,.T.);
#983 = FACE_BOUND('',#984,.F.);
#984 = EDGE_LOOP('',(#985,#986,#1007,#1008));
#985 = ORIENTED_EDGE('',*,*,#802,.T.);
#986 = ORIENTED_EDGE('',*,*,#987,.T.);
#987 = EDGE_CURVE('',#782,#172,#988,.T.);
#988 = SURFACE_CURVE('',#989,(#993,#1000),.PCURVE_S1.);
#989 = LINE('',#990,#991);
#990 = CARTESIAN_POINT('',(50.47847974471,-0.858416899075,
    55.075101745052));
#991 = VECTOR('',#992,1.);
#992 = DIRECTION('',(-8.682665150545E-02,0.992432504355,
    -8.682659090697E-02));
#993 = PCURVE('',#213,#994);
#994 = DEFINITIONAL_REPRESENTATION('',(#995),#999);
#995 = LINE('',#996,#997);
#996 = CARTESIAN_POINT('',(-1.563200125428,0.));
#997 = VECTOR('',#998,1.);
#998 = DIRECTION('',(-0.,1.));
#999 = ( GEOMETRIC_REPRESENTATION_CONTEXT(2) 
PARAMETRIC_REPRESENTATION_CONTEXT() REPRESENTATION_CONTEXT('2D SPACE',''
  ) );
#1000 = PCURVE('',#301,#1001);
#1001 = DEFINITIONAL_REPRESENTATION('',(#1002),#1006);
#1002 = LINE('',#1003,#1004);
#1003 = CARTESIAN_POINT('',(-8.546606408278,107.5749381731));
#1004 = VECTOR('',#1005,1.);
#1005 = DIRECTION('',(-0.984865052769,-0.173322900489));
#1006 = ( GEOMETRIC_REPRESENTATION_CONTEXT(2) 
PARAMETRIC_REPRESENTATION_CONTEXT() REPRESENTATION_CONTEXT('2D SPACE',''
  ) );
#1007 = ORIENTED_EDGE('',*,*,#171,.F.);
#1008 = ORIENTED_EDGE('',*,*,#913,.F.);
#1009 = ADVANCED_FACE('',(#1010),#543,.F.);
#1010 = FACE_BOUND('',#1011,.F.);
#1011 = EDGE_LOOP('',(#1012,#1013,#1014,#1015));
#1012 = ORIENTED_EDGE('',*,*,#889,.T.);
#1013 = ORIENTED_EDGE('',*,*,#960,.T.);
#1014 = ORIENTED_EDGE('',*,*,#520,.T.);
#1015 = ORIENTED_EDGE('',*,*,#664,.T.);
#1016 = ADVANCED_FACE('',(#1017),#301,.T.);
#1017 = FACE_BOUND('',#1018,.T.);
#1018 = EDGE_LOOP('',(#1019,#1020,#1021,#1022));
#1019 = ORIENTED_EDGE('',*,*,#781,.T.);
#1020 = ORIENTED_EDGE('',*,*,#987,.T.);
#1021 = ORIENTED_EDGE('',*,*,#278,.T.);
#1022 = ORIENTED_EDGE('',*,*,#724,.T.);
#1023 = ( GEOMETRIC_REPRESENTATION_CONTEXT(3) 
GLOBAL_UNCERTAINTY_ASSIGNED_CONTEXT((#1027)) 
GLOBAL_UNIT_ASSIGNED_CONTEXT((#1024,#1025,#1026)) REPRESENTATION_CONTEXT
('Context #1','3D Context with UNIT and UNCERTAINTY') );
#1024 = ( LENGTH_UNIT() NAMED_UNIT(*) SI_UNIT(.MILLI.,.METRE.) );
#1025 = ( NAMED_UNIT(*) PLANE_ANGLE_UNIT() SI_UNIT($,.RADIAN.) );
#1026 = ( NAMED_UNIT(*) SI_UNIT($,.STERADIAN.) SOLID_ANGLE_UNIT() );
#1027 = UNCERTAINTY_MEASURE_WITH_UNIT(LENGTH_MEASURE(2.E-06),#1024,
  'distance_accuracy_value','confusion accuracy');
#1028 = PRODUCT_RELATED_PRODUCT_CATEGORY('part',$,(#7));
ENDSEC;
END-ISO-10303-21;
