ISO-10303-21;
HEADER;
FILE_DESCRIPTION(('Open CASCADE Model'),'2;1');
FILE_NAME('Open CASCADE Shape Model','2026-07-11T20:15:50',('Author'),(
    'Open CASCADE'),'Open CASCADE STEP processor 8.0','Open CASCADE 8.0'
  ,'Unknown');
FILE_SCHEMA(('AUTOMOTIVE_DESIGN { 1 0 10303 214 1 1 1 1 }'));
ENDSEC;
DATA;
#1 = APPLICATION_PROTOCOL_DEFINITION('international standard',
  'automotive_design',2000,#2);
#2 = APPLICATION_CONTEXT(
  'core data for automotive mechanical design processes');
#3 = SHAPE_DEFINITION_REPRESENTATION(#4,#10);
#4 = PRODUCT_DEFINITION_SHAPE('','',#5);
#5 = PRODUCT_DEFINITION('design','',#6,#9);
#6 = PRODUCT_DEFINITION_FORMATION('','',#7);
#7 = PRODUCT('Open CASCADE STEP translator 8.0 1',
  'Open CASCADE STEP translator 8.0 1','',(#8));
#8 = PRODUCT_CONTEXT('',#2,'mechanical');
#9 = PRODUCT_DEFINITION_CONTEXT('part definition',#2,'design');
#10 = ADVANCED_BREP_SHAPE_REPRESENTATION('',(#11,#15),#284);
#11 = AXIS2_PLACEMENT_3D('',#12,#13,#14);
#12 = CARTESIAN_POINT('',(0.,0.,0.));
#13 = DIRECTION('',(0.,0.,1.));
#14 = DIRECTION('',(1.,0.,-0.));
#15 = MANIFOLD_SOLID_BREP('',#16);
#16 = CLOSED_SHELL('',(#17,#203,#280));
#17 = ADVANCED_FACE('',(#18),#34,.F.);
#18 = FACE_BOUND('',#19,.F.);
#19 = EDGE_LOOP('',(#20));
#20 = ORIENTED_EDGE('',*,*,#21,.T.);
#21 = EDGE_CURVE('',#22,#22,#24,.T.);
#22 = VERTEX_POINT('',#23);
#23 = CARTESIAN_POINT('',(3.552713678801E-14,8.881784197001E-15,50.));
#24 = SURFACE_CURVE('',#25,(#33,#49),.PCURVE_S1.);
#25 = ( BOUNDED_CURVE() B_SPLINE_CURVE(6,(#26,#27,#28,#29,#30,#31,#32),
.UNSPECIFIED.,.T.,.F.) B_SPLINE_CURVE_WITH_KNOTS((1,6,6,1),(
    -6.28318530718,0.,6.28318530718,12.566370614359),.UNSPECIFIED.) 
CURVE() GEOMETRIC_REPRESENTATION_ITEM() RATIONAL_B_SPLINE_CURVE((
    1.669078461068,1.03672962321,1.038346699848,0.853534330196,
1.038346699848,1.03672962321,1.669078461068)) REPRESENTATION_ITEM('') );
#26 = CARTESIAN_POINT('',(3.552713678801E-14,8.881784197001E-15,50.));
#27 = CARTESIAN_POINT('',(-1.7763568394E-14,-83.07715377855,50.));
#28 = CARTESIAN_POINT('',(-1.7763568394E-14,-95.00561916228,
    -52.7274095274));
#29 = CARTESIAN_POINT('',(0.,-1.68753899743E-13,-137.4558460504));
#30 = CARTESIAN_POINT('',(-1.7763568394E-14,95.00561916228,
    -52.7274095274));
#31 = CARTESIAN_POINT('',(0.,83.077153778553,50.));
#32 = CARTESIAN_POINT('',(3.552713678801E-14,8.881784197001E-15,50.));
#33 = PCURVE('',#34,#39);
#34 = PLANE('',#35);
#35 = AXIS2_PLACEMENT_3D('',#36,#37,#38);
#36 = CARTESIAN_POINT('',(0.,-3.428682531579E-15,-2.734880265079E-15));
#37 = DIRECTION('',(1.,0.,0.));
#38 = DIRECTION('',(0.,0.,1.));
#39 = DEFINITIONAL_REPRESENTATION('',(#40),#48);
#40 = ( BOUNDED_CURVE() B_SPLINE_CURVE(6,(#41,#42,#43,#44,#45,#46,#47),
.UNSPECIFIED.,.T.,.F.) B_SPLINE_CURVE_WITH_KNOTS((1,6,6,1),(
    -6.28318530718,0.,6.28318530718,12.566370614359),.UNSPECIFIED.) 
CURVE() GEOMETRIC_REPRESENTATION_ITEM() RATIONAL_B_SPLINE_CURVE((
    1.669078461068,1.03672962321,1.038346699848,0.853534330196,
1.038346699848,1.03672962321,1.669078461068)) REPRESENTATION_ITEM('') );
#41 = CARTESIAN_POINT('',(50.,-1.231046672858E-14));
#42 = CARTESIAN_POINT('',(50.,83.077153778553));
#43 = CARTESIAN_POINT('',(-52.7274095274,95.00561916228));
#44 = CARTESIAN_POINT('',(-137.4558460504,1.653252172114E-13));
#45 = CARTESIAN_POINT('',(-52.7274095274,-95.00561916228));
#46 = CARTESIAN_POINT('',(50.,-83.07715377855));
#47 = CARTESIAN_POINT('',(50.,-1.231046672858E-14));
#48 = ( GEOMETRIC_REPRESENTATION_CONTEXT(2) 
PARAMETRIC_REPRESENTATION_CONTEXT() REPRESENTATION_CONTEXT('2D SPACE',''
  ) );
#49 = PCURVE('',#50,#198);
#50 = ( BOUNDED_SURFACE() B_SPLINE_SURFACE(6,11,(
    (#51,#52,#53,#54,#55,#56,#57,#58,#59,#60,#61,#62,#63,#64,#65,#66,#67
      ,#68,#69,#70,#71)
    ,(#72,#73,#74,#75,#76,#77,#78,#79,#80,#81,#82,#83,#84,#85,#86,#87
      ,#88,#89,#90,#91,#92)
    ,(#93,#94,#95,#96,#97,#98,#99,#100,#101,#102,#103,#104,#105,#106
      ,#107,#108,#109,#110,#111,#112,#113)
    ,(#114,#115,#116,#117,#118,#119,#120,#121,#122,#123,#124,#125,#126
      ,#127,#128,#129,#130,#131,#132,#133,#134)
    ,(#135,#136,#137,#138,#139,#140,#141,#142,#143,#144,#145,#146,#147
      ,#148,#149,#150,#151,#152,#153,#154,#155)
    ,(#156,#157,#158,#159,#160,#161,#162,#163,#164,#165,#166,#167,#168
      ,#169,#170,#171,#172,#173,#174,#175,#176)
    ,(#177,#178,#179,#180,#181,#182,#183,#184,#185,#186,#187,#188,#189
      ,#190,#191,#192,#193,#194,#195,#196,#197
)),.UNSPECIFIED.,.T.,.F.,.F.) B_SPLINE_SURFACE_WITH_KNOTS((1,6,6,1),(12,
    9,12),(-6.28318530718,0.,6.28318530718,12.566370614359),(0.,0.5,1.),
.UNSPECIFIED.) GEOMETRIC_REPRESENTATION_ITEM() RATIONAL_B_SPLINE_SURFACE
((
    (1.669078461068,1.669078461068,1.669078461068,1.669078461068
      ,1.669078461068,1.669078461068,1.669078461068,1.669078461068
      ,1.669078461068,1.669078461068,1.669078461068,1.669078461068
      ,1.669078461068,1.669078461068,1.669078461069,1.669078461068
      ,1.669078461069,1.669078461068,1.669078461068,1.669078461068
      ,1.669078461068)
    ,(1.03672962321,1.03672962321,1.03672962321,1.03672962321
      ,1.036729623209,1.03672962321,1.036729623209,1.03672962321
      ,1.03672962321,1.03672962321,1.03672962321,1.03672962321
      ,1.03672962321,1.036729623209,1.03672962321,1.036729623209
      ,1.03672962321,1.036729623209,1.03672962321,1.03672962321
      ,1.03672962321)
    ,(1.038346699848,1.038346699848,1.038346699847,1.038346699848
      ,1.038346699847,1.038346699848,1.038346699847,1.038346699848
      ,1.038346699847,1.038346699848,1.038346699847,1.038346699848
      ,1.038346699847,1.038346699848,1.038346699847,1.038346699848
      ,1.038346699847,1.038346699848,1.038346699847,1.038346699848
      ,1.038346699848)
    ,(0.853534330196,0.853534330196,0.853534330196,0.853534330196
      ,0.853534330196,0.853534330196,0.853534330196,0.853534330196
      ,0.853534330196,0.853534330196,0.853534330196,0.853534330196
      ,0.853534330196,0.853534330196,0.853534330196,0.853534330196
      ,0.853534330196,0.853534330196,0.853534330196,0.853534330196
      ,0.853534330196)
    ,(1.038346699848,1.038346699848,1.038346699848,1.038346699848
      ,1.038346699847,1.038346699848,1.038346699847,1.038346699848
      ,1.038346699847,1.038346699848,1.038346699847,1.038346699848
      ,1.038346699847,1.038346699848,1.038346699847,1.038346699848
      ,1.038346699847,1.038346699848,1.038346699847,1.038346699848
      ,1.038346699848)
    ,(1.03672962321,1.03672962321,1.03672962321,1.03672962321
      ,1.03672962321,1.03672962321,1.03672962321,1.03672962321
      ,1.03672962321,1.03672962321,1.03672962321,1.03672962321
      ,1.03672962321,1.03672962321,1.036729623209,1.03672962321
      ,1.036729623209,1.03672962321,1.03672962321,1.03672962321
      ,1.03672962321)
    ,(1.669078461068,1.669078461068,1.669078461068,1.669078461068
      ,1.669078461068,1.669078461068,1.669078461068,1.669078461068
      ,1.669078461068,1.669078461068,1.669078461068,1.669078461068
      ,1.669078461068,1.669078461068,1.669078461069,1.669078461068
      ,1.669078461069,1.669078461068,1.669078461068,1.669078461068
,1.669078461068))) REPRESENTATION_ITEM('') SURFACE() );
#51 = CARTESIAN_POINT('',(3.552713678801E-14,8.881784197001E-15,50.));
#52 = CARTESIAN_POINT('',(13.636363636365,1.580957587066E-12,
    49.999999999999));
#53 = CARTESIAN_POINT('',(25.909090909087,1.36363636363,50.000000000002)
  );
#54 = CARTESIAN_POINT('',(36.969696969707,3.93939393941,49.999999999995)
  );
#55 = CARTESIAN_POINT('',(46.969696969682,7.57575757573,50.000000000006)
  );
#56 = CARTESIAN_POINT('',(56.060606060622,12.121212121247,
    49.999999999994));
#57 = CARTESIAN_POINT('',(64.393939393927,17.424242424211,
    50.000000000003));
#58 = CARTESIAN_POINT('',(72.12121212122,23.333333333355,50.));
#59 = CARTESIAN_POINT('',(79.393939393936,29.69696969696,49.999999999999
    ));
#60 = CARTESIAN_POINT('',(86.363636363637,36.363636363639,
    50.000000000001));
#61 = CARTESIAN_POINT('',(99.999999999999,49.999999999998,
    49.999999999999));
#62 = CARTESIAN_POINT('',(113.63636363636,63.636363636365,
    50.000000000002));
#63 = CARTESIAN_POINT('',(120.60606060605,70.303030303026,
    49.999999999993));
#64 = CARTESIAN_POINT('',(127.87878787881,76.666666666677,
    50.000000000016));
#65 = CARTESIAN_POINT('',(135.60606060602,82.575757575741,
    49.999999999977));
#66 = CARTESIAN_POINT('',(143.93939393943,87.878787878806,
    50.000000000023));
#67 = CARTESIAN_POINT('',(153.03030303026,92.424242424227,
    49.999999999983));
#68 = CARTESIAN_POINT('',(163.03030303032,96.060606060615,
    50.000000000009));
#69 = CARTESIAN_POINT('',(174.09090909089,98.63636363636,49.999999999997
    ));
#70 = CARTESIAN_POINT('',(186.36363636363,100.,50.000000000001));
#71 = CARTESIAN_POINT('',(200.,100.,50.));
#72 = CARTESIAN_POINT('',(-1.7763568394E-14,-83.07715377855,50.));
#73 = CARTESIAN_POINT('',(21.188832161687,-83.07715377854,
    50.000000000001));
#74 = CARTESIAN_POINT('',(41.769274812266,-80.95827056239,
    49.999999999997));
#75 = CARTESIAN_POINT('',(61.643704490929,-76.61378345661,
    50.000000000008));
#76 = CARTESIAN_POINT('',(80.432538915648,-70.05936788614,
    49.999999999987));
#77 = CARTESIAN_POINT('',(97.631836227276,-61.30154676037,
    50.000000000016));
#78 = CARTESIAN_POINT('',(111.95711026663,-51.50362873371,
    49.999999999984));
#79 = CARTESIAN_POINT('',(124.38519900538,-41.75415906357,
    50.000000000011));
#80 = CARTESIAN_POINT('',(134.93141979723,-32.24684576986,
    49.999999999994));
#81 = CARTESIAN_POINT('',(144.03997482033,-23.44886277664,
    50.000000000002));
#82 = CARTESIAN_POINT('',(159.81249914028,-7.6763384567,49.999999999998)
  );
#83 = CARTESIAN_POINT('',(171.31270209307,3.823864496079,50.000000000003
    ));
#84 = CARTESIAN_POINT('',(176.14354100933,8.359214836209,49.999999999988
    ));
#85 = CARTESIAN_POINT('',(180.14277476301,11.579174269724,
    50.000000000026));
#86 = CARTESIAN_POINT('',(183.16923147868,13.647886417869,
    49.999999999961));
#87 = CARTESIAN_POINT('',(185.51062410615,14.456028997122,
    50.000000000041));
#88 = CARTESIAN_POINT('',(186.49314497618,14.789116962414,
    49.999999999969));
#89 = CARTESIAN_POINT('',(187.70431055157,15.50742866455,50.000000000017
    ));
#90 = CARTESIAN_POINT('',(189.95109299407,16.314456710348,
    49.999999999993));
#91 = CARTESIAN_POINT('',(193.91610488896,16.922846221446,
    50.000000000002));
#92 = CARTESIAN_POINT('',(200.,16.922846221447,50.));
#93 = CARTESIAN_POINT('',(-1.7763568394E-14,-95.00561916228,
    -52.7274095274));
#94 = CARTESIAN_POINT('',(22.273238105663,-95.00561916227,-52.7274095274
    ));
#95 = CARTESIAN_POINT('',(44.046527294612,-92.77829535172,
    -52.72740952741));
#96 = CARTESIAN_POINT('',(65.186472041436,-88.17984878764,
    -52.72740952739));
#97 = CARTESIAN_POINT('',(85.237233511435,-81.20645062204,
    -52.72740952742));
#98 = CARTESIAN_POINT('',(103.60075737404,-71.84380534607,
    -52.72740952738));
#99 = CARTESIAN_POINT('',(118.78637212131,-61.40049794125,
    -52.72740952742));
#100 = CARTESIAN_POINT('',(131.88941803562,-51.09961524084,
    -52.72740952739));
#101 = CARTESIAN_POINT('',(142.90565678489,-41.14092344255,
    -52.72740952741));
#102 = CARTESIAN_POINT('',(152.32131542301,-32.03691969793,
    -52.7274095274));
#103 = CARTESIAN_POINT('',(168.40055606157,-15.95767905937,
    -52.7274095274));
#104 = CARTESIAN_POINT('',(179.59404269573,-4.764192425211,
    -52.7274095274));
#105 = CARTESIAN_POINT('',(184.11777799702,-0.534862836484,
    -52.72740952741));
#106 = CARTESIAN_POINT('',(187.64699379318,2.233718092463,
    -52.72740952739));
#107 = CARTESIAN_POINT('',(189.99849333346,3.751017210304,
    -52.72740952742));
#108 = CARTESIAN_POINT('',(191.47954525279,3.913770411447,
    -52.72740952738));
#109 = CARTESIAN_POINT('',(191.29783957208,3.642034226488,
    -52.72740952742));
#110 = CARTESIAN_POINT('',(191.24707810201,3.941363333543,
    -52.72740952739));
#111 = CARTESIAN_POINT('',(192.22834547644,4.494431921013,
    -52.72740952741));
#112 = CARTESIAN_POINT('',(195.00051083293,4.99438083772,-52.7274095274)
  );
#113 = CARTESIAN_POINT('',(200.,4.99438083772,-52.7274095274));
#114 = CARTESIAN_POINT('',(0.,-1.68753899743E-13,-137.4558460504));
#115 = CARTESIAN_POINT('',(13.636363636365,1.59872115546E-13,
    -137.4558460504));
#116 = CARTESIAN_POINT('',(25.909090909084,1.363636363635,
    -137.4558460504));
#117 = CARTESIAN_POINT('',(36.969696969712,3.939393939397,
    -137.4558460504));
#118 = CARTESIAN_POINT('',(46.969696969673,7.575757575752,
    -137.4558460504));
#119 = CARTESIAN_POINT('',(56.060606060634,12.121212121218,
    -137.4558460504));
#120 = CARTESIAN_POINT('',(64.393939393915,17.424242424237,
    -137.4558460504));
#121 = CARTESIAN_POINT('',(72.121212121227,23.333333333337,
    -137.4558460504));
#122 = CARTESIAN_POINT('',(79.393939393934,29.696969696968,
    -137.4558460504));
#123 = CARTESIAN_POINT('',(86.363636363638,36.363636363637,
    -137.4558460504));
#124 = CARTESIAN_POINT('',(100.,49.999999999999,-137.4558460504));
#125 = CARTESIAN_POINT('',(113.63636363636,63.636363636365,
    -137.4558460504));
#126 = CARTESIAN_POINT('',(120.60606060606,70.303030303024,
    -137.4558460504));
#127 = CARTESIAN_POINT('',(127.87878787879,76.666666666681,
    -137.4558460504));
#128 = CARTESIAN_POINT('',(135.60606060605,82.575757575736,
    -137.4558460503));
#129 = CARTESIAN_POINT('',(143.9393939394,87.878787878812,
    -137.4558460504));
#130 = CARTESIAN_POINT('',(153.03030303029,92.424242424223,
    -137.4558460503));
#131 = CARTESIAN_POINT('',(163.0303030303,96.060606060618,
    -137.4558460504));
#132 = CARTESIAN_POINT('',(174.0909090909,98.636363636358,
    -137.4558460504));
#133 = CARTESIAN_POINT('',(186.36363636363,100.,-137.4558460504));
#134 = CARTESIAN_POINT('',(200.,100.,-137.4558460504));
#135 = CARTESIAN_POINT('',(-1.7763568394E-14,95.00561916228,
    -52.7274095274));
#136 = CARTESIAN_POINT('',(4.999489167065,95.005619162281,-52.7274095274
    ));
#137 = CARTESIAN_POINT('',(7.771654523567,95.505568078985,
    -52.72740952741));
#138 = CARTESIAN_POINT('',(8.752921897964,96.05863666646,-52.72740952739
    ));
#139 = CARTESIAN_POINT('',(8.702160427955,96.357965773509,
    -52.72740952742));
#140 = CARTESIAN_POINT('',(8.520454747161,96.086229588555,
    -52.72740952738));
#141 = CARTESIAN_POINT('',(10.001506666572,96.248982789694,
    -52.72740952743));
#142 = CARTESIAN_POINT('',(12.353006206786,97.76628190754,
    -52.72740952738));
#143 = CARTESIAN_POINT('',(15.882222002989,100.53486283648,
    -52.72740952741));
#144 = CARTESIAN_POINT('',(20.40595730426,104.76419242521,-52.7274095274
    ));
#145 = CARTESIAN_POINT('',(31.599443938425,115.95767905937,
    -52.72740952741));
#146 = CARTESIAN_POINT('',(47.67868457699,132.03691969793,-52.7274095274
    ));
#147 = CARTESIAN_POINT('',(57.094343215095,141.14092344255,
    -52.72740952742));
#148 = CARTESIAN_POINT('',(68.110581964391,151.09961524083,
    -52.72740952737));
#149 = CARTESIAN_POINT('',(81.21362787866,161.40049794126,
    -52.72740952744));
#150 = CARTESIAN_POINT('',(96.399242625973,171.84380534606,
    -52.72740952736));
#151 = CARTESIAN_POINT('',(114.76276648855,181.20645062205,
    -52.72740952744));
#152 = CARTESIAN_POINT('',(134.81352795856,188.17984878763,
    -52.72740952738));
#153 = CARTESIAN_POINT('',(155.95347270538,192.77829535173,
    -52.72740952741));
#154 = CARTESIAN_POINT('',(177.72676189433,195.00561916227,
    -52.7274095274));
#155 = CARTESIAN_POINT('',(200.,195.00561916228,-52.7274095274));
#156 = CARTESIAN_POINT('',(0.,83.077153778553,50.));
#157 = CARTESIAN_POINT('',(6.08389511104,83.077153778552,50.000000000001
    ));
#158 = CARTESIAN_POINT('',(10.048907005915,83.685543289659,
    49.999999999994));
#159 = CARTESIAN_POINT('',(12.295689448466,84.492571335432,
    50.000000000013));
#160 = CARTESIAN_POINT('',(13.506855023744,85.210883037619,
    49.999999999978));
#161 = CARTESIAN_POINT('',(14.489375893937,85.543971002836,
    50.000000000026));
#162 = CARTESIAN_POINT('',(16.830768521239,86.352113582172,
    49.999999999977));
#163 = CARTESIAN_POINT('',(19.857225237042,88.420825730248,
    50.000000000014));
#164 = CARTESIAN_POINT('',(23.856458990638,91.640785163804,
    49.999999999994));
#165 = CARTESIAN_POINT('',(28.687297906935,96.176135503918,
    50.000000000001));
#166 = CARTESIAN_POINT('',(40.187500859716,107.6763384567,50.));
#167 = CARTESIAN_POINT('',(55.960025179663,123.44886277664,
    49.999999999999));
#168 = CARTESIAN_POINT('',(65.068580202757,132.24684576986,
    50.000000000004));
#169 = CARTESIAN_POINT('',(75.614800994624,141.75415906357,
    49.99999999999));
#170 = CARTESIAN_POINT('',(88.042889733352,151.50362873369,
    50.000000000016));
#171 = CARTESIAN_POINT('',(102.36816377273,161.3015467604,49.99999999998
    ));
#172 = CARTESIAN_POINT('',(119.56746108434,170.0593678861,
    50.000000000018));
#173 = CARTESIAN_POINT('',(138.35629550907,176.61378345664,
    49.999999999987));
#174 = CARTESIAN_POINT('',(158.23072518773,180.95827056238,
    50.000000000005));
#175 = CARTESIAN_POINT('',(178.81116783831,183.07715377855,
    49.999999999999));
#176 = CARTESIAN_POINT('',(200.,183.07715377855,50.));
#177 = CARTESIAN_POINT('',(3.552713678801E-14,8.881784197001E-15,50.));
#178 = CARTESIAN_POINT('',(13.636363636365,1.580957587066E-12,
    49.999999999999));
#179 = CARTESIAN_POINT('',(25.909090909087,1.36363636363,50.000000000002
    ));
#180 = CARTESIAN_POINT('',(36.969696969707,3.93939393941,49.999999999995
    ));
#181 = CARTESIAN_POINT('',(46.969696969682,7.57575757573,50.000000000006
    ));
#182 = CARTESIAN_POINT('',(56.060606060622,12.121212121247,
    49.999999999994));
#183 = CARTESIAN_POINT('',(64.393939393927,17.424242424211,
    50.000000000003));
#184 = CARTESIAN_POINT('',(72.12121212122,23.333333333355,50.));
#185 = CARTESIAN_POINT('',(79.393939393936,29.69696969696,
    49.999999999999));
#186 = CARTESIAN_POINT('',(86.363636363637,36.363636363639,
    50.000000000001));
#187 = CARTESIAN_POINT('',(99.999999999999,49.999999999998,
    49.999999999999));
#188 = CARTESIAN_POINT('',(113.63636363636,63.636363636365,
    50.000000000002));
#189 = CARTESIAN_POINT('',(120.60606060605,70.303030303026,
    49.999999999993));
#190 = CARTESIAN_POINT('',(127.87878787881,76.666666666677,
    50.000000000016));
#191 = CARTESIAN_POINT('',(135.60606060602,82.575757575741,
    49.999999999977));
#192 = CARTESIAN_POINT('',(143.93939393943,87.878787878806,
    50.000000000023));
#193 = CARTESIAN_POINT('',(153.03030303026,92.424242424227,
    49.999999999983));
#194 = CARTESIAN_POINT('',(163.03030303032,96.060606060615,
    50.000000000009));
#195 = CARTESIAN_POINT('',(174.09090909089,98.63636363636,
    49.999999999997));
#196 = CARTESIAN_POINT('',(186.36363636363,100.,50.000000000001));
#197 = CARTESIAN_POINT('',(200.,100.,50.));
#198 = DEFINITIONAL_REPRESENTATION('',(#199),#202);
#199 = B_SPLINE_CURVE_WITH_KNOTS('',1,(#200,#201),.UNSPECIFIED.,.F.,.F.,
  (2,2),(0.,6.28318530718),.PIECEWISE_BEZIER_KNOTS.);
#200 = CARTESIAN_POINT('',(0.,0.));
#201 = CARTESIAN_POINT('',(6.28318530718,0.));
#202 = ( GEOMETRIC_REPRESENTATION_CONTEXT(2) 
PARAMETRIC_REPRESENTATION_CONTEXT() REPRESENTATION_CONTEXT('2D SPACE',''
  ) );
#203 = ADVANCED_FACE('',(#204),#50,.T.);
#204 = FACE_BOUND('',#205,.T.);
#205 = EDGE_LOOP('',(#206,#245,#278,#279));
#206 = ORIENTED_EDGE('',*,*,#207,.T.);
#207 = EDGE_CURVE('',#22,#208,#210,.T.);
#208 = VERTEX_POINT('',#209);
#209 = CARTESIAN_POINT('',(200.,100.,50.));
#210 = SEAM_CURVE('',#211,(#233,#239),.PCURVE_S1.);
#211 = ( BOUNDED_CURVE() B_SPLINE_CURVE(11,(#212,#213,#214,#215,#216,
    #217,#218,#219,#220,#221,#222,#223,#224,#225,#226,#227,#228,#229,
#230,#231,#232),.UNSPECIFIED.,.F.,.F.) B_SPLINE_CURVE_WITH_KNOTS((12,9,
12),(0.,0.5,1.),.UNSPECIFIED.) CURVE() GEOMETRIC_REPRESENTATION_ITEM() 
RATIONAL_B_SPLINE_CURVE((1.669078461068,1.669078461068,1.669078461068,
    1.669078461068,1.669078461068,1.669078461068,1.669078461068,
    1.669078461068,1.669078461068,1.669078461068,1.669078461068,
    1.669078461068,1.669078461068,1.669078461068,1.669078461069,
    1.669078461068,1.669078461069,1.669078461068,1.669078461068,
1.669078461068,1.669078461068)) REPRESENTATION_ITEM('') );
#212 = CARTESIAN_POINT('',(3.552713678801E-14,8.881784197001E-15,50.));
#213 = CARTESIAN_POINT('',(13.636363636365,1.580957587066E-12,
    49.999999999999));
#214 = CARTESIAN_POINT('',(25.909090909087,1.36363636363,50.000000000002
    ));
#215 = CARTESIAN_POINT('',(36.969696969707,3.93939393941,49.999999999995
    ));
#216 = CARTESIAN_POINT('',(46.969696969682,7.57575757573,50.000000000006
    ));
#217 = CARTESIAN_POINT('',(56.060606060622,12.121212121247,
    49.999999999994));
#218 = CARTESIAN_POINT('',(64.393939393927,17.424242424211,
    50.000000000003));
#219 = CARTESIAN_POINT('',(72.12121212122,23.333333333355,50.));
#220 = CARTESIAN_POINT('',(79.393939393936,29.69696969696,
    49.999999999999));
#221 = CARTESIAN_POINT('',(86.363636363637,36.363636363639,
    50.000000000001));
#222 = CARTESIAN_POINT('',(99.999999999999,49.999999999998,
    49.999999999999));
#223 = CARTESIAN_POINT('',(113.63636363636,63.636363636365,
    50.000000000002));
#224 = CARTESIAN_POINT('',(120.60606060605,70.303030303026,
    49.999999999993));
#225 = CARTESIAN_POINT('',(127.87878787881,76.666666666677,
    50.000000000016));
#226 = CARTESIAN_POINT('',(135.60606060602,82.575757575741,
    49.999999999977));
#227 = CARTESIAN_POINT('',(143.93939393943,87.878787878806,
    50.000000000023));
#228 = CARTESIAN_POINT('',(153.03030303026,92.424242424227,
    49.999999999983));
#229 = CARTESIAN_POINT('',(163.03030303032,96.060606060615,
    50.000000000009));
#230 = CARTESIAN_POINT('',(174.09090909089,98.63636363636,
    49.999999999997));
#231 = CARTESIAN_POINT('',(186.36363636363,100.,50.000000000001));
#232 = CARTESIAN_POINT('',(200.,100.,50.));
#233 = PCURVE('',#50,#234);
#234 = DEFINITIONAL_REPRESENTATION('',(#235),#238);
#235 = B_SPLINE_CURVE_WITH_KNOTS('',1,(#236,#237),.UNSPECIFIED.,.F.,.F.,
  (2,2),(0.,1.),.PIECEWISE_BEZIER_KNOTS.);
#236 = CARTESIAN_POINT('',(6.28318530718,0.));
#237 = CARTESIAN_POINT('',(6.28318530718,1.));
#238 = ( GEOMETRIC_REPRESENTATION_CONTEXT(2) 
PARAMETRIC_REPRESENTATION_CONTEXT() REPRESENTATION_CONTEXT('2D SPACE',''
  ) );
#239 = PCURVE('',#50,#240);
#240 = DEFINITIONAL_REPRESENTATION('',(#241),#244);
#241 = B_SPLINE_CURVE_WITH_KNOTS('',1,(#242,#243),.UNSPECIFIED.,.F.,.F.,
  (2,2),(0.,1.),.PIECEWISE_BEZIER_KNOTS.);
#242 = CARTESIAN_POINT('',(0.,0.));
#243 = CARTESIAN_POINT('',(0.,1.));
#244 = ( GEOMETRIC_REPRESENTATION_CONTEXT(2) 
PARAMETRIC_REPRESENTATION_CONTEXT() REPRESENTATION_CONTEXT('2D SPACE',''
  ) );
#245 = ORIENTED_EDGE('',*,*,#246,.F.);
#246 = EDGE_CURVE('',#208,#208,#247,.T.);
#247 = SURFACE_CURVE('',#248,(#256,#262),.PCURVE_S1.);
#248 = ( BOUNDED_CURVE() B_SPLINE_CURVE(6,(#249,#250,#251,#252,#253,#254
,#255),.UNSPECIFIED.,.T.,.F.) B_SPLINE_CURVE_WITH_KNOTS((1,6,6,1),(
    -6.28318530718,0.,6.28318530718,12.566370614359),.UNSPECIFIED.) 
CURVE() GEOMETRIC_REPRESENTATION_ITEM() RATIONAL_B_SPLINE_CURVE((
    1.669078461068,1.03672962321,1.038346699848,0.853534330196,
1.038346699848,1.03672962321,1.669078461068)) REPRESENTATION_ITEM('') );
#249 = CARTESIAN_POINT('',(200.,100.,50.));
#250 = CARTESIAN_POINT('',(200.,16.922846221447,50.));
#251 = CARTESIAN_POINT('',(200.,4.99438083772,-52.7274095274));
#252 = CARTESIAN_POINT('',(200.,100.,-137.4558460504));
#253 = CARTESIAN_POINT('',(200.,195.00561916228,-52.7274095274));
#254 = CARTESIAN_POINT('',(200.,183.07715377855,50.));
#255 = CARTESIAN_POINT('',(200.,100.,50.));
#256 = PCURVE('',#50,#257);
#257 = DEFINITIONAL_REPRESENTATION('',(#258),#261);
#258 = B_SPLINE_CURVE_WITH_KNOTS('',1,(#259,#260),.UNSPECIFIED.,.F.,.F.,
  (2,2),(0.,6.28318530718),.PIECEWISE_BEZIER_KNOTS.);
#259 = CARTESIAN_POINT('',(0.,1.));
#260 = CARTESIAN_POINT('',(6.28318530718,1.));
#261 = ( GEOMETRIC_REPRESENTATION_CONTEXT(2) 
PARAMETRIC_REPRESENTATION_CONTEXT() REPRESENTATION_CONTEXT('2D SPACE',''
  ) );
#262 = PCURVE('',#263,#268);
#263 = PLANE('',#264);
#264 = AXIS2_PLACEMENT_3D('',#265,#266,#267);
#265 = CARTESIAN_POINT('',(200.,100.,-2.734880265079E-15));
#266 = DIRECTION('',(1.,0.,0.));
#267 = DIRECTION('',(0.,2.334869823773E-16,1.));
#268 = DEFINITIONAL_REPRESENTATION('',(#269),#277);
#269 = ( BOUNDED_CURVE() B_SPLINE_CURVE(6,(#270,#271,#272,#273,#274,#275
,#276),.UNSPECIFIED.,.T.,.F.) B_SPLINE_CURVE_WITH_KNOTS((1,6,6,1),(
    -6.28318530718,0.,6.28318530718,12.566370614359),.UNSPECIFIED.) 
CURVE() GEOMETRIC_REPRESENTATION_ITEM() RATIONAL_B_SPLINE_CURVE((
    1.669078461068,1.03672962321,1.038346699848,0.853534330196,
1.038346699848,1.03672962321,1.669078461068)) REPRESENTATION_ITEM('') );
#270 = CARTESIAN_POINT('',(50.,-1.674736031154E-14));
#271 = CARTESIAN_POINT('',(50.,83.077153778553));
#272 = CARTESIAN_POINT('',(-52.7274095274,95.00561916228));
#273 = CARTESIAN_POINT('',(-137.4558460504,1.810686700236E-13));
#274 = CARTESIAN_POINT('',(-52.7274095274,-95.00561916228));
#275 = CARTESIAN_POINT('',(50.,-83.07715377855));
#276 = CARTESIAN_POINT('',(50.,-1.674736031154E-14));
#277 = ( GEOMETRIC_REPRESENTATION_CONTEXT(2) 
PARAMETRIC_REPRESENTATION_CONTEXT() REPRESENTATION_CONTEXT('2D SPACE',''
  ) );
#278 = ORIENTED_EDGE('',*,*,#207,.F.);
#279 = ORIENTED_EDGE('',*,*,#21,.T.);
#280 = ADVANCED_FACE('',(#281),#263,.T.);
#281 = FACE_BOUND('',#282,.T.);
#282 = EDGE_LOOP('',(#283));
#283 = ORIENTED_EDGE('',*,*,#246,.T.);
#284 = ( GEOMETRIC_REPRESENTATION_CONTEXT(3) 
GLOBAL_UNCERTAINTY_ASSIGNED_CONTEXT((#288)) GLOBAL_UNIT_ASSIGNED_CONTEXT
((#285,#286,#287)) REPRESENTATION_CONTEXT('Context #1',
  '3D Context with UNIT and UNCERTAINTY') );
#285 = ( LENGTH_UNIT() NAMED_UNIT(*) SI_UNIT(.MILLI.,.METRE.) );
#286 = ( NAMED_UNIT(*) PLANE_ANGLE_UNIT() SI_UNIT($,.RADIAN.) );
#287 = ( NAMED_UNIT(*) SI_UNIT($,.STERADIAN.) SOLID_ANGLE_UNIT() );
#288 = UNCERTAINTY_MEASURE_WITH_UNIT(LENGTH_MEASURE(1.E-04),#285,
  'distance_accuracy_value','confusion accuracy');
#289 = PRODUCT_RELATED_PRODUCT_CATEGORY('part',$,(#7));
ENDSEC;
END-ISO-10303-21;
