ISO-10303-21;
HEADER;
FILE_DESCRIPTION(('Open CASCADE Model'),'2;1');
FILE_NAME('Open CASCADE Shape Model','2026-07-11T20:15:50',('Author'),(
    'Open CASCADE'),'Open CASCADE STEP processor 8.0','Open CASCADE 8.0'
  ,'Unknown');
FILE_SCHEMA(('AUTOMOTIVE_DESIGN { 1 0 10303 214 1 1 1 1 }'));
ENDSEC;
DATA;
#1 = APPLICATION_PROTOCOL_DEFINITION('international standard',
  'automotive_design',2000,#2);
#2 = APPLICATION_CONTEXT(
  'core data for automotive mechanical design processes');
#3 = SHAPE_DEFINITION_REPRESENTATION(#4,#10);
#4 = PRODUCT_DEFINITION_SHAPE('','',#5);
#5 = PRODUCT_DEFINITION('design','',#6,#9);
#6 = PRODUCT_DEFINITION_FORMATION('','',#7);
#7 = PRODUCT('Open CASCADE STEP translator 8.0 1',
  'Open CASCADE STEP translator 8.0 1','',(#8));
#8 = PRODUCT_CONTEXT('',#2,'mechanical');
#9 = PRODUCT_DEFINITION_CONTEXT('part definition',#2,'design');
#10 = ADVANCED_BREP_SHAPE_REPRESENTATION('',(#11,#15),#569);
#11 = AXIS2_PLACEMENT_3D('',#12,#13,#14);
#12 = CARTESIAN_POINT('',(0.,0.,0.));
#13 = DIRECTION('',(0.,0.,1.));
#14 = DIRECTION('',(1.,0.,-0.));
#15 = MANIFOLD_SOLID_BREP('',#16);
#16 = CLOSED_SHELL('',(#17,#239,#372,#376,#504,#557,#561,#565));
#17 = ADVANCED_FACE('',(#18),#33,.T.);
#18 = FACE_BOUND('',#19,.T.);
#19 = EDGE_LOOP('',(#20,#110,#131,#157,#158));
#20 = ORIENTED_EDGE('',*,*,#21,.T.);
#21 = EDGE_CURVE('',#22,#24,#26,.T.);
#22 = VERTEX_POINT('',#23);
#23 = CARTESIAN_POINT('',(-300.,0.,750.));
#24 = VERTEX_POINT('',#25);
#25 = CARTESIAN_POINT('',(300.,0.,750.));
#26 = SURFACE_CURVE('',#27,(#32,#71),.PCURVE_S1.);
#27 = ELLIPSE('',#28,424.26406871192,300.);
#28 = AXIS2_PLACEMENT_3D('',#29,#30,#31);
#29 = CARTESIAN_POINT('',(0.,0.,750.));
#30 = DIRECTION('',(0.,0.707106781187,0.707106781187));
#31 = DIRECTION('',(0.,-0.707106781187,0.707106781187));
#32 = PCURVE('',#33,#38);
#33 = CYLINDRICAL_SURFACE('',#34,300.);
#34 = AXIS2_PLACEMENT_3D('',#35,#36,#37);
#35 = CARTESIAN_POINT('',(0.,0.,0.));
#36 = DIRECTION('',(0.,0.,1.));
#37 = DIRECTION('',(1.,0.,-0.));
#38 = DEFINITIONAL_REPRESENTATION('',(#39),#70);
#39 = B_SPLINE_CURVE_WITH_KNOTS('',8,(#40,#41,#42,#43,#44,#45,#46,#47,
    #48,#49,#50,#51,#52,#53,#54,#55,#56,#57,#58,#59,#60,#61,#62,#63,#64,
    #65,#66,#67,#68,#69),.UNSPECIFIED.,.F.,.F.,(9,7,7,7,9),(
    4.712388980385,5.497787143782,6.08683576633,6.970408700152,
    7.853981633974),.UNSPECIFIED.);
#40 = CARTESIAN_POINT('',(3.14159265359,750.));
#41 = CARTESIAN_POINT('',(3.239767424952,779.45243140865));
#42 = CARTESIAN_POINT('',(3.337942195319,808.9048625481));
#43 = CARTESIAN_POINT('',(3.43611696568,837.92472815886));
#44 = CARTESIAN_POINT('',(3.534291736055,866.07946437085));
#45 = CARTESIAN_POINT('',(3.632466506396,892.94984339736));
#46 = CARTESIAN_POINT('',(3.730641276768,918.14333364996));
#47 = CARTESIAN_POINT('',(3.828816047125,941.30602071308));
#48 = CARTESIAN_POINT('',(4.000621895259,977.75154477374));
#49 = CARTESIAN_POINT('',(4.07425297303,992.05667636718));
#50 = CARTESIAN_POINT('',(4.147884050803,1.004918390399E+03));
#51 = CARTESIAN_POINT('',(4.221515128572,1.01622285013E+03));
#52 = CARTESIAN_POINT('',(4.295146206349,1.025873659304E+03));
#53 = CARTESIAN_POINT('',(4.368777284116,1.033793662074E+03));
#54 = CARTESIAN_POINT('',(4.442408361889,1.039926170929E+03));
#55 = CARTESIAN_POINT('',(4.626486056318,1.050699703927E+03));
#56 = CARTESIAN_POINT('',(4.736932672974,1.053061858478E+03));
#57 = CARTESIAN_POINT('',(4.847379289641,1.051201892134E+03));
#58 = CARTESIAN_POINT('',(4.957825906282,1.045106395203E+03));
#59 = CARTESIAN_POINT('',(5.068272522958,1.03487339807E+03));
#60 = CARTESIAN_POINT('',(5.178719139604,1.020710108361E+03));
#61 = CARTESIAN_POINT('',(5.289165756263,1.002923113641E+03));
#62 = CARTESIAN_POINT('',(5.510058989577,960.88315854346));
#63 = CARTESIAN_POINT('',(5.620505606235,936.63019804062));
#64 = CARTESIAN_POINT('',(5.730952222893,909.53497736249));
#65 = CARTESIAN_POINT('',(5.841398839549,880.07234781188));
#66 = CARTESIAN_POINT('',(5.951845456207,848.7860561232));
#67 = CARTESIAN_POINT('',(6.062292072865,816.26797038863));
#68 = CARTESIAN_POINT('',(6.172738689522,783.13398529723));
#69 = CARTESIAN_POINT('',(6.28318530718,750.));
#70 = ( GEOMETRIC_REPRESENTATION_CONTEXT(2) 
PARAMETRIC_REPRESENTATION_CONTEXT() REPRESENTATION_CONTEXT('2D SPACE',''
  ) );
#71 = PCURVE('',#72,#77);
#72 = CYLINDRICAL_SURFACE('',#73,300.);
#73 = AXIS2_PLACEMENT_3D('',#74,#75,#76);
#74 = CARTESIAN_POINT('',(0.,750.,750.));
#75 = DIRECTION('',(0.,-1.,0.));
#76 = DIRECTION('',(1.,0.,0.));
#77 = DEFINITIONAL_REPRESENTATION('',(#78),#109);
#78 = B_SPLINE_CURVE_WITH_KNOTS('',8,(#79,#80,#81,#82,#83,#84,#85,#86,
    #87,#88,#89,#90,#91,#92,#93,#94,#95,#96,#97,#98,#99,#100,#101,#102,
    #103,#104,#105,#106,#107,#108),.UNSPECIFIED.,.F.,.F.,(9,7,7,7,9),(
    4.712388980385,5.497787143782,6.08683576633,6.970408700152,
    7.853981633974),.UNSPECIFIED.);
#79 = CARTESIAN_POINT('',(3.14159265359,750.));
#80 = CARTESIAN_POINT('',(3.043417882228,779.45243140865));
#81 = CARTESIAN_POINT('',(2.945243111861,808.9048625481));
#82 = CARTESIAN_POINT('',(2.8470683415,837.92472815886));
#83 = CARTESIAN_POINT('',(2.748893571124,866.07946437085));
#84 = CARTESIAN_POINT('',(2.650718800784,892.94984339736));
#85 = CARTESIAN_POINT('',(2.552544030411,918.14333364996));
#86 = CARTESIAN_POINT('',(2.454369260055,941.30602071308));
#87 = CARTESIAN_POINT('',(2.282563411921,977.75154477374));
#88 = CARTESIAN_POINT('',(2.20893233415,992.05667636718));
#89 = CARTESIAN_POINT('',(2.135301256377,1.004918390399E+03));
#90 = CARTESIAN_POINT('',(2.061670178608,1.01622285013E+03));
#91 = CARTESIAN_POINT('',(1.988039100831,1.025873659304E+03));
#92 = CARTESIAN_POINT('',(1.914408023063,1.033793662074E+03));
#93 = CARTESIAN_POINT('',(1.840776945291,1.039926170929E+03));
#94 = CARTESIAN_POINT('',(1.656699250862,1.050699703927E+03));
#95 = CARTESIAN_POINT('',(1.546252634204,1.053061858478E+03));
#96 = CARTESIAN_POINT('',(1.435806017542,1.051201892134E+03));
#97 = CARTESIAN_POINT('',(1.325359400894,1.045106395203E+03));
#98 = CARTESIAN_POINT('',(1.214912784225,1.03487339807E+03));
#99 = CARTESIAN_POINT('',(1.104466167575,1.020710108361E+03));
#100 = CARTESIAN_POINT('',(0.994019550917,1.002923113641E+03));
#101 = CARTESIAN_POINT('',(0.773126317602,960.88315854346));
#102 = CARTESIAN_POINT('',(0.662679700944,936.63019804062));
#103 = CARTESIAN_POINT('',(0.552233084287,909.53497736249));
#104 = CARTESIAN_POINT('',(0.441786467627,880.07234781188));
#105 = CARTESIAN_POINT('',(0.331339850973,848.7860561232));
#106 = CARTESIAN_POINT('',(0.220893234314,816.26797038863));
#107 = CARTESIAN_POINT('',(0.110446617657,783.13398529723));
#108 = CARTESIAN_POINT('',(-4.673290359475E-17,750.));
#109 = ( GEOMETRIC_REPRESENTATION_CONTEXT(2) 
PARAMETRIC_REPRESENTATION_CONTEXT() REPRESENTATION_CONTEXT('2D SPACE',''
  ) );
#110 = ORIENTED_EDGE('',*,*,#111,.T.);
#111 = EDGE_CURVE('',#24,#112,#114,.T.);
#112 = VERTEX_POINT('',#113);
#113 = CARTESIAN_POINT('',(300.,0.,1.5E+03));
#114 = SEAM_CURVE('',#115,(#119,#125),.PCURVE_S1.);
#115 = LINE('',#116,#117);
#116 = CARTESIAN_POINT('',(300.,0.,0.));
#117 = VECTOR('',#118,1.);
#118 = DIRECTION('',(0.,0.,1.));
#119 = PCURVE('',#33,#120);
#120 = DEFINITIONAL_REPRESENTATION('',(#121),#124);
#121 = B_SPLINE_CURVE_WITH_KNOTS('',1,(#122,#123),.UNSPECIFIED.,.F.,.F.,
  (2,2),(0.,1.5E+03),.PIECEWISE_BEZIER_KNOTS.);
#122 = CARTESIAN_POINT('',(6.28318530718,0.));
#123 = CARTESIAN_POINT('',(6.28318530718,1.5E+03));
#124 = ( GEOMETRIC_REPRESENTATION_CONTEXT(2) 
PARAMETRIC_REPRESENTATION_CONTEXT() REPRESENTATION_CONTEXT('2D SPACE',''
  ) );
#125 = PCURVE('',#33,#126);
#126 = DEFINITIONAL_REPRESENTATION('',(#127),#130);
#127 = B_SPLINE_CURVE_WITH_KNOTS('',1,(#128,#129),.UNSPECIFIED.,.F.,.F.,
  (2,2),(0.,1.5E+03),.PIECEWISE_BEZIER_KNOTS.);
#128 = CARTESIAN_POINT('',(0.,0.));
#129 = CARTESIAN_POINT('',(0.,1.5E+03));
#130 = ( GEOMETRIC_REPRESENTATION_CONTEXT(2) 
PARAMETRIC_REPRESENTATION_CONTEXT() REPRESENTATION_CONTEXT('2D SPACE',''
  ) );
#131 = ORIENTED_EDGE('',*,*,#132,.F.);
#132 = EDGE_CURVE('',#112,#112,#133,.T.);
#133 = SURFACE_CURVE('',#134,(#139,#145),.PCURVE_S1.);
#134 = CIRCLE('',#135,300.);
#135 = AXIS2_PLACEMENT_3D('',#136,#137,#138);
#136 = CARTESIAN_POINT('',(0.,0.,1.5E+03));
#137 = DIRECTION('',(0.,0.,1.));
#138 = DIRECTION('',(1.,0.,-0.));
#139 = PCURVE('',#33,#140);
#140 = DEFINITIONAL_REPRESENTATION('',(#141),#144);
#141 = B_SPLINE_CURVE_WITH_KNOTS('',1,(#142,#143),.UNSPECIFIED.,.F.,.F.,
  (2,2),(0.,6.28318530718),.PIECEWISE_BEZIER_KNOTS.);
#142 = CARTESIAN_POINT('',(0.,1.5E+03));
#143 = CARTESIAN_POINT('',(6.28318530718,1.5E+03));
#144 = ( GEOMETRIC_REPRESENTATION_CONTEXT(2) 
PARAMETRIC_REPRESENTATION_CONTEXT() REPRESENTATION_CONTEXT('2D SPACE',''
  ) );
#145 = PCURVE('',#146,#151);
#146 = PLANE('',#147);
#147 = AXIS2_PLACEMENT_3D('',#148,#149,#150);
#148 = CARTESIAN_POINT('',(0.,0.,1.5E+03));
#149 = DIRECTION('',(0.,0.,1.));
#150 = DIRECTION('',(1.,0.,-0.));
#151 = DEFINITIONAL_REPRESENTATION('',(#152),#156);
#152 = CIRCLE('',#153,300.);
#153 = AXIS2_PLACEMENT_2D('',#154,#155);
#154 = CARTESIAN_POINT('',(0.,0.));
#155 = DIRECTION('',(1.,0.));
#156 = ( GEOMETRIC_REPRESENTATION_CONTEXT(2) 
PARAMETRIC_REPRESENTATION_CONTEXT() REPRESENTATION_CONTEXT('2D SPACE',''
  ) );
#157 = ORIENTED_EDGE('',*,*,#111,.F.);
#158 = ORIENTED_EDGE('',*,*,#159,.T.);
#159 = EDGE_CURVE('',#24,#22,#160,.T.);
#160 = SURFACE_CURVE('',#161,(#166,#200),.PCURVE_S1.);
#161 = ELLIPSE('',#162,424.26406871192,300.);
#162 = AXIS2_PLACEMENT_3D('',#163,#164,#165);
#163 = CARTESIAN_POINT('',(0.,0.,750.));
#164 = DIRECTION('',(0.,-0.707106781187,0.707106781187));
#165 = DIRECTION('',(0.,0.707106781187,0.707106781187));
#166 = PCURVE('',#33,#167);
#167 = DEFINITIONAL_REPRESENTATION('',(#168),#199);
#168 = B_SPLINE_CURVE_WITH_KNOTS('',8,(#169,#170,#171,#172,#173,#174,
    #175,#176,#177,#178,#179,#180,#181,#182,#183,#184,#185,#186,#187,
    #188,#189,#190,#191,#192,#193,#194,#195,#196,#197,#198),
  .UNSPECIFIED.,.F.,.F.,(9,7,7,7,9),(4.712388980385,5.497787143782,
    6.08683576633,6.970408700152,7.853981633974),.UNSPECIFIED.);
#169 = CARTESIAN_POINT('',(-6.673691793965E-17,750.));
#170 = CARTESIAN_POINT('',(9.817477136218E-02,779.45243140865));
#171 = CARTESIAN_POINT('',(0.196349541725,808.9048625481));
#172 = CARTESIAN_POINT('',(0.294524312084,837.92472815886));
#173 = CARTESIAN_POINT('',(0.392699082452,866.07946437085));
#174 = CARTESIAN_POINT('',(0.49087385281,892.94984339736));
#175 = CARTESIAN_POINT('',(0.589048623174,918.14333364996));
#176 = CARTESIAN_POINT('',(0.687223393535,941.30602071308));
#177 = CARTESIAN_POINT('',(0.859029241669,977.75154477374));
#178 = CARTESIAN_POINT('',(0.93266031944,992.05667636718));
#179 = CARTESIAN_POINT('',(1.006291397212,1.004918390399E+03));
#180 = CARTESIAN_POINT('',(1.079922474978,1.01622285013E+03));
#181 = CARTESIAN_POINT('',(1.153553552757,1.025873659304E+03));
#182 = CARTESIAN_POINT('',(1.227184630526,1.033793662074E+03));
#183 = CARTESIAN_POINT('',(1.300815708299,1.039926170929E+03));
#184 = CARTESIAN_POINT('',(1.484893402728,1.050699703927E+03));
#185 = CARTESIAN_POINT('',(1.595340019384,1.053061858478E+03));
#186 = CARTESIAN_POINT('',(1.705786636045,1.051201892134E+03));
#187 = CARTESIAN_POINT('',(1.81623325269,1.045106395203E+03));
#188 = CARTESIAN_POINT('',(1.926679869362,1.03487339807E+03));
#189 = CARTESIAN_POINT('',(2.037126486015,1.020710108361E+03));
#190 = CARTESIAN_POINT('',(2.147573102673,1.002923113641E+03));
#191 = CARTESIAN_POINT('',(2.368466335988,960.88315854346));
#192 = CARTESIAN_POINT('',(2.478912952643,936.63019804062));
#193 = CARTESIAN_POINT('',(2.589359569305,909.53497736249));
#194 = CARTESIAN_POINT('',(2.699806185952,880.07234781188));
#195 = CARTESIAN_POINT('',(2.810252802614,848.7860561232));
#196 = CARTESIAN_POINT('',(2.920699419275,816.26797038863));
#197 = CARTESIAN_POINT('',(3.031146035932,783.13398529723));
#198 = CARTESIAN_POINT('',(3.14159265359,750.));
#199 = ( GEOMETRIC_REPRESENTATION_CONTEXT(2) 
PARAMETRIC_REPRESENTATION_CONTEXT() REPRESENTATION_CONTEXT('2D SPACE',''
  ) );
#200 = PCURVE('',#201,#206);
#201 = CYLINDRICAL_SURFACE('',#202,300.);
#202 = AXIS2_PLACEMENT_3D('',#203,#204,#205);
#203 = CARTESIAN_POINT('',(0.,750.,750.));
#204 = DIRECTION('',(0.,-1.,0.));
#205 = DIRECTION('',(1.,0.,0.));
#206 = DEFINITIONAL_REPRESENTATION('',(#207),#238);
#207 = B_SPLINE_CURVE_WITH_KNOTS('',8,(#208,#209,#210,#211,#212,#213,
    #214,#215,#216,#217,#218,#219,#220,#221,#222,#223,#224,#225,#226,
    #227,#228,#229,#230,#231,#232,#233,#234,#235,#236,#237),
  .UNSPECIFIED.,.F.,.F.,(9,7,7,7,9),(4.712388980385,5.497787143782,
    6.08683576633,6.970408700152,7.853981633974),.UNSPECIFIED.);
#208 = CARTESIAN_POINT('',(-1.141064335115E-16,750.));
#209 = CARTESIAN_POINT('',(9.817477136218E-02,720.54756859134));
#210 = CARTESIAN_POINT('',(0.196349541724,691.0951374509));
#211 = CARTESIAN_POINT('',(0.294524312086,662.07527183671));
#212 = CARTESIAN_POINT('',(0.392699082448,633.92053562728));
#213 = CARTESIAN_POINT('',(0.490873852811,607.05015659891));
#214 = CARTESIAN_POINT('',(0.589048623173,581.85666634945));
#215 = CARTESIAN_POINT('',(0.687223393535,558.69397928691));
#216 = CARTESIAN_POINT('',(0.859029241669,522.24845522626));
#217 = CARTESIAN_POINT('',(0.93266031944,507.94332363299));
#218 = CARTESIAN_POINT('',(1.006291397212,495.08160959743));
#219 = CARTESIAN_POINT('',(1.079922474978,483.77714987192));
#220 = CARTESIAN_POINT('',(1.153553552757,474.12634069169));
#221 = CARTESIAN_POINT('',(1.227184630526,466.20633792661));
#222 = CARTESIAN_POINT('',(1.300815708299,460.07382907086));
#223 = CARTESIAN_POINT('',(1.484893402728,449.30029607298));
#224 = CARTESIAN_POINT('',(1.595340019384,446.93814152135));
#225 = CARTESIAN_POINT('',(1.705786636045,448.79810786107));
#226 = CARTESIAN_POINT('',(1.81623325269,454.89360479731));
#227 = CARTESIAN_POINT('',(1.926679869362,465.12660192628));
#228 = CARTESIAN_POINT('',(2.037126486015,479.28989163925));
#229 = CARTESIAN_POINT('',(2.147573102673,497.07688635929));
#230 = CARTESIAN_POINT('',(2.368466335988,539.11684145653));
#231 = CARTESIAN_POINT('',(2.478912952643,563.36980195849));
#232 = CARTESIAN_POINT('',(2.589359569305,590.465022641));
#233 = CARTESIAN_POINT('',(2.699806185952,619.92765217833));
#234 = CARTESIAN_POINT('',(2.810252802614,651.21394388005));
#235 = CARTESIAN_POINT('',(2.920699419275,683.73202961031));
#236 = CARTESIAN_POINT('',(3.031146035932,716.86601470276));
#237 = CARTESIAN_POINT('',(3.14159265359,750.));
#238 = ( GEOMETRIC_REPRESENTATION_CONTEXT(2) 
PARAMETRIC_REPRESENTATION_CONTEXT() REPRESENTATION_CONTEXT('2D SPACE',''
  ) );
#239 = ADVANCED_FACE('',(#240),#72,.T.);
#240 = FACE_BOUND('',#241,.T.);
#241 = EDGE_LOOP('',(#242,#323,#344,#370,#371));
#242 = ORIENTED_EDGE('',*,*,#243,.T.);
#243 = EDGE_CURVE('',#22,#24,#244,.T.);
#244 = SURFACE_CURVE('',#245,(#250,#284),.PCURVE_S1.);
#245 = ELLIPSE('',#246,424.26406871192,300.);
#246 = AXIS2_PLACEMENT_3D('',#247,#248,#249);
#247 = CARTESIAN_POINT('',(0.,0.,750.));
#248 = DIRECTION('',(0.,-0.707106781187,0.707106781187));
#249 = DIRECTION('',(0.,0.707106781187,0.707106781187));
#250 = PCURVE('',#72,#251);
#251 = DEFINITIONAL_REPRESENTATION('',(#252),#283);
#252 = B_SPLINE_CURVE_WITH_KNOTS('',8,(#253,#254,#255,#256,#257,#258,
    #259,#260,#261,#262,#263,#264,#265,#266,#267,#268,#269,#270,#271,
    #272,#273,#274,#275,#276,#277,#278,#279,#280,#281,#282),
  .UNSPECIFIED.,.F.,.F.,(9,7,7,7,9),(1.570796326795,2.356194490192,
    2.94524311274,3.828816046563,4.712388980385),.UNSPECIFIED.);
#253 = CARTESIAN_POINT('',(3.14159265359,750.));
#254 = CARTESIAN_POINT('',(3.239767424952,779.45243140865));
#255 = CARTESIAN_POINT('',(3.337942195315,808.90486254915));
#256 = CARTESIAN_POINT('',(3.436116965676,837.92472815699));
#257 = CARTESIAN_POINT('',(3.534291736048,866.07946437131));
#258 = CARTESIAN_POINT('',(3.6324665064,892.94984339503));
#259 = CARTESIAN_POINT('',(3.730641276764,918.143333651));
#260 = CARTESIAN_POINT('',(3.828816047125,941.30602071308));
#261 = CARTESIAN_POINT('',(4.000621895259,977.75154477374));
#262 = CARTESIAN_POINT('',(4.074252973031,992.05667636718));
#263 = CARTESIAN_POINT('',(4.147884050799,1.004918390399E+03));
#264 = CARTESIAN_POINT('',(4.221515128576,1.01622285013E+03));
#265 = CARTESIAN_POINT('',(4.295146206341,1.025873659304E+03));
#266 = CARTESIAN_POINT('',(4.368777284117,1.033793662074E+03));
#267 = CARTESIAN_POINT('',(4.442408361889,1.039926170929E+03));
#268 = CARTESIAN_POINT('',(4.626486056318,1.050699703927E+03));
#269 = CARTESIAN_POINT('',(4.736932672976,1.053061858479E+03));
#270 = CARTESIAN_POINT('',(4.847379289632,1.051201892135E+03));
#271 = CARTESIAN_POINT('',(4.957825906291,1.045106395205E+03));
#272 = CARTESIAN_POINT('',(5.068272522946,1.034873398068E+03));
#273 = CARTESIAN_POINT('',(5.178719139606,1.020710108361E+03));
#274 = CARTESIAN_POINT('',(5.289165756263,1.002923113641E+03));
#275 = CARTESIAN_POINT('',(5.510058989577,960.88315854346));
#276 = CARTESIAN_POINT('',(5.620505606235,936.63019804132));
#277 = CARTESIAN_POINT('',(5.730952222893,909.53497736016));
#278 = CARTESIAN_POINT('',(5.84139883955,880.07234781654));
#279 = CARTESIAN_POINT('',(5.951845456208,848.78605611901));
#280 = CARTESIAN_POINT('',(6.062292072865,816.26797038794));
#281 = CARTESIAN_POINT('',(6.172738689522,783.13398529723));
#282 = CARTESIAN_POINT('',(6.28318530718,750.));
#283 = ( GEOMETRIC_REPRESENTATION_CONTEXT(2) 
PARAMETRIC_REPRESENTATION_CONTEXT() REPRESENTATION_CONTEXT('2D SPACE',''
  ) );
#284 = PCURVE('',#285,#290);
#285 = CYLINDRICAL_SURFACE('',#286,300.);
#286 = AXIS2_PLACEMENT_3D('',#287,#288,#289);
#287 = CARTESIAN_POINT('',(0.,0.,0.));
#288 = DIRECTION('',(0.,0.,1.));
#289 = DIRECTION('',(1.,0.,-0.));
#290 = DEFINITIONAL_REPRESENTATION('',(#291),#322);
#291 = B_SPLINE_CURVE_WITH_KNOTS('',8,(#292,#293,#294,#295,#296,#297,
    #298,#299,#300,#301,#302,#303,#304,#305,#306,#307,#308,#309,#310,
    #311,#312,#313,#314,#315,#316,#317,#318,#319,#320,#321),
  .UNSPECIFIED.,.F.,.F.,(9,7,7,7,9),(1.570796326795,2.356194490192,
    2.94524311274,3.828816046563,4.712388980385),.UNSPECIFIED.);
#292 = CARTESIAN_POINT('',(3.14159265359,750.));
#293 = CARTESIAN_POINT('',(3.239767424952,720.54756859134));
#294 = CARTESIAN_POINT('',(3.337942195314,691.09513745026));
#295 = CARTESIAN_POINT('',(3.436116965676,662.0752718402));
#296 = CARTESIAN_POINT('',(3.534291736048,633.92053562216));
#297 = CARTESIAN_POINT('',(3.6324665064,607.0501566017));
#298 = CARTESIAN_POINT('',(3.730641276764,581.85666634852));
#299 = CARTESIAN_POINT('',(3.828816047125,558.69397928691));
#300 = CARTESIAN_POINT('',(4.000621895259,522.24845522626));
#301 = CARTESIAN_POINT('',(4.074252973031,507.94332363299));
#302 = CARTESIAN_POINT('',(4.147884050799,495.08160959836));
#303 = CARTESIAN_POINT('',(4.221515128576,483.77714987099));
#304 = CARTESIAN_POINT('',(4.295146206341,474.12634069356));
#305 = CARTESIAN_POINT('',(4.368777284117,466.20633792638));
#306 = CARTESIAN_POINT('',(4.442408361889,460.07382907086));
#307 = CARTESIAN_POINT('',(4.626486056318,449.30029607298));
#308 = CARTESIAN_POINT('',(4.736932672976,446.93814152124));
#309 = CARTESIAN_POINT('',(4.847379289632,448.79810786224));
#310 = CARTESIAN_POINT('',(4.957825906291,454.89360479638));
#311 = CARTESIAN_POINT('',(5.068272522946,465.12660192744));
#312 = CARTESIAN_POINT('',(5.178719139606,479.28989163896));
#313 = CARTESIAN_POINT('',(5.289165756263,497.07688635929));
#314 = CARTESIAN_POINT('',(5.510058989577,539.11684145653));
#315 = CARTESIAN_POINT('',(5.620505606235,563.36980195849));
#316 = CARTESIAN_POINT('',(5.730952222891,590.465022641));
#317 = CARTESIAN_POINT('',(5.841398839551,619.92765217833));
#318 = CARTESIAN_POINT('',(5.951845456207,651.21394388005));
#319 = CARTESIAN_POINT('',(6.062292072865,683.73202961031));
#320 = CARTESIAN_POINT('',(6.172738689522,716.86601470276));
#321 = CARTESIAN_POINT('',(6.28318530718,750.));
#322 = ( GEOMETRIC_REPRESENTATION_CONTEXT(2) 
PARAMETRIC_REPRESENTATION_CONTEXT() REPRESENTATION_CONTEXT('2D SPACE',''
  ) );
#323 = ORIENTED_EDGE('',*,*,#324,.T.);
#324 = EDGE_CURVE('',#24,#325,#327,.T.);
#325 = VERTEX_POINT('',#326);
#326 = CARTESIAN_POINT('',(300.,-750.,750.));
#327 = SEAM_CURVE('',#328,(#332,#338),.PCURVE_S1.);
#328 = LINE('',#329,#330);
#329 = CARTESIAN_POINT('',(300.,750.,750.));
#330 = VECTOR('',#331,1.);
#331 = DIRECTION('',(0.,-1.,0.));
#332 = PCURVE('',#72,#333);
#333 = DEFINITIONAL_REPRESENTATION('',(#334),#337);
#334 = B_SPLINE_CURVE_WITH_KNOTS('',1,(#335,#336),.UNSPECIFIED.,.F.,.F.,
  (2,2),(0.,1.5E+03),.PIECEWISE_BEZIER_KNOTS.);
#335 = CARTESIAN_POINT('',(6.28318530718,0.));
#336 = CARTESIAN_POINT('',(6.28318530718,1.5E+03));
#337 = ( GEOMETRIC_REPRESENTATION_CONTEXT(2) 
PARAMETRIC_REPRESENTATION_CONTEXT() REPRESENTATION_CONTEXT('2D SPACE',''
  ) );
#338 = PCURVE('',#72,#339);
#339 = DEFINITIONAL_REPRESENTATION('',(#340),#343);
#340 = B_SPLINE_CURVE_WITH_KNOTS('',1,(#341,#342),.UNSPECIFIED.,.F.,.F.,
  (2,2),(0.,1.5E+03),.PIECEWISE_BEZIER_KNOTS.);
#341 = CARTESIAN_POINT('',(0.,0.));
#342 = CARTESIAN_POINT('',(0.,1.5E+03));
#343 = ( GEOMETRIC_REPRESENTATION_CONTEXT(2) 
PARAMETRIC_REPRESENTATION_CONTEXT() REPRESENTATION_CONTEXT('2D SPACE',''
  ) );
#344 = ORIENTED_EDGE('',*,*,#345,.F.);
#345 = EDGE_CURVE('',#325,#325,#346,.T.);
#346 = SURFACE_CURVE('',#347,(#352,#358),.PCURVE_S1.);
#347 = CIRCLE('',#348,300.);
#348 = AXIS2_PLACEMENT_3D('',#349,#350,#351);
#349 = CARTESIAN_POINT('',(0.,-750.,750.));
#350 = DIRECTION('',(0.,-1.,0.));
#351 = DIRECTION('',(1.,0.,0.));
#352 = PCURVE('',#72,#353);
#353 = DEFINITIONAL_REPRESENTATION('',(#354),#357);
#354 = B_SPLINE_CURVE_WITH_KNOTS('',1,(#355,#356),.UNSPECIFIED.,.F.,.F.,
  (2,2),(0.,6.28318530718),.PIECEWISE_BEZIER_KNOTS.);
#355 = CARTESIAN_POINT('',(0.,1.5E+03));
#356 = CARTESIAN_POINT('',(6.28318530718,1.5E+03));
#357 = ( GEOMETRIC_REPRESENTATION_CONTEXT(2) 
PARAMETRIC_REPRESENTATION_CONTEXT() REPRESENTATION_CONTEXT('2D SPACE',''
  ) );
#358 = PCURVE('',#359,#364);
#359 = PLANE('',#360);
#360 = AXIS2_PLACEMENT_3D('',#361,#362,#363);
#361 = CARTESIAN_POINT('',(0.,-750.,750.));
#362 = DIRECTION('',(0.,-1.,0.));
#363 = DIRECTION('',(1.,0.,0.));
#364 = DEFINITIONAL_REPRESENTATION('',(#365),#369);
#365 = CIRCLE('',#366,300.);
#366 = AXIS2_PLACEMENT_2D('',#367,#368);
#367 = CARTESIAN_POINT('',(0.,0.));
#368 = DIRECTION('',(1.,0.));
#369 = ( GEOMETRIC_REPRESENTATION_CONTEXT(2) 
PARAMETRIC_REPRESENTATION_CONTEXT() REPRESENTATION_CONTEXT('2D SPACE',''
  ) );
#370 = ORIENTED_EDGE('',*,*,#324,.F.);
#371 = ORIENTED_EDGE('',*,*,#21,.F.);
#372 = ADVANCED_FACE('',(#373),#146,.T.);
#373 = FACE_BOUND('',#374,.T.);
#374 = EDGE_LOOP('',(#375));
#375 = ORIENTED_EDGE('',*,*,#132,.T.);
#376 = ADVANCED_FACE('',(#377),#201,.T.);
#377 = FACE_BOUND('',#378,.T.);
#378 = EDGE_LOOP('',(#379,#380,#401,#427,#428));
#379 = ORIENTED_EDGE('',*,*,#159,.F.);
#380 = ORIENTED_EDGE('',*,*,#381,.F.);
#381 = EDGE_CURVE('',#382,#24,#384,.T.);
#382 = VERTEX_POINT('',#383);
#383 = CARTESIAN_POINT('',(300.,750.,750.));
#384 = SEAM_CURVE('',#385,(#389,#395),.PCURVE_S1.);
#385 = LINE('',#386,#387);
#386 = CARTESIAN_POINT('',(300.,750.,750.));
#387 = VECTOR('',#388,1.);
#388 = DIRECTION('',(0.,-1.,0.));
#389 = PCURVE('',#201,#390);
#390 = DEFINITIONAL_REPRESENTATION('',(#391),#394);
#391 = B_SPLINE_CURVE_WITH_KNOTS('',1,(#392,#393),.UNSPECIFIED.,.F.,.F.,
  (2,2),(0.,1.5E+03),.PIECEWISE_BEZIER_KNOTS.);
#392 = CARTESIAN_POINT('',(0.,0.));
#393 = CARTESIAN_POINT('',(0.,1.5E+03));
#394 = ( GEOMETRIC_REPRESENTATION_CONTEXT(2) 
PARAMETRIC_REPRESENTATION_CONTEXT() REPRESENTATION_CONTEXT('2D SPACE',''
  ) );
#395 = PCURVE('',#201,#396);
#396 = DEFINITIONAL_REPRESENTATION('',(#397),#400);
#397 = B_SPLINE_CURVE_WITH_KNOTS('',1,(#398,#399),.UNSPECIFIED.,.F.,.F.,
  (2,2),(0.,1.5E+03),.PIECEWISE_BEZIER_KNOTS.);
#398 = CARTESIAN_POINT('',(6.28318530718,0.));
#399 = CARTESIAN_POINT('',(6.28318530718,1.5E+03));
#400 = ( GEOMETRIC_REPRESENTATION_CONTEXT(2) 
PARAMETRIC_REPRESENTATION_CONTEXT() REPRESENTATION_CONTEXT('2D SPACE',''
  ) );
#401 = ORIENTED_EDGE('',*,*,#402,.T.);
#402 = EDGE_CURVE('',#382,#382,#403,.T.);
#403 = SURFACE_CURVE('',#404,(#409,#415),.PCURVE_S1.);
#404 = CIRCLE('',#405,300.);
#405 = AXIS2_PLACEMENT_3D('',#406,#407,#408);
#406 = CARTESIAN_POINT('',(0.,750.,750.));
#407 = DIRECTION('',(0.,-1.,0.));
#408 = DIRECTION('',(1.,0.,0.));
#409 = PCURVE('',#201,#410);
#410 = DEFINITIONAL_REPRESENTATION('',(#411),#414);
#411 = B_SPLINE_CURVE_WITH_KNOTS('',1,(#412,#413),.UNSPECIFIED.,.F.,.F.,
  (2,2),(0.,6.28318530718),.PIECEWISE_BEZIER_KNOTS.);
#412 = CARTESIAN_POINT('',(0.,0.));
#413 = CARTESIAN_POINT('',(6.28318530718,0.));
#414 = ( GEOMETRIC_REPRESENTATION_CONTEXT(2) 
PARAMETRIC_REPRESENTATION_CONTEXT() REPRESENTATION_CONTEXT('2D SPACE',''
  ) );
#415 = PCURVE('',#416,#421);
#416 = PLANE('',#417);
#417 = AXIS2_PLACEMENT_3D('',#418,#419,#420);
#418 = CARTESIAN_POINT('',(0.,750.,750.));
#419 = DIRECTION('',(0.,-1.,0.));
#420 = DIRECTION('',(1.,0.,0.));
#421 = DEFINITIONAL_REPRESENTATION('',(#422),#426);
#422 = CIRCLE('',#423,300.);
#423 = AXIS2_PLACEMENT_2D('',#424,#425);
#424 = CARTESIAN_POINT('',(0.,0.));
#425 = DIRECTION('',(1.,0.));
#426 = ( GEOMETRIC_REPRESENTATION_CONTEXT(2) 
PARAMETRIC_REPRESENTATION_CONTEXT() REPRESENTATION_CONTEXT('2D SPACE',''
  ) );
#427 = ORIENTED_EDGE('',*,*,#381,.T.);
#428 = ORIENTED_EDGE('',*,*,#429,.T.);
#429 = EDGE_CURVE('',#24,#22,#430,.T.);
#430 = SURFACE_CURVE('',#431,(#436,#470),.PCURVE_S1.);
#431 = ELLIPSE('',#432,424.26406871192,300.);
#432 = AXIS2_PLACEMENT_3D('',#433,#434,#435);
#433 = CARTESIAN_POINT('',(0.,0.,750.));
#434 = DIRECTION('',(0.,0.707106781187,0.707106781187));
#435 = DIRECTION('',(0.,-0.707106781187,0.707106781187));
#436 = PCURVE('',#201,#437);
#437 = DEFINITIONAL_REPRESENTATION('',(#438),#469);
#438 = B_SPLINE_CURVE_WITH_KNOTS('',8,(#439,#440,#441,#442,#443,#444,
    #445,#446,#447,#448,#449,#450,#451,#452,#453,#454,#455,#456,#457,
    #458,#459,#460,#461,#462,#463,#464,#465,#466,#467,#468),
  .UNSPECIFIED.,.F.,.F.,(9,7,7,7,9),(1.570796326795,2.356194490192,
    2.94524311274,3.828816046563,4.712388980385),.UNSPECIFIED.);
#439 = CARTESIAN_POINT('',(6.28318530718,750.));
#440 = CARTESIAN_POINT('',(6.185010535817,720.54756859134));
#441 = CARTESIAN_POINT('',(6.086835765456,691.09513745026));
#442 = CARTESIAN_POINT('',(5.988660995093,662.0752718402));
#443 = CARTESIAN_POINT('',(5.890486224732,633.92053562216));
#444 = CARTESIAN_POINT('',(5.792311454368,607.0501566017));
#445 = CARTESIAN_POINT('',(5.694136684007,581.85666634852));
#446 = CARTESIAN_POINT('',(5.595961913644,558.69397928691));
#447 = CARTESIAN_POINT('',(5.424156065511,522.24845522626));
#448 = CARTESIAN_POINT('',(5.35052498774,507.94332363299));
#449 = CARTESIAN_POINT('',(5.276893909963,495.08160959836));
#450 = CARTESIAN_POINT('',(5.203262832203,483.77714987099));
#451 = CARTESIAN_POINT('',(5.129631754418,474.12634069356));
#452 = CARTESIAN_POINT('',(5.056000676653,466.20633792638));
#453 = CARTESIAN_POINT('',(4.982369598881,460.07382907086));
#454 = CARTESIAN_POINT('',(4.798291904452,449.30029607298));
#455 = CARTESIAN_POINT('',(4.687845287795,446.93814152124));
#456 = CARTESIAN_POINT('',(4.577398671141,448.79810786224));
#457 = CARTESIAN_POINT('',(4.466952054481,454.89360479638));
#458 = CARTESIAN_POINT('',(4.356505437821,465.12660192744));
#459 = CARTESIAN_POINT('',(4.246058821165,479.28989163896));
#460 = CARTESIAN_POINT('',(4.135612204507,497.07688635929));
#461 = CARTESIAN_POINT('',(3.914718971192,539.11684145653));
#462 = CARTESIAN_POINT('',(3.804272354537,563.36980195849));
#463 = CARTESIAN_POINT('',(3.693825737875,590.465022641));
#464 = CARTESIAN_POINT('',(3.583379121227,619.92765217833));
#465 = CARTESIAN_POINT('',(3.472932504566,651.21394388005));
#466 = CARTESIAN_POINT('',(3.362485887905,683.73202961031));
#467 = CARTESIAN_POINT('',(3.252039271247,716.86601470276));
#468 = CARTESIAN_POINT('',(3.14159265359,750.));
#469 = ( GEOMETRIC_REPRESENTATION_CONTEXT(2) 
PARAMETRIC_REPRESENTATION_CONTEXT() REPRESENTATION_CONTEXT('2D SPACE',''
  ) );
#470 = PCURVE('',#285,#471);
#471 = DEFINITIONAL_REPRESENTATION('',(#472),#503);
#472 = B_SPLINE_CURVE_WITH_KNOTS('',8,(#473,#474,#475,#476,#477,#478,
    #479,#480,#481,#482,#483,#484,#485,#486,#487,#488,#489,#490,#491,
    #492,#493,#494,#495,#496,#497,#498,#499,#500,#501,#502),
  .UNSPECIFIED.,.F.,.F.,(9,7,7,7,9),(1.570796326795,2.356194490192,
    2.94524311274,3.828816046563,4.712388980385),.UNSPECIFIED.);
#473 = CARTESIAN_POINT('',(-6.673691793965E-17,750.));
#474 = CARTESIAN_POINT('',(9.817477136218E-02,720.54756859134));
#475 = CARTESIAN_POINT('',(0.196349541724,691.09513745026));
#476 = CARTESIAN_POINT('',(0.294524312086,662.0752718402));
#477 = CARTESIAN_POINT('',(0.392699082448,633.92053562216));
#478 = CARTESIAN_POINT('',(0.49087385281,607.0501566017));
#479 = CARTESIAN_POINT('',(0.589048623173,581.85666634852));
#480 = CARTESIAN_POINT('',(0.687223393535,558.69397928691));
#481 = CARTESIAN_POINT('',(0.859029241669,522.24845522626));
#482 = CARTESIAN_POINT('',(0.93266031944,507.94332363299));
#483 = CARTESIAN_POINT('',(1.006291397211,495.08160959836));
#484 = CARTESIAN_POINT('',(1.079922474982,483.77714987099));
#485 = CARTESIAN_POINT('',(1.153553552754,474.12634069356));
#486 = CARTESIAN_POINT('',(1.227184630527,466.20633792638));
#487 = CARTESIAN_POINT('',(1.300815708299,460.07382907086));
#488 = CARTESIAN_POINT('',(1.484893402728,449.30029607298));
#489 = CARTESIAN_POINT('',(1.595340019384,446.93814152124));
#490 = CARTESIAN_POINT('',(1.705786636036,448.79810786224));
#491 = CARTESIAN_POINT('',(1.816233252699,454.89360479638));
#492 = CARTESIAN_POINT('',(1.926679869356,465.12660192744));
#493 = CARTESIAN_POINT('',(2.037126486013,479.28989163896));
#494 = CARTESIAN_POINT('',(2.147573102673,497.07688635929));
#495 = CARTESIAN_POINT('',(2.368466335988,539.11684145653));
#496 = CARTESIAN_POINT('',(2.478912952643,563.36980195849));
#497 = CARTESIAN_POINT('',(2.589359569305,590.465022641));
#498 = CARTESIAN_POINT('',(2.699806185952,619.92765217833));
#499 = CARTESIAN_POINT('',(2.810252802614,651.21394388005));
#500 = CARTESIAN_POINT('',(2.920699419275,683.73202961031));
#501 = CARTESIAN_POINT('',(3.031146035932,716.86601470276));
#502 = CARTESIAN_POINT('',(3.14159265359,750.));
#503 = ( GEOMETRIC_REPRESENTATION_CONTEXT(2) 
PARAMETRIC_REPRESENTATION_CONTEXT() REPRESENTATION_CONTEXT('2D SPACE',''
  ) );
#504 = ADVANCED_FACE('',(#505),#285,.T.);
#505 = FACE_BOUND('',#506,.T.);
#506 = EDGE_LOOP('',(#507,#508,#529,#555,#556));
#507 = ORIENTED_EDGE('',*,*,#429,.F.);
#508 = ORIENTED_EDGE('',*,*,#509,.F.);
#509 = EDGE_CURVE('',#510,#24,#512,.T.);
#510 = VERTEX_POINT('',#511);
#511 = CARTESIAN_POINT('',(300.,0.,0.));
#512 = SEAM_CURVE('',#513,(#517,#523),.PCURVE_S1.);
#513 = LINE('',#514,#515);
#514 = CARTESIAN_POINT('',(300.,0.,0.));
#515 = VECTOR('',#516,1.);
#516 = DIRECTION('',(0.,0.,1.));
#517 = PCURVE('',#285,#518);
#518 = DEFINITIONAL_REPRESENTATION('',(#519),#522);
#519 = B_SPLINE_CURVE_WITH_KNOTS('',1,(#520,#521),.UNSPECIFIED.,.F.,.F.,
  (2,2),(0.,1.5E+03),.PIECEWISE_BEZIER_KNOTS.);
#520 = CARTESIAN_POINT('',(0.,0.));
#521 = CARTESIAN_POINT('',(0.,1.5E+03));
#522 = ( GEOMETRIC_REPRESENTATION_CONTEXT(2) 
PARAMETRIC_REPRESENTATION_CONTEXT() REPRESENTATION_CONTEXT('2D SPACE',''
  ) );
#523 = PCURVE('',#285,#524);
#524 = DEFINITIONAL_REPRESENTATION('',(#525),#528);
#525 = B_SPLINE_CURVE_WITH_KNOTS('',1,(#526,#527),.UNSPECIFIED.,.F.,.F.,
  (2,2),(0.,1.5E+03),.PIECEWISE_BEZIER_KNOTS.);
#526 = CARTESIAN_POINT('',(6.28318530718,0.));
#527 = CARTESIAN_POINT('',(6.28318530718,1.5E+03));
#528 = ( GEOMETRIC_REPRESENTATION_CONTEXT(2) 
PARAMETRIC_REPRESENTATION_CONTEXT() REPRESENTATION_CONTEXT('2D SPACE',''
  ) );
#529 = ORIENTED_EDGE('',*,*,#530,.T.);
#530 = EDGE_CURVE('',#510,#510,#531,.T.);
#531 = SURFACE_CURVE('',#532,(#537,#543),.PCURVE_S1.);
#532 = CIRCLE('',#533,300.);
#533 = AXIS2_PLACEMENT_3D('',#534,#535,#536);
#534 = CARTESIAN_POINT('',(0.,0.,0.));
#535 = DIRECTION('',(0.,0.,1.));
#536 = DIRECTION('',(1.,0.,-0.));
#537 = PCURVE('',#285,#538);
#538 = DEFINITIONAL_REPRESENTATION('',(#539),#542);
#539 = B_SPLINE_CURVE_WITH_KNOTS('',1,(#540,#541),.UNSPECIFIED.,.F.,.F.,
  (2,2),(0.,6.28318530718),.PIECEWISE_BEZIER_KNOTS.);
#540 = CARTESIAN_POINT('',(0.,0.));
#541 = CARTESIAN_POINT('',(6.28318530718,0.));
#542 = ( GEOMETRIC_REPRESENTATION_CONTEXT(2) 
PARAMETRIC_REPRESENTATION_CONTEXT() REPRESENTATION_CONTEXT('2D SPACE',''
  ) );
#543 = PCURVE('',#544,#549);
#544 = PLANE('',#545);
#545 = AXIS2_PLACEMENT_3D('',#546,#547,#548);
#546 = CARTESIAN_POINT('',(0.,0.,0.));
#547 = DIRECTION('',(0.,0.,1.));
#548 = DIRECTION('',(1.,0.,-0.));
#549 = DEFINITIONAL_REPRESENTATION('',(#550),#554);
#550 = CIRCLE('',#551,300.);
#551 = AXIS2_PLACEMENT_2D('',#552,#553);
#552 = CARTESIAN_POINT('',(0.,0.));
#553 = DIRECTION('',(1.,0.));
#554 = ( GEOMETRIC_REPRESENTATION_CONTEXT(2) 
PARAMETRIC_REPRESENTATION_CONTEXT() REPRESENTATION_CONTEXT('2D SPACE',''
  ) );
#555 = ORIENTED_EDGE('',*,*,#509,.T.);
#556 = ORIENTED_EDGE('',*,*,#243,.F.);
#557 = ADVANCED_FACE('',(#558),#359,.T.);
#558 = FACE_BOUND('',#559,.T.);
#559 = EDGE_LOOP('',(#560));
#560 = ORIENTED_EDGE('',*,*,#345,.T.);
#561 = ADVANCED_FACE('',(#562),#416,.F.);
#562 = FACE_BOUND('',#563,.T.);
#563 = EDGE_LOOP('',(#564));
#564 = ORIENTED_EDGE('',*,*,#402,.F.);
#565 = ADVANCED_FACE('',(#566),#544,.F.);
#566 = FACE_BOUND('',#567,.T.);
#567 = EDGE_LOOP('',(#568));
#568 = ORIENTED_EDGE('',*,*,#530,.F.);
#569 = ( GEOMETRIC_REPRESENTATION_CONTEXT(3) 
GLOBAL_UNCERTAINTY_ASSIGNED_CONTEXT((#573)) GLOBAL_UNIT_ASSIGNED_CONTEXT
((#570,#571,#572)) REPRESENTATION_CONTEXT('Context #1',
  '3D Context with UNIT and UNCERTAINTY') );
#570 = ( LENGTH_UNIT() NAMED_UNIT(*) SI_UNIT(.MILLI.,.METRE.) );
#571 = ( NAMED_UNIT(*) PLANE_ANGLE_UNIT() SI_UNIT($,.RADIAN.) );
#572 = ( NAMED_UNIT(*) SI_UNIT($,.STERADIAN.) SOLID_ANGLE_UNIT() );
#573 = UNCERTAINTY_MEASURE_WITH_UNIT(LENGTH_MEASURE(5.E-05),#570,
  'distance_accuracy_value','confusion accuracy');
#574 = PRODUCT_RELATED_PRODUCT_CATEGORY('part',$,(#7));
ENDSEC;
END-ISO-10303-21;
