ISO-10303-21;
HEADER;
FILE_DESCRIPTION(('Open CASCADE Model'),'2;1');
FILE_NAME('Open CASCADE Shape Model','2026-07-11T20:15:52',('Author'),(
    'Open CASCADE'),'Open CASCADE STEP processor 8.0','Open CASCADE 8.0'
  ,'Unknown');
FILE_SCHEMA(('AUTOMOTIVE_DESIGN { 1 0 10303 214 1 1 1 1 }'));
ENDSEC;
DATA;
#1 = APPLICATION_PROTOCOL_DEFINITION('international standard',
  'automotive_design',2000,#2);
#2 = APPLICATION_CONTEXT(
  'core data for automotive mechanical design processes');
#3 = SHAPE_DEFINITION_REPRESENTATION(#4,#10);
#4 = PRODUCT_DEFINITION_SHAPE('','',#5);
#5 = PRODUCT_DEFINITION('design','',#6,#9);
#6 = PRODUCT_DEFINITION_FORMATION('','',#7);
#7 = PRODUCT('Open CASCADE STEP translator 8.0 1',
  'Open CASCADE STEP translator 8.0 1','',(#8));
#8 = PRODUCT_CONTEXT('',#2,'mechanical');
#9 = PRODUCT_DEFINITION_CONTEXT('part definition',#2,'design');
#10 = ADVANCED_BREP_SHAPE_REPRESENTATION('',(#11,#15),#1365);
#11 = AXIS2_PLACEMENT_3D('',#12,#13,#14);
#12 = CARTESIAN_POINT('',(0.,0.,0.));
#13 = DIRECTION('',(0.,0.,1.));
#14 = DIRECTION('',(1.,0.,-0.));
#15 = MANIFOLD_SOLID_BREP('',#16);
#16 = CLOSED_SHELL('',(#17,#54,#1152,#1207,#1263,#1298,#1302,#1306,#1361
    ));
#17 = ADVANCED_FACE('',(#18),#31,.F.);
#18 = FACE_BOUND('',#19,.F.);
#19 = EDGE_LOOP('',(#20));
#20 = ORIENTED_EDGE('',*,*,#21,.T.);
#21 = EDGE_CURVE('',#22,#22,#24,.T.);
#22 = VERTEX_POINT('',#23);
#23 = CARTESIAN_POINT('',(5.,0.,0.));
#24 = SURFACE_CURVE('',#25,(#30,#42),.PCURVE_S1.);
#25 = CIRCLE('',#26,5.);
#26 = AXIS2_PLACEMENT_3D('',#27,#28,#29);
#27 = CARTESIAN_POINT('',(0.,0.,0.));
#28 = DIRECTION('',(0.,0.,1.));
#29 = DIRECTION('',(1.,0.,-0.));
#30 = PCURVE('',#31,#36);
#31 = PLANE('',#32);
#32 = AXIS2_PLACEMENT_3D('',#33,#34,#35);
#33 = CARTESIAN_POINT('',(0.,0.,0.));
#34 = DIRECTION('',(0.,0.,1.));
#35 = DIRECTION('',(1.,0.,-0.));
#36 = DEFINITIONAL_REPRESENTATION('',(#37),#41);
#37 = CIRCLE('',#38,5.);
#38 = AXIS2_PLACEMENT_2D('',#39,#40);
#39 = CARTESIAN_POINT('',(0.,0.));
#40 = DIRECTION('',(1.,0.));
#41 = ( GEOMETRIC_REPRESENTATION_CONTEXT(2) 
PARAMETRIC_REPRESENTATION_CONTEXT() REPRESENTATION_CONTEXT('2D SPACE',''
  ) );
#42 = PCURVE('',#43,#48);
#43 = CYLINDRICAL_SURFACE('',#44,5.);
#44 = AXIS2_PLACEMENT_3D('',#45,#46,#47);
#45 = CARTESIAN_POINT('',(0.,0.,0.));
#46 = DIRECTION('',(0.,0.,1.));
#47 = DIRECTION('',(1.,0.,-0.));
#48 = DEFINITIONAL_REPRESENTATION('',(#49),#53);
#49 = LINE('',#50,#51);
#50 = CARTESIAN_POINT('',(0.,0.));
#51 = VECTOR('',#52,1.);
#52 = DIRECTION('',(1.,0.));
#53 = ( GEOMETRIC_REPRESENTATION_CONTEXT(2) 
PARAMETRIC_REPRESENTATION_CONTEXT() REPRESENTATION_CONTEXT('2D SPACE',''
  ) );
#54 = ADVANCED_FACE('',(#55,#568,#1098),#43,.T.);
#55 = FACE_BOUND('',#56,.T.);
#56 = EDGE_LOOP('',(#57));
#57 = ORIENTED_EDGE('',*,*,#58,.F.);
#58 = EDGE_CURVE('',#59,#59,#61,.T.);
#59 = VERTEX_POINT('',#60);
#60 = CARTESIAN_POINT('',(3.,3.999999999988,7.));
#61 = SURFACE_CURVE('',#62,(#227,#395),.PCURVE_S1.);
#62 = B_SPLINE_CURVE_WITH_KNOTS('',8,(#63,#64,#65,#66,#67,#68,#69,#70,
    #71,#72,#73,#74,#75,#76,#77,#78,#79,#80,#81,#82,#83,#84,#85,#86,#87,
    #88,#89,#90,#91,#92,#93,#94,#95,#96,#97,#98,#99,#100,#101,#102,#103,
    #104,#105,#106,#107,#108,#109,#110,#111,#112,#113,#114,#115,#116,
    #117,#118,#119,#120,#121,#122,#123,#124,#125,#126,#127,#128,#129,
    #130,#131,#132,#133,#134,#135,#136,#137,#138,#139,#140,#141,#142,
    #143,#144,#145,#146,#147,#148,#149,#150,#151,#152,#153,#154,#155,
    #156,#157,#158,#159,#160,#161,#162,#163,#164,#165,#166,#167,#168,
    #169,#170,#171,#172,#173,#174,#175,#176,#177,#178,#179,#180,#181,
    #182,#183,#184,#185,#186,#187,#188,#189,#190,#191,#192,#193,#194,
    #195,#196,#197,#198,#199,#200,#201,#202,#203,#204,#205,#206,#207,
    #208,#209,#210,#211,#212,#213,#214,#215,#216,#217,#218,#219,#220,
    #221,#222,#223,#224,#225,#226),.UNSPECIFIED.,.T.,.F.,(9,7,7,7,7,7,7,
    7,7,7,7,7,8,7,7,7,7,7,7,7,7,7,7,9),(0.,2.254925730753E-02,
    5.398262814117E-02,0.123426245673,0.198139711774,0.250412349501,
    0.280954901703,0.317763173797,0.370289672092,0.427181392303,
    0.528348004859,0.569288442522,0.606961930587,0.629511187895,
    0.651870009359,0.698992554246,0.747814879855,0.780883485388,
    0.816126741695,0.832316145207,0.857864899169,0.937155276064,
    0.971881298173,1.),.UNSPECIFIED.);
#63 = CARTESIAN_POINT('',(3.,3.999999999988,7.));
#64 = CARTESIAN_POINT('',(3.000000024718,4.000000008267,6.924398984168)
  );
#65 = CARTESIAN_POINT('',(2.997822569962,4.001632933407,6.849566504233)
  );
#66 = CARTESIAN_POINT('',(2.993545505365,4.004841221911,6.777557385718)
  );
#67 = CARTESIAN_POINT('',(2.987567854319,4.009313169325,6.709258697708)
  );
#68 = CARTESIAN_POINT('',(2.980298348752,4.014726930651,6.644888479685)
  );
#69 = CARTESIAN_POINT('',(2.97203742173,4.020846090972,6.584206762994));
#70 = CARTESIAN_POINT('',(2.962947582785,4.027541876877,6.52658587537));
#71 = CARTESIAN_POINT('',(2.939149302893,4.044959373858,6.393722596709)
  );
#72 = CARTESIAN_POINT('',(2.923851724587,4.056071832048,6.321637313294)
  );
#73 = CARTESIAN_POINT('',(2.907423701554,4.067898602331,6.25371453845));
#74 = CARTESIAN_POINT('',(2.890061592316,4.080273229533,6.189289753993)
  );
#75 = CARTESIAN_POINT('',(2.871896147702,4.093082216496,6.12790734236));
#76 = CARTESIAN_POINT('',(2.853019551368,4.106243327999,6.069177223743)
  );
#77 = CARTESIAN_POINT('',(2.83349215151,4.119698646893,6.012731339814));
#78 = CARTESIAN_POINT('',(2.768784275157,4.163740777667,5.8379838874));
#79 = CARTESIAN_POINT('',(2.721298590246,4.195258026425,5.727773717992)
  );
#80 = CARTESIAN_POINT('',(2.671237424541,4.22756395881,5.624583033598));
#81 = CARTESIAN_POINT('',(2.618737384819,4.260433209067,5.52714609923));
#82 = CARTESIAN_POINT('',(2.563855101102,4.293700593264,5.43455323071));
#83 = CARTESIAN_POINT('',(2.506581208513,4.327241783837,5.346033394974)
  );
#84 = CARTESIAN_POINT('',(2.446805384466,4.360985852308,5.261110392106)
  );
#85 = CARTESIAN_POINT('',(2.317089154594,4.431360077003,5.091238373759)
  );
#86 = CARTESIAN_POINT('',(2.246785855906,4.467978023126,5.006877471816)
  );
#87 = CARTESIAN_POINT('',(2.173211296454,4.504660932902,4.925672639789)
  );
#88 = CARTESIAN_POINT('',(2.096087275787,4.541331740512,4.847288528844)
  );
#89 = CARTESIAN_POINT('',(2.015076781192,4.577912230823,4.771504964251)
  );
#90 = CARTESIAN_POINT('',(1.929752067309,4.614318197084,4.698174035972)
  );
#91 = CARTESIAN_POINT('',(1.839508761332,4.650452996739,4.62720735541));
#92 = CARTESIAN_POINT('',(1.676203330113,4.711209638699,4.510587418711)
  );
#93 = CARTESIAN_POINT('',(1.606152284452,4.73601276023,4.463764384366));
#94 = CARTESIAN_POINT('',(1.532962906677,4.760579622972,4.418096921611)
  );
#95 = CARTESIAN_POINT('',(1.456216795347,4.784855733708,4.373612277352)
  );
#96 = CARTESIAN_POINT('',(1.375449479397,4.808766691969,4.330377801524)
  );
#97 = CARTESIAN_POINT('',(1.290099069167,4.832213265596,4.288504672453)
  );
#98 = CARTESIAN_POINT('',(1.199341176782,4.855056202908,4.248169945135)
  );
#99 = CARTESIAN_POINT('',(1.044823351908,4.889965432411,4.187154023813)
  );
#100 = CARTESIAN_POINT('',(0.9855903163,4.902545665101,4.165305176729));
#101 = CARTESIAN_POINT('',(0.923814374517,4.914802342285,4.144145821044)
  );
#102 = CARTESIAN_POINT('',(0.859150659025,4.926677531617,4.123761006955)
  );
#103 = CARTESIAN_POINT('',(0.791236142561,4.938089209604,4.104275560049)
  );
#104 = CARTESIAN_POINT('',(0.719660737808,4.948926473738,4.085860688689)
  );
#105 = CARTESIAN_POINT('',(0.643879413491,4.959035262798,4.068757033695)
  );
#106 = CARTESIAN_POINT('',(0.465672272655,4.979232416974,4.034703879214)
  );
#107 = CARTESIAN_POINT('',(0.358513395675,4.989167843399,4.018040717016)
  );
#108 = CARTESIAN_POINT('',(0.241080880844,4.997298831814,4.004469382026)
  );
#109 = CARTESIAN_POINT('',(0.114549959083,5.002582996517,3.995706707058)
  );
#110 = CARTESIAN_POINT('',(-1.797820898389E-02,5.003875542474,
    3.99356026691));
#111 = CARTESIAN_POINT('',(-0.150736619265,5.00050156447,3.999140784925)
  );
#112 = CARTESIAN_POINT('',(-0.27580468252,4.993555859051,4.010732016318)
  );
#113 = CARTESIAN_POINT('',(-0.537189730904,4.973447282623,4.044423831859
    ));
#114 = CARTESIAN_POINT('',(-0.672268227718,4.957615942249,4.071046272296
    ));
#115 = CARTESIAN_POINT('',(-0.795295368849,4.939488157751,4.10173167279)
  );
#116 = CARTESIAN_POINT('',(-0.907597531092,4.919682437753,4.13554203016)
  );
#117 = CARTESIAN_POINT('',(-1.011561847693,4.898839698823,4.171466566832
    ));
#118 = CARTESIAN_POINT('',(-1.108200770586,4.877195990114,4.209158533748
    ));
#119 = CARTESIAN_POINT('',(-1.199047981731,4.854921669272,4.248380223577
    ));
#120 = CARTESIAN_POINT('',(-1.378785970159,4.807108827281,4.33360895563)
  );
#121 = CARTESIAN_POINT('',(-1.466282630085,4.781624755821,4.379603110358
    ));
#122 = CARTESIAN_POINT('',(-1.548905088862,4.755666949917,4.427095702006
    ));
#123 = CARTESIAN_POINT('',(-1.627341853987,4.729343083663,4.475977252312
    ));
#124 = CARTESIAN_POINT('',(-1.702077065789,4.702733388076,4.52618693353)
  );
#125 = CARTESIAN_POINT('',(-1.773506457493,4.675900039228,4.577700638233
    ));
#126 = CARTESIAN_POINT('',(-1.84197854633,4.648890732595,4.630530508034)
  );
#127 = CARTESIAN_POINT('',(-2.024738640144,4.573450418946,4.781124614892
    ));
#128 = CARTESIAN_POINT('',(-2.133056435006,4.524779235889,4.881710812228
    ));
#129 = CARTESIAN_POINT('',(-2.234360354457,4.475900883336,4.986845356377
    ));
#130 = CARTESIAN_POINT('',(-2.329541493723,4.426972170162,5.096939402141
    ));
#131 = CARTESIAN_POINT('',(-2.419169653722,4.378184071968,5.212782300872
    ));
#132 = CARTESIAN_POINT('',(-2.503641910292,4.329753355771,5.335343023715
    ));
#133 = CARTESIAN_POINT('',(-2.583166191711,4.281938267611,5.466028328358
    ));
#134 = CARTESIAN_POINT('',(-2.687863063415,4.21623765852,5.665973990153)
  );
#135 = CARTESIAN_POINT('',(-2.717183911908,4.197495818896,5.725448993695
    ));
#136 = CARTESIAN_POINT('',(-2.745669484704,4.1789630022,5.787022504014)
  );
#137 = CARTESIAN_POINT('',(-2.773296797934,4.160680829371,5.85099227157)
  );
#138 = CARTESIAN_POINT('',(-2.800021043579,4.142706130433,5.917689289855
    ));
#139 = CARTESIAN_POINT('',(-2.825772967375,4.125114905996,5.987514901585
    ));
#140 = CARTESIAN_POINT('',(-2.85044535388,4.108014208976,6.061052899558)
  );
#141 = CARTESIAN_POINT('',(-2.895421605192,4.07642328903,6.211220378853)
  );
#142 = CARTESIAN_POINT('',(-2.915668583901,4.062008600509,6.286304448025
    ));
#143 = CARTESIAN_POINT('',(-2.93476747831,4.048243733239,6.365992258679)
  );
#144 = CARTESIAN_POINT('',(-2.952590385113,4.035249189624,6.451583448829
    ));
#145 = CARTESIAN_POINT('',(-2.968687791096,4.023380136698,6.54428723369)
  );
#146 = CARTESIAN_POINT('',(-2.982328793038,4.013226330732,6.645198391142
    ));
#147 = CARTESIAN_POINT('',(-2.992463449849,4.005646119133,6.755397299477
    ));
#148 = CARTESIAN_POINT('',(-2.997453396146,4.001908686856,6.876415462392
    ));
#149 = CARTESIAN_POINT('',(-3.002153779714,3.998390383363,6.990118975865
    ));
#150 = CARTESIAN_POINT('',(-3.002028462057,3.998466805697,7.107686620671
    ));
#151 = CARTESIAN_POINT('',(-2.996228341196,4.002840187283,7.219018391367
    ));
#152 = CARTESIAN_POINT('',(-2.986368027056,4.010243320603,7.321752671007
    ));
#153 = CARTESIAN_POINT('',(-2.973919569974,4.019506196935,7.415664495387
    ));
#154 = CARTESIAN_POINT('',(-2.959717622223,4.029972170775,7.501463466817
    ));
#155 = CARTESIAN_POINT('',(-2.94420262192,4.041301793502,7.581220188462)
  );
#156 = CARTESIAN_POINT('',(-2.91000025729,4.065998001839,7.733434729883)
  );
#157 = CARTESIAN_POINT('',(-2.891708106791,4.079081668976,7.804379668671
    ));
#158 = CARTESIAN_POINT('',(-2.872383806161,4.092755546094,7.871491671026
    ));
#159 = CARTESIAN_POINT('',(-2.852175921732,4.106888436208,7.935379469642
    ));
#160 = CARTESIAN_POINT('',(-2.83118378351,4.121389251161,7.996460485716)
  );
#161 = CARTESIAN_POINT('',(-2.809476883705,4.136191009924,8.055084106954
    ));
#162 = CARTESIAN_POINT('',(-2.787099807411,4.151245445568,8.111571523371
    ));
#163 = CARTESIAN_POINT('',(-2.715511354587,4.198737051063,8.281246585074
    ));
#164 = CARTESIAN_POINT('',(-2.664140171734,4.23188534563,8.38773029639)
  );
#165 = CARTESIAN_POINT('',(-2.610167849106,4.265667846069,8.487971165625
    ));
#166 = CARTESIAN_POINT('',(-2.553657197924,4.299901301671,8.583051470388
    ));
#167 = CARTESIAN_POINT('',(-2.494601292386,4.334448099548,8.673741054304
    ));
#168 = CARTESIAN_POINT('',(-2.432931421036,4.369201799434,8.760672019908
    ));
#169 = CARTESIAN_POINT('',(-2.368490660618,4.404092205699,8.844263000855
    ));
#170 = CARTESIAN_POINT('',(-2.231109405444,4.475305260454,9.008488507403
    ));
#171 = CARTESIAN_POINT('',(-2.157995743609,4.511605276067,9.088835025708
    ));
#172 = CARTESIAN_POINT('',(-2.081430096123,4.54790072233,9.166364516177)
  );
#173 = CARTESIAN_POINT('',(-2.00107129927,4.584118765171,9.241330520992)
  );
#174 = CARTESIAN_POINT('',(-1.916516720201,4.620179650523,9.313890246107
    ));
#175 = CARTESIAN_POINT('',(-1.827260404553,4.655991989367,9.384133665507
    ));
#176 = CARTESIAN_POINT('',(-1.732575492866,4.691444347322,9.452087745953
    ));
#177 = CARTESIAN_POINT('',(-1.562739633747,4.7500654777,9.562135063499)
  );
#178 = CARTESIAN_POINT('',(-1.491185126035,4.773484700948,9.605457501649
    ));
#179 = CARTESIAN_POINT('',(-1.416307974283,4.796622481518,9.647678058313
    ));
#180 = CARTESIAN_POINT('',(-1.337621619034,4.819416092635,9.68874386098)
  );
#181 = CARTESIAN_POINT('',(-1.254597531689,4.841777639687,9.728555235958
    ));
#182 = CARTESIAN_POINT('',(-1.166604104418,4.863587633392,9.766959491382
    ));
#183 = CARTESIAN_POINT('',(-1.072689248084,4.884672904195,9.803717460269
    ));
#184 = CARTESIAN_POINT('',(-0.863049673626,4.926185326186,9.875450005796
    ));
#185 = CARTESIAN_POINT('',(-0.74745633335,4.9462424519,9.909743226967));
#186 = CARTESIAN_POINT('',(-0.618850653741,4.965404935045,9.942213180354
    ));
#187 = CARTESIAN_POINT('',(-0.473750175623,4.98289938313,9.971607664421)
  );
#188 = CARTESIAN_POINT('',(-0.310750084741,4.996809254608,9.99468502114)
  );
#189 = CARTESIAN_POINT('',(-0.131619568356,5.004559107781,
    10.007569581119));
#190 = CARTESIAN_POINT('',(5.883985530457E-02,5.002982920894,
    10.004991957619));
#191 = CARTESIAN_POINT('',(0.324839525988,4.990141109532,9.983544183));
#192 = CARTESIAN_POINT('',(0.404135245416,4.984704212058,9.974453451763)
  );
#193 = CARTESIAN_POINT('',(0.479184069182,4.978158229388,9.963484268667)
  );
#194 = CARTESIAN_POINT('',(0.55023883633,4.970739675005,9.951017330349)
  );
#195 = CARTESIAN_POINT('',(0.617613207194,4.962635520607,9.93735214017)
  );
#196 = CARTESIAN_POINT('',(0.681675475987,4.953982901521,9.922706370037)
  );
#197 = CARTESIAN_POINT('',(0.742842383389,4.94486882212,9.907215222218)
  );
#198 = CARTESIAN_POINT('',(0.894256156998,4.920275855831,9.865230962561)
  );
#199 = CARTESIAN_POINT('',(0.980409642627,4.904244985094,9.837691843075)
  );
#200 = CARTESIAN_POINT('',(1.061360514421,4.887486613118,9.808694350955)
  );
#201 = CARTESIAN_POINT('',(1.13790354467,4.87016599715,9.778483963686));
#202 = CARTESIAN_POINT('',(1.210583632949,4.852397997679,9.747225596084)
  );
#203 = CARTESIAN_POINT('',(1.279862012585,4.834266989263,9.715034815327)
  );
#204 = CARTESIAN_POINT('',(1.346166180199,4.815832972114,9.681985392941)
  );
#205 = CARTESIAN_POINT('',(1.607386158669,4.739062340257,9.542912446679)
  );
#206 = CARTESIAN_POINT('',(1.778647006299,4.678635924993,9.430124842428)
  );
#207 = CARTESIAN_POINT('',(1.933945185121,4.616963628593,9.310781069855)
  );
#208 = CARTESIAN_POINT('',(2.075133562626,4.554531138479,9.184665692684)
  );
#209 = CARTESIAN_POINT('',(2.205492114467,4.491866135579,9.051660613013)
  );
#210 = CARTESIAN_POINT('',(2.325875023482,4.429306019767,8.910397317824)
  );
#211 = CARTESIAN_POINT('',(2.437684951564,4.367175738115,8.759507738656)
  );
#212 = CARTESIAN_POINT('',(2.586964191478,4.279065760769,8.521490540662)
  );
#213 = CARTESIAN_POINT('',(2.630807127745,4.252448142338,8.446343886242)
  );
#214 = CARTESIAN_POINT('',(2.673094428645,4.226083399626,8.368103878615)
  );
#215 = CARTESIAN_POINT('',(2.713840115746,4.20002919076,8.286344759794)
  );
#216 = CARTESIAN_POINT('',(2.752988723676,4.17438872479,8.20042825734));
#217 = CARTESIAN_POINT('',(2.790435600347,4.14930193223,8.109598426599)
  );
#218 = CARTESIAN_POINT('',(2.82601216358,4.12496161193,8.012817777936));
#219 = CARTESIAN_POINT('',(2.886368953551,4.082885961599,7.82269859905)
  );
#220 = CARTESIAN_POINT('',(2.911138241328,4.065317062442,7.734671811812)
  );
#221 = CARTESIAN_POINT('',(2.934432297445,4.048556392339,7.640326372943)
  );
#222 = CARTESIAN_POINT('',(2.956225215062,4.032649621623,7.536979836663)
  );
#223 = CARTESIAN_POINT('',(2.975569877414,4.018324365998,7.422217944231)
  );
#224 = CARTESIAN_POINT('',(2.991038419122,4.006720761968,7.294814475314)
  );
#225 = CARTESIAN_POINT('',(3.000000650222,3.999999570567,7.153338041446)
  );
#226 = CARTESIAN_POINT('',(3.,4.,7.));
#227 = PCURVE('',#43,#228);
#228 = DEFINITIONAL_REPRESENTATION('',(#229),#394);
#229 = B_SPLINE_CURVE_WITH_KNOTS('',8,(#230,#231,#232,#233,#234,#235,
    #236,#237,#238,#239,#240,#241,#242,#243,#244,#245,#246,#247,#248,
    #249,#250,#251,#252,#253,#254,#255,#256,#257,#258,#259,#260,#261,
    #262,#263,#264,#265,#266,#267,#268,#269,#270,#271,#272,#273,#274,
    #275,#276,#277,#278,#279,#280,#281,#282,#283,#284,#285,#286,#287,
    #288,#289,#290,#291,#292,#293,#294,#295,#296,#297,#298,#299,#300,
    #301,#302,#303,#304,#305,#306,#307,#308,#309,#310,#311,#312,#313,
    #314,#315,#316,#317,#318,#319,#320,#321,#322,#323,#324,#325,#326,
    #327,#328,#329,#330,#331,#332,#333,#334,#335,#336,#337,#338,#339,
    #340,#341,#342,#343,#344,#345,#346,#347,#348,#349,#350,#351,#352,
    #353,#354,#355,#356,#357,#358,#359,#360,#361,#362,#363,#364,#365,
    #366,#367,#368,#369,#370,#371,#372,#373,#374,#375,#376,#377,#378,
    #379,#380,#381,#382,#383,#384,#385,#386,#387,#388,#389,#390,#391,
    #392,#393),.UNSPECIFIED.,.T.,.F.,(9,7,7,7,7,7,7,7,7,7,7,7,8,7,7,7,7,
    7,7,7,7,7,7,9),(0.,2.254925730753E-02,5.398262814117E-02,
    0.123426245673,0.198139711774,0.250412349501,0.280954901703,
    0.317763173797,0.370289672092,0.427181392303,0.528348004859,
    0.569288442522,0.606961930587,0.629511187895,0.651870009359,
    0.698992554246,0.747814879855,0.780883485388,0.816126741695,
    0.832316145207,0.857864899169,0.937155276064,0.971881298173,1.),
  .UNSPECIFIED.);
#230 = CARTESIAN_POINT('',(0.927295218,7.));
#231 = CARTESIAN_POINT('',(0.927295215109,6.924398984168));
#232 = CARTESIAN_POINT('',(0.927839558462,6.849566504233));
#233 = CARTESIAN_POINT('',(0.928908884615,6.777557385718));
#234 = CARTESIAN_POINT('',(0.930401940483,6.709258697708));
#235 = CARTESIAN_POINT('',(0.932214714422,6.644888479685));
#236 = CARTESIAN_POINT('',(0.934270786006,6.584206762994));
#237 = CARTESIAN_POINT('',(0.936528728257,6.52658587537));
#238 = CARTESIAN_POINT('',(0.942426955972,6.393722596709));
#239 = CARTESIAN_POINT('',(0.946208480378,6.321637313294));
#240 = CARTESIAN_POINT('',(0.950256885575,6.25371453845));
#241 = CARTESIAN_POINT('',(0.954520935599,6.189289753993));
#242 = CARTESIAN_POINT('',(0.958966279273,6.12790734236));
#243 = CARTESIAN_POINT('',(0.963568515154,6.069177223743));
#244 = CARTESIAN_POINT('',(0.96831128443,6.012731339814));
#245 = CARTESIAN_POINT('',(0.983966084133,5.8379838874));
#246 = CARTESIAN_POINT('',(0.995363953063,5.727773717992));
#247 = CARTESIAN_POINT('',(1.007278312353,5.624583033598));
#248 = CARTESIAN_POINT('',(1.019664021617,5.52714609923));
#249 = CARTESIAN_POINT('',(1.032496761379,5.43455323071));
#250 = CARTESIAN_POINT('',(1.045768535239,5.346033394974));
#251 = CARTESIAN_POINT('',(1.059495121965,5.261110392106));
#252 = CARTESIAN_POINT('',(1.089010405081,5.091238373759));
#253 = CARTESIAN_POINT('',(1.10486184016,5.006877471816));
#254 = CARTESIAN_POINT('',(1.121299806355,4.925672639789));
#255 = CARTESIAN_POINT('',(1.138373299702,4.847288528844));
#256 = CARTESIAN_POINT('',(1.15614334463,4.771504964251));
#257 = CARTESIAN_POINT('',(1.174689147753,4.698174035972));
#258 = CARTESIAN_POINT('',(1.194125072385,4.62720735541));
#259 = CARTESIAN_POINT('',(1.228973277929,4.510587418711));
#260 = CARTESIAN_POINT('',(1.243834046742,4.463764384366));
#261 = CARTESIAN_POINT('',(1.259270780561,4.418096921611));
#262 = CARTESIAN_POINT('',(1.275364502444,4.373612277352));
#263 = CARTESIAN_POINT('',(1.292204889513,4.330377801524));
#264 = CARTESIAN_POINT('',(1.309900694495,4.288504672453));
#265 = CARTESIAN_POINT('',(1.328612917386,4.248169945135));
#266 = CARTESIAN_POINT('',(1.360295309945,4.187154023813));
#267 = CARTESIAN_POINT('',(1.372405204147,4.165305176729));
#268 = CARTESIAN_POINT('',(1.384999221153,4.144145821044));
#269 = CARTESIAN_POINT('',(1.398145465596,4.123761006955));
#270 = CARTESIAN_POINT('',(1.411915424844,4.104275560049));
#271 = CARTESIAN_POINT('',(1.42639001513,4.085860688689));
#272 = CARTESIAN_POINT('',(1.441677584392,4.068757033695));
#273 = CARTESIAN_POINT('',(1.477547157259,4.034703879214));
#274 = CARTESIAN_POINT('',(1.4990665153,4.018040717016));
#275 = CARTESIAN_POINT('',(1.522597728105,4.004469382026));
#276 = CARTESIAN_POINT('',(1.547907100833,3.995706707058));
#277 = CARTESIAN_POINT('',(1.57438222447,3.99356026691));
#278 = CARTESIAN_POINT('',(1.600922466547,3.999140784925));
#279 = CARTESIAN_POINT('',(1.625969041846,4.010732016318));
#280 = CARTESIAN_POINT('',(1.678400484398,4.044423831859));
#281 = CARTESIAN_POINT('',(1.705579616627,4.071046272296));
#282 = CARTESIAN_POINT('',(1.730434588213,4.10173167279));
#283 = CARTESIAN_POINT('',(1.753224585814,4.13554203016));
#284 = CARTESIAN_POINT('',(1.774421627715,4.171466566832));
#285 = CARTESIAN_POINT('',(1.794220485589,4.209158533748));
#286 = CARTESIAN_POINT('',(1.812924766736,4.248380223577));
#287 = CARTESIAN_POINT('',(1.850122459682,4.33360895563));
#288 = CARTESIAN_POINT('',(1.868343999097,4.379603110358));
#289 = CARTESIAN_POINT('',(1.885658626835,4.427095702006));
#290 = CARTESIAN_POINT('',(1.902200035684,4.475977252312));
#291 = CARTESIAN_POINT('',(1.918061356689,4.52618693353));
#292 = CARTESIAN_POINT('',(1.933318403165,4.577700638233));
#293 = CARTESIAN_POINT('',(1.948037985031,4.630530508034));
#294 = CARTESIAN_POINT('',(1.987581603999,4.781124614892));
#295 = CARTESIAN_POINT('',(2.011320407894,4.881710812228));
#296 = CARTESIAN_POINT('',(2.033802897773,4.986845356377));
#297 = CARTESIAN_POINT('',(2.055194309552,5.096939402141));
#298 = CARTESIAN_POINT('',(2.075592961286,5.212782300872));
#299 = CARTESIAN_POINT('',(2.095060143996,5.335343023715));
#300 = CARTESIAN_POINT('',(2.113615175356,5.466028328358));
#301 = CARTESIAN_POINT('',(2.138336020898,5.665973990153));
#302 = CARTESIAN_POINT('',(2.145295574439,5.725448993695));
#303 = CARTESIAN_POINT('',(2.152091957014,5.787022504014));
#304 = CARTESIAN_POINT('',(2.158717294814,5.85099227157));
#305 = CARTESIAN_POINT('',(2.165158302719,5.917689289855));
#306 = CARTESIAN_POINT('',(2.171395406727,5.987514901585));
#307 = CARTESIAN_POINT('',(2.177399157105,6.061052899558));
#308 = CARTESIAN_POINT('',(2.188391608495,6.211220378853));
#309 = CARTESIAN_POINT('',(2.193362313375,6.286304448025));
#310 = CARTESIAN_POINT('',(2.19807065123,6.365992258679));
#311 = CARTESIAN_POINT('',(2.202481931796,6.451583448829));
#312 = CARTESIAN_POINT('',(2.206481853086,6.54428723369));
#313 = CARTESIAN_POINT('',(2.209882880879,6.645198391142));
#314 = CARTESIAN_POINT('',(2.212414052995,6.755397299477));
#315 = CARTESIAN_POINT('',(2.213660936506,6.876415462392));
#316 = CARTESIAN_POINT('',(2.21483518795,6.990118975865));
#317 = CARTESIAN_POINT('',(2.214805985879,7.107686620671));
#318 = CARTESIAN_POINT('',(2.21335313319,7.219018391367));
#319 = CARTESIAN_POINT('',(2.210887123545,7.321752671007));
#320 = CARTESIAN_POINT('',(2.207783854764,7.415664495387));
#321 = CARTESIAN_POINT('',(2.204255559417,7.501463466817));
#322 = CARTESIAN_POINT('',(2.200413343345,7.581220188462));
#323 = CARTESIAN_POINT('',(2.191976035325,7.733434729883));
#324 = CARTESIAN_POINT('',(2.187478146916,7.804379668671));
#325 = CARTESIAN_POINT('',(2.182743682605,7.871491671026));
#326 = CARTESIAN_POINT('',(2.177811911415,7.935379469642));
#327 = CARTESIAN_POINT('',(2.172709371483,7.996460485716));
#328 = CARTESIAN_POINT('',(2.167454897862,8.055084106954));
#329 = CARTESIAN_POINT('',(2.162061053004,8.111571523371));
#330 = CARTESIAN_POINT('',(2.144879249138,8.281246585074));
#331 = CARTESIAN_POINT('',(2.132652713771,8.38773029639));
#332 = CARTESIAN_POINT('',(2.119920130018,8.487971165625));
#333 = CARTESIAN_POINT('',(2.106708843865,8.583051470388));
#334 = CARTESIAN_POINT('',(2.093028554611,8.673741054304));
#335 = CARTESIAN_POINT('',(2.078874189816,8.760672019908));
#336 = CARTESIAN_POINT('',(2.064220573673,8.844263000855));
#337 = CARTESIAN_POINT('',(2.03327232119,9.008488507403));
#338 = CARTESIAN_POINT('',(2.01694886607,9.088835025708));
#339 = CARTESIAN_POINT('',(2.000007212823,9.166364516177));
#340 = CARTESIAN_POINT('',(1.982385245331,9.241330520992));
#341 = CARTESIAN_POINT('',(1.96400862355,9.313890246107));
#342 = CARTESIAN_POINT('',(1.944782540447,9.384133665507));
#343 = CARTESIAN_POINT('',(1.924568356294,9.452087745953));
#344 = CARTESIAN_POINT('',(1.888634797333,9.562135063499));
#345 = CARTESIAN_POINT('',(1.873578638195,9.605457501649));
#346 = CARTESIAN_POINT('',(1.857908473336,9.647678058313));
#347 = CARTESIAN_POINT('',(1.841529558843,9.68874386098));
#348 = CARTESIAN_POINT('',(1.824339423882,9.728555235958));
#349 = CARTESIAN_POINT('',(1.806215415162,9.766959491382));
#350 = CARTESIAN_POINT('',(1.786970928449,9.803717460269));
#351 = CARTESIAN_POINT('',(1.744228926187,9.875450005796));
#352 = CARTESIAN_POINT('',(1.720771501678,9.909743226967));
#353 = CARTESIAN_POINT('',(1.69477882812,9.942213180354));
#354 = CARTESIAN_POINT('',(1.665576203868,9.971607664421));
#355 = CARTESIAN_POINT('',(1.632898683927,9.99468502114));
#356 = CARTESIAN_POINT('',(1.597114844803,10.007569581119));
#357 = CARTESIAN_POINT('',(1.55905210606,10.004991957619));
#358 = CARTESIAN_POINT('',(1.50579023128,9.983544183));
#359 = CARTESIAN_POINT('',(1.489897046933,9.974453451763));
#360 = CARTESIAN_POINT('',(1.474834465169,9.963484268667));
#361 = CARTESIAN_POINT('',(1.460550128642,9.951017330349));
#362 = CARTESIAN_POINT('',(1.44698111643,9.93735214017));
#363 = CARTESIAN_POINT('',(1.434054354093,9.922706370037));
#364 = CARTESIAN_POINT('',(1.421687023739,9.907215222218));
#365 = CARTESIAN_POINT('',(1.391007427927,9.865230962561));
#366 = CARTESIAN_POINT('',(1.37348550557,9.837691843075));
#367 = CARTESIAN_POINT('',(1.356957495065,9.808694350955));
#368 = CARTESIAN_POINT('',(1.341266752796,9.778483963686));
#369 = CARTESIAN_POINT('',(1.326306734262,9.747225596084));
#370 = CARTESIAN_POINT('',(1.311987393547,9.715034815327));
#371 = CARTESIAN_POINT('',(1.298224951467,9.681985392941));
#372 = CARTESIAN_POINT('',(1.243771478447,9.542912446679));
#373 = CARTESIAN_POINT('',(1.207501257902,9.430124842428));
#374 = CARTESIAN_POINT('',(1.174119075755,9.310781069855));
#375 = CARTESIAN_POINT('',(1.143287609558,9.184665692684));
#376 = CARTESIAN_POINT('',(1.114384405711,9.051660613013));
#377 = CARTESIAN_POINT('',(1.087270890079,8.910397317824));
#378 = CARTESIAN_POINT('',(1.061696671568,8.759507738656));
#379 = CARTESIAN_POINT('',(1.02702815044,8.521490540662));
#380 = CARTESIAN_POINT('',(1.016770869021,8.446343886242));
#381 = CARTESIAN_POINT('',(1.006805443384,8.368103878615));
#382 = CARTESIAN_POINT('',(0.997133942006,8.286344759794));
#383 = CARTESIAN_POINT('',(0.987775403724,8.20042825734));
#384 = CARTESIAN_POINT('',(0.978761440716,8.109598426599));
#385 = CARTESIAN_POINT('',(0.970140535832,8.012817777936));
#386 = CARTESIAN_POINT('',(0.955425505459,7.82269859905));
#387 = CARTESIAN_POINT('',(0.949352214824,7.734671811812));
#388 = CARTESIAN_POINT('',(0.943612956807,7.640326372943));
#389 = CARTESIAN_POINT('',(0.938217087332,7.536979836663));
#390 = CARTESIAN_POINT('',(0.933402978445,7.422217944231));
#391 = CARTESIAN_POINT('',(0.929535558137,7.294814475314));
#392 = CARTESIAN_POINT('',(0.927295063029,7.153338041446));
#393 = CARTESIAN_POINT('',(0.927295218002,7.));
#394 = ( GEOMETRIC_REPRESENTATION_CONTEXT(2) 
PARAMETRIC_REPRESENTATION_CONTEXT() REPRESENTATION_CONTEXT('2D SPACE',''
  ) );
#395 = PCURVE('',#396,#401);
#396 = CYLINDRICAL_SURFACE('',#397,3.);
#397 = AXIS2_PLACEMENT_3D('',#398,#399,#400);
#398 = CARTESIAN_POINT('',(0.,7.,7.));
#399 = DIRECTION('',(0.,-1.,0.));
#400 = DIRECTION('',(1.,0.,0.));
#401 = DEFINITIONAL_REPRESENTATION('',(#402),#567);
#402 = B_SPLINE_CURVE_WITH_KNOTS('',8,(#403,#404,#405,#406,#407,#408,
    #409,#410,#411,#412,#413,#414,#415,#416,#417,#418,#419,#420,#421,
    #422,#423,#424,#425,#426,#427,#428,#429,#430,#431,#432,#433,#434,
    #435,#436,#437,#438,#439,#440,#441,#442,#443,#444,#445,#446,#447,
    #448,#449,#450,#451,#452,#453,#454,#455,#456,#457,#458,#459,#460,
    #461,#462,#463,#464,#465,#466,#467,#468,#469,#470,#471,#472,#473,
    #474,#475,#476,#477,#478,#479,#480,#481,#482,#483,#484,#485,#486,
    #487,#488,#489,#490,#491,#492,#493,#494,#495,#496,#497,#498,#499,
    #500,#501,#502,#503,#504,#505,#506,#507,#508,#509,#510,#511,#512,
    #513,#514,#515,#516,#517,#518,#519,#520,#521,#522,#523,#524,#525,
    #526,#527,#528,#529,#530,#531,#532,#533,#534,#535,#536,#537,#538,
    #539,#540,#541,#542,#543,#544,#545,#546,#547,#548,#549,#550,#551,
    #552,#553,#554,#555,#556,#557,#558,#559,#560,#561,#562,#563,#564,
    #565,#566),.UNSPECIFIED.,.F.,.F.,(9,7,7,7,7,7,7,7,7,7,7,7,8,7,7,7,7,
    7,7,7,7,7,7,9),(0.,2.254925730753E-02,5.398262814117E-02,
    0.123426245673,0.198139711774,0.250412349501,0.280954901703,
    0.317763173797,0.370289672092,0.427181392303,0.528348004859,
    0.569288442522,0.606961930587,0.629511187895,0.651870009359,
    0.698992554246,0.747814879855,0.780883485388,0.816126741695,
    0.832316145207,0.857864899169,0.937155276064,0.971881298173,1.),
  .UNSPECIFIED.);
#403 = CARTESIAN_POINT('',(6.28318530718,3.000000000012));
#404 = CARTESIAN_POINT('',(6.257984955042,2.999999991733));
#405 = CARTESIAN_POINT('',(6.233040874599,2.998367066593));
#406 = CARTESIAN_POINT('',(6.209013236158,2.995158778089));
#407 = CARTESIAN_POINT('',(6.186176246377,2.990686830675));
#408 = CARTESIAN_POINT('',(6.164594720479,2.985273069349));
#409 = CARTESIAN_POINT('',(6.144189014844,2.979153909028));
#410 = CARTESIAN_POINT('',(6.1247486072,2.972458123123));
#411 = CARTESIAN_POINT('',(6.079756088714,2.955040626142));
#412 = CARTESIAN_POINT('',(6.055204782592,2.943928167953));
#413 = CARTESIAN_POINT('',(6.0319261424,2.932101397669));
#414 = CARTESIAN_POINT('',(6.0096990315,2.919726770467));
#415 = CARTESIAN_POINT('',(5.988372935146,2.906917783504));
#416 = CARTESIAN_POINT('',(5.967818834755,2.893756672001));
#417 = CARTESIAN_POINT('',(5.947913748777,2.880301353107));
#418 = CARTESIAN_POINT('',(5.885799529024,2.836259222333));
#419 = CARTESIAN_POINT('',(5.84585187264,2.804741973575));
#420 = CARTESIAN_POINT('',(5.807683306592,2.77243604119));
#421 = CARTESIAN_POINT('',(5.770853598102,2.739566790933));
#422 = CARTESIAN_POINT('',(5.73503398148,2.706299406736));
#423 = CARTESIAN_POINT('',(5.699932879491,2.672758216163));
#424 = CARTESIAN_POINT('',(5.665342710408,2.639014147692));
#425 = CARTESIAN_POINT('',(5.594097586012,2.568639922997));
#426 = CARTESIAN_POINT('',(5.557525239679,2.532021976874));
#427 = CARTESIAN_POINT('',(5.521051930123,2.495339067098));
#428 = CARTESIAN_POINT('',(5.484459374209,2.458668259488));
#429 = CARTESIAN_POINT('',(5.44754660518,2.422087769177));
#430 = CARTESIAN_POINT('',(5.410103539636,2.385681802916));
#431 = CARTESIAN_POINT('',(5.371875723366,2.349547003261));
#432 = CARTESIAN_POINT('',(5.304985692629,2.288790361301));
#433 = CARTESIAN_POINT('',(5.276912144078,2.26398723977));
#434 = CARTESIAN_POINT('',(5.248180918087,2.239420377028));
#435 = CARTESIAN_POINT('',(5.218644137105,2.215144266292));
#436 = CARTESIAN_POINT('',(5.188143415556,2.191233308031));
#437 = CARTESIAN_POINT('',(5.156491139069,2.167786734404));
#438 = CARTESIAN_POINT('',(5.123414345688,2.144943797092));
#439 = CARTESIAN_POINT('',(5.068038343019,2.110034567589));
#440 = CARTESIAN_POINT('',(5.046998764783,2.097454334899));
#441 = CARTESIAN_POINT('',(5.025242819133,2.085197657715));
#442 = CARTESIAN_POINT('',(5.002656755511,2.073322468383));
#443 = CARTESIAN_POINT('',(4.979122034421,2.061910790396));
#444 = CARTESIAN_POINT('',(4.954504386794,2.051073526262));
#445 = CARTESIAN_POINT('',(4.928622626331,2.040964737202));
#446 = CARTESIAN_POINT('',(4.868145594935,2.020767583026));
#447 = CARTESIAN_POINT('',(4.832017569556,2.0108321566));
#448 = CARTESIAN_POINT('',(4.792667375067,2.002701168187));
#449 = CARTESIAN_POINT('',(4.750477701944,1.997417003481));
#450 = CARTESIAN_POINT('',(4.706440016625,1.996124457528));
#451 = CARTESIAN_POINT('',(4.662241947489,1.999498435529));
#452 = CARTESIAN_POINT('',(4.620400230978,2.006444140949));
#453 = CARTESIAN_POINT('',(4.532551234468,2.026552717377));
#454 = CARTESIAN_POINT('',(4.486759304104,2.042384057751));
#455 = CARTESIAN_POINT('',(4.444572457363,2.060511842249));
#456 = CARTESIAN_POINT('',(4.405563909854,2.080317562248));
#457 = CARTESIAN_POINT('',(4.368949438647,2.101160301177));
#458 = CARTESIAN_POINT('',(4.334414690644,2.122804009886));
#459 = CARTESIAN_POINT('',(4.301449854853,2.145078330728));
#460 = CARTESIAN_POINT('',(4.235143021795,2.192891172719));
#461 = CARTESIAN_POINT('',(4.202220949395,2.218375244179));
#462 = CARTESIAN_POINT('',(4.170491519037,2.244333050083));
#463 = CARTESIAN_POINT('',(4.139721852068,2.270656916337));
#464 = CARTESIAN_POINT('',(4.109743867835,2.297266611924));
#465 = CARTESIAN_POINT('',(4.080414682061,2.324099960772));
#466 = CARTESIAN_POINT('',(4.051601142347,2.351109267405));
#467 = CARTESIAN_POINT('',(3.972663990227,2.426549581054));
#468 = CARTESIAN_POINT('',(3.923478144777,2.475220764111));
#469 = CARTESIAN_POINT('',(3.874932788286,2.524099116664));
#470 = CARTESIAN_POINT('',(3.826567536237,2.573027829838));
#471 = CARTESIAN_POINT('',(3.777891481926,2.621815928032));
#472 = CARTESIAN_POINT('',(3.728405173388,2.670246644228));
#473 = CARTESIAN_POINT('',(3.677517049066,2.718061732389));
#474 = CARTESIAN_POINT('',(3.602284388068,2.78376234148));
#475 = CARTESIAN_POINT('',(3.580187361729,2.802504181104));
#476 = CARTESIAN_POINT('',(3.55758497584,2.8210369978));
#477 = CARTESIAN_POINT('',(3.534373690751,2.839319170629));
#478 = CARTESIAN_POINT('',(3.510440692396,2.857293869567));
#479 = CARTESIAN_POINT('',(3.485650876107,2.874885094004));
#480 = CARTESIAN_POINT('',(3.459808994356,2.891985791024));
#481 = CARTESIAN_POINT('',(3.40755622299,2.92357671097));
#482 = CARTESIAN_POINT('',(3.381644455531,2.937991399492));
#483 = CARTESIAN_POINT('',(3.354347379814,2.95175626676));
#484 = CARTESIAN_POINT('',(3.32523401416,2.964750810376));
#485 = CARTESIAN_POINT('',(3.293909410317,2.976619863302));
#486 = CARTESIAN_POINT('',(3.260013945961,2.986773669268));
#487 = CARTESIAN_POINT('',(3.223172791231,2.994353880867));
#488 = CARTESIAN_POINT('',(3.182799159747,2.998091313144));
#489 = CARTESIAN_POINT('',(3.144864155147,3.001609616638));
#490 = CARTESIAN_POINT('',(3.105714473122,3.001533194302));
#491 = CARTESIAN_POINT('',(3.068624715296,2.997159812718));
#492 = CARTESIAN_POINT('',(3.034279803454,2.989756679398));
#493 = CARTESIAN_POINT('',(3.00273210662,2.980493803064));
#494 = CARTESIAN_POINT('',(2.973766624941,2.970027829225));
#495 = CARTESIAN_POINT('',(2.946692745698,2.958698206498));
#496 = CARTESIAN_POINT('',(2.894689751994,2.934001998161));
#497 = CARTESIAN_POINT('',(2.87027978944,2.920918331024));
#498 = CARTESIAN_POINT('',(2.847015142581,2.907244453906));
#499 = CARTESIAN_POINT('',(2.824693528089,2.893111563792));
#500 = CARTESIAN_POINT('',(2.80317662777,2.878610748839));
#501 = CARTESIAN_POINT('',(2.782348202026,2.863808990076));
#502 = CARTESIAN_POINT('',(2.762100124853,2.848754554432));
#503 = CARTESIAN_POINT('',(2.700713924876,2.801262948937));
#504 = CARTESIAN_POINT('',(2.661354114963,2.76811465437));
#505 = CARTESIAN_POINT('',(2.623465919887,2.734332153931));
#506 = CARTESIAN_POINT('',(2.586661145394,2.700098698329));
#507 = CARTESIAN_POINT('',(2.55064669786,2.665551900451));
#508 = CARTESIAN_POINT('',(2.51516445512,2.630798200566));
#509 = CARTESIAN_POINT('',(2.480010765092,2.595907794301));
#510 = CARTESIAN_POINT('',(2.408640441653,2.524694739546));
#511 = CARTESIAN_POINT('',(2.37246009375,2.488394723933));
#512 = CARTESIAN_POINT('',(2.336190383551,2.45209927767));
#513 = CARTESIAN_POINT('',(2.29961983378,2.415881234829));
#514 = CARTESIAN_POINT('',(2.262545165246,2.379820349477));
#515 = CARTESIAN_POINT('',(2.224745979448,2.344008010633));
#516 = CARTESIAN_POINT('',(2.185940654506,2.308555652678));
#517 = CARTESIAN_POINT('',(2.118483559285,2.249934522299));
#518 = CARTESIAN_POINT('',(2.09061312839,2.226515299052));
#519 = CARTESIAN_POINT('',(2.061984291893,2.203377518482));
#520 = CARTESIAN_POINT('',(2.032430259185,2.180583907365));
#521 = CARTESIAN_POINT('',(2.001774924066,2.158222360313));
#522 = CARTESIAN_POINT('',(1.969810660264,2.136412366608));
#523 = CARTESIAN_POINT('',(1.936224307256,2.115327095805));
#524 = CARTESIAN_POINT('',(1.862366994091,2.073814673814));
#525 = CARTESIAN_POINT('',(1.822211045119,2.0537575481));
#526 = CARTESIAN_POINT('',(1.778058024927,2.034595064955));
#527 = CARTESIAN_POINT('',(1.728847285965,2.01710061687));
#528 = CARTESIAN_POINT('',(1.674162226012,2.003190745392));
#529 = CARTESIAN_POINT('',(1.614643202202,1.995440892219));
#530 = CARTESIAN_POINT('',(1.551293447983,1.997017079106));
#531 = CARTESIAN_POINT('',(1.462339221237,2.009858890468));
#532 = CARTESIAN_POINT('',(1.435749035921,2.015295787942));
#533 = CARTESIAN_POINT('',(1.410486538409,2.021841770612));
#534 = CARTESIAN_POINT('',(1.38645817146,2.029260324995));
#535 = CARTESIAN_POINT('',(1.36355723366,2.037364479393));
#536 = CARTESIAN_POINT('',(1.341662196689,2.046017098479));
#537 = CARTESIAN_POINT('',(1.320635022596,2.05513117788));
#538 = CARTESIAN_POINT('',(1.268259459529,2.079724144169));
#539 = CARTESIAN_POINT('',(1.238132549697,2.095755014906));
#540 = CARTESIAN_POINT('',(1.209497925736,2.112513386882));
#541 = CARTESIAN_POINT('',(1.182094462032,2.12983400285));
#542 = CARTESIAN_POINT('',(1.155744688856,2.147602002321));
#543 = CARTESIAN_POINT('',(1.13029772878,2.165733010737));
#544 = CARTESIAN_POINT('',(1.105611213841,2.184167027886));
#545 = CARTESIAN_POINT('',(1.006966572582,2.260937659743));
#546 = CARTESIAN_POINT('',(0.93890665518,2.321364075008));
#547 = CARTESIAN_POINT('',(0.873895400855,2.383036371407));
#548 = CARTESIAN_POINT('',(0.811128608571,2.445468861521));
#549 = CARTESIAN_POINT('',(0.749330576765,2.508133864421));
#550 = CARTESIAN_POINT('',(0.687710088661,2.570693980233));
#551 = CARTESIAN_POINT('',(0.625295775344,2.632824261885));
#552 = CARTESIAN_POINT('',(0.531643555248,2.720934239231));
#553 = CARTESIAN_POINT('',(0.502658466547,2.747551857662));
#554 = CARTESIAN_POINT('',(0.473038497753,2.773916600374));
#555 = CARTESIAN_POINT('',(0.4426245003,2.79997080924));
#556 = CARTESIAN_POINT('',(0.41119260287,2.82561127521));
#557 = CARTESIAN_POINT('',(0.378483580295,2.85069806777));
#558 = CARTESIAN_POINT('',(0.344147060125,2.87503838807));
#559 = CARTESIAN_POINT('',(0.277657000746,2.917114038401));
#560 = CARTESIAN_POINT('',(0.24719275908,2.934682937557));
#561 = CARTESIAN_POINT('',(0.214826470031,2.951443607663));
#562 = CARTESIAN_POINT('',(0.179671051338,2.967350378374));
#563 = CARTESIAN_POINT('',(0.140944016604,2.981675634004));
#564 = CARTESIAN_POINT('',(9.827119291103E-02,2.993279238031));
#565 = CARTESIAN_POINT('',(5.111272209673E-02,3.000000429433));
#566 = CARTESIAN_POINT('',(0.,3.));
#567 = ( GEOMETRIC_REPRESENTATION_CONTEXT(2) 
PARAMETRIC_REPRESENTATION_CONTEXT() REPRESENTATION_CONTEXT('2D SPACE',''
  ) );
#568 = FACE_BOUND('',#569,.T.);
#569 = EDGE_LOOP('',(#570,#849));
#570 = ORIENTED_EDGE('',*,*,#571,.F.);
#571 = EDGE_CURVE('',#572,#574,#576,.T.);
#572 = VERTEX_POINT('',#573);
#573 = CARTESIAN_POINT('',(-3.,-4.,7.));
#574 = VERTEX_POINT('',#575);
#575 = CARTESIAN_POINT('',(3.,-4.,7.));
#576 = SURFACE_CURVE('',#577,(#664,#754),.PCURVE_S1.);
#577 = B_SPLINE_CURVE_WITH_KNOTS('',8,(#578,#579,#580,#581,#582,#583,
    #584,#585,#586,#587,#588,#589,#590,#591,#592,#593,#594,#595,#596,
    #597,#598,#599,#600,#601,#602,#603,#604,#605,#606,#607,#608,#609,
    #610,#611,#612,#613,#614,#615,#616,#617,#618,#619,#620,#621,#622,
    #623,#624,#625,#626,#627,#628,#629,#630,#631,#632,#633,#634,#635,
    #636,#637,#638,#639,#640,#641,#642,#643,#644,#645,#646,#647,#648,
    #649,#650,#651,#652,#653,#654,#655,#656,#657,#658,#659,#660,#661,
    #662,#663),.UNSPECIFIED.,.F.,.F.,(9,7,7,7,7,7,7,7,7,7,7,7,9),(0.,
    3.685593486292E-02,8.823225150334E-02,0.201733210989,0.32384527157,
    0.409277501895,0.459192636749,0.519342750821,0.605186474479,
    0.698169309044,0.863518681107,0.940290502941,1.),.UNSPECIFIED.);
#578 = CARTESIAN_POINT('',(-3.,-4.,7.));
#579 = CARTESIAN_POINT('',(-3.000000024712,-4.000000008235,
    6.924399155959));
#580 = CARTESIAN_POINT('',(-2.997822579886,-4.001632926021,
    6.849566835153));
#581 = CARTESIAN_POINT('',(-2.99354553354,-4.004841200734,6.777557813647
    ));
#582 = CARTESIAN_POINT('',(-2.98756789931,-4.009313135687,6.70925915212)
  );
#583 = CARTESIAN_POINT('',(-2.980298401815,-4.014726891282,
    6.644888893669));
#584 = CARTESIAN_POINT('',(-2.972037470588,-4.020846054921,
    6.584207078052));
#585 = CARTESIAN_POINT('',(-2.962947613551,-4.027541854367,
    6.526586047215));
#586 = CARTESIAN_POINT('',(-2.939149361572,-4.044959330912,
    6.393722923847));
#587 = CARTESIAN_POINT('',(-2.923851834424,-4.056071752369,
    6.321637815094));
#588 = CARTESIAN_POINT('',(-2.907423847261,-4.067898497771,
    6.253715113881));
#589 = CARTESIAN_POINT('',(-2.890061754566,-4.080273114509,6.1892903251)
  );
#590 = CARTESIAN_POINT('',(-2.871896304886,-4.093082106503,
    6.127907843284));
#591 = CARTESIAN_POINT('',(-2.853019680288,-4.106243239001,
    6.069177599388));
#592 = CARTESIAN_POINT('',(-2.83349222794,-4.119698594874,6.012731546448
    ));
#593 = CARTESIAN_POINT('',(-2.76878459995,-4.163740556601,5.8379847642)
  );
#594 = CARTESIAN_POINT('',(-2.721299181561,-4.195257635681,
    5.727775053402));
#595 = CARTESIAN_POINT('',(-2.671238204455,-4.227563460226,
    5.624584579724));
#596 = CARTESIAN_POINT('',(-2.618738262141,-4.260432668058,
    5.527147650132));
#597 = CARTESIAN_POINT('',(-2.563855969311,-4.293700078278,
    5.434554610297));
#598 = CARTESIAN_POINT('',(-2.506581942951,-4.327241366266,
    5.346034454457));
#599 = CARTESIAN_POINT('',(-2.446805839535,-4.360985605417,
    5.261110987851));
#600 = CARTESIAN_POINT('',(-2.317089829804,-4.431359710865,
    5.091239257477));
#601 = CARTESIAN_POINT('',(-2.246787106094,-4.467977374941,
    5.006878955721));
#602 = CARTESIAN_POINT('',(-2.173212996828,-4.504660095541,
    4.925674473397));
#603 = CARTESIAN_POINT('',(-2.096089259274,-4.541330816405,
    4.847290475975));
#604 = CARTESIAN_POINT('',(-2.015078830602,-4.577911333138,
    4.771506791957));
#605 = CARTESIAN_POINT('',(-1.929753898332,-4.614317451525,
    4.698175507571));
#606 = CARTESIAN_POINT('',(-1.839509977408,-4.650452544155,
    4.627208224181));
#607 = CARTESIAN_POINT('',(-1.676204391082,-4.711209244623,
    4.510588175141));
#608 = CARTESIAN_POINT('',(-1.606154271343,-4.736012058989,
    4.463765705571));
#609 = CARTESIAN_POINT('',(-1.532965653437,-4.760578714167,4.4180986046)
  );
#610 = CARTESIAN_POINT('',(-1.456220049974,-4.784854728807,
    4.373614108545));
#611 = CARTESIAN_POINT('',(-1.375452899797,-4.80876571544,4.330379554453
    ));
#612 = CARTESIAN_POINT('',(-1.290102199477,-4.832212456452,
    4.288506104831));
#613 = CARTESIAN_POINT('',(-1.199343333907,-4.855055715083,
    4.248170797771));
#614 = CARTESIAN_POINT('',(-1.044824769372,-4.889965112739,
    4.187154582567));
#615 = CARTESIAN_POINT('',(-0.985592979713,-4.902545101851,
    4.165306154232));
#616 = CARTESIAN_POINT('',(-0.923818048419,-4.914801626454,
    4.144147054966));
#617 = CARTESIAN_POINT('',(-0.859154991071,-4.926676761601,
    4.123762325709));
#618 = CARTESIAN_POINT('',(-0.79124065906,-4.938088489212,4.104276786402
    ));
#619 = CARTESIAN_POINT('',(-0.719664817525,-4.948925908889,
    4.085861645151));
#620 = CARTESIAN_POINT('',(-0.643882169606,-4.959034950039,4.06875756101
    ));
#621 = CARTESIAN_POINT('',(-0.465677001766,-4.979231880812,
    4.034704783067));
#622 = CARTESIAN_POINT('',(-0.358521148254,-4.989167180378,
    4.018041827094));
#623 = CARTESIAN_POINT('',(-0.241089434191,-4.997298402904,
    4.004470091106));
#624 = CARTESIAN_POINT('',(-0.114556916113,-5.002582999842,
    3.995706701557));
#625 = CARTESIAN_POINT('',(1.797495617199E-02,-5.003875838346,
    3.99355977764));
#626 = CARTESIAN_POINT('',(0.15073748013,-5.000501642144,3.999140651398)
  );
#627 = CARTESIAN_POINT('',(0.275807600694,-4.993555634723,4.010732392308
    ));
#628 = CARTESIAN_POINT('',(0.537199393548,-4.973446537883,4.044425079666
    ));
#629 = CARTESIAN_POINT('',(0.672280253709,-4.957614341529,4.071048966563
    ));
#630 = CARTESIAN_POINT('',(0.795308124271,-4.939486128089,4.10173512115)
  );
#631 = CARTESIAN_POINT('',(0.907608765948,-4.919680229822,4.135545820253
    ));
#632 = CARTESIAN_POINT('',(1.011571032327,-4.898837700506,4.171470039382
    ));
#633 = CARTESIAN_POINT('',(1.108207033823,-4.877194453258,4.209161237696
    ));
#634 = CARTESIAN_POINT('',(1.199051130256,-4.854920833224,4.248381713932
    ));
#635 = CARTESIAN_POINT('',(1.378787642909,-4.80710838201,4.333609749345)
  );
#636 = CARTESIAN_POINT('',(1.466285099787,-4.781624020663,4.379604441145
    ));
#637 = CARTESIAN_POINT('',(1.548907816575,-4.755666064496,4.427097331753
    ));
#638 = CARTESIAN_POINT('',(1.627344468516,-4.72934217304,4.475978958847)
  );
#639 = CARTESIAN_POINT('',(1.702079287666,-4.702732564327,4.526188507449
    ));
#640 = CARTESIAN_POINT('',(1.773508076832,-4.675899402998,4.577701879596
    ));
#641 = CARTESIAN_POINT('',(1.841979415195,-4.648890374254,4.630531223359
    ));
#642 = CARTESIAN_POINT('',(2.024740226888,-4.573449763971,4.781125922352
    ));
#643 = CARTESIAN_POINT('',(2.133058782042,-4.524778159926,4.881713054084
    ));
#644 = CARTESIAN_POINT('',(2.234362960823,-4.475899589297,4.986848183173
    ));
#645 = CARTESIAN_POINT('',(2.32954399582,-4.426970839495,5.096942482658)
  );
#646 = CARTESIAN_POINT('',(2.419171781645,-4.378182867654,5.212785282667
    ));
#647 = CARTESIAN_POINT('',(2.503643467653,-4.329752425396,5.335345525273
    ));
#648 = CARTESIAN_POINT('',(2.583167023671,-4.281937745529,5.466029917224
    ));
#649 = CARTESIAN_POINT('',(2.692304894744,-4.213450323719,5.674460292756
    ));
#650 = CARTESIAN_POINT('',(2.725790246616,-4.191986702085,5.742973251376
    ));
#651 = CARTESIAN_POINT('',(2.758173318027,-4.170806531322,5.814323175223
    ));
#652 = CARTESIAN_POINT('',(2.789430148183,-4.149963959938,5.888911751889
    ));
#653 = CARTESIAN_POINT('',(2.819475393579,-4.129557208811,5.967314062018
    ));
#654 = CARTESIAN_POINT('',(2.848178569462,-4.109720584121,6.050206799022
    ));
#655 = CARTESIAN_POINT('',(2.875347823706,-4.090640176728,6.138508638509
    ));
#656 = CARTESIAN_POINT('',(2.92026142517,-4.058651829891,6.308627773917)
  );
#657 = CARTESIAN_POINT('',(2.938328501945,-4.04562113409,6.385892156046)
  );
#658 = CARTESIAN_POINT('',(2.955169020063,-4.033343338706,6.468340001351
    ));
#659 = CARTESIAN_POINT('',(2.970653728434,-4.021937475086,6.557859989042
    ));
#660 = CARTESIAN_POINT('',(2.984068763381,-4.011949661539,6.65586463079)
  );
#661 = CARTESIAN_POINT('',(2.994401226189,-4.004198769528,6.762866975328
    ));
#662 = CARTESIAN_POINT('',(3.000000198727,-3.999999895,6.878784027319));
#663 = CARTESIAN_POINT('',(3.,-3.999999999932,7.));
#664 = PCURVE('',#43,#665);
#665 = DEFINITIONAL_REPRESENTATION('',(#666),#753);
#666 = B_SPLINE_CURVE_WITH_KNOTS('',8,(#667,#668,#669,#670,#671,#672,
    #673,#674,#675,#676,#677,#678,#679,#680,#681,#682,#683,#684,#685,
    #686,#687,#688,#689,#690,#691,#692,#693,#694,#695,#696,#697,#698,
    #699,#700,#701,#702,#703,#704,#705,#706,#707,#708,#709,#710,#711,
    #712,#713,#714,#715,#716,#717,#718,#719,#720,#721,#722,#723,#724,
    #725,#726,#727,#728,#729,#730,#731,#732,#733,#734,#735,#736,#737,
    #738,#739,#740,#741,#742,#743,#744,#745,#746,#747,#748,#749,#750,
    #751,#752),.UNSPECIFIED.,.F.,.F.,(9,7,7,7,7,7,7,7,7,7,7,7,9),(0.,
    3.685593486292E-02,8.823225150334E-02,0.201733210989,0.32384527157,
    0.409277501895,0.459192636749,0.519342750821,0.605186474479,
    0.698169309044,0.863518681107,0.940290502941,1.),.UNSPECIFIED.);
#667 = CARTESIAN_POINT('',(4.068887871591,7.));
#668 = CARTESIAN_POINT('',(4.068887868696,6.924399155959));
#669 = CARTESIAN_POINT('',(4.069432209578,6.849566835153));
#670 = CARTESIAN_POINT('',(4.070501531155,6.777557813647));
#671 = CARTESIAN_POINT('',(4.071994582838,6.70925915212));
#672 = CARTESIAN_POINT('',(4.073807354798,6.644888893669));
#673 = CARTESIAN_POINT('',(4.075863427452,6.584207078052));
#674 = CARTESIAN_POINT('',(4.078121374223,6.526586047215));
#675 = CARTESIAN_POINT('',(4.084019595018,6.393722923847));
#676 = CARTESIAN_POINT('',(4.08780110683,6.321637815094));
#677 = CARTESIAN_POINT('',(4.091849503297,6.253715113881));
#678 = CARTESIAN_POINT('',(4.096113549413,6.1892903251));
#679 = CARTESIAN_POINT('',(4.100558894494,6.127907843284));
#680 = CARTESIAN_POINT('',(4.105161137414,6.069177599388));
#681 = CARTESIAN_POINT('',(4.109903919529,6.012731546448));
#682 = CARTESIAN_POINT('',(4.125558659146,5.8379847642));
#683 = CARTESIAN_POINT('',(4.136956464915,5.727775053402));
#684 = CARTESIAN_POINT('',(4.148870780846,5.624584579724));
#685 = CARTESIAN_POINT('',(4.161256469114,5.527147650132));
#686 = CARTESIAN_POINT('',(4.17408921313,5.434554610297));
#687 = CARTESIAN_POINT('',(4.187361019893,5.346034454457));
#688 = CARTESIAN_POINT('',(4.201087672009,5.261110987851));
#689 = CARTESIAN_POINT('',(4.230602905046,5.091239257477));
#690 = CARTESIAN_POINT('',(4.246454212172,5.006878955721));
#691 = CARTESIAN_POINT('',(4.262892080985,4.925674473397));
#692 = CARTESIAN_POINT('',(4.279965515845,4.847290475975));
#693 = CARTESIAN_POINT('',(4.297735550985,4.771506791957));
#694 = CARTESIAN_POINT('',(4.316281406112,4.698175507571));
#695 = CARTESIAN_POINT('',(4.335717466466,4.627208224181));
#696 = CARTESIAN_POINT('',(4.370565705139,4.510588175141));
#697 = CARTESIAN_POINT('',(4.385426279045,4.463765705571));
#698 = CARTESIAN_POINT('',(4.400862855647,4.4180986046));
#699 = CARTESIAN_POINT('',(4.416956475034,4.373614108545));
#700 = CARTESIAN_POINT('',(4.433796832055,4.330379554453));
#701 = CARTESIAN_POINT('',(4.451492701713,4.288506104831));
#702 = CARTESIAN_POINT('',(4.470205128667,4.248170797771));
#703 = CARTESIAN_POINT('',(4.501887672905,4.187154582567));
#704 = CARTESIAN_POINT('',(4.513997313363,4.165306154232));
#705 = CARTESIAN_POINT('',(4.526591126268,4.144147054966));
#706 = CARTESIAN_POINT('',(4.539737239416,4.123762325709));
#707 = CARTESIAN_POINT('',(4.553507164027,4.104276786402));
#708 = CARTESIAN_POINT('',(4.567981845218,4.085861645151));
#709 = CARTESIAN_POINT('',(4.583269683229,4.06875756101));
#710 = CARTESIAN_POINT('',(4.61913885895,4.034704783067));
#711 = CARTESIAN_POINT('',(4.640657613403,4.018041827094));
#712 = CARTESIAN_POINT('',(4.664188670254,4.004470091106));
#713 = CARTESIAN_POINT('',(4.689498366818,3.995706701557));
#714 = CARTESIAN_POINT('',(4.715974226349,3.99355977764));
#715 = CARTESIAN_POINT('',(4.742515290534,3.999140651398));
#716 = CARTESIAN_POINT('',(4.767562280806,4.010732392308));
#717 = CARTESIAN_POINT('',(4.819995076222,4.044425079666));
#718 = CARTESIAN_POINT('',(4.84717469307,4.071048966563));
#719 = CARTESIAN_POINT('',(4.872029824161,4.10173512115));
#720 = CARTESIAN_POINT('',(4.894819526675,4.135545820253));
#721 = CARTESIAN_POINT('',(4.916016161078,4.171470039382));
#722 = CARTESIAN_POINT('',(4.935814428442,4.209161237696));
#723 = CARTESIAN_POINT('',(4.954518071907,4.248381713932));
#724 = CARTESIAN_POINT('',(4.991715459464,4.333609749345));
#725 = CARTESIAN_POINT('',(5.009937167849,4.379604441145));
#726 = CARTESIAN_POINT('',(5.027251853711,4.427097331753));
#727 = CARTESIAN_POINT('',(5.043793242785,4.475978958847));
#728 = CARTESIAN_POINT('',(5.059654484095,4.526188507449));
#729 = CARTESIAN_POINT('',(5.074911404642,4.577701879596));
#730 = CARTESIAN_POINT('',(5.089630826604,4.630531223359));
#731 = CARTESIAN_POINT('',(5.129174600911,4.781125922352));
#732 = CARTESIAN_POINT('',(5.152913577494,4.881713054084));
#733 = CARTESIAN_POINT('',(5.175396132924,4.986848183173));
#734 = CARTESIAN_POINT('',(5.196787529583,5.096942482658));
#735 = CARTESIAN_POINT('',(5.217186103635,5.212785282667));
#736 = CARTESIAN_POINT('',(5.236653160331,5.335345525273));
#737 = CARTESIAN_POINT('',(5.255208025387,5.466029917224));
#738 = CARTESIAN_POINT('',(5.280977465898,5.674460292756));
#739 = CARTESIAN_POINT('',(5.288931862354,5.742973251376));
#740 = CARTESIAN_POINT('',(5.296670220595,5.814323175223));
#741 = CARTESIAN_POINT('',(5.304183378087,5.888911751889));
#742 = CARTESIAN_POINT('',(5.311446912772,5.967314062018));
#743 = CARTESIAN_POINT('',(5.318424726732,6.050206799022));
#744 = CARTESIAN_POINT('',(5.325064551692,6.138508638509));
#745 = CARTESIAN_POINT('',(5.336092672561,6.308627773917));
#746 = CARTESIAN_POINT('',(5.340547782008,6.385892156046));
#747 = CARTESIAN_POINT('',(5.344715905705,6.468340001351));
#748 = CARTESIAN_POINT('',(5.348562201635,6.557859989042));
#749 = CARTESIAN_POINT('',(5.351907126997,6.65586463079));
#750 = CARTESIAN_POINT('',(5.354490434345,6.762866975328));
#751 = CARTESIAN_POINT('',(5.355890133382,6.878784027319));
#752 = CARTESIAN_POINT('',(5.355890089186,7.));
#753 = ( GEOMETRIC_REPRESENTATION_CONTEXT(2) 
PARAMETRIC_REPRESENTATION_CONTEXT() REPRESENTATION_CONTEXT('2D SPACE',''
  ) );
#754 = PCURVE('',#755,#760);
#755 = CYLINDRICAL_SURFACE('',#756,3.);
#756 = AXIS2_PLACEMENT_3D('',#757,#758,#759);
#757 = CARTESIAN_POINT('',(0.,7.,7.));
#758 = DIRECTION('',(0.,-1.,0.));
#759 = DIRECTION('',(1.,0.,0.));
#760 = DEFINITIONAL_REPRESENTATION('',(#761),#848);
#761 = B_SPLINE_CURVE_WITH_KNOTS('',8,(#762,#763,#764,#765,#766,#767,
    #768,#769,#770,#771,#772,#773,#774,#775,#776,#777,#778,#779,#780,
    #781,#782,#783,#784,#785,#786,#787,#788,#789,#790,#791,#792,#793,
    #794,#795,#796,#797,#798,#799,#800,#801,#802,#803,#804,#805,#806,
    #807,#808,#809,#810,#811,#812,#813,#814,#815,#816,#817,#818,#819,
    #820,#821,#822,#823,#824,#825,#826,#827,#828,#829,#830,#831,#832,
    #833,#834,#835,#836,#837,#838,#839,#840,#841,#842,#843,#844,#845,
    #846,#847),.UNSPECIFIED.,.F.,.F.,(9,7,7,7,7,7,7,7,7,7,7,7,9),(0.,
    3.685593486292E-02,8.823225150334E-02,0.201733210989,0.32384527157,
    0.409277501895,0.459192636749,0.519342750821,0.605186474479,
    0.698169309044,0.863518681107,0.940290502941,1.),.UNSPECIFIED.);
#762 = CARTESIAN_POINT('',(3.14159265359,11.));
#763 = CARTESIAN_POINT('',(3.166792948463,11.000000008235));
#764 = CARTESIAN_POINT('',(3.191736975868,11.001632926022));
#765 = CARTESIAN_POINT('',(3.215764581792,11.004841200734));
#766 = CARTESIAN_POINT('',(3.238601562314,11.009313135687));
#767 = CARTESIAN_POINT('',(3.260183101234,11.014726891282));
#768 = CARTESIAN_POINT('',(3.280588839685,11.020846054921));
#769 = CARTESIAN_POINT('',(3.300029295376,11.027541854367));
#770 = CARTESIAN_POINT('',(3.345021761273,11.044959330912));
#771 = CARTESIAN_POINT('',(3.369573007063,11.056071752369));
#772 = CARTESIAN_POINT('',(3.392851620672,11.067898497771));
#773 = CARTESIAN_POINT('',(3.415078731503,11.080273114509));
#774 = CARTESIAN_POINT('',(3.436404850707,11.093082106503));
#775 = CARTESIAN_POINT('',(3.456958993683,11.106243239001));
#776 = CARTESIAN_POINT('',(3.476864138548,11.119698594874));
#777 = CARTESIAN_POINT('',(3.53897812008,11.1637405566));
#778 = CARTESIAN_POINT('',(3.578925602205,11.195257635681));
#779 = CARTESIAN_POINT('',(3.617094078107,11.227563460226));
#780 = CARTESIAN_POINT('',(3.653923769842,11.260432668058));
#781 = CARTESIAN_POINT('',(3.689743436925,11.293700078278));
#782 = CARTESIAN_POINT('',(3.724844651959,11.327241366266));
#783 = CARTESIAN_POINT('',(3.759435000487,11.360985605417));
#784 = CARTESIAN_POINT('',(3.830680004007,11.431359710865));
#785 = CARTESIAN_POINT('',(3.867252075145,11.467977374941));
#786 = CARTESIAN_POINT('',(3.90372519851,11.504660095541));
#787 = CARTESIAN_POINT('',(3.940317661927,11.541330816405));
#788 = CARTESIAN_POINT('',(3.977230442175,11.577911333138));
#789 = CARTESIAN_POINT('',(4.014673639305,11.614317451525));
#790 = CARTESIAN_POINT('',(4.052901739246,11.650452544155));
#791 = CARTESIAN_POINT('',(4.119791833696,11.711209244623));
#792 = CARTESIAN_POINT('',(4.147865022043,11.736012058989));
#793 = CARTESIAN_POINT('',(4.17659596986,11.760578714167));
#794 = CARTESIAN_POINT('',(4.206132580418,11.784854728807));
#795 = CARTESIAN_POINT('',(4.236633266136,11.80876571544));
#796 = CARTESIAN_POINT('',(4.268285675649,11.832212456452));
#797 = CARTESIAN_POINT('',(4.301362841958,11.855055715083));
#798 = CARTESIAN_POINT('',(4.3567391098,11.889965112739));
#799 = CARTESIAN_POINT('',(4.377778250739,11.902545101851));
#800 = CARTESIAN_POINT('',(4.399533850434,11.914801626454));
#801 = CARTESIAN_POINT('',(4.422119696937,11.926676761601));
#802 = CARTESIAN_POINT('',(4.445654367858,11.938088489212));
#803 = CARTESIAN_POINT('',(4.470272178276,11.948925908889));
#804 = CARTESIAN_POINT('',(4.496154399104,11.959034950039));
#805 = CARTESIAN_POINT('',(4.556630760843,11.979231880812));
#806 = CARTESIAN_POINT('',(4.592757783974,11.989167180378));
#807 = CARTESIAN_POINT('',(4.632107731379,11.997298402906));
#808 = CARTESIAN_POINT('',(4.674297957014,12.00258299984));
#809 = CARTESIAN_POINT('',(4.718336854857,12.003875838348));
#810 = CARTESIAN_POINT('',(4.762536291843,12.000501642143));
#811 = CARTESIAN_POINT('',(4.804378710617,11.993555634723));
#812 = CARTESIAN_POINT('',(4.892229973805,11.973446537883));
#813 = CARTESIAN_POINT('',(4.938022748102,11.957614341529));
#814 = CARTESIAN_POINT('',(4.980209903329,11.93948612809));
#815 = CARTESIAN_POINT('',(5.019217989983,11.919680229821));
#816 = CARTESIAN_POINT('',(5.055831793913,11.898837700508));
#817 = CARTESIAN_POINT('',(5.090365541289,11.877194453257));
#818 = CARTESIAN_POINT('',(5.123329267318,11.854920833224));
#819 = CARTESIAN_POINT('',(5.189635556109,11.80710838201));
#820 = CARTESIAN_POINT('',(5.222557945393,11.781624020663));
#821 = CARTESIAN_POINT('',(5.254287499219,11.755666064496));
#822 = CARTESIAN_POINT('',(5.285057148043,11.72934217304));
#823 = CARTESIAN_POINT('',(5.31503499965,11.702732564327));
#824 = CARTESIAN_POINT('',(5.34436395827,11.675899402998));
#825 = CARTESIAN_POINT('',(5.373177193625,11.648890374254));
#826 = CARTESIAN_POINT('',(5.452114655882,11.573449763971));
#827 = CARTESIAN_POINT('',(5.501300895127,11.524778159926));
#828 = CARTESIAN_POINT('',(5.549846449741,11.475899589297));
#829 = CARTESIAN_POINT('',(5.598211743052,11.426970839495));
#830 = CARTESIAN_POINT('',(5.646887695812,11.378182867654));
#831 = CARTESIAN_POINT('',(5.696373767025,11.329752425396));
#832 = CARTESIAN_POINT('',(5.747261509538,11.281937745529));
#833 = CARTESIAN_POINT('',(5.825686560856,11.21345032372));
#834 = CARTESIAN_POINT('',(5.851095792028,11.191986702085));
#835 = CARTESIAN_POINT('',(5.877196809092,11.170806531322));
#836 = CARTESIAN_POINT('',(5.904129695956,11.149963959938));
#837 = CARTESIAN_POINT('',(5.932088951009,11.129557208811));
#838 = CARTESIAN_POINT('',(5.96130093624,11.109720584121));
#839 = CARTESIAN_POINT('',(5.992071744158,11.090640176728));
#840 = CARTESIAN_POINT('',(6.050721171333,11.058651829891));
#841 = CARTESIAN_POINT('',(6.077159614053,11.045621134091));
#842 = CARTESIAN_POINT('',(6.105191710742,11.033343338705));
#843 = CARTESIAN_POINT('',(6.135441785771,11.021937475088));
#844 = CARTESIAN_POINT('',(6.168372419236,11.011949661537));
#845 = CARTESIAN_POINT('',(6.204141115437,11.004198769529));
#846 = CARTESIAN_POINT('',(6.242779961451,10.999999895));
#847 = CARTESIAN_POINT('',(6.28318530718,10.999999999932));
#848 = ( GEOMETRIC_REPRESENTATION_CONTEXT(2) 
PARAMETRIC_REPRESENTATION_CONTEXT() REPRESENTATION_CONTEXT('2D SPACE',''
  ) );
#849 = ORIENTED_EDGE('',*,*,#850,.F.);
#850 = EDGE_CURVE('',#574,#572,#851,.T.);
#851 = SURFACE_CURVE('',#852,(#932,#1015),.PCURVE_S1.);
#852 = B_SPLINE_CURVE_WITH_KNOTS('',8,(#853,#854,#855,#856,#857,#858,
    #859,#860,#861,#862,#863,#864,#865,#866,#867,#868,#869,#870,#871,
    #872,#873,#874,#875,#876,#877,#878,#879,#880,#881,#882,#883,#884,
    #885,#886,#887,#888,#889,#890,#891,#892,#893,#894,#895,#896,#897,
    #898,#899,#900,#901,#902,#903,#904,#905,#906,#907,#908,#909,#910,
    #911,#912,#913,#914,#915,#916,#917,#918,#919,#920,#921,#922,#923,
    #924,#925,#926,#927,#928,#929,#930,#931),.UNSPECIFIED.,.F.,.F.,(9,7,
    7,7,7,7,7,7,7,7,7,9),(0.,4.994101290091E-02,0.107279853901,
    0.228123506042,0.35332383519,0.438122466479,0.528489542067,
    0.57000007514,0.635512658053,0.838840170371,0.927891572926,1.),
  .UNSPECIFIED.);
#853 = CARTESIAN_POINT('',(3.,-3.999999999932,7.));
#854 = CARTESIAN_POINT('',(3.00000064846,-3.999999604363,7.099280166281)
  );
#855 = CARTESIAN_POINT('',(2.996242330468,-4.002817812975,7.196000502902
    ));
#856 = CARTESIAN_POINT('',(2.989079988051,-4.008191164155,7.287059150689
    ));
#857 = CARTESIAN_POINT('',(2.979438566828,-4.015388026546,7.371711740313
    ));
#858 = CARTESIAN_POINT('',(2.96808769701,-4.023797915239,7.4501228814));
#859 = CARTESIAN_POINT('',(2.955491429198,-4.033056065941,7.523003434059
    ));
#860 = CARTESIAN_POINT('',(2.941859748276,-4.042993455963,7.591643377467
    ));
#861 = CARTESIAN_POINT('',(2.910000329411,-4.065997949762,7.733434409205
    ));
#862 = CARTESIAN_POINT('',(2.891708237966,-4.079081575315,7.804379172634
    ));
#863 = CARTESIAN_POINT('',(2.872383977412,-4.092755425382,7.871491098987
    ));
#864 = CARTESIAN_POINT('',(2.8521761107,-4.106888304866,7.935378899239)
  );
#865 = CARTESIAN_POINT('',(2.83118396567,-4.121389126422,7.996459982784)
  );
#866 = CARTESIAN_POINT('',(2.809477032844,-4.136190909369,8.055083727402
    ));
#867 = CARTESIAN_POINT('',(2.787099895999,-4.1512453868,8.11157131324));
#868 = CARTESIAN_POINT('',(2.715511715382,-4.198736811711,8.281245730122
    ));
#869 = CARTESIAN_POINT('',(2.664140828038,-4.231884924093,8.387728967066
    ));
#870 = CARTESIAN_POINT('',(2.610168717215,-4.265667308036,8.487969608957
    ));
#871 = CARTESIAN_POINT('',(2.553658178806,-4.299900716885,8.583049893372
    ));
#872 = CARTESIAN_POINT('',(2.494602268712,-4.33444754143,8.673739637806)
  );
#873 = CARTESIAN_POINT('',(2.43293225316,-4.369201345177,8.760670923473)
  );
#874 = CARTESIAN_POINT('',(2.368491181003,-4.404091935949,8.844262378905
    ));
#875 = CARTESIAN_POINT('',(2.231110170272,-4.475304864282,9.008487593837
    ));
#876 = CARTESIAN_POINT('',(2.157997165564,-4.511604573145,9.088833478163
    ));
#877 = CARTESIAN_POINT('',(2.081432041285,-4.547899812048,9.166362589981
    ));
#878 = CARTESIAN_POINT('',(2.001073581958,-4.584117757985,9.241328462496
    ));
#879 = CARTESIAN_POINT('',(1.916519094862,-4.620178669462,9.31388830248)
  );
#880 = CARTESIAN_POINT('',(1.827262545663,-4.655991172234,9.384132091775
    ));
#881 = CARTESIAN_POINT('',(1.732576933562,-4.691443849811,9.452086811957
    ));
#882 = CARTESIAN_POINT('',(1.562740877138,-4.750065049549,9.562134259716
    ));
#883 = CARTESIAN_POINT('',(1.491187464249,-4.773483937483,9.605456091715
    ));
#884 = CARTESIAN_POINT('',(1.41631122787,-4.796621491686,9.647676258032)
  );
#885 = CARTESIAN_POINT('',(1.337625495882,-4.819414998652,9.688741899627
    ));
#886 = CARTESIAN_POINT('',(1.25460162925,-4.841776578173,9.72855335818)
  );
#887 = CARTESIAN_POINT('',(1.166607887443,-4.863586756915,9.766957959946
    ));
#888 = CARTESIAN_POINT('',(1.072691893435,-4.884672379612,9.803716553812
    ));
#889 = CARTESIAN_POINT('',(0.863056506902,-4.926183973113,9.875447667714
    ));
#890 = CARTESIAN_POINT('',(0.747470324657,-4.946240042418,9.909739110502
    ));
#891 = CARTESIAN_POINT('',(0.618870791753,-4.965402069416,9.942208338213
    ));
#892 = CARTESIAN_POINT('',(0.473774115993,-4.982896944233,9.971603607223
    ));
#893 = CARTESIAN_POINT('',(0.310774387907,-4.996807797561,9.994682605759
    ));
#894 = CARTESIAN_POINT('',(0.131640185009,-5.004559212373,
    10.007569748198));
#895 = CARTESIAN_POINT('',(-5.882921543558E-02,-5.002983434565,
    10.004992815516));
#896 = CARTESIAN_POINT('',(-0.324843114259,-4.990140935284,9.98354389194
    ));
#897 = CARTESIAN_POINT('',(-0.40414081057,-4.984703807386,9.974452775049
    ));
#898 = CARTESIAN_POINT('',(-0.479190387705,-4.97815763099,9.963483265143
    ));
#899 = CARTESIAN_POINT('',(-0.55024497372,-4.970738973704,9.951016149821
    ));
#900 = CARTESIAN_POINT('',(-0.617618447831,-4.96263483114,9.93735097447)
  );
#901 = CARTESIAN_POINT('',(-0.681679281879,-4.953982340883,
    9.922705417612));
#902 = CARTESIAN_POINT('',(-0.742844381782,-4.944868496454,
    9.907214666246));
#903 = CARTESIAN_POINT('',(-0.89425887796,-4.920275413216,9.865230206953
    ));
#904 = CARTESIAN_POINT('',(-0.980413571962,-4.904244229242,
    9.837690542575));
#905 = CARTESIAN_POINT('',(-1.061364796953,-4.887485684241,
    9.808692738457));
#906 = CARTESIAN_POINT('',(-1.137907612712,-4.870165029943,
    9.778482268191));
#907 = CARTESIAN_POINT('',(-1.21058705803,-4.852397115759,9.747224033952
    ));
#908 = CARTESIAN_POINT('',(-1.279864480704,-4.834266305104,
    9.715033590192));
#909 = CARTESIAN_POINT('',(-1.346167492375,-4.815832587221,
    9.681984695669));
#910 = CARTESIAN_POINT('',(-1.607391489276,-4.739060773654,
    9.542909608719));
#911 = CARTESIAN_POINT('',(-1.77865361324,-4.678633442133,9.430120165914
    ));
#912 = CARTESIAN_POINT('',(-1.933952145282,-4.616960738322,
    9.310775369392));
#913 = CARTESIAN_POINT('',(-2.075139681698,-4.554528242767,9.18465967715
    ));
#914 = CARTESIAN_POINT('',(-2.205497144667,-4.491863579433,
    9.051654937611));
#915 = CARTESIAN_POINT('',(-2.325878523088,-4.429304084616,
    8.910392680119));
#916 = CARTESIAN_POINT('',(-2.437686759885,-4.367174670776,
    8.759504855394));
#917 = CARTESIAN_POINT('',(-2.586964452809,-4.27906560652,8.521490124153
    ));
#918 = CARTESIAN_POINT('',(-2.630807558712,-4.25244787947,8.446343138163
    ));
#919 = CARTESIAN_POINT('',(-2.673094947157,-4.226083073486,
    8.368102896166));
#920 = CARTESIAN_POINT('',(-2.713840647333,-4.200028846644,
    8.286343647504));
#921 = CARTESIAN_POINT('',(-2.752989201879,-4.174388406769,
    8.200427141678));
#922 = CARTESIAN_POINT('',(-2.79043596625,-4.149301682741,8.109597458347
    ));
#923 = CARTESIAN_POINT('',(-2.826012365668,-4.12496147105,8.012817141565
    ));
#924 = CARTESIAN_POINT('',(-2.886369102671,-4.082885857641,
    7.822698129527));
#925 = CARTESIAN_POINT('',(-2.911138502545,-4.065316877034,
    7.734670877446));
#926 = CARTESIAN_POINT('',(-2.934432612385,-4.048556164558,
    7.640325052603));
#927 = CARTESIAN_POINT('',(-2.956225514391,-4.032649401285,
    7.536978266898));
#928 = CARTESIAN_POINT('',(-2.975570100369,-4.018324198795,
    7.422216329009));
#929 = CARTESIAN_POINT('',(-2.991038525346,-4.006720682295,
    7.294813051433));
#930 = CARTESIAN_POINT('',(-3.000000650192,-3.99999957059,7.153337133977
    ));
#931 = CARTESIAN_POINT('',(-3.,-4.,7.));
#932 = PCURVE('',#43,#933);
#933 = DEFINITIONAL_REPRESENTATION('',(#934),#1014);
#934 = B_SPLINE_CURVE_WITH_KNOTS('',8,(#935,#936,#937,#938,#939,#940,
    #941,#942,#943,#944,#945,#946,#947,#948,#949,#950,#951,#952,#953,
    #954,#955,#956,#957,#958,#959,#960,#961,#962,#963,#964,#965,#966,
    #967,#968,#969,#970,#971,#972,#973,#974,#975,#976,#977,#978,#979,
    #980,#981,#982,#983,#984,#985,#986,#987,#988,#989,#990,#991,#992,
    #993,#994,#995,#996,#997,#998,#999,#1000,#1001,#1002,#1003,#1004,
    #1005,#1006,#1007,#1008,#1009,#1010,#1011,#1012,#1013),
  .UNSPECIFIED.,.F.,.F.,(9,7,7,7,7,7,7,7,7,7,7,9),(0.,4.994101290091E-02
    ,0.107279853901,0.228123506042,0.35332383519,0.438122466479,
    0.528489542067,0.57000007514,0.635512658053,0.838840170371,
    0.927891572926,1.),.UNSPECIFIED.);
#935 = CARTESIAN_POINT('',(5.355890089186,7.));
#936 = CARTESIAN_POINT('',(5.355890240093,7.099280166281));
#937 = CARTESIAN_POINT('',(5.354950725985,7.196000502902));
#938 = CARTESIAN_POINT('',(5.353159943872,7.287059150689));
#939 = CARTESIAN_POINT('',(5.350753702729,7.371711740313));
#940 = CARTESIAN_POINT('',(5.347928364282,7.4501228814));
#941 = CARTESIAN_POINT('',(5.34480187633,7.523003434059));
#942 = CARTESIAN_POINT('',(5.341428043005,7.591643377467));
#943 = CARTESIAN_POINT('',(5.333568706706,7.733434409205));
#944 = CARTESIAN_POINT('',(5.329070832742,7.804379172634));
#945 = CARTESIAN_POINT('',(5.324336378098,7.871491098987));
#946 = CARTESIAN_POINT('',(5.319404611029,7.935378899239));
#947 = CARTESIAN_POINT('',(5.314302069226,7.996459982784));
#948 = CARTESIAN_POINT('',(5.309047587425,8.055083727402));
#949 = CARTESIAN_POINT('',(5.303653727856,8.11157131324));
#950 = CARTESIAN_POINT('',(5.286471989322,8.281245730122));
#951 = CARTESIAN_POINT('',(5.274245523348,8.387728967066));
#952 = CARTESIAN_POINT('',(5.261512987827,8.487969608957));
#953 = CARTESIAN_POINT('',(5.248301725785,8.583049893372));
#954 = CARTESIAN_POINT('',(5.234621433052,8.673739637806));
#955 = CARTESIAN_POINT('',(5.220467032971,8.760670923473));
#956 = CARTESIAN_POINT('',(5.205813344491,8.844262378905));
#957 = CARTESIAN_POINT('',(5.17486514706,9.008487593837));
#958 = CARTESIAN_POINT('',(5.158541836814,9.088833478163));
#959 = CARTESIAN_POINT('',(5.141600295803,9.166362589981));
#960 = CARTESIAN_POINT('',(5.123978397696,9.241328462496));
#961 = CARTESIAN_POINT('',(5.105601790703,9.31388830248));
#962 = CARTESIAN_POINT('',(5.08637565217,9.384132091775));
#963 = CARTESIAN_POINT('',(5.066161314713,9.452086811957));
#964 = CARTESIAN_POINT('',(5.030227713964,9.562134259716));
#965 = CARTESIAN_POINT('',(5.015171783573,9.605456091715));
#966 = CARTESIAN_POINT('',(4.999501806935,9.647676258032));
#967 = CARTESIAN_POINT('',(4.983123017789,9.688741899627));
#968 = CARTESIAN_POINT('',(4.965932923574,9.72855335818));
#969 = CARTESIAN_POINT('',(4.947808845053,9.766957959946));
#970 = CARTESIAN_POINT('',(4.928564121396,9.803716553812));
#971 = CARTESIAN_POINT('',(4.885822972967,9.875447667714));
#972 = CARTESIAN_POINT('',(4.862366994145,9.909739110502));
#973 = CARTESIAN_POINT('',(4.83637554557,9.942208338213));
#974 = CARTESIAN_POINT('',(4.80717366646,9.971603607223));
#975 = CARTESIAN_POINT('',(4.774496192457,9.994682605759));
#976 = CARTESIAN_POINT('',(4.738711617728,10.007569748198));
#977 = CARTESIAN_POINT('',(4.700646890102,10.004992815516));
#978 = CARTESIAN_POINT('',(4.647382166408,9.98354389194));
#979 = CARTESIAN_POINT('',(4.63148858481,9.974452775049));
#980 = CARTESIAN_POINT('',(4.616425849856,9.963483265143));
#981 = CARTESIAN_POINT('',(4.602141547195,9.951016149821));
#982 = CARTESIAN_POINT('',(4.588572713057,9.93735097447));
#983 = CARTESIAN_POINT('',(4.575646238295,9.922705417612));
#984 = CARTESIAN_POINT('',(4.563279272431,9.907214666246));
#985 = CARTESIAN_POINT('',(4.532599530184,9.865230206953));
#986 = CARTESIAN_POINT('',(4.515077359177,9.837690542575));
#987 = CARTESIAN_POINT('',(4.498549272629,9.808692738457));
#988 = CARTESIAN_POINT('',(4.482858570357,9.778482268191));
#989 = CARTESIAN_POINT('',(4.46789868063,9.747224033952));
#990 = CARTESIAN_POINT('',(4.453579535022,9.715033590192));
#991 = CARTESIAN_POINT('',(4.439817331541,9.681984695669));
#992 = CARTESIAN_POINT('',(4.385363020828,9.542909608719));
#993 = CARTESIAN_POINT('',(4.349092503599,9.430120165914));
#994 = CARTESIAN_POINT('',(4.31571022284,9.310775369392));
#995 = CARTESIAN_POINT('',(4.284878912123,9.18465967715));
#996 = CARTESIAN_POINT('',(4.255975931125,9.051654937611));
#997 = CARTESIAN_POINT('',(4.228862744367,8.910392680119));
#998 = CARTESIAN_POINT('',(4.203288905194,8.759504855394));
#999 = CARTESIAN_POINT('',(4.168620743338,8.521490124153));
#1000 = CARTESIAN_POINT('',(4.15836342166,8.446343138163));
#1001 = CARTESIAN_POINT('',(4.148397974481,8.368102896166));
#1002 = CARTESIAN_POINT('',(4.138726468965,8.286343647504));
#1003 = CARTESIAN_POINT('',(4.129367942468,8.200427141678));
#1004 = CARTESIAN_POINT('',(4.120354005738,8.109597458347));
#1005 = CARTESIAN_POINT('',(4.111733140153,8.012817141565));
#1006 = CARTESIAN_POINT('',(4.097018122693,7.822698129527));
#1007 = CARTESIAN_POINT('',(4.090944804352,7.734670877446));
#1008 = CARTESIAN_POINT('',(4.085205532662,7.640325052603));
#1009 = CARTESIAN_POINT('',(4.079809666594,7.536978266898));
#1010 = CARTESIAN_POINT('',(4.074995576295,7.422216329009));
#1011 = CARTESIAN_POINT('',(4.071128185171,7.294813051433));
#1012 = CARTESIAN_POINT('',(4.068887716626,7.153337133977));
#1013 = CARTESIAN_POINT('',(4.068887871591,7.));
#1014 = ( GEOMETRIC_REPRESENTATION_CONTEXT(2) 
PARAMETRIC_REPRESENTATION_CONTEXT() REPRESENTATION_CONTEXT('2D SPACE',''
  ) );
#1015 = PCURVE('',#755,#1016);
#1016 = DEFINITIONAL_REPRESENTATION('',(#1017),#1097);
#1017 = B_SPLINE_CURVE_WITH_KNOTS('',8,(#1018,#1019,#1020,#1021,#1022,
    #1023,#1024,#1025,#1026,#1027,#1028,#1029,#1030,#1031,#1032,#1033,
    #1034,#1035,#1036,#1037,#1038,#1039,#1040,#1041,#1042,#1043,#1044,
    #1045,#1046,#1047,#1048,#1049,#1050,#1051,#1052,#1053,#1054,#1055,
    #1056,#1057,#1058,#1059,#1060,#1061,#1062,#1063,#1064,#1065,#1066,
    #1067,#1068,#1069,#1070,#1071,#1072,#1073,#1074,#1075,#1076,#1077,
    #1078,#1079,#1080,#1081,#1082,#1083,#1084,#1085,#1086,#1087,#1088,
    #1089,#1090,#1091,#1092,#1093,#1094,#1095,#1096),.UNSPECIFIED.,.F.,
  .F.,(9,7,7,7,7,7,7,7,7,7,7,9),(0.,4.994101290091E-02,0.107279853901,
    0.228123506042,0.35332383519,0.438122466479,0.528489542067,
    0.57000007514,0.635512658053,0.838840170371,0.927891572926,1.),
  .UNSPECIFIED.);
#1018 = CARTESIAN_POINT('',(0.,10.999999999932));
#1019 = CARTESIAN_POINT('',(3.309346846897E-02,10.999999604363));
#1020 = CARTESIAN_POINT('',(6.533314283015E-02,11.002817812975));
#1021 = CARTESIAN_POINT('',(9.574243540497E-02,11.008191164155));
#1022 = CARTESIAN_POINT('',(0.124111648153,11.015388026546));
#1023 = CARTESIAN_POINT('',(0.150501537383,11.023797915239));
#1024 = CARTESIAN_POINT('',(0.175140791929,11.033056065941));
#1025 = CARTESIAN_POINT('',(0.198460860868,11.042993455963));
#1026 = CARTESIAN_POINT('',(0.246902792036,11.065997949762));
#1027 = CARTESIAN_POINT('',(0.27131269323,11.079081575315));
#1028 = CARTESIAN_POINT('',(0.294577312134,11.092755425382));
#1029 = CARTESIAN_POINT('',(0.316898925345,11.106888304866));
#1030 = CARTESIAN_POINT('',(0.338415847611,11.121389126422));
#1031 = CARTESIAN_POINT('',(0.359244315685,11.136190909369));
#1032 = CARTESIAN_POINT('',(0.379492452718,11.1512453868));
#1033 = CARTESIAN_POINT('',(0.440878419399,11.19873681171));
#1034 = CARTESIAN_POINT('',(0.480238045298,11.231884924093));
#1035 = CARTESIAN_POINT('',(0.518126140763,11.265667308036));
#1036 = CARTESIAN_POINT('',(0.554930890341,11.299900716885));
#1037 = CARTESIAN_POINT('',(0.590945383317,11.33444754143));
#1038 = CARTESIAN_POINT('',(0.626427740129,11.369201345177));
#1039 = CARTESIAN_POINT('',(0.661581618195,11.404091935949));
#1040 = CARTESIAN_POINT('',(0.732951814728,11.475304864282));
#1041 = CARTESIAN_POINT('',(0.769131860204,11.511604573145));
#1042 = CARTESIAN_POINT('',(0.805401359029,11.547899812048));
#1043 = CARTESIAN_POINT('',(0.841971797258,11.584117757984));
#1044 = CARTESIAN_POINT('',(0.879046467687,11.620178669462));
#1045 = CARTESIAN_POINT('',(0.916845789823,11.655991172234));
#1046 = CARTESIAN_POINT('',(0.955651426793,11.691443849811));
#1047 = CARTESIAN_POINT('',(1.023108600619,11.750065049549));
#1048 = CARTESIAN_POINT('',(1.050978615937,11.773483937483));
#1049 = CARTESIAN_POINT('',(1.079607123255,11.796621491686));
#1050 = CARTESIAN_POINT('',(1.109160947919,11.819414998652));
#1051 = CARTESIAN_POINT('',(1.139816229589,11.841776578173));
#1052 = CARTESIAN_POINT('',(1.171780634703,11.863586756915));
#1053 = CARTESIAN_POINT('',(1.205367414291,11.884672379611));
#1054 = CARTESIAN_POINT('',(1.279223252096,11.926183973113));
#1055 = CARTESIAN_POINT('',(1.319376750139,11.946240042418));
#1056 = CARTESIAN_POINT('',(1.363527745985,11.965402069416));
#1057 = CARTESIAN_POINT('',(1.412737293094,11.982896944232));
#1058 = CARTESIAN_POINT('',(1.467422351873,11.996807797562));
#1059 = CARTESIAN_POINT('',(1.526942597916,12.004559212373));
#1060 = CARTESIAN_POINT('',(1.590295647473,12.002983434565));
#1061 = CARTESIAN_POINT('',(1.679254632203,11.990140935284));
#1062 = CARTESIAN_POINT('',(1.705845485175,11.984703807386));
#1063 = CARTESIAN_POINT('',(1.731108245604,11.97815763099));
#1064 = CARTESIAN_POINT('',(1.755136563393,11.970738973704));
#1065 = CARTESIAN_POINT('',(1.778037208533,11.962634831139));
#1066 = CARTESIAN_POINT('',(1.79993176459,11.953982340883));
#1067 = CARTESIAN_POINT('',(1.820958322183,11.944868496454));
#1068 = CARTESIAN_POINT('',(1.87333413531,11.920275413216));
#1069 = CARTESIAN_POINT('',(1.903461482088,11.904244229242));
#1070 = CARTESIAN_POINT('',(1.932096251161,11.887485684241));
#1071 = CARTESIAN_POINT('',(1.95949965919,11.870165029943));
#1072 = CARTESIAN_POINT('',(1.985849218735,11.852397115759));
#1073 = CARTESIAN_POINT('',(2.01129584263,11.834266305104));
#1074 = CARTESIAN_POINT('',(2.035981935171,11.815832587221));
#1075 = CARTESIAN_POINT('',(2.134628094004,11.739060773654));
#1076 = CARTESIAN_POINT('',(2.202688675368,11.678633442133));
#1077 = CARTESIAN_POINT('',(2.267700242073,11.616960738322));
#1078 = CARTESIAN_POINT('',(2.33046688269,11.554528242767));
#1079 = CARTESIAN_POINT('',(2.392264596712,11.491863579433));
#1080 = CARTESIAN_POINT('',(2.453884493392,11.429304084616));
#1081 = CARTESIAN_POINT('',(2.516298012717,11.367174670776));
#1082 = CARTESIAN_POINT('',(2.609949262234,11.27906560652));
#1083 = CARTESIAN_POINT('',(2.638934474655,11.25244787947));
#1084 = CARTESIAN_POINT('',(2.668554525654,11.226083073486));
#1085 = CARTESIAN_POINT('',(2.698968563655,11.200028846644));
#1086 = CARTESIAN_POINT('',(2.730400454728,11.174388406769));
#1087 = CARTESIAN_POINT('',(2.763109417839,11.149301682741));
#1088 = CARTESIAN_POINT('',(2.797445816024,11.12496147105));
#1089 = CARTESIAN_POINT('',(2.86393581705,11.082885857641));
#1090 = CARTESIAN_POINT('',(2.894400217732,11.065316877034));
#1091 = CARTESIAN_POINT('',(2.926766635423,11.048556164557));
#1092 = CARTESIAN_POINT('',(2.961922133928,11.032649401286));
#1093 = CARTESIAN_POINT('',(3.000649179028,11.018324198794));
#1094 = CARTESIAN_POINT('',(3.043321935302,11.006720682295));
#1095 = CARTESIAN_POINT('',(3.090480233983,10.99999957059));
#1096 = CARTESIAN_POINT('',(3.14159265359,11.));
#1097 = ( GEOMETRIC_REPRESENTATION_CONTEXT(2) 
PARAMETRIC_REPRESENTATION_CONTEXT() REPRESENTATION_CONTEXT('2D SPACE',''
  ) );
#1098 = FACE_BOUND('',#1099,.T.);
#1099 = EDGE_LOOP('',(#1100,#1101,#1124,#1151));
#1100 = ORIENTED_EDGE('',*,*,#21,.T.);
#1101 = ORIENTED_EDGE('',*,*,#1102,.T.);
#1102 = EDGE_CURVE('',#22,#1103,#1105,.T.);
#1103 = VERTEX_POINT('',#1104);
#1104 = CARTESIAN_POINT('',(5.,0.,12.));
#1105 = SEAM_CURVE('',#1106,(#1110,#1117),.PCURVE_S1.);
#1106 = LINE('',#1107,#1108);
#1107 = CARTESIAN_POINT('',(5.,0.,0.));
#1108 = VECTOR('',#1109,1.);
#1109 = DIRECTION('',(0.,0.,1.));
#1110 = PCURVE('',#43,#1111);
#1111 = DEFINITIONAL_REPRESENTATION('',(#1112),#1116);
#1112 = LINE('',#1113,#1114);
#1113 = CARTESIAN_POINT('',(6.28318530718,0.));
#1114 = VECTOR('',#1115,1.);
#1115 = DIRECTION('',(0.,1.));
#1116 = ( GEOMETRIC_REPRESENTATION_CONTEXT(2) 
PARAMETRIC_REPRESENTATION_CONTEXT() REPRESENTATION_CONTEXT('2D SPACE',''
  ) );
#1117 = PCURVE('',#43,#1118);
#1118 = DEFINITIONAL_REPRESENTATION('',(#1119),#1123);
#1119 = LINE('',#1120,#1121);
#1120 = CARTESIAN_POINT('',(0.,0.));
#1121 = VECTOR('',#1122,1.);
#1122 = DIRECTION('',(0.,1.));
#1123 = ( GEOMETRIC_REPRESENTATION_CONTEXT(2) 
PARAMETRIC_REPRESENTATION_CONTEXT() REPRESENTATION_CONTEXT('2D SPACE',''
  ) );
#1124 = ORIENTED_EDGE('',*,*,#1125,.F.);
#1125 = EDGE_CURVE('',#1103,#1103,#1126,.T.);
#1126 = SURFACE_CURVE('',#1127,(#1132,#1139),.PCURVE_S1.);
#1127 = CIRCLE('',#1128,5.);
#1128 = AXIS2_PLACEMENT_3D('',#1129,#1130,#1131);
#1129 = CARTESIAN_POINT('',(0.,0.,12.));
#1130 = DIRECTION('',(0.,0.,1.));
#1131 = DIRECTION('',(1.,0.,-0.));
#1132 = PCURVE('',#43,#1133);
#1133 = DEFINITIONAL_REPRESENTATION('',(#1134),#1138);
#1134 = LINE('',#1135,#1136);
#1135 = CARTESIAN_POINT('',(0.,12.));
#1136 = VECTOR('',#1137,1.);
#1137 = DIRECTION('',(1.,0.));
#1138 = ( GEOMETRIC_REPRESENTATION_CONTEXT(2) 
PARAMETRIC_REPRESENTATION_CONTEXT() REPRESENTATION_CONTEXT('2D SPACE',''
  ) );
#1139 = PCURVE('',#1140,#1145);
#1140 = PLANE('',#1141);
#1141 = AXIS2_PLACEMENT_3D('',#1142,#1143,#1144);
#1142 = CARTESIAN_POINT('',(0.,0.,12.));
#1143 = DIRECTION('',(0.,0.,1.));
#1144 = DIRECTION('',(1.,0.,-0.));
#1145 = DEFINITIONAL_REPRESENTATION('',(#1146),#1150);
#1146 = CIRCLE('',#1147,5.);
#1147 = AXIS2_PLACEMENT_2D('',#1148,#1149);
#1148 = CARTESIAN_POINT('',(0.,0.));
#1149 = DIRECTION('',(1.,0.));
#1150 = ( GEOMETRIC_REPRESENTATION_CONTEXT(2) 
PARAMETRIC_REPRESENTATION_CONTEXT() REPRESENTATION_CONTEXT('2D SPACE',''
  ) );
#1151 = ORIENTED_EDGE('',*,*,#1102,.F.);
#1152 = ADVANCED_FACE('',(#1153),#396,.T.);
#1153 = FACE_BOUND('',#1154,.T.);
#1154 = EDGE_LOOP('',(#1155,#1178,#1179,#1180));
#1155 = ORIENTED_EDGE('',*,*,#1156,.T.);
#1156 = EDGE_CURVE('',#1157,#59,#1159,.T.);
#1157 = VERTEX_POINT('',#1158);
#1158 = CARTESIAN_POINT('',(3.,7.,7.));
#1159 = SEAM_CURVE('',#1160,(#1164,#1171),.PCURVE_S1.);
#1160 = LINE('',#1161,#1162);
#1161 = CARTESIAN_POINT('',(3.,7.,7.));
#1162 = VECTOR('',#1163,1.);
#1163 = DIRECTION('',(0.,-1.,0.));
#1164 = PCURVE('',#396,#1165);
#1165 = DEFINITIONAL_REPRESENTATION('',(#1166),#1170);
#1166 = LINE('',#1167,#1168);
#1167 = CARTESIAN_POINT('',(6.28318530718,0.));
#1168 = VECTOR('',#1169,1.);
#1169 = DIRECTION('',(0.,1.));
#1170 = ( GEOMETRIC_REPRESENTATION_CONTEXT(2) 
PARAMETRIC_REPRESENTATION_CONTEXT() REPRESENTATION_CONTEXT('2D SPACE',''
  ) );
#1171 = PCURVE('',#396,#1172);
#1172 = DEFINITIONAL_REPRESENTATION('',(#1173),#1177);
#1173 = LINE('',#1174,#1175);
#1174 = CARTESIAN_POINT('',(0.,0.));
#1175 = VECTOR('',#1176,1.);
#1176 = DIRECTION('',(0.,1.));
#1177 = ( GEOMETRIC_REPRESENTATION_CONTEXT(2) 
PARAMETRIC_REPRESENTATION_CONTEXT() REPRESENTATION_CONTEXT('2D SPACE',''
  ) );
#1178 = ORIENTED_EDGE('',*,*,#58,.T.);
#1179 = ORIENTED_EDGE('',*,*,#1156,.F.);
#1180 = ORIENTED_EDGE('',*,*,#1181,.T.);
#1181 = EDGE_CURVE('',#1157,#1157,#1182,.T.);
#1182 = SURFACE_CURVE('',#1183,(#1188,#1195),.PCURVE_S1.);
#1183 = CIRCLE('',#1184,3.);
#1184 = AXIS2_PLACEMENT_3D('',#1185,#1186,#1187);
#1185 = CARTESIAN_POINT('',(0.,7.,7.));
#1186 = DIRECTION('',(0.,-1.,0.));
#1187 = DIRECTION('',(1.,0.,0.));
#1188 = PCURVE('',#396,#1189);
#1189 = DEFINITIONAL_REPRESENTATION('',(#1190),#1194);
#1190 = LINE('',#1191,#1192);
#1191 = CARTESIAN_POINT('',(0.,0.));
#1192 = VECTOR('',#1193,1.);
#1193 = DIRECTION('',(1.,0.));
#1194 = ( GEOMETRIC_REPRESENTATION_CONTEXT(2) 
PARAMETRIC_REPRESENTATION_CONTEXT() REPRESENTATION_CONTEXT('2D SPACE',''
  ) );
#1195 = PCURVE('',#1196,#1201);
#1196 = PLANE('',#1197);
#1197 = AXIS2_PLACEMENT_3D('',#1198,#1199,#1200);
#1198 = CARTESIAN_POINT('',(0.,7.,7.));
#1199 = DIRECTION('',(0.,-1.,0.));
#1200 = DIRECTION('',(1.,0.,0.));
#1201 = DEFINITIONAL_REPRESENTATION('',(#1202),#1206);
#1202 = CIRCLE('',#1203,3.);
#1203 = AXIS2_PLACEMENT_2D('',#1204,#1205);
#1204 = CARTESIAN_POINT('',(0.,0.));
#1205 = DIRECTION('',(1.,0.));
#1206 = ( GEOMETRIC_REPRESENTATION_CONTEXT(2) 
PARAMETRIC_REPRESENTATION_CONTEXT() REPRESENTATION_CONTEXT('2D SPACE',''
  ) );
#1207 = ADVANCED_FACE('',(#1208),#755,.T.);
#1208 = FACE_BOUND('',#1209,.T.);
#1209 = EDGE_LOOP('',(#1210,#1233,#1260,#1261,#1262));
#1210 = ORIENTED_EDGE('',*,*,#1211,.T.);
#1211 = EDGE_CURVE('',#574,#1212,#1214,.T.);
#1212 = VERTEX_POINT('',#1213);
#1213 = CARTESIAN_POINT('',(3.,-8.,7.));
#1214 = SEAM_CURVE('',#1215,(#1219,#1226),.PCURVE_S1.);
#1215 = LINE('',#1216,#1217);
#1216 = CARTESIAN_POINT('',(3.,7.,7.));
#1217 = VECTOR('',#1218,1.);
#1218 = DIRECTION('',(0.,-1.,0.));
#1219 = PCURVE('',#755,#1220);
#1220 = DEFINITIONAL_REPRESENTATION('',(#1221),#1225);
#1221 = LINE('',#1222,#1223);
#1222 = CARTESIAN_POINT('',(6.28318530718,0.));
#1223 = VECTOR('',#1224,1.);
#1224 = DIRECTION('',(0.,1.));
#1225 = ( GEOMETRIC_REPRESENTATION_CONTEXT(2) 
PARAMETRIC_REPRESENTATION_CONTEXT() REPRESENTATION_CONTEXT('2D SPACE',''
  ) );
#1226 = PCURVE('',#755,#1227);
#1227 = DEFINITIONAL_REPRESENTATION('',(#1228),#1232);
#1228 = LINE('',#1229,#1230);
#1229 = CARTESIAN_POINT('',(0.,0.));
#1230 = VECTOR('',#1231,1.);
#1231 = DIRECTION('',(0.,1.));
#1232 = ( GEOMETRIC_REPRESENTATION_CONTEXT(2) 
PARAMETRIC_REPRESENTATION_CONTEXT() REPRESENTATION_CONTEXT('2D SPACE',''
  ) );
#1233 = ORIENTED_EDGE('',*,*,#1234,.F.);
#1234 = EDGE_CURVE('',#1212,#1212,#1235,.T.);
#1235 = SURFACE_CURVE('',#1236,(#1241,#1248),.PCURVE_S1.);
#1236 = CIRCLE('',#1237,3.);
#1237 = AXIS2_PLACEMENT_3D('',#1238,#1239,#1240);
#1238 = CARTESIAN_POINT('',(0.,-8.,7.));
#1239 = DIRECTION('',(0.,-1.,0.));
#1240 = DIRECTION('',(1.,0.,0.));
#1241 = PCURVE('',#755,#1242);
#1242 = DEFINITIONAL_REPRESENTATION('',(#1243),#1247);
#1243 = LINE('',#1244,#1245);
#1244 = CARTESIAN_POINT('',(0.,15.));
#1245 = VECTOR('',#1246,1.);
#1246 = DIRECTION('',(1.,0.));
#1247 = ( GEOMETRIC_REPRESENTATION_CONTEXT(2) 
PARAMETRIC_REPRESENTATION_CONTEXT() REPRESENTATION_CONTEXT('2D SPACE',''
  ) );
#1248 = PCURVE('',#1249,#1254);
#1249 = PLANE('',#1250);
#1250 = AXIS2_PLACEMENT_3D('',#1251,#1252,#1253);
#1251 = CARTESIAN_POINT('',(0.,-8.,7.));
#1252 = DIRECTION('',(0.,-1.,0.));
#1253 = DIRECTION('',(1.,0.,0.));
#1254 = DEFINITIONAL_REPRESENTATION('',(#1255),#1259);
#1255 = CIRCLE('',#1256,3.);
#1256 = AXIS2_PLACEMENT_2D('',#1257,#1258);
#1257 = CARTESIAN_POINT('',(0.,0.));
#1258 = DIRECTION('',(1.,0.));
#1259 = ( GEOMETRIC_REPRESENTATION_CONTEXT(2) 
PARAMETRIC_REPRESENTATION_CONTEXT() REPRESENTATION_CONTEXT('2D SPACE',''
  ) );
#1260 = ORIENTED_EDGE('',*,*,#1211,.F.);
#1261 = ORIENTED_EDGE('',*,*,#850,.T.);
#1262 = ORIENTED_EDGE('',*,*,#571,.T.);
#1263 = ADVANCED_FACE('',(#1264,#1267),#1140,.T.);
#1264 = FACE_BOUND('',#1265,.T.);
#1265 = EDGE_LOOP('',(#1266));
#1266 = ORIENTED_EDGE('',*,*,#1125,.T.);
#1267 = FACE_BOUND('',#1268,.T.);
#1268 = EDGE_LOOP('',(#1269));
#1269 = ORIENTED_EDGE('',*,*,#1270,.F.);
#1270 = EDGE_CURVE('',#1271,#1271,#1273,.T.);
#1271 = VERTEX_POINT('',#1272);
#1272 = CARTESIAN_POINT('',(3.,0.,12.));
#1273 = SURFACE_CURVE('',#1274,(#1279,#1286),.PCURVE_S1.);
#1274 = CIRCLE('',#1275,3.);
#1275 = AXIS2_PLACEMENT_3D('',#1276,#1277,#1278);
#1276 = CARTESIAN_POINT('',(0.,0.,12.));
#1277 = DIRECTION('',(0.,0.,1.));
#1278 = DIRECTION('',(0.,-1.,0.));
#1279 = PCURVE('',#1140,#1280);
#1280 = DEFINITIONAL_REPRESENTATION('',(#1281),#1285);
#1281 = CIRCLE('',#1282,3.);
#1282 = AXIS2_PLACEMENT_2D('',#1283,#1284);
#1283 = CARTESIAN_POINT('',(0.,0.));
#1284 = DIRECTION('',(0.,-1.));
#1285 = ( GEOMETRIC_REPRESENTATION_CONTEXT(2) 
PARAMETRIC_REPRESENTATION_CONTEXT() REPRESENTATION_CONTEXT('2D SPACE',''
  ) );
#1286 = PCURVE('',#1287,#1292);
#1287 = CYLINDRICAL_SURFACE('',#1288,3.);
#1288 = AXIS2_PLACEMENT_3D('',#1289,#1290,#1291);
#1289 = CARTESIAN_POINT('',(0.,0.,0.));
#1290 = DIRECTION('',(0.,0.,1.));
#1291 = DIRECTION('',(1.,0.,-0.));
#1292 = DEFINITIONAL_REPRESENTATION('',(#1293),#1297);
#1293 = LINE('',#1294,#1295);
#1294 = CARTESIAN_POINT('',(-1.570796326795,12.));
#1295 = VECTOR('',#1296,1.);
#1296 = DIRECTION('',(1.,0.));
#1297 = ( GEOMETRIC_REPRESENTATION_CONTEXT(2) 
PARAMETRIC_REPRESENTATION_CONTEXT() REPRESENTATION_CONTEXT('2D SPACE',''
  ) );
#1298 = ADVANCED_FACE('',(#1299),#1196,.F.);
#1299 = FACE_BOUND('',#1300,.T.);
#1300 = EDGE_LOOP('',(#1301));
#1301 = ORIENTED_EDGE('',*,*,#1181,.F.);
#1302 = ADVANCED_FACE('',(#1303),#1249,.T.);
#1303 = FACE_BOUND('',#1304,.T.);
#1304 = EDGE_LOOP('',(#1305));
#1305 = ORIENTED_EDGE('',*,*,#1234,.T.);
#1306 = ADVANCED_FACE('',(#1307),#1287,.T.);
#1307 = FACE_BOUND('',#1308,.T.);
#1308 = EDGE_LOOP('',(#1309,#1332,#1359,#1360));
#1309 = ORIENTED_EDGE('',*,*,#1310,.T.);
#1310 = EDGE_CURVE('',#1271,#1311,#1313,.T.);
#1311 = VERTEX_POINT('',#1312);
#1312 = CARTESIAN_POINT('',(3.,0.,20.));
#1313 = SEAM_CURVE('',#1314,(#1318,#1325),.PCURVE_S1.);
#1314 = LINE('',#1315,#1316);
#1315 = CARTESIAN_POINT('',(3.,0.,0.));
#1316 = VECTOR('',#1317,1.);
#1317 = DIRECTION('',(0.,0.,1.));
#1318 = PCURVE('',#1287,#1319);
#1319 = DEFINITIONAL_REPRESENTATION('',(#1320),#1324);
#1320 = LINE('',#1321,#1322);
#1321 = CARTESIAN_POINT('',(6.28318530718,0.));
#1322 = VECTOR('',#1323,1.);
#1323 = DIRECTION('',(0.,1.));
#1324 = ( GEOMETRIC_REPRESENTATION_CONTEXT(2) 
PARAMETRIC_REPRESENTATION_CONTEXT() REPRESENTATION_CONTEXT('2D SPACE',''
  ) );
#1325 = PCURVE('',#1287,#1326);
#1326 = DEFINITIONAL_REPRESENTATION('',(#1327),#1331);
#1327 = LINE('',#1328,#1329);
#1328 = CARTESIAN_POINT('',(0.,0.));
#1329 = VECTOR('',#1330,1.);
#1330 = DIRECTION('',(0.,1.));
#1331 = ( GEOMETRIC_REPRESENTATION_CONTEXT(2) 
PARAMETRIC_REPRESENTATION_CONTEXT() REPRESENTATION_CONTEXT('2D SPACE',''
  ) );
#1332 = ORIENTED_EDGE('',*,*,#1333,.F.);
#1333 = EDGE_CURVE('',#1311,#1311,#1334,.T.);
#1334 = SURFACE_CURVE('',#1335,(#1340,#1347),.PCURVE_S1.);
#1335 = CIRCLE('',#1336,3.);
#1336 = AXIS2_PLACEMENT_3D('',#1337,#1338,#1339);
#1337 = CARTESIAN_POINT('',(0.,0.,20.));
#1338 = DIRECTION('',(0.,0.,1.));
#1339 = DIRECTION('',(1.,0.,-0.));
#1340 = PCURVE('',#1287,#1341);
#1341 = DEFINITIONAL_REPRESENTATION('',(#1342),#1346);
#1342 = LINE('',#1343,#1344);
#1343 = CARTESIAN_POINT('',(0.,20.));
#1344 = VECTOR('',#1345,1.);
#1345 = DIRECTION('',(1.,0.));
#1346 = ( GEOMETRIC_REPRESENTATION_CONTEXT(2) 
PARAMETRIC_REPRESENTATION_CONTEXT() REPRESENTATION_CONTEXT('2D SPACE',''
  ) );
#1347 = PCURVE('',#1348,#1353);
#1348 = PLANE('',#1349);
#1349 = AXIS2_PLACEMENT_3D('',#1350,#1351,#1352);
#1350 = CARTESIAN_POINT('',(0.,0.,20.));
#1351 = DIRECTION('',(0.,0.,1.));
#1352 = DIRECTION('',(1.,0.,-0.));
#1353 = DEFINITIONAL_REPRESENTATION('',(#1354),#1358);
#1354 = CIRCLE('',#1355,3.);
#1355 = AXIS2_PLACEMENT_2D('',#1356,#1357);
#1356 = CARTESIAN_POINT('',(0.,0.));
#1357 = DIRECTION('',(1.,0.));
#1358 = ( GEOMETRIC_REPRESENTATION_CONTEXT(2) 
PARAMETRIC_REPRESENTATION_CONTEXT() REPRESENTATION_CONTEXT('2D SPACE',''
  ) );
#1359 = ORIENTED_EDGE('',*,*,#1310,.F.);
#1360 = ORIENTED_EDGE('',*,*,#1270,.T.);
#1361 = ADVANCED_FACE('',(#1362),#1348,.T.);
#1362 = FACE_BOUND('',#1363,.T.);
#1363 = EDGE_LOOP('',(#1364));
#1364 = ORIENTED_EDGE('',*,*,#1333,.T.);
#1365 = ( GEOMETRIC_REPRESENTATION_CONTEXT(3) 
GLOBAL_UNCERTAINTY_ASSIGNED_CONTEXT((#1369)) 
GLOBAL_UNIT_ASSIGNED_CONTEXT((#1366,#1367,#1368)) REPRESENTATION_CONTEXT
('Context #1','3D Context with UNIT and UNCERTAINTY') );
#1366 = ( LENGTH_UNIT() NAMED_UNIT(*) SI_UNIT(.MILLI.,.METRE.) );
#1367 = ( NAMED_UNIT(*) PLANE_ANGLE_UNIT() SI_UNIT($,.RADIAN.) );
#1368 = ( NAMED_UNIT(*) SI_UNIT($,.STERADIAN.) SOLID_ANGLE_UNIT() );
#1369 = UNCERTAINTY_MEASURE_WITH_UNIT(LENGTH_MEASURE(2.E-04),#1366,
  'distance_accuracy_value','confusion accuracy');
#1370 = PRODUCT_RELATED_PRODUCT_CATEGORY('part',$,(#7));
ENDSEC;
END-ISO-10303-21;
