ISO-10303-21;
HEADER;
FILE_DESCRIPTION(('Open CASCADE Model'),'2;1');
FILE_NAME('Open CASCADE Shape Model','2026-07-11T20:16:07',('Author'),(
    'Open CASCADE'),'Open CASCADE STEP processor 8.0','Open CASCADE 8.0'
  ,'Unknown');
FILE_SCHEMA(('AUTOMOTIVE_DESIGN { 1 0 10303 214 1 1 1 1 }'));
ENDSEC;
DATA;
#1 = APPLICATION_PROTOCOL_DEFINITION('international standard',
  'automotive_design',2000,#2);
#2 = APPLICATION_CONTEXT(
  'core data for automotive mechanical design processes');
#3 = SHAPE_DEFINITION_REPRESENTATION(#4,#10);
#4 = PRODUCT_DEFINITION_SHAPE('','',#5);
#5 = PRODUCT_DEFINITION('design','',#6,#9);
#6 = PRODUCT_DEFINITION_FORMATION('','',#7);
#7 = PRODUCT('Open CASCADE STEP translator 8.0 1',
  'Open CASCADE STEP translator 8.0 1','',(#8));
#8 = PRODUCT_CONTEXT('',#2,'mechanical');
#9 = PRODUCT_DEFINITION_CONTEXT('part definition',#2,'design');
#10 = MANIFOLD_SURFACE_SHAPE_REPRESENTATION('',(#11,#15),#635);
#11 = AXIS2_PLACEMENT_3D('',#12,#13,#14);
#12 = CARTESIAN_POINT('',(0.,0.,0.));
#13 = DIRECTION('',(0.,0.,1.));
#14 = DIRECTION('',(1.,0.,-0.));
#15 = SHELL_BASED_SURFACE_MODEL('',(#16));
#16 = OPEN_SHELL('',(#17,#262,#497,#600));
#17 = ADVANCED_FACE('',(#18),#31,.T.);
#18 = FACE_BOUND('',#19,.T.);
#19 = EDGE_LOOP('',(#20,#51,#196,#247));
#20 = ORIENTED_EDGE('',*,*,#21,.F.);
#21 = EDGE_CURVE('',#22,#24,#26,.T.);
#22 = VERTEX_POINT('',#23);
#23 = CARTESIAN_POINT('',(488.41082,106.161175,168.453295));
#24 = VERTEX_POINT('',#25);
#25 = CARTESIAN_POINT('',(488.41082,106.161175,90.));
#26 = SURFACE_CURVE('',#27,(#30),.PCURVE_S1.);
#27 = B_SPLINE_CURVE_WITH_KNOTS('',1,(#28,#29),.UNSPECIFIED.,.F.,.F.,(2,
    2),(0.,1.),.PIECEWISE_BEZIER_KNOTS.);
#28 = CARTESIAN_POINT('',(488.41082,106.161175,168.453295));
#29 = CARTESIAN_POINT('',(488.41082,106.161175,90.));
#30 = PCURVE('',#31,#46);
#31 = B_SPLINE_SURFACE_WITH_KNOTS('',6,1,(
    (#32,#33)
    ,(#34,#35)
    ,(#36,#37)
    ,(#38,#39)
    ,(#40,#41)
    ,(#42,#43)
    ,(#44,#45)),.UNSPECIFIED.,.F.,.F.,.F.,(7,7),(2,2),(0.,1.),(0.,1.),
  .PIECEWISE_BEZIER_KNOTS.);
#32 = CARTESIAN_POINT('',(487.55742,110.07751,172.936105));
#33 = CARTESIAN_POINT('',(487.55742,110.07751,87.977085));
#34 = CARTESIAN_POINT('',(493.63079,82.65867,155.071335));
#35 = CARTESIAN_POINT('',(493.63079,82.65867,88.41283));
#36 = CARTESIAN_POINT('',(498.031415,55.33499,140.867245));
#37 = CARTESIAN_POINT('',(498.031415,55.33499,88.759285));
#38 = CARTESIAN_POINT('',(500.64535,28.0691195,129.136925));
#39 = CARTESIAN_POINT('',(500.64535,28.0691195,89.0454));
#40 = CARTESIAN_POINT('',(501.3931,0.8055709,119.622795));
#41 = CARTESIAN_POINT('',(501.3931,0.8055709,89.277465));
#42 = CARTESIAN_POINT('',(500.2134,-26.508985,112.18913));
#43 = CARTESIAN_POINT('',(500.2134,-26.508985,89.45878));
#44 = CARTESIAN_POINT('',(497.0713,-53.92615,106.78561));
#45 = CARTESIAN_POINT('',(497.0713,-53.92615,89.59058));
#46 = DEFINITIONAL_REPRESENTATION('',(#47),#50);
#47 = B_SPLINE_CURVE_WITH_KNOTS('',1,(#48,#49),.UNSPECIFIED.,.F.,.F.,(2,
    2),(0.,1.),.PIECEWISE_BEZIER_KNOTS.);
#48 = CARTESIAN_POINT('',(2.3810476E-02,2.3810476E-02));
#49 = CARTESIAN_POINT('',(2.3810476E-02,0.97618952));
#50 = ( GEOMETRIC_REPRESENTATION_CONTEXT(2) 
PARAMETRIC_REPRESENTATION_CONTEXT() REPRESENTATION_CONTEXT('2D SPACE',''
  ) );
#51 = ORIENTED_EDGE('',*,*,#52,.T.);
#52 = EDGE_CURVE('',#22,#53,#55,.T.);
#53 = VERTEX_POINT('',#54);
#54 = CARTESIAN_POINT('',(497.50351,-50.010115,107.14618));
#55 = SURFACE_CURVE('',#56,(#63,#69),.PCURVE_S1.);
#56 = B_SPLINE_CURVE_WITH_KNOTS('',5,(#57,#58,#59,#60,#61,#62),
  .UNSPECIFIED.,.F.,.F.,(6,6),(0.,1.),.PIECEWISE_BEZIER_KNOTS.);
#57 = CARTESIAN_POINT('',(488.41082,106.161175,168.453295));
#58 = CARTESIAN_POINT('',(495.123475,74.838125,149.013));
#59 = CARTESIAN_POINT('',(499.54527,43.6399685,134.273065));
#60 = CARTESIAN_POINT('',(501.4862,12.4977565,122.424145));
#61 = CARTESIAN_POINT('',(500.8277,-18.6899005,113.440805));
#62 = CARTESIAN_POINT('',(497.50351,-50.010115,107.14618));
#63 = PCURVE('',#31,#64);
#64 = DEFINITIONAL_REPRESENTATION('',(#65),#68);
#65 = B_SPLINE_CURVE_WITH_KNOTS('',1,(#66,#67),.UNSPECIFIED.,.F.,.F.,(2,
    2),(0.,1.),.PIECEWISE_BEZIER_KNOTS.);
#66 = CARTESIAN_POINT('',(2.3810476E-02,2.3810476E-02));
#67 = CARTESIAN_POINT('',(0.97618952,2.3810476E-02));
#68 = ( GEOMETRIC_REPRESENTATION_CONTEXT(2) 
PARAMETRIC_REPRESENTATION_CONTEXT() REPRESENTATION_CONTEXT('2D SPACE',''
  ) );
#69 = PCURVE('',#70,#191);
#70 = B_SPLINE_SURFACE_WITH_KNOTS('',9,11,(
    (#71,#72,#73,#74,#75,#76,#77,#78,#79,#80,#81,#82)
    ,(#83,#84,#85,#86,#87,#88,#89,#90,#91,#92,#93,#94)
    ,(#95,#96,#97,#98,#99,#100,#101,#102,#103,#104,#105,#106)
    ,(#107,#108,#109,#110,#111,#112,#113,#114,#115,#116,#117,#118)
    ,(#119,#120,#121,#122,#123,#124,#125,#126,#127,#128,#129,#130)
    ,(#131,#132,#133,#134,#135,#136,#137,#138,#139,#140,#141,#142)
    ,(#143,#144,#145,#146,#147,#148,#149,#150,#151,#152,#153,#154)
    ,(#155,#156,#157,#158,#159,#160,#161,#162,#163,#164,#165,#166)
    ,(#167,#168,#169,#170,#171,#172,#173,#174,#175,#176,#177,#178)
    ,(#179,#180,#181,#182,#183,#184,#185,#186,#187,#188,#189,#190
  )),.UNSPECIFIED.,.F.,.F.,.F.,(10,10),(12,12),(0.,1.),(0.,1.),
  .PIECEWISE_BEZIER_KNOTS.);
#71 = CARTESIAN_POINT('',(579.99845,-75.4316,139.25893));
#72 = CARTESIAN_POINT('',(582.2201,-59.569405,141.417505));
#73 = CARTESIAN_POINT('',(583.8502,-43.720556,144.22607));
#74 = CARTESIAN_POINT('',(584.92805,-27.872922,147.68758));
#75 = CARTESIAN_POINT('',(585.27925,-12.0827695,151.84741));
#76 = CARTESIAN_POINT('',(585.45815,3.7711921,156.62323));
#77 = CARTESIAN_POINT('',(584.4102,19.519993,162.23315));
#78 = CARTESIAN_POINT('',(583.40385,35.302152,168.469175));
#79 = CARTESIAN_POINT('',(581.49235,51.05731,175.585925));
#80 = CARTESIAN_POINT('',(579.15825,66.795495,183.542115));
#81 = CARTESIAN_POINT('',(576.261,82.523105,192.482175));
#82 = CARTESIAN_POINT('',(572.84765,98.235575,202.541265));
#83 = CARTESIAN_POINT('',(569.9393,-72.79746,137.633355));
#84 = CARTESIAN_POINT('',(572.09315,-57.14719,139.880015));
#85 = CARTESIAN_POINT('',(573.66235,-41.514626,142.75874));
#86 = CARTESIAN_POINT('',(574.688,-25.8835205,146.271875));
#87 = CARTESIAN_POINT('',(574.9865,-10.3212685,150.46374));
#88 = CARTESIAN_POINT('',(575.15145,5.3262595,155.247515));
#89 = CARTESIAN_POINT('',(574.03335,20.8375075,160.85516));
#90 = CARTESIAN_POINT('',(573.0454,36.4122885,167.0495));
#91 = CARTESIAN_POINT('',(571.1086,51.94744,174.116025));
#92 = CARTESIAN_POINT('',(568.7765,67.47272,181.99059));
#93 = CARTESIAN_POINT('',(565.8867,82.99152,190.825835));
#94 = CARTESIAN_POINT('',(562.49125,98.50078,200.753905));
#95 = CARTESIAN_POINT('',(559.9643,-70.191365,135.445005));
#96 = CARTESIAN_POINT('',(562.05235,-54.72651,137.77871));
#97 = CARTESIAN_POINT('',(563.5632,-39.2826815,140.727765));
#98 = CARTESIAN_POINT('',(564.53235,-23.843331,144.29548));
#99 = CARTESIAN_POINT('',(564.8009,-8.472062,148.51845));
#100 = CARTESIAN_POINT('',(564.9074,6.9801725,153.32237));
#101 = CARTESIAN_POINT('',(563.77275,22.304531,158.92706));
#102 = CARTESIAN_POINT('',(562.7661,37.6799345,165.09163));
#103 = CARTESIAN_POINT('',(560.8219,53.039765,172.11823));
#104 = CARTESIAN_POINT('',(558.4852,68.37354,179.922855));
#105 = CARTESIAN_POINT('',(555.6024,83.71412,188.66797));
#106 = CARTESIAN_POINT('',(552.2233,99.04914,198.48173));
#107 = CARTESIAN_POINT('',(550.1072,-67.62224,132.69919));
#108 = CARTESIAN_POINT('',(552.1318,-52.315485,135.11865));
#109 = CARTESIAN_POINT('',(553.58725,-37.0349645,138.136915));
#110 = CARTESIAN_POINT('',(554.4951,-21.745128,141.76677));
#111 = CARTESIAN_POINT('',(554.76215,-6.581566,146.005615));
#112 = CARTESIAN_POINT('',(554.74905,8.8022255,150.86986));
#113 = CARTESIAN_POINT('',(553.6755,23.8227585,156.433305));
#114 = CARTESIAN_POINT('',(552.5949,39.1816305,162.615805));
#115 = CARTESIAN_POINT('',(550.6691,54.286095,169.58906));
#116 = CARTESIAN_POINT('',(548.31685,69.509145,177.346755));
#117 = CARTESIAN_POINT('',(545.44355,84.691025,186.01433));
#118 = CARTESIAN_POINT('',(542.0788,99.88021,195.73072));
#119 = CARTESIAN_POINT('',(540.4012,-65.09882,129.40388));
#120 = CARTESIAN_POINT('',(542.365,-49.922341,131.90742));
#121 = CARTESIAN_POINT('',(543.76505,-34.7685355,134.99778));
#122 = CARTESIAN_POINT('',(544.6226,-19.644742,138.67778));
#123 = CARTESIAN_POINT('',(544.87245,-4.5183603,142.96787));
#124 = CARTESIAN_POINT('',(544.741,10.5478985,147.85082));
#125 = CARTESIAN_POINT('',(543.77085,25.676132,153.42516));
#126 = CARTESIAN_POINT('',(542.5622,40.672501,159.595735));
#127 = CARTESIAN_POINT('',(540.68395,55.82132,166.556785));
#128 = CARTESIAN_POINT('',(538.3138,70.835365,174.26211));
#129 = CARTESIAN_POINT('',(535.4427,85.914055,182.871645));
#130 = CARTESIAN_POINT('',(532.0922,100.991235,192.508845));
#131 = CARTESIAN_POINT('',(530.8789,-62.62967,125.56959));
#132 = CARTESIAN_POINT('',(532.7847,-47.5551645,128.15524));
#133 = CARTESIAN_POINT('',(534.1337,-32.5115395,131.31307));
#134 = CARTESIAN_POINT('',(534.94745,-17.4622215,135.056155));
#135 = CARTESIAN_POINT('',(535.1417,-2.52745175,139.37874));
#136 = CARTESIAN_POINT('',(535.0061,12.6016525,144.309055));
#137 = CARTESIAN_POINT('',(533.97355,27.390795,149.877115));
#138 = CARTESIAN_POINT('',(532.773,42.5457755,156.07746));
#139 = CARTESIAN_POINT('',(530.88905,57.393095,162.998545));
#140 = CARTESIAN_POINT('',(528.49025,72.4191,170.691875));
#141 = CARTESIAN_POINT('',(525.63715,87.390265,179.251885));
#142 = CARTESIAN_POINT('',(522.29735,102.378575,188.82629));
#143 = CARTESIAN_POINT('',(521.572,-60.22313,121.209265));
#144 = CARTESIAN_POINT('',(523.42275,-45.2218265,123.87486));
#145 = CARTESIAN_POINT('',(524.72055,-30.24591,127.10412));
#146 = CARTESIAN_POINT('',(525.49255,-15.3033495,130.898595));
#147 = CARTESIAN_POINT('',(525.6522,-0.34720907,135.28106));
#148 = CARTESIAN_POINT('',(525.46555,14.5247705,140.229365));
#149 = CARTESIAN_POINT('',(524.42505,29.496046,145.839205));
#150 = CARTESIAN_POINT('',(523.23515,44.32987,152.02752));
#151 = CARTESIAN_POINT('',(521.27355,59.291925,158.969015));
#152 = CARTESIAN_POINT('',(518.9212,74.177025,166.631055));
#153 = CARTESIAN_POINT('',(516.05715,89.098685,175.16388));
#154 = CARTESIAN_POINT('',(512.72755,104.03824,184.69551));
#155 = CARTESIAN_POINT('',(512.5114,-57.88732,116.338115));
#156 = CARTESIAN_POINT('',(514.31005,-42.9300065,119.081405));
#157 = CARTESIAN_POINT('',(515.5644,-28.0018935,122.377235));
#158 = CARTESIAN_POINT('',(516.27915,-13.091175,126.236115));
#159 = CARTESIAN_POINT('',(516.45065,1.78851525,130.654405));
#160 = CARTESIAN_POINT('',(516.1335,16.6724835,135.66471));
#161 = CARTESIAN_POINT('',(515.21235,31.538243,141.27468));
#162 = CARTESIAN_POINT('',(513.8713,46.3948995,147.5107));
#163 = CARTESIAN_POINT('',(511.9786,61.28515,154.44074));
#164 = CARTESIAN_POINT('',(509.592,76.150225,162.10699));
#165 = CARTESIAN_POINT('',(506.7367,91.049165,170.625385));
#166 = CARTESIAN_POINT('',(503.4152,105.96566,180.13109));
#167 = CARTESIAN_POINT('',(503.72705,-55.630125,110.97346));
#168 = CARTESIAN_POINT('',(505.47665,-40.6873575,113.79206));
#169 = CARTESIAN_POINT('',(506.6872,-25.7733615,117.155575));
#170 = CARTESIAN_POINT('',(507.3639,-10.880181,121.07131));
#171 = CARTESIAN_POINT('',(507.50495,3.9924048,125.54538));
#172 = CARTESIAN_POINT('',(507.14445,18.860147,130.596));
#173 = CARTESIAN_POINT('',(506.2269,33.716768,136.24117));
#174 = CARTESIAN_POINT('',(504.85105,48.5777415,142.50908));
#175 = CARTESIAN_POINT('',(502.9463,63.450715,149.452765));
#176 = CARTESIAN_POINT('',(500.5631,78.3281,157.13192));
#177 = CARTESIAN_POINT('',(497.70708,93.23,165.65128));
#178 = CARTESIAN_POINT('',(494.391285,108.154645,175.149405));
#179 = CARTESIAN_POINT('',(495.247935,-53.459175,105.13454));
#180 = CARTESIAN_POINT('',(496.951955,-38.501803,108.025615));
#181 = CARTESIAN_POINT('',(498.121915,-23.5723165,111.455445));
#182 = CARTESIAN_POINT('',(498.761915,-8.6643685,115.43003));
#183 = CARTESIAN_POINT('',(498.87737,6.2285005,119.95914));
#184 = CARTESIAN_POINT('',(498.47484,21.1128495,125.05678));
#185 = CARTESIAN_POINT('',(497.56197,35.995279,130.74327));
#186 = CARTESIAN_POINT('',(496.14744,50.882325,137.04897));
#187 = CARTESIAN_POINT('',(494.240985,65.780305,144.01965));
#188 = CARTESIAN_POINT('',(491.853465,80.695135,151.72345));
#189 = CARTESIAN_POINT('',(488.997,95.632085,160.25949));
#190 = CARTESIAN_POINT('',(485.68513,110.595485,169.768115));
#191 = DEFINITIONAL_REPRESENTATION('',(#192),#195);
#192 = B_SPLINE_CURVE_WITH_KNOTS('',1,(#193,#194),.UNSPECIFIED.,.F.,.F.,
  (2,2),(0.,1.),.PIECEWISE_BEZIER_KNOTS.);
#193 = CARTESIAN_POINT('',(0.97618764,0.97618933));
#194 = CARTESIAN_POINT('',(0.97618764,2.3810667E-02));
#195 = ( GEOMETRIC_REPRESENTATION_CONTEXT(2) 
PARAMETRIC_REPRESENTATION_CONTEXT() REPRESENTATION_CONTEXT('2D SPACE',''
  ) );
#196 = ORIENTED_EDGE('',*,*,#197,.T.);
#197 = EDGE_CURVE('',#53,#198,#200,.T.);
#198 = VERTEX_POINT('',#199);
#199 = CARTESIAN_POINT('',(497.50351,-50.010115,90.));
#200 = SURFACE_CURVE('',#201,(#204,#210),.PCURVE_S1.);
#201 = B_SPLINE_CURVE_WITH_KNOTS('',1,(#202,#203),.UNSPECIFIED.,.F.,.F.,
  (2,2),(0.,1.),.PIECEWISE_BEZIER_KNOTS.);
#202 = CARTESIAN_POINT('',(497.50351,-50.010115,107.14618));
#203 = CARTESIAN_POINT('',(497.50351,-50.010115,90.));
#204 = PCURVE('',#31,#205);
#205 = DEFINITIONAL_REPRESENTATION('',(#206),#209);
#206 = B_SPLINE_CURVE_WITH_KNOTS('',1,(#207,#208),.UNSPECIFIED.,.F.,.F.,
  (2,2),(0.,1.),.PIECEWISE_BEZIER_KNOTS.);
#207 = CARTESIAN_POINT('',(0.97618952,2.3810476E-02));
#208 = CARTESIAN_POINT('',(0.97618952,0.97618952));
#209 = ( GEOMETRIC_REPRESENTATION_CONTEXT(2) 
PARAMETRIC_REPRESENTATION_CONTEXT() REPRESENTATION_CONTEXT('2D SPACE',''
  ) );
#210 = PCURVE('',#211,#242);
#211 = B_SPLINE_SURFACE_WITH_KNOTS('',14,1,(
    (#212,#213)
    ,(#214,#215)
    ,(#216,#217)
    ,(#218,#219)
    ,(#220,#221)
    ,(#222,#223)
    ,(#224,#225)
    ,(#226,#227)
    ,(#228,#229)
    ,(#230,#231)
    ,(#232,#233)
    ,(#234,#235)
    ,(#236,#237)
    ,(#238,#239)
    ,(#240,#241
    )),.UNSPECIFIED.,.F.,.F.,.F.,(15,15),(2,2),(0.,1.),(0.,1.),
  .PIECEWISE_BEZIER_KNOTS.);
#212 = CARTESIAN_POINT('',(494.237025,-49.3493365,107.79358));
#213 = CARTESIAN_POINT('',(494.237025,-49.3493365,89.56599));
#214 = CARTESIAN_POINT('',(504.0372,-51.32501,107.13383));
#215 = CARTESIAN_POINT('',(504.0372,-51.32501,89.582085));
#216 = CARTESIAN_POINT('',(513.8303,-53.343175,106.49727));
#217 = CARTESIAN_POINT('',(513.8303,-53.343175,89.59761));
#218 = CARTESIAN_POINT('',(523.616,-55.403795,105.883765));
#219 = CARTESIAN_POINT('',(523.616,-55.403795,89.612575));
#220 = CARTESIAN_POINT('',(533.39415,-57.50684,105.29319));
#221 = CARTESIAN_POINT('',(533.39415,-57.50684,89.62698));
#222 = CARTESIAN_POINT('',(543.16435,-59.652285,104.72543));
#223 = CARTESIAN_POINT('',(543.16435,-59.652285,89.64083));
#224 = CARTESIAN_POINT('',(552.92645,-61.84009,104.180355));
#225 = CARTESIAN_POINT('',(552.92645,-61.84009,89.654125));
#226 = CARTESIAN_POINT('',(562.6801,-64.070215,103.657855));
#227 = CARTESIAN_POINT('',(562.6801,-64.070215,89.66687));
#228 = CARTESIAN_POINT('',(572.42515,-66.342625,103.157815));
#229 = CARTESIAN_POINT('',(572.42515,-66.342625,89.679065));
#230 = CARTESIAN_POINT('',(582.1612,-68.657275,102.680115));
#231 = CARTESIAN_POINT('',(582.1612,-68.657275,89.690715));
#232 = CARTESIAN_POINT('',(591.8881,-71.01413,102.22465));
#233 = CARTESIAN_POINT('',(591.8881,-71.01413,89.701825));
#234 = CARTESIAN_POINT('',(601.60555,-73.413135,101.791315));
#235 = CARTESIAN_POINT('',(601.60555,-73.413135,89.712395));
#236 = CARTESIAN_POINT('',(611.31335,-75.854245,101.380005));
#237 = CARTESIAN_POINT('',(611.31335,-75.854245,89.72243));
#238 = CARTESIAN_POINT('',(621.01115,-78.33741,100.990615));
#239 = CARTESIAN_POINT('',(621.01115,-78.33741,89.731925));
#240 = CARTESIAN_POINT('',(630.6988,-80.862575,100.62305));
#241 = CARTESIAN_POINT('',(630.6988,-80.862575,89.74089));
#242 = DEFINITIONAL_REPRESENTATION('',(#243),#246);
#243 = B_SPLINE_CURVE_WITH_KNOTS('',1,(#244,#245),.UNSPECIFIED.,.F.,.F.,
  (2,2),(0.,1.),.PIECEWISE_BEZIER_KNOTS.);
#244 = CARTESIAN_POINT('',(2.3810476E-02,2.3810476E-02));
#245 = CARTESIAN_POINT('',(2.3810476E-02,0.97618952));
#246 = ( GEOMETRIC_REPRESENTATION_CONTEXT(2) 
PARAMETRIC_REPRESENTATION_CONTEXT() REPRESENTATION_CONTEXT('2D SPACE',''
  ) );
#247 = ORIENTED_EDGE('',*,*,#248,.F.);
#248 = EDGE_CURVE('',#24,#198,#249,.T.);
#249 = SURFACE_CURVE('',#250,(#256),.PCURVE_S1.);
#250 = B_SPLINE_CURVE_WITH_KNOTS('',4,(#251,#252,#253,#254,#255),
  .UNSPECIFIED.,.F.,.F.,(5,5),(0.,1.),.PIECEWISE_BEZIER_KNOTS.);
#251 = CARTESIAN_POINT('',(488.41082,106.161175,90.));
#252 = CARTESIAN_POINT('',(496.80164,67.007365,90.));
#253 = CARTESIAN_POINT('',(501.3728,28.065599,90.));
#254 = CARTESIAN_POINT('',(501.65875,-10.859847,90.));
#255 = CARTESIAN_POINT('',(497.50351,-50.010115,90.));
#256 = PCURVE('',#31,#257);
#257 = DEFINITIONAL_REPRESENTATION('',(#258),#261);
#258 = B_SPLINE_CURVE_WITH_KNOTS('',1,(#259,#260),.UNSPECIFIED.,.F.,.F.,
  (2,2),(0.,1.),.PIECEWISE_BEZIER_KNOTS.);
#259 = CARTESIAN_POINT('',(2.3810476E-02,0.97618952));
#260 = CARTESIAN_POINT('',(0.97618952,0.97618952));
#261 = ( GEOMETRIC_REPRESENTATION_CONTEXT(2) 
PARAMETRIC_REPRESENTATION_CONTEXT() REPRESENTATION_CONTEXT('2D SPACE',''
  ) );
#262 = ADVANCED_FACE('',(#263),#211,.T.);
#263 = FACE_BOUND('',#264,.T.);
#264 = EDGE_LOOP('',(#265,#266,#469,#483));
#265 = ORIENTED_EDGE('',*,*,#197,.F.);
#266 = ORIENTED_EDGE('',*,*,#267,.T.);
#267 = EDGE_CURVE('',#53,#268,#270,.T.);
#268 = VERTEX_POINT('',#269);
#269 = CARTESIAN_POINT('',(627.4689,-80.022985,100.48458));
#270 = SURFACE_CURVE('',#271,(#276,#282),.PCURVE_S1.);
#271 = B_SPLINE_CURVE_WITH_KNOTS('',3,(#272,#273,#274,#275),
  .UNSPECIFIED.,.F.,.F.,(4,4),(0.,1.),.PIECEWISE_BEZIER_KNOTS.);
#272 = CARTESIAN_POINT('',(497.50351,-50.010115,107.14618));
#273 = CARTESIAN_POINT('',(541.04995,-58.84932,104.31658));
#274 = CARTESIAN_POINT('',(584.3989,-68.857835,102.107665));
#275 = CARTESIAN_POINT('',(627.4689,-80.022985,100.48458));
#276 = PCURVE('',#211,#277);
#277 = DEFINITIONAL_REPRESENTATION('',(#278),#281);
#278 = B_SPLINE_CURVE_WITH_KNOTS('',1,(#279,#280),.UNSPECIFIED.,.F.,.F.,
  (2,2),(0.,1.),.PIECEWISE_BEZIER_KNOTS.);
#279 = CARTESIAN_POINT('',(2.3810476E-02,2.3810476E-02));
#280 = CARTESIAN_POINT('',(0.97618952,2.3810476E-02));
#281 = ( GEOMETRIC_REPRESENTATION_CONTEXT(2) 
PARAMETRIC_REPRESENTATION_CONTEXT() REPRESENTATION_CONTEXT('2D SPACE',''
  ) );
#282 = PCURVE('',#283,#464);
#283 = B_SPLINE_SURFACE_WITH_KNOTS('',14,11,(
    (#284,#285,#286,#287,#288,#289,#290,#291,#292,#293,#294,#295)
    ,(#296,#297,#298,#299,#300,#301,#302,#303,#304,#305,#306,#307)
    ,(#308,#309,#310,#311,#312,#313,#314,#315,#316,#317,#318,#319)
    ,(#320,#321,#322,#323,#324,#325,#326,#327,#328,#329,#330,#331)
    ,(#332,#333,#334,#335,#336,#337,#338,#339,#340,#341,#342,#343)
    ,(#344,#345,#346,#347,#348,#349,#350,#351,#352,#353,#354,#355)
    ,(#356,#357,#358,#359,#360,#361,#362,#363,#364,#365,#366,#367)
    ,(#368,#369,#370,#371,#372,#373,#374,#375,#376,#377,#378,#379)
    ,(#380,#381,#382,#383,#384,#385,#386,#387,#388,#389,#390,#391)
    ,(#392,#393,#394,#395,#396,#397,#398,#399,#400,#401,#402,#403)
    ,(#404,#405,#406,#407,#408,#409,#410,#411,#412,#413,#414,#415)
    ,(#416,#417,#418,#419,#420,#421,#422,#423,#424,#425,#426,#427)
    ,(#428,#429,#430,#431,#432,#433,#434,#435,#436,#437,#438,#439)
    ,(#440,#441,#442,#443,#444,#445,#446,#447,#448,#449,#450,#451)
    ,(#452,#453,#454,#455,#456,#457,#458,#459,#460,#461,#462,#463
  )),.UNSPECIFIED.,.F.,.F.,.F.,(15,15),(12,12),(0.,1.),(0.,1.),
  .PIECEWISE_BEZIER_KNOTS.);
#284 = CARTESIAN_POINT('',(630.74225,-81.080865,99.961515));
#285 = CARTESIAN_POINT('',(630.57675,-80.248415,101.496855));
#286 = CARTESIAN_POINT('',(630.40815,-79.40776,103.041655));
#287 = CARTESIAN_POINT('',(630.2368,-78.55861,104.59636));
#288 = CARTESIAN_POINT('',(630.0629,-77.7007,106.161375));
#289 = CARTESIAN_POINT('',(629.8866,-76.833795,107.73703));
#290 = CARTESIAN_POINT('',(629.70805,-75.957685,109.323625));
#291 = CARTESIAN_POINT('',(629.5273,-75.07223,110.92139));
#292 = CARTESIAN_POINT('',(629.3446,-74.17732,112.530485));
#293 = CARTESIAN_POINT('',(629.16015,-73.272915,114.15104));
#294 = CARTESIAN_POINT('',(628.9742,-72.35902,115.78312));
#295 = CARTESIAN_POINT('',(628.78705,-71.435695,117.42674));
#296 = CARTESIAN_POINT('',(620.9243,-78.555215,100.281885));
#297 = CARTESIAN_POINT('',(621.25505,-77.721625,101.96659));
#298 = CARTESIAN_POINT('',(621.59205,-76.904475,103.632375));
#299 = CARTESIAN_POINT('',(621.9343,-76.10423,105.27838));
#300 = CARTESIAN_POINT('',(622.28195,-75.32157,106.903755));
#301 = CARTESIAN_POINT('',(622.63435,-74.556905,108.50783));
#302 = CARTESIAN_POINT('',(622.99095,-73.81052,110.09007));
#303 = CARTESIAN_POINT('',(623.3516,-73.082785,111.65));
#304 = CARTESIAN_POINT('',(623.7166,-72.374065,113.18722));
#305 = CARTESIAN_POINT('',(624.0856,-71.68447,114.70149));
#306 = CARTESIAN_POINT('',(624.4572,-71.01372,116.19275));
#307 = CARTESIAN_POINT('',(624.83125,-70.361865,117.66091));
#308 = CARTESIAN_POINT('',(611.09585,-76.07851,100.616525));
#309 = CARTESIAN_POINT('',(611.9243,-75.217315,102.477395));
#310 = CARTESIAN_POINT('',(612.76825,-74.39722,104.290965));
#311 = CARTESIAN_POINT('',(613.62745,-73.61954,106.054995));
#312 = CARTESIAN_POINT('',(614.4924,-72.88527,107.767745));
#313 = CARTESIAN_POINT('',(615.38795,-72.19751,109.426495));
#314 = CARTESIAN_POINT('',(616.2613,-71.552315,111.032105));
#315 = CARTESIAN_POINT('',(617.18755,-70.958865,112.579775));
#316 = CARTESIAN_POINT('',(618.08355,-70.40682,114.073025));
#317 = CARTESIAN_POINT('',(619.0162,-69.90758,115.50714));
#318 = CARTESIAN_POINT('',(619.9488,-69.453685,116.884295));
#319 = CARTESIAN_POINT('',(620.88505,-69.046795,118.20381));
#320 = CARTESIAN_POINT('',(601.25635,-73.651,100.96549));
#321 = CARTESIAN_POINT('',(602.58665,-72.73496,103.029465));
#322 = CARTESIAN_POINT('',(603.9413,-71.884225,105.017885));
#323 = CARTESIAN_POINT('',(605.3239,-71.10468,106.926195));
#324 = CARTESIAN_POINT('',(606.7043,-70.38282,108.755255));
#325 = CARTESIAN_POINT('',(608.15695,-69.76238,110.49168));
#326 = CARTESIAN_POINT('',(609.54205,-69.166995,112.15285));
#327 = CARTESIAN_POINT('',(611.03795,-68.702355,113.710625));
#328 = CARTESIAN_POINT('',(612.4816,-68.26886,115.188795));
#329 = CARTESIAN_POINT('',(613.96375,-67.931865,116.57037));
#330 = CARTESIAN_POINT('',(615.4624,-67.67008,117.85977));
#331 = CARTESIAN_POINT('',(616.9656,-67.480555,119.05764));
#332 = CARTESIAN_POINT('',(591.40255,-71.27089,101.329395));
#333 = CARTESIAN_POINT('',(593.2523,-70.279795,103.62148));
#334 = CARTESIAN_POINT('',(595.13875,-69.37996,105.809235));
#335 = CARTESIAN_POINT('',(597.03705,-68.56624,107.890145));
#336 = CARTESIAN_POINT('',(599.03325,-67.876275,109.84997));
#337 = CARTESIAN_POINT('',(600.8874,-67.219335,111.711135));
#338 = CARTESIAN_POINT('',(603.04935,-66.77448,113.420945));
#339 = CARTESIAN_POINT('',(604.8885,-66.296915,115.045955));
#340 = CARTESIAN_POINT('',(607.0501,-66.04109,116.513135));
#341 = CARTESIAN_POINT('',(609.0624,-65.82364,117.872945));
#342 = CARTESIAN_POINT('',(611.12065,-65.72181,119.102845));
#343 = CARTESIAN_POINT('',(613.21405,-65.732375,120.203275));
#344 = CARTESIAN_POINT('',(581.5406,-68.94082,101.707655));
#345 = CARTESIAN_POINT('',(583.9049,-67.84456,104.25547));
#346 = CARTESIAN_POINT('',(586.31195,-66.863015,106.67094));
#347 = CARTESIAN_POINT('',(588.764,-66.00196,108.9472));
#348 = CARTESIAN_POINT('',(591.22535,-65.256585,111.08152));
#349 = CARTESIAN_POINT('',(593.788,-64.65532,113.06082));
#350 = CARTESIAN_POINT('',(596.2613,-64.150155,114.89748));
#351 = CARTESIAN_POINT('',(598.9164,-63.81738,116.56463));
#352 = CARTESIAN_POINT('',(601.45765,-63.577645,118.085415));
#353 = CARTESIAN_POINT('',(604.1121,-63.49584,119.43807));
#354 = CARTESIAN_POINT('',(606.7698,-63.54152,120.631065));
#355 = CARTESIAN_POINT('',(609.43685,-63.717445,121.662985));
#356 = CARTESIAN_POINT('',(571.665,-66.65876,102.101025));
#357 = CARTESIAN_POINT('',(574.56105,-65.435145,104.929685));
#358 = CARTESIAN_POINT('',(577.5074,-64.35005,107.597875));
#359 = CARTESIAN_POINT('',(580.5201,-63.417055,110.09538));
#360 = CARTESIAN_POINT('',(583.5002,-62.60283,112.42649));
#361 = CARTESIAN_POINT('',(586.7065,-62.01496,114.5555));
#362 = CARTESIAN_POINT('',(589.6353,-61.4589,116.533975));
#363 = CARTESIAN_POINT('',(592.98225,-61.212785,118.27984));
#364 = CARTESIAN_POINT('',(596.03185,-60.996225,119.870095));
#365 = CARTESIAN_POINT('',(599.29505,-61.013915,121.245045));
#366 = CARTESIAN_POINT('',(602.5571,-61.181885,122.427225));
#367 = CARTESIAN_POINT('',(605.81905,-61.50206,123.41541));
#368 = CARTESIAN_POINT('',(561.7727,-64.423295,102.510105));
#369 = CARTESIAN_POINT('',(565.2299,-63.05569,105.64289));
#370 = CARTESIAN_POINT('',(568.75095,-61.852785,108.586365));
#371 = CARTESIAN_POINT('',(572.3127,-60.81507,111.33303));
#372 = CARTESIAN_POINT('',(575.97965,-59.969745,113.86887));
#373 = CARTESIAN_POINT('',(579.56125,-59.262035,116.203555));
#374 = CARTESIAN_POINT('',(583.4149,-58.810885,118.298785));
#375 = CARTESIAN_POINT('',(587.0261,-58.455425,120.19703));
#376 = CARTESIAN_POINT('',(590.93335,-58.371175,121.84464));
#377 = CARTESIAN_POINT('',(594.72285,-58.427665,123.27757));
#378 = CARTESIAN_POINT('',(598.5764,-58.684655,124.476945));
#379 = CARTESIAN_POINT('',(602.47415,-59.136935,125.4434));
#380 = CARTESIAN_POINT('',(551.8699,-62.23653,102.934505));
#381 = CARTESIAN_POINT('',(555.8954,-60.70044,106.396575));
#382 = CARTESIAN_POINT('',(559.995,-59.354155,109.64083));
#383 = CARTESIAN_POINT('',(564.1349,-58.19431,112.65971));
#384 = CARTESIAN_POINT('',(568.42025,-57.269035,115.43258));
#385 = CARTESIAN_POINT('',(572.5497,-56.470305,117.982475));
#386 = CARTESIAN_POINT('',(577.0858,-56.019015,120.24328));
#387 = CARTESIAN_POINT('',(581.2366,-55.616395,122.293525));
#388 = CARTESIAN_POINT('',(585.80965,-55.575555,124.042675));
#389 = CARTESIAN_POINT('',(590.2134,-55.672495,125.55102));
#390 = CARTESIAN_POINT('',(594.69055,-56.00209,126.79035));
#391 = CARTESIAN_POINT('',(599.2242,-56.55972,127.76091));
#392 = CARTESIAN_POINT('',(541.95825,-60.099105,103.3743));
#393 = CARTESIAN_POINT('',(546.5537,-58.36772,107.190955));
#394 = CARTESIAN_POINT('',(551.22695,-56.84868,110.76206));
#395 = CARTESIAN_POINT('',(555.991,-55.557135,114.07349));
#396 = CARTESIAN_POINT('',(560.74585,-54.466835,117.125185));
#397 = CARTESIAN_POINT('',(565.74875,-53.67542,119.880355));
#398 = CARTESIAN_POINT('',(570.4886,-53.01169,122.38423));
#399 = CARTESIAN_POINT('',(575.68235,-52.72893,124.557115));
#400 = CARTESIAN_POINT('',(580.56925,-52.56804,126.47173));
#401 = CARTESIAN_POINT('',(585.71455,-52.72714,128.06706));
#402 = CARTESIAN_POINT('',(590.86305,-53.12041,129.366545));
#403 = CARTESIAN_POINT('',(596.02205,-53.751815,130.367865));
#404 = CARTESIAN_POINT('',(532.0298,-58.007875,103.830675));
#405 = CARTESIAN_POINT('',(537.22815,-56.06655,108.023125));
#406 = CARTESIAN_POINT('',(542.51355,-54.36204,111.9417));
#407 = CARTESIAN_POINT('',(547.8974,-52.911175,115.570685));
#408 = CARTESIAN_POINT('',(553.28235,-51.685295,118.90977));
#409 = CARTESIAN_POINT('',(558.9144,-50.790895,121.91878));
#410 = CARTESIAN_POINT('',(564.30595,-50.043295,124.645805));
#411 = CARTESIAN_POINT('',(570.13615,-49.713995,127.00636));
#412 = CARTESIAN_POINT('',(575.6899,-49.528746,129.07567));
#413 = CARTESIAN_POINT('',(581.4855,-49.692707,130.791615));
#414 = CARTESIAN_POINT('',(587.29655,-50.120465,132.17673));
#415 = CARTESIAN_POINT('',(593.1257,-50.81508,133.22883));
#416 = CARTESIAN_POINT('',(522.08525,-55.96263,104.303995));
#417 = CARTESIAN_POINT('',(527.918,-53.79765,108.892525));
#418 = CARTESIAN_POINT('',(533.85385,-51.896645,113.178045));
#419 = CARTESIAN_POINT('',(539.8418,-50.25435,117.15022));
#420 = CARTESIAN_POINT('',(546.0481,-48.9410495,120.779355));
#421 = CARTESIAN_POINT('',(551.996,-47.7969115,124.100015));
#422 = CARTESIAN_POINT('',(558.58305,-47.1492395,127.014885));
#423 = CARTESIAN_POINT('',(564.5441,-46.552585,129.64183));
#424 = CARTESIAN_POINT('',(571.1778,-46.476327,131.844545));
#425 = CARTESIAN_POINT('',(577.5186,-46.5788095,133.716305));
#426 = CARTESIAN_POINT('',(583.97475,-47.0083435,135.212755));
#427 = CARTESIAN_POINT('',(590.51905,-47.757649,136.33446));
#428 = CARTESIAN_POINT('',(512.13955,-53.968635,104.79309));
#429 = CARTESIAN_POINT('',(518.5819,-51.546335,109.80288));
#430 = CARTESIAN_POINT('',(525.12975,-49.410099,114.48207));
#431 = CARTESIAN_POINT('',(531.7894,-47.576442,118.812945));
#432 = CARTESIAN_POINT('',(538.47685,-46.0276265,122.789535));
#433 = CARTESIAN_POINT('',(545.3962,-44.8468135,126.37756));
#434 = CARTESIAN_POINT('',(552.1425,-43.8981805,129.609425));
#435 = CARTESIAN_POINT('',(559.2695,-43.385508,132.418365));
#436 = CARTESIAN_POINT('',(566.202,-43.1100625,134.85817));
#437 = CARTESIAN_POINT('',(573.34595,-43.2194265,136.88166));
#438 = CARTESIAN_POINT('',(580.5241,-43.654205,138.50389));
#439 = CARTESIAN_POINT('',(587.73135,-44.414543,139.723265));
#440 = CARTESIAN_POINT('',(502.17505,-52.019095,105.30032));
#441 = CARTESIAN_POINT('',(509.27085,-49.331874,110.74802));
#442 = CARTESIAN_POINT('',(516.48315,-46.9559135,115.836605));
#443 = CARTESIAN_POINT('',(523.79915,-44.9021815,120.548855));
#444 = CARTESIAN_POINT('',(531.2132,-43.1819175,124.86927));
#445 = CARTESIAN_POINT('',(538.71425,-41.802396,128.785335));
#446 = CARTESIAN_POINT('',(546.30385,-40.773341,132.28552));
#447 = CARTESIAN_POINT('',(553.97505,-40.0997685,135.361395));
#448 = CARTESIAN_POINT('',(561.7178,-39.7838925,138.006945));
#449 = CARTESIAN_POINT('',(569.53695,-39.831807,140.216405));
#450 = CARTESIAN_POINT('',(577.4154,-40.2407445,141.9879));
#451 = CARTESIAN_POINT('',(585.3472,-41.0107945,143.31979));
#452 = CARTESIAN_POINT('',(492.204775,-50.118275,105.824885));
#453 = CARTESIAN_POINT('',(499.949145,-47.1423735,111.730655));
#454 = CARTESIAN_POINT('',(507.819,-44.502276,117.248955));
#455 = CARTESIAN_POINT('',(515.8013,-42.209978,122.3612));
#456 = CARTESIAN_POINT('',(523.88715,-40.2766675,127.05095));
#457 = CARTESIAN_POINT('',(532.07045,-38.7122115,131.304065));
#458 = CARTESIAN_POINT('',(540.34625,-37.524811,135.108805));
#459 = CARTESIAN_POINT('',(548.70975,-36.7207975,138.455795));
#460 = CARTESIAN_POINT('',(557.1556,-36.304552,141.337925));
#461 = CARTESIAN_POINT('',(565.6773,-36.2785285,143.75021));
#462 = CARTESIAN_POINT('',(574.2668,-36.643359,145.68955));
#463 = CARTESIAN_POINT('',(582.9145,-37.398023,147.15452));
#464 = DEFINITIONAL_REPRESENTATION('',(#465),#468);
#465 = B_SPLINE_CURVE_WITH_KNOTS('',1,(#466,#467),.UNSPECIFIED.,.F.,.F.,
  (2,2),(0.,1.),.PIECEWISE_BEZIER_KNOTS.);
#466 = CARTESIAN_POINT('',(0.97618952,2.3810476E-02));
#467 = CARTESIAN_POINT('',(2.3810476E-02,2.3810476E-02));
#468 = ( GEOMETRIC_REPRESENTATION_CONTEXT(2) 
PARAMETRIC_REPRESENTATION_CONTEXT() REPRESENTATION_CONTEXT('2D SPACE',''
  ) );
#469 = ORIENTED_EDGE('',*,*,#470,.T.);
#470 = EDGE_CURVE('',#268,#471,#473,.T.);
#471 = VERTEX_POINT('',#472);
#472 = CARTESIAN_POINT('',(627.4689,-80.022985,90.));
#473 = SURFACE_CURVE('',#474,(#477),.PCURVE_S1.);
#474 = B_SPLINE_CURVE_WITH_KNOTS('',1,(#475,#476),.UNSPECIFIED.,.F.,.F.,
  (2,2),(0.,1.),.PIECEWISE_BEZIER_KNOTS.);
#475 = CARTESIAN_POINT('',(627.4689,-80.022985,100.48458));
#476 = CARTESIAN_POINT('',(627.4689,-80.022985,90.));
#477 = PCURVE('',#211,#478);
#478 = DEFINITIONAL_REPRESENTATION('',(#479),#482);
#479 = B_SPLINE_CURVE_WITH_KNOTS('',1,(#480,#481),.UNSPECIFIED.,.F.,.F.,
  (2,2),(0.,1.),.PIECEWISE_BEZIER_KNOTS.);
#480 = CARTESIAN_POINT('',(0.97618952,2.3810476E-02));
#481 = CARTESIAN_POINT('',(0.97618952,0.97618952));
#482 = ( GEOMETRIC_REPRESENTATION_CONTEXT(2) 
PARAMETRIC_REPRESENTATION_CONTEXT() REPRESENTATION_CONTEXT('2D SPACE',''
  ) );
#483 = ORIENTED_EDGE('',*,*,#484,.F.);
#484 = EDGE_CURVE('',#198,#471,#485,.T.);
#485 = SURFACE_CURVE('',#486,(#491),.PCURVE_S1.);
#486 = B_SPLINE_CURVE_WITH_KNOTS('',3,(#487,#488,#489,#490),
  .UNSPECIFIED.,.F.,.F.,(4,4),(0.,1.),.PIECEWISE_BEZIER_KNOTS.);
#487 = CARTESIAN_POINT('',(497.50351,-50.010115,90.));
#488 = CARTESIAN_POINT('',(541.04995,-58.84932,90.));
#489 = CARTESIAN_POINT('',(584.3989,-68.857835,90.));
#490 = CARTESIAN_POINT('',(627.4689,-80.022985,90.));
#491 = PCURVE('',#211,#492);
#492 = DEFINITIONAL_REPRESENTATION('',(#493),#496);
#493 = B_SPLINE_CURVE_WITH_KNOTS('',1,(#494,#495),.UNSPECIFIED.,.F.,.F.,
  (2,2),(0.,1.),.PIECEWISE_BEZIER_KNOTS.);
#494 = CARTESIAN_POINT('',(2.3810476E-02,0.97618952));
#495 = CARTESIAN_POINT('',(0.97618952,0.97618952));
#496 = ( GEOMETRIC_REPRESENTATION_CONTEXT(2) 
PARAMETRIC_REPRESENTATION_CONTEXT() REPRESENTATION_CONTEXT('2D SPACE',''
  ) );
#497 = ADVANCED_FACE('',(#498),#70,.T.);
#498 = FACE_BOUND('',#499,.T.);
#499 = EDGE_LOOP('',(#500,#501,#519,#545,#572));
#500 = ORIENTED_EDGE('',*,*,#52,.F.);
#501 = ORIENTED_EDGE('',*,*,#502,.T.);
#502 = EDGE_CURVE('',#22,#503,#505,.T.);
#503 = VERTEX_POINT('',#504);
#504 = CARTESIAN_POINT('',(518.54455,86.43454,174.550665));
#505 = SURFACE_CURVE('',#506,(#511),.PCURVE_S1.);
#506 = B_SPLINE_CURVE_WITH_KNOTS('',3,(#507,#508,#509,#510),
  .UNSPECIFIED.,.F.,.F.,(4,4),(0.,1.),.PIECEWISE_BEZIER_KNOTS.);
#507 = CARTESIAN_POINT('',(488.41082,106.161175,168.453295));
#508 = CARTESIAN_POINT('',(498.174405,98.88206,170.67896));
#509 = CARTESIAN_POINT('',(508.24595,92.26182,172.724495));
#510 = CARTESIAN_POINT('',(518.54455,86.43454,174.550665));
#511 = PCURVE('',#70,#512);
#512 = DEFINITIONAL_REPRESENTATION('',(#513),#518);
#513 = B_SPLINE_CURVE_WITH_KNOTS('',3,(#514,#515,#516,#517),
  .UNSPECIFIED.,.F.,.F.,(4,4),(0.,1.),.PIECEWISE_BEZIER_KNOTS.);
#514 = CARTESIAN_POINT('',(0.97618764,0.97618933));
#515 = CARTESIAN_POINT('',(0.86578497,0.94633041));
#516 = CARTESIAN_POINT('',(0.75503978,0.91835584));
#517 = CARTESIAN_POINT('',(0.64369944,0.89363739));
#518 = ( GEOMETRIC_REPRESENTATION_CONTEXT(2) 
PARAMETRIC_REPRESENTATION_CONTEXT() REPRESENTATION_CONTEXT('2D SPACE',''
  ) );
#519 = ORIENTED_EDGE('',*,*,#520,.T.);
#520 = EDGE_CURVE('',#503,#521,#523,.T.);
#521 = VERTEX_POINT('',#522);
#522 = CARTESIAN_POINT('',(557.8192,31.2301805,161.420185));
#523 = SURFACE_CURVE('',#524,(#530),.PCURVE_S1.);
#524 = B_SPLINE_CURVE_WITH_KNOTS('',4,(#525,#526,#527,#528,#529),
  .UNSPECIFIED.,.F.,.F.,(5,5),(0.,1.),.PIECEWISE_BEZIER_KNOTS.);
#525 = CARTESIAN_POINT('',(518.54455,86.43454,174.550665));
#526 = CARTESIAN_POINT('',(529.48795,72.42297,171.1934));
#527 = CARTESIAN_POINT('',(539.8107,58.656865,167.90636));
#528 = CARTESIAN_POINT('',(549.4207,44.9609745,164.65206));
#529 = CARTESIAN_POINT('',(557.8192,31.2301805,161.420185));
#530 = PCURVE('',#70,#531);
#531 = DEFINITIONAL_REPRESENTATION('',(#532),#544);
#532 = B_SPLINE_CURVE_WITH_KNOTS('',10,(#533,#534,#535,#536,#537,#538,
    #539,#540,#541,#542,#543),.UNSPECIFIED.,.F.,.F.,(11,11),(0.,1.),
  .PIECEWISE_BEZIER_KNOTS.);
#533 = CARTESIAN_POINT('',(0.64369944,0.89363739));
#534 = CARTESIAN_POINT('',(0.60352092,0.86344392));
#535 = CARTESIAN_POINT('',(0.56403154,0.83327948));
#536 = CARTESIAN_POINT('',(0.52522467,0.80315053));
#537 = CARTESIAN_POINT('',(0.48711003,0.77306163));
#538 = CARTESIAN_POINT('',(0.44971775,0.74301432));
#539 = CARTESIAN_POINT('',(0.41309973,0.71300668));
#540 = CARTESIAN_POINT('',(0.3773278,0.68303435));
#541 = CARTESIAN_POINT('',(0.34249924,0.65309031));
#542 = CARTESIAN_POINT('',(0.30874771,0.62316267));
#543 = CARTESIAN_POINT('',(0.27625208,0.59323179));
#544 = ( GEOMETRIC_REPRESENTATION_CONTEXT(2) 
PARAMETRIC_REPRESENTATION_CONTEXT() REPRESENTATION_CONTEXT('2D SPACE',''
  ) );
#545 = ORIENTED_EDGE('',*,*,#546,.T.);
#546 = EDGE_CURVE('',#521,#547,#549,.T.);
#547 = VERTEX_POINT('',#548);
#548 = CARTESIAN_POINT('',(581.5239,-38.405228,145.50165));
#549 = SURFACE_CURVE('',#550,(#557),.PCURVE_S1.);
#550 = B_SPLINE_CURVE_WITH_KNOTS('',5,(#551,#552,#553,#554,#555,#556),
  .UNSPECIFIED.,.F.,.F.,(6,6),(0.,1.),.PIECEWISE_BEZIER_KNOTS.);
#551 = CARTESIAN_POINT('',(557.8192,31.2301805,161.420185));
#552 = CARTESIAN_POINT('',(566.18675,17.550091,158.20025));
#553 = CARTESIAN_POINT('',(573.38715,3.83486535,155.00277));
#554 = CARTESIAN_POINT('',(579.1336,-9.9872045,151.816275));
#555 = CARTESIAN_POINT('',(582.00005,-24.033931,148.6529));
#556 = CARTESIAN_POINT('',(581.5239,-38.405228,145.50165));
#557 = PCURVE('',#70,#558);
#558 = DEFINITIONAL_REPRESENTATION('',(#559),#571);
#559 = B_SPLINE_CURVE_WITH_KNOTS('',10,(#560,#561,#562,#563,#564,#565,
    #566,#567,#568,#569,#570),.UNSPECIFIED.,.F.,.F.,(11,11),(0.,1.),
  .PIECEWISE_BEZIER_KNOTS.);
#560 = CARTESIAN_POINT('',(0.27625208,0.59323179));
#561 = CARTESIAN_POINT('',(0.2357816,0.55595548));
#562 = CARTESIAN_POINT('',(0.19725908,0.51867413));
#563 = CARTESIAN_POINT('',(0.16103002,0.48134976));
#564 = CARTESIAN_POINT('',(0.12754868,0.44392563));
#565 = CARTESIAN_POINT('',(9.7404474E-02,0.40631735));
#566 = CARTESIAN_POINT('',(7.1340701E-02,0.36840082));
#567 = CARTESIAN_POINT('',(5.0230939E-02,0.33000182));
#568 = CARTESIAN_POINT('',(3.4947657E-02,0.29090149));
#569 = CARTESIAN_POINT('',(2.6079713E-02,0.25087791));
#570 = CARTESIAN_POINT('',(2.3812361E-02,0.20975384));
#571 = ( GEOMETRIC_REPRESENTATION_CONTEXT(2) 
PARAMETRIC_REPRESENTATION_CONTEXT() REPRESENTATION_CONTEXT('2D SPACE',''
  ) );
#572 = ORIENTED_EDGE('',*,*,#573,.F.);
#573 = EDGE_CURVE('',#53,#547,#574,.T.);
#574 = SURFACE_CURVE('',#575,(#582,#594),.PCURVE_S1.);
#575 = B_SPLINE_CURVE_WITH_KNOTS('',5,(#576,#577,#578,#579,#580,#581),
  .UNSPECIFIED.,.F.,.F.,(6,6),(0.,1.),.PIECEWISE_BEZIER_KNOTS.);
#576 = CARTESIAN_POINT('',(497.50351,-50.010115,107.14618));
#577 = CARTESIAN_POINT('',(513.33715,-44.138192,119.01281));
#578 = CARTESIAN_POINT('',(529.76675,-39.9121905,128.97503));
#579 = CARTESIAN_POINT('',(546.6329,-37.5025075,136.776285));
#580 = CARTESIAN_POINT('',(563.9337,-37.0054165,142.29224));
#581 = CARTESIAN_POINT('',(581.5239,-38.405228,145.50165));
#582 = PCURVE('',#70,#583);
#583 = DEFINITIONAL_REPRESENTATION('',(#584),#593);
#584 = B_SPLINE_CURVE_WITH_KNOTS('',7,(#585,#586,#587,#588,#589,#590,
    #591,#592),.UNSPECIFIED.,.F.,.F.,(8,8),(0.,1.),
  .PIECEWISE_BEZIER_KNOTS.);
#585 = CARTESIAN_POINT('',(0.97618764,2.3810667E-02));
#586 = CARTESIAN_POINT('',(0.83871376,6.579394E-02));
#587 = CARTESIAN_POINT('',(0.70206401,0.10376944));
#588 = CARTESIAN_POINT('',(0.56613248,0.13675748));
#589 = CARTESIAN_POINT('',(0.43066647,0.16403079));
#590 = CARTESIAN_POINT('',(0.2953452,0.18524495));
#591 = CARTESIAN_POINT('',(0.15983321,0.2004005));
#592 = CARTESIAN_POINT('',(2.3812361E-02,0.20975384));
#593 = ( GEOMETRIC_REPRESENTATION_CONTEXT(2) 
PARAMETRIC_REPRESENTATION_CONTEXT() REPRESENTATION_CONTEXT('2D SPACE',''
  ) );
#594 = PCURVE('',#283,#595);
#595 = DEFINITIONAL_REPRESENTATION('',(#596),#599);
#596 = B_SPLINE_CURVE_WITH_KNOTS('',1,(#597,#598),.UNSPECIFIED.,.F.,.F.,
  (2,2),(0.,1.),.PIECEWISE_BEZIER_KNOTS.);
#597 = CARTESIAN_POINT('',(0.97618952,2.3810476E-02));
#598 = CARTESIAN_POINT('',(0.97618952,0.97618952));
#599 = ( GEOMETRIC_REPRESENTATION_CONTEXT(2) 
PARAMETRIC_REPRESENTATION_CONTEXT() REPRESENTATION_CONTEXT('2D SPACE',''
  ) );
#600 = ADVANCED_FACE('',(#601),#283,.T.);
#601 = FACE_BOUND('',#602,.T.);
#602 = EDGE_LOOP('',(#603,#617,#618,#619));
#603 = ORIENTED_EDGE('',*,*,#604,.F.);
#604 = EDGE_CURVE('',#268,#605,#607,.T.);
#605 = VERTEX_POINT('',#606);
#606 = CARTESIAN_POINT('',(627.4689,-71.283735,117.105205));
#607 = SURFACE_CURVE('',#608,(#611),.PCURVE_S1.);
#608 = B_SPLINE_CURVE_WITH_KNOTS('',1,(#609,#610),.UNSPECIFIED.,.F.,.F.,
  (2,2),(0.,1.),.PIECEWISE_BEZIER_KNOTS.);
#609 = CARTESIAN_POINT('',(627.4689,-80.022985,100.48458));
#610 = CARTESIAN_POINT('',(627.4689,-71.283735,117.105205));
#611 = PCURVE('',#283,#612);
#612 = DEFINITIONAL_REPRESENTATION('',(#613),#616);
#613 = B_SPLINE_CURVE_WITH_KNOTS('',1,(#614,#615),.UNSPECIFIED.,.F.,.F.,
  (2,2),(0.,1.),.PIECEWISE_BEZIER_KNOTS.);
#614 = CARTESIAN_POINT('',(2.3810476E-02,2.3810476E-02));
#615 = CARTESIAN_POINT('',(2.3810476E-02,0.97618952));
#616 = ( GEOMETRIC_REPRESENTATION_CONTEXT(2) 
PARAMETRIC_REPRESENTATION_CONTEXT() REPRESENTATION_CONTEXT('2D SPACE',''
  ) );
#617 = ORIENTED_EDGE('',*,*,#267,.F.);
#618 = ORIENTED_EDGE('',*,*,#573,.T.);
#619 = ORIENTED_EDGE('',*,*,#620,.F.);
#620 = EDGE_CURVE('',#605,#547,#621,.T.);
#621 = SURFACE_CURVE('',#622,(#629),.PCURVE_S1.);
#622 = B_SPLINE_CURVE_WITH_KNOTS('',5,(#623,#624,#625,#626,#627,#628),
  .UNSPECIFIED.,.F.,.F.,(6,6),(0.,1.),.PIECEWISE_BEZIER_KNOTS.);
#623 = CARTESIAN_POINT('',(627.4689,-71.283735,117.105205));
#624 = CARTESIAN_POINT('',(616.5379,-68.03893,118.098515));
#625 = CARTESIAN_POINT('',(605.78455,-62.85795,121.581855));
#626 = CARTESIAN_POINT('',(596.2193,-56.031785,127.467085));
#627 = CARTESIAN_POINT('',(588.50565,-47.869388,135.562155));
#628 = CARTESIAN_POINT('',(581.5239,-38.405228,145.50165));
#629 = PCURVE('',#283,#630);
#630 = DEFINITIONAL_REPRESENTATION('',(#631),#634);
#631 = B_SPLINE_CURVE_WITH_KNOTS('',1,(#632,#633),.UNSPECIFIED.,.F.,.F.,
  (2,2),(0.,1.),.PIECEWISE_BEZIER_KNOTS.);
#632 = CARTESIAN_POINT('',(2.3810476E-02,0.97618952));
#633 = CARTESIAN_POINT('',(0.97618952,0.97618952));
#634 = ( GEOMETRIC_REPRESENTATION_CONTEXT(2) 
PARAMETRIC_REPRESENTATION_CONTEXT() REPRESENTATION_CONTEXT('2D SPACE',''
  ) );
#635 = ( GEOMETRIC_REPRESENTATION_CONTEXT(3) 
GLOBAL_UNCERTAINTY_ASSIGNED_CONTEXT((#639)) GLOBAL_UNIT_ASSIGNED_CONTEXT
((#636,#637,#638)) REPRESENTATION_CONTEXT('Context #1',
  '3D Context with UNIT and UNCERTAINTY') );
#636 = ( LENGTH_UNIT() NAMED_UNIT(*) SI_UNIT(.MILLI.,.METRE.) );
#637 = ( NAMED_UNIT(*) PLANE_ANGLE_UNIT() SI_UNIT($,.RADIAN.) );
#638 = ( NAMED_UNIT(*) SI_UNIT($,.STERADIAN.) SOLID_ANGLE_UNIT() );
#639 = UNCERTAINTY_MEASURE_WITH_UNIT(LENGTH_MEASURE(5.E-03),#636,
  'distance_accuracy_value','confusion accuracy');
#640 = PRODUCT_RELATED_PRODUCT_CATEGORY('part',$,(#7));
ENDSEC;
END-ISO-10303-21;
