ISO-10303-21;
HEADER;
FILE_DESCRIPTION(('Open CASCADE Model'),'2;1');
FILE_NAME('Open CASCADE Shape Model','2026-07-11T20:16:08',('Author'),(
    'Open CASCADE'),'Open CASCADE STEP processor 8.0','Open CASCADE 8.0'
  ,'Unknown');
FILE_SCHEMA(('AUTOMOTIVE_DESIGN { 1 0 10303 214 1 1 1 1 }'));
ENDSEC;
DATA;
#1 = APPLICATION_PROTOCOL_DEFINITION('international standard',
  'automotive_design',2000,#2);
#2 = APPLICATION_CONTEXT(
  'core data for automotive mechanical design processes');
#3 = SHAPE_DEFINITION_REPRESENTATION(#4,#10);
#4 = PRODUCT_DEFINITION_SHAPE('','',#5);
#5 = PRODUCT_DEFINITION('design','',#6,#9);
#6 = PRODUCT_DEFINITION_FORMATION('','',#7);
#7 = PRODUCT('Open CASCADE STEP translator 8.0 1',
  'Open CASCADE STEP translator 8.0 1','',(#8));
#8 = PRODUCT_CONTEXT('',#2,'mechanical');
#9 = PRODUCT_DEFINITION_CONTEXT('part definition',#2,'design');
#10 = MANIFOLD_SURFACE_SHAPE_REPRESENTATION('',(#11,#15),#1013);
#11 = AXIS2_PLACEMENT_3D('',#12,#13,#14);
#12 = CARTESIAN_POINT('',(0.,0.,0.));
#13 = DIRECTION('',(0.,0.,1.));
#14 = DIRECTION('',(1.,0.,-0.));
#15 = SHELL_BASED_SURFACE_MODEL('',(#16));
#16 = OPEN_SHELL('',(#17,#264,#353,#512,#671,#760,#849,#985));
#17 = ADVANCED_FACE('',(#18),#43,.T.);
#18 = FACE_BOUND('',#19,.T.);
#19 = EDGE_LOOP('',(#20,#124,#180,#223,#246));
#20 = ORIENTED_EDGE('',*,*,#21,.T.);
#21 = EDGE_CURVE('',#22,#24,#26,.T.);
#22 = VERTEX_POINT('',#23);
#23 = CARTESIAN_POINT('',(50.,-4.1650711E-15,-30.));
#24 = VERTEX_POINT('',#25);
#25 = CARTESIAN_POINT('',(20.000501,29.999499,0.12100918));
#26 = SURFACE_CURVE('',#27,(#42,#83),.PCURVE_S1.);
#27 = B_SPLINE_CURVE_WITH_KNOTS('',13,(#28,#29,#30,#31,#32,#33,#34,#35,
    #36,#37,#38,#39,#40,#41),.UNSPECIFIED.,.F.,.F.,(14,14),(0.,1.),
  .PIECEWISE_BEZIER_KNOTS.);
#28 = CARTESIAN_POINT('',(50.,-4.1650711E-15,-30.));
#29 = CARTESIAN_POINT('',(41.687907,8.3120926,-29.993417));
#30 = CARTESIAN_POINT('',(35.688408,14.311592,-27.541632));
#31 = CARTESIAN_POINT('',(31.226833,18.773167,-24.683735));
#32 = CARTESIAN_POINT('',(27.936327,22.063673,-21.583277));
#33 = CARTESIAN_POINT('',(25.520148,24.479852,-18.526777));
#34 = CARTESIAN_POINT('',(23.749197,26.250803,-15.637983));
#35 = CARTESIAN_POINT('',(22.458249,27.541751,-12.948945));
#36 = CARTESIAN_POINT('',(21.5271,28.4729,-10.458415));
#37 = CARTESIAN_POINT('',(20.867247,29.132753,-8.1465233));
#38 = CARTESIAN_POINT('',(20.415466,29.584534,-5.9788813));
#39 = CARTESIAN_POINT('',(20.130682,29.869318,-3.9112076));
#40 = CARTESIAN_POINT('',(19.992374,30.007626,-1.8942949));
#41 = CARTESIAN_POINT('',(20.000501,29.999499,0.12100918));
#42 = PCURVE('',#43,#66);
#43 = B_SPLINE_SURFACE_WITH_KNOTS('',10,1,(
    (#44,#45)
    ,(#46,#47)
    ,(#48,#49)
    ,(#50,#51)
    ,(#52,#53)
    ,(#54,#55)
    ,(#56,#57)
    ,(#58,#59)
    ,(#60,#61)
    ,(#62,#63)
    ,(#64,#65)),.UNSPECIFIED.,.F.,.F.,.F.,(11,11),(2,2),(0.,1.),(0.,1.),
  .PIECEWISE_BEZIER_KNOTS.);
#44 = CARTESIAN_POINT('',(50.,-50.,-30.));
#45 = CARTESIAN_POINT('',(50.,50.,-30.));
#46 = CARTESIAN_POINT('',(40.575222,-50.,-30.));
#47 = CARTESIAN_POINT('',(40.575222,50.,-30.));
#48 = CARTESIAN_POINT('',(31.150444,-50.,-26.710132));
#49 = CARTESIAN_POINT('',(31.150444,50.,-26.710132));
#50 = CARTESIAN_POINT('',(23.017594,-50.,-20.130396));
#51 = CARTESIAN_POINT('',(23.017594,50.,-20.130396));
#52 = CARTESIAN_POINT('',(17.468601,-50.,-10.840607));
#53 = CARTESIAN_POINT('',(17.468601,50.,-10.840607));
#54 = CARTESIAN_POINT('',(15.491801,-50.,-3.5527137E-15));
#55 = CARTESIAN_POINT('',(15.491801,50.,-3.5527137E-15));
#56 = CARTESIAN_POINT('',(17.468601,-50.,10.840607));
#57 = CARTESIAN_POINT('',(17.468601,50.,10.840607));
#58 = CARTESIAN_POINT('',(23.017594,-50.,20.130396));
#59 = CARTESIAN_POINT('',(23.017594,50.,20.130396));
#60 = CARTESIAN_POINT('',(31.150444,-50.,26.710132));
#61 = CARTESIAN_POINT('',(31.150444,50.,26.710132));
#62 = CARTESIAN_POINT('',(40.575222,-50.,30.));
#63 = CARTESIAN_POINT('',(40.575222,50.,30.));
#64 = CARTESIAN_POINT('',(50.,-50.,30.));
#65 = CARTESIAN_POINT('',(50.,50.,30.));
#66 = DEFINITIONAL_REPRESENTATION('',(#67),#82);
#67 = B_SPLINE_CURVE_WITH_KNOTS('',13,(#68,#69,#70,#71,#72,#73,#74,#75,
    #76,#77,#78,#79,#80,#81),.UNSPECIFIED.,.F.,.F.,(14,14),(0.,1.),
  .PIECEWISE_BEZIER_KNOTS.);
#68 = CARTESIAN_POINT('',(-8.3266727E-17,0.5));
#69 = CARTESIAN_POINT('',(8.8175134E-02,0.58312093));
#70 = CARTESIAN_POINT('',(0.15200976,0.64311592));
#71 = CARTESIAN_POINT('',(0.20719821,0.68773167));
#72 = CARTESIAN_POINT('',(0.25332284,0.72063673));
#73 = CARTESIAN_POINT('',(0.29335819,0.74479852));
#74 = CARTESIAN_POINT('',(0.32867406,0.76250803));
#75 = CARTESIAN_POINT('',(0.35994378,0.77541751));
#76 = CARTESIAN_POINT('',(0.38784986,0.784729));
#77 = CARTESIAN_POINT('',(0.41311876,0.79132753));
#78 = CARTESIAN_POINT('',(0.43644797,0.79584534));
#79 = CARTESIAN_POINT('',(0.4584944,0.79869318));
#80 = CARTESIAN_POINT('',(0.47989439,0.80007626));
#81 = CARTESIAN_POINT('',(0.50128377,0.79999499));
#82 = ( GEOMETRIC_REPRESENTATION_CONTEXT(2) 
PARAMETRIC_REPRESENTATION_CONTEXT() REPRESENTATION_CONTEXT('2D SPACE',''
  ) );
#83 = PCURVE('',#84,#107);
#84 = B_SPLINE_SURFACE_WITH_KNOTS('',10,1,(
    (#85,#86)
    ,(#87,#88)
    ,(#89,#90)
    ,(#91,#92)
    ,(#93,#94)
    ,(#95,#96)
    ,(#97,#98)
    ,(#99,#100)
    ,(#101,#102)
    ,(#103,#104)
    ,(#105,#106
    )),.UNSPECIFIED.,.F.,.F.,.F.,(11,11),(2,2),(0.,1.),(0.,1.),
  .PIECEWISE_BEZIER_KNOTS.);
#85 = CARTESIAN_POINT('',(0.,0.,-30.));
#86 = CARTESIAN_POINT('',(100.,0.,-30.));
#87 = CARTESIAN_POINT('',(0.,9.424778,-30.));
#88 = CARTESIAN_POINT('',(100.,9.424778,-30.));
#89 = CARTESIAN_POINT('',(0.,18.849556,-26.710132));
#90 = CARTESIAN_POINT('',(100.,18.849556,-26.710132));
#91 = CARTESIAN_POINT('',(0.,26.982406,-20.130396));
#92 = CARTESIAN_POINT('',(100.,26.982406,-20.130396));
#93 = CARTESIAN_POINT('',(0.,32.531399,-10.840607));
#94 = CARTESIAN_POINT('',(100.,32.531399,-10.840607));
#95 = CARTESIAN_POINT('',(0.,34.508199,1.7763568E-15));
#96 = CARTESIAN_POINT('',(100.,34.508199,1.7763568E-15));
#97 = CARTESIAN_POINT('',(0.,32.531399,10.840607));
#98 = CARTESIAN_POINT('',(100.,32.531399,10.840607));
#99 = CARTESIAN_POINT('',(0.,26.982406,20.130396));
#100 = CARTESIAN_POINT('',(100.,26.982406,20.130396));
#101 = CARTESIAN_POINT('',(0.,18.849556,26.710132));
#102 = CARTESIAN_POINT('',(100.,18.849556,26.710132));
#103 = CARTESIAN_POINT('',(0.,9.424778,30.));
#104 = CARTESIAN_POINT('',(100.,9.424778,30.));
#105 = CARTESIAN_POINT('',(0.,-3.5527137E-15,30.));
#106 = CARTESIAN_POINT('',(100.,-3.5527137E-15,30.));
#107 = DEFINITIONAL_REPRESENTATION('',(#108),#123);
#108 = B_SPLINE_CURVE_WITH_KNOTS('',13,(#109,#110,#111,#112,#113,#114,
    #115,#116,#117,#118,#119,#120,#121,#122),.UNSPECIFIED.,.F.,.F.,(14,
    14),(0.,1.),.PIECEWISE_BEZIER_KNOTS.);
#109 = CARTESIAN_POINT('',(1.3877788E-17,0.5));
#110 = CARTESIAN_POINT('',(8.8175134E-02,0.41687907));
#111 = CARTESIAN_POINT('',(0.15200976,0.35688408));
#112 = CARTESIAN_POINT('',(0.20719821,0.31226833));
#113 = CARTESIAN_POINT('',(0.25332284,0.27936327));
#114 = CARTESIAN_POINT('',(0.29335819,0.25520148));
#115 = CARTESIAN_POINT('',(0.32867406,0.23749197));
#116 = CARTESIAN_POINT('',(0.35994378,0.22458249));
#117 = CARTESIAN_POINT('',(0.38784986,0.215271));
#118 = CARTESIAN_POINT('',(0.41311876,0.20867247));
#119 = CARTESIAN_POINT('',(0.43644797,0.20415466));
#120 = CARTESIAN_POINT('',(0.4584944,0.20130682));
#121 = CARTESIAN_POINT('',(0.47989439,0.19992374));
#122 = CARTESIAN_POINT('',(0.50128377,0.20000501));
#123 = ( GEOMETRIC_REPRESENTATION_CONTEXT(2) 
PARAMETRIC_REPRESENTATION_CONTEXT() REPRESENTATION_CONTEXT('2D SPACE',''
  ) );
#124 = ORIENTED_EDGE('',*,*,#125,.T.);
#125 = EDGE_CURVE('',#24,#126,#128,.T.);
#126 = VERTEX_POINT('',#127);
#127 = CARTESIAN_POINT('',(50.,1.071365218763E-11,30.));
#128 = SURFACE_CURVE('',#129,(#144,#162),.PCURVE_S1.);
#129 = B_SPLINE_CURVE_WITH_KNOTS('',13,(#130,#131,#132,#133,#134,#135,
    #136,#137,#138,#139,#140,#141,#142,#143),.UNSPECIFIED.,.F.,.F.,(14,
    14),(0.,1.),.PIECEWISE_BEZIER_KNOTS.);
#130 = CARTESIAN_POINT('',(20.000501,29.999499,0.12100918));
#131 = CARTESIAN_POINT('',(20.008628,29.991372,2.1363133));
#132 = CARTESIAN_POINT('',(20.16319,29.83681,4.1500088));
#133 = CARTESIAN_POINT('',(20.464148,29.535852,6.2112482));
#134 = CARTESIAN_POINT('',(20.931945,29.068056,8.3691291));
#135 = CARTESIAN_POINT('',(21.607441,28.392559,10.667713));
#136 = CARTESIAN_POINT('',(22.553384,27.446617,13.141029));
#137 = CARTESIAN_POINT('',(23.857418,26.142582,15.80837));
#138 = CARTESIAN_POINT('',(25.638432,24.361568,18.670327));
#139 = CARTESIAN_POINT('',(28.059717,21.940284,21.694865));
#140 = CARTESIAN_POINT('',(31.347166,18.652834,24.759999));
#141 = CARTESIAN_POINT('',(35.792123,14.207877,27.581005));
#142 = CARTESIAN_POINT('',(41.756577,8.2434234,29.993731));
#143 = CARTESIAN_POINT('',(50.,1.0713208E-11,30.));
#144 = PCURVE('',#43,#145);
#145 = DEFINITIONAL_REPRESENTATION('',(#146),#161);
#146 = B_SPLINE_CURVE_WITH_KNOTS('',13,(#147,#148,#149,#150,#151,#152,
    #153,#154,#155,#156,#157,#158,#159,#160),.UNSPECIFIED.,.F.,.F.,(14,
    14),(0.,1.),.PIECEWISE_BEZIER_KNOTS.);
#147 = CARTESIAN_POINT('',(0.50128377,0.79999499));
#148 = CARTESIAN_POINT('',(0.52267316,0.79991372));
#149 = CARTESIAN_POINT('',(0.54405195,0.7983681));
#150 = CARTESIAN_POINT('',(0.566056,0.79535852));
#151 = CARTESIAN_POINT('',(0.58932071,0.79068056));
#152 = CARTESIAN_POINT('',(0.61450117,0.78392559));
#153 = CARTESIAN_POINT('',(0.64229264,0.77446617));
#154 = CARTESIAN_POINT('',(0.67342006,0.76142582));
#155 = CARTESIAN_POINT('',(0.70856463,0.74361568));
#156 = CARTESIAN_POINT('',(0.74839277,0.71940284));
#157 = CARTESIAN_POINT('',(0.79425348,0.68652834));
#158 = CARTESIAN_POINT('',(0.84910496,0.64207877));
#159 = CARTESIAN_POINT('',(0.91255062,0.58243423));
#160 = CARTESIAN_POINT('',(1.,0.5));
#161 = ( GEOMETRIC_REPRESENTATION_CONTEXT(2) 
PARAMETRIC_REPRESENTATION_CONTEXT() REPRESENTATION_CONTEXT('2D SPACE',''
  ) );
#162 = PCURVE('',#84,#163);
#163 = DEFINITIONAL_REPRESENTATION('',(#164),#179);
#164 = B_SPLINE_CURVE_WITH_KNOTS('',13,(#165,#166,#167,#168,#169,#170,
    #171,#172,#173,#174,#175,#176,#177,#178),.UNSPECIFIED.,.F.,.F.,(14,
    14),(0.,1.),.PIECEWISE_BEZIER_KNOTS.);
#165 = CARTESIAN_POINT('',(0.50128377,0.20000501));
#166 = CARTESIAN_POINT('',(0.52267316,0.20008628));
#167 = CARTESIAN_POINT('',(0.54405195,0.2016319));
#168 = CARTESIAN_POINT('',(0.566056,0.20464148));
#169 = CARTESIAN_POINT('',(0.58932071,0.20931944));
#170 = CARTESIAN_POINT('',(0.61450117,0.21607441));
#171 = CARTESIAN_POINT('',(0.64229264,0.22553383));
#172 = CARTESIAN_POINT('',(0.67342006,0.23857418));
#173 = CARTESIAN_POINT('',(0.70856463,0.25638432));
#174 = CARTESIAN_POINT('',(0.74839277,0.28059716));
#175 = CARTESIAN_POINT('',(0.79425348,0.31347166));
#176 = CARTESIAN_POINT('',(0.84910496,0.35792123));
#177 = CARTESIAN_POINT('',(0.91255062,0.41756577));
#178 = CARTESIAN_POINT('',(1.,0.5));
#179 = ( GEOMETRIC_REPRESENTATION_CONTEXT(2) 
PARAMETRIC_REPRESENTATION_CONTEXT() REPRESENTATION_CONTEXT('2D SPACE',''
  ) );
#180 = ORIENTED_EDGE('',*,*,#181,.T.);
#181 = EDGE_CURVE('',#126,#182,#184,.T.);
#182 = VERTEX_POINT('',#183);
#183 = CARTESIAN_POINT('',(50.,50.,30.));
#184 = SURFACE_CURVE('',#185,(#188,#194),.PCURVE_S1.);
#185 = B_SPLINE_CURVE_WITH_KNOTS('',1,(#186,#187),.UNSPECIFIED.,.F.,.F.,
  (2,2),(0.,1.),.PIECEWISE_BEZIER_KNOTS.);
#186 = CARTESIAN_POINT('',(50.,-6.1035621E-12,30.));
#187 = CARTESIAN_POINT('',(50.,50.,30.));
#188 = PCURVE('',#43,#189);
#189 = DEFINITIONAL_REPRESENTATION('',(#190),#193);
#190 = B_SPLINE_CURVE_WITH_KNOTS('',1,(#191,#192),.UNSPECIFIED.,.F.,.F.,
  (2,2),(0.,1.),.PIECEWISE_BEZIER_KNOTS.);
#191 = CARTESIAN_POINT('',(1.,0.5));
#192 = CARTESIAN_POINT('',(1.,1.));
#193 = ( GEOMETRIC_REPRESENTATION_CONTEXT(2) 
PARAMETRIC_REPRESENTATION_CONTEXT() REPRESENTATION_CONTEXT('2D SPACE',''
  ) );
#194 = PCURVE('',#195,#218);
#195 = B_SPLINE_SURFACE_WITH_KNOTS('',10,1,(
    (#196,#197)
    ,(#198,#199)
    ,(#200,#201)
    ,(#202,#203)
    ,(#204,#205)
    ,(#206,#207)
    ,(#208,#209)
    ,(#210,#211)
    ,(#212,#213)
    ,(#214,#215)
    ,(#216,#217
    )),.UNSPECIFIED.,.F.,.F.,.F.,(11,11),(2,2),(0.,1.),(0.,1.),
  .PIECEWISE_BEZIER_KNOTS.);
#196 = CARTESIAN_POINT('',(50.,-50.,30.));
#197 = CARTESIAN_POINT('',(50.,50.,30.));
#198 = CARTESIAN_POINT('',(59.424778,-50.,30.));
#199 = CARTESIAN_POINT('',(59.424778,50.,30.));
#200 = CARTESIAN_POINT('',(68.849556,-50.,26.710132));
#201 = CARTESIAN_POINT('',(68.849556,50.,26.710132));
#202 = CARTESIAN_POINT('',(76.982406,-50.,20.130396));
#203 = CARTESIAN_POINT('',(76.982406,50.,20.130396));
#204 = CARTESIAN_POINT('',(82.531399,-50.,10.840607));
#205 = CARTESIAN_POINT('',(82.531399,50.,10.840607));
#206 = CARTESIAN_POINT('',(84.508199,-50.,-1.7763568E-15));
#207 = CARTESIAN_POINT('',(84.508199,50.,-1.7763568E-15));
#208 = CARTESIAN_POINT('',(82.531399,-50.,-10.840607));
#209 = CARTESIAN_POINT('',(82.531399,50.,-10.840607));
#210 = CARTESIAN_POINT('',(76.982406,-50.,-20.130396));
#211 = CARTESIAN_POINT('',(76.982406,50.,-20.130396));
#212 = CARTESIAN_POINT('',(68.849556,-50.,-26.710132));
#213 = CARTESIAN_POINT('',(68.849556,50.,-26.710132));
#214 = CARTESIAN_POINT('',(59.424778,-50.,-30.));
#215 = CARTESIAN_POINT('',(59.424778,50.,-30.));
#216 = CARTESIAN_POINT('',(50.,-50.,-30.));
#217 = CARTESIAN_POINT('',(50.,50.,-30.));
#218 = DEFINITIONAL_REPRESENTATION('',(#219),#222);
#219 = B_SPLINE_CURVE_WITH_KNOTS('',1,(#220,#221),.UNSPECIFIED.,.F.,.F.,
  (2,2),(0.,1.),.PIECEWISE_BEZIER_KNOTS.);
#220 = CARTESIAN_POINT('',(0.,0.5));
#221 = CARTESIAN_POINT('',(0.,1.));
#222 = ( GEOMETRIC_REPRESENTATION_CONTEXT(2) 
PARAMETRIC_REPRESENTATION_CONTEXT() REPRESENTATION_CONTEXT('2D SPACE',''
  ) );
#223 = ORIENTED_EDGE('',*,*,#224,.T.);
#224 = EDGE_CURVE('',#182,#225,#227,.T.);
#225 = VERTEX_POINT('',#226);
#226 = CARTESIAN_POINT('',(50.,50.,-30.));
#227 = SURFACE_CURVE('',#228,(#240),.PCURVE_S1.);
#228 = B_SPLINE_CURVE_WITH_KNOTS('',10,(#229,#230,#231,#232,#233,#234,
    #235,#236,#237,#238,#239),.UNSPECIFIED.,.F.,.F.,(11,11),(0.,1.),
  .PIECEWISE_BEZIER_KNOTS.);
#229 = CARTESIAN_POINT('',(50.,50.,30.));
#230 = CARTESIAN_POINT('',(40.575222,50.,30.));
#231 = CARTESIAN_POINT('',(31.150444,50.,26.710132));
#232 = CARTESIAN_POINT('',(23.017594,50.,20.130396));
#233 = CARTESIAN_POINT('',(17.468601,50.,10.840607));
#234 = CARTESIAN_POINT('',(15.491801,50.,1.9539925E-14));
#235 = CARTESIAN_POINT('',(17.468601,50.,-10.840607));
#236 = CARTESIAN_POINT('',(23.017594,50.,-20.130396));
#237 = CARTESIAN_POINT('',(31.150444,50.,-26.710132));
#238 = CARTESIAN_POINT('',(40.575222,50.,-30.));
#239 = CARTESIAN_POINT('',(50.,50.,-30.));
#240 = PCURVE('',#43,#241);
#241 = DEFINITIONAL_REPRESENTATION('',(#242),#245);
#242 = B_SPLINE_CURVE_WITH_KNOTS('',1,(#243,#244),.UNSPECIFIED.,.F.,.F.,
  (2,2),(0.,1.),.PIECEWISE_BEZIER_KNOTS.);
#243 = CARTESIAN_POINT('',(1.,1.));
#244 = CARTESIAN_POINT('',(0.,1.));
#245 = ( GEOMETRIC_REPRESENTATION_CONTEXT(2) 
PARAMETRIC_REPRESENTATION_CONTEXT() REPRESENTATION_CONTEXT('2D SPACE',''
  ) );
#246 = ORIENTED_EDGE('',*,*,#247,.T.);
#247 = EDGE_CURVE('',#225,#22,#248,.T.);
#248 = SURFACE_CURVE('',#249,(#252,#258),.PCURVE_S1.);
#249 = B_SPLINE_CURVE_WITH_KNOTS('',1,(#250,#251),.UNSPECIFIED.,.F.,.F.,
  (2,2),(0.,1.),.PIECEWISE_BEZIER_KNOTS.);
#250 = CARTESIAN_POINT('',(50.,50.,-30.));
#251 = CARTESIAN_POINT('',(50.,-1.4210855E-14,-30.));
#252 = PCURVE('',#43,#253);
#253 = DEFINITIONAL_REPRESENTATION('',(#254),#257);
#254 = B_SPLINE_CURVE_WITH_KNOTS('',1,(#255,#256),.UNSPECIFIED.,.F.,.F.,
  (2,2),(0.,1.),.PIECEWISE_BEZIER_KNOTS.);
#255 = CARTESIAN_POINT('',(0.,1.));
#256 = CARTESIAN_POINT('',(0.,0.5));
#257 = ( GEOMETRIC_REPRESENTATION_CONTEXT(2) 
PARAMETRIC_REPRESENTATION_CONTEXT() REPRESENTATION_CONTEXT('2D SPACE',''
  ) );
#258 = PCURVE('',#195,#259);
#259 = DEFINITIONAL_REPRESENTATION('',(#260),#263);
#260 = B_SPLINE_CURVE_WITH_KNOTS('',1,(#261,#262),.UNSPECIFIED.,.F.,.F.,
  (2,2),(0.,1.),.PIECEWISE_BEZIER_KNOTS.);
#261 = CARTESIAN_POINT('',(1.,1.));
#262 = CARTESIAN_POINT('',(1.,0.5));
#263 = ( GEOMETRIC_REPRESENTATION_CONTEXT(2) 
PARAMETRIC_REPRESENTATION_CONTEXT() REPRESENTATION_CONTEXT('2D SPACE',''
  ) );
#264 = ADVANCED_FACE('',(#265),#84,.T.);
#265 = FACE_BOUND('',#266,.T.);
#266 = EDGE_LOOP('',(#267,#310,#333,#351,#352));
#267 = ORIENTED_EDGE('',*,*,#268,.F.);
#268 = EDGE_CURVE('',#269,#22,#271,.T.);
#269 = VERTEX_POINT('',#270);
#270 = CARTESIAN_POINT('',(0.,3.1974423E-14,-30.));
#271 = SURFACE_CURVE('',#272,(#275,#281),.PCURVE_S1.);
#272 = B_SPLINE_CURVE_WITH_KNOTS('',1,(#273,#274),.UNSPECIFIED.,.F.,.F.,
  (2,2),(0.,1.),.PIECEWISE_BEZIER_KNOTS.);
#273 = CARTESIAN_POINT('',(0.,3.1974423E-14,-30.));
#274 = CARTESIAN_POINT('',(50.,3.1974423E-14,-30.));
#275 = PCURVE('',#84,#276);
#276 = DEFINITIONAL_REPRESENTATION('',(#277),#280);
#277 = B_SPLINE_CURVE_WITH_KNOTS('',1,(#278,#279),.UNSPECIFIED.,.F.,.F.,
  (2,2),(0.,1.),.PIECEWISE_BEZIER_KNOTS.);
#278 = CARTESIAN_POINT('',(0.,0.));
#279 = CARTESIAN_POINT('',(0.,0.5));
#280 = ( GEOMETRIC_REPRESENTATION_CONTEXT(2) 
PARAMETRIC_REPRESENTATION_CONTEXT() REPRESENTATION_CONTEXT('2D SPACE',''
  ) );
#281 = PCURVE('',#282,#305);
#282 = B_SPLINE_SURFACE_WITH_KNOTS('',10,1,(
    (#283,#284)
    ,(#285,#286)
    ,(#287,#288)
    ,(#289,#290)
    ,(#291,#292)
    ,(#293,#294)
    ,(#295,#296)
    ,(#297,#298)
    ,(#299,#300)
    ,(#301,#302)
    ,(#303,#304
    )),.UNSPECIFIED.,.F.,.F.,.F.,(11,11),(2,2),(0.,1.),(0.,1.),
  .PIECEWISE_BEZIER_KNOTS.);
#283 = CARTESIAN_POINT('',(0.,-1.0658141E-14,30.));
#284 = CARTESIAN_POINT('',(100.,-1.0658141E-14,30.));
#285 = CARTESIAN_POINT('',(0.,-9.424778,30.));
#286 = CARTESIAN_POINT('',(100.,-9.424778,30.));
#287 = CARTESIAN_POINT('',(0.,-18.849556,26.710132));
#288 = CARTESIAN_POINT('',(100.,-18.849556,26.710132));
#289 = CARTESIAN_POINT('',(0.,-26.982406,20.130396));
#290 = CARTESIAN_POINT('',(100.,-26.982406,20.130396));
#291 = CARTESIAN_POINT('',(0.,-32.531399,10.840607));
#292 = CARTESIAN_POINT('',(100.,-32.531399,10.840607));
#293 = CARTESIAN_POINT('',(0.,-34.508199,-1.0658141E-14));
#294 = CARTESIAN_POINT('',(100.,-34.508199,-1.0658141E-14));
#295 = CARTESIAN_POINT('',(0.,-32.531399,-10.840607));
#296 = CARTESIAN_POINT('',(100.,-32.531399,-10.840607));
#297 = CARTESIAN_POINT('',(0.,-26.982406,-20.130396));
#298 = CARTESIAN_POINT('',(100.,-26.982406,-20.130396));
#299 = CARTESIAN_POINT('',(0.,-18.849556,-26.710132));
#300 = CARTESIAN_POINT('',(100.,-18.849556,-26.710132));
#301 = CARTESIAN_POINT('',(0.,-9.424778,-30.));
#302 = CARTESIAN_POINT('',(100.,-9.424778,-30.));
#303 = CARTESIAN_POINT('',(0.,-3.5527137E-15,-30.));
#304 = CARTESIAN_POINT('',(100.,-3.5527137E-15,-30.));
#305 = DEFINITIONAL_REPRESENTATION('',(#306),#309);
#306 = B_SPLINE_CURVE_WITH_KNOTS('',1,(#307,#308),.UNSPECIFIED.,.F.,.F.,
  (2,2),(0.,1.),.PIECEWISE_BEZIER_KNOTS.);
#307 = CARTESIAN_POINT('',(1.,0.));
#308 = CARTESIAN_POINT('',(1.,0.5));
#309 = ( GEOMETRIC_REPRESENTATION_CONTEXT(2) 
PARAMETRIC_REPRESENTATION_CONTEXT() REPRESENTATION_CONTEXT('2D SPACE',''
  ) );
#310 = ORIENTED_EDGE('',*,*,#311,.F.);
#311 = EDGE_CURVE('',#312,#269,#314,.T.);
#312 = VERTEX_POINT('',#313);
#313 = CARTESIAN_POINT('',(0.,-1.0658141E-14,30.));
#314 = SURFACE_CURVE('',#315,(#327),.PCURVE_S1.);
#315 = B_SPLINE_CURVE_WITH_KNOTS('',10,(#316,#317,#318,#319,#320,#321,
    #322,#323,#324,#325,#326),.UNSPECIFIED.,.F.,.F.,(11,11),(0.,1.),
  .PIECEWISE_BEZIER_KNOTS.);
#316 = CARTESIAN_POINT('',(0.,-1.0658141E-14,30.));
#317 = CARTESIAN_POINT('',(0.,9.424778,30.));
#318 = CARTESIAN_POINT('',(0.,18.849556,26.710132));
#319 = CARTESIAN_POINT('',(0.,26.982406,20.130396));
#320 = CARTESIAN_POINT('',(0.,32.531399,10.840607));
#321 = CARTESIAN_POINT('',(0.,34.508199,1.5987212E-14));
#322 = CARTESIAN_POINT('',(0.,32.531399,-10.840607));
#323 = CARTESIAN_POINT('',(0.,26.982406,-20.130396));
#324 = CARTESIAN_POINT('',(0.,18.849556,-26.710132));
#325 = CARTESIAN_POINT('',(0.,9.424778,-30.));
#326 = CARTESIAN_POINT('',(0.,1.438849E-13,-30.));
#327 = PCURVE('',#84,#328);
#328 = DEFINITIONAL_REPRESENTATION('',(#329),#332);
#329 = B_SPLINE_CURVE_WITH_KNOTS('',1,(#330,#331),.UNSPECIFIED.,.F.,.F.,
  (2,2),(0.,1.),.PIECEWISE_BEZIER_KNOTS.);
#330 = CARTESIAN_POINT('',(1.,0.));
#331 = CARTESIAN_POINT('',(0.,0.));
#332 = ( GEOMETRIC_REPRESENTATION_CONTEXT(2) 
PARAMETRIC_REPRESENTATION_CONTEXT() REPRESENTATION_CONTEXT('2D SPACE',''
  ) );
#333 = ORIENTED_EDGE('',*,*,#334,.F.);
#334 = EDGE_CURVE('',#126,#312,#335,.T.);
#335 = SURFACE_CURVE('',#336,(#339,#345),.PCURVE_S1.);
#336 = B_SPLINE_CURVE_WITH_KNOTS('',1,(#337,#338),.UNSPECIFIED.,.F.,.F.,
  (2,2),(0.,1.),.PIECEWISE_BEZIER_KNOTS.);
#337 = CARTESIAN_POINT('',(50.,-1.4210855E-14,30.));
#338 = CARTESIAN_POINT('',(0.,-1.4210855E-14,30.));
#339 = PCURVE('',#84,#340);
#340 = DEFINITIONAL_REPRESENTATION('',(#341),#344);
#341 = B_SPLINE_CURVE_WITH_KNOTS('',1,(#342,#343),.UNSPECIFIED.,.F.,.F.,
  (2,2),(0.,1.),.PIECEWISE_BEZIER_KNOTS.);
#342 = CARTESIAN_POINT('',(1.,0.5));
#343 = CARTESIAN_POINT('',(1.,0.));
#344 = ( GEOMETRIC_REPRESENTATION_CONTEXT(2) 
PARAMETRIC_REPRESENTATION_CONTEXT() REPRESENTATION_CONTEXT('2D SPACE',''
  ) );
#345 = PCURVE('',#282,#346);
#346 = DEFINITIONAL_REPRESENTATION('',(#347),#350);
#347 = B_SPLINE_CURVE_WITH_KNOTS('',1,(#348,#349),.UNSPECIFIED.,.F.,.F.,
  (2,2),(0.,1.),.PIECEWISE_BEZIER_KNOTS.);
#348 = CARTESIAN_POINT('',(0.,0.5));
#349 = CARTESIAN_POINT('',(0.,0.));
#350 = ( GEOMETRIC_REPRESENTATION_CONTEXT(2) 
PARAMETRIC_REPRESENTATION_CONTEXT() REPRESENTATION_CONTEXT('2D SPACE',''
  ) );
#351 = ORIENTED_EDGE('',*,*,#125,.F.);
#352 = ORIENTED_EDGE('',*,*,#21,.F.);
#353 = ADVANCED_FACE('',(#354),#195,.T.);
#354 = FACE_BOUND('',#355,.T.);
#355 = EDGE_LOOP('',(#356,#357,#378,#379,#458));
#356 = ORIENTED_EDGE('',*,*,#247,.F.);
#357 = ORIENTED_EDGE('',*,*,#358,.F.);
#358 = EDGE_CURVE('',#182,#225,#359,.T.);
#359 = SURFACE_CURVE('',#360,(#372),.PCURVE_S1.);
#360 = B_SPLINE_CURVE_WITH_KNOTS('',10,(#361,#362,#363,#364,#365,#366,
    #367,#368,#369,#370,#371),.UNSPECIFIED.,.F.,.F.,(11,11),(0.,1.),
  .PIECEWISE_BEZIER_KNOTS.);
#361 = CARTESIAN_POINT('',(50.,50.,30.));
#362 = CARTESIAN_POINT('',(59.424778,50.,30.));
#363 = CARTESIAN_POINT('',(68.849556,50.,26.710132));
#364 = CARTESIAN_POINT('',(76.982406,50.,20.130396));
#365 = CARTESIAN_POINT('',(82.531399,50.,10.840607));
#366 = CARTESIAN_POINT('',(84.508199,50.,-1.7763568E-15));
#367 = CARTESIAN_POINT('',(82.531399,50.,-10.840607));
#368 = CARTESIAN_POINT('',(76.982406,50.,-20.130396));
#369 = CARTESIAN_POINT('',(68.849556,50.,-26.710132));
#370 = CARTESIAN_POINT('',(59.424778,50.,-30.));
#371 = CARTESIAN_POINT('',(50.,50.,-30.));
#372 = PCURVE('',#195,#373);
#373 = DEFINITIONAL_REPRESENTATION('',(#374),#377);
#374 = B_SPLINE_CURVE_WITH_KNOTS('',1,(#375,#376),.UNSPECIFIED.,.F.,.F.,
  (2,2),(0.,1.),.PIECEWISE_BEZIER_KNOTS.);
#375 = CARTESIAN_POINT('',(0.,1.));
#376 = CARTESIAN_POINT('',(1.,1.));
#377 = ( GEOMETRIC_REPRESENTATION_CONTEXT(2) 
PARAMETRIC_REPRESENTATION_CONTEXT() REPRESENTATION_CONTEXT('2D SPACE',''
  ) );
#378 = ORIENTED_EDGE('',*,*,#181,.F.);
#379 = ORIENTED_EDGE('',*,*,#380,.F.);
#380 = EDGE_CURVE('',#381,#126,#383,.T.);
#381 = VERTEX_POINT('',#382);
#382 = CARTESIAN_POINT('',(79.999748,29.999748,-6.6398769E-04));
#383 = SURFACE_CURVE('',#384,(#399,#417),.PCURVE_S1.);
#384 = B_SPLINE_CURVE_WITH_KNOTS('',13,(#385,#386,#387,#388,#389,#390,
    #391,#392,#393,#394,#395,#396,#397,#398),.UNSPECIFIED.,.F.,.F.,(14,
    14),(0.,1.),.PIECEWISE_BEZIER_KNOTS.);
#385 = CARTESIAN_POINT('',(79.999748,29.999748,-6.6398769E-04));
#386 = CARTESIAN_POINT('',(79.999793,29.999793,2.0218708));
#387 = CARTESIAN_POINT('',(79.852341,29.85234,4.0444142));
#388 = CARTESIAN_POINT('',(79.55739,29.55739,6.1155953));
#389 = CARTESIAN_POINT('',(79.094544,29.094543,8.2840435));
#390 = CARTESIAN_POINT('',(78.423002,28.423002,10.59344));
#391 = CARTESIAN_POINT('',(77.480041,27.480041,13.07757));
#392 = CARTESIAN_POINT('',(76.177952,26.177952,15.755685));
#393 = CARTESIAN_POINT('',(74.397708,24.397708,18.628488));
#394 = CARTESIAN_POINT('',(71.975836,21.975836,21.663908));
#395 = CARTESIAN_POINT('',(68.686029,18.686029,24.739518));
#396 = CARTESIAN_POINT('',(64.235598,14.235598,27.570865));
#397 = CARTESIAN_POINT('',(58.261121,8.2611207,29.993652));
#398 = CARTESIAN_POINT('',(50.,2.996714E-12,30.));
#399 = PCURVE('',#195,#400);
#400 = DEFINITIONAL_REPRESENTATION('',(#401),#416);
#401 = B_SPLINE_CURVE_WITH_KNOTS('',13,(#402,#403,#404,#405,#406,#407,
    #408,#409,#410,#411,#412,#413,#414,#415),.UNSPECIFIED.,.F.,.F.,(14,
    14),(0.,1.),.PIECEWISE_BEZIER_KNOTS.);
#402 = CARTESIAN_POINT('',(0.50000704,0.79999748));
#403 = CARTESIAN_POINT('',(0.47854119,0.79999793));
#404 = CARTESIAN_POINT('',(0.45707528,0.79852341));
#405 = CARTESIAN_POINT('',(0.43497756,0.7955739));
#406 = CARTESIAN_POINT('',(0.41161627,0.79094544));
#407 = CARTESIAN_POINT('',(0.38633937,0.78423002));
#408 = CARTESIAN_POINT('',(0.3584542,0.77480041));
#409 = CARTESIAN_POINT('',(0.32723789,0.76177952));
#410 = CARTESIAN_POINT('',(0.292009,0.74397708));
#411 = CARTESIAN_POINT('',(0.25209521,0.71975836));
#412 = CARTESIAN_POINT('',(0.20613998,0.68686029));
#413 = CARTESIAN_POINT('',(0.15119565,0.64235598));
#414 = CARTESIAN_POINT('',(8.7635668E-02,0.58261121));
#415 = CARTESIAN_POINT('',(-1.921102166236E-13,0.5));
#416 = ( GEOMETRIC_REPRESENTATION_CONTEXT(2) 
PARAMETRIC_REPRESENTATION_CONTEXT() REPRESENTATION_CONTEXT('2D SPACE',''
  ) );
#417 = PCURVE('',#418,#441);
#418 = B_SPLINE_SURFACE_WITH_KNOTS('',10,1,(
    (#419,#420)
    ,(#421,#422)
    ,(#423,#424)
    ,(#425,#426)
    ,(#427,#428)
    ,(#429,#430)
    ,(#431,#432)
    ,(#433,#434)
    ,(#435,#436)
    ,(#437,#438)
    ,(#439,#440
    )),.UNSPECIFIED.,.F.,.F.,.F.,(11,11),(2,2),(0.,1.),(0.,1.),
  .PIECEWISE_BEZIER_KNOTS.);
#419 = CARTESIAN_POINT('',(0.,0.,-30.));
#420 = CARTESIAN_POINT('',(100.,0.,-30.));
#421 = CARTESIAN_POINT('',(0.,9.424778,-30.));
#422 = CARTESIAN_POINT('',(100.,9.424778,-30.));
#423 = CARTESIAN_POINT('',(0.,18.849556,-26.710132));
#424 = CARTESIAN_POINT('',(100.,18.849556,-26.710132));
#425 = CARTESIAN_POINT('',(0.,26.982406,-20.130396));
#426 = CARTESIAN_POINT('',(100.,26.982406,-20.130396));
#427 = CARTESIAN_POINT('',(0.,32.531399,-10.840607));
#428 = CARTESIAN_POINT('',(100.,32.531399,-10.840607));
#429 = CARTESIAN_POINT('',(0.,34.508199,1.7763568E-15));
#430 = CARTESIAN_POINT('',(100.,34.508199,1.7763568E-15));
#431 = CARTESIAN_POINT('',(0.,32.531399,10.840607));
#432 = CARTESIAN_POINT('',(100.,32.531399,10.840607));
#433 = CARTESIAN_POINT('',(0.,26.982406,20.130396));
#434 = CARTESIAN_POINT('',(100.,26.982406,20.130396));
#435 = CARTESIAN_POINT('',(0.,18.849556,26.710132));
#436 = CARTESIAN_POINT('',(100.,18.849556,26.710132));
#437 = CARTESIAN_POINT('',(0.,9.424778,30.));
#438 = CARTESIAN_POINT('',(100.,9.424778,30.));
#439 = CARTESIAN_POINT('',(0.,-3.5527137E-15,30.));
#440 = CARTESIAN_POINT('',(100.,-3.5527137E-15,30.));
#441 = DEFINITIONAL_REPRESENTATION('',(#442),#457);
#442 = B_SPLINE_CURVE_WITH_KNOTS('',13,(#443,#444,#445,#446,#447,#448,
    #449,#450,#451,#452,#453,#454,#455,#456),.UNSPECIFIED.,.F.,.F.,(14,
    14),(0.,1.),.PIECEWISE_BEZIER_KNOTS.);
#443 = CARTESIAN_POINT('',(0.49999296,0.79999748));
#444 = CARTESIAN_POINT('',(0.52145881,0.79999793));
#445 = CARTESIAN_POINT('',(0.54292472,0.79852341));
#446 = CARTESIAN_POINT('',(0.56502244,0.7955739));
#447 = CARTESIAN_POINT('',(0.58838373,0.79094544));
#448 = CARTESIAN_POINT('',(0.61366063,0.78423002));
#449 = CARTESIAN_POINT('',(0.6415458,0.77480041));
#450 = CARTESIAN_POINT('',(0.67276211,0.76177952));
#451 = CARTESIAN_POINT('',(0.707991,0.74397708));
#452 = CARTESIAN_POINT('',(0.74790479,0.71975836));
#453 = CARTESIAN_POINT('',(0.79386002,0.68686029));
#454 = CARTESIAN_POINT('',(0.84880435,0.64235598));
#455 = CARTESIAN_POINT('',(0.91236433,0.58261121));
#456 = CARTESIAN_POINT('',(1.,0.5));
#457 = ( GEOMETRIC_REPRESENTATION_CONTEXT(2) 
PARAMETRIC_REPRESENTATION_CONTEXT() REPRESENTATION_CONTEXT('2D SPACE',''
  ) );
#458 = ORIENTED_EDGE('',*,*,#459,.F.);
#459 = EDGE_CURVE('',#22,#381,#460,.T.);
#460 = SURFACE_CURVE('',#461,(#476,#494),.PCURVE_S1.);
#461 = B_SPLINE_CURVE_WITH_KNOTS('',13,(#462,#463,#464,#465,#466,#467,
    #468,#469,#470,#471,#472,#473,#474,#475),.UNSPECIFIED.,.F.,.F.,(14,
    14),(0.,1.),.PIECEWISE_BEZIER_KNOTS.);
#462 = CARTESIAN_POINT('',(50.,-9.2120186E-15,-30.));
#463 = CARTESIAN_POINT('',(58.260742,8.2607424,-29.993654));
#464 = CARTESIAN_POINT('',(64.235023,14.235023,-27.571081));
#465 = CARTESIAN_POINT('',(68.685362,18.685362,-24.739939));
#466 = CARTESIAN_POINT('',(71.975153,21.975153,-21.664525));
#467 = CARTESIAN_POINT('',(74.397053,24.397053,-18.629281));
#468 = CARTESIAN_POINT('',(76.177354,26.177354,-15.756625));
#469 = CARTESIAN_POINT('',(77.479516,27.479516,-13.078629));
#470 = CARTESIAN_POINT('',(78.422559,28.422559,-10.594593));
#471 = CARTESIAN_POINT('',(79.094187,29.094187,-8.2852675));
#472 = CARTESIAN_POINT('',(79.557122,29.557122,-6.1168716));
#473 = CARTESIAN_POINT('',(79.852161,29.852161,-4.0457249));
#474 = CARTESIAN_POINT('',(79.999704,29.999704,-2.0231988));
#475 = CARTESIAN_POINT('',(79.999748,29.999748,-6.6398769E-04));
#476 = PCURVE('',#195,#477);
#477 = DEFINITIONAL_REPRESENTATION('',(#478),#493);
#478 = B_SPLINE_CURVE_WITH_KNOTS('',13,(#479,#480,#481,#482,#483,#484,
    #485,#486,#487,#488,#489,#490,#491,#492),.UNSPECIFIED.,.F.,.F.,(14,
    14),(0.,1.),.PIECEWISE_BEZIER_KNOTS.);
#479 = CARTESIAN_POINT('',(1.,0.5));
#480 = CARTESIAN_POINT('',(0.91236833,0.58260742));
#481 = CARTESIAN_POINT('',(0.84881052,0.64235023));
#482 = CARTESIAN_POINT('',(0.79386806,0.68685362));
#483 = CARTESIAN_POINT('',(0.74791429,0.71975153));
#484 = CARTESIAN_POINT('',(0.70800163,0.74397053));
#485 = CARTESIAN_POINT('',(0.67277367,0.76177354));
#486 = CARTESIAN_POINT('',(0.64155813,0.77479516));
#487 = CARTESIAN_POINT('',(0.61367358,0.78422559));
#488 = CARTESIAN_POINT('',(0.58839714,0.79094187));
#489 = CARTESIAN_POINT('',(0.5650362,0.79557122));
#490 = CARTESIAN_POINT('',(0.5429387,0.79852161));
#491 = CARTESIAN_POINT('',(0.5214729,0.79999704));
#492 = CARTESIAN_POINT('',(0.50000704,0.79999748));
#493 = ( GEOMETRIC_REPRESENTATION_CONTEXT(2) 
PARAMETRIC_REPRESENTATION_CONTEXT() REPRESENTATION_CONTEXT('2D SPACE',''
  ) );
#494 = PCURVE('',#418,#495);
#495 = DEFINITIONAL_REPRESENTATION('',(#496),#511);
#496 = B_SPLINE_CURVE_WITH_KNOTS('',13,(#497,#498,#499,#500,#501,#502,
    #503,#504,#505,#506,#507,#508,#509,#510),.UNSPECIFIED.,.F.,.F.,(14,
    14),(0.,1.),.PIECEWISE_BEZIER_KNOTS.);
#497 = CARTESIAN_POINT('',(-5.5511151E-17,0.5));
#498 = CARTESIAN_POINT('',(8.7631669E-02,0.58260742));
#499 = CARTESIAN_POINT('',(0.15118948,0.64235023));
#500 = CARTESIAN_POINT('',(0.20613194,0.68685362));
#501 = CARTESIAN_POINT('',(0.25208571,0.71975153));
#502 = CARTESIAN_POINT('',(0.29199837,0.74397053));
#503 = CARTESIAN_POINT('',(0.32722633,0.76177354));
#504 = CARTESIAN_POINT('',(0.35844187,0.77479516));
#505 = CARTESIAN_POINT('',(0.38632642,0.78422559));
#506 = CARTESIAN_POINT('',(0.41160286,0.79094187));
#507 = CARTESIAN_POINT('',(0.4349638,0.79557122));
#508 = CARTESIAN_POINT('',(0.4570613,0.79852161));
#509 = CARTESIAN_POINT('',(0.4785271,0.79999704));
#510 = CARTESIAN_POINT('',(0.49999296,0.79999748));
#511 = ( GEOMETRIC_REPRESENTATION_CONTEXT(2) 
PARAMETRIC_REPRESENTATION_CONTEXT() REPRESENTATION_CONTEXT('2D SPACE',''
  ) );
#512 = ADVANCED_FACE('',(#513),#282,.T.);
#513 = FACE_BOUND('',#514,.T.);
#514 = EDGE_LOOP('',(#515,#594,#648,#649,#670));
#515 = ORIENTED_EDGE('',*,*,#516,.T.);
#516 = EDGE_CURVE('',#22,#517,#519,.T.);
#517 = VERTEX_POINT('',#518);
#518 = CARTESIAN_POINT('',(20.000252,-29.999748,-6.639876898515E-04));
#519 = SURFACE_CURVE('',#520,(#535,#553),.PCURVE_S1.);
#520 = B_SPLINE_CURVE_WITH_KNOTS('',13,(#521,#522,#523,#524,#525,#526,
    #527,#528,#529,#530,#531,#532,#533,#534),.UNSPECIFIED.,.F.,.F.,(14,
    14),(0.,1.),.PIECEWISE_BEZIER_KNOTS.);
#521 = CARTESIAN_POINT('',(50.,3.5914143E-14,-30.));
#522 = CARTESIAN_POINT('',(41.739258,-8.2607424,-29.993654));
#523 = CARTESIAN_POINT('',(35.764977,-14.235023,-27.571081));
#524 = CARTESIAN_POINT('',(31.314638,-18.685362,-24.739939));
#525 = CARTESIAN_POINT('',(28.024847,-21.975153,-21.664525));
#526 = CARTESIAN_POINT('',(25.602947,-24.397053,-18.629281));
#527 = CARTESIAN_POINT('',(23.822646,-26.177354,-15.756625));
#528 = CARTESIAN_POINT('',(22.520484,-27.479516,-13.078629));
#529 = CARTESIAN_POINT('',(21.577441,-28.422559,-10.594593));
#530 = CARTESIAN_POINT('',(20.905813,-29.094187,-8.2852675));
#531 = CARTESIAN_POINT('',(20.442878,-29.557122,-6.1168716));
#532 = CARTESIAN_POINT('',(20.147839,-29.852161,-4.0457249));
#533 = CARTESIAN_POINT('',(20.000296,-29.999704,-2.0231988));
#534 = CARTESIAN_POINT('',(20.000252,-29.999748,-6.6398769E-04));
#535 = PCURVE('',#282,#536);
#536 = DEFINITIONAL_REPRESENTATION('',(#537),#552);
#537 = B_SPLINE_CURVE_WITH_KNOTS('',13,(#538,#539,#540,#541,#542,#543,
    #544,#545,#546,#547,#548,#549,#550,#551),.UNSPECIFIED.,.F.,.F.,(14,
    14),(0.,1.),.PIECEWISE_BEZIER_KNOTS.);
#538 = CARTESIAN_POINT('',(1.,0.5));
#539 = CARTESIAN_POINT('',(0.91236833,0.41739258));
#540 = CARTESIAN_POINT('',(0.84881052,0.35764977));
#541 = CARTESIAN_POINT('',(0.79386806,0.31314638));
#542 = CARTESIAN_POINT('',(0.74791429,0.28024847));
#543 = CARTESIAN_POINT('',(0.70800163,0.25602947));
#544 = CARTESIAN_POINT('',(0.67277367,0.23822646));
#545 = CARTESIAN_POINT('',(0.64155813,0.22520484));
#546 = CARTESIAN_POINT('',(0.61367358,0.21577441));
#547 = CARTESIAN_POINT('',(0.58839714,0.20905813));
#548 = CARTESIAN_POINT('',(0.5650362,0.20442878));
#549 = CARTESIAN_POINT('',(0.5429387,0.20147839));
#550 = CARTESIAN_POINT('',(0.5214729,0.20000296));
#551 = CARTESIAN_POINT('',(0.50000704,0.20000252));
#552 = ( GEOMETRIC_REPRESENTATION_CONTEXT(2) 
PARAMETRIC_REPRESENTATION_CONTEXT() REPRESENTATION_CONTEXT('2D SPACE',''
  ) );
#553 = PCURVE('',#554,#577);
#554 = B_SPLINE_SURFACE_WITH_KNOTS('',10,1,(
    (#555,#556)
    ,(#557,#558)
    ,(#559,#560)
    ,(#561,#562)
    ,(#563,#564)
    ,(#565,#566)
    ,(#567,#568)
    ,(#569,#570)
    ,(#571,#572)
    ,(#573,#574)
    ,(#575,#576
    )),.UNSPECIFIED.,.F.,.F.,.F.,(11,11),(2,2),(0.,1.),(0.,1.),
  .PIECEWISE_BEZIER_KNOTS.);
#555 = CARTESIAN_POINT('',(50.,-50.,-30.));
#556 = CARTESIAN_POINT('',(50.,50.,-30.));
#557 = CARTESIAN_POINT('',(40.575222,-50.,-30.));
#558 = CARTESIAN_POINT('',(40.575222,50.,-30.));
#559 = CARTESIAN_POINT('',(31.150444,-50.,-26.710132));
#560 = CARTESIAN_POINT('',(31.150444,50.,-26.710132));
#561 = CARTESIAN_POINT('',(23.017594,-50.,-20.130396));
#562 = CARTESIAN_POINT('',(23.017594,50.,-20.130396));
#563 = CARTESIAN_POINT('',(17.468601,-50.,-10.840607));
#564 = CARTESIAN_POINT('',(17.468601,50.,-10.840607));
#565 = CARTESIAN_POINT('',(15.491801,-50.,-3.5527137E-15));
#566 = CARTESIAN_POINT('',(15.491801,50.,-3.5527137E-15));
#567 = CARTESIAN_POINT('',(17.468601,-50.,10.840607));
#568 = CARTESIAN_POINT('',(17.468601,50.,10.840607));
#569 = CARTESIAN_POINT('',(23.017594,-50.,20.130396));
#570 = CARTESIAN_POINT('',(23.017594,50.,20.130396));
#571 = CARTESIAN_POINT('',(31.150444,-50.,26.710132));
#572 = CARTESIAN_POINT('',(31.150444,50.,26.710132));
#573 = CARTESIAN_POINT('',(40.575222,-50.,30.));
#574 = CARTESIAN_POINT('',(40.575222,50.,30.));
#575 = CARTESIAN_POINT('',(50.,-50.,30.));
#576 = CARTESIAN_POINT('',(50.,50.,30.));
#577 = DEFINITIONAL_REPRESENTATION('',(#578),#593);
#578 = B_SPLINE_CURVE_WITH_KNOTS('',13,(#579,#580,#581,#582,#583,#584,
    #585,#586,#587,#588,#589,#590,#591,#592),.UNSPECIFIED.,.F.,.F.,(14,
    14),(0.,1.),.PIECEWISE_BEZIER_KNOTS.);
#579 = CARTESIAN_POINT('',(-1.3877788E-17,0.5));
#580 = CARTESIAN_POINT('',(8.7631669E-02,0.41739258));
#581 = CARTESIAN_POINT('',(0.15118948,0.35764977));
#582 = CARTESIAN_POINT('',(0.20613194,0.31314638));
#583 = CARTESIAN_POINT('',(0.25208571,0.28024847));
#584 = CARTESIAN_POINT('',(0.29199837,0.25602947));
#585 = CARTESIAN_POINT('',(0.32722633,0.23822646));
#586 = CARTESIAN_POINT('',(0.35844187,0.22520484));
#587 = CARTESIAN_POINT('',(0.38632642,0.21577441));
#588 = CARTESIAN_POINT('',(0.41160286,0.20905813));
#589 = CARTESIAN_POINT('',(0.4349638,0.20442878));
#590 = CARTESIAN_POINT('',(0.4570613,0.20147839));
#591 = CARTESIAN_POINT('',(0.4785271,0.20000296));
#592 = CARTESIAN_POINT('',(0.49999296,0.20000252));
#593 = ( GEOMETRIC_REPRESENTATION_CONTEXT(2) 
PARAMETRIC_REPRESENTATION_CONTEXT() REPRESENTATION_CONTEXT('2D SPACE',''
  ) );
#594 = ORIENTED_EDGE('',*,*,#595,.T.);
#595 = EDGE_CURVE('',#517,#126,#596,.T.);
#596 = SURFACE_CURVE('',#597,(#612,#630),.PCURVE_S1.);
#597 = B_SPLINE_CURVE_WITH_KNOTS('',13,(#598,#599,#600,#601,#602,#603,
    #604,#605,#606,#607,#608,#609,#610,#611),.UNSPECIFIED.,.F.,.F.,(14,
    14),(0.,1.),.PIECEWISE_BEZIER_KNOTS.);
#598 = CARTESIAN_POINT('',(20.000252,-29.999748,-6.6398769E-04));
#599 = CARTESIAN_POINT('',(20.000207,-29.999793,2.0218708));
#600 = CARTESIAN_POINT('',(20.147659,-29.85234,4.0444142));
#601 = CARTESIAN_POINT('',(20.44261,-29.55739,6.1155953));
#602 = CARTESIAN_POINT('',(20.905456,-29.094543,8.2840435));
#603 = CARTESIAN_POINT('',(21.576998,-28.423002,10.59344));
#604 = CARTESIAN_POINT('',(22.519959,-27.480041,13.07757));
#605 = CARTESIAN_POINT('',(23.822048,-26.177952,15.755685));
#606 = CARTESIAN_POINT('',(25.602292,-24.397708,18.628488));
#607 = CARTESIAN_POINT('',(28.024164,-21.975836,21.663908));
#608 = CARTESIAN_POINT('',(31.313971,-18.686029,24.739518));
#609 = CARTESIAN_POINT('',(35.764402,-14.235598,27.570865));
#610 = CARTESIAN_POINT('',(41.738879,-8.2611207,29.993652));
#611 = CARTESIAN_POINT('',(50.,-7.2741813E-12,30.));
#612 = PCURVE('',#282,#613);
#613 = DEFINITIONAL_REPRESENTATION('',(#614),#629);
#614 = B_SPLINE_CURVE_WITH_KNOTS('',13,(#615,#616,#617,#618,#619,#620,
    #621,#622,#623,#624,#625,#626,#627,#628),.UNSPECIFIED.,.F.,.F.,(14,
    14),(0.,1.),.PIECEWISE_BEZIER_KNOTS.);
#615 = CARTESIAN_POINT('',(0.50000704,0.20000252));
#616 = CARTESIAN_POINT('',(0.47854119,0.20000207));
#617 = CARTESIAN_POINT('',(0.45707528,0.20147659));
#618 = CARTESIAN_POINT('',(0.43497756,0.2044261));
#619 = CARTESIAN_POINT('',(0.41161627,0.20905456));
#620 = CARTESIAN_POINT('',(0.38633937,0.21576998));
#621 = CARTESIAN_POINT('',(0.3584542,0.22519959));
#622 = CARTESIAN_POINT('',(0.32723789,0.23822048));
#623 = CARTESIAN_POINT('',(0.292009,0.25602292));
#624 = CARTESIAN_POINT('',(0.25209521,0.28024164));
#625 = CARTESIAN_POINT('',(0.20613998,0.31313971));
#626 = CARTESIAN_POINT('',(0.15119565,0.35764402));
#627 = CARTESIAN_POINT('',(8.7635668E-02,0.41738879));
#628 = CARTESIAN_POINT('',(-4.321543123353E-13,0.5));
#629 = ( GEOMETRIC_REPRESENTATION_CONTEXT(2) 
PARAMETRIC_REPRESENTATION_CONTEXT() REPRESENTATION_CONTEXT('2D SPACE',''
  ) );
#630 = PCURVE('',#554,#631);
#631 = DEFINITIONAL_REPRESENTATION('',(#632),#647);
#632 = B_SPLINE_CURVE_WITH_KNOTS('',13,(#633,#634,#635,#636,#637,#638,
    #639,#640,#641,#642,#643,#644,#645,#646),.UNSPECIFIED.,.F.,.F.,(14,
    14),(0.,1.),.PIECEWISE_BEZIER_KNOTS.);
#633 = CARTESIAN_POINT('',(0.49999296,0.20000252));
#634 = CARTESIAN_POINT('',(0.52145881,0.20000207));
#635 = CARTESIAN_POINT('',(0.54292472,0.20147659));
#636 = CARTESIAN_POINT('',(0.56502244,0.2044261));
#637 = CARTESIAN_POINT('',(0.58838373,0.20905456));
#638 = CARTESIAN_POINT('',(0.61366063,0.21576998));
#639 = CARTESIAN_POINT('',(0.6415458,0.22519959));
#640 = CARTESIAN_POINT('',(0.67276211,0.23822048));
#641 = CARTESIAN_POINT('',(0.707991,0.25602292));
#642 = CARTESIAN_POINT('',(0.74790479,0.28024164));
#643 = CARTESIAN_POINT('',(0.79386002,0.31313971));
#644 = CARTESIAN_POINT('',(0.84880435,0.35764402));
#645 = CARTESIAN_POINT('',(0.91236433,0.41738879));
#646 = CARTESIAN_POINT('',(1.,0.5));
#647 = ( GEOMETRIC_REPRESENTATION_CONTEXT(2) 
PARAMETRIC_REPRESENTATION_CONTEXT() REPRESENTATION_CONTEXT('2D SPACE',''
  ) );
#648 = ORIENTED_EDGE('',*,*,#334,.T.);
#649 = ORIENTED_EDGE('',*,*,#650,.T.);
#650 = EDGE_CURVE('',#312,#269,#651,.T.);
#651 = SURFACE_CURVE('',#652,(#664),.PCURVE_S1.);
#652 = B_SPLINE_CURVE_WITH_KNOTS('',10,(#653,#654,#655,#656,#657,#658,
    #659,#660,#661,#662,#663),.UNSPECIFIED.,.F.,.F.,(11,11),(0.,1.),
  .PIECEWISE_BEZIER_KNOTS.);
#653 = CARTESIAN_POINT('',(0.,-1.0658141E-14,30.));
#654 = CARTESIAN_POINT('',(0.,-9.424778,30.));
#655 = CARTESIAN_POINT('',(0.,-18.849556,26.710132));
#656 = CARTESIAN_POINT('',(0.,-26.982406,20.130396));
#657 = CARTESIAN_POINT('',(0.,-32.531399,10.840607));
#658 = CARTESIAN_POINT('',(0.,-34.508199,-1.0658141E-14));
#659 = CARTESIAN_POINT('',(0.,-32.531399,-10.840607));
#660 = CARTESIAN_POINT('',(0.,-26.982406,-20.130396));
#661 = CARTESIAN_POINT('',(0.,-18.849556,-26.710132));
#662 = CARTESIAN_POINT('',(0.,-9.424778,-30.));
#663 = CARTESIAN_POINT('',(0.,7.1054274E-15,-30.));
#664 = PCURVE('',#282,#665);
#665 = DEFINITIONAL_REPRESENTATION('',(#666),#669);
#666 = B_SPLINE_CURVE_WITH_KNOTS('',1,(#667,#668),.UNSPECIFIED.,.F.,.F.,
  (2,2),(0.,1.),.PIECEWISE_BEZIER_KNOTS.);
#667 = CARTESIAN_POINT('',(0.,0.));
#668 = CARTESIAN_POINT('',(1.,0.));
#669 = ( GEOMETRIC_REPRESENTATION_CONTEXT(2) 
PARAMETRIC_REPRESENTATION_CONTEXT() REPRESENTATION_CONTEXT('2D SPACE',''
  ) );
#670 = ORIENTED_EDGE('',*,*,#268,.T.);
#671 = ADVANCED_FACE('',(#672),#418,.T.);
#672 = FACE_BOUND('',#673,.T.);
#673 = EDGE_LOOP('',(#674,#675,#676,#719,#742));
#674 = ORIENTED_EDGE('',*,*,#459,.T.);
#675 = ORIENTED_EDGE('',*,*,#380,.T.);
#676 = ORIENTED_EDGE('',*,*,#677,.T.);
#677 = EDGE_CURVE('',#126,#678,#680,.T.);
#678 = VERTEX_POINT('',#679);
#679 = CARTESIAN_POINT('',(100.,-1.4210855E-14,30.));
#680 = SURFACE_CURVE('',#681,(#684,#690),.PCURVE_S1.);
#681 = B_SPLINE_CURVE_WITH_KNOTS('',1,(#682,#683),.UNSPECIFIED.,.F.,.F.,
  (2,2),(0.,1.),.PIECEWISE_BEZIER_KNOTS.);
#682 = CARTESIAN_POINT('',(50.,-1.4210855E-14,30.));
#683 = CARTESIAN_POINT('',(100.,-1.4210855E-14,30.));
#684 = PCURVE('',#418,#685);
#685 = DEFINITIONAL_REPRESENTATION('',(#686),#689);
#686 = B_SPLINE_CURVE_WITH_KNOTS('',1,(#687,#688),.UNSPECIFIED.,.F.,.F.,
  (2,2),(0.,1.),.PIECEWISE_BEZIER_KNOTS.);
#687 = CARTESIAN_POINT('',(1.,0.5));
#688 = CARTESIAN_POINT('',(1.,1.));
#689 = ( GEOMETRIC_REPRESENTATION_CONTEXT(2) 
PARAMETRIC_REPRESENTATION_CONTEXT() REPRESENTATION_CONTEXT('2D SPACE',''
  ) );
#690 = PCURVE('',#691,#714);
#691 = B_SPLINE_SURFACE_WITH_KNOTS('',10,1,(
    (#692,#693)
    ,(#694,#695)
    ,(#696,#697)
    ,(#698,#699)
    ,(#700,#701)
    ,(#702,#703)
    ,(#704,#705)
    ,(#706,#707)
    ,(#708,#709)
    ,(#710,#711)
    ,(#712,#713
    )),.UNSPECIFIED.,.F.,.F.,.F.,(11,11),(2,2),(0.,1.),(0.,1.),
  .PIECEWISE_BEZIER_KNOTS.);
#692 = CARTESIAN_POINT('',(0.,-1.0658141E-14,30.));
#693 = CARTESIAN_POINT('',(100.,-1.0658141E-14,30.));
#694 = CARTESIAN_POINT('',(0.,-9.424778,30.));
#695 = CARTESIAN_POINT('',(100.,-9.424778,30.));
#696 = CARTESIAN_POINT('',(0.,-18.849556,26.710132));
#697 = CARTESIAN_POINT('',(100.,-18.849556,26.710132));
#698 = CARTESIAN_POINT('',(0.,-26.982406,20.130396));
#699 = CARTESIAN_POINT('',(100.,-26.982406,20.130396));
#700 = CARTESIAN_POINT('',(0.,-32.531399,10.840607));
#701 = CARTESIAN_POINT('',(100.,-32.531399,10.840607));
#702 = CARTESIAN_POINT('',(0.,-34.508199,-1.0658141E-14));
#703 = CARTESIAN_POINT('',(100.,-34.508199,-1.0658141E-14));
#704 = CARTESIAN_POINT('',(0.,-32.531399,-10.840607));
#705 = CARTESIAN_POINT('',(100.,-32.531399,-10.840607));
#706 = CARTESIAN_POINT('',(0.,-26.982406,-20.130396));
#707 = CARTESIAN_POINT('',(100.,-26.982406,-20.130396));
#708 = CARTESIAN_POINT('',(0.,-18.849556,-26.710132));
#709 = CARTESIAN_POINT('',(100.,-18.849556,-26.710132));
#710 = CARTESIAN_POINT('',(0.,-9.424778,-30.));
#711 = CARTESIAN_POINT('',(100.,-9.424778,-30.));
#712 = CARTESIAN_POINT('',(0.,-3.5527137E-15,-30.));
#713 = CARTESIAN_POINT('',(100.,-3.5527137E-15,-30.));
#714 = DEFINITIONAL_REPRESENTATION('',(#715),#718);
#715 = B_SPLINE_CURVE_WITH_KNOTS('',1,(#716,#717),.UNSPECIFIED.,.F.,.F.,
  (2,2),(0.,1.),.PIECEWISE_BEZIER_KNOTS.);
#716 = CARTESIAN_POINT('',(0.,0.5));
#717 = CARTESIAN_POINT('',(0.,1.));
#718 = ( GEOMETRIC_REPRESENTATION_CONTEXT(2) 
PARAMETRIC_REPRESENTATION_CONTEXT() REPRESENTATION_CONTEXT('2D SPACE',''
  ) );
#719 = ORIENTED_EDGE('',*,*,#720,.T.);
#720 = EDGE_CURVE('',#678,#721,#723,.T.);
#721 = VERTEX_POINT('',#722);
#722 = CARTESIAN_POINT('',(100.,1.41997524886E-13,-30.));
#723 = SURFACE_CURVE('',#724,(#736),.PCURVE_S1.);
#724 = B_SPLINE_CURVE_WITH_KNOTS('',10,(#725,#726,#727,#728,#729,#730,
    #731,#732,#733,#734,#735),.UNSPECIFIED.,.F.,.F.,(11,11),(0.,1.),
  .PIECEWISE_BEZIER_KNOTS.);
#725 = CARTESIAN_POINT('',(100.,-1.0658141E-14,30.));
#726 = CARTESIAN_POINT('',(100.,9.424778,30.));
#727 = CARTESIAN_POINT('',(100.,18.849556,26.710132));
#728 = CARTESIAN_POINT('',(100.,26.982406,20.130396));
#729 = CARTESIAN_POINT('',(100.,32.531399,10.840607));
#730 = CARTESIAN_POINT('',(100.,34.508199,1.5987212E-14));
#731 = CARTESIAN_POINT('',(100.,32.531399,-10.840607));
#732 = CARTESIAN_POINT('',(100.,26.982406,-20.130396));
#733 = CARTESIAN_POINT('',(100.,18.849556,-26.710132));
#734 = CARTESIAN_POINT('',(100.,9.424778,-30.));
#735 = CARTESIAN_POINT('',(100.,1.438849E-13,-30.));
#736 = PCURVE('',#418,#737);
#737 = DEFINITIONAL_REPRESENTATION('',(#738),#741);
#738 = B_SPLINE_CURVE_WITH_KNOTS('',1,(#739,#740),.UNSPECIFIED.,.F.,.F.,
  (2,2),(0.,1.),.PIECEWISE_BEZIER_KNOTS.);
#739 = CARTESIAN_POINT('',(1.,1.));
#740 = CARTESIAN_POINT('',(0.,1.));
#741 = ( GEOMETRIC_REPRESENTATION_CONTEXT(2) 
PARAMETRIC_REPRESENTATION_CONTEXT() REPRESENTATION_CONTEXT('2D SPACE',''
  ) );
#742 = ORIENTED_EDGE('',*,*,#743,.T.);
#743 = EDGE_CURVE('',#721,#22,#744,.T.);
#744 = SURFACE_CURVE('',#745,(#748,#754),.PCURVE_S1.);
#745 = B_SPLINE_CURVE_WITH_KNOTS('',1,(#746,#747),.UNSPECIFIED.,.F.,.F.,
  (2,2),(0.,1.),.PIECEWISE_BEZIER_KNOTS.);
#746 = CARTESIAN_POINT('',(100.,3.1974423E-14,-30.));
#747 = CARTESIAN_POINT('',(50.,3.1974423E-14,-30.));
#748 = PCURVE('',#418,#749);
#749 = DEFINITIONAL_REPRESENTATION('',(#750),#753);
#750 = B_SPLINE_CURVE_WITH_KNOTS('',1,(#751,#752),.UNSPECIFIED.,.F.,.F.,
  (2,2),(0.,1.),.PIECEWISE_BEZIER_KNOTS.);
#751 = CARTESIAN_POINT('',(0.,1.));
#752 = CARTESIAN_POINT('',(0.,0.5));
#753 = ( GEOMETRIC_REPRESENTATION_CONTEXT(2) 
PARAMETRIC_REPRESENTATION_CONTEXT() REPRESENTATION_CONTEXT('2D SPACE',''
  ) );
#754 = PCURVE('',#691,#755);
#755 = DEFINITIONAL_REPRESENTATION('',(#756),#759);
#756 = B_SPLINE_CURVE_WITH_KNOTS('',1,(#757,#758),.UNSPECIFIED.,.F.,.F.,
  (2,2),(0.,1.),.PIECEWISE_BEZIER_KNOTS.);
#757 = CARTESIAN_POINT('',(1.,1.));
#758 = CARTESIAN_POINT('',(1.,0.5));
#759 = ( GEOMETRIC_REPRESENTATION_CONTEXT(2) 
PARAMETRIC_REPRESENTATION_CONTEXT() REPRESENTATION_CONTEXT('2D SPACE',''
  ) );
#760 = ADVANCED_FACE('',(#761),#554,.T.);
#761 = FACE_BOUND('',#762,.T.);
#762 = EDGE_LOOP('',(#763,#806,#829,#847,#848));
#763 = ORIENTED_EDGE('',*,*,#764,.F.);
#764 = EDGE_CURVE('',#765,#22,#767,.T.);
#765 = VERTEX_POINT('',#766);
#766 = CARTESIAN_POINT('',(50.,-50.,-30.));
#767 = SURFACE_CURVE('',#768,(#771,#777),.PCURVE_S1.);
#768 = B_SPLINE_CURVE_WITH_KNOTS('',1,(#769,#770),.UNSPECIFIED.,.F.,.F.,
  (2,2),(0.,1.),.PIECEWISE_BEZIER_KNOTS.);
#769 = CARTESIAN_POINT('',(50.,-50.,-30.));
#770 = CARTESIAN_POINT('',(50.,4.2632564E-14,-30.));
#771 = PCURVE('',#554,#772);
#772 = DEFINITIONAL_REPRESENTATION('',(#773),#776);
#773 = B_SPLINE_CURVE_WITH_KNOTS('',1,(#774,#775),.UNSPECIFIED.,.F.,.F.,
  (2,2),(0.,1.),.PIECEWISE_BEZIER_KNOTS.);
#774 = CARTESIAN_POINT('',(0.,0.));
#775 = CARTESIAN_POINT('',(0.,0.5));
#776 = ( GEOMETRIC_REPRESENTATION_CONTEXT(2) 
PARAMETRIC_REPRESENTATION_CONTEXT() REPRESENTATION_CONTEXT('2D SPACE',''
  ) );
#777 = PCURVE('',#778,#801);
#778 = B_SPLINE_SURFACE_WITH_KNOTS('',10,1,(
    (#779,#780)
    ,(#781,#782)
    ,(#783,#784)
    ,(#785,#786)
    ,(#787,#788)
    ,(#789,#790)
    ,(#791,#792)
    ,(#793,#794)
    ,(#795,#796)
    ,(#797,#798)
    ,(#799,#800
    )),.UNSPECIFIED.,.F.,.F.,.F.,(11,11),(2,2),(0.,1.),(0.,1.),
  .PIECEWISE_BEZIER_KNOTS.);
#779 = CARTESIAN_POINT('',(50.,-50.,30.));
#780 = CARTESIAN_POINT('',(50.,50.,30.));
#781 = CARTESIAN_POINT('',(59.424778,-50.,30.));
#782 = CARTESIAN_POINT('',(59.424778,50.,30.));
#783 = CARTESIAN_POINT('',(68.849556,-50.,26.710132));
#784 = CARTESIAN_POINT('',(68.849556,50.,26.710132));
#785 = CARTESIAN_POINT('',(76.982406,-50.,20.130396));
#786 = CARTESIAN_POINT('',(76.982406,50.,20.130396));
#787 = CARTESIAN_POINT('',(82.531399,-50.,10.840607));
#788 = CARTESIAN_POINT('',(82.531399,50.,10.840607));
#789 = CARTESIAN_POINT('',(84.508199,-50.,-1.7763568E-15));
#790 = CARTESIAN_POINT('',(84.508199,50.,-1.7763568E-15));
#791 = CARTESIAN_POINT('',(82.531399,-50.,-10.840607));
#792 = CARTESIAN_POINT('',(82.531399,50.,-10.840607));
#793 = CARTESIAN_POINT('',(76.982406,-50.,-20.130396));
#794 = CARTESIAN_POINT('',(76.982406,50.,-20.130396));
#795 = CARTESIAN_POINT('',(68.849556,-50.,-26.710132));
#796 = CARTESIAN_POINT('',(68.849556,50.,-26.710132));
#797 = CARTESIAN_POINT('',(59.424778,-50.,-30.));
#798 = CARTESIAN_POINT('',(59.424778,50.,-30.));
#799 = CARTESIAN_POINT('',(50.,-50.,-30.));
#800 = CARTESIAN_POINT('',(50.,50.,-30.));
#801 = DEFINITIONAL_REPRESENTATION('',(#802),#805);
#802 = B_SPLINE_CURVE_WITH_KNOTS('',1,(#803,#804),.UNSPECIFIED.,.F.,.F.,
  (2,2),(0.,1.),.PIECEWISE_BEZIER_KNOTS.);
#803 = CARTESIAN_POINT('',(1.,0.));
#804 = CARTESIAN_POINT('',(1.,0.5));
#805 = ( GEOMETRIC_REPRESENTATION_CONTEXT(2) 
PARAMETRIC_REPRESENTATION_CONTEXT() REPRESENTATION_CONTEXT('2D SPACE',''
  ) );
#806 = ORIENTED_EDGE('',*,*,#807,.F.);
#807 = EDGE_CURVE('',#808,#765,#810,.T.);
#808 = VERTEX_POINT('',#809);
#809 = CARTESIAN_POINT('',(50.,-50.,30.));
#810 = SURFACE_CURVE('',#811,(#823),.PCURVE_S1.);
#811 = B_SPLINE_CURVE_WITH_KNOTS('',10,(#812,#813,#814,#815,#816,#817,
    #818,#819,#820,#821,#822),.UNSPECIFIED.,.F.,.F.,(11,11),(0.,1.),
  .PIECEWISE_BEZIER_KNOTS.);
#812 = CARTESIAN_POINT('',(50.,-50.,30.));
#813 = CARTESIAN_POINT('',(40.575222,-50.,30.));
#814 = CARTESIAN_POINT('',(31.150444,-50.,26.710132));
#815 = CARTESIAN_POINT('',(23.017594,-50.,20.130396));
#816 = CARTESIAN_POINT('',(17.468601,-50.,10.840607));
#817 = CARTESIAN_POINT('',(15.491801,-50.,1.9539925E-14));
#818 = CARTESIAN_POINT('',(17.468601,-50.,-10.840607));
#819 = CARTESIAN_POINT('',(23.017594,-50.,-20.130396));
#820 = CARTESIAN_POINT('',(31.150444,-50.,-26.710132));
#821 = CARTESIAN_POINT('',(40.575222,-50.,-30.));
#822 = CARTESIAN_POINT('',(50.,-50.,-30.));
#823 = PCURVE('',#554,#824);
#824 = DEFINITIONAL_REPRESENTATION('',(#825),#828);
#825 = B_SPLINE_CURVE_WITH_KNOTS('',1,(#826,#827),.UNSPECIFIED.,.F.,.F.,
  (2,2),(0.,1.),.PIECEWISE_BEZIER_KNOTS.);
#826 = CARTESIAN_POINT('',(1.,0.));
#827 = CARTESIAN_POINT('',(0.,0.));
#828 = ( GEOMETRIC_REPRESENTATION_CONTEXT(2) 
PARAMETRIC_REPRESENTATION_CONTEXT() REPRESENTATION_CONTEXT('2D SPACE',''
  ) );
#829 = ORIENTED_EDGE('',*,*,#830,.F.);
#830 = EDGE_CURVE('',#126,#808,#831,.T.);
#831 = SURFACE_CURVE('',#832,(#835,#841),.PCURVE_S1.);
#832 = B_SPLINE_CURVE_WITH_KNOTS('',1,(#833,#834),.UNSPECIFIED.,.F.,.F.,
  (2,2),(0.,1.),.PIECEWISE_BEZIER_KNOTS.);
#833 = CARTESIAN_POINT('',(50.,2.127365E-11,30.));
#834 = CARTESIAN_POINT('',(50.,-50.,30.));
#835 = PCURVE('',#554,#836);
#836 = DEFINITIONAL_REPRESENTATION('',(#837),#840);
#837 = B_SPLINE_CURVE_WITH_KNOTS('',1,(#838,#839),.UNSPECIFIED.,.F.,.F.,
  (2,2),(0.,1.),.PIECEWISE_BEZIER_KNOTS.);
#838 = CARTESIAN_POINT('',(1.,0.5));
#839 = CARTESIAN_POINT('',(1.,0.));
#840 = ( GEOMETRIC_REPRESENTATION_CONTEXT(2) 
PARAMETRIC_REPRESENTATION_CONTEXT() REPRESENTATION_CONTEXT('2D SPACE',''
  ) );
#841 = PCURVE('',#778,#842);
#842 = DEFINITIONAL_REPRESENTATION('',(#843),#846);
#843 = B_SPLINE_CURVE_WITH_KNOTS('',1,(#844,#845),.UNSPECIFIED.,.F.,.F.,
  (2,2),(0.,1.),.PIECEWISE_BEZIER_KNOTS.);
#844 = CARTESIAN_POINT('',(0.,0.5));
#845 = CARTESIAN_POINT('',(0.,0.));
#846 = ( GEOMETRIC_REPRESENTATION_CONTEXT(2) 
PARAMETRIC_REPRESENTATION_CONTEXT() REPRESENTATION_CONTEXT('2D SPACE',''
  ) );
#847 = ORIENTED_EDGE('',*,*,#595,.F.);
#848 = ORIENTED_EDGE('',*,*,#516,.F.);
#849 = ADVANCED_FACE('',(#850),#691,.T.);
#850 = FACE_BOUND('',#851,.T.);
#851 = EDGE_LOOP('',(#852,#853,#874,#875,#931));
#852 = ORIENTED_EDGE('',*,*,#743,.F.);
#853 = ORIENTED_EDGE('',*,*,#854,.F.);
#854 = EDGE_CURVE('',#678,#721,#855,.T.);
#855 = SURFACE_CURVE('',#856,(#868),.PCURVE_S1.);
#856 = B_SPLINE_CURVE_WITH_KNOTS('',10,(#857,#858,#859,#860,#861,#862,
    #863,#864,#865,#866,#867),.UNSPECIFIED.,.F.,.F.,(11,11),(0.,1.),
  .PIECEWISE_BEZIER_KNOTS.);
#857 = CARTESIAN_POINT('',(100.,-1.0658141E-14,30.));
#858 = CARTESIAN_POINT('',(100.,-9.424778,30.));
#859 = CARTESIAN_POINT('',(100.,-18.849556,26.710132));
#860 = CARTESIAN_POINT('',(100.,-26.982406,20.130396));
#861 = CARTESIAN_POINT('',(100.,-32.531399,10.840607));
#862 = CARTESIAN_POINT('',(100.,-34.508199,-1.0658141E-14));
#863 = CARTESIAN_POINT('',(100.,-32.531399,-10.840607));
#864 = CARTESIAN_POINT('',(100.,-26.982406,-20.130396));
#865 = CARTESIAN_POINT('',(100.,-18.849556,-26.710132));
#866 = CARTESIAN_POINT('',(100.,-9.424778,-30.));
#867 = CARTESIAN_POINT('',(100.,7.1054274E-15,-30.));
#868 = PCURVE('',#691,#869);
#869 = DEFINITIONAL_REPRESENTATION('',(#870),#873);
#870 = B_SPLINE_CURVE_WITH_KNOTS('',1,(#871,#872),.UNSPECIFIED.,.F.,.F.,
  (2,2),(0.,1.),.PIECEWISE_BEZIER_KNOTS.);
#871 = CARTESIAN_POINT('',(0.,1.));
#872 = CARTESIAN_POINT('',(1.,1.));
#873 = ( GEOMETRIC_REPRESENTATION_CONTEXT(2) 
PARAMETRIC_REPRESENTATION_CONTEXT() REPRESENTATION_CONTEXT('2D SPACE',''
  ) );
#874 = ORIENTED_EDGE('',*,*,#677,.F.);
#875 = ORIENTED_EDGE('',*,*,#876,.F.);
#876 = EDGE_CURVE('',#877,#126,#879,.T.);
#877 = VERTEX_POINT('',#878);
#878 = CARTESIAN_POINT('',(79.999748,-29.999748,-6.6398769E-04));
#879 = SURFACE_CURVE('',#880,(#895,#913),.PCURVE_S1.);
#880 = B_SPLINE_CURVE_WITH_KNOTS('',13,(#881,#882,#883,#884,#885,#886,
    #887,#888,#889,#890,#891,#892,#893,#894),.UNSPECIFIED.,.F.,.F.,(14,
    14),(0.,1.),.PIECEWISE_BEZIER_KNOTS.);
#881 = CARTESIAN_POINT('',(79.999748,-29.999748,-6.6398769E-04));
#882 = CARTESIAN_POINT('',(79.999793,-29.999793,2.0218708));
#883 = CARTESIAN_POINT('',(79.85234,-29.852341,4.0444142));
#884 = CARTESIAN_POINT('',(79.55739,-29.55739,6.1155953));
#885 = CARTESIAN_POINT('',(79.094543,-29.094544,8.2840435));
#886 = CARTESIAN_POINT('',(78.423002,-28.423002,10.59344));
#887 = CARTESIAN_POINT('',(77.480041,-27.480041,13.07757));
#888 = CARTESIAN_POINT('',(76.177952,-26.177952,15.755685));
#889 = CARTESIAN_POINT('',(74.397708,-24.397708,18.628488));
#890 = CARTESIAN_POINT('',(71.975836,-21.975836,21.663908));
#891 = CARTESIAN_POINT('',(68.686029,-18.686029,24.739518));
#892 = CARTESIAN_POINT('',(64.235598,-14.235598,27.570865));
#893 = CARTESIAN_POINT('',(58.261121,-8.2611207,29.993652));
#894 = CARTESIAN_POINT('',(50.,2.1262991E-12,30.));
#895 = PCURVE('',#691,#896);
#896 = DEFINITIONAL_REPRESENTATION('',(#897),#912);
#897 = B_SPLINE_CURVE_WITH_KNOTS('',13,(#898,#899,#900,#901,#902,#903,
    #904,#905,#906,#907,#908,#909,#910,#911),.UNSPECIFIED.,.F.,.F.,(14,
    14),(0.,1.),.PIECEWISE_BEZIER_KNOTS.);
#898 = CARTESIAN_POINT('',(0.50000704,0.79999748));
#899 = CARTESIAN_POINT('',(0.47854119,0.79999793));
#900 = CARTESIAN_POINT('',(0.45707528,0.79852341));
#901 = CARTESIAN_POINT('',(0.43497756,0.7955739));
#902 = CARTESIAN_POINT('',(0.41161627,0.79094544));
#903 = CARTESIAN_POINT('',(0.38633937,0.78423002));
#904 = CARTESIAN_POINT('',(0.3584542,0.77480041));
#905 = CARTESIAN_POINT('',(0.32723789,0.76177952));
#906 = CARTESIAN_POINT('',(0.292009,0.74397708));
#907 = CARTESIAN_POINT('',(0.25209521,0.71975836));
#908 = CARTESIAN_POINT('',(0.20613998,0.68686029));
#909 = CARTESIAN_POINT('',(0.15119565,0.64235598));
#910 = CARTESIAN_POINT('',(8.7635668E-02,0.58261121));
#911 = CARTESIAN_POINT('',(-9.169748294013E-13,0.5));
#912 = ( GEOMETRIC_REPRESENTATION_CONTEXT(2) 
PARAMETRIC_REPRESENTATION_CONTEXT() REPRESENTATION_CONTEXT('2D SPACE',''
  ) );
#913 = PCURVE('',#778,#914);
#914 = DEFINITIONAL_REPRESENTATION('',(#915),#930);
#915 = B_SPLINE_CURVE_WITH_KNOTS('',13,(#916,#917,#918,#919,#920,#921,
    #922,#923,#924,#925,#926,#927,#928,#929),.UNSPECIFIED.,.F.,.F.,(14,
    14),(0.,1.),.PIECEWISE_BEZIER_KNOTS.);
#916 = CARTESIAN_POINT('',(0.50000704,0.20000252));
#917 = CARTESIAN_POINT('',(0.47854119,0.20000207));
#918 = CARTESIAN_POINT('',(0.45707528,0.20147659));
#919 = CARTESIAN_POINT('',(0.43497756,0.2044261));
#920 = CARTESIAN_POINT('',(0.41161627,0.20905456));
#921 = CARTESIAN_POINT('',(0.38633937,0.21576998));
#922 = CARTESIAN_POINT('',(0.3584542,0.22519959));
#923 = CARTESIAN_POINT('',(0.32723789,0.23822048));
#924 = CARTESIAN_POINT('',(0.292009,0.25602292));
#925 = CARTESIAN_POINT('',(0.25209521,0.28024164));
#926 = CARTESIAN_POINT('',(0.20613998,0.31313971));
#927 = CARTESIAN_POINT('',(0.15119565,0.35764402));
#928 = CARTESIAN_POINT('',(8.7635668E-02,0.41738879));
#929 = CARTESIAN_POINT('',(-2.204486593271E-12,0.5));
#930 = ( GEOMETRIC_REPRESENTATION_CONTEXT(2) 
PARAMETRIC_REPRESENTATION_CONTEXT() REPRESENTATION_CONTEXT('2D SPACE',''
  ) );
#931 = ORIENTED_EDGE('',*,*,#932,.F.);
#932 = EDGE_CURVE('',#22,#877,#933,.T.);
#933 = SURFACE_CURVE('',#934,(#949,#967),.PCURVE_S1.);
#934 = B_SPLINE_CURVE_WITH_KNOTS('',13,(#935,#936,#937,#938,#939,#940,
    #941,#942,#943,#944,#945,#946,#947,#948),.UNSPECIFIED.,.F.,.F.,(14,
    14),(0.,1.),.PIECEWISE_BEZIER_KNOTS.);
#935 = CARTESIAN_POINT('',(50.,3.7599183E-14,-30.));
#936 = CARTESIAN_POINT('',(58.260742,-8.2607424,-29.993654));
#937 = CARTESIAN_POINT('',(64.235023,-14.235023,-27.571081));
#938 = CARTESIAN_POINT('',(68.685362,-18.685362,-24.739939));
#939 = CARTESIAN_POINT('',(71.975153,-21.975153,-21.664525));
#940 = CARTESIAN_POINT('',(74.397053,-24.397053,-18.629281));
#941 = CARTESIAN_POINT('',(76.177354,-26.177354,-15.756625));
#942 = CARTESIAN_POINT('',(77.479516,-27.479516,-13.078629));
#943 = CARTESIAN_POINT('',(78.422559,-28.422559,-10.594593));
#944 = CARTESIAN_POINT('',(79.094187,-29.094187,-8.2852675));
#945 = CARTESIAN_POINT('',(79.557122,-29.557122,-6.1168716));
#946 = CARTESIAN_POINT('',(79.852161,-29.852161,-4.0457249));
#947 = CARTESIAN_POINT('',(79.999704,-29.999704,-2.0231988));
#948 = CARTESIAN_POINT('',(79.999748,-29.999748,-6.6398769E-04));
#949 = PCURVE('',#691,#950);
#950 = DEFINITIONAL_REPRESENTATION('',(#951),#966);
#951 = B_SPLINE_CURVE_WITH_KNOTS('',13,(#952,#953,#954,#955,#956,#957,
    #958,#959,#960,#961,#962,#963,#964,#965),.UNSPECIFIED.,.F.,.F.,(14,
    14),(0.,1.),.PIECEWISE_BEZIER_KNOTS.);
#952 = CARTESIAN_POINT('',(1.,0.5));
#953 = CARTESIAN_POINT('',(0.91236833,0.58260742));
#954 = CARTESIAN_POINT('',(0.84881052,0.64235023));
#955 = CARTESIAN_POINT('',(0.79386806,0.68685362));
#956 = CARTESIAN_POINT('',(0.74791429,0.71975153));
#957 = CARTESIAN_POINT('',(0.70800163,0.74397053));
#958 = CARTESIAN_POINT('',(0.67277367,0.76177354));
#959 = CARTESIAN_POINT('',(0.64155813,0.77479516));
#960 = CARTESIAN_POINT('',(0.61367358,0.78422559));
#961 = CARTESIAN_POINT('',(0.58839714,0.79094187));
#962 = CARTESIAN_POINT('',(0.5650362,0.79557122));
#963 = CARTESIAN_POINT('',(0.5429387,0.79852161));
#964 = CARTESIAN_POINT('',(0.5214729,0.79999704));
#965 = CARTESIAN_POINT('',(0.50000704,0.79999748));
#966 = ( GEOMETRIC_REPRESENTATION_CONTEXT(2) 
PARAMETRIC_REPRESENTATION_CONTEXT() REPRESENTATION_CONTEXT('2D SPACE',''
  ) );
#967 = PCURVE('',#778,#968);
#968 = DEFINITIONAL_REPRESENTATION('',(#969),#984);
#969 = B_SPLINE_CURVE_WITH_KNOTS('',13,(#970,#971,#972,#973,#974,#975,
    #976,#977,#978,#979,#980,#981,#982,#983),.UNSPECIFIED.,.F.,.F.,(14,
    14),(0.,1.),.PIECEWISE_BEZIER_KNOTS.);
#970 = CARTESIAN_POINT('',(1.,0.5));
#971 = CARTESIAN_POINT('',(0.91236833,0.41739258));
#972 = CARTESIAN_POINT('',(0.84881052,0.35764977));
#973 = CARTESIAN_POINT('',(0.79386806,0.31314638));
#974 = CARTESIAN_POINT('',(0.74791429,0.28024847));
#975 = CARTESIAN_POINT('',(0.70800163,0.25602947));
#976 = CARTESIAN_POINT('',(0.67277367,0.23822646));
#977 = CARTESIAN_POINT('',(0.64155813,0.22520484));
#978 = CARTESIAN_POINT('',(0.61367358,0.21577441));
#979 = CARTESIAN_POINT('',(0.58839714,0.20905813));
#980 = CARTESIAN_POINT('',(0.5650362,0.20442878));
#981 = CARTESIAN_POINT('',(0.5429387,0.20147839));
#982 = CARTESIAN_POINT('',(0.5214729,0.20000296));
#983 = CARTESIAN_POINT('',(0.50000704,0.20000252));
#984 = ( GEOMETRIC_REPRESENTATION_CONTEXT(2) 
PARAMETRIC_REPRESENTATION_CONTEXT() REPRESENTATION_CONTEXT('2D SPACE',''
  ) );
#985 = ADVANCED_FACE('',(#986),#778,.T.);
#986 = FACE_BOUND('',#987,.T.);
#987 = EDGE_LOOP('',(#988,#989,#990,#991,#1012));
#988 = ORIENTED_EDGE('',*,*,#932,.T.);
#989 = ORIENTED_EDGE('',*,*,#876,.T.);
#990 = ORIENTED_EDGE('',*,*,#830,.T.);
#991 = ORIENTED_EDGE('',*,*,#992,.T.);
#992 = EDGE_CURVE('',#808,#765,#993,.T.);
#993 = SURFACE_CURVE('',#994,(#1006),.PCURVE_S1.);
#994 = B_SPLINE_CURVE_WITH_KNOTS('',10,(#995,#996,#997,#998,#999,#1000,
    #1001,#1002,#1003,#1004,#1005),.UNSPECIFIED.,.F.,.F.,(11,11),(0.,1.)
  ,.PIECEWISE_BEZIER_KNOTS.);
#995 = CARTESIAN_POINT('',(50.,-50.,30.));
#996 = CARTESIAN_POINT('',(59.424778,-50.,30.));
#997 = CARTESIAN_POINT('',(68.849556,-50.,26.710132));
#998 = CARTESIAN_POINT('',(76.982406,-50.,20.130396));
#999 = CARTESIAN_POINT('',(82.531399,-50.,10.840607));
#1000 = CARTESIAN_POINT('',(84.508199,-50.,-1.7763568E-15));
#1001 = CARTESIAN_POINT('',(82.531399,-50.,-10.840607));
#1002 = CARTESIAN_POINT('',(76.982406,-50.,-20.130396));
#1003 = CARTESIAN_POINT('',(68.849556,-50.,-26.710132));
#1004 = CARTESIAN_POINT('',(59.424778,-50.,-30.));
#1005 = CARTESIAN_POINT('',(50.,-50.,-30.));
#1006 = PCURVE('',#778,#1007);
#1007 = DEFINITIONAL_REPRESENTATION('',(#1008),#1011);
#1008 = B_SPLINE_CURVE_WITH_KNOTS('',1,(#1009,#1010),.UNSPECIFIED.,.F.,
  .F.,(2,2),(0.,1.),.PIECEWISE_BEZIER_KNOTS.);
#1009 = CARTESIAN_POINT('',(0.,0.));
#1010 = CARTESIAN_POINT('',(1.,0.));
#1011 = ( GEOMETRIC_REPRESENTATION_CONTEXT(2) 
PARAMETRIC_REPRESENTATION_CONTEXT() REPRESENTATION_CONTEXT('2D SPACE',''
  ) );
#1012 = ORIENTED_EDGE('',*,*,#764,.T.);
#1013 = ( GEOMETRIC_REPRESENTATION_CONTEXT(3) 
GLOBAL_UNCERTAINTY_ASSIGNED_CONTEXT((#1017)) 
GLOBAL_UNIT_ASSIGNED_CONTEXT((#1014,#1015,#1016)) REPRESENTATION_CONTEXT
('Context #1','3D Context with UNIT and UNCERTAINTY') );
#1014 = ( LENGTH_UNIT() NAMED_UNIT(*) SI_UNIT(.MILLI.,.METRE.) );
#1015 = ( NAMED_UNIT(*) PLANE_ANGLE_UNIT() SI_UNIT($,.RADIAN.) );
#1016 = ( NAMED_UNIT(*) SI_UNIT($,.STERADIAN.) SOLID_ANGLE_UNIT() );
#1017 = UNCERTAINTY_MEASURE_WITH_UNIT(LENGTH_MEASURE(1.E-03),#1014,
  'distance_accuracy_value','confusion accuracy');
#1018 = PRODUCT_RELATED_PRODUCT_CATEGORY('part',$,(#7));
ENDSEC;
END-ISO-10303-21;
