ISO-10303-21;
HEADER;
FILE_DESCRIPTION(('Open CASCADE Model'),'2;1');
FILE_NAME('Open CASCADE Shape Model','2026-07-11T20:16:08',('Author'),(
    'Open CASCADE'),'Open CASCADE STEP processor 8.0','Open CASCADE 8.0'
  ,'Unknown');
FILE_SCHEMA(('AUTOMOTIVE_DESIGN { 1 0 10303 214 1 1 1 1 }'));
ENDSEC;
DATA;
#1 = APPLICATION_PROTOCOL_DEFINITION('international standard',
  'automotive_design',2000,#2);
#2 = APPLICATION_CONTEXT(
  'core data for automotive mechanical design processes');
#3 = SHAPE_DEFINITION_REPRESENTATION(#4,#10);
#4 = PRODUCT_DEFINITION_SHAPE('','',#5);
#5 = PRODUCT_DEFINITION('design','',#6,#9);
#6 = PRODUCT_DEFINITION_FORMATION('','',#7);
#7 = PRODUCT('Open CASCADE STEP translator 8.0 1',
  'Open CASCADE STEP translator 8.0 1','',(#8));
#8 = PRODUCT_CONTEXT('',#2,'mechanical');
#9 = PRODUCT_DEFINITION_CONTEXT('part definition',#2,'design');
#10 = ADVANCED_BREP_SHAPE_REPRESENTATION('',(#11,#15),#545);
#11 = AXIS2_PLACEMENT_3D('',#12,#13,#14);
#12 = CARTESIAN_POINT('',(0.,0.,0.));
#13 = DIRECTION('',(0.,0.,1.));
#14 = DIRECTION('',(1.,0.,-0.));
#15 = MANIFOLD_SOLID_BREP('',#16);
#16 = CLOSED_SHELL('',(#17,#138,#218,#291,#342,#413,#459,#505,#531,#538)
  );
#17 = ADVANCED_FACE('',(#18),#32,.T.);
#18 = FACE_BOUND('',#19,.T.);
#19 = EDGE_LOOP('',(#20,#57,#84,#112));
#20 = ORIENTED_EDGE('',*,*,#21,.T.);
#21 = EDGE_CURVE('',#22,#24,#26,.T.);
#22 = VERTEX_POINT('',#23);
#23 = CARTESIAN_POINT('',(0.,0.,0.));
#24 = VERTEX_POINT('',#25);
#25 = CARTESIAN_POINT('',(50.,50.,-250.));
#26 = SURFACE_CURVE('',#27,(#31,#44),.PCURVE_S1.);
#27 = LINE('',#28,#29);
#28 = CARTESIAN_POINT('',(0.,0.,0.));
#29 = VECTOR('',#30,1.);
#30 = DIRECTION('',(0.19245008973,0.19245008973,-0.962250448649));
#31 = PCURVE('',#32,#39);
#32 = SURFACE_OF_LINEAR_EXTRUSION('',#33,#37);
#33 = B_SPLINE_CURVE_WITH_KNOTS('',2,(#34,#35,#36),.UNSPECIFIED.,.F.,.F.
  ,(3,3),(0.,1.),.PIECEWISE_BEZIER_KNOTS.);
#34 = CARTESIAN_POINT('',(0.,0.,0.));
#35 = CARTESIAN_POINT('',(250.,-50.,0.));
#36 = CARTESIAN_POINT('',(500.,0.,0.));
#37 = VECTOR('',#38,1.);
#38 = DIRECTION('',(-0.19245008973,-0.19245008973,0.962250448649));
#39 = DEFINITIONAL_REPRESENTATION('',(#40),#43);
#40 = B_SPLINE_CURVE_WITH_KNOTS('',1,(#41,#42),.UNSPECIFIED.,.F.,.F.,(2,
    2),(0.,259.80762113533),.PIECEWISE_BEZIER_KNOTS.);
#41 = CARTESIAN_POINT('',(0.,0.));
#42 = CARTESIAN_POINT('',(0.,-259.8076211353));
#43 = ( GEOMETRIC_REPRESENTATION_CONTEXT(2) 
PARAMETRIC_REPRESENTATION_CONTEXT() REPRESENTATION_CONTEXT('2D SPACE',''
  ) );
#44 = PCURVE('',#45,#52);
#45 = SURFACE_OF_LINEAR_EXTRUSION('',#46,#50);
#46 = B_SPLINE_CURVE_WITH_KNOTS('',2,(#47,#48,#49),.UNSPECIFIED.,.F.,.F.
  ,(3,3),(0.,1.),.PIECEWISE_BEZIER_KNOTS.);
#47 = CARTESIAN_POINT('',(0.,500.,0.));
#48 = CARTESIAN_POINT('',(100.,250.,0.));
#49 = CARTESIAN_POINT('',(0.,0.,0.));
#50 = VECTOR('',#51,1.);
#51 = DIRECTION('',(-0.19245008973,-0.19245008973,0.962250448649));
#52 = DEFINITIONAL_REPRESENTATION('',(#53),#56);
#53 = B_SPLINE_CURVE_WITH_KNOTS('',1,(#54,#55),.UNSPECIFIED.,.F.,.F.,(2,
    2),(0.,259.80762113533),.PIECEWISE_BEZIER_KNOTS.);
#54 = CARTESIAN_POINT('',(1.,0.));
#55 = CARTESIAN_POINT('',(1.,-259.8076211353));
#56 = ( GEOMETRIC_REPRESENTATION_CONTEXT(2) 
PARAMETRIC_REPRESENTATION_CONTEXT() REPRESENTATION_CONTEXT('2D SPACE',''
  ) );
#57 = ORIENTED_EDGE('',*,*,#58,.T.);
#58 = EDGE_CURVE('',#24,#59,#61,.T.);
#59 = VERTEX_POINT('',#60);
#60 = CARTESIAN_POINT('',(550.,50.,-250.));
#61 = SURFACE_CURVE('',#62,(#66,#72),.PCURVE_S1.);
#62 = B_SPLINE_CURVE_WITH_KNOTS('',2,(#63,#64,#65),.UNSPECIFIED.,.F.,.F.
  ,(3,3),(0.,1.),.PIECEWISE_BEZIER_KNOTS.);
#63 = CARTESIAN_POINT('',(50.,50.,-250.));
#64 = CARTESIAN_POINT('',(300.,0.,-250.));
#65 = CARTESIAN_POINT('',(550.,50.,-250.));
#66 = PCURVE('',#32,#67);
#67 = DEFINITIONAL_REPRESENTATION('',(#68),#71);
#68 = B_SPLINE_CURVE_WITH_KNOTS('',1,(#69,#70),.UNSPECIFIED.,.F.,.F.,(2,
    2),(0.,1.),.PIECEWISE_BEZIER_KNOTS.);
#69 = CARTESIAN_POINT('',(0.,-259.8076211353));
#70 = CARTESIAN_POINT('',(1.,-259.8076211353));
#71 = ( GEOMETRIC_REPRESENTATION_CONTEXT(2) 
PARAMETRIC_REPRESENTATION_CONTEXT() REPRESENTATION_CONTEXT('2D SPACE',''
  ) );
#72 = PCURVE('',#73,#78);
#73 = PLANE('',#74);
#74 = AXIS2_PLACEMENT_3D('',#75,#76,#77);
#75 = CARTESIAN_POINT('',(50.,50.,-250.));
#76 = DIRECTION('',(0.,0.,1.));
#77 = DIRECTION('',(0.980580675691,-0.196116135138,0.));
#78 = DEFINITIONAL_REPRESENTATION('',(#79),#83);
#79 = B_SPLINE_CURVE_WITH_KNOTS('',2,(#80,#81,#82),.UNSPECIFIED.,.F.,.F.
  ,(3,3),(0.,1.),.PIECEWISE_BEZIER_KNOTS.);
#80 = CARTESIAN_POINT('',(0.,0.));
#81 = CARTESIAN_POINT('',(254.95097567963,0.));
#82 = CARTESIAN_POINT('',(490.29033784546,98.058067569092));
#83 = ( GEOMETRIC_REPRESENTATION_CONTEXT(2) 
PARAMETRIC_REPRESENTATION_CONTEXT() REPRESENTATION_CONTEXT('2D SPACE',''
  ) );
#84 = ORIENTED_EDGE('',*,*,#85,.F.);
#85 = EDGE_CURVE('',#86,#59,#88,.T.);
#86 = VERTEX_POINT('',#87);
#87 = CARTESIAN_POINT('',(500.,0.,0.));
#88 = SURFACE_CURVE('',#89,(#93,#99),.PCURVE_S1.);
#89 = LINE('',#90,#91);
#90 = CARTESIAN_POINT('',(500.,0.,0.));
#91 = VECTOR('',#92,1.);
#92 = DIRECTION('',(0.19245008973,0.19245008973,-0.962250448649));
#93 = PCURVE('',#32,#94);
#94 = DEFINITIONAL_REPRESENTATION('',(#95),#98);
#95 = B_SPLINE_CURVE_WITH_KNOTS('',1,(#96,#97),.UNSPECIFIED.,.F.,.F.,(2,
    2),(0.,259.80762113533),.PIECEWISE_BEZIER_KNOTS.);
#96 = CARTESIAN_POINT('',(1.,0.));
#97 = CARTESIAN_POINT('',(1.,-259.8076211353));
#98 = ( GEOMETRIC_REPRESENTATION_CONTEXT(2) 
PARAMETRIC_REPRESENTATION_CONTEXT() REPRESENTATION_CONTEXT('2D SPACE',''
  ) );
#99 = PCURVE('',#100,#107);
#100 = SURFACE_OF_LINEAR_EXTRUSION('',#101,#105);
#101 = B_SPLINE_CURVE_WITH_KNOTS('',2,(#102,#103,#104),.UNSPECIFIED.,.F.
  ,.F.,(3,3),(0.,1.),.PIECEWISE_BEZIER_KNOTS.);
#102 = CARTESIAN_POINT('',(500.,0.,0.));
#103 = CARTESIAN_POINT('',(400.,250.,0.));
#104 = CARTESIAN_POINT('',(500.,500.,0.));
#105 = VECTOR('',#106,1.);
#106 = DIRECTION('',(-0.19245008973,-0.19245008973,0.962250448649));
#107 = DEFINITIONAL_REPRESENTATION('',(#108),#111);
#108 = B_SPLINE_CURVE_WITH_KNOTS('',1,(#109,#110),.UNSPECIFIED.,.F.,.F.,
  (2,2),(0.,259.80762113533),.PIECEWISE_BEZIER_KNOTS.);
#109 = CARTESIAN_POINT('',(0.,0.));
#110 = CARTESIAN_POINT('',(0.,-259.8076211353));
#111 = ( GEOMETRIC_REPRESENTATION_CONTEXT(2) 
PARAMETRIC_REPRESENTATION_CONTEXT() REPRESENTATION_CONTEXT('2D SPACE',''
  ) );
#112 = ORIENTED_EDGE('',*,*,#113,.F.);
#113 = EDGE_CURVE('',#22,#86,#114,.T.);
#114 = SURFACE_CURVE('',#115,(#119,#125),.PCURVE_S1.);
#115 = B_SPLINE_CURVE_WITH_KNOTS('',2,(#116,#117,#118),.UNSPECIFIED.,.F.
  ,.F.,(3,3),(0.,1.),.PIECEWISE_BEZIER_KNOTS.);
#116 = CARTESIAN_POINT('',(0.,0.,0.));
#117 = CARTESIAN_POINT('',(250.,-50.,0.));
#118 = CARTESIAN_POINT('',(500.,0.,0.));
#119 = PCURVE('',#32,#120);
#120 = DEFINITIONAL_REPRESENTATION('',(#121),#124);
#121 = B_SPLINE_CURVE_WITH_KNOTS('',1,(#122,#123),.UNSPECIFIED.,.F.,.F.,
  (2,2),(0.,1.),.PIECEWISE_BEZIER_KNOTS.);
#122 = CARTESIAN_POINT('',(0.,0.));
#123 = CARTESIAN_POINT('',(1.,0.));
#124 = ( GEOMETRIC_REPRESENTATION_CONTEXT(2) 
PARAMETRIC_REPRESENTATION_CONTEXT() REPRESENTATION_CONTEXT('2D SPACE',''
  ) );
#125 = PCURVE('',#126,#133);
#126 = SURFACE_OF_LINEAR_EXTRUSION('',#127,#131);
#127 = B_SPLINE_CURVE_WITH_KNOTS('',2,(#128,#129,#130),.UNSPECIFIED.,.F.
  ,.F.,(3,3),(0.,1.),.PIECEWISE_BEZIER_KNOTS.);
#128 = CARTESIAN_POINT('',(0.,0.,0.));
#129 = CARTESIAN_POINT('',(250.,-50.,0.));
#130 = CARTESIAN_POINT('',(500.,0.,0.));
#131 = VECTOR('',#132,1.);
#132 = DIRECTION('',(0.,-0.196116135138,-0.980580675691));
#133 = DEFINITIONAL_REPRESENTATION('',(#134),#137);
#134 = B_SPLINE_CURVE_WITH_KNOTS('',1,(#135,#136),.UNSPECIFIED.,.F.,.F.,
  (2,2),(0.,1.),.PIECEWISE_BEZIER_KNOTS.);
#135 = CARTESIAN_POINT('',(0.,0.));
#136 = CARTESIAN_POINT('',(1.,0.));
#137 = ( GEOMETRIC_REPRESENTATION_CONTEXT(2) 
PARAMETRIC_REPRESENTATION_CONTEXT() REPRESENTATION_CONTEXT('2D SPACE',''
  ) );
#138 = ADVANCED_FACE('',(#139),#45,.T.);
#139 = FACE_BOUND('',#140,.T.);
#140 = EDGE_LOOP('',(#141,#171,#191,#192));
#141 = ORIENTED_EDGE('',*,*,#142,.T.);
#142 = EDGE_CURVE('',#143,#145,#147,.T.);
#143 = VERTEX_POINT('',#144);
#144 = CARTESIAN_POINT('',(0.,500.,0.));
#145 = VERTEX_POINT('',#146);
#146 = CARTESIAN_POINT('',(50.,550.,-250.));
#147 = SURFACE_CURVE('',#148,(#152,#158),.PCURVE_S1.);
#148 = LINE('',#149,#150);
#149 = CARTESIAN_POINT('',(0.,500.,0.));
#150 = VECTOR('',#151,1.);
#151 = DIRECTION('',(0.19245008973,0.19245008973,-0.962250448649));
#152 = PCURVE('',#45,#153);
#153 = DEFINITIONAL_REPRESENTATION('',(#154),#157);
#154 = B_SPLINE_CURVE_WITH_KNOTS('',1,(#155,#156),.UNSPECIFIED.,.F.,.F.,
  (2,2),(0.,259.80762113533),.PIECEWISE_BEZIER_KNOTS.);
#155 = CARTESIAN_POINT('',(0.,0.));
#156 = CARTESIAN_POINT('',(0.,-259.8076211353));
#157 = ( GEOMETRIC_REPRESENTATION_CONTEXT(2) 
PARAMETRIC_REPRESENTATION_CONTEXT() REPRESENTATION_CONTEXT('2D SPACE',''
  ) );
#158 = PCURVE('',#159,#166);
#159 = SURFACE_OF_LINEAR_EXTRUSION('',#160,#164);
#160 = B_SPLINE_CURVE_WITH_KNOTS('',2,(#161,#162,#163),.UNSPECIFIED.,.F.
  ,.F.,(3,3),(0.,1.),.PIECEWISE_BEZIER_KNOTS.);
#161 = CARTESIAN_POINT('',(500.,500.,0.));
#162 = CARTESIAN_POINT('',(250.,500.,0.));
#163 = CARTESIAN_POINT('',(0.,500.,0.));
#164 = VECTOR('',#165,1.);
#165 = DIRECTION('',(-0.19245008973,-0.19245008973,0.962250448649));
#166 = DEFINITIONAL_REPRESENTATION('',(#167),#170);
#167 = B_SPLINE_CURVE_WITH_KNOTS('',1,(#168,#169),.UNSPECIFIED.,.F.,.F.,
  (2,2),(0.,259.80762113533),.PIECEWISE_BEZIER_KNOTS.);
#168 = CARTESIAN_POINT('',(1.,0.));
#169 = CARTESIAN_POINT('',(1.,-259.8076211353));
#170 = ( GEOMETRIC_REPRESENTATION_CONTEXT(2) 
PARAMETRIC_REPRESENTATION_CONTEXT() REPRESENTATION_CONTEXT('2D SPACE',''
  ) );
#171 = ORIENTED_EDGE('',*,*,#172,.T.);
#172 = EDGE_CURVE('',#145,#24,#173,.T.);
#173 = SURFACE_CURVE('',#174,(#178,#184),.PCURVE_S1.);
#174 = B_SPLINE_CURVE_WITH_KNOTS('',2,(#175,#176,#177),.UNSPECIFIED.,.F.
  ,.F.,(3,3),(0.,1.),.PIECEWISE_BEZIER_KNOTS.);
#175 = CARTESIAN_POINT('',(50.,550.,-250.));
#176 = CARTESIAN_POINT('',(150.,300.,-250.));
#177 = CARTESIAN_POINT('',(50.,50.,-250.));
#178 = PCURVE('',#45,#179);
#179 = DEFINITIONAL_REPRESENTATION('',(#180),#183);
#180 = B_SPLINE_CURVE_WITH_KNOTS('',1,(#181,#182),.UNSPECIFIED.,.F.,.F.,
  (2,2),(0.,1.),.PIECEWISE_BEZIER_KNOTS.);
#181 = CARTESIAN_POINT('',(0.,-259.8076211353));
#182 = CARTESIAN_POINT('',(1.,-259.8076211353));
#183 = ( GEOMETRIC_REPRESENTATION_CONTEXT(2) 
PARAMETRIC_REPRESENTATION_CONTEXT() REPRESENTATION_CONTEXT('2D SPACE',''
  ) );
#184 = PCURVE('',#73,#185);
#185 = DEFINITIONAL_REPRESENTATION('',(#186),#190);
#186 = B_SPLINE_CURVE_WITH_KNOTS('',2,(#187,#188,#189),.UNSPECIFIED.,.F.
  ,.F.,(3,3),(0.,1.),.PIECEWISE_BEZIER_KNOTS.);
#187 = CARTESIAN_POINT('',(-98.05806756909,490.29033784546));
#188 = CARTESIAN_POINT('',(49.029033784546,264.75678243654));
#189 = CARTESIAN_POINT('',(0.,0.));
#190 = ( GEOMETRIC_REPRESENTATION_CONTEXT(2) 
PARAMETRIC_REPRESENTATION_CONTEXT() REPRESENTATION_CONTEXT('2D SPACE',''
  ) );
#191 = ORIENTED_EDGE('',*,*,#21,.F.);
#192 = ORIENTED_EDGE('',*,*,#193,.F.);
#193 = EDGE_CURVE('',#143,#22,#194,.T.);
#194 = SURFACE_CURVE('',#195,(#199,#205),.PCURVE_S1.);
#195 = B_SPLINE_CURVE_WITH_KNOTS('',2,(#196,#197,#198),.UNSPECIFIED.,.F.
  ,.F.,(3,3),(0.,1.),.PIECEWISE_BEZIER_KNOTS.);
#196 = CARTESIAN_POINT('',(0.,500.,0.));
#197 = CARTESIAN_POINT('',(100.,250.,0.));
#198 = CARTESIAN_POINT('',(0.,0.,0.));
#199 = PCURVE('',#45,#200);
#200 = DEFINITIONAL_REPRESENTATION('',(#201),#204);
#201 = B_SPLINE_CURVE_WITH_KNOTS('',1,(#202,#203),.UNSPECIFIED.,.F.,.F.,
  (2,2),(0.,1.),.PIECEWISE_BEZIER_KNOTS.);
#202 = CARTESIAN_POINT('',(0.,0.));
#203 = CARTESIAN_POINT('',(1.,0.));
#204 = ( GEOMETRIC_REPRESENTATION_CONTEXT(2) 
PARAMETRIC_REPRESENTATION_CONTEXT() REPRESENTATION_CONTEXT('2D SPACE',''
  ) );
#205 = PCURVE('',#206,#213);
#206 = SURFACE_OF_LINEAR_EXTRUSION('',#207,#211);
#207 = B_SPLINE_CURVE_WITH_KNOTS('',2,(#208,#209,#210),.UNSPECIFIED.,.F.
  ,.F.,(3,3),(0.,1.),.PIECEWISE_BEZIER_KNOTS.);
#208 = CARTESIAN_POINT('',(0.,500.,0.));
#209 = CARTESIAN_POINT('',(100.,250.,0.));
#210 = CARTESIAN_POINT('',(0.,0.,0.));
#211 = VECTOR('',#212,1.);
#212 = DIRECTION('',(0.,-0.196116135138,-0.980580675691));
#213 = DEFINITIONAL_REPRESENTATION('',(#214),#217);
#214 = B_SPLINE_CURVE_WITH_KNOTS('',1,(#215,#216),.UNSPECIFIED.,.F.,.F.,
  (2,2),(0.,1.),.PIECEWISE_BEZIER_KNOTS.);
#215 = CARTESIAN_POINT('',(0.,0.));
#216 = CARTESIAN_POINT('',(1.,0.));
#217 = ( GEOMETRIC_REPRESENTATION_CONTEXT(2) 
PARAMETRIC_REPRESENTATION_CONTEXT() REPRESENTATION_CONTEXT('2D SPACE',''
  ) );
#218 = ADVANCED_FACE('',(#219),#159,.T.);
#219 = FACE_BOUND('',#220,.T.);
#220 = EDGE_LOOP('',(#221,#244,#264,#265));
#221 = ORIENTED_EDGE('',*,*,#222,.T.);
#222 = EDGE_CURVE('',#223,#225,#227,.T.);
#223 = VERTEX_POINT('',#224);
#224 = CARTESIAN_POINT('',(500.,500.,0.));
#225 = VERTEX_POINT('',#226);
#226 = CARTESIAN_POINT('',(550.,550.,-250.));
#227 = SURFACE_CURVE('',#228,(#232,#238),.PCURVE_S1.);
#228 = LINE('',#229,#230);
#229 = CARTESIAN_POINT('',(500.,500.,0.));
#230 = VECTOR('',#231,1.);
#231 = DIRECTION('',(0.19245008973,0.19245008973,-0.962250448649));
#232 = PCURVE('',#159,#233);
#233 = DEFINITIONAL_REPRESENTATION('',(#234),#237);
#234 = B_SPLINE_CURVE_WITH_KNOTS('',1,(#235,#236),.UNSPECIFIED.,.F.,.F.,
  (2,2),(0.,259.80762113533),.PIECEWISE_BEZIER_KNOTS.);
#235 = CARTESIAN_POINT('',(0.,0.));
#236 = CARTESIAN_POINT('',(0.,-259.8076211353));
#237 = ( GEOMETRIC_REPRESENTATION_CONTEXT(2) 
PARAMETRIC_REPRESENTATION_CONTEXT() REPRESENTATION_CONTEXT('2D SPACE',''
  ) );
#238 = PCURVE('',#100,#239);
#239 = DEFINITIONAL_REPRESENTATION('',(#240),#243);
#240 = B_SPLINE_CURVE_WITH_KNOTS('',1,(#241,#242),.UNSPECIFIED.,.F.,.F.,
  (2,2),(0.,259.80762113533),.PIECEWISE_BEZIER_KNOTS.);
#241 = CARTESIAN_POINT('',(1.,0.));
#242 = CARTESIAN_POINT('',(1.,-259.8076211353));
#243 = ( GEOMETRIC_REPRESENTATION_CONTEXT(2) 
PARAMETRIC_REPRESENTATION_CONTEXT() REPRESENTATION_CONTEXT('2D SPACE',''
  ) );
#244 = ORIENTED_EDGE('',*,*,#245,.T.);
#245 = EDGE_CURVE('',#225,#145,#246,.T.);
#246 = SURFACE_CURVE('',#247,(#251,#257),.PCURVE_S1.);
#247 = B_SPLINE_CURVE_WITH_KNOTS('',2,(#248,#249,#250),.UNSPECIFIED.,.F.
  ,.F.,(3,3),(0.,1.),.PIECEWISE_BEZIER_KNOTS.);
#248 = CARTESIAN_POINT('',(550.,550.,-250.));
#249 = CARTESIAN_POINT('',(300.,550.,-250.));
#250 = CARTESIAN_POINT('',(50.,550.,-250.));
#251 = PCURVE('',#159,#252);
#252 = DEFINITIONAL_REPRESENTATION('',(#253),#256);
#253 = B_SPLINE_CURVE_WITH_KNOTS('',1,(#254,#255),.UNSPECIFIED.,.F.,.F.,
  (2,2),(0.,1.),.PIECEWISE_BEZIER_KNOTS.);
#254 = CARTESIAN_POINT('',(0.,-259.8076211353));
#255 = CARTESIAN_POINT('',(1.,-259.8076211353));
#256 = ( GEOMETRIC_REPRESENTATION_CONTEXT(2) 
PARAMETRIC_REPRESENTATION_CONTEXT() REPRESENTATION_CONTEXT('2D SPACE',''
  ) );
#257 = PCURVE('',#73,#258);
#258 = DEFINITIONAL_REPRESENTATION('',(#259),#263);
#259 = B_SPLINE_CURVE_WITH_KNOTS('',2,(#260,#261,#262),.UNSPECIFIED.,.F.
  ,.F.,(3,3),(0.,1.),.PIECEWISE_BEZIER_KNOTS.);
#260 = CARTESIAN_POINT('',(392.23227027636,588.34840541455));
#261 = CARTESIAN_POINT('',(147.08710135363,539.31937163));
#262 = CARTESIAN_POINT('',(-98.05806756909,490.29033784546));
#263 = ( GEOMETRIC_REPRESENTATION_CONTEXT(2) 
PARAMETRIC_REPRESENTATION_CONTEXT() REPRESENTATION_CONTEXT('2D SPACE',''
  ) );
#264 = ORIENTED_EDGE('',*,*,#142,.F.);
#265 = ORIENTED_EDGE('',*,*,#266,.F.);
#266 = EDGE_CURVE('',#223,#143,#267,.T.);
#267 = SURFACE_CURVE('',#268,(#272,#278),.PCURVE_S1.);
#268 = B_SPLINE_CURVE_WITH_KNOTS('',2,(#269,#270,#271),.UNSPECIFIED.,.F.
  ,.F.,(3,3),(0.,1.),.PIECEWISE_BEZIER_KNOTS.);
#269 = CARTESIAN_POINT('',(500.,500.,0.));
#270 = CARTESIAN_POINT('',(250.,500.,0.));
#271 = CARTESIAN_POINT('',(0.,500.,0.));
#272 = PCURVE('',#159,#273);
#273 = DEFINITIONAL_REPRESENTATION('',(#274),#277);
#274 = B_SPLINE_CURVE_WITH_KNOTS('',1,(#275,#276),.UNSPECIFIED.,.F.,.F.,
  (2,2),(0.,1.),.PIECEWISE_BEZIER_KNOTS.);
#275 = CARTESIAN_POINT('',(0.,0.));
#276 = CARTESIAN_POINT('',(1.,0.));
#277 = ( GEOMETRIC_REPRESENTATION_CONTEXT(2) 
PARAMETRIC_REPRESENTATION_CONTEXT() REPRESENTATION_CONTEXT('2D SPACE',''
  ) );
#278 = PCURVE('',#279,#286);
#279 = SURFACE_OF_LINEAR_EXTRUSION('',#280,#284);
#280 = B_SPLINE_CURVE_WITH_KNOTS('',2,(#281,#282,#283),.UNSPECIFIED.,.F.
  ,.F.,(3,3),(0.,1.),.PIECEWISE_BEZIER_KNOTS.);
#281 = CARTESIAN_POINT('',(500.,500.,0.));
#282 = CARTESIAN_POINT('',(250.,500.,0.));
#283 = CARTESIAN_POINT('',(0.,500.,0.));
#284 = VECTOR('',#285,1.);
#285 = DIRECTION('',(0.,-0.196116135138,-0.980580675691));
#286 = DEFINITIONAL_REPRESENTATION('',(#287),#290);
#287 = B_SPLINE_CURVE_WITH_KNOTS('',1,(#288,#289),.UNSPECIFIED.,.F.,.F.,
  (2,2),(0.,1.),.PIECEWISE_BEZIER_KNOTS.);
#288 = CARTESIAN_POINT('',(0.,0.));
#289 = CARTESIAN_POINT('',(1.,0.));
#290 = ( GEOMETRIC_REPRESENTATION_CONTEXT(2) 
PARAMETRIC_REPRESENTATION_CONTEXT() REPRESENTATION_CONTEXT('2D SPACE',''
  ) );
#291 = ADVANCED_FACE('',(#292),#100,.T.);
#292 = FACE_BOUND('',#293,.T.);
#293 = EDGE_LOOP('',(#294,#295,#315,#316));
#294 = ORIENTED_EDGE('',*,*,#85,.T.);
#295 = ORIENTED_EDGE('',*,*,#296,.T.);
#296 = EDGE_CURVE('',#59,#225,#297,.T.);
#297 = SURFACE_CURVE('',#298,(#302,#308),.PCURVE_S1.);
#298 = B_SPLINE_CURVE_WITH_KNOTS('',2,(#299,#300,#301),.UNSPECIFIED.,.F.
  ,.F.,(3,3),(0.,1.),.PIECEWISE_BEZIER_KNOTS.);
#299 = CARTESIAN_POINT('',(550.,50.,-250.));
#300 = CARTESIAN_POINT('',(450.,300.,-250.));
#301 = CARTESIAN_POINT('',(550.,550.,-250.));
#302 = PCURVE('',#100,#303);
#303 = DEFINITIONAL_REPRESENTATION('',(#304),#307);
#304 = B_SPLINE_CURVE_WITH_KNOTS('',1,(#305,#306),.UNSPECIFIED.,.F.,.F.,
  (2,2),(0.,1.),.PIECEWISE_BEZIER_KNOTS.);
#305 = CARTESIAN_POINT('',(0.,-259.8076211353));
#306 = CARTESIAN_POINT('',(1.,-259.8076211353));
#307 = ( GEOMETRIC_REPRESENTATION_CONTEXT(2) 
PARAMETRIC_REPRESENTATION_CONTEXT() REPRESENTATION_CONTEXT('2D SPACE',''
  ) );
#308 = PCURVE('',#73,#309);
#309 = DEFINITIONAL_REPRESENTATION('',(#310),#314);
#310 = B_SPLINE_CURVE_WITH_KNOTS('',2,(#311,#312,#313),.UNSPECIFIED.,.F.
  ,.F.,(3,3),(0.,1.),.PIECEWISE_BEZIER_KNOTS.);
#311 = CARTESIAN_POINT('',(490.29033784546,98.058067569092));
#312 = CARTESIAN_POINT('',(343.20323649182,323.591622978));
#313 = CARTESIAN_POINT('',(392.23227027636,588.34840541455));
#314 = ( GEOMETRIC_REPRESENTATION_CONTEXT(2) 
PARAMETRIC_REPRESENTATION_CONTEXT() REPRESENTATION_CONTEXT('2D SPACE',''
  ) );
#315 = ORIENTED_EDGE('',*,*,#222,.F.);
#316 = ORIENTED_EDGE('',*,*,#317,.F.);
#317 = EDGE_CURVE('',#86,#223,#318,.T.);
#318 = SURFACE_CURVE('',#319,(#323,#329),.PCURVE_S1.);
#319 = B_SPLINE_CURVE_WITH_KNOTS('',2,(#320,#321,#322),.UNSPECIFIED.,.F.
  ,.F.,(3,3),(0.,1.),.PIECEWISE_BEZIER_KNOTS.);
#320 = CARTESIAN_POINT('',(500.,0.,0.));
#321 = CARTESIAN_POINT('',(400.,250.,0.));
#322 = CARTESIAN_POINT('',(500.,500.,0.));
#323 = PCURVE('',#100,#324);
#324 = DEFINITIONAL_REPRESENTATION('',(#325),#328);
#325 = B_SPLINE_CURVE_WITH_KNOTS('',1,(#326,#327),.UNSPECIFIED.,.F.,.F.,
  (2,2),(0.,1.),.PIECEWISE_BEZIER_KNOTS.);
#326 = CARTESIAN_POINT('',(0.,0.));
#327 = CARTESIAN_POINT('',(1.,0.));
#328 = ( GEOMETRIC_REPRESENTATION_CONTEXT(2) 
PARAMETRIC_REPRESENTATION_CONTEXT() REPRESENTATION_CONTEXT('2D SPACE',''
  ) );
#329 = PCURVE('',#330,#337);
#330 = SURFACE_OF_LINEAR_EXTRUSION('',#331,#335);
#331 = B_SPLINE_CURVE_WITH_KNOTS('',2,(#332,#333,#334),.UNSPECIFIED.,.F.
  ,.F.,(3,3),(0.,1.),.PIECEWISE_BEZIER_KNOTS.);
#332 = CARTESIAN_POINT('',(500.,0.,0.));
#333 = CARTESIAN_POINT('',(400.,250.,0.));
#334 = CARTESIAN_POINT('',(500.,500.,0.));
#335 = VECTOR('',#336,1.);
#336 = DIRECTION('',(0.,-0.196116135138,-0.980580675691));
#337 = DEFINITIONAL_REPRESENTATION('',(#338),#341);
#338 = B_SPLINE_CURVE_WITH_KNOTS('',1,(#339,#340),.UNSPECIFIED.,.F.,.F.,
  (2,2),(0.,1.),.PIECEWISE_BEZIER_KNOTS.);
#339 = CARTESIAN_POINT('',(0.,0.));
#340 = CARTESIAN_POINT('',(1.,0.));
#341 = ( GEOMETRIC_REPRESENTATION_CONTEXT(2) 
PARAMETRIC_REPRESENTATION_CONTEXT() REPRESENTATION_CONTEXT('2D SPACE',''
  ) );
#342 = ADVANCED_FACE('',(#343),#330,.F.);
#343 = FACE_BOUND('',#344,.F.);
#344 = EDGE_LOOP('',(#345,#366,#393,#412));
#345 = ORIENTED_EDGE('',*,*,#346,.T.);
#346 = EDGE_CURVE('',#86,#347,#349,.T.);
#347 = VERTEX_POINT('',#348);
#348 = CARTESIAN_POINT('',(500.,50.,250.));
#349 = SURFACE_CURVE('',#350,(#354,#360),.PCURVE_S1.);
#350 = LINE('',#351,#352);
#351 = CARTESIAN_POINT('',(500.,0.,0.));
#352 = VECTOR('',#353,1.);
#353 = DIRECTION('',(0.,0.196116135138,0.980580675691));
#354 = PCURVE('',#330,#355);
#355 = DEFINITIONAL_REPRESENTATION('',(#356),#359);
#356 = B_SPLINE_CURVE_WITH_KNOTS('',1,(#357,#358),.UNSPECIFIED.,.F.,.F.,
  (2,2),(0.,254.95097567963),.PIECEWISE_BEZIER_KNOTS.);
#357 = CARTESIAN_POINT('',(0.,0.));
#358 = CARTESIAN_POINT('',(0.,-254.9509756796));
#359 = ( GEOMETRIC_REPRESENTATION_CONTEXT(2) 
PARAMETRIC_REPRESENTATION_CONTEXT() REPRESENTATION_CONTEXT('2D SPACE',''
  ) );
#360 = PCURVE('',#126,#361);
#361 = DEFINITIONAL_REPRESENTATION('',(#362),#365);
#362 = B_SPLINE_CURVE_WITH_KNOTS('',1,(#363,#364),.UNSPECIFIED.,.F.,.F.,
  (2,2),(0.,254.95097567963),.PIECEWISE_BEZIER_KNOTS.);
#363 = CARTESIAN_POINT('',(1.,0.));
#364 = CARTESIAN_POINT('',(1.,-254.9509756796));
#365 = ( GEOMETRIC_REPRESENTATION_CONTEXT(2) 
PARAMETRIC_REPRESENTATION_CONTEXT() REPRESENTATION_CONTEXT('2D SPACE',''
  ) );
#366 = ORIENTED_EDGE('',*,*,#367,.T.);
#367 = EDGE_CURVE('',#347,#368,#370,.T.);
#368 = VERTEX_POINT('',#369);
#369 = CARTESIAN_POINT('',(500.,550.,250.));
#370 = SURFACE_CURVE('',#371,(#375,#381),.PCURVE_S1.);
#371 = B_SPLINE_CURVE_WITH_KNOTS('',2,(#372,#373,#374),.UNSPECIFIED.,.F.
  ,.F.,(3,3),(0.,1.),.PIECEWISE_BEZIER_KNOTS.);
#372 = CARTESIAN_POINT('',(500.,50.,250.));
#373 = CARTESIAN_POINT('',(400.,300.,250.));
#374 = CARTESIAN_POINT('',(500.,550.,250.));
#375 = PCURVE('',#330,#376);
#376 = DEFINITIONAL_REPRESENTATION('',(#377),#380);
#377 = B_SPLINE_CURVE_WITH_KNOTS('',1,(#378,#379),.UNSPECIFIED.,.F.,.F.,
  (2,2),(0.,1.),.PIECEWISE_BEZIER_KNOTS.);
#378 = CARTESIAN_POINT('',(0.,-254.9509756796));
#379 = CARTESIAN_POINT('',(1.,-254.9509756796));
#380 = ( GEOMETRIC_REPRESENTATION_CONTEXT(2) 
PARAMETRIC_REPRESENTATION_CONTEXT() REPRESENTATION_CONTEXT('2D SPACE',''
  ) );
#381 = PCURVE('',#382,#387);
#382 = PLANE('',#383);
#383 = AXIS2_PLACEMENT_3D('',#384,#385,#386);
#384 = CARTESIAN_POINT('',(0.,50.,250.));
#385 = DIRECTION('',(0.,0.,1.));
#386 = DIRECTION('',(0.980580675691,-0.196116135138,0.));
#387 = DEFINITIONAL_REPRESENTATION('',(#388),#392);
#388 = B_SPLINE_CURVE_WITH_KNOTS('',2,(#389,#390,#391),.UNSPECIFIED.,.F.
  ,.F.,(3,3),(0.,1.),.PIECEWISE_BEZIER_KNOTS.);
#389 = CARTESIAN_POINT('',(490.29033784546,98.058067569092));
#390 = CARTESIAN_POINT('',(343.20323649182,323.591622978));
#391 = CARTESIAN_POINT('',(392.23227027636,588.34840541455));
#392 = ( GEOMETRIC_REPRESENTATION_CONTEXT(2) 
PARAMETRIC_REPRESENTATION_CONTEXT() REPRESENTATION_CONTEXT('2D SPACE',''
  ) );
#393 = ORIENTED_EDGE('',*,*,#394,.F.);
#394 = EDGE_CURVE('',#223,#368,#395,.T.);
#395 = SURFACE_CURVE('',#396,(#400,#406),.PCURVE_S1.);
#396 = LINE('',#397,#398);
#397 = CARTESIAN_POINT('',(500.,500.,0.));
#398 = VECTOR('',#399,1.);
#399 = DIRECTION('',(0.,0.196116135138,0.980580675691));
#400 = PCURVE('',#330,#401);
#401 = DEFINITIONAL_REPRESENTATION('',(#402),#405);
#402 = B_SPLINE_CURVE_WITH_KNOTS('',1,(#403,#404),.UNSPECIFIED.,.F.,.F.,
  (2,2),(0.,254.95097567963),.PIECEWISE_BEZIER_KNOTS.);
#403 = CARTESIAN_POINT('',(1.,0.));
#404 = CARTESIAN_POINT('',(1.,-254.9509756796));
#405 = ( GEOMETRIC_REPRESENTATION_CONTEXT(2) 
PARAMETRIC_REPRESENTATION_CONTEXT() REPRESENTATION_CONTEXT('2D SPACE',''
  ) );
#406 = PCURVE('',#279,#407);
#407 = DEFINITIONAL_REPRESENTATION('',(#408),#411);
#408 = B_SPLINE_CURVE_WITH_KNOTS('',1,(#409,#410),.UNSPECIFIED.,.F.,.F.,
  (2,2),(0.,254.95097567963),.PIECEWISE_BEZIER_KNOTS.);
#409 = CARTESIAN_POINT('',(0.,0.));
#410 = CARTESIAN_POINT('',(0.,-254.9509756796));
#411 = ( GEOMETRIC_REPRESENTATION_CONTEXT(2) 
PARAMETRIC_REPRESENTATION_CONTEXT() REPRESENTATION_CONTEXT('2D SPACE',''
  ) );
#412 = ORIENTED_EDGE('',*,*,#317,.F.);
#413 = ADVANCED_FACE('',(#414),#126,.F.);
#414 = FACE_BOUND('',#415,.F.);
#415 = EDGE_LOOP('',(#416,#437,#457,#458));
#416 = ORIENTED_EDGE('',*,*,#417,.T.);
#417 = EDGE_CURVE('',#22,#418,#420,.T.);
#418 = VERTEX_POINT('',#419);
#419 = CARTESIAN_POINT('',(0.,50.,250.));
#420 = SURFACE_CURVE('',#421,(#425,#431),.PCURVE_S1.);
#421 = LINE('',#422,#423);
#422 = CARTESIAN_POINT('',(0.,0.,0.));
#423 = VECTOR('',#424,1.);
#424 = DIRECTION('',(0.,0.196116135138,0.980580675691));
#425 = PCURVE('',#126,#426);
#426 = DEFINITIONAL_REPRESENTATION('',(#427),#430);
#427 = B_SPLINE_CURVE_WITH_KNOTS('',1,(#428,#429),.UNSPECIFIED.,.F.,.F.,
  (2,2),(0.,254.95097567963),.PIECEWISE_BEZIER_KNOTS.);
#428 = CARTESIAN_POINT('',(0.,0.));
#429 = CARTESIAN_POINT('',(0.,-254.9509756796));
#430 = ( GEOMETRIC_REPRESENTATION_CONTEXT(2) 
PARAMETRIC_REPRESENTATION_CONTEXT() REPRESENTATION_CONTEXT('2D SPACE',''
  ) );
#431 = PCURVE('',#206,#432);
#432 = DEFINITIONAL_REPRESENTATION('',(#433),#436);
#433 = B_SPLINE_CURVE_WITH_KNOTS('',1,(#434,#435),.UNSPECIFIED.,.F.,.F.,
  (2,2),(0.,254.95097567963),.PIECEWISE_BEZIER_KNOTS.);
#434 = CARTESIAN_POINT('',(1.,0.));
#435 = CARTESIAN_POINT('',(1.,-254.9509756796));
#436 = ( GEOMETRIC_REPRESENTATION_CONTEXT(2) 
PARAMETRIC_REPRESENTATION_CONTEXT() REPRESENTATION_CONTEXT('2D SPACE',''
  ) );
#437 = ORIENTED_EDGE('',*,*,#438,.T.);
#438 = EDGE_CURVE('',#418,#347,#439,.T.);
#439 = SURFACE_CURVE('',#440,(#444,#450),.PCURVE_S1.);
#440 = B_SPLINE_CURVE_WITH_KNOTS('',2,(#441,#442,#443),.UNSPECIFIED.,.F.
  ,.F.,(3,3),(0.,1.),.PIECEWISE_BEZIER_KNOTS.);
#441 = CARTESIAN_POINT('',(0.,50.,250.));
#442 = CARTESIAN_POINT('',(250.,0.,250.));
#443 = CARTESIAN_POINT('',(500.,50.,250.));
#444 = PCURVE('',#126,#445);
#445 = DEFINITIONAL_REPRESENTATION('',(#446),#449);
#446 = B_SPLINE_CURVE_WITH_KNOTS('',1,(#447,#448),.UNSPECIFIED.,.F.,.F.,
  (2,2),(0.,1.),.PIECEWISE_BEZIER_KNOTS.);
#447 = CARTESIAN_POINT('',(0.,-254.9509756796));
#448 = CARTESIAN_POINT('',(1.,-254.9509756796));
#449 = ( GEOMETRIC_REPRESENTATION_CONTEXT(2) 
PARAMETRIC_REPRESENTATION_CONTEXT() REPRESENTATION_CONTEXT('2D SPACE',''
  ) );
#450 = PCURVE('',#382,#451);
#451 = DEFINITIONAL_REPRESENTATION('',(#452),#456);
#452 = B_SPLINE_CURVE_WITH_KNOTS('',2,(#453,#454,#455),.UNSPECIFIED.,.F.
  ,.F.,(3,3),(0.,1.),.PIECEWISE_BEZIER_KNOTS.);
#453 = CARTESIAN_POINT('',(0.,0.));
#454 = CARTESIAN_POINT('',(254.95097567963,0.));
#455 = CARTESIAN_POINT('',(490.29033784546,98.058067569092));
#456 = ( GEOMETRIC_REPRESENTATION_CONTEXT(2) 
PARAMETRIC_REPRESENTATION_CONTEXT() REPRESENTATION_CONTEXT('2D SPACE',''
  ) );
#457 = ORIENTED_EDGE('',*,*,#346,.F.);
#458 = ORIENTED_EDGE('',*,*,#113,.F.);
#459 = ADVANCED_FACE('',(#460),#206,.F.);
#460 = FACE_BOUND('',#461,.F.);
#461 = EDGE_LOOP('',(#462,#483,#503,#504));
#462 = ORIENTED_EDGE('',*,*,#463,.T.);
#463 = EDGE_CURVE('',#143,#464,#466,.T.);
#464 = VERTEX_POINT('',#465);
#465 = CARTESIAN_POINT('',(0.,550.,250.));
#466 = SURFACE_CURVE('',#467,(#471,#477),.PCURVE_S1.);
#467 = LINE('',#468,#469);
#468 = CARTESIAN_POINT('',(0.,500.,0.));
#469 = VECTOR('',#470,1.);
#470 = DIRECTION('',(0.,0.196116135138,0.980580675691));
#471 = PCURVE('',#206,#472);
#472 = DEFINITIONAL_REPRESENTATION('',(#473),#476);
#473 = B_SPLINE_CURVE_WITH_KNOTS('',1,(#474,#475),.UNSPECIFIED.,.F.,.F.,
  (2,2),(0.,254.95097567963),.PIECEWISE_BEZIER_KNOTS.);
#474 = CARTESIAN_POINT('',(0.,0.));
#475 = CARTESIAN_POINT('',(0.,-254.9509756796));
#476 = ( GEOMETRIC_REPRESENTATION_CONTEXT(2) 
PARAMETRIC_REPRESENTATION_CONTEXT() REPRESENTATION_CONTEXT('2D SPACE',''
  ) );
#477 = PCURVE('',#279,#478);
#478 = DEFINITIONAL_REPRESENTATION('',(#479),#482);
#479 = B_SPLINE_CURVE_WITH_KNOTS('',1,(#480,#481),.UNSPECIFIED.,.F.,.F.,
  (2,2),(0.,254.95097567963),.PIECEWISE_BEZIER_KNOTS.);
#480 = CARTESIAN_POINT('',(1.,0.));
#481 = CARTESIAN_POINT('',(1.,-254.9509756796));
#482 = ( GEOMETRIC_REPRESENTATION_CONTEXT(2) 
PARAMETRIC_REPRESENTATION_CONTEXT() REPRESENTATION_CONTEXT('2D SPACE',''
  ) );
#483 = ORIENTED_EDGE('',*,*,#484,.T.);
#484 = EDGE_CURVE('',#464,#418,#485,.T.);
#485 = SURFACE_CURVE('',#486,(#490,#496),.PCURVE_S1.);
#486 = B_SPLINE_CURVE_WITH_KNOTS('',2,(#487,#488,#489),.UNSPECIFIED.,.F.
  ,.F.,(3,3),(0.,1.),.PIECEWISE_BEZIER_KNOTS.);
#487 = CARTESIAN_POINT('',(0.,550.,250.));
#488 = CARTESIAN_POINT('',(100.,300.,250.));
#489 = CARTESIAN_POINT('',(0.,50.,250.));
#490 = PCURVE('',#206,#491);
#491 = DEFINITIONAL_REPRESENTATION('',(#492),#495);
#492 = B_SPLINE_CURVE_WITH_KNOTS('',1,(#493,#494),.UNSPECIFIED.,.F.,.F.,
  (2,2),(0.,1.),.PIECEWISE_BEZIER_KNOTS.);
#493 = CARTESIAN_POINT('',(0.,-254.9509756796));
#494 = CARTESIAN_POINT('',(1.,-254.9509756796));
#495 = ( GEOMETRIC_REPRESENTATION_CONTEXT(2) 
PARAMETRIC_REPRESENTATION_CONTEXT() REPRESENTATION_CONTEXT('2D SPACE',''
  ) );
#496 = PCURVE('',#382,#497);
#497 = DEFINITIONAL_REPRESENTATION('',(#498),#502);
#498 = B_SPLINE_CURVE_WITH_KNOTS('',2,(#499,#500,#501),.UNSPECIFIED.,.F.
  ,.F.,(3,3),(0.,1.),.PIECEWISE_BEZIER_KNOTS.);
#499 = CARTESIAN_POINT('',(-98.05806756909,490.29033784546));
#500 = CARTESIAN_POINT('',(49.029033784546,264.75678243654));
#501 = CARTESIAN_POINT('',(0.,0.));
#502 = ( GEOMETRIC_REPRESENTATION_CONTEXT(2) 
PARAMETRIC_REPRESENTATION_CONTEXT() REPRESENTATION_CONTEXT('2D SPACE',''
  ) );
#503 = ORIENTED_EDGE('',*,*,#417,.F.);
#504 = ORIENTED_EDGE('',*,*,#193,.F.);
#505 = ADVANCED_FACE('',(#506),#279,.F.);
#506 = FACE_BOUND('',#507,.F.);
#507 = EDGE_LOOP('',(#508,#509,#529,#530));
#508 = ORIENTED_EDGE('',*,*,#394,.T.);
#509 = ORIENTED_EDGE('',*,*,#510,.T.);
#510 = EDGE_CURVE('',#368,#464,#511,.T.);
#511 = SURFACE_CURVE('',#512,(#516,#522),.PCURVE_S1.);
#512 = B_SPLINE_CURVE_WITH_KNOTS('',2,(#513,#514,#515),.UNSPECIFIED.,.F.
  ,.F.,(3,3),(0.,1.),.PIECEWISE_BEZIER_KNOTS.);
#513 = CARTESIAN_POINT('',(500.,550.,250.));
#514 = CARTESIAN_POINT('',(250.,550.,250.));
#515 = CARTESIAN_POINT('',(0.,550.,250.));
#516 = PCURVE('',#279,#517);
#517 = DEFINITIONAL_REPRESENTATION('',(#518),#521);
#518 = B_SPLINE_CURVE_WITH_KNOTS('',1,(#519,#520),.UNSPECIFIED.,.F.,.F.,
  (2,2),(0.,1.),.PIECEWISE_BEZIER_KNOTS.);
#519 = CARTESIAN_POINT('',(0.,-254.9509756796));
#520 = CARTESIAN_POINT('',(1.,-254.9509756796));
#521 = ( GEOMETRIC_REPRESENTATION_CONTEXT(2) 
PARAMETRIC_REPRESENTATION_CONTEXT() REPRESENTATION_CONTEXT('2D SPACE',''
  ) );
#522 = PCURVE('',#382,#523);
#523 = DEFINITIONAL_REPRESENTATION('',(#524),#528);
#524 = B_SPLINE_CURVE_WITH_KNOTS('',2,(#525,#526,#527),.UNSPECIFIED.,.F.
  ,.F.,(3,3),(0.,1.),.PIECEWISE_BEZIER_KNOTS.);
#525 = CARTESIAN_POINT('',(392.23227027636,588.34840541455));
#526 = CARTESIAN_POINT('',(147.08710135363,539.31937163));
#527 = CARTESIAN_POINT('',(-98.05806756909,490.29033784546));
#528 = ( GEOMETRIC_REPRESENTATION_CONTEXT(2) 
PARAMETRIC_REPRESENTATION_CONTEXT() REPRESENTATION_CONTEXT('2D SPACE',''
  ) );
#529 = ORIENTED_EDGE('',*,*,#463,.F.);
#530 = ORIENTED_EDGE('',*,*,#266,.F.);
#531 = ADVANCED_FACE('',(#532),#382,.T.);
#532 = FACE_BOUND('',#533,.T.);
#533 = EDGE_LOOP('',(#534,#535,#536,#537));
#534 = ORIENTED_EDGE('',*,*,#438,.T.);
#535 = ORIENTED_EDGE('',*,*,#367,.T.);
#536 = ORIENTED_EDGE('',*,*,#510,.T.);
#537 = ORIENTED_EDGE('',*,*,#484,.T.);
#538 = ADVANCED_FACE('',(#539),#73,.F.);
#539 = FACE_BOUND('',#540,.F.);
#540 = EDGE_LOOP('',(#541,#542,#543,#544));
#541 = ORIENTED_EDGE('',*,*,#58,.T.);
#542 = ORIENTED_EDGE('',*,*,#296,.T.);
#543 = ORIENTED_EDGE('',*,*,#245,.T.);
#544 = ORIENTED_EDGE('',*,*,#172,.T.);
#545 = ( GEOMETRIC_REPRESENTATION_CONTEXT(3) 
GLOBAL_UNCERTAINTY_ASSIGNED_CONTEXT((#549)) GLOBAL_UNIT_ASSIGNED_CONTEXT
((#546,#547,#548)) REPRESENTATION_CONTEXT('Context #1',
  '3D Context with UNIT and UNCERTAINTY') );
#546 = ( LENGTH_UNIT() NAMED_UNIT(*) SI_UNIT(.MILLI.,.METRE.) );
#547 = ( NAMED_UNIT(*) PLANE_ANGLE_UNIT() SI_UNIT($,.RADIAN.) );
#548 = ( NAMED_UNIT(*) SI_UNIT($,.STERADIAN.) SOLID_ANGLE_UNIT() );
#549 = UNCERTAINTY_MEASURE_WITH_UNIT(LENGTH_MEASURE(5.E-07),#546,
  'distance_accuracy_value','confusion accuracy');
#550 = PRODUCT_RELATED_PRODUCT_CATEGORY('part',$,(#7));
ENDSEC;
END-ISO-10303-21;
