ISO-10303-21;
HEADER;
FILE_DESCRIPTION(('Open CASCADE Model'),'2;1');
FILE_NAME('Open CASCADE Shape Model','2026-07-11T20:16:08',('Author'),(
    'Open CASCADE'),'Open CASCADE STEP processor 8.0','Open CASCADE 8.0'
  ,'Unknown');
FILE_SCHEMA(('AUTOMOTIVE_DESIGN { 1 0 10303 214 1 1 1 1 }'));
ENDSEC;
DATA;
#1 = APPLICATION_PROTOCOL_DEFINITION('international standard',
  'automotive_design',2000,#2);
#2 = APPLICATION_CONTEXT(
  'core data for automotive mechanical design processes');
#3 = SHAPE_DEFINITION_REPRESENTATION(#4,#10);
#4 = PRODUCT_DEFINITION_SHAPE('','',#5);
#5 = PRODUCT_DEFINITION('design','',#6,#9);
#6 = PRODUCT_DEFINITION_FORMATION('','',#7);
#7 = PRODUCT('Open CASCADE STEP translator 8.0 1',
  'Open CASCADE STEP translator 8.0 1','',(#8));
#8 = PRODUCT_CONTEXT('',#2,'mechanical');
#9 = PRODUCT_DEFINITION_CONTEXT('part definition',#2,'design');
#10 = MANIFOLD_SURFACE_SHAPE_REPRESENTATION('',(#11,#15),#1015);
#11 = AXIS2_PLACEMENT_3D('',#12,#13,#14);
#12 = CARTESIAN_POINT('',(0.,0.,0.));
#13 = DIRECTION('',(0.,0.,1.));
#14 = DIRECTION('',(1.,0.,-0.));
#15 = SHELL_BASED_SURFACE_MODEL('',(#16));
#16 = OPEN_SHELL('',(#17,#176,#290,#358,#455,#566,#643,#709,#774,#839,
    #902,#968,#1001,#1008));
#17 = ADVANCED_FACE('',(#18),#31,.T.);
#18 = FACE_BOUND('',#19,.T.);
#19 = EDGE_LOOP('',(#20,#70,#104,#136));
#20 = ORIENTED_EDGE('',*,*,#21,.T.);
#21 = EDGE_CURVE('',#22,#24,#26,.T.);
#22 = VERTEX_POINT('',#23);
#23 = CARTESIAN_POINT('',(0.,500.,0.));
#24 = VERTEX_POINT('',#25);
#25 = CARTESIAN_POINT('',(50.,550.,-250.));
#26 = SURFACE_CURVE('',#27,(#30,#50),.PCURVE_S1.);
#27 = B_SPLINE_CURVE_WITH_KNOTS('',1,(#28,#29),.UNSPECIFIED.,.F.,.F.,(2,
    2),(0.,1.),.PIECEWISE_BEZIER_KNOTS.);
#28 = CARTESIAN_POINT('',(0.,500.,0.));
#29 = CARTESIAN_POINT('',(50.,550.,-250.));
#30 = PCURVE('',#31,#38);
#31 = B_SPLINE_SURFACE_WITH_KNOTS('',2,1,(
    (#32,#33)
    ,(#34,#35)
    ,(#36,#37)),.UNSPECIFIED.,.F.,.F.,.F.,(3,3),(2,2),(0.,1.),(0.,1.),
  .PIECEWISE_BEZIER_KNOTS.);
#32 = CARTESIAN_POINT('',(50.,550.,-250.));
#33 = CARTESIAN_POINT('',(2.0096225E-07,500.,-4.8112625E-09));
#34 = CARTESIAN_POINT('',(150.,300.,-250.));
#35 = CARTESIAN_POINT('',(100.,250.,-4.8112625E-09));
#36 = CARTESIAN_POINT('',(50.,50.,-250.));
#37 = CARTESIAN_POINT('',(2.00962225E-07,5.009622E-07,-4.8112625E-09));
#38 = DEFINITIONAL_REPRESENTATION('',(#39),#49);
#39 = B_SPLINE_CURVE_WITH_KNOTS('',8,(#40,#41,#42,#43,#44,#45,#46,#47,
    #48),.UNSPECIFIED.,.F.,.F.,(9,9),(0.,1.),.PIECEWISE_BEZIER_KNOTS.);
#40 = CARTESIAN_POINT('',(-9.9999995E-10,1.));
#41 = CARTESIAN_POINT('',(-1.0000005E-09,0.875));
#42 = CARTESIAN_POINT('',(-9.9999853E-10,0.75));
#43 = CARTESIAN_POINT('',(-1.0000023E-09,0.625));
#44 = CARTESIAN_POINT('',(-9.9999724E-10,0.5));
#45 = CARTESIAN_POINT('',(-1.0000019E-09,0.375));
#46 = CARTESIAN_POINT('',(-9.9999942E-10,0.25));
#47 = CARTESIAN_POINT('',(-9.999998E-10,0.125));
#48 = CARTESIAN_POINT('',(-9.9999995E-10,-1.942890293094E-16));
#49 = ( GEOMETRIC_REPRESENTATION_CONTEXT(2) 
PARAMETRIC_REPRESENTATION_CONTEXT() REPRESENTATION_CONTEXT('2D SPACE',''
  ) );
#50 = PCURVE('',#51,#58);
#51 = B_SPLINE_SURFACE_WITH_KNOTS('',2,1,(
    (#52,#53)
    ,(#54,#55)
    ,(#56,#57)),.UNSPECIFIED.,.F.,.F.,.F.,(3,3),(2,2),(0.,1.),(0.,1.),
  .PIECEWISE_BEZIER_KNOTS.);
#52 = CARTESIAN_POINT('',(550.,550.,-250.));
#53 = CARTESIAN_POINT('',(500.,500.,-4.8112625E-09));
#54 = CARTESIAN_POINT('',(300.,550.,-250.));
#55 = CARTESIAN_POINT('',(250.,500.,-4.8112625E-09));
#56 = CARTESIAN_POINT('',(50.,550.,-250.));
#57 = CARTESIAN_POINT('',(5.009622E-07,500.,-4.8112625E-09));
#58 = DEFINITIONAL_REPRESENTATION('',(#59),#69);
#59 = B_SPLINE_CURVE_WITH_KNOTS('',8,(#60,#61,#62,#63,#64,#65,#66,#67,
    #68),.UNSPECIFIED.,.F.,.F.,(9,9),(0.,1.),.PIECEWISE_BEZIER_KNOTS.);
#60 = CARTESIAN_POINT('',(1.,1.));
#61 = CARTESIAN_POINT('',(1.,0.875));
#62 = CARTESIAN_POINT('',(1.,0.75));
#63 = CARTESIAN_POINT('',(1.,0.625));
#64 = CARTESIAN_POINT('',(1.,0.5));
#65 = CARTESIAN_POINT('',(1.,0.375));
#66 = CARTESIAN_POINT('',(1.,0.25));
#67 = CARTESIAN_POINT('',(1.,0.125));
#68 = CARTESIAN_POINT('',(1.,1.665334536938E-16));
#69 = ( GEOMETRIC_REPRESENTATION_CONTEXT(2) 
PARAMETRIC_REPRESENTATION_CONTEXT() REPRESENTATION_CONTEXT('2D SPACE',''
  ) );
#70 = ORIENTED_EDGE('',*,*,#71,.T.);
#71 = EDGE_CURVE('',#24,#72,#74,.T.);
#72 = VERTEX_POINT('',#73);
#73 = CARTESIAN_POINT('',(50.,50.,-250.));
#74 = SURFACE_CURVE('',#75,(#79,#92),.PCURVE_S1.);
#75 = B_SPLINE_CURVE_WITH_KNOTS('',2,(#76,#77,#78),.UNSPECIFIED.,.F.,.F.
  ,(3,3),(0.,1.),.PIECEWISE_BEZIER_KNOTS.);
#76 = CARTESIAN_POINT('',(50.,550.,-250.));
#77 = CARTESIAN_POINT('',(150.,300.,-250.));
#78 = CARTESIAN_POINT('',(50.,50.,-250.));
#79 = PCURVE('',#31,#80);
#80 = DEFINITIONAL_REPRESENTATION('',(#81),#91);
#81 = B_SPLINE_CURVE_WITH_KNOTS('',8,(#82,#83,#84,#85,#86,#87,#88,#89,
    #90),.UNSPECIFIED.,.F.,.F.,(9,9),(0.,1.),.PIECEWISE_BEZIER_KNOTS.);
#82 = CARTESIAN_POINT('',(-6.4298914E-18,-1.9245272E-11));
#83 = CARTESIAN_POINT('',(0.125,-1.5608975E-11));
#84 = CARTESIAN_POINT('',(0.25,4.3761993E-11));
#85 = CARTESIAN_POINT('',(0.375,-2.1836643E-10));
#86 = CARTESIAN_POINT('',(0.5,3.5517953E-10));
#87 = CARTESIAN_POINT('',(0.625,-2.0940478E-10));
#88 = CARTESIAN_POINT('',(0.75,2.5838682E-11));
#89 = CARTESIAN_POINT('',(0.875,-1.728928600001E-11));
#90 = CARTESIAN_POINT('',(1.,-1.924513500003E-11));
#91 = ( GEOMETRIC_REPRESENTATION_CONTEXT(2) 
PARAMETRIC_REPRESENTATION_CONTEXT() REPRESENTATION_CONTEXT('2D SPACE',''
  ) );
#92 = PCURVE('',#93,#98);
#93 = B_SPLINE_SURFACE_WITH_KNOTS('',1,1,(
    (#94,#95)
    ,(#96,#97)),.UNSPECIFIED.,.F.,.F.,.F.,(2,2),(2,2),(0.,1.),(0.,1.),
  .PIECEWISE_BEZIER_KNOTS.);
#94 = CARTESIAN_POINT('',(-46.153846,69.23077,-250.));
#95 = CARTESIAN_POINT('',(69.23077,646.15385,-250.));
#96 = CARTESIAN_POINT('',(530.76925,-46.153846,-250.));
#97 = CARTESIAN_POINT('',(646.15385,530.76925,-250.));
#98 = DEFINITIONAL_REPRESENTATION('',(#99),#103);
#99 = B_SPLINE_CURVE_WITH_KNOTS('',2,(#100,#101,#102),.UNSPECIFIED.,.F.,
  .F.,(3,3),(0.,1.),.PIECEWISE_BEZIER_KNOTS.);
#100 = CARTESIAN_POINT('',(-8.4983132E-12,0.83333333));
#101 = CARTESIAN_POINT('',(0.25,0.45));
#102 = CARTESIAN_POINT('',(0.16666667,-8.498313164296E-12));
#103 = ( GEOMETRIC_REPRESENTATION_CONTEXT(2) 
PARAMETRIC_REPRESENTATION_CONTEXT() REPRESENTATION_CONTEXT('2D SPACE',''
  ) );
#104 = ORIENTED_EDGE('',*,*,#105,.F.);
#105 = EDGE_CURVE('',#106,#72,#108,.T.);
#106 = VERTEX_POINT('',#107);
#107 = CARTESIAN_POINT('',(0.,0.,0.));
#108 = SURFACE_CURVE('',#109,(#112,#125),.PCURVE_S1.);
#109 = B_SPLINE_CURVE_WITH_KNOTS('',1,(#110,#111),.UNSPECIFIED.,.F.,.F.,
  (2,2),(0.,1.),.PIECEWISE_BEZIER_KNOTS.);
#110 = CARTESIAN_POINT('',(0.,0.,0.));
#111 = CARTESIAN_POINT('',(50.,50.,-250.));
#112 = PCURVE('',#31,#113);
#113 = DEFINITIONAL_REPRESENTATION('',(#114),#124);
#114 = B_SPLINE_CURVE_WITH_KNOTS('',8,(#115,#116,#117,#118,#119,#120,
    #121,#122,#123),.UNSPECIFIED.,.F.,.F.,(9,9),(0.,1.),
  .PIECEWISE_BEZIER_KNOTS.);
#115 = CARTESIAN_POINT('',(1.,1.));
#116 = CARTESIAN_POINT('',(1.,0.875));
#117 = CARTESIAN_POINT('',(1.,0.75));
#118 = CARTESIAN_POINT('',(1.,0.625));
#119 = CARTESIAN_POINT('',(1.,0.5));
#120 = CARTESIAN_POINT('',(1.,0.375));
#121 = CARTESIAN_POINT('',(1.,0.25));
#122 = CARTESIAN_POINT('',(1.,0.125));
#123 = CARTESIAN_POINT('',(1.,-1.942890293094E-16));
#124 = ( GEOMETRIC_REPRESENTATION_CONTEXT(2) 
PARAMETRIC_REPRESENTATION_CONTEXT() REPRESENTATION_CONTEXT('2D SPACE',''
  ) );
#125 = PCURVE('',#126,#131);
#126 = B_SPLINE_SURFACE_WITH_KNOTS('',1,1,(
    (#127,#128)
    ,(#129,#130)),.UNSPECIFIED.,.F.,.F.,.F.,(2,2),(2,2),(0.,1.),(0.,1.),
  .PIECEWISE_BEZIER_KNOTS.);
#127 = CARTESIAN_POINT('',(7.735357E-10,-250.,-3.86767065E-09));
#128 = CARTESIAN_POINT('',(-9.2592595,-9.2592595,46.2962965));
#129 = CARTESIAN_POINT('',(59.25926,-190.74074,-296.296295));
#130 = CARTESIAN_POINT('',(50.,50.,-250.));
#131 = DEFINITIONAL_REPRESENTATION('',(#132),#135);
#132 = B_SPLINE_CURVE_WITH_KNOTS('',1,(#133,#134),.UNSPECIFIED.,.F.,.F.,
  (2,2),(0.,1.),.PIECEWISE_BEZIER_KNOTS.);
#133 = CARTESIAN_POINT('',(0.15625,1.));
#134 = CARTESIAN_POINT('',(1.,1.));
#135 = ( GEOMETRIC_REPRESENTATION_CONTEXT(2) 
PARAMETRIC_REPRESENTATION_CONTEXT() REPRESENTATION_CONTEXT('2D SPACE',''
  ) );
#136 = ORIENTED_EDGE('',*,*,#137,.F.);
#137 = EDGE_CURVE('',#22,#106,#138,.T.);
#138 = SURFACE_CURVE('',#139,(#143,#156),.PCURVE_S1.);
#139 = B_SPLINE_CURVE_WITH_KNOTS('',2,(#140,#141,#142),.UNSPECIFIED.,.F.
  ,.F.,(3,3),(0.,1.),.PIECEWISE_BEZIER_KNOTS.);
#140 = CARTESIAN_POINT('',(0.,500.,0.));
#141 = CARTESIAN_POINT('',(100.,250.,0.));
#142 = CARTESIAN_POINT('',(0.,0.,0.));
#143 = PCURVE('',#31,#144);
#144 = DEFINITIONAL_REPRESENTATION('',(#145),#155);
#145 = B_SPLINE_CURVE_WITH_KNOTS('',8,(#146,#147,#148,#149,#150,#151,
    #152,#153,#154),.UNSPECIFIED.,.F.,.F.,(9,9),(0.,1.),
  .PIECEWISE_BEZIER_KNOTS.);
#146 = CARTESIAN_POINT('',(5.5939634E-17,1.));
#147 = CARTESIAN_POINT('',(0.125,1.));
#148 = CARTESIAN_POINT('',(0.25,1.));
#149 = CARTESIAN_POINT('',(0.375,1.));
#150 = CARTESIAN_POINT('',(0.5,1.));
#151 = CARTESIAN_POINT('',(0.625,1.));
#152 = CARTESIAN_POINT('',(0.75,1.));
#153 = CARTESIAN_POINT('',(0.875,1.));
#154 = CARTESIAN_POINT('',(1.,1.));
#155 = ( GEOMETRIC_REPRESENTATION_CONTEXT(2) 
PARAMETRIC_REPRESENTATION_CONTEXT() REPRESENTATION_CONTEXT('2D SPACE',''
  ) );
#156 = PCURVE('',#157,#164);
#157 = B_SPLINE_SURFACE_WITH_KNOTS('',2,1,(
    (#158,#159)
    ,(#160,#161)
    ,(#162,#163)),.UNSPECIFIED.,.F.,.F.,.F.,(3,3),(2,2),(0.,1.),(0.,1.),
  .PIECEWISE_BEZIER_KNOTS.);
#158 = CARTESIAN_POINT('',(2.E-07,550.,250.));
#159 = CARTESIAN_POINT('',(2.E-07,500.,4.902887E-09));
#160 = CARTESIAN_POINT('',(100.,300.,250.));
#161 = CARTESIAN_POINT('',(100.,250.,4.902887E-09));
#162 = CARTESIAN_POINT('',(1.99999965E-07,50.,250.));
#163 = CARTESIAN_POINT('',(1.99999965E-07,5.0098055E-07,4.902887E-09));
#164 = DEFINITIONAL_REPRESENTATION('',(#165),#175);
#165 = B_SPLINE_CURVE_WITH_KNOTS('',8,(#166,#167,#168,#169,#170,#171,
    #172,#173,#174),.UNSPECIFIED.,.F.,.F.,(9,9),(0.,1.),
  .PIECEWISE_BEZIER_KNOTS.);
#166 = CARTESIAN_POINT('',(1.9185062E-17,1.));
#167 = CARTESIAN_POINT('',(0.125,1.));
#168 = CARTESIAN_POINT('',(0.25,1.));
#169 = CARTESIAN_POINT('',(0.375,1.));
#170 = CARTESIAN_POINT('',(0.5,1.));
#171 = CARTESIAN_POINT('',(0.625,1.));
#172 = CARTESIAN_POINT('',(0.75,1.));
#173 = CARTESIAN_POINT('',(0.875,1.));
#174 = CARTESIAN_POINT('',(1.,1.));
#175 = ( GEOMETRIC_REPRESENTATION_CONTEXT(2) 
PARAMETRIC_REPRESENTATION_CONTEXT() REPRESENTATION_CONTEXT('2D SPACE',''
  ) );
#176 = ADVANCED_FACE('',(#177),#51,.T.);
#177 = FACE_BOUND('',#178,.T.);
#178 = EDGE_LOOP('',(#179,#222,#249,#250));
#179 = ORIENTED_EDGE('',*,*,#180,.T.);
#180 = EDGE_CURVE('',#181,#183,#185,.T.);
#181 = VERTEX_POINT('',#182);
#182 = CARTESIAN_POINT('',(500.,500.,0.));
#183 = VERTEX_POINT('',#184);
#184 = CARTESIAN_POINT('',(550.,550.,-250.));
#185 = SURFACE_CURVE('',#186,(#189,#202),.PCURVE_S1.);
#186 = B_SPLINE_CURVE_WITH_KNOTS('',1,(#187,#188),.UNSPECIFIED.,.F.,.F.,
  (2,2),(0.,1.),.PIECEWISE_BEZIER_KNOTS.);
#187 = CARTESIAN_POINT('',(500.,500.,0.));
#188 = CARTESIAN_POINT('',(550.,550.,-250.));
#189 = PCURVE('',#51,#190);
#190 = DEFINITIONAL_REPRESENTATION('',(#191),#201);
#191 = B_SPLINE_CURVE_WITH_KNOTS('',8,(#192,#193,#194,#195,#196,#197,
    #198,#199,#200),.UNSPECIFIED.,.F.,.F.,(9,9),(0.,1.),
  .PIECEWISE_BEZIER_KNOTS.);
#192 = CARTESIAN_POINT('',(-9.9999995E-10,1.));
#193 = CARTESIAN_POINT('',(-1.0000006E-09,0.875));
#194 = CARTESIAN_POINT('',(-9.9999848E-10,0.75));
#195 = CARTESIAN_POINT('',(-1.0000023E-09,0.625));
#196 = CARTESIAN_POINT('',(-9.9999708E-10,0.5));
#197 = CARTESIAN_POINT('',(-1.0000021E-09,0.375));
#198 = CARTESIAN_POINT('',(-9.9999928E-10,0.25));
#199 = CARTESIAN_POINT('',(-9.9999976E-10,0.125));
#200 = CARTESIAN_POINT('',(-9.9999994E-10,-1.942890293094E-16));
#201 = ( GEOMETRIC_REPRESENTATION_CONTEXT(2) 
PARAMETRIC_REPRESENTATION_CONTEXT() REPRESENTATION_CONTEXT('2D SPACE',''
  ) );
#202 = PCURVE('',#203,#210);
#203 = B_SPLINE_SURFACE_WITH_KNOTS('',2,1,(
    (#204,#205)
    ,(#206,#207)
    ,(#208,#209)),.UNSPECIFIED.,.F.,.F.,.F.,(3,3),(2,2),(0.,1.),(0.,1.),
  .PIECEWISE_BEZIER_KNOTS.);
#204 = CARTESIAN_POINT('',(550.,50.,-250.));
#205 = CARTESIAN_POINT('',(500.,5.0096225E-07,-4.8112625E-09));
#206 = CARTESIAN_POINT('',(450.,300.,-250.));
#207 = CARTESIAN_POINT('',(400.,250.,-4.8112625E-09));
#208 = CARTESIAN_POINT('',(550.,550.,-250.));
#209 = CARTESIAN_POINT('',(500.,500.,-4.8112625E-09));
#210 = DEFINITIONAL_REPRESENTATION('',(#211),#221);
#211 = B_SPLINE_CURVE_WITH_KNOTS('',8,(#212,#213,#214,#215,#216,#217,
    #218,#219,#220),.UNSPECIFIED.,.F.,.F.,(9,9),(0.,1.),
  .PIECEWISE_BEZIER_KNOTS.);
#212 = CARTESIAN_POINT('',(1.,1.));
#213 = CARTESIAN_POINT('',(1.,0.875));
#214 = CARTESIAN_POINT('',(1.,0.75));
#215 = CARTESIAN_POINT('',(1.,0.625));
#216 = CARTESIAN_POINT('',(1.,0.5));
#217 = CARTESIAN_POINT('',(1.,0.375));
#218 = CARTESIAN_POINT('',(1.,0.25));
#219 = CARTESIAN_POINT('',(1.,0.125));
#220 = CARTESIAN_POINT('',(1.,-1.942890293094E-16));
#221 = ( GEOMETRIC_REPRESENTATION_CONTEXT(2) 
PARAMETRIC_REPRESENTATION_CONTEXT() REPRESENTATION_CONTEXT('2D SPACE',''
  ) );
#222 = ORIENTED_EDGE('',*,*,#223,.T.);
#223 = EDGE_CURVE('',#183,#24,#224,.T.);
#224 = SURFACE_CURVE('',#225,(#229,#242),.PCURVE_S1.);
#225 = B_SPLINE_CURVE_WITH_KNOTS('',2,(#226,#227,#228),.UNSPECIFIED.,.F.
  ,.F.,(3,3),(0.,1.),.PIECEWISE_BEZIER_KNOTS.);
#226 = CARTESIAN_POINT('',(550.,550.,-250.));
#227 = CARTESIAN_POINT('',(300.,550.,-250.));
#228 = CARTESIAN_POINT('',(50.,550.,-250.));
#229 = PCURVE('',#51,#230);
#230 = DEFINITIONAL_REPRESENTATION('',(#231),#241);
#231 = B_SPLINE_CURVE_WITH_KNOTS('',8,(#232,#233,#234,#235,#236,#237,
    #238,#239,#240),.UNSPECIFIED.,.F.,.F.,(9,9),(0.,1.),
  .PIECEWISE_BEZIER_KNOTS.);
#232 = CARTESIAN_POINT('',(-5.1946091E-17,-1.9245272E-11));
#233 = CARTESIAN_POINT('',(0.125,-1.0568181E-11));
#234 = CARTESIAN_POINT('',(0.25,5.6748202E-12));
#235 = CARTESIAN_POINT('',(0.375,-1.3771167E-10));
#236 = CARTESIAN_POINT('',(0.5,5.9444754E-11));
#237 = CARTESIAN_POINT('',(0.625,-1.3771167E-10));
#238 = CARTESIAN_POINT('',(0.75,-1.2248491E-11));
#239 = CARTESIAN_POINT('',(0.875,-1.2248491E-11));
#240 = CARTESIAN_POINT('',(1.,-1.924527199999E-11));
#241 = ( GEOMETRIC_REPRESENTATION_CONTEXT(2) 
PARAMETRIC_REPRESENTATION_CONTEXT() REPRESENTATION_CONTEXT('2D SPACE',''
  ) );
#242 = PCURVE('',#93,#243);
#243 = DEFINITIONAL_REPRESENTATION('',(#244),#248);
#244 = B_SPLINE_CURVE_WITH_KNOTS('',2,(#245,#246,#247),.UNSPECIFIED.,.F.
  ,.F.,(3,3),(0.,1.),.PIECEWISE_BEZIER_KNOTS.);
#245 = CARTESIAN_POINT('',(0.83333333,1.));
#246 = CARTESIAN_POINT('',(0.41666667,0.91666667));
#247 = CARTESIAN_POINT('',(-8.498313164296E-12,0.83333333));
#248 = ( GEOMETRIC_REPRESENTATION_CONTEXT(2) 
PARAMETRIC_REPRESENTATION_CONTEXT() REPRESENTATION_CONTEXT('2D SPACE',''
  ) );
#249 = ORIENTED_EDGE('',*,*,#21,.F.);
#250 = ORIENTED_EDGE('',*,*,#251,.F.);
#251 = EDGE_CURVE('',#181,#22,#252,.T.);
#252 = SURFACE_CURVE('',#253,(#257,#270),.PCURVE_S1.);
#253 = B_SPLINE_CURVE_WITH_KNOTS('',2,(#254,#255,#256),.UNSPECIFIED.,.F.
  ,.F.,(3,3),(0.,1.),.PIECEWISE_BEZIER_KNOTS.);
#254 = CARTESIAN_POINT('',(500.,500.,0.));
#255 = CARTESIAN_POINT('',(250.,500.,0.));
#256 = CARTESIAN_POINT('',(0.,500.,0.));
#257 = PCURVE('',#51,#258);
#258 = DEFINITIONAL_REPRESENTATION('',(#259),#269);
#259 = B_SPLINE_CURVE_WITH_KNOTS('',8,(#260,#261,#262,#263,#264,#265,
    #266,#267,#268),.UNSPECIFIED.,.F.,.F.,(9,9),(0.,1.),
  .PIECEWISE_BEZIER_KNOTS.);
#260 = CARTESIAN_POINT('',(5.7368176E-17,1.));
#261 = CARTESIAN_POINT('',(0.125,1.));
#262 = CARTESIAN_POINT('',(0.25,1.));
#263 = CARTESIAN_POINT('',(0.375,1.));
#264 = CARTESIAN_POINT('',(0.5,1.));
#265 = CARTESIAN_POINT('',(0.625,1.));
#266 = CARTESIAN_POINT('',(0.75,1.));
#267 = CARTESIAN_POINT('',(0.875,1.));
#268 = CARTESIAN_POINT('',(1.,1.));
#269 = ( GEOMETRIC_REPRESENTATION_CONTEXT(2) 
PARAMETRIC_REPRESENTATION_CONTEXT() REPRESENTATION_CONTEXT('2D SPACE',''
  ) );
#270 = PCURVE('',#271,#278);
#271 = B_SPLINE_SURFACE_WITH_KNOTS('',2,1,(
    (#272,#273)
    ,(#274,#275)
    ,(#276,#277)),.UNSPECIFIED.,.F.,.F.,.F.,(3,3),(2,2),(0.,1.),(0.,1.),
  .PIECEWISE_BEZIER_KNOTS.);
#272 = CARTESIAN_POINT('',(500.,550.,250.));
#273 = CARTESIAN_POINT('',(500.,500.,4.902887E-09));
#274 = CARTESIAN_POINT('',(250.,550.,250.));
#275 = CARTESIAN_POINT('',(250.,500.,4.902887E-09));
#276 = CARTESIAN_POINT('',(4.9999997E-07,550.,250.));
#277 = CARTESIAN_POINT('',(4.9999997E-07,500.,4.902887E-09));
#278 = DEFINITIONAL_REPRESENTATION('',(#279),#289);
#279 = B_SPLINE_CURVE_WITH_KNOTS('',8,(#280,#281,#282,#283,#284,#285,
    #286,#287,#288),.UNSPECIFIED.,.F.,.F.,(9,9),(0.,1.),
  .PIECEWISE_BEZIER_KNOTS.);
#280 = CARTESIAN_POINT('',(5.7368176E-17,1.));
#281 = CARTESIAN_POINT('',(0.125,1.));
#282 = CARTESIAN_POINT('',(0.25,1.));
#283 = CARTESIAN_POINT('',(0.375,1.));
#284 = CARTESIAN_POINT('',(0.5,1.));
#285 = CARTESIAN_POINT('',(0.625,1.));
#286 = CARTESIAN_POINT('',(0.75,1.));
#287 = CARTESIAN_POINT('',(0.875,1.));
#288 = CARTESIAN_POINT('',(1.,1.));
#289 = ( GEOMETRIC_REPRESENTATION_CONTEXT(2) 
PARAMETRIC_REPRESENTATION_CONTEXT() REPRESENTATION_CONTEXT('2D SPACE',''
  ) );
#290 = ADVANCED_FACE('',(#291),#93,.F.);
#291 = FACE_BOUND('',#292,.T.);
#292 = EDGE_LOOP('',(#293,#294,#295,#324));
#293 = ORIENTED_EDGE('',*,*,#71,.F.);
#294 = ORIENTED_EDGE('',*,*,#223,.F.);
#295 = ORIENTED_EDGE('',*,*,#296,.F.);
#296 = EDGE_CURVE('',#297,#183,#299,.T.);
#297 = VERTEX_POINT('',#298);
#298 = CARTESIAN_POINT('',(550.,50.,-250.));
#299 = SURFACE_CURVE('',#300,(#304,#311),.PCURVE_S1.);
#300 = B_SPLINE_CURVE_WITH_KNOTS('',2,(#301,#302,#303),.UNSPECIFIED.,.F.
  ,.F.,(3,3),(0.,1.),.PIECEWISE_BEZIER_KNOTS.);
#301 = CARTESIAN_POINT('',(550.,50.,-250.));
#302 = CARTESIAN_POINT('',(450.,300.,-250.));
#303 = CARTESIAN_POINT('',(550.,550.,-250.));
#304 = PCURVE('',#93,#305);
#305 = DEFINITIONAL_REPRESENTATION('',(#306),#310);
#306 = B_SPLINE_CURVE_WITH_KNOTS('',2,(#307,#308,#309),.UNSPECIFIED.,.F.
  ,.F.,(3,3),(0.,1.),.PIECEWISE_BEZIER_KNOTS.);
#307 = CARTESIAN_POINT('',(1.,0.16666667));
#308 = CARTESIAN_POINT('',(0.75,0.55));
#309 = CARTESIAN_POINT('',(0.83333333,1.));
#310 = ( GEOMETRIC_REPRESENTATION_CONTEXT(2) 
PARAMETRIC_REPRESENTATION_CONTEXT() REPRESENTATION_CONTEXT('2D SPACE',''
  ) );
#311 = PCURVE('',#203,#312);
#312 = DEFINITIONAL_REPRESENTATION('',(#313),#323);
#313 = B_SPLINE_CURVE_WITH_KNOTS('',8,(#314,#315,#316,#317,#318,#319,
    #320,#321,#322),.UNSPECIFIED.,.F.,.F.,(9,9),(0.,1.),
  .PIECEWISE_BEZIER_KNOTS.);
#314 = CARTESIAN_POINT('',(1.1956751E-16,-1.924505E-11));
#315 = CARTESIAN_POINT('',(0.125,-6.0872676E-12));
#316 = CARTESIAN_POINT('',(0.25,5.6749055E-12));
#317 = CARTESIAN_POINT('',(0.375,-6.601834E-11));
#318 = CARTESIAN_POINT('',(0.5,5.9444839E-11));
#319 = CARTESIAN_POINT('',(0.625,-6.601834E-11));
#320 = CARTESIAN_POINT('',(0.75,-4.8095028E-11));
#321 = CARTESIAN_POINT('',(0.875,-7.767578000002E-12));
#322 = CARTESIAN_POINT('',(1.,-1.924518700001E-11));
#323 = ( GEOMETRIC_REPRESENTATION_CONTEXT(2) 
PARAMETRIC_REPRESENTATION_CONTEXT() REPRESENTATION_CONTEXT('2D SPACE',''
  ) );
#324 = ORIENTED_EDGE('',*,*,#325,.F.);
#325 = EDGE_CURVE('',#72,#297,#326,.T.);
#326 = SURFACE_CURVE('',#327,(#331,#338),.PCURVE_S1.);
#327 = B_SPLINE_CURVE_WITH_KNOTS('',2,(#328,#329,#330),.UNSPECIFIED.,.F.
  ,.F.,(3,3),(0.,1.),.PIECEWISE_BEZIER_KNOTS.);
#328 = CARTESIAN_POINT('',(50.,50.,-250.));
#329 = CARTESIAN_POINT('',(300.,0.,-250.));
#330 = CARTESIAN_POINT('',(550.,50.,-250.));
#331 = PCURVE('',#93,#332);
#332 = DEFINITIONAL_REPRESENTATION('',(#333),#337);
#333 = B_SPLINE_CURVE_WITH_KNOTS('',2,(#334,#335,#336),.UNSPECIFIED.,.F.
  ,.F.,(3,3),(0.,1.),.PIECEWISE_BEZIER_KNOTS.);
#334 = CARTESIAN_POINT('',(0.16666667,-8.4983659E-12));
#335 = CARTESIAN_POINT('',(0.6,-8.4983659E-12));
#336 = CARTESIAN_POINT('',(1.,0.16666667));
#337 = ( GEOMETRIC_REPRESENTATION_CONTEXT(2) 
PARAMETRIC_REPRESENTATION_CONTEXT() REPRESENTATION_CONTEXT('2D SPACE',''
  ) );
#338 = PCURVE('',#339,#346);
#339 = B_SPLINE_SURFACE_WITH_KNOTS('',2,1,(
    (#340,#341)
    ,(#342,#343)
    ,(#344,#345)),.UNSPECIFIED.,.F.,.F.,.F.,(3,3),(2,2),(0.,1.),(0.,1.),
  .PIECEWISE_BEZIER_KNOTS.);
#340 = CARTESIAN_POINT('',(50.,-200.,-250.));
#341 = CARTESIAN_POINT('',(50.,50.,-250.));
#342 = CARTESIAN_POINT('',(300.,-250.,-250.));
#343 = CARTESIAN_POINT('',(300.,9.5000025E-08,-250.));
#344 = CARTESIAN_POINT('',(550.,-200.,-250.));
#345 = CARTESIAN_POINT('',(550.,50.,-250.));
#346 = DEFINITIONAL_REPRESENTATION('',(#347),#357);
#347 = B_SPLINE_CURVE_WITH_KNOTS('',8,(#348,#349,#350,#351,#352,#353,
    #354,#355,#356),.UNSPECIFIED.,.F.,.F.,(9,9),(0.,1.),
  .PIECEWISE_BEZIER_KNOTS.);
#348 = CARTESIAN_POINT('',(3.9974711E-18,1.));
#349 = CARTESIAN_POINT('',(0.125,1.));
#350 = CARTESIAN_POINT('',(0.25,1.));
#351 = CARTESIAN_POINT('',(0.375,1.));
#352 = CARTESIAN_POINT('',(0.5,1.));
#353 = CARTESIAN_POINT('',(0.625,1.));
#354 = CARTESIAN_POINT('',(0.75,1.));
#355 = CARTESIAN_POINT('',(0.875,1.));
#356 = CARTESIAN_POINT('',(1.,1.));
#357 = ( GEOMETRIC_REPRESENTATION_CONTEXT(2) 
PARAMETRIC_REPRESENTATION_CONTEXT() REPRESENTATION_CONTEXT('2D SPACE',''
  ) );
#358 = ADVANCED_FACE('',(#359),#126,.F.);
#359 = FACE_BOUND('',#360,.T.);
#360 = EDGE_LOOP('',(#361,#362,#389,#423));
#361 = ORIENTED_EDGE('',*,*,#105,.T.);
#362 = ORIENTED_EDGE('',*,*,#363,.T.);
#363 = EDGE_CURVE('',#72,#364,#366,.T.);
#364 = VERTEX_POINT('',#365);
#365 = CARTESIAN_POINT('',(50.,-200.,-250.));
#366 = SURFACE_CURVE('',#367,(#370,#376),.PCURVE_S1.);
#367 = B_SPLINE_CURVE_WITH_KNOTS('',1,(#368,#369),.UNSPECIFIED.,.F.,.F.,
  (2,2),(0.,1.),.PIECEWISE_BEZIER_KNOTS.);
#368 = CARTESIAN_POINT('',(50.,50.,-250.));
#369 = CARTESIAN_POINT('',(50.,-200.,-250.));
#370 = PCURVE('',#126,#371);
#371 = DEFINITIONAL_REPRESENTATION('',(#372),#375);
#372 = B_SPLINE_CURVE_WITH_KNOTS('',1,(#373,#374),.UNSPECIFIED.,.F.,.F.,
  (2,2),(0.,1.),.PIECEWISE_BEZIER_KNOTS.);
#373 = CARTESIAN_POINT('',(1.,1.));
#374 = CARTESIAN_POINT('',(0.84375,-2.038058610765E-11));
#375 = ( GEOMETRIC_REPRESENTATION_CONTEXT(2) 
PARAMETRIC_REPRESENTATION_CONTEXT() REPRESENTATION_CONTEXT('2D SPACE',''
  ) );
#376 = PCURVE('',#339,#377);
#377 = DEFINITIONAL_REPRESENTATION('',(#378),#388);
#378 = B_SPLINE_CURVE_WITH_KNOTS('',8,(#379,#380,#381,#382,#383,#384,
    #385,#386,#387),.UNSPECIFIED.,.F.,.F.,(9,9),(0.,1.),
  .PIECEWISE_BEZIER_KNOTS.);
#379 = CARTESIAN_POINT('',(-1.E-09,1.));
#380 = CARTESIAN_POINT('',(-1.E-09,0.875));
#381 = CARTESIAN_POINT('',(-1.E-09,0.75));
#382 = CARTESIAN_POINT('',(-1.E-09,0.625));
#383 = CARTESIAN_POINT('',(-1.E-09,0.5));
#384 = CARTESIAN_POINT('',(-1.E-09,0.375));
#385 = CARTESIAN_POINT('',(-1.E-09,0.25));
#386 = CARTESIAN_POINT('',(-1.E-09,0.125));
#387 = CARTESIAN_POINT('',(-1.E-09,-5.551115123126E-17));
#388 = ( GEOMETRIC_REPRESENTATION_CONTEXT(2) 
PARAMETRIC_REPRESENTATION_CONTEXT() REPRESENTATION_CONTEXT('2D SPACE',''
  ) );
#389 = ORIENTED_EDGE('',*,*,#390,.F.);
#390 = EDGE_CURVE('',#391,#364,#393,.T.);
#391 = VERTEX_POINT('',#392);
#392 = CARTESIAN_POINT('',(0.,-250.,0.));
#393 = SURFACE_CURVE('',#394,(#397,#403),.PCURVE_S1.);
#394 = B_SPLINE_CURVE_WITH_KNOTS('',1,(#395,#396),.UNSPECIFIED.,.F.,.F.,
  (2,2),(0.,1.),.PIECEWISE_BEZIER_KNOTS.);
#395 = CARTESIAN_POINT('',(0.,-250.,0.));
#396 = CARTESIAN_POINT('',(50.,-200.,-250.));
#397 = PCURVE('',#126,#398);
#398 = DEFINITIONAL_REPRESENTATION('',(#399),#402);
#399 = B_SPLINE_CURVE_WITH_KNOTS('',1,(#400,#401),.UNSPECIFIED.,.F.,.F.,
  (2,2),(0.,1.),.PIECEWISE_BEZIER_KNOTS.);
#400 = CARTESIAN_POINT('',(-1.6237983E-11,-2.0380808E-11));
#401 = CARTESIAN_POINT('',(0.84375,-2.0380808E-11));
#402 = ( GEOMETRIC_REPRESENTATION_CONTEXT(2) 
PARAMETRIC_REPRESENTATION_CONTEXT() REPRESENTATION_CONTEXT('2D SPACE',''
  ) );
#403 = PCURVE('',#404,#411);
#404 = B_SPLINE_SURFACE_WITH_KNOTS('',2,1,(
    (#405,#406)
    ,(#407,#408)
    ,(#409,#410)),.UNSPECIFIED.,.F.,.F.,.F.,(3,3),(2,2),(0.,1.),(0.,1.),
  .PIECEWISE_BEZIER_KNOTS.);
#405 = CARTESIAN_POINT('',(50.,-200.,-250.));
#406 = CARTESIAN_POINT('',(5.0096225E-07,-250.,-4.8112625E-09));
#407 = CARTESIAN_POINT('',(300.,-250.,-250.));
#408 = CARTESIAN_POINT('',(250.,-300.,-4.8112625E-09));
#409 = CARTESIAN_POINT('',(550.,-200.,-250.));
#410 = CARTESIAN_POINT('',(500.,-250.,-4.8112625E-09));
#411 = DEFINITIONAL_REPRESENTATION('',(#412),#422);
#412 = B_SPLINE_CURVE_WITH_KNOTS('',8,(#413,#414,#415,#416,#417,#418,
    #419,#420,#421),.UNSPECIFIED.,.F.,.F.,(9,9),(0.,1.),
  .PIECEWISE_BEZIER_KNOTS.);
#413 = CARTESIAN_POINT('',(-9.9999998E-10,1.));
#414 = CARTESIAN_POINT('',(-9.9999999E-10,0.875));
#415 = CARTESIAN_POINT('',(-9.9999991E-10,0.75));
#416 = CARTESIAN_POINT('',(-1.0000003E-09,0.625));
#417 = CARTESIAN_POINT('',(-9.9999951E-10,0.5));
#418 = CARTESIAN_POINT('',(-1.0000004E-09,0.375));
#419 = CARTESIAN_POINT('',(-9.9999977E-10,0.25));
#420 = CARTESIAN_POINT('',(-1.0000001E-09,0.125));
#421 = CARTESIAN_POINT('',(-9.9999998E-10,-1.942890293094E-16));
#422 = ( GEOMETRIC_REPRESENTATION_CONTEXT(2) 
PARAMETRIC_REPRESENTATION_CONTEXT() REPRESENTATION_CONTEXT('2D SPACE',''
  ) );
#423 = ORIENTED_EDGE('',*,*,#424,.F.);
#424 = EDGE_CURVE('',#106,#391,#425,.T.);
#425 = SURFACE_CURVE('',#426,(#429,#435),.PCURVE_S1.);
#426 = B_SPLINE_CURVE_WITH_KNOTS('',1,(#427,#428),.UNSPECIFIED.,.F.,.F.,
  (2,2),(0.,1.),.PIECEWISE_BEZIER_KNOTS.);
#427 = CARTESIAN_POINT('',(0.,0.,0.));
#428 = CARTESIAN_POINT('',(0.,-250.,0.));
#429 = PCURVE('',#126,#430);
#430 = DEFINITIONAL_REPRESENTATION('',(#431),#434);
#431 = B_SPLINE_CURVE_WITH_KNOTS('',1,(#432,#433),.UNSPECIFIED.,.F.,.F.,
  (2,2),(0.,1.),.PIECEWISE_BEZIER_KNOTS.);
#432 = CARTESIAN_POINT('',(0.15625,1.));
#433 = CARTESIAN_POINT('',(-1.623798318029E-11,-2.038080815225E-11));
#434 = ( GEOMETRIC_REPRESENTATION_CONTEXT(2) 
PARAMETRIC_REPRESENTATION_CONTEXT() REPRESENTATION_CONTEXT('2D SPACE',''
  ) );
#435 = PCURVE('',#436,#443);
#436 = B_SPLINE_SURFACE_WITH_KNOTS('',2,1,(
    (#437,#438)
    ,(#439,#440)
    ,(#441,#442)),.UNSPECIFIED.,.F.,.F.,.F.,(3,3),(2,2),(0.,1.),(0.,1.),
  .PIECEWISE_BEZIER_KNOTS.);
#437 = CARTESIAN_POINT('',(5.E-07,-250.,0.));
#438 = CARTESIAN_POINT('',(5.E-07,-1.0499999E-07,0.));
#439 = CARTESIAN_POINT('',(250.,-300.,0.));
#440 = CARTESIAN_POINT('',(250.,-50.,0.));
#441 = CARTESIAN_POINT('',(500.,-250.,0.));
#442 = CARTESIAN_POINT('',(500.,-1.0499999E-07,0.));
#443 = DEFINITIONAL_REPRESENTATION('',(#444),#454);
#444 = B_SPLINE_CURVE_WITH_KNOTS('',8,(#445,#446,#447,#448,#449,#450,
    #451,#452,#453),.UNSPECIFIED.,.F.,.F.,(9,9),(0.,1.),
  .PIECEWISE_BEZIER_KNOTS.);
#445 = CARTESIAN_POINT('',(-1.E-09,1.));
#446 = CARTESIAN_POINT('',(-1.E-09,0.875));
#447 = CARTESIAN_POINT('',(-1.E-09,0.75));
#448 = CARTESIAN_POINT('',(-1.E-09,0.625));
#449 = CARTESIAN_POINT('',(-1.E-09,0.5));
#450 = CARTESIAN_POINT('',(-1.E-09,0.375));
#451 = CARTESIAN_POINT('',(-1.E-09,0.25));
#452 = CARTESIAN_POINT('',(-1.E-09,0.125));
#453 = CARTESIAN_POINT('',(-1.E-09,-1.942890293094E-16));
#454 = ( GEOMETRIC_REPRESENTATION_CONTEXT(2) 
PARAMETRIC_REPRESENTATION_CONTEXT() REPRESENTATION_CONTEXT('2D SPACE',''
  ) );
#455 = ADVANCED_FACE('',(#456),#157,.F.);
#456 = FACE_BOUND('',#457,.T.);
#457 = EDGE_LOOP('',(#458,#459,#500,#534));
#458 = ORIENTED_EDGE('',*,*,#137,.T.);
#459 = ORIENTED_EDGE('',*,*,#460,.T.);
#460 = EDGE_CURVE('',#106,#461,#463,.T.);
#461 = VERTEX_POINT('',#462);
#462 = CARTESIAN_POINT('',(0.,50.,250.));
#463 = SURFACE_CURVE('',#464,(#467,#480),.PCURVE_S1.);
#464 = B_SPLINE_CURVE_WITH_KNOTS('',1,(#465,#466),.UNSPECIFIED.,.F.,.F.,
  (2,2),(0.,1.),.PIECEWISE_BEZIER_KNOTS.);
#465 = CARTESIAN_POINT('',(0.,0.,0.));
#466 = CARTESIAN_POINT('',(0.,50.,250.));
#467 = PCURVE('',#157,#468);
#468 = DEFINITIONAL_REPRESENTATION('',(#469),#479);
#469 = B_SPLINE_CURVE_WITH_KNOTS('',8,(#470,#471,#472,#473,#474,#475,
    #476,#477,#478),.UNSPECIFIED.,.F.,.F.,(9,9),(0.,1.),
  .PIECEWISE_BEZIER_KNOTS.);
#470 = CARTESIAN_POINT('',(1.,1.));
#471 = CARTESIAN_POINT('',(1.,0.875));
#472 = CARTESIAN_POINT('',(1.,0.75));
#473 = CARTESIAN_POINT('',(1.,0.625));
#474 = CARTESIAN_POINT('',(1.,0.5));
#475 = CARTESIAN_POINT('',(1.,0.375));
#476 = CARTESIAN_POINT('',(1.,0.25));
#477 = CARTESIAN_POINT('',(1.,0.125));
#478 = CARTESIAN_POINT('',(1.,6.938893903907E-17));
#479 = ( GEOMETRIC_REPRESENTATION_CONTEXT(2) 
PARAMETRIC_REPRESENTATION_CONTEXT() REPRESENTATION_CONTEXT('2D SPACE',''
  ) );
#480 = PCURVE('',#481,#488);
#481 = B_SPLINE_SURFACE_WITH_KNOTS('',2,1,(
    (#482,#483)
    ,(#484,#485)
    ,(#486,#487)),.UNSPECIFIED.,.F.,.F.,.F.,(3,3),(2,2),(0.,1.),(0.,1.),
  .PIECEWISE_BEZIER_KNOTS.);
#482 = CARTESIAN_POINT('',(5.E-07,50.,250.));
#483 = CARTESIAN_POINT('',(5.E-07,-9.9019415E-08,4.902887E-09));
#484 = CARTESIAN_POINT('',(250.,9.901939E-08,250.));
#485 = CARTESIAN_POINT('',(250.,-50.,4.902887E-09));
#486 = CARTESIAN_POINT('',(500.,50.,250.));
#487 = CARTESIAN_POINT('',(500.,-9.9019395E-08,4.902887E-09));
#488 = DEFINITIONAL_REPRESENTATION('',(#489),#499);
#489 = B_SPLINE_CURVE_WITH_KNOTS('',8,(#490,#491,#492,#493,#494,#495,
    #496,#497,#498),.UNSPECIFIED.,.F.,.F.,(9,9),(0.,1.),
  .PIECEWISE_BEZIER_KNOTS.);
#490 = CARTESIAN_POINT('',(-1.E-09,1.));
#491 = CARTESIAN_POINT('',(-1.E-09,0.875));
#492 = CARTESIAN_POINT('',(-9.9999999E-10,0.75));
#493 = CARTESIAN_POINT('',(-1.E-09,0.625));
#494 = CARTESIAN_POINT('',(-9.9999996E-10,0.5));
#495 = CARTESIAN_POINT('',(-1.E-09,0.375));
#496 = CARTESIAN_POINT('',(-1.E-09,0.25));
#497 = CARTESIAN_POINT('',(-1.E-09,0.125));
#498 = CARTESIAN_POINT('',(-1.E-09,1.110223024625E-16));
#499 = ( GEOMETRIC_REPRESENTATION_CONTEXT(2) 
PARAMETRIC_REPRESENTATION_CONTEXT() REPRESENTATION_CONTEXT('2D SPACE',''
  ) );
#500 = ORIENTED_EDGE('',*,*,#501,.F.);
#501 = EDGE_CURVE('',#502,#461,#504,.T.);
#502 = VERTEX_POINT('',#503);
#503 = CARTESIAN_POINT('',(0.,550.,250.));
#504 = SURFACE_CURVE('',#505,(#509,#522),.PCURVE_S1.);
#505 = B_SPLINE_CURVE_WITH_KNOTS('',2,(#506,#507,#508),.UNSPECIFIED.,.F.
  ,.F.,(3,3),(0.,1.),.PIECEWISE_BEZIER_KNOTS.);
#506 = CARTESIAN_POINT('',(0.,550.,250.));
#507 = CARTESIAN_POINT('',(100.,300.,250.));
#508 = CARTESIAN_POINT('',(0.,50.,250.));
#509 = PCURVE('',#157,#510);
#510 = DEFINITIONAL_REPRESENTATION('',(#511),#521);
#511 = B_SPLINE_CURVE_WITH_KNOTS('',8,(#512,#513,#514,#515,#516,#517,
    #518,#519,#520),.UNSPECIFIED.,.F.,.F.,(9,9),(0.,1.),
  .PIECEWISE_BEZIER_KNOTS.);
#512 = CARTESIAN_POINT('',(2.1911394E-20,-1.9612312E-11));
#513 = CARTESIAN_POINT('',(0.125,-2.603532E-11));
#514 = CARTESIAN_POINT('',(0.25,7.9101411E-13));
#515 = CARTESIAN_POINT('',(0.375,-7.6834124E-11));
#516 = CARTESIAN_POINT('',(0.5,-2.5034914E-10));
#517 = CARTESIAN_POINT('',(0.625,-4.0304647E-11));
#518 = CARTESIAN_POINT('',(0.75,-3.5738463E-11));
#519 = CARTESIAN_POINT('',(0.875,-2.603532E-11));
#520 = CARTESIAN_POINT('',(1.,-1.9612312E-11));
#521 = ( GEOMETRIC_REPRESENTATION_CONTEXT(2) 
PARAMETRIC_REPRESENTATION_CONTEXT() REPRESENTATION_CONTEXT('2D SPACE',''
  ) );
#522 = PCURVE('',#523,#528);
#523 = B_SPLINE_SURFACE_WITH_KNOTS('',1,1,(
    (#524,#525)
    ,(#526,#527)),.UNSPECIFIED.,.F.,.F.,.F.,(2,2),(2,2),(0.,1.),(0.,1.),
  .PIECEWISE_BEZIER_KNOTS.);
#524 = CARTESIAN_POINT('',(-96.153845,69.23077,250.));
#525 = CARTESIAN_POINT('',(19.230769,646.15385,250.));
#526 = CARTESIAN_POINT('',(480.76923,-46.153846,250.));
#527 = CARTESIAN_POINT('',(596.15385,530.76925,250.));
#528 = DEFINITIONAL_REPRESENTATION('',(#529),#533);
#529 = B_SPLINE_CURVE_WITH_KNOTS('',2,(#530,#531,#532),.UNSPECIFIED.,.F.
  ,.F.,(3,3),(0.,1.),.PIECEWISE_BEZIER_KNOTS.);
#530 = CARTESIAN_POINT('',(-8.4983132E-12,0.83333333));
#531 = CARTESIAN_POINT('',(0.25,0.45));
#532 = CARTESIAN_POINT('',(0.16666667,-8.498368675447E-12));
#533 = ( GEOMETRIC_REPRESENTATION_CONTEXT(2) 
PARAMETRIC_REPRESENTATION_CONTEXT() REPRESENTATION_CONTEXT('2D SPACE',''
  ) );
#534 = ORIENTED_EDGE('',*,*,#535,.F.);
#535 = EDGE_CURVE('',#22,#502,#536,.T.);
#536 = SURFACE_CURVE('',#537,(#540,#553),.PCURVE_S1.);
#537 = B_SPLINE_CURVE_WITH_KNOTS('',1,(#538,#539),.UNSPECIFIED.,.F.,.F.,
  (2,2),(0.,1.),.PIECEWISE_BEZIER_KNOTS.);
#538 = CARTESIAN_POINT('',(0.,500.,0.));
#539 = CARTESIAN_POINT('',(0.,550.,250.));
#540 = PCURVE('',#157,#541);
#541 = DEFINITIONAL_REPRESENTATION('',(#542),#552);
#542 = B_SPLINE_CURVE_WITH_KNOTS('',8,(#543,#544,#545,#546,#547,#548,
    #549,#550,#551),.UNSPECIFIED.,.F.,.F.,(9,9),(0.,1.),
  .PIECEWISE_BEZIER_KNOTS.);
#543 = CARTESIAN_POINT('',(-1.E-09,1.));
#544 = CARTESIAN_POINT('',(-9.9999985E-10,0.875));
#545 = CARTESIAN_POINT('',(-1.0000009E-09,0.75));
#546 = CARTESIAN_POINT('',(-9.9999843E-10,0.625));
#547 = CARTESIAN_POINT('',(-1.0000012E-09,0.5));
#548 = CARTESIAN_POINT('',(-9.9999959E-10,0.375));
#549 = CARTESIAN_POINT('',(-1.0000001E-09,0.25));
#550 = CARTESIAN_POINT('',(-9.9999977E-10,0.125));
#551 = CARTESIAN_POINT('',(-1.E-09,1.52655665886E-16));
#552 = ( GEOMETRIC_REPRESENTATION_CONTEXT(2) 
PARAMETRIC_REPRESENTATION_CONTEXT() REPRESENTATION_CONTEXT('2D SPACE',''
  ) );
#553 = PCURVE('',#271,#554);
#554 = DEFINITIONAL_REPRESENTATION('',(#555),#565);
#555 = B_SPLINE_CURVE_WITH_KNOTS('',8,(#556,#557,#558,#559,#560,#561,
    #562,#563,#564),.UNSPECIFIED.,.F.,.F.,(9,9),(0.,1.),
  .PIECEWISE_BEZIER_KNOTS.);
#556 = CARTESIAN_POINT('',(1.,1.));
#557 = CARTESIAN_POINT('',(1.,0.875));
#558 = CARTESIAN_POINT('',(1.,0.75));
#559 = CARTESIAN_POINT('',(1.,0.625));
#560 = CARTESIAN_POINT('',(1.,0.5));
#561 = CARTESIAN_POINT('',(1.,0.375));
#562 = CARTESIAN_POINT('',(1.,0.25));
#563 = CARTESIAN_POINT('',(1.,0.125));
#564 = CARTESIAN_POINT('',(1.,-2.775557561563E-17));
#565 = ( GEOMETRIC_REPRESENTATION_CONTEXT(2) 
PARAMETRIC_REPRESENTATION_CONTEXT() REPRESENTATION_CONTEXT('2D SPACE',''
  ) );
#566 = ADVANCED_FACE('',(#567),#203,.T.);
#567 = FACE_BOUND('',#568,.T.);
#568 = EDGE_LOOP('',(#569,#601,#602,#603));
#569 = ORIENTED_EDGE('',*,*,#570,.T.);
#570 = EDGE_CURVE('',#571,#297,#573,.T.);
#571 = VERTEX_POINT('',#572);
#572 = CARTESIAN_POINT('',(500.,0.,0.));
#573 = SURFACE_CURVE('',#574,(#577,#590),.PCURVE_S1.);
#574 = B_SPLINE_CURVE_WITH_KNOTS('',1,(#575,#576),.UNSPECIFIED.,.F.,.F.,
  (2,2),(0.,1.),.PIECEWISE_BEZIER_KNOTS.);
#575 = CARTESIAN_POINT('',(500.,0.,0.));
#576 = CARTESIAN_POINT('',(550.,50.,-250.));
#577 = PCURVE('',#203,#578);
#578 = DEFINITIONAL_REPRESENTATION('',(#579),#589);
#579 = B_SPLINE_CURVE_WITH_KNOTS('',8,(#580,#581,#582,#583,#584,#585,
    #586,#587,#588),.UNSPECIFIED.,.F.,.F.,(9,9),(0.,1.),
  .PIECEWISE_BEZIER_KNOTS.);
#580 = CARTESIAN_POINT('',(-9.9999998E-10,1.));
#581 = CARTESIAN_POINT('',(-1.0000004E-09,0.875));
#582 = CARTESIAN_POINT('',(-9.9999901E-10,0.75));
#583 = CARTESIAN_POINT('',(-1.0000017E-09,0.625));
#584 = CARTESIAN_POINT('',(-9.9999787E-10,0.5));
#585 = CARTESIAN_POINT('',(-1.0000015E-09,0.375));
#586 = CARTESIAN_POINT('',(-9.9999946E-10,0.25));
#587 = CARTESIAN_POINT('',(-1.E-09,0.125));
#588 = CARTESIAN_POINT('',(-9.9999999E-10,-1.942890293094E-16));
#589 = ( GEOMETRIC_REPRESENTATION_CONTEXT(2) 
PARAMETRIC_REPRESENTATION_CONTEXT() REPRESENTATION_CONTEXT('2D SPACE',''
  ) );
#590 = PCURVE('',#591,#596);
#591 = B_SPLINE_SURFACE_WITH_KNOTS('',1,1,(
    (#592,#593)
    ,(#594,#595)),.UNSPECIFIED.,.F.,.F.,.F.,(2,2),(2,2),(0.,1.),(0.,1.),
  .PIECEWISE_BEZIER_KNOTS.);
#592 = CARTESIAN_POINT('',(500.,-250.,-3.86767065E-09));
#593 = CARTESIAN_POINT('',(490.74074,-9.2592595,46.2962965));
#594 = CARTESIAN_POINT('',(559.25925,-190.74074,-296.296295));
#595 = CARTESIAN_POINT('',(550.,50.,-250.));
#596 = DEFINITIONAL_REPRESENTATION('',(#597),#600);
#597 = B_SPLINE_CURVE_WITH_KNOTS('',1,(#598,#599),.UNSPECIFIED.,.F.,.F.,
  (2,2),(0.,1.),.PIECEWISE_BEZIER_KNOTS.);
#598 = CARTESIAN_POINT('',(0.15625,1.));
#599 = CARTESIAN_POINT('',(1.,1.));
#600 = ( GEOMETRIC_REPRESENTATION_CONTEXT(2) 
PARAMETRIC_REPRESENTATION_CONTEXT() REPRESENTATION_CONTEXT('2D SPACE',''
  ) );
#601 = ORIENTED_EDGE('',*,*,#296,.T.);
#602 = ORIENTED_EDGE('',*,*,#180,.F.);
#603 = ORIENTED_EDGE('',*,*,#604,.F.);
#604 = EDGE_CURVE('',#571,#181,#605,.T.);
#605 = SURFACE_CURVE('',#606,(#610,#623),.PCURVE_S1.);
#606 = B_SPLINE_CURVE_WITH_KNOTS('',2,(#607,#608,#609),.UNSPECIFIED.,.F.
  ,.F.,(3,3),(0.,1.),.PIECEWISE_BEZIER_KNOTS.);
#607 = CARTESIAN_POINT('',(500.,0.,0.));
#608 = CARTESIAN_POINT('',(400.,250.,0.));
#609 = CARTESIAN_POINT('',(500.,500.,0.));
#610 = PCURVE('',#203,#611);
#611 = DEFINITIONAL_REPRESENTATION('',(#612),#622);
#612 = B_SPLINE_CURVE_WITH_KNOTS('',8,(#613,#614,#615,#616,#617,#618,
    #619,#620,#621),.UNSPECIFIED.,.F.,.F.,(9,9),(0.,1.),
  .PIECEWISE_BEZIER_KNOTS.);
#613 = CARTESIAN_POINT('',(1.0457125E-17,1.));
#614 = CARTESIAN_POINT('',(0.125,1.));
#615 = CARTESIAN_POINT('',(0.25,1.));
#616 = CARTESIAN_POINT('',(0.375,1.));
#617 = CARTESIAN_POINT('',(0.5,1.));
#618 = CARTESIAN_POINT('',(0.625,1.));
#619 = CARTESIAN_POINT('',(0.75,1.));
#620 = CARTESIAN_POINT('',(0.875,1.));
#621 = CARTESIAN_POINT('',(1.,1.));
#622 = ( GEOMETRIC_REPRESENTATION_CONTEXT(2) 
PARAMETRIC_REPRESENTATION_CONTEXT() REPRESENTATION_CONTEXT('2D SPACE',''
  ) );
#623 = PCURVE('',#624,#631);
#624 = B_SPLINE_SURFACE_WITH_KNOTS('',2,1,(
    (#625,#626)
    ,(#627,#628)
    ,(#629,#630)),.UNSPECIFIED.,.F.,.F.,.F.,(3,3),(2,2),(0.,1.),(0.,1.),
  .PIECEWISE_BEZIER_KNOTS.);
#625 = CARTESIAN_POINT('',(500.,50.,250.));
#626 = CARTESIAN_POINT('',(500.,5.009806E-07,4.902887E-09));
#627 = CARTESIAN_POINT('',(400.,300.,250.));
#628 = CARTESIAN_POINT('',(400.,250.,4.902887E-09));
#629 = CARTESIAN_POINT('',(500.,550.,250.));
#630 = CARTESIAN_POINT('',(500.,500.,4.902887E-09));
#631 = DEFINITIONAL_REPRESENTATION('',(#632),#642);
#632 = B_SPLINE_CURVE_WITH_KNOTS('',8,(#633,#634,#635,#636,#637,#638,
    #639,#640,#641),.UNSPECIFIED.,.F.,.F.,(9,9),(0.,1.),
  .PIECEWISE_BEZIER_KNOTS.);
#633 = CARTESIAN_POINT('',(-1.642242E-17,1.));
#634 = CARTESIAN_POINT('',(0.125,1.));
#635 = CARTESIAN_POINT('',(0.25,1.));
#636 = CARTESIAN_POINT('',(0.375,1.));
#637 = CARTESIAN_POINT('',(0.5,1.));
#638 = CARTESIAN_POINT('',(0.625,1.));
#639 = CARTESIAN_POINT('',(0.75,1.));
#640 = CARTESIAN_POINT('',(0.875,1.));
#641 = CARTESIAN_POINT('',(1.,1.));
#642 = ( GEOMETRIC_REPRESENTATION_CONTEXT(2) 
PARAMETRIC_REPRESENTATION_CONTEXT() REPRESENTATION_CONTEXT('2D SPACE',''
  ) );
#643 = ADVANCED_FACE('',(#644),#271,.F.);
#644 = FACE_BOUND('',#645,.T.);
#645 = EDGE_LOOP('',(#646,#647,#648,#677));
#646 = ORIENTED_EDGE('',*,*,#251,.T.);
#647 = ORIENTED_EDGE('',*,*,#535,.T.);
#648 = ORIENTED_EDGE('',*,*,#649,.F.);
#649 = EDGE_CURVE('',#650,#502,#652,.T.);
#650 = VERTEX_POINT('',#651);
#651 = CARTESIAN_POINT('',(500.,550.,250.));
#652 = SURFACE_CURVE('',#653,(#657,#670),.PCURVE_S1.);
#653 = B_SPLINE_CURVE_WITH_KNOTS('',2,(#654,#655,#656),.UNSPECIFIED.,.F.
  ,.F.,(3,3),(0.,1.),.PIECEWISE_BEZIER_KNOTS.);
#654 = CARTESIAN_POINT('',(500.,550.,250.));
#655 = CARTESIAN_POINT('',(250.,550.,250.));
#656 = CARTESIAN_POINT('',(0.,550.,250.));
#657 = PCURVE('',#271,#658);
#658 = DEFINITIONAL_REPRESENTATION('',(#659),#669);
#659 = B_SPLINE_CURVE_WITH_KNOTS('',8,(#660,#661,#662,#663,#664,#665,
    #666,#667,#668),.UNSPECIFIED.,.F.,.F.,(9,9),(0.,1.),
  .PIECEWISE_BEZIER_KNOTS.);
#660 = CARTESIAN_POINT('',(5.7368176E-17,-1.9612312E-11));
#661 = CARTESIAN_POINT('',(0.125,-2.603532E-11));
#662 = CARTESIAN_POINT('',(0.25,7.9101411E-13));
#663 = CARTESIAN_POINT('',(0.375,-7.6834124E-11));
#664 = CARTESIAN_POINT('',(0.5,-2.5034914E-10));
#665 = CARTESIAN_POINT('',(0.625,-4.0304647E-11));
#666 = CARTESIAN_POINT('',(0.75,-3.5738463E-11));
#667 = CARTESIAN_POINT('',(0.875,-2.603532E-11));
#668 = CARTESIAN_POINT('',(1.,-1.9612312E-11));
#669 = ( GEOMETRIC_REPRESENTATION_CONTEXT(2) 
PARAMETRIC_REPRESENTATION_CONTEXT() REPRESENTATION_CONTEXT('2D SPACE',''
  ) );
#670 = PCURVE('',#523,#671);
#671 = DEFINITIONAL_REPRESENTATION('',(#672),#676);
#672 = B_SPLINE_CURVE_WITH_KNOTS('',2,(#673,#674,#675),.UNSPECIFIED.,.F.
  ,.F.,(3,3),(0.,1.),.PIECEWISE_BEZIER_KNOTS.);
#673 = CARTESIAN_POINT('',(0.83333333,1.));
#674 = CARTESIAN_POINT('',(0.41666667,0.91666667));
#675 = CARTESIAN_POINT('',(-8.498257653144E-12,0.83333333));
#676 = ( GEOMETRIC_REPRESENTATION_CONTEXT(2) 
PARAMETRIC_REPRESENTATION_CONTEXT() REPRESENTATION_CONTEXT('2D SPACE',''
  ) );
#677 = ORIENTED_EDGE('',*,*,#678,.F.);
#678 = EDGE_CURVE('',#181,#650,#679,.T.);
#679 = SURFACE_CURVE('',#680,(#683,#696),.PCURVE_S1.);
#680 = B_SPLINE_CURVE_WITH_KNOTS('',1,(#681,#682),.UNSPECIFIED.,.F.,.F.,
  (2,2),(0.,1.),.PIECEWISE_BEZIER_KNOTS.);
#681 = CARTESIAN_POINT('',(500.,500.,0.));
#682 = CARTESIAN_POINT('',(500.,550.,250.));
#683 = PCURVE('',#271,#684);
#684 = DEFINITIONAL_REPRESENTATION('',(#685),#695);
#685 = B_SPLINE_CURVE_WITH_KNOTS('',8,(#686,#687,#688,#689,#690,#691,
    #692,#693,#694),.UNSPECIFIED.,.F.,.F.,(9,9),(0.,1.),
  .PIECEWISE_BEZIER_KNOTS.);
#686 = CARTESIAN_POINT('',(-9.9999994E-10,1.));
#687 = CARTESIAN_POINT('',(-9.9999994E-10,0.875));
#688 = CARTESIAN_POINT('',(-9.9999994E-10,0.75));
#689 = CARTESIAN_POINT('',(-9.9999994E-10,0.625));
#690 = CARTESIAN_POINT('',(-9.9999994E-10,0.5));
#691 = CARTESIAN_POINT('',(-9.9999994E-10,0.375));
#692 = CARTESIAN_POINT('',(-9.9999994E-10,0.25));
#693 = CARTESIAN_POINT('',(-9.9999994E-10,0.125));
#694 = CARTESIAN_POINT('',(-9.9999994E-10,-2.775557561563E-17));
#695 = ( GEOMETRIC_REPRESENTATION_CONTEXT(2) 
PARAMETRIC_REPRESENTATION_CONTEXT() REPRESENTATION_CONTEXT('2D SPACE',''
  ) );
#696 = PCURVE('',#624,#697);
#697 = DEFINITIONAL_REPRESENTATION('',(#698),#708);
#698 = B_SPLINE_CURVE_WITH_KNOTS('',8,(#699,#700,#701,#702,#703,#704,
    #705,#706,#707),.UNSPECIFIED.,.F.,.F.,(9,9),(0.,1.),
  .PIECEWISE_BEZIER_KNOTS.);
#699 = CARTESIAN_POINT('',(1.,1.));
#700 = CARTESIAN_POINT('',(1.,0.875));
#701 = CARTESIAN_POINT('',(1.,0.75));
#702 = CARTESIAN_POINT('',(1.,0.625));
#703 = CARTESIAN_POINT('',(1.,0.5));
#704 = CARTESIAN_POINT('',(1.,0.375));
#705 = CARTESIAN_POINT('',(1.,0.25));
#706 = CARTESIAN_POINT('',(1.,0.125));
#707 = CARTESIAN_POINT('',(1.,8.326672684689E-17));
#708 = ( GEOMETRIC_REPRESENTATION_CONTEXT(2) 
PARAMETRIC_REPRESENTATION_CONTEXT() REPRESENTATION_CONTEXT('2D SPACE',''
  ) );
#709 = ADVANCED_FACE('',(#710),#339,.F.);
#710 = FACE_BOUND('',#711,.T.);
#711 = EDGE_LOOP('',(#712,#713,#740,#773));
#712 = ORIENTED_EDGE('',*,*,#325,.T.);
#713 = ORIENTED_EDGE('',*,*,#714,.T.);
#714 = EDGE_CURVE('',#297,#715,#717,.T.);
#715 = VERTEX_POINT('',#716);
#716 = CARTESIAN_POINT('',(550.,-200.,-250.));
#717 = SURFACE_CURVE('',#718,(#721,#734),.PCURVE_S1.);
#718 = B_SPLINE_CURVE_WITH_KNOTS('',1,(#719,#720),.UNSPECIFIED.,.F.,.F.,
  (2,2),(0.,1.),.PIECEWISE_BEZIER_KNOTS.);
#719 = CARTESIAN_POINT('',(550.,50.,-250.));
#720 = CARTESIAN_POINT('',(550.,-200.,-250.));
#721 = PCURVE('',#339,#722);
#722 = DEFINITIONAL_REPRESENTATION('',(#723),#733);
#723 = B_SPLINE_CURVE_WITH_KNOTS('',8,(#724,#725,#726,#727,#728,#729,
    #730,#731,#732),.UNSPECIFIED.,.F.,.F.,(9,9),(0.,1.),
  .PIECEWISE_BEZIER_KNOTS.);
#724 = CARTESIAN_POINT('',(1.,1.));
#725 = CARTESIAN_POINT('',(1.,0.875));
#726 = CARTESIAN_POINT('',(1.,0.75));
#727 = CARTESIAN_POINT('',(1.,0.625));
#728 = CARTESIAN_POINT('',(1.,0.5));
#729 = CARTESIAN_POINT('',(1.,0.375));
#730 = CARTESIAN_POINT('',(1.,0.25));
#731 = CARTESIAN_POINT('',(1.,0.125));
#732 = CARTESIAN_POINT('',(1.,-3.053113317719E-16));
#733 = ( GEOMETRIC_REPRESENTATION_CONTEXT(2) 
PARAMETRIC_REPRESENTATION_CONTEXT() REPRESENTATION_CONTEXT('2D SPACE',''
  ) );
#734 = PCURVE('',#591,#735);
#735 = DEFINITIONAL_REPRESENTATION('',(#736),#739);
#736 = B_SPLINE_CURVE_WITH_KNOTS('',1,(#737,#738),.UNSPECIFIED.,.F.,.F.,
  (2,2),(0.,1.),.PIECEWISE_BEZIER_KNOTS.);
#737 = CARTESIAN_POINT('',(1.,1.));
#738 = CARTESIAN_POINT('',(0.84375,-2.038058610765E-11));
#739 = ( GEOMETRIC_REPRESENTATION_CONTEXT(2) 
PARAMETRIC_REPRESENTATION_CONTEXT() REPRESENTATION_CONTEXT('2D SPACE',''
  ) );
#740 = ORIENTED_EDGE('',*,*,#741,.F.);
#741 = EDGE_CURVE('',#364,#715,#742,.T.);
#742 = SURFACE_CURVE('',#743,(#747,#760),.PCURVE_S1.);
#743 = B_SPLINE_CURVE_WITH_KNOTS('',2,(#744,#745,#746),.UNSPECIFIED.,.F.
  ,.F.,(3,3),(0.,1.),.PIECEWISE_BEZIER_KNOTS.);
#744 = CARTESIAN_POINT('',(50.,-200.,-250.));
#745 = CARTESIAN_POINT('',(300.,-250.,-250.));
#746 = CARTESIAN_POINT('',(550.,-200.,-250.));
#747 = PCURVE('',#339,#748);
#748 = DEFINITIONAL_REPRESENTATION('',(#749),#759);
#749 = B_SPLINE_CURVE_WITH_KNOTS('',8,(#750,#751,#752,#753,#754,#755,
    #756,#757,#758),.UNSPECIFIED.,.F.,.F.,(9,9),(0.,1.),
  .PIECEWISE_BEZIER_KNOTS.);
#750 = CARTESIAN_POINT('',(3.9974711E-18,-2.0000002E-11));
#751 = CARTESIAN_POINT('',(0.125,5.0292925E-12));
#752 = CARTESIAN_POINT('',(0.25,-7.355105E-11));
#753 = CARTESIAN_POINT('',(0.375,1.616079E-10));
#754 = CARTESIAN_POINT('',(0.5,-4.0184226E-10));
#755 = CARTESIAN_POINT('',(0.625,1.4763806E-10));
#756 = CARTESIAN_POINT('',(0.75,-8.752088799999E-11));
#757 = CARTESIAN_POINT('',(0.875,9.547562700282E-13));
#758 = CARTESIAN_POINT('',(1.,-2.000000199991E-11));
#759 = ( GEOMETRIC_REPRESENTATION_CONTEXT(2) 
PARAMETRIC_REPRESENTATION_CONTEXT() REPRESENTATION_CONTEXT('2D SPACE',''
  ) );
#760 = PCURVE('',#404,#761);
#761 = DEFINITIONAL_REPRESENTATION('',(#762),#772);
#762 = B_SPLINE_CURVE_WITH_KNOTS('',8,(#763,#764,#765,#766,#767,#768,
    #769,#770,#771),.UNSPECIFIED.,.F.,.F.,(9,9),(0.,1.),
  .PIECEWISE_BEZIER_KNOTS.);
#763 = CARTESIAN_POINT('',(8.2666489E-17,-1.9245272E-11));
#764 = CARTESIAN_POINT('',(0.125,-1.0568181E-11));
#765 = CARTESIAN_POINT('',(0.25,5.6748202E-12));
#766 = CARTESIAN_POINT('',(0.375,-1.3771167E-10));
#767 = CARTESIAN_POINT('',(0.5,5.9444754E-11));
#768 = CARTESIAN_POINT('',(0.625,-1.3771167E-10));
#769 = CARTESIAN_POINT('',(0.75,-1.2248491E-11));
#770 = CARTESIAN_POINT('',(0.875,-1.2248491E-11));
#771 = CARTESIAN_POINT('',(1.,-1.924527199999E-11));
#772 = ( GEOMETRIC_REPRESENTATION_CONTEXT(2) 
PARAMETRIC_REPRESENTATION_CONTEXT() REPRESENTATION_CONTEXT('2D SPACE',''
  ) );
#773 = ORIENTED_EDGE('',*,*,#363,.F.);
#774 = ADVANCED_FACE('',(#775),#404,.T.);
#775 = FACE_BOUND('',#776,.T.);
#776 = EDGE_LOOP('',(#777,#778,#779,#806));
#777 = ORIENTED_EDGE('',*,*,#390,.T.);
#778 = ORIENTED_EDGE('',*,*,#741,.T.);
#779 = ORIENTED_EDGE('',*,*,#780,.F.);
#780 = EDGE_CURVE('',#781,#715,#783,.T.);
#781 = VERTEX_POINT('',#782);
#782 = CARTESIAN_POINT('',(500.,-250.,0.));
#783 = SURFACE_CURVE('',#784,(#787,#800),.PCURVE_S1.);
#784 = B_SPLINE_CURVE_WITH_KNOTS('',1,(#785,#786),.UNSPECIFIED.,.F.,.F.,
  (2,2),(0.,1.),.PIECEWISE_BEZIER_KNOTS.);
#785 = CARTESIAN_POINT('',(500.,-250.,0.));
#786 = CARTESIAN_POINT('',(550.,-200.,-250.));
#787 = PCURVE('',#404,#788);
#788 = DEFINITIONAL_REPRESENTATION('',(#789),#799);
#789 = B_SPLINE_CURVE_WITH_KNOTS('',8,(#790,#791,#792,#793,#794,#795,
    #796,#797,#798),.UNSPECIFIED.,.F.,.F.,(9,9),(0.,1.),
  .PIECEWISE_BEZIER_KNOTS.);
#790 = CARTESIAN_POINT('',(1.,1.));
#791 = CARTESIAN_POINT('',(1.,0.875));
#792 = CARTESIAN_POINT('',(1.,0.75));
#793 = CARTESIAN_POINT('',(1.,0.625));
#794 = CARTESIAN_POINT('',(1.,0.5));
#795 = CARTESIAN_POINT('',(1.,0.375));
#796 = CARTESIAN_POINT('',(1.,0.25));
#797 = CARTESIAN_POINT('',(1.,0.125));
#798 = CARTESIAN_POINT('',(1.,0.));
#799 = ( GEOMETRIC_REPRESENTATION_CONTEXT(2) 
PARAMETRIC_REPRESENTATION_CONTEXT() REPRESENTATION_CONTEXT('2D SPACE',''
  ) );
#800 = PCURVE('',#591,#801);
#801 = DEFINITIONAL_REPRESENTATION('',(#802),#805);
#802 = B_SPLINE_CURVE_WITH_KNOTS('',1,(#803,#804),.UNSPECIFIED.,.F.,.F.,
  (2,2),(0.,1.),.PIECEWISE_BEZIER_KNOTS.);
#803 = CARTESIAN_POINT('',(-1.6237983E-11,-2.0380808E-11));
#804 = CARTESIAN_POINT('',(0.84375,-2.0380953E-11));
#805 = ( GEOMETRIC_REPRESENTATION_CONTEXT(2) 
PARAMETRIC_REPRESENTATION_CONTEXT() REPRESENTATION_CONTEXT('2D SPACE',''
  ) );
#806 = ORIENTED_EDGE('',*,*,#807,.F.);
#807 = EDGE_CURVE('',#391,#781,#808,.T.);
#808 = SURFACE_CURVE('',#809,(#813,#826),.PCURVE_S1.);
#809 = B_SPLINE_CURVE_WITH_KNOTS('',2,(#810,#811,#812),.UNSPECIFIED.,.F.
  ,.F.,(3,3),(0.,1.),.PIECEWISE_BEZIER_KNOTS.);
#810 = CARTESIAN_POINT('',(0.,-250.,0.));
#811 = CARTESIAN_POINT('',(250.,-300.,0.));
#812 = CARTESIAN_POINT('',(500.,-250.,0.));
#813 = PCURVE('',#404,#814);
#814 = DEFINITIONAL_REPRESENTATION('',(#815),#825);
#815 = B_SPLINE_CURVE_WITH_KNOTS('',8,(#816,#817,#818,#819,#820,#821,
    #822,#823,#824),.UNSPECIFIED.,.F.,.F.,(9,9),(0.,1.),
  .PIECEWISE_BEZIER_KNOTS.);
#816 = CARTESIAN_POINT('',(2.2568036E-17,1.));
#817 = CARTESIAN_POINT('',(0.125,1.));
#818 = CARTESIAN_POINT('',(0.25,1.));
#819 = CARTESIAN_POINT('',(0.375,1.));
#820 = CARTESIAN_POINT('',(0.5,1.));
#821 = CARTESIAN_POINT('',(0.625,1.));
#822 = CARTESIAN_POINT('',(0.75,1.));
#823 = CARTESIAN_POINT('',(0.875,1.));
#824 = CARTESIAN_POINT('',(1.,1.));
#825 = ( GEOMETRIC_REPRESENTATION_CONTEXT(2) 
PARAMETRIC_REPRESENTATION_CONTEXT() REPRESENTATION_CONTEXT('2D SPACE',''
  ) );
#826 = PCURVE('',#436,#827);
#827 = DEFINITIONAL_REPRESENTATION('',(#828),#838);
#828 = B_SPLINE_CURVE_WITH_KNOTS('',8,(#829,#830,#831,#832,#833,#834,
    #835,#836,#837),.UNSPECIFIED.,.F.,.F.,(9,9),(0.,1.),
  .PIECEWISE_BEZIER_KNOTS.);
#829 = CARTESIAN_POINT('',(-6.6014449E-26,-2.0000002E-11));
#830 = CARTESIAN_POINT('',(0.125,5.0292925E-12));
#831 = CARTESIAN_POINT('',(0.25,-7.355105E-11));
#832 = CARTESIAN_POINT('',(0.375,1.616079E-10));
#833 = CARTESIAN_POINT('',(0.5,-4.0184226E-10));
#834 = CARTESIAN_POINT('',(0.625,1.4763806E-10));
#835 = CARTESIAN_POINT('',(0.75,-8.752088799999E-11));
#836 = CARTESIAN_POINT('',(0.875,9.547562700282E-13));
#837 = CARTESIAN_POINT('',(1.,-2.000000199991E-11));
#838 = ( GEOMETRIC_REPRESENTATION_CONTEXT(2) 
PARAMETRIC_REPRESENTATION_CONTEXT() REPRESENTATION_CONTEXT('2D SPACE',''
  ) );
#839 = ADVANCED_FACE('',(#840),#436,.T.);
#840 = FACE_BOUND('',#841,.T.);
#841 = EDGE_LOOP('',(#842,#843,#844,#869));
#842 = ORIENTED_EDGE('',*,*,#424,.T.);
#843 = ORIENTED_EDGE('',*,*,#807,.T.);
#844 = ORIENTED_EDGE('',*,*,#845,.F.);
#845 = EDGE_CURVE('',#571,#781,#846,.T.);
#846 = SURFACE_CURVE('',#847,(#850,#863),.PCURVE_S1.);
#847 = B_SPLINE_CURVE_WITH_KNOTS('',1,(#848,#849),.UNSPECIFIED.,.F.,.F.,
  (2,2),(0.,1.),.PIECEWISE_BEZIER_KNOTS.);
#848 = CARTESIAN_POINT('',(500.,0.,0.));
#849 = CARTESIAN_POINT('',(500.,-250.,0.));
#850 = PCURVE('',#436,#851);
#851 = DEFINITIONAL_REPRESENTATION('',(#852),#862);
#852 = B_SPLINE_CURVE_WITH_KNOTS('',8,(#853,#854,#855,#856,#857,#858,
    #859,#860,#861),.UNSPECIFIED.,.F.,.F.,(9,9),(0.,1.),
  .PIECEWISE_BEZIER_KNOTS.);
#853 = CARTESIAN_POINT('',(1.,1.));
#854 = CARTESIAN_POINT('',(1.,0.875));
#855 = CARTESIAN_POINT('',(1.,0.75));
#856 = CARTESIAN_POINT('',(1.,0.625));
#857 = CARTESIAN_POINT('',(1.,0.5));
#858 = CARTESIAN_POINT('',(1.,0.375));
#859 = CARTESIAN_POINT('',(1.,0.25));
#860 = CARTESIAN_POINT('',(1.,0.125));
#861 = CARTESIAN_POINT('',(1.,-3.053113317719E-16));
#862 = ( GEOMETRIC_REPRESENTATION_CONTEXT(2) 
PARAMETRIC_REPRESENTATION_CONTEXT() REPRESENTATION_CONTEXT('2D SPACE',''
  ) );
#863 = PCURVE('',#591,#864);
#864 = DEFINITIONAL_REPRESENTATION('',(#865),#868);
#865 = B_SPLINE_CURVE_WITH_KNOTS('',1,(#866,#867),.UNSPECIFIED.,.F.,.F.,
  (2,2),(0.,1.),.PIECEWISE_BEZIER_KNOTS.);
#866 = CARTESIAN_POINT('',(0.15625,1.));
#867 = CARTESIAN_POINT('',(-1.623798318029E-11,-2.038080815225E-11));
#868 = ( GEOMETRIC_REPRESENTATION_CONTEXT(2) 
PARAMETRIC_REPRESENTATION_CONTEXT() REPRESENTATION_CONTEXT('2D SPACE',''
  ) );
#869 = ORIENTED_EDGE('',*,*,#870,.F.);
#870 = EDGE_CURVE('',#106,#571,#871,.T.);
#871 = SURFACE_CURVE('',#872,(#876,#889),.PCURVE_S1.);
#872 = B_SPLINE_CURVE_WITH_KNOTS('',2,(#873,#874,#875),.UNSPECIFIED.,.F.
  ,.F.,(3,3),(0.,1.),.PIECEWISE_BEZIER_KNOTS.);
#873 = CARTESIAN_POINT('',(0.,0.,0.));
#874 = CARTESIAN_POINT('',(250.,-50.,0.));
#875 = CARTESIAN_POINT('',(500.,0.,0.));
#876 = PCURVE('',#436,#877);
#877 = DEFINITIONAL_REPRESENTATION('',(#878),#888);
#878 = B_SPLINE_CURVE_WITH_KNOTS('',8,(#879,#880,#881,#882,#883,#884,
    #885,#886,#887),.UNSPECIFIED.,.F.,.F.,(9,9),(0.,1.),
  .PIECEWISE_BEZIER_KNOTS.);
#879 = CARTESIAN_POINT('',(-6.6014446E-26,1.));
#880 = CARTESIAN_POINT('',(0.125,1.));
#881 = CARTESIAN_POINT('',(0.25,1.));
#882 = CARTESIAN_POINT('',(0.375,1.));
#883 = CARTESIAN_POINT('',(0.5,1.));
#884 = CARTESIAN_POINT('',(0.625,1.));
#885 = CARTESIAN_POINT('',(0.75,1.));
#886 = CARTESIAN_POINT('',(0.875,1.));
#887 = CARTESIAN_POINT('',(1.,1.));
#888 = ( GEOMETRIC_REPRESENTATION_CONTEXT(2) 
PARAMETRIC_REPRESENTATION_CONTEXT() REPRESENTATION_CONTEXT('2D SPACE',''
  ) );
#889 = PCURVE('',#481,#890);
#890 = DEFINITIONAL_REPRESENTATION('',(#891),#901);
#891 = B_SPLINE_CURVE_WITH_KNOTS('',8,(#892,#893,#894,#895,#896,#897,
    #898,#899,#900),.UNSPECIFIED.,.F.,.F.,(9,9),(0.,1.),
  .PIECEWISE_BEZIER_KNOTS.);
#892 = CARTESIAN_POINT('',(4.2372003E-18,1.));
#893 = CARTESIAN_POINT('',(0.125,1.));
#894 = CARTESIAN_POINT('',(0.25,1.));
#895 = CARTESIAN_POINT('',(0.375,1.));
#896 = CARTESIAN_POINT('',(0.5,1.));
#897 = CARTESIAN_POINT('',(0.625,1.));
#898 = CARTESIAN_POINT('',(0.75,1.));
#899 = CARTESIAN_POINT('',(0.875,1.));
#900 = CARTESIAN_POINT('',(1.,1.));
#901 = ( GEOMETRIC_REPRESENTATION_CONTEXT(2) 
PARAMETRIC_REPRESENTATION_CONTEXT() REPRESENTATION_CONTEXT('2D SPACE',''
  ) );
#902 = ADVANCED_FACE('',(#903),#481,.F.);
#903 = FACE_BOUND('',#904,.T.);
#904 = EDGE_LOOP('',(#905,#906,#940,#967));
#905 = ORIENTED_EDGE('',*,*,#870,.T.);
#906 = ORIENTED_EDGE('',*,*,#907,.T.);
#907 = EDGE_CURVE('',#571,#908,#910,.T.);
#908 = VERTEX_POINT('',#909);
#909 = CARTESIAN_POINT('',(500.,50.,250.));
#910 = SURFACE_CURVE('',#911,(#914,#927),.PCURVE_S1.);
#911 = B_SPLINE_CURVE_WITH_KNOTS('',1,(#912,#913),.UNSPECIFIED.,.F.,.F.,
  (2,2),(0.,1.),.PIECEWISE_BEZIER_KNOTS.);
#912 = CARTESIAN_POINT('',(500.,0.,0.));
#913 = CARTESIAN_POINT('',(500.,50.,250.));
#914 = PCURVE('',#481,#915);
#915 = DEFINITIONAL_REPRESENTATION('',(#916),#926);
#916 = B_SPLINE_CURVE_WITH_KNOTS('',8,(#917,#918,#919,#920,#921,#922,
    #923,#924,#925),.UNSPECIFIED.,.F.,.F.,(9,9),(0.,1.),
  .PIECEWISE_BEZIER_KNOTS.);
#917 = CARTESIAN_POINT('',(1.,1.));
#918 = CARTESIAN_POINT('',(1.,0.875));
#919 = CARTESIAN_POINT('',(1.,0.75));
#920 = CARTESIAN_POINT('',(1.,0.625));
#921 = CARTESIAN_POINT('',(1.,0.5));
#922 = CARTESIAN_POINT('',(1.,0.375));
#923 = CARTESIAN_POINT('',(1.,0.25));
#924 = CARTESIAN_POINT('',(1.,0.125));
#925 = CARTESIAN_POINT('',(1.,-2.775557561563E-17));
#926 = ( GEOMETRIC_REPRESENTATION_CONTEXT(2) 
PARAMETRIC_REPRESENTATION_CONTEXT() REPRESENTATION_CONTEXT('2D SPACE',''
  ) );
#927 = PCURVE('',#624,#928);
#928 = DEFINITIONAL_REPRESENTATION('',(#929),#939);
#929 = B_SPLINE_CURVE_WITH_KNOTS('',8,(#930,#931,#932,#933,#934,#935,
    #936,#937,#938),.UNSPECIFIED.,.F.,.F.,(9,9),(0.,1.),
  .PIECEWISE_BEZIER_KNOTS.);
#930 = CARTESIAN_POINT('',(-1.E-09,1.));
#931 = CARTESIAN_POINT('',(-9.9999996E-10,0.875));
#932 = CARTESIAN_POINT('',(-1.0000002E-09,0.75));
#933 = CARTESIAN_POINT('',(-9.9999967E-10,0.625));
#934 = CARTESIAN_POINT('',(-1.0000003E-09,0.5));
#935 = CARTESIAN_POINT('',(-9.9999999E-10,0.375));
#936 = CARTESIAN_POINT('',(-9.9999992E-10,0.25));
#937 = CARTESIAN_POINT('',(-1.E-09,0.125));
#938 = CARTESIAN_POINT('',(-9.9999999E-10,6.938893903907E-17));
#939 = ( GEOMETRIC_REPRESENTATION_CONTEXT(2) 
PARAMETRIC_REPRESENTATION_CONTEXT() REPRESENTATION_CONTEXT('2D SPACE',''
  ) );
#940 = ORIENTED_EDGE('',*,*,#941,.F.);
#941 = EDGE_CURVE('',#461,#908,#942,.T.);
#942 = SURFACE_CURVE('',#943,(#947,#960),.PCURVE_S1.);
#943 = B_SPLINE_CURVE_WITH_KNOTS('',2,(#944,#945,#946),.UNSPECIFIED.,.F.
  ,.F.,(3,3),(0.,1.),.PIECEWISE_BEZIER_KNOTS.);
#944 = CARTESIAN_POINT('',(0.,50.,250.));
#945 = CARTESIAN_POINT('',(250.,0.,250.));
#946 = CARTESIAN_POINT('',(500.,50.,250.));
#947 = PCURVE('',#481,#948);
#948 = DEFINITIONAL_REPRESENTATION('',(#949),#959);
#949 = B_SPLINE_CURVE_WITH_KNOTS('',8,(#950,#951,#952,#953,#954,#955,
    #956,#957,#958),.UNSPECIFIED.,.F.,.F.,(9,9),(0.,1.),
  .PIECEWISE_BEZIER_KNOTS.);
#950 = CARTESIAN_POINT('',(-2.7113967E-20,-1.9612312E-11));
#951 = CARTESIAN_POINT('',(0.125,-2.603532E-11));
#952 = CARTESIAN_POINT('',(0.25,7.9101411E-13));
#953 = CARTESIAN_POINT('',(0.375,-7.6834124E-11));
#954 = CARTESIAN_POINT('',(0.5,-2.5034914E-10));
#955 = CARTESIAN_POINT('',(0.625,-4.0304647E-11));
#956 = CARTESIAN_POINT('',(0.75,-3.5738463E-11));
#957 = CARTESIAN_POINT('',(0.875,-2.603532E-11));
#958 = CARTESIAN_POINT('',(1.,-1.9612312E-11));
#959 = ( GEOMETRIC_REPRESENTATION_CONTEXT(2) 
PARAMETRIC_REPRESENTATION_CONTEXT() REPRESENTATION_CONTEXT('2D SPACE',''
  ) );
#960 = PCURVE('',#523,#961);
#961 = DEFINITIONAL_REPRESENTATION('',(#962),#966);
#962 = B_SPLINE_CURVE_WITH_KNOTS('',2,(#963,#964,#965),.UNSPECIFIED.,.F.
  ,.F.,(3,3),(0.,1.),.PIECEWISE_BEZIER_KNOTS.);
#963 = CARTESIAN_POINT('',(0.16666667,-8.4983659E-12));
#964 = CARTESIAN_POINT('',(0.6,-8.4983659E-12));
#965 = CARTESIAN_POINT('',(1.,0.16666667));
#966 = ( GEOMETRIC_REPRESENTATION_CONTEXT(2) 
PARAMETRIC_REPRESENTATION_CONTEXT() REPRESENTATION_CONTEXT('2D SPACE',''
  ) );
#967 = ORIENTED_EDGE('',*,*,#460,.F.);
#968 = ADVANCED_FACE('',(#969),#523,.T.);
#969 = FACE_BOUND('',#970,.T.);
#970 = EDGE_LOOP('',(#971,#972,#999,#1000));
#971 = ORIENTED_EDGE('',*,*,#941,.T.);
#972 = ORIENTED_EDGE('',*,*,#973,.T.);
#973 = EDGE_CURVE('',#908,#650,#974,.T.);
#974 = SURFACE_CURVE('',#975,(#979,#986),.PCURVE_S1.);
#975 = B_SPLINE_CURVE_WITH_KNOTS('',2,(#976,#977,#978),.UNSPECIFIED.,.F.
  ,.F.,(3,3),(0.,1.),.PIECEWISE_BEZIER_KNOTS.);
#976 = CARTESIAN_POINT('',(500.,50.,250.));
#977 = CARTESIAN_POINT('',(400.,300.,250.));
#978 = CARTESIAN_POINT('',(500.,550.,250.));
#979 = PCURVE('',#523,#980);
#980 = DEFINITIONAL_REPRESENTATION('',(#981),#985);
#981 = B_SPLINE_CURVE_WITH_KNOTS('',2,(#982,#983,#984),.UNSPECIFIED.,.F.
  ,.F.,(3,3),(0.,1.),.PIECEWISE_BEZIER_KNOTS.);
#982 = CARTESIAN_POINT('',(1.,0.16666667));
#983 = CARTESIAN_POINT('',(0.75,0.55));
#984 = CARTESIAN_POINT('',(0.83333333,1.));
#985 = ( GEOMETRIC_REPRESENTATION_CONTEXT(2) 
PARAMETRIC_REPRESENTATION_CONTEXT() REPRESENTATION_CONTEXT('2D SPACE',''
  ) );
#986 = PCURVE('',#624,#987);
#987 = DEFINITIONAL_REPRESENTATION('',(#988),#998);
#988 = B_SPLINE_CURVE_WITH_KNOTS('',8,(#989,#990,#991,#992,#993,#994,
    #995,#996,#997),.UNSPECIFIED.,.F.,.F.,(9,9),(0.,1.),
  .PIECEWISE_BEZIER_KNOTS.);
#989 = CARTESIAN_POINT('',(-6.403475E-18,-1.9612312E-11));
#990 = CARTESIAN_POINT('',(0.125,-2.603532E-11));
#991 = CARTESIAN_POINT('',(0.25,7.9101411E-13));
#992 = CARTESIAN_POINT('',(0.375,-7.6834124E-11));
#993 = CARTESIAN_POINT('',(0.5,-2.5034914E-10));
#994 = CARTESIAN_POINT('',(0.625,-4.0304647E-11));
#995 = CARTESIAN_POINT('',(0.75,-3.5738463E-11));
#996 = CARTESIAN_POINT('',(0.875,-2.603532E-11));
#997 = CARTESIAN_POINT('',(1.,-1.9612312E-11));
#998 = ( GEOMETRIC_REPRESENTATION_CONTEXT(2) 
PARAMETRIC_REPRESENTATION_CONTEXT() REPRESENTATION_CONTEXT('2D SPACE',''
  ) );
#999 = ORIENTED_EDGE('',*,*,#649,.T.);
#1000 = ORIENTED_EDGE('',*,*,#501,.T.);
#1001 = ADVANCED_FACE('',(#1002),#591,.T.);
#1002 = FACE_BOUND('',#1003,.T.);
#1003 = EDGE_LOOP('',(#1004,#1005,#1006,#1007));
#1004 = ORIENTED_EDGE('',*,*,#845,.T.);
#1005 = ORIENTED_EDGE('',*,*,#780,.T.);
#1006 = ORIENTED_EDGE('',*,*,#714,.F.);
#1007 = ORIENTED_EDGE('',*,*,#570,.F.);
#1008 = ADVANCED_FACE('',(#1009),#624,.F.);
#1009 = FACE_BOUND('',#1010,.T.);
#1010 = EDGE_LOOP('',(#1011,#1012,#1013,#1014));
#1011 = ORIENTED_EDGE('',*,*,#604,.T.);
#1012 = ORIENTED_EDGE('',*,*,#678,.T.);
#1013 = ORIENTED_EDGE('',*,*,#973,.F.);
#1014 = ORIENTED_EDGE('',*,*,#907,.F.);
#1015 = ( GEOMETRIC_REPRESENTATION_CONTEXT(3) 
GLOBAL_UNCERTAINTY_ASSIGNED_CONTEXT((#1019)) 
GLOBAL_UNIT_ASSIGNED_CONTEXT((#1016,#1017,#1018)) REPRESENTATION_CONTEXT
('Context #1','3D Context with UNIT and UNCERTAINTY') );
#1016 = ( LENGTH_UNIT() NAMED_UNIT(*) SI_UNIT(.MILLI.,.METRE.) );
#1017 = ( NAMED_UNIT(*) PLANE_ANGLE_UNIT() SI_UNIT($,.RADIAN.) );
#1018 = ( NAMED_UNIT(*) SI_UNIT($,.STERADIAN.) SOLID_ANGLE_UNIT() );
#1019 = UNCERTAINTY_MEASURE_WITH_UNIT(LENGTH_MEASURE(5.E-03),#1016,
  'distance_accuracy_value','confusion accuracy');
#1020 = PRODUCT_RELATED_PRODUCT_CATEGORY('part',$,(#7));
ENDSEC;
END-ISO-10303-21;
