ISO-10303-21;
HEADER;
FILE_DESCRIPTION(('Open CASCADE Model'),'2;1');
FILE_NAME('Open CASCADE Shape Model','2026-07-11T20:16:09',('Author'),(
    'Open CASCADE'),'Open CASCADE STEP processor 8.0','Open CASCADE 8.0'
  ,'Unknown');
FILE_SCHEMA(('AUTOMOTIVE_DESIGN { 1 0 10303 214 1 1 1 1 }'));
ENDSEC;
DATA;
#1 = APPLICATION_PROTOCOL_DEFINITION('international standard',
  'automotive_design',2000,#2);
#2 = APPLICATION_CONTEXT(
  'core data for automotive mechanical design processes');
#3 = SHAPE_DEFINITION_REPRESENTATION(#4,#10);
#4 = PRODUCT_DEFINITION_SHAPE('','',#5);
#5 = PRODUCT_DEFINITION('design','',#6,#9);
#6 = PRODUCT_DEFINITION_FORMATION('','',#7);
#7 = PRODUCT('Open CASCADE STEP translator 8.0 1',
  'Open CASCADE STEP translator 8.0 1','',(#8));
#8 = PRODUCT_CONTEXT('',#2,'mechanical');
#9 = PRODUCT_DEFINITION_CONTEXT('part definition',#2,'design');
#10 = MANIFOLD_SURFACE_SHAPE_REPRESENTATION('',(#11,#15),#449);
#11 = AXIS2_PLACEMENT_3D('',#12,#13,#14);
#12 = CARTESIAN_POINT('',(0.,0.,0.));
#13 = DIRECTION('',(0.,0.,1.));
#14 = DIRECTION('',(1.,0.,-0.));
#15 = SHELL_BASED_SURFACE_MODEL('',(#16));
#16 = OPEN_SHELL('',(#17,#124,#289,#414));
#17 = ADVANCED_FACE('',(#18),#32,.T.);
#18 = FACE_BOUND('',#19,.T.);
#19 = EDGE_LOOP('',(#20,#55,#71,#87));
#20 = ORIENTED_EDGE('',*,*,#21,.T.);
#21 = EDGE_CURVE('',#22,#24,#26,.T.);
#22 = VERTEX_POINT('',#23);
#23 = CARTESIAN_POINT('',(200.,-500.,0.));
#24 = VERTEX_POINT('',#25);
#25 = CARTESIAN_POINT('',(200.,-500.,-300.));
#26 = SURFACE_CURVE('',#27,(#31,#43),.PCURVE_S1.);
#27 = LINE('',#28,#29);
#28 = CARTESIAN_POINT('',(200.,-500.,0.));
#29 = VECTOR('',#30,1.);
#30 = DIRECTION('',(0.,0.,-1.));
#31 = PCURVE('',#32,#37);
#32 = PLANE('',#33);
#33 = AXIS2_PLACEMENT_3D('',#34,#35,#36);
#34 = CARTESIAN_POINT('',(200.,-500.,0.));
#35 = DIRECTION('',(0.581238193719,0.813733471207,0.));
#36 = DIRECTION('',(-0.813733471207,0.581238193719,0.));
#37 = DEFINITIONAL_REPRESENTATION('',(#38),#42);
#38 = LINE('',#39,#40);
#39 = CARTESIAN_POINT('',(0.,0.));
#40 = VECTOR('',#41,1.);
#41 = DIRECTION('',(0.,-1.));
#42 = ( GEOMETRIC_REPRESENTATION_CONTEXT(2) 
PARAMETRIC_REPRESENTATION_CONTEXT() REPRESENTATION_CONTEXT('2D SPACE',''
  ) );
#43 = PCURVE('',#44,#49);
#44 = PLANE('',#45);
#45 = AXIS2_PLACEMENT_3D('',#46,#47,#48);
#46 = CARTESIAN_POINT('',(500.,0.,0.));
#47 = DIRECTION('',(-0.857492925713,0.514495755428,0.));
#48 = DIRECTION('',(-0.514495755428,-0.857492925713,0.));
#49 = DEFINITIONAL_REPRESENTATION('',(#50),#54);
#50 = LINE('',#51,#52);
#51 = CARTESIAN_POINT('',(583.09518948453,0.));
#52 = VECTOR('',#53,1.);
#53 = DIRECTION('',(-0.,-1.));
#54 = ( GEOMETRIC_REPRESENTATION_CONTEXT(2) 
PARAMETRIC_REPRESENTATION_CONTEXT() REPRESENTATION_CONTEXT('2D SPACE',''
  ) );
#55 = ORIENTED_EDGE('',*,*,#56,.T.);
#56 = EDGE_CURVE('',#24,#57,#59,.T.);
#57 = VERTEX_POINT('',#58);
#58 = CARTESIAN_POINT('',(-500.,0.,-300.));
#59 = SURFACE_CURVE('',#60,(#64),.PCURVE_S1.);
#60 = LINE('',#61,#62);
#61 = CARTESIAN_POINT('',(200.,-500.,-300.));
#62 = VECTOR('',#63,1.);
#63 = DIRECTION('',(-0.813733471207,0.581238193719,0.));
#64 = PCURVE('',#32,#65);
#65 = DEFINITIONAL_REPRESENTATION('',(#66),#70);
#66 = LINE('',#67,#68);
#67 = CARTESIAN_POINT('',(0.,-300.));
#68 = VECTOR('',#69,1.);
#69 = DIRECTION('',(1.,0.));
#70 = ( GEOMETRIC_REPRESENTATION_CONTEXT(2) 
PARAMETRIC_REPRESENTATION_CONTEXT() REPRESENTATION_CONTEXT('2D SPACE',''
  ) );
#71 = ORIENTED_EDGE('',*,*,#72,.F.);
#72 = EDGE_CURVE('',#73,#57,#75,.T.);
#73 = VERTEX_POINT('',#74);
#74 = CARTESIAN_POINT('',(-500.,0.,0.));
#75 = SURFACE_CURVE('',#76,(#80),.PCURVE_S1.);
#76 = LINE('',#77,#78);
#77 = CARTESIAN_POINT('',(-500.,0.,0.));
#78 = VECTOR('',#79,1.);
#79 = DIRECTION('',(0.,0.,-1.));
#80 = PCURVE('',#32,#81);
#81 = DEFINITIONAL_REPRESENTATION('',(#82),#86);
#82 = LINE('',#83,#84);
#83 = CARTESIAN_POINT('',(860.23252670426,0.));
#84 = VECTOR('',#85,1.);
#85 = DIRECTION('',(0.,-1.));
#86 = ( GEOMETRIC_REPRESENTATION_CONTEXT(2) 
PARAMETRIC_REPRESENTATION_CONTEXT() REPRESENTATION_CONTEXT('2D SPACE',''
  ) );
#87 = ORIENTED_EDGE('',*,*,#88,.F.);
#88 = EDGE_CURVE('',#22,#73,#89,.T.);
#89 = SURFACE_CURVE('',#90,(#94,#101),.PCURVE_S1.);
#90 = LINE('',#91,#92);
#91 = CARTESIAN_POINT('',(200.,-500.,0.));
#92 = VECTOR('',#93,1.);
#93 = DIRECTION('',(-0.813733471207,0.581238193719,0.));
#94 = PCURVE('',#32,#95);
#95 = DEFINITIONAL_REPRESENTATION('',(#96),#100);
#96 = LINE('',#97,#98);
#97 = CARTESIAN_POINT('',(0.,0.));
#98 = VECTOR('',#99,1.);
#99 = DIRECTION('',(1.,0.));
#100 = ( GEOMETRIC_REPRESENTATION_CONTEXT(2) 
PARAMETRIC_REPRESENTATION_CONTEXT() REPRESENTATION_CONTEXT('2D SPACE',''
  ) );
#101 = PCURVE('',#102,#119);
#102 = ( BOUNDED_SURFACE() B_SPLINE_SURFACE(1,7,(
    (#103,#104,#105,#106,#107,#108,#109,#110)
    ,(#111,#112,#113,#114,#115,#116,#117,#118
)),.UNSPECIFIED.,.F.,.F.,.F.) B_SPLINE_SURFACE_WITH_KNOTS((2,2),(8,8),(
    0.,172.04650534085),(0.,1.),.PIECEWISE_BEZIER_KNOTS.) 
GEOMETRIC_REPRESENTATION_ITEM() RATIONAL_B_SPLINE_SURFACE((
    (1.,1.,1.,1.,1.,1.,1.,1.)
,(1.,1.,1.,1.,1.,1.,1.,1.))) REPRESENTATION_ITEM('') SURFACE() );
#103 = CARTESIAN_POINT('',(200.,-500.,0.));
#104 = CARTESIAN_POINT('',(200.,-532.8566722857,74.346630902961));
#105 = CARTESIAN_POINT('',(199.99999999999,-558.4067702329,
    152.2481176437));
#106 = CARTESIAN_POINT('',(200.,-575.6675808088,233.78423659605));
#107 = CARTESIAN_POINT('',(199.99999999999,-583.5716050201,
    318.73933780285));
#108 = CARTESIAN_POINT('',(200.,-580.3942213561,406.01116500071));
#109 = CARTESIAN_POINT('',(200.,-565.8955097821,492.85755429361));
#110 = CARTESIAN_POINT('',(200.,-541.1604563665,577.14702696718));
#111 = CARTESIAN_POINT('',(-500.,0.,0.));
#112 = CARTESIAN_POINT('',(-500.,-32.8566722857,42.856529068306));
#113 = CARTESIAN_POINT('',(-500.,-60.71553223891,85.715779465186));
#114 = CARTESIAN_POINT('',(-499.9999999999,-83.56987717989,
    128.56984892568));
#115 = CARTESIAN_POINT('',(-500.,-101.429579141,171.42922025183));
#116 = CARTESIAN_POINT('',(-499.9999999999,-114.2854383688,
    214.28588229384));
#117 = CARTESIAN_POINT('',(-500.,-122.1428427036,257.14264055415));
#118 = CARTESIAN_POINT('',(-500.,-125.,300.));
#119 = DEFINITIONAL_REPRESENTATION('',(#120),#123);
#120 = B_SPLINE_CURVE_WITH_KNOTS('',1,(#121,#122),.UNSPECIFIED.,.F.,.F.,
  (2,2),(0.,860.23252670426),.PIECEWISE_BEZIER_KNOTS.);
#121 = CARTESIAN_POINT('',(0.,0.));
#122 = CARTESIAN_POINT('',(172.04650534085,0.));
#123 = ( GEOMETRIC_REPRESENTATION_CONTEXT(2) 
PARAMETRIC_REPRESENTATION_CONTEXT() REPRESENTATION_CONTEXT('2D SPACE',''
  ) );
#124 = ADVANCED_FACE('',(#125),#102,.T.);
#125 = FACE_BOUND('',#126,.T.);
#126 = EDGE_LOOP('',(#127,#128,#214,#229));
#127 = ORIENTED_EDGE('',*,*,#88,.T.);
#128 = ORIENTED_EDGE('',*,*,#129,.T.);
#129 = EDGE_CURVE('',#73,#130,#132,.T.);
#130 = VERTEX_POINT('',#131);
#131 = CARTESIAN_POINT('',(-500.,-125.,300.));
#132 = SURFACE_CURVE('',#133,(#138),.PCURVE_S1.);
#133 = B_SPLINE_CURVE_WITH_KNOTS('',3,(#134,#135,#136,#137),
  .UNSPECIFIED.,.F.,.F.,(4,4),(0.,1.),.PIECEWISE_BEZIER_KNOTS.);
#134 = CARTESIAN_POINT('',(-500.,0.,0.));
#135 = CARTESIAN_POINT('',(-500.,-76.66666666666,100.));
#136 = CARTESIAN_POINT('',(-500.,-118.3333333333,200.));
#137 = CARTESIAN_POINT('',(-500.,-125.,300.));
#138 = PCURVE('',#102,#139);
#139 = DEFINITIONAL_REPRESENTATION('',(#140),#213);
#140 = B_SPLINE_CURVE_WITH_KNOTS('',11,(#141,#142,#143,#144,#145,#146,
    #147,#148,#149,#150,#151,#152,#153,#154,#155,#156,#157,#158,#159,
    #160,#161,#162,#163,#164,#165,#166,#167,#168,#169,#170,#171,#172,
    #173,#174,#175,#176,#177,#178,#179,#180,#181,#182,#183,#184,#185,
    #186,#187,#188,#189,#190,#191,#192,#193,#194,#195,#196,#197,#198,
    #199,#200,#201,#202,#203,#204,#205,#206,#207,#208,#209,#210,#211,
    #212),.UNSPECIFIED.,.F.,.F.,(12,10,10,10,10,10,10,12),(0.,0.125,0.25
    ,0.5,0.75,0.875,0.9375,1.),.UNSPECIFIED.);
#141 = CARTESIAN_POINT('',(172.04650534085,0.));
#142 = CARTESIAN_POINT('',(172.04650534085,1.136379911301E-02));
#143 = CARTESIAN_POINT('',(172.04650534085,2.272611675372E-02));
#144 = CARTESIAN_POINT('',(172.04650534085,3.409626135889E-02));
#145 = CARTESIAN_POINT('',(172.04650534084,4.544582790309E-02));
#146 = CARTESIAN_POINT('',(172.04650534086,5.682927587455E-02));
#147 = CARTESIAN_POINT('',(172.04650534083,6.817339828907E-02));
#148 = CARTESIAN_POINT('',(172.04650534086,7.955079454731E-02));
#149 = CARTESIAN_POINT('',(172.04650534084,9.090760053161E-02));
#150 = CARTESIAN_POINT('',(172.04650534085,0.102273202492));
#151 = CARTESIAN_POINT('',(172.04650534085,0.113636645793));
#152 = CARTESIAN_POINT('',(172.04650534085,0.136363692573));
#153 = CARTESIAN_POINT('',(172.04650534084,0.147726741062));
#154 = CARTESIAN_POINT('',(172.04650534086,0.159091501024));
#155 = CARTESIAN_POINT('',(172.04650534083,0.17045457163));
#156 = CARTESIAN_POINT('',(172.04650534087,0.181817736178));
#157 = CARTESIAN_POINT('',(172.04650534083,0.193181927687));
#158 = CARTESIAN_POINT('',(172.04650534086,0.204545740129));
#159 = CARTESIAN_POINT('',(172.04650534084,0.215908869398));
#160 = CARTESIAN_POINT('',(172.04650534085,0.227272839646));
#161 = CARTESIAN_POINT('',(172.04650534085,0.238636281016));
#162 = CARTESIAN_POINT('',(172.04650534085,0.272727059997));
#163 = CARTESIAN_POINT('',(172.04650534086,0.295454528812));
#164 = CARTESIAN_POINT('',(172.04650534082,0.318182695663));
#165 = CARTESIAN_POINT('',(172.04650534091,0.340907801715));
#166 = CARTESIAN_POINT('',(172.04650534077,0.363636841655));
#167 = CARTESIAN_POINT('',(172.04650534093,0.38636435144));
#168 = CARTESIAN_POINT('',(172.04650534078,0.409089845594));
#169 = CARTESIAN_POINT('',(172.04650534089,0.431818790285));
#170 = CARTESIAN_POINT('',(172.04650534083,0.454545308235));
#171 = CARTESIAN_POINT('',(172.04650534085,0.477272727272));
#172 = CARTESIAN_POINT('',(172.04650534084,0.522727272728));
#173 = CARTESIAN_POINT('',(172.04650534087,0.545454545453));
#174 = CARTESIAN_POINT('',(172.04650534079,0.568181818184));
#175 = CARTESIAN_POINT('',(172.04650534095,0.590909090903));
#176 = CARTESIAN_POINT('',(172.04650534071,0.613636363642));
#177 = CARTESIAN_POINT('',(172.04650534098,0.636363636353));
#178 = CARTESIAN_POINT('',(172.04650534074,0.659090909099));
#179 = CARTESIAN_POINT('',(172.04650534091,0.681818181807));
#180 = CARTESIAN_POINT('',(172.04650534083,0.704545454549));
#181 = CARTESIAN_POINT('',(172.04650534085,0.727272727266));
#182 = CARTESIAN_POINT('',(172.04650534085,0.761363636365));
#183 = CARTESIAN_POINT('',(172.04650534084,0.7727272613));
#184 = CARTESIAN_POINT('',(172.04650534087,0.784090885545));
#185 = CARTESIAN_POINT('',(172.0465053408,0.795454516331));
#186 = CARTESIAN_POINT('',(172.04650534092,0.806818157462));
#187 = CARTESIAN_POINT('',(172.04650534078,0.818181809213));
#188 = CARTESIAN_POINT('',(172.0465053409,0.829545468436));
#189 = CARTESIAN_POINT('',(172.04650534082,0.840909128468));
#190 = CARTESIAN_POINT('',(172.04650534086,0.852272779199));
#191 = CARTESIAN_POINT('',(172.04650534085,0.863636407027));
#192 = CARTESIAN_POINT('',(172.04650534085,0.880681788815));
#193 = CARTESIAN_POINT('',(172.04650534086,0.886363723684));
#194 = CARTESIAN_POINT('',(172.04650534081,0.892045645597));
#195 = CARTESIAN_POINT('',(172.04650534093,0.89772750588));
#196 = CARTESIAN_POINT('',(172.04650534072,0.903409313113));
#197 = CARTESIAN_POINT('',(172.04650534099,0.909091097214));
#198 = CARTESIAN_POINT('',(172.04650534073,0.914772885602));
#199 = CARTESIAN_POINT('',(172.04650534091,0.920454691415));
#200 = CARTESIAN_POINT('',(172.04650534082,0.926136513799));
#201 = CARTESIAN_POINT('',(172.04650534085,0.93181835026));
#202 = CARTESIAN_POINT('',(172.04650534085,0.9431820919));
#203 = CARTESIAN_POINT('',(172.04650534083,0.948863785634));
#204 = CARTESIAN_POINT('',(172.04650534091,0.954545553307));
#205 = CARTESIAN_POINT('',(172.04650534074,0.960227400028));
#206 = CARTESIAN_POINT('',(172.04650534098,0.965909243217));
#207 = CARTESIAN_POINT('',(172.04650534072,0.971591017955));
#208 = CARTESIAN_POINT('',(172.04650534094,0.977272729462));
#209 = CARTESIAN_POINT('',(172.0465053408,0.982954452707));
#210 = CARTESIAN_POINT('',(172.04650534087,0.988636279136));
#211 = CARTESIAN_POINT('',(172.04650534084,0.994318210532));
#212 = CARTESIAN_POINT('',(172.04650534085,1.));
#213 = ( GEOMETRIC_REPRESENTATION_CONTEXT(2) 
PARAMETRIC_REPRESENTATION_CONTEXT() REPRESENTATION_CONTEXT('2D SPACE',''
  ) );
#214 = ORIENTED_EDGE('',*,*,#215,.F.);
#215 = EDGE_CURVE('',#216,#130,#218,.T.);
#216 = VERTEX_POINT('',#217);
#217 = CARTESIAN_POINT('',(200.,-541.1604563665,577.14702696718));
#218 = SURFACE_CURVE('',#219,(#223),.PCURVE_S1.);
#219 = LINE('',#220,#221);
#220 = CARTESIAN_POINT('',(200.,-541.1604563665,577.14702696718));
#221 = VECTOR('',#222,1.);
#222 = DIRECTION('',(-0.813733471207,0.483776703912,-0.322176874698));
#223 = PCURVE('',#102,#224);
#224 = DEFINITIONAL_REPRESENTATION('',(#225),#228);
#225 = B_SPLINE_CURVE_WITH_KNOTS('',1,(#226,#227),.UNSPECIFIED.,.F.,.F.,
  (2,2),(0.,860.23252670426),.PIECEWISE_BEZIER_KNOTS.);
#226 = CARTESIAN_POINT('',(0.,1.));
#227 = CARTESIAN_POINT('',(172.04650534085,1.));
#228 = ( GEOMETRIC_REPRESENTATION_CONTEXT(2) 
PARAMETRIC_REPRESENTATION_CONTEXT() REPRESENTATION_CONTEXT('2D SPACE',''
  ) );
#229 = ORIENTED_EDGE('',*,*,#230,.F.);
#230 = EDGE_CURVE('',#22,#216,#231,.T.);
#231 = SURFACE_CURVE('',#232,(#246,#259),.PCURVE_S1.);
#232 = B_SPLINE_CURVE_WITH_KNOTS('',7,(#233,#234,#235,#236,#237,#238,
    #239,#240,#241,#242,#243,#244,#245),.UNSPECIFIED.,.F.,.F.,(8,5,8),(
    0.,0.5,1.),.UNSPECIFIED.);
#233 = CARTESIAN_POINT('',(200.,-500.,0.));
#234 = CARTESIAN_POINT('',(200.,-516.4285646932,37.173856465391));
#235 = CARTESIAN_POINT('',(199.99999999998,-531.0287070324,
    75.23463828443));
#236 = CARTESIAN_POINT('',(200.00000000001,-543.6829361357,
    114.19600564746));
#237 = CARTESIAN_POINT('',(199.99999999999,-554.2572700332,
    154.04724763872));
#238 = CARTESIAN_POINT('',(200.,-562.6025474695,194.74278187526));
#239 = CARTESIAN_POINT('',(199.99999999999,-574.5355374227,
    277.61657771744));
#240 = CARTESIAN_POINT('',(200.,-576.4700778784,362.81586382301));
#241 = CARTESIAN_POINT('',(199.99999999998,-574.8168290392,
    405.83669463494));
#242 = CARTESIAN_POINT('',(200.00000000002,-570.4507477942,
    449.06242449466));
#243 = CARTESIAN_POINT('',(199.99999999998,-563.3354348753,
    492.21729111522));
#244 = CARTESIAN_POINT('',(200.,-553.5279283971,535.00247989757));
#245 = CARTESIAN_POINT('',(200.,-541.1604563665,577.14702696718));
#246 = PCURVE('',#102,#247);
#247 = DEFINITIONAL_REPRESENTATION('',(#248),#258);
#248 = B_SPLINE_CURVE_WITH_KNOTS('',8,(#249,#250,#251,#252,#253,#254,
    #255,#256,#257),.UNSPECIFIED.,.F.,.F.,(9,9),(0.,1.),
  .PIECEWISE_BEZIER_KNOTS.);
#249 = CARTESIAN_POINT('',(0.,5.551115123126E-17));
#250 = CARTESIAN_POINT('',(0.,0.125001806118));
#251 = CARTESIAN_POINT('',(0.,0.249991166134));
#252 = CARTESIAN_POINT('',(0.,0.375018529005));
#253 = CARTESIAN_POINT('',(0.,0.499978746272));
#254 = CARTESIAN_POINT('',(0.,0.62501385925));
#255 = CARTESIAN_POINT('',(0.,0.749995290589));
#256 = CARTESIAN_POINT('',(0.,0.875000560668));
#257 = CARTESIAN_POINT('',(0.,1.));
#258 = ( GEOMETRIC_REPRESENTATION_CONTEXT(2) 
PARAMETRIC_REPRESENTATION_CONTEXT() REPRESENTATION_CONTEXT('2D SPACE',''
  ) );
#259 = PCURVE('',#260,#277);
#260 = ( BOUNDED_SURFACE() B_SPLINE_SURFACE(1,7,(
    (#261,#262,#263,#264,#265,#266,#267,#268)
    ,(#269,#270,#271,#272,#273,#274,#275,#276
)),.UNSPECIFIED.,.F.,.F.,.F.) B_SPLINE_SURFACE_WITH_KNOTS((2,2),(8,8),(
    0.,116.6190378969),(0.,1.),.PIECEWISE_BEZIER_KNOTS.) 
GEOMETRIC_REPRESENTATION_ITEM() RATIONAL_B_SPLINE_SURFACE((
    (1.,1.,1.,1.,1.,1.,1.,1.)
,(1.,1.,1.,1.,1.,1.,1.,1.))) REPRESENTATION_ITEM('') SURFACE() );
#261 = CARTESIAN_POINT('',(500.,0.,0.));
#262 = CARTESIAN_POINT('',(500.,-32.8566722857,42.856529068306));
#263 = CARTESIAN_POINT('',(500.,-60.71553223891,85.715779465187));
#264 = CARTESIAN_POINT('',(499.99999999998,-83.56987717989,
    128.56984892568));
#265 = CARTESIAN_POINT('',(500.00000000001,-101.429579141,
    171.42922025183));
#266 = CARTESIAN_POINT('',(499.99999999999,-114.2854383688,
    214.28588229384));
#267 = CARTESIAN_POINT('',(500.,-122.1428427036,257.14264055415));
#268 = CARTESIAN_POINT('',(500.,-125.,300.));
#269 = CARTESIAN_POINT('',(200.,-500.,0.));
#270 = CARTESIAN_POINT('',(200.,-532.8566722857,74.34663090296));
#271 = CARTESIAN_POINT('',(200.,-558.4067702329,152.2481176437));
#272 = CARTESIAN_POINT('',(199.99999999999,-575.6675808088,
    233.78423659605));
#273 = CARTESIAN_POINT('',(200.,-583.5716050201,318.73933780285));
#274 = CARTESIAN_POINT('',(200.,-580.3942213561,406.01116500071));
#275 = CARTESIAN_POINT('',(200.,-565.8955097821,492.8575542936));
#276 = CARTESIAN_POINT('',(200.,-541.1604563665,577.14702696718));
#277 = DEFINITIONAL_REPRESENTATION('',(#278),#288);
#278 = B_SPLINE_CURVE_WITH_KNOTS('',8,(#279,#280,#281,#282,#283,#284,
    #285,#286,#287),.UNSPECIFIED.,.F.,.F.,(9,9),(0.,1.),
  .PIECEWISE_BEZIER_KNOTS.);
#279 = CARTESIAN_POINT('',(116.6190378969,-1.110223024625E-16));
#280 = CARTESIAN_POINT('',(116.6190378969,0.125001806118));
#281 = CARTESIAN_POINT('',(116.6190378969,0.249991166134));
#282 = CARTESIAN_POINT('',(116.61903789691,0.375018529005));
#283 = CARTESIAN_POINT('',(116.6190378969,0.499978746272));
#284 = CARTESIAN_POINT('',(116.6190378969,0.62501385925));
#285 = CARTESIAN_POINT('',(116.6190378969,0.749995290589));
#286 = CARTESIAN_POINT('',(116.6190378969,0.875000560668));
#287 = CARTESIAN_POINT('',(116.6190378969,1.));
#288 = ( GEOMETRIC_REPRESENTATION_CONTEXT(2) 
PARAMETRIC_REPRESENTATION_CONTEXT() REPRESENTATION_CONTEXT('2D SPACE',''
  ) );
#289 = ADVANCED_FACE('',(#290),#260,.T.);
#290 = FACE_BOUND('',#291,.T.);
#291 = EDGE_LOOP('',(#292,#314,#315,#330));
#292 = ORIENTED_EDGE('',*,*,#293,.T.);
#293 = EDGE_CURVE('',#294,#22,#296,.T.);
#294 = VERTEX_POINT('',#295);
#295 = CARTESIAN_POINT('',(500.,0.,0.));
#296 = SURFACE_CURVE('',#297,(#301,#307),.PCURVE_S1.);
#297 = LINE('',#298,#299);
#298 = CARTESIAN_POINT('',(500.,0.,0.));
#299 = VECTOR('',#300,1.);
#300 = DIRECTION('',(-0.514495755428,-0.857492925713,0.));
#301 = PCURVE('',#260,#302);
#302 = DEFINITIONAL_REPRESENTATION('',(#303),#306);
#303 = B_SPLINE_CURVE_WITH_KNOTS('',1,(#304,#305),.UNSPECIFIED.,.F.,.F.,
  (2,2),(0.,583.09518948453),.PIECEWISE_BEZIER_KNOTS.);
#304 = CARTESIAN_POINT('',(0.,0.));
#305 = CARTESIAN_POINT('',(116.6190378969,0.));
#306 = ( GEOMETRIC_REPRESENTATION_CONTEXT(2) 
PARAMETRIC_REPRESENTATION_CONTEXT() REPRESENTATION_CONTEXT('2D SPACE',''
  ) );
#307 = PCURVE('',#44,#308);
#308 = DEFINITIONAL_REPRESENTATION('',(#309),#313);
#309 = LINE('',#310,#311);
#310 = CARTESIAN_POINT('',(0.,0.));
#311 = VECTOR('',#312,1.);
#312 = DIRECTION('',(1.,0.));
#313 = ( GEOMETRIC_REPRESENTATION_CONTEXT(2) 
PARAMETRIC_REPRESENTATION_CONTEXT() REPRESENTATION_CONTEXT('2D SPACE',''
  ) );
#314 = ORIENTED_EDGE('',*,*,#230,.T.);
#315 = ORIENTED_EDGE('',*,*,#316,.F.);
#316 = EDGE_CURVE('',#317,#216,#319,.T.);
#317 = VERTEX_POINT('',#318);
#318 = CARTESIAN_POINT('',(500.,-125.,300.));
#319 = SURFACE_CURVE('',#320,(#324),.PCURVE_S1.);
#320 = LINE('',#321,#322);
#321 = CARTESIAN_POINT('',(500.,-125.,300.));
#322 = VECTOR('',#323,1.);
#323 = DIRECTION('',(-0.514495755428,-0.713709294591,0.475303230013));
#324 = PCURVE('',#260,#325);
#325 = DEFINITIONAL_REPRESENTATION('',(#326),#329);
#326 = B_SPLINE_CURVE_WITH_KNOTS('',1,(#327,#328),.UNSPECIFIED.,.F.,.F.,
  (2,2),(0.,583.09518948453),.PIECEWISE_BEZIER_KNOTS.);
#327 = CARTESIAN_POINT('',(0.,1.));
#328 = CARTESIAN_POINT('',(116.6190378969,1.));
#329 = ( GEOMETRIC_REPRESENTATION_CONTEXT(2) 
PARAMETRIC_REPRESENTATION_CONTEXT() REPRESENTATION_CONTEXT('2D SPACE',''
  ) );
#330 = ORIENTED_EDGE('',*,*,#331,.F.);
#331 = EDGE_CURVE('',#294,#317,#332,.T.);
#332 = SURFACE_CURVE('',#333,(#338),.PCURVE_S1.);
#333 = B_SPLINE_CURVE_WITH_KNOTS('',3,(#334,#335,#336,#337),
  .UNSPECIFIED.,.F.,.F.,(4,4),(0.,1.),.PIECEWISE_BEZIER_KNOTS.);
#334 = CARTESIAN_POINT('',(500.,0.,0.));
#335 = CARTESIAN_POINT('',(500.,-76.66666666666,100.));
#336 = CARTESIAN_POINT('',(500.,-118.3333333333,200.));
#337 = CARTESIAN_POINT('',(500.,-125.,300.));
#338 = PCURVE('',#260,#339);
#339 = DEFINITIONAL_REPRESENTATION('',(#340),#413);
#340 = B_SPLINE_CURVE_WITH_KNOTS('',11,(#341,#342,#343,#344,#345,#346,
    #347,#348,#349,#350,#351,#352,#353,#354,#355,#356,#357,#358,#359,
    #360,#361,#362,#363,#364,#365,#366,#367,#368,#369,#370,#371,#372,
    #373,#374,#375,#376,#377,#378,#379,#380,#381,#382,#383,#384,#385,
    #386,#387,#388,#389,#390,#391,#392,#393,#394,#395,#396,#397,#398,
    #399,#400,#401,#402,#403,#404,#405,#406,#407,#408,#409,#410,#411,
    #412),.UNSPECIFIED.,.F.,.F.,(12,10,10,10,10,10,10,12),(0.,0.125,0.25
    ,0.5,0.75,0.875,0.9375,1.),.UNSPECIFIED.);
#341 = CARTESIAN_POINT('',(0.,-2.775557561563E-17));
#342 = CARTESIAN_POINT('',(0.,1.136379911301E-02));
#343 = CARTESIAN_POINT('',(0.,2.272611675372E-02));
#344 = CARTESIAN_POINT('',(0.,3.409626135889E-02));
#345 = CARTESIAN_POINT('',(0.,4.544582790308E-02));
#346 = CARTESIAN_POINT('',(0.,5.682927587456E-02));
#347 = CARTESIAN_POINT('',(0.,6.817339828905E-02));
#348 = CARTESIAN_POINT('',(0.,7.955079454733E-02));
#349 = CARTESIAN_POINT('',(0.,9.09076005316E-02));
#350 = CARTESIAN_POINT('',(0.,0.102273202492));
#351 = CARTESIAN_POINT('',(0.,0.113636645793));
#352 = CARTESIAN_POINT('',(0.,0.136363692573));
#353 = CARTESIAN_POINT('',(0.,0.147726741062));
#354 = CARTESIAN_POINT('',(0.,0.159091501024));
#355 = CARTESIAN_POINT('',(0.,0.17045457163));
#356 = CARTESIAN_POINT('',(0.,0.181817736178));
#357 = CARTESIAN_POINT('',(0.,0.193181927687));
#358 = CARTESIAN_POINT('',(0.,0.204545740129));
#359 = CARTESIAN_POINT('',(0.,0.215908869398));
#360 = CARTESIAN_POINT('',(0.,0.227272839646));
#361 = CARTESIAN_POINT('',(0.,0.238636281016));
#362 = CARTESIAN_POINT('',(0.,0.272727059997));
#363 = CARTESIAN_POINT('',(0.,0.295454528812));
#364 = CARTESIAN_POINT('',(0.,0.318182695663));
#365 = CARTESIAN_POINT('',(0.,0.340907801715));
#366 = CARTESIAN_POINT('',(0.,0.363636841655));
#367 = CARTESIAN_POINT('',(0.,0.38636435144));
#368 = CARTESIAN_POINT('',(0.,0.409089845594));
#369 = CARTESIAN_POINT('',(0.,0.431818790285));
#370 = CARTESIAN_POINT('',(0.,0.454545308235));
#371 = CARTESIAN_POINT('',(0.,0.477272727272));
#372 = CARTESIAN_POINT('',(0.,0.522727272728));
#373 = CARTESIAN_POINT('',(0.,0.545454545453));
#374 = CARTESIAN_POINT('',(0.,0.568181818184));
#375 = CARTESIAN_POINT('',(0.,0.590909090903));
#376 = CARTESIAN_POINT('',(0.,0.613636363643));
#377 = CARTESIAN_POINT('',(0.,0.636363636352));
#378 = CARTESIAN_POINT('',(0.,0.659090909099));
#379 = CARTESIAN_POINT('',(0.,0.681818181807));
#380 = CARTESIAN_POINT('',(0.,0.704545454549));
#381 = CARTESIAN_POINT('',(0.,0.727272727266));
#382 = CARTESIAN_POINT('',(0.,0.761363636365));
#383 = CARTESIAN_POINT('',(0.,0.7727272613));
#384 = CARTESIAN_POINT('',(0.,0.784090885546));
#385 = CARTESIAN_POINT('',(0.,0.795454516331));
#386 = CARTESIAN_POINT('',(0.,0.806818157463));
#387 = CARTESIAN_POINT('',(0.,0.818181809212));
#388 = CARTESIAN_POINT('',(0.,0.829545468436));
#389 = CARTESIAN_POINT('',(0.,0.840909128468));
#390 = CARTESIAN_POINT('',(0.,0.852272779199));
#391 = CARTESIAN_POINT('',(0.,0.863636407027));
#392 = CARTESIAN_POINT('',(0.,0.880681788815));
#393 = CARTESIAN_POINT('',(0.,0.886363723684));
#394 = CARTESIAN_POINT('',(0.,0.892045645597));
#395 = CARTESIAN_POINT('',(0.,0.89772750588));
#396 = CARTESIAN_POINT('',(0.,0.903409313113));
#397 = CARTESIAN_POINT('',(0.,0.909091097214));
#398 = CARTESIAN_POINT('',(0.,0.914772885602));
#399 = CARTESIAN_POINT('',(0.,0.920454691415));
#400 = CARTESIAN_POINT('',(0.,0.926136513799));
#401 = CARTESIAN_POINT('',(0.,0.93181835026));
#402 = CARTESIAN_POINT('',(0.,0.9431820919));
#403 = CARTESIAN_POINT('',(0.,0.948863785634));
#404 = CARTESIAN_POINT('',(0.,0.954545553307));
#405 = CARTESIAN_POINT('',(0.,0.960227400028));
#406 = CARTESIAN_POINT('',(0.,0.965909243218));
#407 = CARTESIAN_POINT('',(0.,0.971591017954));
#408 = CARTESIAN_POINT('',(0.,0.977272729462));
#409 = CARTESIAN_POINT('',(0.,0.982954452707));
#410 = CARTESIAN_POINT('',(0.,0.988636279136));
#411 = CARTESIAN_POINT('',(0.,0.994318210532));
#412 = CARTESIAN_POINT('',(0.,1.));
#413 = ( GEOMETRIC_REPRESENTATION_CONTEXT(2) 
PARAMETRIC_REPRESENTATION_CONTEXT() REPRESENTATION_CONTEXT('2D SPACE',''
  ) );
#414 = ADVANCED_FACE('',(#415),#44,.T.);
#415 = FACE_BOUND('',#416,.T.);
#416 = EDGE_LOOP('',(#417,#433,#447,#448));
#417 = ORIENTED_EDGE('',*,*,#418,.T.);
#418 = EDGE_CURVE('',#294,#419,#421,.T.);
#419 = VERTEX_POINT('',#420);
#420 = CARTESIAN_POINT('',(500.,0.,-300.));
#421 = SURFACE_CURVE('',#422,(#426),.PCURVE_S1.);
#422 = LINE('',#423,#424);
#423 = CARTESIAN_POINT('',(500.,0.,0.));
#424 = VECTOR('',#425,1.);
#425 = DIRECTION('',(0.,0.,-1.));
#426 = PCURVE('',#44,#427);
#427 = DEFINITIONAL_REPRESENTATION('',(#428),#432);
#428 = LINE('',#429,#430);
#429 = CARTESIAN_POINT('',(0.,0.));
#430 = VECTOR('',#431,1.);
#431 = DIRECTION('',(-0.,-1.));
#432 = ( GEOMETRIC_REPRESENTATION_CONTEXT(2) 
PARAMETRIC_REPRESENTATION_CONTEXT() REPRESENTATION_CONTEXT('2D SPACE',''
  ) );
#433 = ORIENTED_EDGE('',*,*,#434,.T.);
#434 = EDGE_CURVE('',#419,#24,#435,.T.);
#435 = SURFACE_CURVE('',#436,(#440),.PCURVE_S1.);
#436 = LINE('',#437,#438);
#437 = CARTESIAN_POINT('',(500.,0.,-300.));
#438 = VECTOR('',#439,1.);
#439 = DIRECTION('',(-0.514495755428,-0.857492925713,0.));
#440 = PCURVE('',#44,#441);
#441 = DEFINITIONAL_REPRESENTATION('',(#442),#446);
#442 = LINE('',#443,#444);
#443 = CARTESIAN_POINT('',(-0.,-300.));
#444 = VECTOR('',#445,1.);
#445 = DIRECTION('',(1.,0.));
#446 = ( GEOMETRIC_REPRESENTATION_CONTEXT(2) 
PARAMETRIC_REPRESENTATION_CONTEXT() REPRESENTATION_CONTEXT('2D SPACE',''
  ) );
#447 = ORIENTED_EDGE('',*,*,#21,.F.);
#448 = ORIENTED_EDGE('',*,*,#293,.F.);
#449 = ( GEOMETRIC_REPRESENTATION_CONTEXT(3) 
GLOBAL_UNCERTAINTY_ASSIGNED_CONTEXT((#453)) GLOBAL_UNIT_ASSIGNED_CONTEXT
((#450,#451,#452)) REPRESENTATION_CONTEXT('Context #1',
  '3D Context with UNIT and UNCERTAINTY') );
#450 = ( LENGTH_UNIT() NAMED_UNIT(*) SI_UNIT(.MILLI.,.METRE.) );
#451 = ( NAMED_UNIT(*) PLANE_ANGLE_UNIT() SI_UNIT($,.RADIAN.) );
#452 = ( NAMED_UNIT(*) SI_UNIT($,.STERADIAN.) SOLID_ANGLE_UNIT() );
#453 = UNCERTAINTY_MEASURE_WITH_UNIT(LENGTH_MEASURE(1.E-04),#450,
  'distance_accuracy_value','confusion accuracy');
#454 = PRODUCT_RELATED_PRODUCT_CATEGORY('part',$,(#7));
ENDSEC;
END-ISO-10303-21;
