ISO-10303-21;
HEADER;
FILE_DESCRIPTION(('Open CASCADE Model'),'2;1');
FILE_NAME('Open CASCADE Shape Model','2026-07-11T20:16:09',('Author'),(
    'Open CASCADE'),'Open CASCADE STEP processor 8.0','Open CASCADE 8.0'
  ,'Unknown');
FILE_SCHEMA(('AUTOMOTIVE_DESIGN { 1 0 10303 214 1 1 1 1 }'));
ENDSEC;
DATA;
#1 = APPLICATION_PROTOCOL_DEFINITION('international standard',
  'automotive_design',2000,#2);
#2 = APPLICATION_CONTEXT(
  'core data for automotive mechanical design processes');
#3 = SHAPE_DEFINITION_REPRESENTATION(#4,#10);
#4 = PRODUCT_DEFINITION_SHAPE('','',#5);
#5 = PRODUCT_DEFINITION('design','',#6,#9);
#6 = PRODUCT_DEFINITION_FORMATION('','',#7);
#7 = PRODUCT('Open CASCADE STEP translator 8.0 1',
  'Open CASCADE STEP translator 8.0 1','',(#8));
#8 = PRODUCT_CONTEXT('',#2,'mechanical');
#9 = PRODUCT_DEFINITION_CONTEXT('part definition',#2,'design');
#10 = MANIFOLD_SURFACE_SHAPE_REPRESENTATION('',(#11,#15),#594);
#11 = AXIS2_PLACEMENT_3D('',#12,#13,#14);
#12 = CARTESIAN_POINT('',(0.,0.,0.));
#13 = DIRECTION('',(0.,0.,1.));
#14 = DIRECTION('',(1.,0.,-0.));
#15 = SHELL_BASED_SURFACE_MODEL('',(#16));
#16 = OPEN_SHELL('',(#17,#258,#373,#488,#553));
#17 = ADVANCED_FACE('',(#18),#36,.T.);
#18 = FACE_BOUND('',#19,.T.);
#19 = EDGE_LOOP('',(#20,#147,#166,#185));
#20 = ORIENTED_EDGE('',*,*,#21,.T.);
#21 = EDGE_CURVE('',#22,#24,#26,.T.);
#22 = VERTEX_POINT('',#23);
#23 = CARTESIAN_POINT('',(4.7432746,241.39947,420.));
#24 = VERTEX_POINT('',#25);
#25 = CARTESIAN_POINT('',(-124.0668599999,684.79336,-1.110223024625E-13)
  );
#26 = SURFACE_CURVE('',#27,(#35,#91),.PCURVE_S1.);
#27 = B_SPLINE_CURVE_WITH_KNOTS('',6,(#28,#29,#30,#31,#32,#33,#34),
  .UNSPECIFIED.,.F.,.F.,(7,7),(0.,1.),.PIECEWISE_BEZIER_KNOTS.);
#28 = CARTESIAN_POINT('',(4.7432746,241.39947,420.));
#29 = CARTESIAN_POINT('',(-16.725082,315.29845,350.));
#30 = CARTESIAN_POINT('',(-38.193438,389.19743,280.));
#31 = CARTESIAN_POINT('',(-188.12151,561.66676,329.3573));
#32 = CARTESIAN_POINT('',(-107.4329,627.53546,54.23692));
#33 = CARTESIAN_POINT('',(-102.59851,610.89438,70.));
#34 = CARTESIAN_POINT('',(-124.06686,684.79336,-9.094947E-13));
#35 = PCURVE('',#36,#86);
#36 = B_SPLINE_SURFACE_WITH_KNOTS('',6,6,(
    (#37,#38,#39,#40,#41,#42,#43)
    ,(#44,#45,#46,#47,#48,#49,#50)
    ,(#51,#52,#53,#54,#55,#56,#57)
    ,(#58,#59,#60,#61,#62,#63,#64)
    ,(#65,#66,#67,#68,#69,#70,#71)
    ,(#72,#73,#74,#75,#76,#77,#78)
    ,(#79,#80,#81,#82,#83,#84,#85
    )),.UNSPECIFIED.,.F.,.F.,.F.,(7,7),(7,7),(0.,1.),(0.,1.),
  .PIECEWISE_BEZIER_KNOTS.);
#37 = CARTESIAN_POINT('',(4.7432746,241.39947,420.));
#38 = CARTESIAN_POINT('',(-47.829962,273.24501,350.));
#39 = CARTESIAN_POINT('',(-105.08193,307.92464,273.77038));
#40 = CARTESIAN_POINT('',(-332.70804,275.79566,232.58061));
#41 = CARTESIAN_POINT('',(-205.54967,368.78164,140.));
#42 = CARTESIAN_POINT('',(-258.12291,400.62718,70.));
#43 = CARTESIAN_POINT('',(-310.69615,432.47272,8.5265128E-14));
#44 = CARTESIAN_POINT('',(-16.725082,315.29845,350.));
#45 = CARTESIAN_POINT('',(-69.298319,347.14399,280.));
#46 = CARTESIAN_POINT('',(-126.35215,381.70359,204.0342));
#47 = CARTESIAN_POINT('',(-353.79717,336.94857,163.14957));
#48 = CARTESIAN_POINT('',(-227.01803,442.68062,70.));
#49 = CARTESIAN_POINT('',(-279.59127,474.52616,-1.4210855E-13));
#50 = CARTESIAN_POINT('',(-332.1645,506.3717,-70.));
#51 = CARTESIAN_POINT('',(-38.193438,389.19743,280.));
#52 = CARTESIAN_POINT('',(-93.747176,431.30254,200.28174));
#53 = CARTESIAN_POINT('',(-153.58336,476.00168,114.8615));
#54 = CARTESIAN_POINT('',(-383.82781,428.88018,64.56375));
#55 = CARTESIAN_POINT('',(-260.40839,557.61786,-38.873042));
#56 = CARTESIAN_POINT('',(-315.96213,599.72296,-118.5913));
#57 = CARTESIAN_POINT('',(-371.51587,641.82807,-198.30956));
#58 = CARTESIAN_POINT('',(-188.12151,561.66676,329.3573));
#59 = CARTESIAN_POINT('',(-261.14106,581.20937,256.16667));
#60 = CARTESIAN_POINT('',(-338.24491,603.22599,177.5379));
#61 = CARTESIAN_POINT('',(-585.77408,520.91594,134.07292));
#62 = CARTESIAN_POINT('',(-480.1997,639.8372,36.594804));
#63 = CARTESIAN_POINT('',(-553.21924,659.37981,-36.595819));
#64 = CARTESIAN_POINT('',(-626.23879,678.92242,-109.78644));
#65 = CARTESIAN_POINT('',(-107.4329,627.53546,54.23692));
#66 = CARTESIAN_POINT('',(-155.62234,644.29099,-1.4692331));
#67 = CARTESIAN_POINT('',(-207.69795,663.40051,-62.349717));
#68 = CARTESIAN_POINT('',(-430.21594,565.67733,-88.025087));
#69 = CARTESIAN_POINT('',(-300.19068,694.55758,-168.58769));
#70 = CARTESIAN_POINT('',(-348.38013,711.31311,-224.29385));
#71 = CARTESIAN_POINT('',(-396.56957,728.06864,-280.));
#72 = CARTESIAN_POINT('',(-102.59851,610.89438,70.));
#73 = CARTESIAN_POINT('',(-155.17174,642.73992,-3.126388E-13));
#74 = CARTESIAN_POINT('',(-211.433,676.81943,-74.910507));
#75 = CARTESIAN_POINT('',(-438.1537,581.56021,-114.57459));
#76 = CARTESIAN_POINT('',(-312.89145,738.27654,-210.));
#77 = CARTESIAN_POINT('',(-365.46469,770.12208,-280.));
#78 = CARTESIAN_POINT('',(-418.03793,801.96762,-350.));
#79 = CARTESIAN_POINT('',(-124.06686,684.79336,-2.7284841E-12));
#80 = CARTESIAN_POINT('',(-176.6401,716.6389,-70.));
#81 = CARTESIAN_POINT('',(-232.70321,750.59838,-144.64668));
#82 = CARTESIAN_POINT('',(-459.24283,642.71312,-184.00563));
#83 = CARTESIAN_POINT('',(-334.35981,812.17552,-280.));
#84 = CARTESIAN_POINT('',(-386.93305,844.02106,-350.));
#85 = CARTESIAN_POINT('',(-439.50628,875.8666,-420.));
#86 = DEFINITIONAL_REPRESENTATION('',(#87),#90);
#87 = B_SPLINE_CURVE_WITH_KNOTS('',1,(#88,#89),.UNSPECIFIED.,.F.,.F.,(2,
    2),(0.,1.),.PIECEWISE_BEZIER_KNOTS.);
#88 = CARTESIAN_POINT('',(0.,0.));
#89 = CARTESIAN_POINT('',(1.,0.));
#90 = ( GEOMETRIC_REPRESENTATION_CONTEXT(2) 
PARAMETRIC_REPRESENTATION_CONTEXT() REPRESENTATION_CONTEXT('2D SPACE',''
  ) );
#91 = PCURVE('',#92,#142);
#92 = B_SPLINE_SURFACE_WITH_KNOTS('',6,6,(
    (#93,#94,#95,#96,#97,#98,#99)
    ,(#100,#101,#102,#103,#104,#105,#106)
    ,(#107,#108,#109,#110,#111,#112,#113)
    ,(#114,#115,#116,#117,#118,#119,#120)
    ,(#121,#122,#123,#124,#125,#126,#127)
    ,(#128,#129,#130,#131,#132,#133,#134)
    ,(#135,#136,#137,#138,#139,#140,#141
    )),.UNSPECIFIED.,.F.,.F.,.F.,(7,7),(7,7),(0.,1.),(0.,1.),
  .PIECEWISE_BEZIER_KNOTS.);
#93 = CARTESIAN_POINT('',(4.7432746,241.39947,420.));
#94 = CARTESIAN_POINT('',(-16.725082,315.29845,350.));
#95 = CARTESIAN_POINT('',(-38.193438,389.19743,280.));
#96 = CARTESIAN_POINT('',(-188.12151,561.66676,329.3573));
#97 = CARTESIAN_POINT('',(-107.4329,627.53546,54.23692));
#98 = CARTESIAN_POINT('',(-102.59851,610.89438,70.));
#99 = CARTESIAN_POINT('',(-124.06686,684.79336,-1.3642421E-12));
#100 = CARTESIAN_POINT('',(43.667042,285.98808,350.));
#101 = CARTESIAN_POINT('',(22.198686,359.88706,280.));
#102 = CARTESIAN_POINT('',(-0.68517972,438.65854,205.38457));
#103 = CARTESIAN_POINT('',(-170.00247,603.51689,245.88388));
#104 = CARTESIAN_POINT('',(-64.12534,657.03405,-1.4692331));
#105 = CARTESIAN_POINT('',(-63.67474,655.48298,4.8316906E-13));
#106 = CARTESIAN_POINT('',(-85.143096,729.38196,-70.));
#107 = CARTESIAN_POINT('',(82.59081,330.57668,280.));
#108 = CARTESIAN_POINT('',(61.213741,404.58023,209.83583));
#109 = CARTESIAN_POINT('',(37.005654,488.3288,130.4408));
#110 = CARTESIAN_POINT('',(-151.60957,645.68073,161.91796));
#111 = CARTESIAN_POINT('',(-20.45263,686.95094,-57.832069));
#112 = CARTESIAN_POINT('',(-24.294534,700.59445,-70.820853));
#113 = CARTESIAN_POINT('',(-45.671602,774.598,-140.98502));
#114 = CARTESIAN_POINT('',(7.6532484,547.01753,216.25223));
#115 = CARTESIAN_POINT('',(-23.9503,618.99701,145.93407));
#116 = CARTESIAN_POINT('',(-59.800376,705.594,61.769619));
#117 = CARTESIAN_POINT('',(-278.0313,853.31087,84.234787));
#118 = CARTESIAN_POINT('',(-131.91232,880.20546,-107.90197));
#119 = CARTESIAN_POINT('',(-150.36449,906.9149,-135.3386));
#120 = CARTESIAN_POINT('',(-181.96804,978.89437,-205.65676));
#121 = CARTESIAN_POINT('',(166.04703,426.17885,129.91341));
#122 = CARTESIAN_POINT('',(143.6439,499.007,61.594507));
#123 = CARTESIAN_POINT('',(115.57872,591.32517,-25.186104));
#124 = CARTESIAN_POINT('',(-112.84101,732.27975,-9.5796583));
#125 = CARTESIAN_POINT('',(67.666899,747.67148,-171.94989));
#126 = CARTESIAN_POINT('',(54.031344,790.31962,-211.6811));
#127 = CARTESIAN_POINT('',(31.628207,863.14777,-280.));
#128 = CARTESIAN_POINT('',(199.36211,464.34249,70.));
#129 = CARTESIAN_POINT('',(177.89376,538.24147,2.8421709E-14));
#130 = CARTESIAN_POINT('',(149.34785,636.50298,-93.077136));
#131 = CARTESIAN_POINT('',(-97.526317,770.9174,-88.009777));
#132 = CARTESIAN_POINT('',(109.1049,775.02842,-224.29385));
#133 = CARTESIAN_POINT('',(92.020331,833.83739,-280.));
#134 = CARTESIAN_POINT('',(70.551974,907.73637,-350.));
#135 = CARTESIAN_POINT('',(238.28588,508.93109,1.8474111E-13));
#136 = CARTESIAN_POINT('',(216.81752,582.83008,-70.));
#137 = CARTESIAN_POINT('',(186.85611,685.96409,-167.69256));
#138 = CARTESIAN_POINT('',(-79.407279,812.76752,-171.48319));
#139 = CARTESIAN_POINT('',(152.41245,804.52702,-280.));
#140 = CARTESIAN_POINT('',(130.9441,878.426,-350.));
#141 = CARTESIAN_POINT('',(109.47574,952.32498,-420.));
#142 = DEFINITIONAL_REPRESENTATION('',(#143),#146);
#143 = B_SPLINE_CURVE_WITH_KNOTS('',1,(#144,#145),.UNSPECIFIED.,.F.,.F.,
  (2,2),(0.,1.),.PIECEWISE_BEZIER_KNOTS.);
#144 = CARTESIAN_POINT('',(0.,0.));
#145 = CARTESIAN_POINT('',(0.,1.));
#146 = ( GEOMETRIC_REPRESENTATION_CONTEXT(2) 
PARAMETRIC_REPRESENTATION_CONTEXT() REPRESENTATION_CONTEXT('2D SPACE',''
  ) );
#147 = ORIENTED_EDGE('',*,*,#148,.T.);
#148 = EDGE_CURVE('',#24,#149,#151,.T.);
#149 = VERTEX_POINT('',#150);
#150 = CARTESIAN_POINT('',(-439.50628,875.8666,-420.));
#151 = SURFACE_CURVE('',#152,(#160),.PCURVE_S1.);
#152 = B_SPLINE_CURVE_WITH_KNOTS('',6,(#153,#154,#155,#156,#157,#158,
    #159),.UNSPECIFIED.,.F.,.F.,(7,7),(0.,1.),.PIECEWISE_BEZIER_KNOTS.);
#153 = CARTESIAN_POINT('',(-124.06686,684.79336,-1.8189894E-12));
#154 = CARTESIAN_POINT('',(-176.6401,716.6389,-70.));
#155 = CARTESIAN_POINT('',(-232.70321,750.59838,-144.64668));
#156 = CARTESIAN_POINT('',(-459.24283,642.71312,-184.00563));
#157 = CARTESIAN_POINT('',(-334.35981,812.17552,-280.));
#158 = CARTESIAN_POINT('',(-386.93305,844.02106,-350.));
#159 = CARTESIAN_POINT('',(-439.50628,875.8666,-420.));
#160 = PCURVE('',#36,#161);
#161 = DEFINITIONAL_REPRESENTATION('',(#162),#165);
#162 = B_SPLINE_CURVE_WITH_KNOTS('',1,(#163,#164),.UNSPECIFIED.,.F.,.F.,
  (2,2),(0.,1.),.PIECEWISE_BEZIER_KNOTS.);
#163 = CARTESIAN_POINT('',(1.,0.));
#164 = CARTESIAN_POINT('',(1.,1.));
#165 = ( GEOMETRIC_REPRESENTATION_CONTEXT(2) 
PARAMETRIC_REPRESENTATION_CONTEXT() REPRESENTATION_CONTEXT('2D SPACE',''
  ) );
#166 = ORIENTED_EDGE('',*,*,#167,.F.);
#167 = EDGE_CURVE('',#168,#149,#170,.T.);
#168 = VERTEX_POINT('',#169);
#169 = CARTESIAN_POINT('',(-310.69615,432.47272,0.));
#170 = SURFACE_CURVE('',#171,(#179),.PCURVE_S1.);
#171 = B_SPLINE_CURVE_WITH_KNOTS('',6,(#172,#173,#174,#175,#176,#177,
    #178),.UNSPECIFIED.,.F.,.F.,(7,7),(0.,1.),.PIECEWISE_BEZIER_KNOTS.);
#172 = CARTESIAN_POINT('',(-310.69615,432.47272,0.));
#173 = CARTESIAN_POINT('',(-332.1645,506.3717,-70.));
#174 = CARTESIAN_POINT('',(-371.51587,641.82807,-198.30956));
#175 = CARTESIAN_POINT('',(-626.23879,678.92242,-109.78644));
#176 = CARTESIAN_POINT('',(-396.56957,728.06864,-280.));
#177 = CARTESIAN_POINT('',(-418.03793,801.96762,-350.));
#178 = CARTESIAN_POINT('',(-439.50628,875.8666,-420.));
#179 = PCURVE('',#36,#180);
#180 = DEFINITIONAL_REPRESENTATION('',(#181),#184);
#181 = B_SPLINE_CURVE_WITH_KNOTS('',1,(#182,#183),.UNSPECIFIED.,.F.,.F.,
  (2,2),(0.,1.),.PIECEWISE_BEZIER_KNOTS.);
#182 = CARTESIAN_POINT('',(0.,1.));
#183 = CARTESIAN_POINT('',(1.,1.));
#184 = ( GEOMETRIC_REPRESENTATION_CONTEXT(2) 
PARAMETRIC_REPRESENTATION_CONTEXT() REPRESENTATION_CONTEXT('2D SPACE',''
  ) );
#185 = ORIENTED_EDGE('',*,*,#186,.F.);
#186 = EDGE_CURVE('',#22,#168,#187,.T.);
#187 = SURFACE_CURVE('',#188,(#196,#202),.PCURVE_S1.);
#188 = B_SPLINE_CURVE_WITH_KNOTS('',6,(#189,#190,#191,#192,#193,#194,
    #195),.UNSPECIFIED.,.F.,.F.,(7,7),(0.,1.),.PIECEWISE_BEZIER_KNOTS.);
#189 = CARTESIAN_POINT('',(4.7432746,241.39947,420.));
#190 = CARTESIAN_POINT('',(-47.829962,273.24501,350.));
#191 = CARTESIAN_POINT('',(-105.08193,307.92464,273.77038));
#192 = CARTESIAN_POINT('',(-332.70804,275.79566,232.58061));
#193 = CARTESIAN_POINT('',(-205.54967,368.78164,140.));
#194 = CARTESIAN_POINT('',(-258.12291,400.62718,70.));
#195 = CARTESIAN_POINT('',(-310.69615,432.47272,-2.5579538E-13));
#196 = PCURVE('',#36,#197);
#197 = DEFINITIONAL_REPRESENTATION('',(#198),#201);
#198 = B_SPLINE_CURVE_WITH_KNOTS('',1,(#199,#200),.UNSPECIFIED.,.F.,.F.,
  (2,2),(0.,1.),.PIECEWISE_BEZIER_KNOTS.);
#199 = CARTESIAN_POINT('',(0.,0.));
#200 = CARTESIAN_POINT('',(0.,1.));
#201 = ( GEOMETRIC_REPRESENTATION_CONTEXT(2) 
PARAMETRIC_REPRESENTATION_CONTEXT() REPRESENTATION_CONTEXT('2D SPACE',''
  ) );
#202 = PCURVE('',#203,#253);
#203 = B_SPLINE_SURFACE_WITH_KNOTS('',6,6,(
    (#204,#205,#206,#207,#208,#209,#210)
    ,(#211,#212,#213,#214,#215,#216,#217)
    ,(#218,#219,#220,#221,#222,#223,#224)
    ,(#225,#226,#227,#228,#229,#230,#231)
    ,(#232,#233,#234,#235,#236,#237,#238)
    ,(#239,#240,#241,#242,#243,#244,#245)
    ,(#246,#247,#248,#249,#250,#251,#252
    )),.UNSPECIFIED.,.F.,.F.,.F.,(7,7),(7,7),(0.,1.),(0.,1.),
  .PIECEWISE_BEZIER_KNOTS.);
#204 = CARTESIAN_POINT('',(4.7432746,241.39947,420.));
#205 = CARTESIAN_POINT('',(-47.829962,273.24501,350.));
#206 = CARTESIAN_POINT('',(-105.08193,307.92464,273.77038));
#207 = CARTESIAN_POINT('',(-332.70804,275.79566,232.58061));
#208 = CARTESIAN_POINT('',(-205.54967,368.78164,140.));
#209 = CARTESIAN_POINT('',(-258.12291,400.62718,70.));
#210 = CARTESIAN_POINT('',(-310.69615,432.47272,8.5265128E-14));
#211 = CARTESIAN_POINT('',(-3.5959818,179.39073,350.));
#212 = CARTESIAN_POINT('',(-56.169219,211.23627,280.));
#213 = CARTESIAN_POINT('',(-113.34068,245.86712,203.87758));
#214 = CARTESIAN_POINT('',(-332.61385,204.56938,162.54001));
#215 = CARTESIAN_POINT('',(-213.88893,306.77289,70.));
#216 = CARTESIAN_POINT('',(-266.46217,338.61843,9.9475983E-14));
#217 = CARTESIAN_POINT('',(-319.0354,370.46397,-70.));
#218 = CARTESIAN_POINT('',(-11.935238,117.38198,280.));
#219 = CARTESIAN_POINT('',(-64.508475,149.22752,210.));
#220 = CARTESIAN_POINT('',(-121.59942,183.80961,133.98478));
#221 = CARTESIAN_POINT('',(-332.51965,133.3431,92.499409));
#222 = CARTESIAN_POINT('',(-222.22819,244.76415,2.8421709E-14));
#223 = CARTESIAN_POINT('',(-274.80142,276.60969,-70.));
#224 = CARTESIAN_POINT('',(-327.37466,308.45523,-140.));
#225 = CARTESIAN_POINT('',(-238.79355,151.91002,213.85245));
#226 = CARTESIAN_POINT('',(-279.74392,172.64863,144.57633));
#227 = CARTESIAN_POINT('',(-325.13149,196.07501,69.392203));
#228 = CARTESIAN_POINT('',(-516.07592,125.3328,28.482912));
#229 = CARTESIAN_POINT('',(-402.59504,234.86446,-63.252012));
#230 = CARTESIAN_POINT('',(-443.54541,255.60307,-132.52813));
#231 = CARTESIAN_POINT('',(-484.49579,276.34168,-201.80424));
#232 = CARTESIAN_POINT('',(-27.713589,5.788499E-02,147.55599));
#233 = CARTESIAN_POINT('',(-80.408719,30.997054,76.532812));
#234 = CARTESIAN_POINT('',(-137.46053,64.575223,-0.2911811));
#235 = CARTESIAN_POINT('',(-331.79678,-5.1351965,-43.09534));
#236 = CARTESIAN_POINT('',(-238.49411,123.81456,-136.53673));
#237 = CARTESIAN_POINT('',(-291.18924,154.75373,-207.55991));
#238 = CARTESIAN_POINT('',(-343.88437,185.6929,-278.58309));
#239 = CARTESIAN_POINT('',(-36.953007,-68.644254,70.));
#240 = CARTESIAN_POINT('',(-89.526244,-36.798713,1.4210855E-14));
#241 = CARTESIAN_POINT('',(-146.37565,-2.3629413,-75.693611));
#242 = CARTESIAN_POINT('',(-332.23707,-80.335756,-117.62239));
#243 = CARTESIAN_POINT('',(-247.24595,58.737911,-210.));
#244 = CARTESIAN_POINT('',(-299.81919,90.583452,-280.));
#245 = CARTESIAN_POINT('',(-352.39243,122.42899,-350.));
#246 = CARTESIAN_POINT('',(-45.292263,-130.653,1.4210855E-14));
#247 = CARTESIAN_POINT('',(-97.8655,-98.807458,-70.));
#248 = CARTESIAN_POINT('',(-154.63439,-64.420457,-145.58641));
#249 = CARTESIAN_POINT('',(-332.14288,-151.56204,-187.66299));
#250 = CARTESIAN_POINT('',(-255.58521,-3.2708348,-280.));
#251 = CARTESIAN_POINT('',(-308.15845,28.574706,-350.));
#252 = CARTESIAN_POINT('',(-360.73168,60.420247,-420.));
#253 = DEFINITIONAL_REPRESENTATION('',(#254),#257);
#254 = B_SPLINE_CURVE_WITH_KNOTS('',1,(#255,#256),.UNSPECIFIED.,.F.,.F.,
  (2,2),(0.,1.),.PIECEWISE_BEZIER_KNOTS.);
#255 = CARTESIAN_POINT('',(0.,0.));
#256 = CARTESIAN_POINT('',(0.,1.));
#257 = ( GEOMETRIC_REPRESENTATION_CONTEXT(2) 
PARAMETRIC_REPRESENTATION_CONTEXT() REPRESENTATION_CONTEXT('2D SPACE',''
  ) );
#258 = ADVANCED_FACE('',(#259),#92,.T.);
#259 = FACE_BOUND('',#260,.T.);
#260 = EDGE_LOOP('',(#261,#336,#355,#372));
#261 = ORIENTED_EDGE('',*,*,#262,.T.);
#262 = EDGE_CURVE('',#22,#263,#265,.T.);
#263 = VERTEX_POINT('',#264);
#264 = CARTESIAN_POINT('',(238.28587999999,508.93109,1.110223024625E-13)
  );
#265 = SURFACE_CURVE('',#266,(#274,#280),.PCURVE_S1.);
#266 = B_SPLINE_CURVE_WITH_KNOTS('',6,(#267,#268,#269,#270,#271,#272,
    #273),.UNSPECIFIED.,.F.,.F.,(7,7),(0.,1.),.PIECEWISE_BEZIER_KNOTS.);
#267 = CARTESIAN_POINT('',(4.7432746,241.39947,420.));
#268 = CARTESIAN_POINT('',(43.667042,285.98808,350.));
#269 = CARTESIAN_POINT('',(82.59081,330.57668,280.));
#270 = CARTESIAN_POINT('',(7.6532484,547.01753,216.25223));
#271 = CARTESIAN_POINT('',(166.04703,426.17885,129.91341));
#272 = CARTESIAN_POINT('',(199.36211,464.34249,70.));
#273 = CARTESIAN_POINT('',(238.28588,508.93109,8.5265128E-14));
#274 = PCURVE('',#92,#275);
#275 = DEFINITIONAL_REPRESENTATION('',(#276),#279);
#276 = B_SPLINE_CURVE_WITH_KNOTS('',1,(#277,#278),.UNSPECIFIED.,.F.,.F.,
  (2,2),(0.,1.),.PIECEWISE_BEZIER_KNOTS.);
#277 = CARTESIAN_POINT('',(0.,0.));
#278 = CARTESIAN_POINT('',(1.,0.));
#279 = ( GEOMETRIC_REPRESENTATION_CONTEXT(2) 
PARAMETRIC_REPRESENTATION_CONTEXT() REPRESENTATION_CONTEXT('2D SPACE',''
  ) );
#280 = PCURVE('',#281,#331);
#281 = B_SPLINE_SURFACE_WITH_KNOTS('',6,6,(
    (#282,#283,#284,#285,#286,#287,#288)
    ,(#289,#290,#291,#292,#293,#294,#295)
    ,(#296,#297,#298,#299,#300,#301,#302)
    ,(#303,#304,#305,#306,#307,#308,#309)
    ,(#310,#311,#312,#313,#314,#315,#316)
    ,(#317,#318,#319,#320,#321,#322,#323)
    ,(#324,#325,#326,#327,#328,#329,#330
    )),.UNSPECIFIED.,.F.,.F.,.F.,(7,7),(7,7),(0.,1.),(0.,1.),
  .PIECEWISE_BEZIER_KNOTS.);
#282 = CARTESIAN_POINT('',(4.7432746,241.39947,420.));
#283 = CARTESIAN_POINT('',(53.527715,192.82078,350.));
#284 = CARTESIAN_POINT('',(102.31216,144.24208,280.));
#285 = CARTESIAN_POINT('',(290.76753,260.79684,190.22388));
#286 = CARTESIAN_POINT('',(200.67287,46.296196,138.86381));
#287 = CARTESIAN_POINT('',(248.66548,-1.494007,70.));
#288 = CARTESIAN_POINT('',(297.44992,-50.072703,-1.9895197E-13));
#289 = CARTESIAN_POINT('',(43.667042,285.98808,350.));
#290 = CARTESIAN_POINT('',(92.451483,237.40938,280.));
#291 = CARTESIAN_POINT('',(141.87196,188.19733,209.08735));
#292 = CARTESIAN_POINT('',(333.07241,296.8512,121.06256));
#293 = CARTESIAN_POINT('',(239.46467,91.016215,69.053177));
#294 = CARTESIAN_POINT('',(287.58925,43.094597,-4.2632564E-14));
#295 = CARTESIAN_POINT('',(336.37369,-5.4840995,-70.));
#296 = CARTESIAN_POINT('',(82.59081,330.57668,280.));
#297 = CARTESIAN_POINT('',(131.37525,281.99798,210.));
#298 = CARTESIAN_POINT('',(181.43177,232.15257,138.17471));
#299 = CARTESIAN_POINT('',(375.37729,332.90556,51.901234));
#300 = CARTESIAN_POINT('',(278.25646,135.73623,-0.75745831));
#301 = CARTESIAN_POINT('',(326.51301,87.6832,-70.));
#302 = CARTESIAN_POINT('',(375.29745,39.104504,-140.));
#303 = CARTESIAN_POINT('',(7.6532484,547.01753,216.25223));
#304 = CARTESIAN_POINT('',(46.949852,489.27499,145.2278));
#305 = CARTESIAN_POINT('',(88.154578,429.63237,71.465436));
#306 = CARTESIAN_POINT('',(275.35732,513.32063,-14.081149));
#307 = CARTESIAN_POINT('',(165.23558,315.65311,-68.413584));
#308 = CARTESIAN_POINT('',(204.13627,258.30482,-138.86992));
#309 = CARTESIAN_POINT('',(243.43287,200.56227,-209.89435));
#310 = CARTESIAN_POINT('',(166.04703,426.17885,129.91341));
#311 = CARTESIAN_POINT('',(213.30172,375.84776,62.664502));
#312 = CARTESIAN_POINT('',(263.10057,322.98323,-8.234984));
#313 = CARTESIAN_POINT('',(461.00646,406.18206,-88.254722));
#314 = CARTESIAN_POINT('',(355.32972,224.59166,-139.46095));
#315 = CARTESIAN_POINT('',(402.32046,174.5234,-206.33112));
#316 = CARTESIAN_POINT('',(449.57514,124.19232,-273.58003));
#317 = CARTESIAN_POINT('',(199.36211,464.34249,70.));
#318 = CARTESIAN_POINT('',(248.14655,415.7638,4.2632564E-14));
#319 = CARTESIAN_POINT('',(300.1112,364.01831,-74.563225));
#320 = CARTESIAN_POINT('',(502.29192,441.06864,-155.58274));
#321 = CARTESIAN_POINT('',(394.63185,269.89629,-210.18936));
#322 = CARTESIAN_POINT('',(443.28432,221.44901,-280.));
#323 = CARTESIAN_POINT('',(492.06876,172.87031,-350.));
#324 = CARTESIAN_POINT('',(238.28588,508.93109,1.8474111E-13));
#325 = CARTESIAN_POINT('',(287.07032,460.3524,-70.));
#326 = CARTESIAN_POINT('',(339.67101,407.97355,-145.47587));
#327 = CARTESIAN_POINT('',(544.5968,477.123,-224.74406));
#328 = CARTESIAN_POINT('',(433.42364,314.61631,-280.));
#329 = CARTESIAN_POINT('',(482.20808,266.03761,-350.));
#330 = CARTESIAN_POINT('',(530.99253,217.45892,-420.));
#331 = DEFINITIONAL_REPRESENTATION('',(#332),#335);
#332 = B_SPLINE_CURVE_WITH_KNOTS('',1,(#333,#334),.UNSPECIFIED.,.F.,.F.,
  (2,2),(0.,1.),.PIECEWISE_BEZIER_KNOTS.);
#333 = CARTESIAN_POINT('',(0.,0.));
#334 = CARTESIAN_POINT('',(1.,0.));
#335 = ( GEOMETRIC_REPRESENTATION_CONTEXT(2) 
PARAMETRIC_REPRESENTATION_CONTEXT() REPRESENTATION_CONTEXT('2D SPACE',''
  ) );
#336 = ORIENTED_EDGE('',*,*,#337,.T.);
#337 = EDGE_CURVE('',#263,#338,#340,.T.);
#338 = VERTEX_POINT('',#339);
#339 = CARTESIAN_POINT('',(109.47573999999,952.32498,-419.9999999999));
#340 = SURFACE_CURVE('',#341,(#349),.PCURVE_S1.);
#341 = B_SPLINE_CURVE_WITH_KNOTS('',6,(#342,#343,#344,#345,#346,#347,
    #348),.UNSPECIFIED.,.F.,.F.,(7,7),(0.,1.),.PIECEWISE_BEZIER_KNOTS.);
#342 = CARTESIAN_POINT('',(238.28588,508.93109,2.2737368E-13));
#343 = CARTESIAN_POINT('',(216.81752,582.83008,-70.));
#344 = CARTESIAN_POINT('',(186.85611,685.96409,-167.69256));
#345 = CARTESIAN_POINT('',(-79.407279,812.76752,-171.48319));
#346 = CARTESIAN_POINT('',(152.41245,804.52702,-280.));
#347 = CARTESIAN_POINT('',(130.9441,878.426,-350.));
#348 = CARTESIAN_POINT('',(109.47574,952.32498,-420.));
#349 = PCURVE('',#92,#350);
#350 = DEFINITIONAL_REPRESENTATION('',(#351),#354);
#351 = B_SPLINE_CURVE_WITH_KNOTS('',1,(#352,#353),.UNSPECIFIED.,.F.,.F.,
  (2,2),(0.,1.),.PIECEWISE_BEZIER_KNOTS.);
#352 = CARTESIAN_POINT('',(1.,0.));
#353 = CARTESIAN_POINT('',(1.,1.));
#354 = ( GEOMETRIC_REPRESENTATION_CONTEXT(2) 
PARAMETRIC_REPRESENTATION_CONTEXT() REPRESENTATION_CONTEXT('2D SPACE',''
  ) );
#355 = ORIENTED_EDGE('',*,*,#356,.F.);
#356 = EDGE_CURVE('',#24,#338,#357,.T.);
#357 = SURFACE_CURVE('',#358,(#366),.PCURVE_S1.);
#358 = B_SPLINE_CURVE_WITH_KNOTS('',6,(#359,#360,#361,#362,#363,#364,
    #365),.UNSPECIFIED.,.F.,.F.,(7,7),(0.,1.),.PIECEWISE_BEZIER_KNOTS.);
#359 = CARTESIAN_POINT('',(-124.06686,684.79336,-4.5474735E-13));
#360 = CARTESIAN_POINT('',(-85.143096,729.38196,-70.));
#361 = CARTESIAN_POINT('',(-45.671602,774.598,-140.98502));
#362 = CARTESIAN_POINT('',(-181.96804,978.89437,-205.65676));
#363 = CARTESIAN_POINT('',(31.628207,863.14777,-280.));
#364 = CARTESIAN_POINT('',(70.551974,907.73637,-350.));
#365 = CARTESIAN_POINT('',(109.47574,952.32498,-420.));
#366 = PCURVE('',#92,#367);
#367 = DEFINITIONAL_REPRESENTATION('',(#368),#371);
#368 = B_SPLINE_CURVE_WITH_KNOTS('',1,(#369,#370),.UNSPECIFIED.,.F.,.F.,
  (2,2),(0.,1.),.PIECEWISE_BEZIER_KNOTS.);
#369 = CARTESIAN_POINT('',(0.,1.));
#370 = CARTESIAN_POINT('',(1.,1.));
#371 = ( GEOMETRIC_REPRESENTATION_CONTEXT(2) 
PARAMETRIC_REPRESENTATION_CONTEXT() REPRESENTATION_CONTEXT('2D SPACE',''
  ) );
#372 = ORIENTED_EDGE('',*,*,#21,.F.);
#373 = ADVANCED_FACE('',(#374),#203,.F.);
#374 = FACE_BOUND('',#375,.T.);
#375 = EDGE_LOOP('',(#376,#377,#396,#415));
#376 = ORIENTED_EDGE('',*,*,#186,.T.);
#377 = ORIENTED_EDGE('',*,*,#378,.T.);
#378 = EDGE_CURVE('',#168,#379,#381,.T.);
#379 = VERTEX_POINT('',#380);
#380 = CARTESIAN_POINT('',(-360.73168,60.420247000001,-420.));
#381 = SURFACE_CURVE('',#382,(#390),.PCURVE_S1.);
#382 = B_SPLINE_CURVE_WITH_KNOTS('',6,(#383,#384,#385,#386,#387,#388,
    #389),.UNSPECIFIED.,.F.,.F.,(7,7),(0.,1.),.PIECEWISE_BEZIER_KNOTS.);
#383 = CARTESIAN_POINT('',(-310.69615,432.47272,0.));
#384 = CARTESIAN_POINT('',(-319.0354,370.46397,-70.));
#385 = CARTESIAN_POINT('',(-327.37466,308.45523,-140.));
#386 = CARTESIAN_POINT('',(-484.49579,276.34168,-201.80424));
#387 = CARTESIAN_POINT('',(-343.88437,185.6929,-278.58309));
#388 = CARTESIAN_POINT('',(-352.39243,122.42899,-350.));
#389 = CARTESIAN_POINT('',(-360.73168,60.420247,-420.));
#390 = PCURVE('',#203,#391);
#391 = DEFINITIONAL_REPRESENTATION('',(#392),#395);
#392 = B_SPLINE_CURVE_WITH_KNOTS('',1,(#393,#394),.UNSPECIFIED.,.F.,.F.,
  (2,2),(0.,1.),.PIECEWISE_BEZIER_KNOTS.);
#393 = CARTESIAN_POINT('',(0.,1.));
#394 = CARTESIAN_POINT('',(1.,1.));
#395 = ( GEOMETRIC_REPRESENTATION_CONTEXT(2) 
PARAMETRIC_REPRESENTATION_CONTEXT() REPRESENTATION_CONTEXT('2D SPACE',''
  ) );
#396 = ORIENTED_EDGE('',*,*,#397,.F.);
#397 = EDGE_CURVE('',#398,#379,#400,.T.);
#398 = VERTEX_POINT('',#399);
#399 = CARTESIAN_POINT('',(-45.292263,-130.653,0.));
#400 = SURFACE_CURVE('',#401,(#409),.PCURVE_S1.);
#401 = B_SPLINE_CURVE_WITH_KNOTS('',6,(#402,#403,#404,#405,#406,#407,
    #408),.UNSPECIFIED.,.F.,.F.,(7,7),(0.,1.),.PIECEWISE_BEZIER_KNOTS.);
#402 = CARTESIAN_POINT('',(-45.292263,-130.653,0.));
#403 = CARTESIAN_POINT('',(-97.8655,-98.807458,-70.));
#404 = CARTESIAN_POINT('',(-154.63439,-64.420457,-145.58641));
#405 = CARTESIAN_POINT('',(-332.14288,-151.56204,-187.66299));
#406 = CARTESIAN_POINT('',(-255.58521,-3.2708348,-280.));
#407 = CARTESIAN_POINT('',(-308.15845,28.574706,-350.));
#408 = CARTESIAN_POINT('',(-360.73168,60.420247,-420.));
#409 = PCURVE('',#203,#410);
#410 = DEFINITIONAL_REPRESENTATION('',(#411),#414);
#411 = B_SPLINE_CURVE_WITH_KNOTS('',1,(#412,#413),.UNSPECIFIED.,.F.,.F.,
  (2,2),(0.,1.),.PIECEWISE_BEZIER_KNOTS.);
#412 = CARTESIAN_POINT('',(1.,0.));
#413 = CARTESIAN_POINT('',(1.,1.));
#414 = ( GEOMETRIC_REPRESENTATION_CONTEXT(2) 
PARAMETRIC_REPRESENTATION_CONTEXT() REPRESENTATION_CONTEXT('2D SPACE',''
  ) );
#415 = ORIENTED_EDGE('',*,*,#416,.F.);
#416 = EDGE_CURVE('',#22,#398,#417,.T.);
#417 = SURFACE_CURVE('',#418,(#426,#432),.PCURVE_S1.);
#418 = B_SPLINE_CURVE_WITH_KNOTS('',6,(#419,#420,#421,#422,#423,#424,
    #425),.UNSPECIFIED.,.F.,.F.,(7,7),(0.,1.),.PIECEWISE_BEZIER_KNOTS.);
#419 = CARTESIAN_POINT('',(4.7432746,241.39947,420.));
#420 = CARTESIAN_POINT('',(-3.5959818,179.39073,350.));
#421 = CARTESIAN_POINT('',(-11.935238,117.38198,280.));
#422 = CARTESIAN_POINT('',(-238.79355,151.91002,213.85245));
#423 = CARTESIAN_POINT('',(-27.713589,5.788499E-02,147.55599));
#424 = CARTESIAN_POINT('',(-36.953007,-68.644254,70.));
#425 = CARTESIAN_POINT('',(-45.292263,-130.653,4.2632564E-14));
#426 = PCURVE('',#203,#427);
#427 = DEFINITIONAL_REPRESENTATION('',(#428),#431);
#428 = B_SPLINE_CURVE_WITH_KNOTS('',1,(#429,#430),.UNSPECIFIED.,.F.,.F.,
  (2,2),(0.,1.),.PIECEWISE_BEZIER_KNOTS.);
#429 = CARTESIAN_POINT('',(0.,0.));
#430 = CARTESIAN_POINT('',(1.,0.));
#431 = ( GEOMETRIC_REPRESENTATION_CONTEXT(2) 
PARAMETRIC_REPRESENTATION_CONTEXT() REPRESENTATION_CONTEXT('2D SPACE',''
  ) );
#432 = PCURVE('',#433,#483);
#433 = B_SPLINE_SURFACE_WITH_KNOTS('',6,6,(
    (#434,#435,#436,#437,#438,#439,#440)
    ,(#441,#442,#443,#444,#445,#446,#447)
    ,(#448,#449,#450,#451,#452,#453,#454)
    ,(#455,#456,#457,#458,#459,#460,#461)
    ,(#462,#463,#464,#465,#466,#467,#468)
    ,(#469,#470,#471,#472,#473,#474,#475)
    ,(#476,#477,#478,#479,#480,#481,#482
    )),.UNSPECIFIED.,.F.,.F.,.F.,(7,7),(7,7),(0.,1.),(0.,1.),
  .PIECEWISE_BEZIER_KNOTS.);
#434 = CARTESIAN_POINT('',(4.7432746,241.39947,420.));
#435 = CARTESIAN_POINT('',(53.527715,192.82078,350.));
#436 = CARTESIAN_POINT('',(102.31216,144.24208,280.));
#437 = CARTESIAN_POINT('',(290.76753,260.79684,190.22388));
#438 = CARTESIAN_POINT('',(200.67287,46.296196,138.86381));
#439 = CARTESIAN_POINT('',(248.66548,-1.494007,70.));
#440 = CARTESIAN_POINT('',(297.44992,-50.072703,-1.9895197E-13));
#441 = CARTESIAN_POINT('',(-3.5959818,179.39073,350.));
#442 = CARTESIAN_POINT('',(45.188459,130.81203,280.));
#443 = CARTESIAN_POINT('',(93.332144,82.87139,210.91941));
#444 = CARTESIAN_POINT('',(237.74404,149.15434,125.5369));
#445 = CARTESIAN_POINT('',(192.20164,-15.581134,69.053177));
#446 = CARTESIAN_POINT('',(240.32622,-63.502752,-7.1054274E-14));
#447 = CARTESIAN_POINT('',(289.11066,-112.08145,-70.));
#448 = CARTESIAN_POINT('',(-11.935238,117.38198,280.));
#449 = CARTESIAN_POINT('',(37.293281,72.105345,213.72761));
#450 = CARTESIAN_POINT('',(85.240287,28.104816,149.29403));
#451 = CARTESIAN_POINT('',(186.05279,47.418023,72.032731));
#452 = CARTESIAN_POINT('',(185.50673,-64.250228,14.152963));
#453 = CARTESIAN_POINT('',(234.20736,-109.0012,-51.361974));
#454 = CARTESIAN_POINT('',(283.43587,-154.27784,-117.63437));
#455 = CARTESIAN_POINT('',(-238.79355,151.91002,213.85245));
#456 = CARTESIAN_POINT('',(-173.25258,99.205775,139.3728));
#457 = CARTESIAN_POINT('',(-109.63389,48.415686,67.651379));
#458 = CARTESIAN_POINT('',(-36.552412,10.029474,-13.423572));
#459 = CARTESIAN_POINT('',(23.766227,-59.301221,-84.634249));
#460 = CARTESIAN_POINT('',(88.911276,-111.61122,-158.54581));
#461 = CARTESIAN_POINT('',(154.45224,-164.31547,-233.02546));
#462 = CARTESIAN_POINT('',(-27.713589,5.788499E-02,147.55599));
#463 = CARTESIAN_POINT('',(20.920825,-49.636377,76.296659));
#464 = CARTESIAN_POINT('',(66.992215,-96.778423,8.7149689));
#465 = CARTESIAN_POINT('',(79.123663,-182.42645,-64.746055));
#466 = CARTESIAN_POINT('',(167.08801,-198.98199,-137.86007));
#467 = CARTESIAN_POINT('',(215.45848,-248.41342,-208.74067));
#468 = CARTESIAN_POINT('',(264.09289,-298.10768,-280.));
#469 = CARTESIAN_POINT('',(-36.953007,-68.644254,70.));
#470 = CARTESIAN_POINT('',(11.831434,-117.22295,1.4210855E-14));
#471 = CARTESIAN_POINT('',(57.412094,-162.61138,-65.402948));
#472 = CARTESIAN_POINT('',(25.650095,-297.41565,-133.21103));
#473 = CARTESIAN_POINT('',(158.31673,-263.09045,-210.18936));
#474 = CARTESIAN_POINT('',(206.9692,-311.53773,-280.));
#475 = CARTESIAN_POINT('',(255.75364,-360.11643,-350.));
#476 = CARTESIAN_POINT('',(-45.292263,-130.653,1.4210855E-14));
#477 = CARTESIAN_POINT('',(3.4921773,-179.23169,-70.));
#478 = CARTESIAN_POINT('',(48.432082,-223.98207,-134.48354));
#479 = CARTESIAN_POINT('',(-27.373392,-409.05814,-197.89802));
#480 = CARTESIAN_POINT('',(149.8455,-324.96778,-280.));
#481 = CARTESIAN_POINT('',(198.62994,-373.54648,-350.));
#482 = CARTESIAN_POINT('',(247.41438,-422.12518,-420.));
#483 = DEFINITIONAL_REPRESENTATION('',(#484),#487);
#484 = B_SPLINE_CURVE_WITH_KNOTS('',1,(#485,#486),.UNSPECIFIED.,.F.,.F.,
  (2,2),(0.,1.),.PIECEWISE_BEZIER_KNOTS.);
#485 = CARTESIAN_POINT('',(0.,0.));
#486 = CARTESIAN_POINT('',(1.,0.));
#487 = ( GEOMETRIC_REPRESENTATION_CONTEXT(2) 
PARAMETRIC_REPRESENTATION_CONTEXT() REPRESENTATION_CONTEXT('2D SPACE',''
  ) );
#488 = ADVANCED_FACE('',(#489),#281,.F.);
#489 = FACE_BOUND('',#490,.T.);
#490 = EDGE_LOOP('',(#491,#516,#535,#552));
#491 = ORIENTED_EDGE('',*,*,#492,.T.);
#492 = EDGE_CURVE('',#22,#493,#495,.T.);
#493 = VERTEX_POINT('',#494);
#494 = CARTESIAN_POINT('',(297.44992,-50.072703,-1.110223024625E-13));
#495 = SURFACE_CURVE('',#496,(#504,#510),.PCURVE_S1.);
#496 = B_SPLINE_CURVE_WITH_KNOTS('',6,(#497,#498,#499,#500,#501,#502,
    #503),.UNSPECIFIED.,.F.,.F.,(7,7),(0.,1.),.PIECEWISE_BEZIER_KNOTS.);
#497 = CARTESIAN_POINT('',(4.7432746,241.39947,420.));
#498 = CARTESIAN_POINT('',(53.527715,192.82078,350.));
#499 = CARTESIAN_POINT('',(102.31216,144.24208,280.));
#500 = CARTESIAN_POINT('',(290.76753,260.79684,190.22388));
#501 = CARTESIAN_POINT('',(200.67287,46.296196,138.86381));
#502 = CARTESIAN_POINT('',(248.66548,-1.494007,70.));
#503 = CARTESIAN_POINT('',(297.44992,-50.072703,-2.8421709E-14));
#504 = PCURVE('',#281,#505);
#505 = DEFINITIONAL_REPRESENTATION('',(#506),#509);
#506 = B_SPLINE_CURVE_WITH_KNOTS('',1,(#507,#508),.UNSPECIFIED.,.F.,.F.,
  (2,2),(0.,1.),.PIECEWISE_BEZIER_KNOTS.);
#507 = CARTESIAN_POINT('',(0.,0.));
#508 = CARTESIAN_POINT('',(0.,1.));
#509 = ( GEOMETRIC_REPRESENTATION_CONTEXT(2) 
PARAMETRIC_REPRESENTATION_CONTEXT() REPRESENTATION_CONTEXT('2D SPACE',''
  ) );
#510 = PCURVE('',#433,#511);
#511 = DEFINITIONAL_REPRESENTATION('',(#512),#515);
#512 = B_SPLINE_CURVE_WITH_KNOTS('',1,(#513,#514),.UNSPECIFIED.,.F.,.F.,
  (2,2),(0.,1.),.PIECEWISE_BEZIER_KNOTS.);
#513 = CARTESIAN_POINT('',(0.,0.));
#514 = CARTESIAN_POINT('',(0.,1.));
#515 = ( GEOMETRIC_REPRESENTATION_CONTEXT(2) 
PARAMETRIC_REPRESENTATION_CONTEXT() REPRESENTATION_CONTEXT('2D SPACE',''
  ) );
#516 = ORIENTED_EDGE('',*,*,#517,.T.);
#517 = EDGE_CURVE('',#493,#518,#520,.T.);
#518 = VERTEX_POINT('',#519);
#519 = CARTESIAN_POINT('',(530.99253,217.45892,-420.));
#520 = SURFACE_CURVE('',#521,(#529),.PCURVE_S1.);
#521 = B_SPLINE_CURVE_WITH_KNOTS('',6,(#522,#523,#524,#525,#526,#527,
    #528),.UNSPECIFIED.,.F.,.F.,(7,7),(0.,1.),.PIECEWISE_BEZIER_KNOTS.);
#522 = CARTESIAN_POINT('',(297.44992,-50.072703,-5.6843419E-14));
#523 = CARTESIAN_POINT('',(336.37369,-5.4840995,-70.));
#524 = CARTESIAN_POINT('',(375.29745,39.104504,-140.));
#525 = CARTESIAN_POINT('',(243.43287,200.56227,-209.89435));
#526 = CARTESIAN_POINT('',(449.57514,124.19232,-273.58003));
#527 = CARTESIAN_POINT('',(492.06876,172.87031,-350.));
#528 = CARTESIAN_POINT('',(530.99253,217.45892,-420.));
#529 = PCURVE('',#281,#530);
#530 = DEFINITIONAL_REPRESENTATION('',(#531),#534);
#531 = B_SPLINE_CURVE_WITH_KNOTS('',1,(#532,#533),.UNSPECIFIED.,.F.,.F.,
  (2,2),(0.,1.),.PIECEWISE_BEZIER_KNOTS.);
#532 = CARTESIAN_POINT('',(0.,1.));
#533 = CARTESIAN_POINT('',(1.,1.));
#534 = ( GEOMETRIC_REPRESENTATION_CONTEXT(2) 
PARAMETRIC_REPRESENTATION_CONTEXT() REPRESENTATION_CONTEXT('2D SPACE',''
  ) );
#535 = ORIENTED_EDGE('',*,*,#536,.F.);
#536 = EDGE_CURVE('',#263,#518,#537,.T.);
#537 = SURFACE_CURVE('',#538,(#546),.PCURVE_S1.);
#538 = B_SPLINE_CURVE_WITH_KNOTS('',6,(#539,#540,#541,#542,#543,#544,
    #545),.UNSPECIFIED.,.F.,.F.,(7,7),(0.,1.),.PIECEWISE_BEZIER_KNOTS.);
#539 = CARTESIAN_POINT('',(238.28588,508.93109,2.2737368E-13));
#540 = CARTESIAN_POINT('',(287.07032,460.3524,-70.));
#541 = CARTESIAN_POINT('',(339.67101,407.97355,-145.47587));
#542 = CARTESIAN_POINT('',(544.5968,477.123,-224.74406));
#543 = CARTESIAN_POINT('',(433.42364,314.61631,-280.));
#544 = CARTESIAN_POINT('',(482.20808,266.03761,-350.));
#545 = CARTESIAN_POINT('',(530.99253,217.45892,-420.));
#546 = PCURVE('',#281,#547);
#547 = DEFINITIONAL_REPRESENTATION('',(#548),#551);
#548 = B_SPLINE_CURVE_WITH_KNOTS('',1,(#549,#550),.UNSPECIFIED.,.F.,.F.,
  (2,2),(0.,1.),.PIECEWISE_BEZIER_KNOTS.);
#549 = CARTESIAN_POINT('',(1.,0.));
#550 = CARTESIAN_POINT('',(1.,1.));
#551 = ( GEOMETRIC_REPRESENTATION_CONTEXT(2) 
PARAMETRIC_REPRESENTATION_CONTEXT() REPRESENTATION_CONTEXT('2D SPACE',''
  ) );
#552 = ORIENTED_EDGE('',*,*,#262,.F.);
#553 = ADVANCED_FACE('',(#554),#433,.T.);
#554 = FACE_BOUND('',#555,.T.);
#555 = EDGE_LOOP('',(#556,#557,#576,#593));
#556 = ORIENTED_EDGE('',*,*,#416,.T.);
#557 = ORIENTED_EDGE('',*,*,#558,.T.);
#558 = EDGE_CURVE('',#398,#559,#561,.T.);
#559 = VERTEX_POINT('',#560);
#560 = CARTESIAN_POINT('',(247.41438,-422.12518,-420.));
#561 = SURFACE_CURVE('',#562,(#570),.PCURVE_S1.);
#562 = B_SPLINE_CURVE_WITH_KNOTS('',6,(#563,#564,#565,#566,#567,#568,
    #569),.UNSPECIFIED.,.F.,.F.,(7,7),(0.,1.),.PIECEWISE_BEZIER_KNOTS.);
#563 = CARTESIAN_POINT('',(-45.292263,-130.653,0.));
#564 = CARTESIAN_POINT('',(3.4921773,-179.23169,-70.));
#565 = CARTESIAN_POINT('',(48.432082,-223.98207,-134.48354));
#566 = CARTESIAN_POINT('',(-27.373392,-409.05814,-197.89802));
#567 = CARTESIAN_POINT('',(149.8455,-324.96778,-280.));
#568 = CARTESIAN_POINT('',(198.62994,-373.54648,-350.));
#569 = CARTESIAN_POINT('',(247.41438,-422.12518,-420.));
#570 = PCURVE('',#433,#571);
#571 = DEFINITIONAL_REPRESENTATION('',(#572),#575);
#572 = B_SPLINE_CURVE_WITH_KNOTS('',1,(#573,#574),.UNSPECIFIED.,.F.,.F.,
  (2,2),(0.,1.),.PIECEWISE_BEZIER_KNOTS.);
#573 = CARTESIAN_POINT('',(1.,0.));
#574 = CARTESIAN_POINT('',(1.,1.));
#575 = ( GEOMETRIC_REPRESENTATION_CONTEXT(2) 
PARAMETRIC_REPRESENTATION_CONTEXT() REPRESENTATION_CONTEXT('2D SPACE',''
  ) );
#576 = ORIENTED_EDGE('',*,*,#577,.F.);
#577 = EDGE_CURVE('',#493,#559,#578,.T.);
#578 = SURFACE_CURVE('',#579,(#587),.PCURVE_S1.);
#579 = B_SPLINE_CURVE_WITH_KNOTS('',6,(#580,#581,#582,#583,#584,#585,
    #586),.UNSPECIFIED.,.F.,.F.,(7,7),(0.,1.),.PIECEWISE_BEZIER_KNOTS.);
#580 = CARTESIAN_POINT('',(297.44992,-50.072703,-5.6843419E-14));
#581 = CARTESIAN_POINT('',(289.11066,-112.08145,-70.));
#582 = CARTESIAN_POINT('',(283.43587,-154.27784,-117.63437));
#583 = CARTESIAN_POINT('',(154.45224,-164.31547,-233.02546));
#584 = CARTESIAN_POINT('',(264.09289,-298.10768,-280.));
#585 = CARTESIAN_POINT('',(255.75364,-360.11643,-350.));
#586 = CARTESIAN_POINT('',(247.41438,-422.12518,-420.));
#587 = PCURVE('',#433,#588);
#588 = DEFINITIONAL_REPRESENTATION('',(#589),#592);
#589 = B_SPLINE_CURVE_WITH_KNOTS('',1,(#590,#591),.UNSPECIFIED.,.F.,.F.,
  (2,2),(0.,1.),.PIECEWISE_BEZIER_KNOTS.);
#590 = CARTESIAN_POINT('',(0.,1.));
#591 = CARTESIAN_POINT('',(1.,1.));
#592 = ( GEOMETRIC_REPRESENTATION_CONTEXT(2) 
PARAMETRIC_REPRESENTATION_CONTEXT() REPRESENTATION_CONTEXT('2D SPACE',''
  ) );
#593 = ORIENTED_EDGE('',*,*,#492,.F.);
#594 = ( GEOMETRIC_REPRESENTATION_CONTEXT(3) 
GLOBAL_UNCERTAINTY_ASSIGNED_CONTEXT((#598)) GLOBAL_UNIT_ASSIGNED_CONTEXT
((#595,#596,#597)) REPRESENTATION_CONTEXT('Context #1',
  '3D Context with UNIT and UNCERTAINTY') );
#595 = ( LENGTH_UNIT() NAMED_UNIT(*) SI_UNIT(.MILLI.,.METRE.) );
#596 = ( NAMED_UNIT(*) PLANE_ANGLE_UNIT() SI_UNIT($,.RADIAN.) );
#597 = ( NAMED_UNIT(*) SI_UNIT($,.STERADIAN.) SOLID_ANGLE_UNIT() );
#598 = UNCERTAINTY_MEASURE_WITH_UNIT(LENGTH_MEASURE(1.E-03),#595,
  'distance_accuracy_value','confusion accuracy');
#599 = PRODUCT_RELATED_PRODUCT_CATEGORY('part',$,(#7));
ENDSEC;
END-ISO-10303-21;
