ISO-10303-21;
HEADER;
FILE_DESCRIPTION(('Open CASCADE Model'),'2;1');
FILE_NAME('Open CASCADE Shape Model','2026-07-11T20:16:09',('Author'),(
    'Open CASCADE'),'Open CASCADE STEP processor 8.0','Open CASCADE 8.0'
  ,'Unknown');
FILE_SCHEMA(('AUTOMOTIVE_DESIGN { 1 0 10303 214 1 1 1 1 }'));
ENDSEC;
DATA;
#1 = APPLICATION_PROTOCOL_DEFINITION('international standard',
  'automotive_design',2000,#2);
#2 = APPLICATION_CONTEXT(
  'core data for automotive mechanical design processes');
#3 = SHAPE_DEFINITION_REPRESENTATION(#4,#10);
#4 = PRODUCT_DEFINITION_SHAPE('','',#5);
#5 = PRODUCT_DEFINITION('design','',#6,#9);
#6 = PRODUCT_DEFINITION_FORMATION('','',#7);
#7 = PRODUCT('Open CASCADE STEP translator 8.0 1',
  'Open CASCADE STEP translator 8.0 1','',(#8));
#8 = PRODUCT_CONTEXT('',#2,'mechanical');
#9 = PRODUCT_DEFINITION_CONTEXT('part definition',#2,'design');
#10 = MANIFOLD_SURFACE_SHAPE_REPRESENTATION('',(#11,#15),#338);
#11 = AXIS2_PLACEMENT_3D('',#12,#13,#14);
#12 = CARTESIAN_POINT('',(0.,0.,0.));
#13 = DIRECTION('',(0.,0.,1.));
#14 = DIRECTION('',(1.,0.,-0.));
#15 = SHELL_BASED_SURFACE_MODEL('',(#16));
#16 = OPEN_SHELL('',(#17,#147,#218,#319));
#17 = ADVANCED_FACE('',(#18),#33,.T.);
#18 = FACE_BOUND('',#19,.T.);
#19 = EDGE_LOOP('',(#20,#78,#117,#133));
#20 = ORIENTED_EDGE('',*,*,#21,.T.);
#21 = EDGE_CURVE('',#22,#24,#26,.T.);
#22 = VERTEX_POINT('',#23);
#23 = CARTESIAN_POINT('',(-25.702705,0.301105,-25.));
#24 = VERTEX_POINT('',#25);
#25 = CARTESIAN_POINT('',(-1.0540545,-30.196645,-25.));
#26 = SURFACE_CURVE('',#27,(#32,#55),.PCURVE_S1.);
#27 = B_SPLINE_CURVE_WITH_KNOTS('',3,(#28,#29,#30,#31),.UNSPECIFIED.,.F.
  ,.F.,(4,4),(0.,1.),.PIECEWISE_BEZIER_KNOTS.);
#28 = CARTESIAN_POINT('',(-25.702705,0.301105,-25.));
#29 = CARTESIAN_POINT('',(-20.18919,-11.915163,-21.998885));
#30 = CARTESIAN_POINT('',(-11.97297,-22.08108,-21.998885));
#31 = CARTESIAN_POINT('',(-1.0540545,-30.196645,-25.));
#32 = PCURVE('',#33,#50);
#33 = B_SPLINE_SURFACE_WITH_KNOTS('',3,3,(
    (#34,#35,#36,#37)
    ,(#38,#39,#40,#41)
    ,(#42,#43,#44,#45)
    ,(#46,#47,#48,#49
    )),.UNSPECIFIED.,.F.,.F.,.F.,(4,4),(4,4),(0.,1.),(0.,1.),
  .PIECEWISE_BEZIER_KNOTS.);
#34 = CARTESIAN_POINT('',(-25.702705,0.301105,-25.));
#35 = CARTESIAN_POINT('',(-15.972975,8.087765,-25.));
#36 = CARTESIAN_POINT('',(-6.243245,15.87442,-25.));
#37 = CARTESIAN_POINT('',(3.4864875,23.66108,-25.));
#38 = CARTESIAN_POINT('',(-20.18919,-11.915163,-21.998885));
#39 = CARTESIAN_POINT('',(-7.756755,-1.86399,-14.21222));
#40 = CARTESIAN_POINT('',(1.9729735,5.92267,-14.21222));
#41 = CARTESIAN_POINT('',(11.702705,13.495165,-25.));
#42 = CARTESIAN_POINT('',(-11.97297,-22.08108,-21.998885));
#43 = CARTESIAN_POINT('',(0.4594594,-12.0299045,-14.21222));
#44 = CARTESIAN_POINT('',(10.18919,-4.243245,-14.21222));
#45 = CARTESIAN_POINT('',(19.91892,3.32925,-25.));
#46 = CARTESIAN_POINT('',(-1.0540545,-30.196645,-25.));
#47 = CARTESIAN_POINT('',(6.08108,-21.1081,-28.1633145));
#48 = CARTESIAN_POINT('',(15.81081,-13.321441,-28.1633145));
#49 = CARTESIAN_POINT('',(28.135135,-6.8366685,-25.));
#50 = DEFINITIONAL_REPRESENTATION('',(#51),#54);
#51 = B_SPLINE_CURVE_WITH_KNOTS('',1,(#52,#53),.UNSPECIFIED.,.F.,.F.,(2,
    2),(0.,1.),.PIECEWISE_BEZIER_KNOTS.);
#52 = CARTESIAN_POINT('',(0.,0.));
#53 = CARTESIAN_POINT('',(1.,0.));
#54 = ( GEOMETRIC_REPRESENTATION_CONTEXT(2) 
PARAMETRIC_REPRESENTATION_CONTEXT() REPRESENTATION_CONTEXT('2D SPACE',''
  ) );
#55 = PCURVE('',#56,#73);
#56 = B_SPLINE_SURFACE_WITH_KNOTS('',3,3,(
    (#57,#58,#59,#60)
    ,(#61,#62,#63,#64)
    ,(#65,#66,#67,#68)
    ,(#69,#70,#71,#72
    )),.UNSPECIFIED.,.F.,.F.,.F.,(4,4),(4,4),(0.,1.),(0.,1.),
  .PIECEWISE_BEZIER_KNOTS.);
#57 = CARTESIAN_POINT('',(-1.0540545,-30.196645,-25.));
#58 = CARTESIAN_POINT('',(-0.8918925,-25.32998,-37.19369));
#59 = CARTESIAN_POINT('',(-1.540529,-36.036635,-49.38738));
#60 = CARTESIAN_POINT('',(-1.0540545,-30.196645,-61.58107));
#61 = CARTESIAN_POINT('',(-11.97297,-22.08108,-21.998885));
#62 = CARTESIAN_POINT('',(-15.54054,-25.43813,-34.192575));
#63 = CARTESIAN_POINT('',(-15.54054,-25.43813,-46.386265));
#64 = CARTESIAN_POINT('',(-11.97297,-22.08108,-58.579955));
#65 = CARTESIAN_POINT('',(-20.18919,-11.915163,-21.998885));
#66 = CARTESIAN_POINT('',(-23.75676,-15.272215,-34.192575));
#67 = CARTESIAN_POINT('',(-23.75676,-15.272215,-46.386265));
#68 = CARTESIAN_POINT('',(-20.18919,-11.915163,-58.579955));
#69 = CARTESIAN_POINT('',(-25.702705,0.301105,-25.));
#70 = CARTESIAN_POINT('',(-25.702705,0.301105,-37.19369));
#71 = CARTESIAN_POINT('',(-25.702705,0.301105,-49.38738));
#72 = CARTESIAN_POINT('',(-25.702705,0.301105,-61.58107));
#73 = DEFINITIONAL_REPRESENTATION('',(#74),#77);
#74 = B_SPLINE_CURVE_WITH_KNOTS('',1,(#75,#76),.UNSPECIFIED.,.F.,.F.,(2,
    2),(0.,1.),.PIECEWISE_BEZIER_KNOTS.);
#75 = CARTESIAN_POINT('',(1.,0.));
#76 = CARTESIAN_POINT('',(0.,0.));
#77 = ( GEOMETRIC_REPRESENTATION_CONTEXT(2) 
PARAMETRIC_REPRESENTATION_CONTEXT() REPRESENTATION_CONTEXT('2D SPACE',''
  ) );
#78 = ORIENTED_EDGE('',*,*,#79,.T.);
#79 = EDGE_CURVE('',#24,#80,#82,.T.);
#80 = VERTEX_POINT('',#81);
#81 = CARTESIAN_POINT('',(28.135135,-6.8366685,-25.));
#82 = SURFACE_CURVE('',#83,(#88,#94),.PCURVE_S1.);
#83 = B_SPLINE_CURVE_WITH_KNOTS('',3,(#84,#85,#86,#87),.UNSPECIFIED.,.F.
  ,.F.,(4,4),(0.,1.),.PIECEWISE_BEZIER_KNOTS.);
#84 = CARTESIAN_POINT('',(-1.0540545,-30.196645,-25.));
#85 = CARTESIAN_POINT('',(6.08108,-21.1081,-28.1633145));
#86 = CARTESIAN_POINT('',(15.81081,-13.321441,-28.1633145));
#87 = CARTESIAN_POINT('',(28.135135,-6.8366685,-25.));
#88 = PCURVE('',#33,#89);
#89 = DEFINITIONAL_REPRESENTATION('',(#90),#93);
#90 = B_SPLINE_CURVE_WITH_KNOTS('',1,(#91,#92),.UNSPECIFIED.,.F.,.F.,(2,
    2),(0.,1.),.PIECEWISE_BEZIER_KNOTS.);
#91 = CARTESIAN_POINT('',(1.,0.));
#92 = CARTESIAN_POINT('',(1.,1.));
#93 = ( GEOMETRIC_REPRESENTATION_CONTEXT(2) 
PARAMETRIC_REPRESENTATION_CONTEXT() REPRESENTATION_CONTEXT('2D SPACE',''
  ) );
#94 = PCURVE('',#95,#112);
#95 = B_SPLINE_SURFACE_WITH_KNOTS('',3,3,(
    (#96,#97,#98,#99)
    ,(#100,#101,#102,#103)
    ,(#104,#105,#106,#107)
    ,(#108,#109,#110,#111
    )),.UNSPECIFIED.,.F.,.F.,.F.,(4,4),(4,4),(0.,1.),(0.,1.),
  .PIECEWISE_BEZIER_KNOTS.);
#96 = CARTESIAN_POINT('',(28.135135,-6.8366685,-61.58107));
#97 = CARTESIAN_POINT('',(15.81081,-13.321441,-64.744385));
#98 = CARTESIAN_POINT('',(6.08108,-21.1081,-64.744385));
#99 = CARTESIAN_POINT('',(-1.0540545,-30.196645,-61.58107));
#100 = CARTESIAN_POINT('',(27.810815,-6.8366685,-44.70997));
#101 = CARTESIAN_POINT('',(16.348065,-13.0548115,-51.246065));
#102 = CARTESIAN_POINT('',(5.43243,-21.1081,-51.523305));
#103 = CARTESIAN_POINT('',(-1.540529,-36.036635,-49.38738));
#104 = CARTESIAN_POINT('',(29.432435,-6.8366685,-35.625535));
#105 = CARTESIAN_POINT('',(12.609955,-11.8666135,-38.99165));
#106 = CARTESIAN_POINT('',(5.594585,-16.890325,-38.221085));
#107 = CARTESIAN_POINT('',(-0.8918925,-25.32998,-37.19369));
#108 = CARTESIAN_POINT('',(28.135135,-6.8366685,-25.));
#109 = CARTESIAN_POINT('',(15.81081,-13.321441,-28.1633145));
#110 = CARTESIAN_POINT('',(6.08108,-21.1081,-28.1633145));
#111 = CARTESIAN_POINT('',(-1.0540545,-30.196645,-25.));
#112 = DEFINITIONAL_REPRESENTATION('',(#113),#116);
#113 = B_SPLINE_CURVE_WITH_KNOTS('',1,(#114,#115),.UNSPECIFIED.,.F.,.F.,
  (2,2),(0.,1.),.PIECEWISE_BEZIER_KNOTS.);
#114 = CARTESIAN_POINT('',(1.,1.));
#115 = CARTESIAN_POINT('',(1.,0.));
#116 = ( GEOMETRIC_REPRESENTATION_CONTEXT(2) 
PARAMETRIC_REPRESENTATION_CONTEXT() REPRESENTATION_CONTEXT('2D SPACE',''
  ) );
#117 = ORIENTED_EDGE('',*,*,#118,.T.);
#118 = EDGE_CURVE('',#80,#119,#121,.T.);
#119 = VERTEX_POINT('',#120);
#120 = CARTESIAN_POINT('',(3.4864875,23.66108,-25.));
#121 = SURFACE_CURVE('',#122,(#127),.PCURVE_S1.);
#122 = B_SPLINE_CURVE_WITH_KNOTS('',3,(#123,#124,#125,#126),
  .UNSPECIFIED.,.F.,.F.,(4,4),(0.,1.),.PIECEWISE_BEZIER_KNOTS.);
#123 = CARTESIAN_POINT('',(28.135135,-6.8366685,-25.));
#124 = CARTESIAN_POINT('',(19.91892,3.32925,-25.));
#125 = CARTESIAN_POINT('',(11.702705,13.495165,-25.));
#126 = CARTESIAN_POINT('',(3.4864875,23.66108,-25.));
#127 = PCURVE('',#33,#128);
#128 = DEFINITIONAL_REPRESENTATION('',(#129),#132);
#129 = B_SPLINE_CURVE_WITH_KNOTS('',1,(#130,#131),.UNSPECIFIED.,.F.,.F.,
  (2,2),(0.,1.),.PIECEWISE_BEZIER_KNOTS.);
#130 = CARTESIAN_POINT('',(1.,1.));
#131 = CARTESIAN_POINT('',(0.,1.));
#132 = ( GEOMETRIC_REPRESENTATION_CONTEXT(2) 
PARAMETRIC_REPRESENTATION_CONTEXT() REPRESENTATION_CONTEXT('2D SPACE',''
  ) );
#133 = ORIENTED_EDGE('',*,*,#134,.T.);
#134 = EDGE_CURVE('',#119,#22,#135,.T.);
#135 = SURFACE_CURVE('',#136,(#141),.PCURVE_S1.);
#136 = B_SPLINE_CURVE_WITH_KNOTS('',3,(#137,#138,#139,#140),
  .UNSPECIFIED.,.F.,.F.,(4,4),(0.,1.),.PIECEWISE_BEZIER_KNOTS.);
#137 = CARTESIAN_POINT('',(3.4864875,23.66108,-25.));
#138 = CARTESIAN_POINT('',(-6.243245,15.87442,-25.));
#139 = CARTESIAN_POINT('',(-15.972975,8.087765,-25.));
#140 = CARTESIAN_POINT('',(-25.702705,0.301105,-25.));
#141 = PCURVE('',#33,#142);
#142 = DEFINITIONAL_REPRESENTATION('',(#143),#146);
#143 = B_SPLINE_CURVE_WITH_KNOTS('',1,(#144,#145),.UNSPECIFIED.,.F.,.F.,
  (2,2),(0.,1.),.PIECEWISE_BEZIER_KNOTS.);
#144 = CARTESIAN_POINT('',(0.,1.));
#145 = CARTESIAN_POINT('',(0.,0.));
#146 = ( GEOMETRIC_REPRESENTATION_CONTEXT(2) 
PARAMETRIC_REPRESENTATION_CONTEXT() REPRESENTATION_CONTEXT('2D SPACE',''
  ) );
#147 = ADVANCED_FACE('',(#148),#56,.T.);
#148 = FACE_BOUND('',#149,.T.);
#149 = EDGE_LOOP('',(#150,#164,#180,#217));
#150 = ORIENTED_EDGE('',*,*,#151,.T.);
#151 = EDGE_CURVE('',#22,#152,#154,.T.);
#152 = VERTEX_POINT('',#153);
#153 = CARTESIAN_POINT('',(-25.702705,0.301105,-61.58107));
#154 = SURFACE_CURVE('',#155,(#158),.PCURVE_S1.);
#155 = B_SPLINE_CURVE_WITH_KNOTS('',1,(#156,#157),.UNSPECIFIED.,.F.,.F.,
  (2,2),(0.,1.),.PIECEWISE_BEZIER_KNOTS.);
#156 = CARTESIAN_POINT('',(-25.702705,0.301105,-25.));
#157 = CARTESIAN_POINT('',(-25.702705,0.301105,-61.58107));
#158 = PCURVE('',#56,#159);
#159 = DEFINITIONAL_REPRESENTATION('',(#160),#163);
#160 = B_SPLINE_CURVE_WITH_KNOTS('',1,(#161,#162),.UNSPECIFIED.,.F.,.F.,
  (2,2),(0.,1.),.PIECEWISE_BEZIER_KNOTS.);
#161 = CARTESIAN_POINT('',(1.,0.));
#162 = CARTESIAN_POINT('',(1.,1.));
#163 = ( GEOMETRIC_REPRESENTATION_CONTEXT(2) 
PARAMETRIC_REPRESENTATION_CONTEXT() REPRESENTATION_CONTEXT('2D SPACE',''
  ) );
#164 = ORIENTED_EDGE('',*,*,#165,.T.);
#165 = EDGE_CURVE('',#152,#166,#168,.T.);
#166 = VERTEX_POINT('',#167);
#167 = CARTESIAN_POINT('',(-1.0540545,-30.196645,-61.58107));
#168 = SURFACE_CURVE('',#169,(#174),.PCURVE_S1.);
#169 = B_SPLINE_CURVE_WITH_KNOTS('',3,(#170,#171,#172,#173),
  .UNSPECIFIED.,.F.,.F.,(4,4),(0.,1.),.PIECEWISE_BEZIER_KNOTS.);
#170 = CARTESIAN_POINT('',(-25.702705,0.301105,-61.58107));
#171 = CARTESIAN_POINT('',(-20.18919,-11.915163,-58.579955));
#172 = CARTESIAN_POINT('',(-11.97297,-22.08108,-58.579955));
#173 = CARTESIAN_POINT('',(-1.0540545,-30.196645,-61.58107));
#174 = PCURVE('',#56,#175);
#175 = DEFINITIONAL_REPRESENTATION('',(#176),#179);
#176 = B_SPLINE_CURVE_WITH_KNOTS('',1,(#177,#178),.UNSPECIFIED.,.F.,.F.,
  (2,2),(0.,1.),.PIECEWISE_BEZIER_KNOTS.);
#177 = CARTESIAN_POINT('',(1.,1.));
#178 = CARTESIAN_POINT('',(0.,1.));
#179 = ( GEOMETRIC_REPRESENTATION_CONTEXT(2) 
PARAMETRIC_REPRESENTATION_CONTEXT() REPRESENTATION_CONTEXT('2D SPACE',''
  ) );
#180 = ORIENTED_EDGE('',*,*,#181,.T.);
#181 = EDGE_CURVE('',#166,#24,#182,.T.);
#182 = SURFACE_CURVE('',#183,(#188,#194),.PCURVE_S1.);
#183 = B_SPLINE_CURVE_WITH_KNOTS('',3,(#184,#185,#186,#187),
  .UNSPECIFIED.,.F.,.F.,(4,4),(0.,1.),.PIECEWISE_BEZIER_KNOTS.);
#184 = CARTESIAN_POINT('',(-1.0540545,-30.196645,-61.58107));
#185 = CARTESIAN_POINT('',(-1.540529,-36.036635,-49.38738));
#186 = CARTESIAN_POINT('',(-0.8918925,-25.32998,-37.19369));
#187 = CARTESIAN_POINT('',(-1.0540545,-30.196645,-25.));
#188 = PCURVE('',#56,#189);
#189 = DEFINITIONAL_REPRESENTATION('',(#190),#193);
#190 = B_SPLINE_CURVE_WITH_KNOTS('',1,(#191,#192),.UNSPECIFIED.,.F.,.F.,
  (2,2),(0.,1.),.PIECEWISE_BEZIER_KNOTS.);
#191 = CARTESIAN_POINT('',(0.,1.));
#192 = CARTESIAN_POINT('',(0.,0.));
#193 = ( GEOMETRIC_REPRESENTATION_CONTEXT(2) 
PARAMETRIC_REPRESENTATION_CONTEXT() REPRESENTATION_CONTEXT('2D SPACE',''
  ) );
#194 = PCURVE('',#195,#212);
#195 = B_SPLINE_SURFACE_WITH_KNOTS('',3,3,(
    (#196,#197,#198,#199)
    ,(#200,#201,#202,#203)
    ,(#204,#205,#206,#207)
    ,(#208,#209,#210,#211
    )),.UNSPECIFIED.,.F.,.F.,.F.,(4,4),(4,4),(0.,1.),(0.,1.),
  .PIECEWISE_BEZIER_KNOTS.);
#196 = CARTESIAN_POINT('',(28.135135,-6.8366685,-61.58107));
#197 = CARTESIAN_POINT('',(15.81081,-13.321441,-64.744385));
#198 = CARTESIAN_POINT('',(6.08108,-21.1081,-64.744385));
#199 = CARTESIAN_POINT('',(-1.0540545,-30.196645,-61.58107));
#200 = CARTESIAN_POINT('',(27.810815,-6.8366685,-44.70997));
#201 = CARTESIAN_POINT('',(16.348065,-13.0548115,-51.246065));
#202 = CARTESIAN_POINT('',(5.43243,-21.1081,-51.523305));
#203 = CARTESIAN_POINT('',(-1.540529,-36.036635,-49.38738));
#204 = CARTESIAN_POINT('',(29.432435,-6.8366685,-35.625535));
#205 = CARTESIAN_POINT('',(12.609955,-11.8666135,-38.99165));
#206 = CARTESIAN_POINT('',(5.594585,-16.890325,-38.221085));
#207 = CARTESIAN_POINT('',(-0.8918925,-25.32998,-37.19369));
#208 = CARTESIAN_POINT('',(28.135135,-6.8366685,-25.));
#209 = CARTESIAN_POINT('',(15.81081,-13.321441,-28.1633145));
#210 = CARTESIAN_POINT('',(6.08108,-21.1081,-28.1633145));
#211 = CARTESIAN_POINT('',(-1.0540545,-30.196645,-25.));
#212 = DEFINITIONAL_REPRESENTATION('',(#213),#216);
#213 = B_SPLINE_CURVE_WITH_KNOTS('',1,(#214,#215),.UNSPECIFIED.,.F.,.F.,
  (2,2),(0.,1.),.PIECEWISE_BEZIER_KNOTS.);
#214 = CARTESIAN_POINT('',(0.,1.));
#215 = CARTESIAN_POINT('',(1.,1.));
#216 = ( GEOMETRIC_REPRESENTATION_CONTEXT(2) 
PARAMETRIC_REPRESENTATION_CONTEXT() REPRESENTATION_CONTEXT('2D SPACE',''
  ) );
#217 = ORIENTED_EDGE('',*,*,#21,.F.);
#218 = ADVANCED_FACE('',(#219),#95,.T.);
#219 = FACE_BOUND('',#220,.T.);
#220 = EDGE_LOOP('',(#221,#304,#318));
#221 = ORIENTED_EDGE('',*,*,#222,.T.);
#222 = EDGE_CURVE('',#24,#223,#225,.T.);
#223 = VERTEX_POINT('',#224);
#224 = CARTESIAN_POINT('',(28.135135,-6.8366685,-61.58107));
#225 = SURFACE_CURVE('',#226,(#250,#277),.PCURVE_S1.);
#226 = B_SPLINE_CURVE_WITH_KNOTS('',12,(#227,#228,#229,#230,#231,#232,
    #233,#234,#235,#236,#237,#238,#239,#240,#241,#242,#243,#244,#245,
    #246,#247,#248,#249),.UNSPECIFIED.,.F.,.F.,(13,10,13),(0.,
    5.230556345258,10.461112690517),.UNSPECIFIED.);
#227 = CARTESIAN_POINT('',(-1.0540545,-30.196645,-25.));
#228 = CARTESIAN_POINT('',(-0.283124507941,-28.81973034471,
    -26.36905794097));
#229 = CARTESIAN_POINT('',(0.513717761091,-27.47275346788,
    -27.80280216719));
#230 = CARTESIAN_POINT('',(1.348665177586,-26.15937516038,
    -29.29840601631));
#231 = CARTESIAN_POINT('',(2.235397742376,-24.88172090953,
    -30.84425122749));
#232 = CARTESIAN_POINT('',(3.187545755641,-23.63843007569,
    -32.42416076746));
#233 = CARTESIAN_POINT('',(4.210575135405,-22.42852905228,
    -34.01528042213));
#234 = CARTESIAN_POINT('',(5.311970060647,-21.24797590953,
    -35.62350176728));
#235 = CARTESIAN_POINT('',(6.500999798474,-20.11284186747,
    -37.22766610754));
#236 = CARTESIAN_POINT('',(7.756600146922,-19.03481291519,
    -38.81686571101));
#237 = CARTESIAN_POINT('',(9.062874893948,-18.0172118932,-40.38574885259
    ));
#238 = CARTESIAN_POINT('',(11.742366285815,-16.09793536915,
    -43.48245186531));
#239 = CARTESIAN_POINT('',(14.502469716721,-14.38316764378,
    -46.50900608614));
#240 = CARTESIAN_POINT('',(15.889292707928,-13.57008379005,
    -48.00772641951));
#241 = CARTESIAN_POINT('',(17.272875931801,-12.79033315327,
    -49.49806727351));
#242 = CARTESIAN_POINT('',(18.648195599445,-12.03066194643,
    -50.98718354567));
#243 = CARTESIAN_POINT('',(20.014391433317,-11.27982301189,
    -52.48078644182));
#244 = CARTESIAN_POINT('',(21.371617875376,-10.52893625066,
    -53.98216847173));
#245 = CARTESIAN_POINT('',(22.721642663416,-9.772597839625,
    -55.49257976561));
#246 = CARTESIAN_POINT('',(24.069166276779,-9.013272632161,
    -57.01127050397));
#247 = CARTESIAN_POINT('',(25.419230708393,-8.262894496158,
    -58.5350482337));
#248 = CARTESIAN_POINT('',(26.774333892129,-7.533861144324,
    -60.05963816378));
#249 = CARTESIAN_POINT('',(28.135135,-6.8366685,-61.58107));
#250 = PCURVE('',#95,#251);
#251 = DEFINITIONAL_REPRESENTATION('',(#252),#276);
#252 = B_SPLINE_CURVE_WITH_KNOTS('',12,(#253,#254,#255,#256,#257,#258,
    #259,#260,#261,#262,#263,#264,#265,#266,#267,#268,#269,#270,#271,
    #272,#273,#274,#275),.UNSPECIFIED.,.F.,.F.,(13,10,13),(0.,
    5.230556345258,10.461112690517),.UNSPECIFIED.);
#253 = CARTESIAN_POINT('',(1.,1.));
#254 = CARTESIAN_POINT('',(0.971751402697,0.964626340963));
#255 = CARTESIAN_POINT('',(0.940122717773,0.928319267069));
#256 = CARTESIAN_POINT('',(0.905444490996,0.89024660355));
#257 = CARTESIAN_POINT('',(0.868238130022,0.849742395939));
#258 = CARTESIAN_POINT('',(0.829101756966,0.806380865031));
#259 = CARTESIAN_POINT('',(0.788714207068,0.760617029358));
#260 = CARTESIAN_POINT('',(0.747037644535,0.712801718679));
#261 = CARTESIAN_POINT('',(0.704468768592,0.663963289311));
#262 = CARTESIAN_POINT('',(0.661233556019,0.615352427213));
#263 = CARTESIAN_POINT('',(0.617468794682,0.567658422691));
#264 = CARTESIAN_POINT('',(0.52901045055,0.474934848401));
#265 = CARTESIAN_POINT('',(0.438855161973,0.387994287378));
#266 = CARTESIAN_POINT('',(0.393392861605,0.346085065508));
#267 = CARTESIAN_POINT('',(0.347567905144,0.305572009088));
#268 = CARTESIAN_POINT('',(0.30140520642,0.266077368685));
#269 = CARTESIAN_POINT('',(0.255075217603,0.227201446633));
#270 = CARTESIAN_POINT('',(0.208834398019,0.188596737832));
#271 = CARTESIAN_POINT('',(0.163141206129,0.149977240236));
#272 = CARTESIAN_POINT('',(0.118747899798,0.111325602732));
#273 = CARTESIAN_POINT('',(7.645064698566E-02,7.310370629609E-02));
#274 = CARTESIAN_POINT('',(3.677940439381E-02,3.583742499955E-02));
#275 = CARTESIAN_POINT('',(-1.370668677555E-16,-3.106443991172E-17));
#276 = ( GEOMETRIC_REPRESENTATION_CONTEXT(2) 
PARAMETRIC_REPRESENTATION_CONTEXT() REPRESENTATION_CONTEXT('2D SPACE',''
  ) );
#277 = PCURVE('',#195,#278);
#278 = DEFINITIONAL_REPRESENTATION('',(#279),#303);
#279 = B_SPLINE_CURVE_WITH_KNOTS('',12,(#280,#281,#282,#283,#284,#285,
    #286,#287,#288,#289,#290,#291,#292,#293,#294,#295,#296,#297,#298,
    #299,#300,#301,#302),.UNSPECIFIED.,.F.,.F.,(13,10,13),(0.,
    5.230556345258,10.461112690517),.UNSPECIFIED.);
#280 = CARTESIAN_POINT('',(1.,1.));
#281 = CARTESIAN_POINT('',(0.971751402697,0.964626340963));
#282 = CARTESIAN_POINT('',(0.940122717773,0.928319267069));
#283 = CARTESIAN_POINT('',(0.905444490996,0.89024660355));
#284 = CARTESIAN_POINT('',(0.868238130022,0.849742395939));
#285 = CARTESIAN_POINT('',(0.829101756966,0.806380865031));
#286 = CARTESIAN_POINT('',(0.788714207068,0.760617029358));
#287 = CARTESIAN_POINT('',(0.747037644535,0.712801718679));
#288 = CARTESIAN_POINT('',(0.704468768592,0.663963289311));
#289 = CARTESIAN_POINT('',(0.661233556019,0.615352427213));
#290 = CARTESIAN_POINT('',(0.617468794682,0.567658422691));
#291 = CARTESIAN_POINT('',(0.52901045055,0.474934848401));
#292 = CARTESIAN_POINT('',(0.438855161973,0.387994287378));
#293 = CARTESIAN_POINT('',(0.393392861605,0.346085065508));
#294 = CARTESIAN_POINT('',(0.347567905144,0.305572009088));
#295 = CARTESIAN_POINT('',(0.30140520642,0.266077368685));
#296 = CARTESIAN_POINT('',(0.255075217603,0.227201446633));
#297 = CARTESIAN_POINT('',(0.208834398019,0.188596737832));
#298 = CARTESIAN_POINT('',(0.163141206129,0.149977240236));
#299 = CARTESIAN_POINT('',(0.118747899798,0.111325602732));
#300 = CARTESIAN_POINT('',(7.645064698566E-02,7.310370629609E-02));
#301 = CARTESIAN_POINT('',(3.677940439381E-02,3.583742499955E-02));
#302 = CARTESIAN_POINT('',(-1.370668677555E-16,-3.106443991172E-17));
#303 = ( GEOMETRIC_REPRESENTATION_CONTEXT(2) 
PARAMETRIC_REPRESENTATION_CONTEXT() REPRESENTATION_CONTEXT('2D SPACE',''
  ) );
#304 = ORIENTED_EDGE('',*,*,#305,.T.);
#305 = EDGE_CURVE('',#223,#80,#306,.T.);
#306 = SURFACE_CURVE('',#307,(#312),.PCURVE_S1.);
#307 = B_SPLINE_CURVE_WITH_KNOTS('',3,(#308,#309,#310,#311),
  .UNSPECIFIED.,.F.,.F.,(4,4),(0.,1.),.PIECEWISE_BEZIER_KNOTS.);
#308 = CARTESIAN_POINT('',(28.135135,-6.8366685,-61.58107));
#309 = CARTESIAN_POINT('',(27.810815,-6.8366685,-44.70997));
#310 = CARTESIAN_POINT('',(29.432435,-6.8366685,-35.625535));
#311 = CARTESIAN_POINT('',(28.135135,-6.8366685,-25.));
#312 = PCURVE('',#95,#313);
#313 = DEFINITIONAL_REPRESENTATION('',(#314),#317);
#314 = B_SPLINE_CURVE_WITH_KNOTS('',1,(#315,#316),.UNSPECIFIED.,.F.,.F.,
  (2,2),(0.,1.),.PIECEWISE_BEZIER_KNOTS.);
#315 = CARTESIAN_POINT('',(0.,0.));
#316 = CARTESIAN_POINT('',(1.,0.));
#317 = ( GEOMETRIC_REPRESENTATION_CONTEXT(2) 
PARAMETRIC_REPRESENTATION_CONTEXT() REPRESENTATION_CONTEXT('2D SPACE',''
  ) );
#318 = ORIENTED_EDGE('',*,*,#79,.F.);
#319 = ADVANCED_FACE('',(#320),#195,.T.);
#320 = FACE_BOUND('',#321,.T.);
#321 = EDGE_LOOP('',(#322,#323,#324));
#322 = ORIENTED_EDGE('',*,*,#222,.F.);
#323 = ORIENTED_EDGE('',*,*,#181,.F.);
#324 = ORIENTED_EDGE('',*,*,#325,.T.);
#325 = EDGE_CURVE('',#166,#223,#326,.T.);
#326 = SURFACE_CURVE('',#327,(#332),.PCURVE_S1.);
#327 = B_SPLINE_CURVE_WITH_KNOTS('',3,(#328,#329,#330,#331),
  .UNSPECIFIED.,.F.,.F.,(4,4),(0.,1.),.PIECEWISE_BEZIER_KNOTS.);
#328 = CARTESIAN_POINT('',(-1.0540545,-30.196645,-61.58107));
#329 = CARTESIAN_POINT('',(6.08108,-21.1081,-64.744385));
#330 = CARTESIAN_POINT('',(15.81081,-13.321441,-64.744385));
#331 = CARTESIAN_POINT('',(28.135135,-6.8366685,-61.58107));
#332 = PCURVE('',#195,#333);
#333 = DEFINITIONAL_REPRESENTATION('',(#334),#337);
#334 = B_SPLINE_CURVE_WITH_KNOTS('',1,(#335,#336),.UNSPECIFIED.,.F.,.F.,
  (2,2),(0.,1.),.PIECEWISE_BEZIER_KNOTS.);
#335 = CARTESIAN_POINT('',(0.,1.));
#336 = CARTESIAN_POINT('',(0.,0.));
#337 = ( GEOMETRIC_REPRESENTATION_CONTEXT(2) 
PARAMETRIC_REPRESENTATION_CONTEXT() REPRESENTATION_CONTEXT('2D SPACE',''
  ) );
#338 = ( GEOMETRIC_REPRESENTATION_CONTEXT(3) 
GLOBAL_UNCERTAINTY_ASSIGNED_CONTEXT((#342)) GLOBAL_UNIT_ASSIGNED_CONTEXT
((#339,#340,#341)) REPRESENTATION_CONTEXT('Context #1',
  '3D Context with UNIT and UNCERTAINTY') );
#339 = ( LENGTH_UNIT() NAMED_UNIT(*) SI_UNIT(.MILLI.,.METRE.) );
#340 = ( NAMED_UNIT(*) PLANE_ANGLE_UNIT() SI_UNIT($,.RADIAN.) );
#341 = ( NAMED_UNIT(*) SI_UNIT($,.STERADIAN.) SOLID_ANGLE_UNIT() );
#342 = UNCERTAINTY_MEASURE_WITH_UNIT(LENGTH_MEASURE(2.E-03),#339,
  'distance_accuracy_value','confusion accuracy');
#343 = PRODUCT_RELATED_PRODUCT_CATEGORY('part',$,(#7));
ENDSEC;
END-ISO-10303-21;
