ISO-10303-21;
HEADER;
FILE_DESCRIPTION(('Open CASCADE Model'),'2;1');
FILE_NAME('Open CASCADE Shape Model','2026-07-11T20:16:10',('Author'),(
    'Open CASCADE'),'Open CASCADE STEP processor 8.0','Open CASCADE 8.0'
  ,'Unknown');
FILE_SCHEMA(('AUTOMOTIVE_DESIGN { 1 0 10303 214 1 1 1 1 }'));
ENDSEC;
DATA;
#1 = APPLICATION_PROTOCOL_DEFINITION('international standard',
  'automotive_design',2000,#2);
#2 = APPLICATION_CONTEXT(
  'core data for automotive mechanical design processes');
#3 = SHAPE_DEFINITION_REPRESENTATION(#4,#10);
#4 = PRODUCT_DEFINITION_SHAPE('','',#5);
#5 = PRODUCT_DEFINITION('design','',#6,#9);
#6 = PRODUCT_DEFINITION_FORMATION('','',#7);
#7 = PRODUCT('Open CASCADE STEP translator 8.0 1',
  'Open CASCADE STEP translator 8.0 1','',(#8));
#8 = PRODUCT_CONTEXT('',#2,'mechanical');
#9 = PRODUCT_DEFINITION_CONTEXT('part definition',#2,'design');
#10 = MANIFOLD_SURFACE_SHAPE_REPRESENTATION('',(#11,#15),#868);
#11 = AXIS2_PLACEMENT_3D('',#12,#13,#14);
#12 = CARTESIAN_POINT('',(0.,0.,0.));
#13 = DIRECTION('',(0.,0.,1.));
#14 = DIRECTION('',(1.,0.,-0.));
#15 = SHELL_BASED_SURFACE_MODEL('',(#16));
#16 = OPEN_SHELL('',(#17,#276,#520,#732,#805));
#17 = ADVANCED_FACE('',(#18),#31,.T.);
#18 = FACE_BOUND('',#19,.T.);
#19 = EDGE_LOOP('',(#20,#51,#205,#256));
#20 = ORIENTED_EDGE('',*,*,#21,.F.);
#21 = EDGE_CURVE('',#22,#24,#26,.T.);
#22 = VERTEX_POINT('',#23);
#23 = CARTESIAN_POINT('',(488.41082,106.161175,168.453295));
#24 = VERTEX_POINT('',#25);
#25 = CARTESIAN_POINT('',(488.41082,106.161175,90.));
#26 = SURFACE_CURVE('',#27,(#30),.PCURVE_S1.);
#27 = B_SPLINE_CURVE_WITH_KNOTS('',1,(#28,#29),.UNSPECIFIED.,.F.,.F.,(2,
    2),(0.,1.),.PIECEWISE_BEZIER_KNOTS.);
#28 = CARTESIAN_POINT('',(488.41082,106.161175,168.453295));
#29 = CARTESIAN_POINT('',(488.41082,106.161175,90.));
#30 = PCURVE('',#31,#46);
#31 = B_SPLINE_SURFACE_WITH_KNOTS('',6,1,(
    (#32,#33)
    ,(#34,#35)
    ,(#36,#37)
    ,(#38,#39)
    ,(#40,#41)
    ,(#42,#43)
    ,(#44,#45)),.UNSPECIFIED.,.F.,.F.,.F.,(7,7),(2,2),(0.,1.),(0.,1.),
  .PIECEWISE_BEZIER_KNOTS.);
#32 = CARTESIAN_POINT('',(487.55742,110.07751,172.936105));
#33 = CARTESIAN_POINT('',(487.55742,110.07751,87.977085));
#34 = CARTESIAN_POINT('',(493.63079,82.65867,155.071335));
#35 = CARTESIAN_POINT('',(493.63079,82.65867,88.41283));
#36 = CARTESIAN_POINT('',(498.031415,55.33499,140.867245));
#37 = CARTESIAN_POINT('',(498.031415,55.33499,88.759285));
#38 = CARTESIAN_POINT('',(500.64535,28.0691195,129.136925));
#39 = CARTESIAN_POINT('',(500.64535,28.0691195,89.0454));
#40 = CARTESIAN_POINT('',(501.3931,0.8055709,119.622795));
#41 = CARTESIAN_POINT('',(501.3931,0.8055709,89.277465));
#42 = CARTESIAN_POINT('',(500.2134,-26.508985,112.18913));
#43 = CARTESIAN_POINT('',(500.2134,-26.508985,89.45878));
#44 = CARTESIAN_POINT('',(497.0713,-53.92615,106.78561));
#45 = CARTESIAN_POINT('',(497.0713,-53.92615,89.59058));
#46 = DEFINITIONAL_REPRESENTATION('',(#47),#50);
#47 = B_SPLINE_CURVE_WITH_KNOTS('',1,(#48,#49),.UNSPECIFIED.,.F.,.F.,(2,
    2),(0.,1.),.PIECEWISE_BEZIER_KNOTS.);
#48 = CARTESIAN_POINT('',(2.3810476E-02,2.3810476E-02));
#49 = CARTESIAN_POINT('',(2.3810476E-02,0.97618952));
#50 = ( GEOMETRIC_REPRESENTATION_CONTEXT(2) 
PARAMETRIC_REPRESENTATION_CONTEXT() REPRESENTATION_CONTEXT('2D SPACE',''
  ) );
#51 = ORIENTED_EDGE('',*,*,#52,.T.);
#52 = EDGE_CURVE('',#22,#53,#55,.T.);
#53 = VERTEX_POINT('',#54);
#54 = CARTESIAN_POINT('',(497.50351,-50.010115,107.14618));
#55 = SURFACE_CURVE('',#56,(#63,#73),.PCURVE_S1.);
#56 = B_SPLINE_CURVE_WITH_KNOTS('',5,(#57,#58,#59,#60,#61,#62),
  .UNSPECIFIED.,.F.,.F.,(6,6),(0.,1.),.PIECEWISE_BEZIER_KNOTS.);
#57 = CARTESIAN_POINT('',(488.41082,106.161175,168.453295));
#58 = CARTESIAN_POINT('',(495.123475,74.838125,149.013));
#59 = CARTESIAN_POINT('',(499.54527,43.6399685,134.273065));
#60 = CARTESIAN_POINT('',(501.4862,12.4977565,122.424145));
#61 = CARTESIAN_POINT('',(500.8277,-18.6899005,113.440805));
#62 = CARTESIAN_POINT('',(497.50351,-50.010115,107.14618));
#63 = PCURVE('',#31,#64);
#64 = DEFINITIONAL_REPRESENTATION('',(#65),#72);
#65 = B_SPLINE_CURVE_WITH_KNOTS('',5,(#66,#67,#68,#69,#70,#71),
  .UNSPECIFIED.,.F.,.F.,(6,6),(0.,1.),.PIECEWISE_BEZIER_KNOTS.);
#66 = CARTESIAN_POINT('',(2.3810476E-02,2.3810476E-02));
#67 = CARTESIAN_POINT('',(0.214286293387,2.3810476E-02));
#68 = CARTESIAN_POINT('',(0.40476348721,2.3810476E-02));
#69 = CARTESIAN_POINT('',(0.595236460347,2.3810476E-02));
#70 = CARTESIAN_POINT('',(0.785713709612,2.3810476E-02));
#71 = CARTESIAN_POINT('',(0.97618952,2.3810476E-02));
#72 = ( GEOMETRIC_REPRESENTATION_CONTEXT(2) 
PARAMETRIC_REPRESENTATION_CONTEXT() REPRESENTATION_CONTEXT('2D SPACE',''
  ) );
#73 = PCURVE('',#74,#195);
#74 = B_SPLINE_SURFACE_WITH_KNOTS('',9,11,(
    (#75,#76,#77,#78,#79,#80,#81,#82,#83,#84,#85,#86)
    ,(#87,#88,#89,#90,#91,#92,#93,#94,#95,#96,#97,#98)
    ,(#99,#100,#101,#102,#103,#104,#105,#106,#107,#108,#109,#110)
    ,(#111,#112,#113,#114,#115,#116,#117,#118,#119,#120,#121,#122)
    ,(#123,#124,#125,#126,#127,#128,#129,#130,#131,#132,#133,#134)
    ,(#135,#136,#137,#138,#139,#140,#141,#142,#143,#144,#145,#146)
    ,(#147,#148,#149,#150,#151,#152,#153,#154,#155,#156,#157,#158)
    ,(#159,#160,#161,#162,#163,#164,#165,#166,#167,#168,#169,#170)
    ,(#171,#172,#173,#174,#175,#176,#177,#178,#179,#180,#181,#182)
    ,(#183,#184,#185,#186,#187,#188,#189,#190,#191,#192,#193,#194
  )),.UNSPECIFIED.,.F.,.F.,.F.,(10,10),(12,12),(0.,1.),(0.,1.),
  .PIECEWISE_BEZIER_KNOTS.);
#75 = CARTESIAN_POINT('',(579.99845,-75.4316,139.25893));
#76 = CARTESIAN_POINT('',(582.2201,-59.569405,141.417505));
#77 = CARTESIAN_POINT('',(583.8502,-43.720556,144.22607));
#78 = CARTESIAN_POINT('',(584.92805,-27.872922,147.68758));
#79 = CARTESIAN_POINT('',(585.27925,-12.0827695,151.84741));
#80 = CARTESIAN_POINT('',(585.45815,3.7711921,156.62323));
#81 = CARTESIAN_POINT('',(584.4102,19.519993,162.23315));
#82 = CARTESIAN_POINT('',(583.40385,35.302152,168.469175));
#83 = CARTESIAN_POINT('',(581.49235,51.05731,175.585925));
#84 = CARTESIAN_POINT('',(579.15825,66.795495,183.542115));
#85 = CARTESIAN_POINT('',(576.261,82.523105,192.482175));
#86 = CARTESIAN_POINT('',(572.84765,98.235575,202.541265));
#87 = CARTESIAN_POINT('',(569.9393,-72.79746,137.633355));
#88 = CARTESIAN_POINT('',(572.09315,-57.14719,139.880015));
#89 = CARTESIAN_POINT('',(573.66235,-41.514626,142.75874));
#90 = CARTESIAN_POINT('',(574.688,-25.8835205,146.271875));
#91 = CARTESIAN_POINT('',(574.9865,-10.3212685,150.46374));
#92 = CARTESIAN_POINT('',(575.15145,5.3262595,155.247515));
#93 = CARTESIAN_POINT('',(574.03335,20.8375075,160.85516));
#94 = CARTESIAN_POINT('',(573.0454,36.4122885,167.0495));
#95 = CARTESIAN_POINT('',(571.1086,51.94744,174.116025));
#96 = CARTESIAN_POINT('',(568.7765,67.47272,181.99059));
#97 = CARTESIAN_POINT('',(565.8867,82.99152,190.825835));
#98 = CARTESIAN_POINT('',(562.49125,98.50078,200.753905));
#99 = CARTESIAN_POINT('',(559.9643,-70.191365,135.445005));
#100 = CARTESIAN_POINT('',(562.05235,-54.72651,137.77871));
#101 = CARTESIAN_POINT('',(563.5632,-39.2826815,140.727765));
#102 = CARTESIAN_POINT('',(564.53235,-23.843331,144.29548));
#103 = CARTESIAN_POINT('',(564.8009,-8.472062,148.51845));
#104 = CARTESIAN_POINT('',(564.9074,6.9801725,153.32237));
#105 = CARTESIAN_POINT('',(563.77275,22.304531,158.92706));
#106 = CARTESIAN_POINT('',(562.7661,37.6799345,165.09163));
#107 = CARTESIAN_POINT('',(560.8219,53.039765,172.11823));
#108 = CARTESIAN_POINT('',(558.4852,68.37354,179.922855));
#109 = CARTESIAN_POINT('',(555.6024,83.71412,188.66797));
#110 = CARTESIAN_POINT('',(552.2233,99.04914,198.48173));
#111 = CARTESIAN_POINT('',(550.1072,-67.62224,132.69919));
#112 = CARTESIAN_POINT('',(552.1318,-52.315485,135.11865));
#113 = CARTESIAN_POINT('',(553.58725,-37.0349645,138.136915));
#114 = CARTESIAN_POINT('',(554.4951,-21.745128,141.76677));
#115 = CARTESIAN_POINT('',(554.76215,-6.581566,146.005615));
#116 = CARTESIAN_POINT('',(554.74905,8.8022255,150.86986));
#117 = CARTESIAN_POINT('',(553.6755,23.8227585,156.433305));
#118 = CARTESIAN_POINT('',(552.5949,39.1816305,162.615805));
#119 = CARTESIAN_POINT('',(550.6691,54.286095,169.58906));
#120 = CARTESIAN_POINT('',(548.31685,69.509145,177.346755));
#121 = CARTESIAN_POINT('',(545.44355,84.691025,186.01433));
#122 = CARTESIAN_POINT('',(542.0788,99.88021,195.73072));
#123 = CARTESIAN_POINT('',(540.4012,-65.09882,129.40388));
#124 = CARTESIAN_POINT('',(542.365,-49.922341,131.90742));
#125 = CARTESIAN_POINT('',(543.76505,-34.7685355,134.99778));
#126 = CARTESIAN_POINT('',(544.6226,-19.644742,138.67778));
#127 = CARTESIAN_POINT('',(544.87245,-4.5183603,142.96787));
#128 = CARTESIAN_POINT('',(544.741,10.5478985,147.85082));
#129 = CARTESIAN_POINT('',(543.77085,25.676132,153.42516));
#130 = CARTESIAN_POINT('',(542.5622,40.672501,159.595735));
#131 = CARTESIAN_POINT('',(540.68395,55.82132,166.556785));
#132 = CARTESIAN_POINT('',(538.3138,70.835365,174.26211));
#133 = CARTESIAN_POINT('',(535.4427,85.914055,182.871645));
#134 = CARTESIAN_POINT('',(532.0922,100.991235,192.508845));
#135 = CARTESIAN_POINT('',(530.8789,-62.62967,125.56959));
#136 = CARTESIAN_POINT('',(532.7847,-47.5551645,128.15524));
#137 = CARTESIAN_POINT('',(534.1337,-32.5115395,131.31307));
#138 = CARTESIAN_POINT('',(534.94745,-17.4622215,135.056155));
#139 = CARTESIAN_POINT('',(535.1417,-2.52745175,139.37874));
#140 = CARTESIAN_POINT('',(535.0061,12.6016525,144.309055));
#141 = CARTESIAN_POINT('',(533.97355,27.390795,149.877115));
#142 = CARTESIAN_POINT('',(532.773,42.5457755,156.07746));
#143 = CARTESIAN_POINT('',(530.88905,57.393095,162.998545));
#144 = CARTESIAN_POINT('',(528.49025,72.4191,170.691875));
#145 = CARTESIAN_POINT('',(525.63715,87.390265,179.251885));
#146 = CARTESIAN_POINT('',(522.29735,102.378575,188.82629));
#147 = CARTESIAN_POINT('',(521.572,-60.22313,121.209265));
#148 = CARTESIAN_POINT('',(523.42275,-45.2218265,123.87486));
#149 = CARTESIAN_POINT('',(524.72055,-30.24591,127.10412));
#150 = CARTESIAN_POINT('',(525.49255,-15.3033495,130.898595));
#151 = CARTESIAN_POINT('',(525.6522,-0.34720907,135.28106));
#152 = CARTESIAN_POINT('',(525.46555,14.5247705,140.229365));
#153 = CARTESIAN_POINT('',(524.42505,29.496046,145.839205));
#154 = CARTESIAN_POINT('',(523.23515,44.32987,152.02752));
#155 = CARTESIAN_POINT('',(521.27355,59.291925,158.969015));
#156 = CARTESIAN_POINT('',(518.9212,74.177025,166.631055));
#157 = CARTESIAN_POINT('',(516.05715,89.098685,175.16388));
#158 = CARTESIAN_POINT('',(512.72755,104.03824,184.69551));
#159 = CARTESIAN_POINT('',(512.5114,-57.88732,116.338115));
#160 = CARTESIAN_POINT('',(514.31005,-42.9300065,119.081405));
#161 = CARTESIAN_POINT('',(515.5644,-28.0018935,122.377235));
#162 = CARTESIAN_POINT('',(516.27915,-13.091175,126.236115));
#163 = CARTESIAN_POINT('',(516.45065,1.78851525,130.654405));
#164 = CARTESIAN_POINT('',(516.1335,16.6724835,135.66471));
#165 = CARTESIAN_POINT('',(515.21235,31.538243,141.27468));
#166 = CARTESIAN_POINT('',(513.8713,46.3948995,147.5107));
#167 = CARTESIAN_POINT('',(511.9786,61.28515,154.44074));
#168 = CARTESIAN_POINT('',(509.592,76.150225,162.10699));
#169 = CARTESIAN_POINT('',(506.7367,91.049165,170.625385));
#170 = CARTESIAN_POINT('',(503.4152,105.96566,180.13109));
#171 = CARTESIAN_POINT('',(503.72705,-55.630125,110.97346));
#172 = CARTESIAN_POINT('',(505.47665,-40.6873575,113.79206));
#173 = CARTESIAN_POINT('',(506.6872,-25.7733615,117.155575));
#174 = CARTESIAN_POINT('',(507.3639,-10.880181,121.07131));
#175 = CARTESIAN_POINT('',(507.50495,3.9924048,125.54538));
#176 = CARTESIAN_POINT('',(507.14445,18.860147,130.596));
#177 = CARTESIAN_POINT('',(506.2269,33.716768,136.24117));
#178 = CARTESIAN_POINT('',(504.85105,48.5777415,142.50908));
#179 = CARTESIAN_POINT('',(502.9463,63.450715,149.452765));
#180 = CARTESIAN_POINT('',(500.5631,78.3281,157.13192));
#181 = CARTESIAN_POINT('',(497.70708,93.23,165.65128));
#182 = CARTESIAN_POINT('',(494.391285,108.154645,175.149405));
#183 = CARTESIAN_POINT('',(495.247935,-53.459175,105.13454));
#184 = CARTESIAN_POINT('',(496.951955,-38.501803,108.025615));
#185 = CARTESIAN_POINT('',(498.121915,-23.5723165,111.455445));
#186 = CARTESIAN_POINT('',(498.761915,-8.6643685,115.43003));
#187 = CARTESIAN_POINT('',(498.87737,6.2285005,119.95914));
#188 = CARTESIAN_POINT('',(498.47484,21.1128495,125.05678));
#189 = CARTESIAN_POINT('',(497.56197,35.995279,130.74327));
#190 = CARTESIAN_POINT('',(496.14744,50.882325,137.04897));
#191 = CARTESIAN_POINT('',(494.240985,65.780305,144.01965));
#192 = CARTESIAN_POINT('',(491.853465,80.695135,151.72345));
#193 = CARTESIAN_POINT('',(488.997,95.632085,160.25949));
#194 = CARTESIAN_POINT('',(485.68513,110.595485,169.768115));
#195 = DEFINITIONAL_REPRESENTATION('',(#196),#204);
#196 = B_SPLINE_CURVE_WITH_KNOTS('',6,(#197,#198,#199,#200,#201,#202,
    #203),.UNSPECIFIED.,.F.,.F.,(7,7),(0.,1.),.PIECEWISE_BEZIER_KNOTS.);
#197 = CARTESIAN_POINT('',(0.97618764,0.97618933));
#198 = CARTESIAN_POINT('',(0.97618764,0.817459690755));
#199 = CARTESIAN_POINT('',(0.97618764,0.658711959511));
#200 = CARTESIAN_POINT('',(0.97618764,0.500030362473));
#201 = CARTESIAN_POINT('',(0.97618764,0.341254396975));
#202 = CARTESIAN_POINT('',(0.97618764,0.182540412858));
#203 = CARTESIAN_POINT('',(0.97618764,2.3810667E-02));
#204 = ( GEOMETRIC_REPRESENTATION_CONTEXT(2) 
PARAMETRIC_REPRESENTATION_CONTEXT() REPRESENTATION_CONTEXT('2D SPACE',''
  ) );
#205 = ORIENTED_EDGE('',*,*,#206,.T.);
#206 = EDGE_CURVE('',#53,#207,#209,.T.);
#207 = VERTEX_POINT('',#208);
#208 = CARTESIAN_POINT('',(497.50351,-50.010115,90.));
#209 = SURFACE_CURVE('',#210,(#213,#219),.PCURVE_S1.);
#210 = B_SPLINE_CURVE_WITH_KNOTS('',1,(#211,#212),.UNSPECIFIED.,.F.,.F.,
  (2,2),(0.,1.),.PIECEWISE_BEZIER_KNOTS.);
#211 = CARTESIAN_POINT('',(497.50351,-50.010115,107.14618));
#212 = CARTESIAN_POINT('',(497.50351,-50.010115,90.));
#213 = PCURVE('',#31,#214);
#214 = DEFINITIONAL_REPRESENTATION('',(#215),#218);
#215 = B_SPLINE_CURVE_WITH_KNOTS('',1,(#216,#217),.UNSPECIFIED.,.F.,.F.,
  (2,2),(0.,1.),.PIECEWISE_BEZIER_KNOTS.);
#216 = CARTESIAN_POINT('',(0.97618952,2.3810476E-02));
#217 = CARTESIAN_POINT('',(0.97618952,0.97618952));
#218 = ( GEOMETRIC_REPRESENTATION_CONTEXT(2) 
PARAMETRIC_REPRESENTATION_CONTEXT() REPRESENTATION_CONTEXT('2D SPACE',''
  ) );
#219 = PCURVE('',#220,#251);
#220 = B_SPLINE_SURFACE_WITH_KNOTS('',14,1,(
    (#221,#222)
    ,(#223,#224)
    ,(#225,#226)
    ,(#227,#228)
    ,(#229,#230)
    ,(#231,#232)
    ,(#233,#234)
    ,(#235,#236)
    ,(#237,#238)
    ,(#239,#240)
    ,(#241,#242)
    ,(#243,#244)
    ,(#245,#246)
    ,(#247,#248)
    ,(#249,#250
    )),.UNSPECIFIED.,.F.,.F.,.F.,(15,15),(2,2),(0.,1.),(0.,1.),
  .PIECEWISE_BEZIER_KNOTS.);
#221 = CARTESIAN_POINT('',(494.237025,-49.3493365,107.79358));
#222 = CARTESIAN_POINT('',(494.237025,-49.3493365,89.56599));
#223 = CARTESIAN_POINT('',(504.0372,-51.32501,107.13383));
#224 = CARTESIAN_POINT('',(504.0372,-51.32501,89.582085));
#225 = CARTESIAN_POINT('',(513.8303,-53.343175,106.49727));
#226 = CARTESIAN_POINT('',(513.8303,-53.343175,89.59761));
#227 = CARTESIAN_POINT('',(523.616,-55.403795,105.883765));
#228 = CARTESIAN_POINT('',(523.616,-55.403795,89.612575));
#229 = CARTESIAN_POINT('',(533.39415,-57.50684,105.29319));
#230 = CARTESIAN_POINT('',(533.39415,-57.50684,89.62698));
#231 = CARTESIAN_POINT('',(543.16435,-59.652285,104.72543));
#232 = CARTESIAN_POINT('',(543.16435,-59.652285,89.64083));
#233 = CARTESIAN_POINT('',(552.92645,-61.84009,104.180355));
#234 = CARTESIAN_POINT('',(552.92645,-61.84009,89.654125));
#235 = CARTESIAN_POINT('',(562.6801,-64.070215,103.657855));
#236 = CARTESIAN_POINT('',(562.6801,-64.070215,89.66687));
#237 = CARTESIAN_POINT('',(572.42515,-66.342625,103.157815));
#238 = CARTESIAN_POINT('',(572.42515,-66.342625,89.679065));
#239 = CARTESIAN_POINT('',(582.1612,-68.657275,102.680115));
#240 = CARTESIAN_POINT('',(582.1612,-68.657275,89.690715));
#241 = CARTESIAN_POINT('',(591.8881,-71.01413,102.22465));
#242 = CARTESIAN_POINT('',(591.8881,-71.01413,89.701825));
#243 = CARTESIAN_POINT('',(601.60555,-73.413135,101.791315));
#244 = CARTESIAN_POINT('',(601.60555,-73.413135,89.712395));
#245 = CARTESIAN_POINT('',(611.31335,-75.854245,101.380005));
#246 = CARTESIAN_POINT('',(611.31335,-75.854245,89.72243));
#247 = CARTESIAN_POINT('',(621.01115,-78.33741,100.990615));
#248 = CARTESIAN_POINT('',(621.01115,-78.33741,89.731925));
#249 = CARTESIAN_POINT('',(630.6988,-80.862575,100.62305));
#250 = CARTESIAN_POINT('',(630.6988,-80.862575,89.74089));
#251 = DEFINITIONAL_REPRESENTATION('',(#252),#255);
#252 = B_SPLINE_CURVE_WITH_KNOTS('',1,(#253,#254),.UNSPECIFIED.,.F.,.F.,
  (2,2),(0.,1.),.PIECEWISE_BEZIER_KNOTS.);
#253 = CARTESIAN_POINT('',(2.3810476E-02,2.3810476E-02));
#254 = CARTESIAN_POINT('',(2.3810476E-02,0.97618952));
#255 = ( GEOMETRIC_REPRESENTATION_CONTEXT(2) 
PARAMETRIC_REPRESENTATION_CONTEXT() REPRESENTATION_CONTEXT('2D SPACE',''
  ) );
#256 = ORIENTED_EDGE('',*,*,#257,.F.);
#257 = EDGE_CURVE('',#24,#207,#258,.T.);
#258 = SURFACE_CURVE('',#259,(#265),.PCURVE_S1.);
#259 = B_SPLINE_CURVE_WITH_KNOTS('',4,(#260,#261,#262,#263,#264),
  .UNSPECIFIED.,.F.,.F.,(5,5),(0.,1.),.PIECEWISE_BEZIER_KNOTS.);
#260 = CARTESIAN_POINT('',(488.41082,106.161175,90.));
#261 = CARTESIAN_POINT('',(496.80164,67.007365,90.));
#262 = CARTESIAN_POINT('',(501.3728,28.065599,90.));
#263 = CARTESIAN_POINT('',(501.65875,-10.859847,90.));
#264 = CARTESIAN_POINT('',(497.50351,-50.010115,90.));
#265 = PCURVE('',#31,#266);
#266 = DEFINITIONAL_REPRESENTATION('',(#267),#275);
#267 = B_SPLINE_CURVE_WITH_KNOTS('',6,(#268,#269,#270,#271,#272,#273,
    #274),.UNSPECIFIED.,.F.,.F.,(7,7),(0.,1.),.PIECEWISE_BEZIER_KNOTS.);
#268 = CARTESIAN_POINT('',(2.3810476E-02,0.97618952));
#269 = CARTESIAN_POINT('',(0.182540300483,0.97618952));
#270 = CARTESIAN_POINT('',(0.341258514718,0.97618952));
#271 = CARTESIAN_POINT('',(0.500003432855,0.97618952));
#272 = CARTESIAN_POINT('',(0.658737550297,0.97618952));
#273 = CARTESIAN_POINT('',(0.817459675607,0.97618952));
#274 = CARTESIAN_POINT('',(0.97618952,0.97618952));
#275 = ( GEOMETRIC_REPRESENTATION_CONTEXT(2) 
PARAMETRIC_REPRESENTATION_CONTEXT() REPRESENTATION_CONTEXT('2D SPACE',''
  ) );
#276 = ADVANCED_FACE('',(#277),#220,.T.);
#277 = FACE_BOUND('',#278,.T.);
#278 = EDGE_LOOP('',(#279,#280,#489,#503));
#279 = ORIENTED_EDGE('',*,*,#206,.F.);
#280 = ORIENTED_EDGE('',*,*,#281,.T.);
#281 = EDGE_CURVE('',#53,#282,#284,.T.);
#282 = VERTEX_POINT('',#283);
#283 = CARTESIAN_POINT('',(627.4689,-80.022985,100.48458));
#284 = SURFACE_CURVE('',#285,(#290,#299),.PCURVE_S1.);
#285 = B_SPLINE_CURVE_WITH_KNOTS('',3,(#286,#287,#288,#289),
  .UNSPECIFIED.,.F.,.F.,(4,4),(0.,1.),.PIECEWISE_BEZIER_KNOTS.);
#286 = CARTESIAN_POINT('',(497.50351,-50.010115,107.14618));
#287 = CARTESIAN_POINT('',(541.04995,-58.84932,104.31658));
#288 = CARTESIAN_POINT('',(584.3989,-68.857835,102.107665));
#289 = CARTESIAN_POINT('',(627.4689,-80.022985,100.48458));
#290 = PCURVE('',#220,#291);
#291 = DEFINITIONAL_REPRESENTATION('',(#292),#298);
#292 = B_SPLINE_CURVE_WITH_KNOTS('',4,(#293,#294,#295,#296,#297),
  .UNSPECIFIED.,.F.,.F.,(5,5),(0.,1.),.PIECEWISE_BEZIER_KNOTS.);
#293 = CARTESIAN_POINT('',(2.3810476E-02,2.3810476E-02));
#294 = CARTESIAN_POINT('',(0.261905179904,2.3810476E-02));
#295 = CARTESIAN_POINT('',(0.499998835266,2.3810476E-02));
#296 = CARTESIAN_POINT('',(0.738095094447,2.3810476E-02));
#297 = CARTESIAN_POINT('',(0.97618952,2.3810476E-02));
#298 = ( GEOMETRIC_REPRESENTATION_CONTEXT(2) 
PARAMETRIC_REPRESENTATION_CONTEXT() REPRESENTATION_CONTEXT('2D SPACE',''
  ) );
#299 = PCURVE('',#300,#481);
#300 = B_SPLINE_SURFACE_WITH_KNOTS('',14,11,(
    (#301,#302,#303,#304,#305,#306,#307,#308,#309,#310,#311,#312)
    ,(#313,#314,#315,#316,#317,#318,#319,#320,#321,#322,#323,#324)
    ,(#325,#326,#327,#328,#329,#330,#331,#332,#333,#334,#335,#336)
    ,(#337,#338,#339,#340,#341,#342,#343,#344,#345,#346,#347,#348)
    ,(#349,#350,#351,#352,#353,#354,#355,#356,#357,#358,#359,#360)
    ,(#361,#362,#363,#364,#365,#366,#367,#368,#369,#370,#371,#372)
    ,(#373,#374,#375,#376,#377,#378,#379,#380,#381,#382,#383,#384)
    ,(#385,#386,#387,#388,#389,#390,#391,#392,#393,#394,#395,#396)
    ,(#397,#398,#399,#400,#401,#402,#403,#404,#405,#406,#407,#408)
    ,(#409,#410,#411,#412,#413,#414,#415,#416,#417,#418,#419,#420)
    ,(#421,#422,#423,#424,#425,#426,#427,#428,#429,#430,#431,#432)
    ,(#433,#434,#435,#436,#437,#438,#439,#440,#441,#442,#443,#444)
    ,(#445,#446,#447,#448,#449,#450,#451,#452,#453,#454,#455,#456)
    ,(#457,#458,#459,#460,#461,#462,#463,#464,#465,#466,#467,#468)
    ,(#469,#470,#471,#472,#473,#474,#475,#476,#477,#478,#479,#480
  )),.UNSPECIFIED.,.F.,.F.,.F.,(15,15),(12,12),(0.,1.),(0.,1.),
  .PIECEWISE_BEZIER_KNOTS.);
#301 = CARTESIAN_POINT('',(630.74225,-81.080865,99.961515));
#302 = CARTESIAN_POINT('',(630.57675,-80.248415,101.496855));
#303 = CARTESIAN_POINT('',(630.40815,-79.40776,103.041655));
#304 = CARTESIAN_POINT('',(630.2368,-78.55861,104.59636));
#305 = CARTESIAN_POINT('',(630.0629,-77.7007,106.161375));
#306 = CARTESIAN_POINT('',(629.8866,-76.833795,107.73703));
#307 = CARTESIAN_POINT('',(629.70805,-75.957685,109.323625));
#308 = CARTESIAN_POINT('',(629.5273,-75.07223,110.92139));
#309 = CARTESIAN_POINT('',(629.3446,-74.17732,112.530485));
#310 = CARTESIAN_POINT('',(629.16015,-73.272915,114.15104));
#311 = CARTESIAN_POINT('',(628.9742,-72.35902,115.78312));
#312 = CARTESIAN_POINT('',(628.78705,-71.435695,117.42674));
#313 = CARTESIAN_POINT('',(620.9243,-78.555215,100.281885));
#314 = CARTESIAN_POINT('',(621.25505,-77.721625,101.96659));
#315 = CARTESIAN_POINT('',(621.59205,-76.904475,103.632375));
#316 = CARTESIAN_POINT('',(621.9343,-76.10423,105.27838));
#317 = CARTESIAN_POINT('',(622.28195,-75.32157,106.903755));
#318 = CARTESIAN_POINT('',(622.63435,-74.556905,108.50783));
#319 = CARTESIAN_POINT('',(622.99095,-73.81052,110.09007));
#320 = CARTESIAN_POINT('',(623.3516,-73.082785,111.65));
#321 = CARTESIAN_POINT('',(623.7166,-72.374065,113.18722));
#322 = CARTESIAN_POINT('',(624.0856,-71.68447,114.70149));
#323 = CARTESIAN_POINT('',(624.4572,-71.01372,116.19275));
#324 = CARTESIAN_POINT('',(624.83125,-70.361865,117.66091));
#325 = CARTESIAN_POINT('',(611.09585,-76.07851,100.616525));
#326 = CARTESIAN_POINT('',(611.9243,-75.217315,102.477395));
#327 = CARTESIAN_POINT('',(612.76825,-74.39722,104.290965));
#328 = CARTESIAN_POINT('',(613.62745,-73.61954,106.054995));
#329 = CARTESIAN_POINT('',(614.4924,-72.88527,107.767745));
#330 = CARTESIAN_POINT('',(615.38795,-72.19751,109.426495));
#331 = CARTESIAN_POINT('',(616.2613,-71.552315,111.032105));
#332 = CARTESIAN_POINT('',(617.18755,-70.958865,112.579775));
#333 = CARTESIAN_POINT('',(618.08355,-70.40682,114.073025));
#334 = CARTESIAN_POINT('',(619.0162,-69.90758,115.50714));
#335 = CARTESIAN_POINT('',(619.9488,-69.453685,116.884295));
#336 = CARTESIAN_POINT('',(620.88505,-69.046795,118.20381));
#337 = CARTESIAN_POINT('',(601.25635,-73.651,100.96549));
#338 = CARTESIAN_POINT('',(602.58665,-72.73496,103.029465));
#339 = CARTESIAN_POINT('',(603.9413,-71.884225,105.017885));
#340 = CARTESIAN_POINT('',(605.3239,-71.10468,106.926195));
#341 = CARTESIAN_POINT('',(606.7043,-70.38282,108.755255));
#342 = CARTESIAN_POINT('',(608.15695,-69.76238,110.49168));
#343 = CARTESIAN_POINT('',(609.54205,-69.166995,112.15285));
#344 = CARTESIAN_POINT('',(611.03795,-68.702355,113.710625));
#345 = CARTESIAN_POINT('',(612.4816,-68.26886,115.188795));
#346 = CARTESIAN_POINT('',(613.96375,-67.931865,116.57037));
#347 = CARTESIAN_POINT('',(615.4624,-67.67008,117.85977));
#348 = CARTESIAN_POINT('',(616.9656,-67.480555,119.05764));
#349 = CARTESIAN_POINT('',(591.40255,-71.27089,101.329395));
#350 = CARTESIAN_POINT('',(593.2523,-70.279795,103.62148));
#351 = CARTESIAN_POINT('',(595.13875,-69.37996,105.809235));
#352 = CARTESIAN_POINT('',(597.03705,-68.56624,107.890145));
#353 = CARTESIAN_POINT('',(599.03325,-67.876275,109.84997));
#354 = CARTESIAN_POINT('',(600.8874,-67.219335,111.711135));
#355 = CARTESIAN_POINT('',(603.04935,-66.77448,113.420945));
#356 = CARTESIAN_POINT('',(604.8885,-66.296915,115.045955));
#357 = CARTESIAN_POINT('',(607.0501,-66.04109,116.513135));
#358 = CARTESIAN_POINT('',(609.0624,-65.82364,117.872945));
#359 = CARTESIAN_POINT('',(611.12065,-65.72181,119.102845));
#360 = CARTESIAN_POINT('',(613.21405,-65.732375,120.203275));
#361 = CARTESIAN_POINT('',(581.5406,-68.94082,101.707655));
#362 = CARTESIAN_POINT('',(583.9049,-67.84456,104.25547));
#363 = CARTESIAN_POINT('',(586.31195,-66.863015,106.67094));
#364 = CARTESIAN_POINT('',(588.764,-66.00196,108.9472));
#365 = CARTESIAN_POINT('',(591.22535,-65.256585,111.08152));
#366 = CARTESIAN_POINT('',(593.788,-64.65532,113.06082));
#367 = CARTESIAN_POINT('',(596.2613,-64.150155,114.89748));
#368 = CARTESIAN_POINT('',(598.9164,-63.81738,116.56463));
#369 = CARTESIAN_POINT('',(601.45765,-63.577645,118.085415));
#370 = CARTESIAN_POINT('',(604.1121,-63.49584,119.43807));
#371 = CARTESIAN_POINT('',(606.7698,-63.54152,120.631065));
#372 = CARTESIAN_POINT('',(609.43685,-63.717445,121.662985));
#373 = CARTESIAN_POINT('',(571.665,-66.65876,102.101025));
#374 = CARTESIAN_POINT('',(574.56105,-65.435145,104.929685));
#375 = CARTESIAN_POINT('',(577.5074,-64.35005,107.597875));
#376 = CARTESIAN_POINT('',(580.5201,-63.417055,110.09538));
#377 = CARTESIAN_POINT('',(583.5002,-62.60283,112.42649));
#378 = CARTESIAN_POINT('',(586.7065,-62.01496,114.5555));
#379 = CARTESIAN_POINT('',(589.6353,-61.4589,116.533975));
#380 = CARTESIAN_POINT('',(592.98225,-61.212785,118.27984));
#381 = CARTESIAN_POINT('',(596.03185,-60.996225,119.870095));
#382 = CARTESIAN_POINT('',(599.29505,-61.013915,121.245045));
#383 = CARTESIAN_POINT('',(602.5571,-61.181885,122.427225));
#384 = CARTESIAN_POINT('',(605.81905,-61.50206,123.41541));
#385 = CARTESIAN_POINT('',(561.7727,-64.423295,102.510105));
#386 = CARTESIAN_POINT('',(565.2299,-63.05569,105.64289));
#387 = CARTESIAN_POINT('',(568.75095,-61.852785,108.586365));
#388 = CARTESIAN_POINT('',(572.3127,-60.81507,111.33303));
#389 = CARTESIAN_POINT('',(575.97965,-59.969745,113.86887));
#390 = CARTESIAN_POINT('',(579.56125,-59.262035,116.203555));
#391 = CARTESIAN_POINT('',(583.4149,-58.810885,118.298785));
#392 = CARTESIAN_POINT('',(587.0261,-58.455425,120.19703));
#393 = CARTESIAN_POINT('',(590.93335,-58.371175,121.84464));
#394 = CARTESIAN_POINT('',(594.72285,-58.427665,123.27757));
#395 = CARTESIAN_POINT('',(598.5764,-58.684655,124.476945));
#396 = CARTESIAN_POINT('',(602.47415,-59.136935,125.4434));
#397 = CARTESIAN_POINT('',(551.8699,-62.23653,102.934505));
#398 = CARTESIAN_POINT('',(555.8954,-60.70044,106.396575));
#399 = CARTESIAN_POINT('',(559.995,-59.354155,109.64083));
#400 = CARTESIAN_POINT('',(564.1349,-58.19431,112.65971));
#401 = CARTESIAN_POINT('',(568.42025,-57.269035,115.43258));
#402 = CARTESIAN_POINT('',(572.5497,-56.470305,117.982475));
#403 = CARTESIAN_POINT('',(577.0858,-56.019015,120.24328));
#404 = CARTESIAN_POINT('',(581.2366,-55.616395,122.293525));
#405 = CARTESIAN_POINT('',(585.80965,-55.575555,124.042675));
#406 = CARTESIAN_POINT('',(590.2134,-55.672495,125.55102));
#407 = CARTESIAN_POINT('',(594.69055,-56.00209,126.79035));
#408 = CARTESIAN_POINT('',(599.2242,-56.55972,127.76091));
#409 = CARTESIAN_POINT('',(541.95825,-60.099105,103.3743));
#410 = CARTESIAN_POINT('',(546.5537,-58.36772,107.190955));
#411 = CARTESIAN_POINT('',(551.22695,-56.84868,110.76206));
#412 = CARTESIAN_POINT('',(555.991,-55.557135,114.07349));
#413 = CARTESIAN_POINT('',(560.74585,-54.466835,117.125185));
#414 = CARTESIAN_POINT('',(565.74875,-53.67542,119.880355));
#415 = CARTESIAN_POINT('',(570.4886,-53.01169,122.38423));
#416 = CARTESIAN_POINT('',(575.68235,-52.72893,124.557115));
#417 = CARTESIAN_POINT('',(580.56925,-52.56804,126.47173));
#418 = CARTESIAN_POINT('',(585.71455,-52.72714,128.06706));
#419 = CARTESIAN_POINT('',(590.86305,-53.12041,129.366545));
#420 = CARTESIAN_POINT('',(596.02205,-53.751815,130.367865));
#421 = CARTESIAN_POINT('',(532.0298,-58.007875,103.830675));
#422 = CARTESIAN_POINT('',(537.22815,-56.06655,108.023125));
#423 = CARTESIAN_POINT('',(542.51355,-54.36204,111.9417));
#424 = CARTESIAN_POINT('',(547.8974,-52.911175,115.570685));
#425 = CARTESIAN_POINT('',(553.28235,-51.685295,118.90977));
#426 = CARTESIAN_POINT('',(558.9144,-50.790895,121.91878));
#427 = CARTESIAN_POINT('',(564.30595,-50.043295,124.645805));
#428 = CARTESIAN_POINT('',(570.13615,-49.713995,127.00636));
#429 = CARTESIAN_POINT('',(575.6899,-49.528746,129.07567));
#430 = CARTESIAN_POINT('',(581.4855,-49.692707,130.791615));
#431 = CARTESIAN_POINT('',(587.29655,-50.120465,132.17673));
#432 = CARTESIAN_POINT('',(593.1257,-50.81508,133.22883));
#433 = CARTESIAN_POINT('',(522.08525,-55.96263,104.303995));
#434 = CARTESIAN_POINT('',(527.918,-53.79765,108.892525));
#435 = CARTESIAN_POINT('',(533.85385,-51.896645,113.178045));
#436 = CARTESIAN_POINT('',(539.8418,-50.25435,117.15022));
#437 = CARTESIAN_POINT('',(546.0481,-48.9410495,120.779355));
#438 = CARTESIAN_POINT('',(551.996,-47.7969115,124.100015));
#439 = CARTESIAN_POINT('',(558.58305,-47.1492395,127.014885));
#440 = CARTESIAN_POINT('',(564.5441,-46.552585,129.64183));
#441 = CARTESIAN_POINT('',(571.1778,-46.476327,131.844545));
#442 = CARTESIAN_POINT('',(577.5186,-46.5788095,133.716305));
#443 = CARTESIAN_POINT('',(583.97475,-47.0083435,135.212755));
#444 = CARTESIAN_POINT('',(590.51905,-47.757649,136.33446));
#445 = CARTESIAN_POINT('',(512.13955,-53.968635,104.79309));
#446 = CARTESIAN_POINT('',(518.5819,-51.546335,109.80288));
#447 = CARTESIAN_POINT('',(525.12975,-49.410099,114.48207));
#448 = CARTESIAN_POINT('',(531.7894,-47.576442,118.812945));
#449 = CARTESIAN_POINT('',(538.47685,-46.0276265,122.789535));
#450 = CARTESIAN_POINT('',(545.3962,-44.8468135,126.37756));
#451 = CARTESIAN_POINT('',(552.1425,-43.8981805,129.609425));
#452 = CARTESIAN_POINT('',(559.2695,-43.385508,132.418365));
#453 = CARTESIAN_POINT('',(566.202,-43.1100625,134.85817));
#454 = CARTESIAN_POINT('',(573.34595,-43.2194265,136.88166));
#455 = CARTESIAN_POINT('',(580.5241,-43.654205,138.50389));
#456 = CARTESIAN_POINT('',(587.73135,-44.414543,139.723265));
#457 = CARTESIAN_POINT('',(502.17505,-52.019095,105.30032));
#458 = CARTESIAN_POINT('',(509.27085,-49.331874,110.74802));
#459 = CARTESIAN_POINT('',(516.48315,-46.9559135,115.836605));
#460 = CARTESIAN_POINT('',(523.79915,-44.9021815,120.548855));
#461 = CARTESIAN_POINT('',(531.2132,-43.1819175,124.86927));
#462 = CARTESIAN_POINT('',(538.71425,-41.802396,128.785335));
#463 = CARTESIAN_POINT('',(546.30385,-40.773341,132.28552));
#464 = CARTESIAN_POINT('',(553.97505,-40.0997685,135.361395));
#465 = CARTESIAN_POINT('',(561.7178,-39.7838925,138.006945));
#466 = CARTESIAN_POINT('',(569.53695,-39.831807,140.216405));
#467 = CARTESIAN_POINT('',(577.4154,-40.2407445,141.9879));
#468 = CARTESIAN_POINT('',(585.3472,-41.0107945,143.31979));
#469 = CARTESIAN_POINT('',(492.204775,-50.118275,105.824885));
#470 = CARTESIAN_POINT('',(499.949145,-47.1423735,111.730655));
#471 = CARTESIAN_POINT('',(507.819,-44.502276,117.248955));
#472 = CARTESIAN_POINT('',(515.8013,-42.209978,122.3612));
#473 = CARTESIAN_POINT('',(523.88715,-40.2766675,127.05095));
#474 = CARTESIAN_POINT('',(532.07045,-38.7122115,131.304065));
#475 = CARTESIAN_POINT('',(540.34625,-37.524811,135.108805));
#476 = CARTESIAN_POINT('',(548.70975,-36.7207975,138.455795));
#477 = CARTESIAN_POINT('',(557.1556,-36.304552,141.337925));
#478 = CARTESIAN_POINT('',(565.6773,-36.2785285,143.75021));
#479 = CARTESIAN_POINT('',(574.2668,-36.643359,145.68955));
#480 = CARTESIAN_POINT('',(582.9145,-37.398023,147.15452));
#481 = DEFINITIONAL_REPRESENTATION('',(#482),#488);
#482 = B_SPLINE_CURVE_WITH_KNOTS('',4,(#483,#484,#485,#486,#487),
  .UNSPECIFIED.,.F.,.F.,(5,5),(0.,1.),.PIECEWISE_BEZIER_KNOTS.);
#483 = CARTESIAN_POINT('',(0.97618952,2.3810476E-02));
#484 = CARTESIAN_POINT('',(0.738093725257,2.3810476E-02));
#485 = CARTESIAN_POINT('',(0.500002447057,2.3810476E-02));
#486 = CARTESIAN_POINT('',(0.2619042301,2.3810476E-02));
#487 = CARTESIAN_POINT('',(2.3810476E-02,2.3810476E-02));
#488 = ( GEOMETRIC_REPRESENTATION_CONTEXT(2) 
PARAMETRIC_REPRESENTATION_CONTEXT() REPRESENTATION_CONTEXT('2D SPACE',''
  ) );
#489 = ORIENTED_EDGE('',*,*,#490,.T.);
#490 = EDGE_CURVE('',#282,#491,#493,.T.);
#491 = VERTEX_POINT('',#492);
#492 = CARTESIAN_POINT('',(627.4689,-80.022985,90.));
#493 = SURFACE_CURVE('',#494,(#497),.PCURVE_S1.);
#494 = B_SPLINE_CURVE_WITH_KNOTS('',1,(#495,#496),.UNSPECIFIED.,.F.,.F.,
  (2,2),(0.,1.),.PIECEWISE_BEZIER_KNOTS.);
#495 = CARTESIAN_POINT('',(627.4689,-80.022985,100.48458));
#496 = CARTESIAN_POINT('',(627.4689,-80.022985,90.));
#497 = PCURVE('',#220,#498);
#498 = DEFINITIONAL_REPRESENTATION('',(#499),#502);
#499 = B_SPLINE_CURVE_WITH_KNOTS('',1,(#500,#501),.UNSPECIFIED.,.F.,.F.,
  (2,2),(0.,1.),.PIECEWISE_BEZIER_KNOTS.);
#500 = CARTESIAN_POINT('',(0.97618952,2.3810476E-02));
#501 = CARTESIAN_POINT('',(0.97618952,0.97618952));
#502 = ( GEOMETRIC_REPRESENTATION_CONTEXT(2) 
PARAMETRIC_REPRESENTATION_CONTEXT() REPRESENTATION_CONTEXT('2D SPACE',''
  ) );
#503 = ORIENTED_EDGE('',*,*,#504,.F.);
#504 = EDGE_CURVE('',#207,#491,#505,.T.);
#505 = SURFACE_CURVE('',#506,(#511),.PCURVE_S1.);
#506 = B_SPLINE_CURVE_WITH_KNOTS('',3,(#507,#508,#509,#510),
  .UNSPECIFIED.,.F.,.F.,(4,4),(0.,1.),.PIECEWISE_BEZIER_KNOTS.);
#507 = CARTESIAN_POINT('',(497.50351,-50.010115,90.));
#508 = CARTESIAN_POINT('',(541.04995,-58.84932,90.));
#509 = CARTESIAN_POINT('',(584.3989,-68.857835,90.));
#510 = CARTESIAN_POINT('',(627.4689,-80.022985,90.));
#511 = PCURVE('',#220,#512);
#512 = DEFINITIONAL_REPRESENTATION('',(#513),#519);
#513 = B_SPLINE_CURVE_WITH_KNOTS('',4,(#514,#515,#516,#517,#518),
  .UNSPECIFIED.,.F.,.F.,(5,5),(0.,1.),.PIECEWISE_BEZIER_KNOTS.);
#514 = CARTESIAN_POINT('',(2.3810476E-02,0.97618952));
#515 = CARTESIAN_POINT('',(0.261905178589,0.97618952));
#516 = CARTESIAN_POINT('',(0.499998710228,0.97618952));
#517 = CARTESIAN_POINT('',(0.738095095085,0.97618952));
#518 = CARTESIAN_POINT('',(0.97618952,0.97618952));
#519 = ( GEOMETRIC_REPRESENTATION_CONTEXT(2) 
PARAMETRIC_REPRESENTATION_CONTEXT() REPRESENTATION_CONTEXT('2D SPACE',''
  ) );
#520 = ADVANCED_FACE('',(#521),#74,.T.);
#521 = FACE_BOUND('',#522,.T.);
#522 = EDGE_LOOP('',(#523,#694,#695,#713));
#523 = ORIENTED_EDGE('',*,*,#524,.T.);
#524 = EDGE_CURVE('',#525,#53,#527,.T.);
#525 = VERTEX_POINT('',#526);
#526 = CARTESIAN_POINT('',(557.8192,31.2301805,161.420185));
#527 = SURFACE_CURVE('',#528,(#541,#557),.PCURVE_S1.);
#528 = B_SPLINE_CURVE_WITH_KNOTS('',11,(#529,#530,#531,#532,#533,#534,
    #535,#536,#537,#538,#539,#540),.UNSPECIFIED.,.F.,.F.,(12,12),(0.,
    22.964001224446),.PIECEWISE_BEZIER_KNOTS.);
#529 = CARTESIAN_POINT('',(557.81919910751,31.230179308698,
    161.42018774209));
#530 = CARTESIAN_POINT('',(552.3508605733,23.864594708503,156.440391245)
  );
#531 = CARTESIAN_POINT('',(546.88797864261,16.499275414089,
    151.45435987934));
#532 = CARTESIAN_POINT('',(541.42945842279,9.131117496695,146.4677222561
    ));
#533 = CARTESIAN_POINT('',(535.97297688189,1.757638331205,
    141.48648725669));
#534 = CARTESIAN_POINT('',(530.51535731351,-5.623301984915,
    136.51677396411));
#535 = CARTESIAN_POINT('',(525.0512501372,-13.01183222762,
    131.56500584336));
#536 = CARTESIAN_POINT('',(519.57870946407,-20.40660158388,
    126.63137951104));
#537 = CARTESIAN_POINT('',(514.09118023526,-27.80716930857,
    121.72271349575));
#538 = CARTESIAN_POINT('',(508.58444400006,-35.2101407573,
    116.83995188778));
#539 = CARTESIAN_POINT('',(503.05565401468,-42.61223245032,
    111.98212231962));
#540 = CARTESIAN_POINT('',(497.50351648424,-50.01010879879,
    107.14618079315));
#541 = PCURVE('',#74,#542);
#542 = DEFINITIONAL_REPRESENTATION('',(#543),#556);
#543 = B_SPLINE_CURVE_WITH_KNOTS('',11,(#544,#545,#546,#547,#548,#549,
    #550,#551,#552,#553,#554,#555),.UNSPECIFIED.,.F.,.F.,(12,12),(0.,
    22.964001224446),.PIECEWISE_BEZIER_KNOTS.);
#544 = CARTESIAN_POINT('',(0.27625136461,0.593231186959));
#545 = CARTESIAN_POINT('',(0.344053732949,0.543907530473));
#546 = CARTESIAN_POINT('',(0.410966655826,0.493704807267));
#547 = CARTESIAN_POINT('',(0.476971523575,0.4427454417));
#548 = CARTESIAN_POINT('',(0.542059052003,0.391158509556));
#549 = CARTESIAN_POINT('',(0.606240082855,0.339080972434));
#550 = CARTESIAN_POINT('',(0.669545449591,0.286647894415));
#551 = CARTESIAN_POINT('',(0.732116112989,0.23398536681));
#552 = CARTESIAN_POINT('',(0.793945039805,0.181246529896));
#553 = CARTESIAN_POINT('',(0.855161864571,0.128549581349));
#554 = CARTESIAN_POINT('',(0.915869560099,7.603032834249E-02));
#555 = CARTESIAN_POINT('',(0.976187625486,2.381070582252E-02));
#556 = ( GEOMETRIC_REPRESENTATION_CONTEXT(2) 
PARAMETRIC_REPRESENTATION_CONTEXT() REPRESENTATION_CONTEXT('2D SPACE',''
  ) );
#557 = PCURVE('',#558,#679);
#558 = B_SPLINE_SURFACE_WITH_KNOTS('',9,11,(
    (#559,#560,#561,#562,#563,#564,#565,#566,#567,#568,#569,#570)
    ,(#571,#572,#573,#574,#575,#576,#577,#578,#579,#580,#581,#582)
    ,(#583,#584,#585,#586,#587,#588,#589,#590,#591,#592,#593,#594)
    ,(#595,#596,#597,#598,#599,#600,#601,#602,#603,#604,#605,#606)
    ,(#607,#608,#609,#610,#611,#612,#613,#614,#615,#616,#617,#618)
    ,(#619,#620,#621,#622,#623,#624,#625,#626,#627,#628,#629,#630)
    ,(#631,#632,#633,#634,#635,#636,#637,#638,#639,#640,#641,#642)
    ,(#643,#644,#645,#646,#647,#648,#649,#650,#651,#652,#653,#654)
    ,(#655,#656,#657,#658,#659,#660,#661,#662,#663,#664,#665,#666)
    ,(#667,#668,#669,#670,#671,#672,#673,#674,#675,#676,#677,#678
  )),.UNSPECIFIED.,.F.,.F.,.F.,(10,10),(12,12),(0.,1.),(0.,1.),
  .PIECEWISE_BEZIER_KNOTS.);
#559 = CARTESIAN_POINT('',(579.99845,-75.4316,139.25893));
#560 = CARTESIAN_POINT('',(582.2201,-59.569405,141.417505));
#561 = CARTESIAN_POINT('',(583.8502,-43.720556,144.22607));
#562 = CARTESIAN_POINT('',(584.92805,-27.872922,147.68758));
#563 = CARTESIAN_POINT('',(585.27925,-12.0827695,151.84741));
#564 = CARTESIAN_POINT('',(585.45815,3.7711921,156.62323));
#565 = CARTESIAN_POINT('',(584.4102,19.519993,162.23315));
#566 = CARTESIAN_POINT('',(583.40385,35.302152,168.469175));
#567 = CARTESIAN_POINT('',(581.49235,51.05731,175.585925));
#568 = CARTESIAN_POINT('',(579.15825,66.795495,183.542115));
#569 = CARTESIAN_POINT('',(576.261,82.523105,192.482175));
#570 = CARTESIAN_POINT('',(572.84765,98.235575,202.541265));
#571 = CARTESIAN_POINT('',(569.9393,-72.79746,137.633355));
#572 = CARTESIAN_POINT('',(572.09315,-57.14719,139.880015));
#573 = CARTESIAN_POINT('',(573.66235,-41.514626,142.75874));
#574 = CARTESIAN_POINT('',(574.688,-25.8835205,146.271875));
#575 = CARTESIAN_POINT('',(574.9865,-10.3212685,150.46374));
#576 = CARTESIAN_POINT('',(575.15145,5.3262595,155.247515));
#577 = CARTESIAN_POINT('',(574.03335,20.8375075,160.85516));
#578 = CARTESIAN_POINT('',(573.0454,36.4122885,167.0495));
#579 = CARTESIAN_POINT('',(571.1086,51.94744,174.116025));
#580 = CARTESIAN_POINT('',(568.7765,67.47272,181.99059));
#581 = CARTESIAN_POINT('',(565.8867,82.99152,190.825835));
#582 = CARTESIAN_POINT('',(562.49125,98.50078,200.753905));
#583 = CARTESIAN_POINT('',(559.9643,-70.191365,135.445005));
#584 = CARTESIAN_POINT('',(562.05235,-54.72651,137.77871));
#585 = CARTESIAN_POINT('',(563.5632,-39.2826815,140.727765));
#586 = CARTESIAN_POINT('',(564.53235,-23.843331,144.29548));
#587 = CARTESIAN_POINT('',(564.8009,-8.472062,148.51845));
#588 = CARTESIAN_POINT('',(564.9074,6.9801725,153.32237));
#589 = CARTESIAN_POINT('',(563.77275,22.304531,158.92706));
#590 = CARTESIAN_POINT('',(562.7661,37.6799345,165.09163));
#591 = CARTESIAN_POINT('',(560.8219,53.039765,172.11823));
#592 = CARTESIAN_POINT('',(558.4852,68.37354,179.922855));
#593 = CARTESIAN_POINT('',(555.6024,83.71412,188.66797));
#594 = CARTESIAN_POINT('',(552.2233,99.04914,198.48173));
#595 = CARTESIAN_POINT('',(550.1072,-67.62224,132.69919));
#596 = CARTESIAN_POINT('',(552.1318,-52.315485,135.11865));
#597 = CARTESIAN_POINT('',(553.58725,-37.0349645,138.136915));
#598 = CARTESIAN_POINT('',(554.4951,-21.745128,141.76677));
#599 = CARTESIAN_POINT('',(554.76215,-6.581566,146.005615));
#600 = CARTESIAN_POINT('',(554.74905,8.8022255,150.86986));
#601 = CARTESIAN_POINT('',(553.6755,23.8227585,156.433305));
#602 = CARTESIAN_POINT('',(552.5949,39.1816305,162.615805));
#603 = CARTESIAN_POINT('',(550.6691,54.286095,169.58906));
#604 = CARTESIAN_POINT('',(548.31685,69.509145,177.346755));
#605 = CARTESIAN_POINT('',(545.44355,84.691025,186.01433));
#606 = CARTESIAN_POINT('',(542.0788,99.88021,195.73072));
#607 = CARTESIAN_POINT('',(540.4012,-65.09882,129.40388));
#608 = CARTESIAN_POINT('',(542.365,-49.922341,131.90742));
#609 = CARTESIAN_POINT('',(543.76505,-34.7685355,134.99778));
#610 = CARTESIAN_POINT('',(544.6226,-19.644742,138.67778));
#611 = CARTESIAN_POINT('',(544.87245,-4.5183603,142.96787));
#612 = CARTESIAN_POINT('',(544.741,10.5478985,147.85082));
#613 = CARTESIAN_POINT('',(543.77085,25.676132,153.42516));
#614 = CARTESIAN_POINT('',(542.5622,40.672501,159.595735));
#615 = CARTESIAN_POINT('',(540.68395,55.82132,166.556785));
#616 = CARTESIAN_POINT('',(538.3138,70.835365,174.26211));
#617 = CARTESIAN_POINT('',(535.4427,85.914055,182.871645));
#618 = CARTESIAN_POINT('',(532.0922,100.991235,192.508845));
#619 = CARTESIAN_POINT('',(530.8789,-62.62967,125.56959));
#620 = CARTESIAN_POINT('',(532.7847,-47.5551645,128.15524));
#621 = CARTESIAN_POINT('',(534.1337,-32.5115395,131.31307));
#622 = CARTESIAN_POINT('',(534.94745,-17.4622215,135.056155));
#623 = CARTESIAN_POINT('',(535.1417,-2.52745175,139.37874));
#624 = CARTESIAN_POINT('',(535.0061,12.6016525,144.309055));
#625 = CARTESIAN_POINT('',(533.97355,27.390795,149.877115));
#626 = CARTESIAN_POINT('',(532.773,42.5457755,156.07746));
#627 = CARTESIAN_POINT('',(530.88905,57.393095,162.998545));
#628 = CARTESIAN_POINT('',(528.49025,72.4191,170.691875));
#629 = CARTESIAN_POINT('',(525.63715,87.390265,179.251885));
#630 = CARTESIAN_POINT('',(522.29735,102.378575,188.82629));
#631 = CARTESIAN_POINT('',(521.572,-60.22313,121.209265));
#632 = CARTESIAN_POINT('',(523.42275,-45.2218265,123.87486));
#633 = CARTESIAN_POINT('',(524.72055,-30.24591,127.10412));
#634 = CARTESIAN_POINT('',(525.49255,-15.3033495,130.898595));
#635 = CARTESIAN_POINT('',(525.6522,-0.34720907,135.28106));
#636 = CARTESIAN_POINT('',(525.46555,14.5247705,140.229365));
#637 = CARTESIAN_POINT('',(524.42505,29.496046,145.839205));
#638 = CARTESIAN_POINT('',(523.23515,44.32987,152.02752));
#639 = CARTESIAN_POINT('',(521.27355,59.291925,158.969015));
#640 = CARTESIAN_POINT('',(518.9212,74.177025,166.631055));
#641 = CARTESIAN_POINT('',(516.05715,89.098685,175.16388));
#642 = CARTESIAN_POINT('',(512.72755,104.03824,184.69551));
#643 = CARTESIAN_POINT('',(512.5114,-57.88732,116.338115));
#644 = CARTESIAN_POINT('',(514.31005,-42.9300065,119.081405));
#645 = CARTESIAN_POINT('',(515.5644,-28.0018935,122.377235));
#646 = CARTESIAN_POINT('',(516.27915,-13.091175,126.236115));
#647 = CARTESIAN_POINT('',(516.45065,1.78851525,130.654405));
#648 = CARTESIAN_POINT('',(516.1335,16.6724835,135.66471));
#649 = CARTESIAN_POINT('',(515.21235,31.538243,141.27468));
#650 = CARTESIAN_POINT('',(513.8713,46.3948995,147.5107));
#651 = CARTESIAN_POINT('',(511.9786,61.28515,154.44074));
#652 = CARTESIAN_POINT('',(509.592,76.150225,162.10699));
#653 = CARTESIAN_POINT('',(506.7367,91.049165,170.625385));
#654 = CARTESIAN_POINT('',(503.4152,105.96566,180.13109));
#655 = CARTESIAN_POINT('',(503.72705,-55.630125,110.97346));
#656 = CARTESIAN_POINT('',(505.47665,-40.6873575,113.79206));
#657 = CARTESIAN_POINT('',(506.6872,-25.7733615,117.155575));
#658 = CARTESIAN_POINT('',(507.3639,-10.880181,121.07131));
#659 = CARTESIAN_POINT('',(507.50495,3.9924048,125.54538));
#660 = CARTESIAN_POINT('',(507.14445,18.860147,130.596));
#661 = CARTESIAN_POINT('',(506.2269,33.716768,136.24117));
#662 = CARTESIAN_POINT('',(504.85105,48.5777415,142.50908));
#663 = CARTESIAN_POINT('',(502.9463,63.450715,149.452765));
#664 = CARTESIAN_POINT('',(500.5631,78.3281,157.13192));
#665 = CARTESIAN_POINT('',(497.70708,93.23,165.65128));
#666 = CARTESIAN_POINT('',(494.391285,108.154645,175.149405));
#667 = CARTESIAN_POINT('',(495.247935,-53.459175,105.13454));
#668 = CARTESIAN_POINT('',(496.951955,-38.501803,108.025615));
#669 = CARTESIAN_POINT('',(498.121915,-23.5723165,111.455445));
#670 = CARTESIAN_POINT('',(498.761915,-8.6643685,115.43003));
#671 = CARTESIAN_POINT('',(498.87737,6.2285005,119.95914));
#672 = CARTESIAN_POINT('',(498.47484,21.1128495,125.05678));
#673 = CARTESIAN_POINT('',(497.56197,35.995279,130.74327));
#674 = CARTESIAN_POINT('',(496.14744,50.882325,137.04897));
#675 = CARTESIAN_POINT('',(494.240985,65.780305,144.01965));
#676 = CARTESIAN_POINT('',(491.853465,80.695135,151.72345));
#677 = CARTESIAN_POINT('',(488.997,95.632085,160.25949));
#678 = CARTESIAN_POINT('',(485.68513,110.595485,169.768115));
#679 = DEFINITIONAL_REPRESENTATION('',(#680),#693);
#680 = B_SPLINE_CURVE_WITH_KNOTS('',11,(#681,#682,#683,#684,#685,#686,
    #687,#688,#689,#690,#691,#692),.UNSPECIFIED.,.F.,.F.,(12,12),(0.,
    22.964001224446),.PIECEWISE_BEZIER_KNOTS.);
#681 = CARTESIAN_POINT('',(0.27625136461,0.593231186959));
#682 = CARTESIAN_POINT('',(0.344053732949,0.543907530473));
#683 = CARTESIAN_POINT('',(0.410966655826,0.493704807267));
#684 = CARTESIAN_POINT('',(0.476971523575,0.4427454417));
#685 = CARTESIAN_POINT('',(0.542059052003,0.391158509556));
#686 = CARTESIAN_POINT('',(0.606240082855,0.339080972434));
#687 = CARTESIAN_POINT('',(0.669545449591,0.286647894415));
#688 = CARTESIAN_POINT('',(0.732116112989,0.23398536681));
#689 = CARTESIAN_POINT('',(0.793945039805,0.181246529896));
#690 = CARTESIAN_POINT('',(0.855161864571,0.128549581349));
#691 = CARTESIAN_POINT('',(0.915869560099,7.603032834249E-02));
#692 = CARTESIAN_POINT('',(0.976187625486,2.381070582252E-02));
#693 = ( GEOMETRIC_REPRESENTATION_CONTEXT(2) 
PARAMETRIC_REPRESENTATION_CONTEXT() REPRESENTATION_CONTEXT('2D SPACE',''
  ) );
#694 = ORIENTED_EDGE('',*,*,#52,.F.);
#695 = ORIENTED_EDGE('',*,*,#696,.T.);
#696 = EDGE_CURVE('',#22,#697,#699,.T.);
#697 = VERTEX_POINT('',#698);
#698 = CARTESIAN_POINT('',(518.54455,86.43454,174.550665));
#699 = SURFACE_CURVE('',#700,(#705),.PCURVE_S1.);
#700 = B_SPLINE_CURVE_WITH_KNOTS('',3,(#701,#702,#703,#704),
  .UNSPECIFIED.,.F.,.F.,(4,4),(0.,1.),.PIECEWISE_BEZIER_KNOTS.);
#701 = CARTESIAN_POINT('',(488.41082,106.161175,168.453295));
#702 = CARTESIAN_POINT('',(498.174405,98.88206,170.67896));
#703 = CARTESIAN_POINT('',(508.24595,92.26182,172.724495));
#704 = CARTESIAN_POINT('',(518.54455,86.43454,174.550665));
#705 = PCURVE('',#74,#706);
#706 = DEFINITIONAL_REPRESENTATION('',(#707),#712);
#707 = B_SPLINE_CURVE_WITH_KNOTS('',3,(#708,#709,#710,#711),
  .UNSPECIFIED.,.F.,.F.,(4,4),(0.,1.),.PIECEWISE_BEZIER_KNOTS.);
#708 = CARTESIAN_POINT('',(0.97618764,0.97618933));
#709 = CARTESIAN_POINT('',(0.86578522024,0.946330477679));
#710 = CARTESIAN_POINT('',(0.75503946243,0.918355769497));
#711 = CARTESIAN_POINT('',(0.64369944,0.89363739));
#712 = ( GEOMETRIC_REPRESENTATION_CONTEXT(2) 
PARAMETRIC_REPRESENTATION_CONTEXT() REPRESENTATION_CONTEXT('2D SPACE',''
  ) );
#713 = ORIENTED_EDGE('',*,*,#714,.T.);
#714 = EDGE_CURVE('',#697,#525,#715,.T.);
#715 = SURFACE_CURVE('',#716,(#722),.PCURVE_S1.);
#716 = B_SPLINE_CURVE_WITH_KNOTS('',4,(#717,#718,#719,#720,#721),
  .UNSPECIFIED.,.F.,.F.,(5,5),(0.,1.),.PIECEWISE_BEZIER_KNOTS.);
#717 = CARTESIAN_POINT('',(518.54455,86.43454,174.550665));
#718 = CARTESIAN_POINT('',(529.48795,72.42297,171.1934));
#719 = CARTESIAN_POINT('',(539.8107,58.656865,167.90636));
#720 = CARTESIAN_POINT('',(549.4207,44.9609745,164.65206));
#721 = CARTESIAN_POINT('',(557.8192,31.2301805,161.420185));
#722 = PCURVE('',#74,#723);
#723 = DEFINITIONAL_REPRESENTATION('',(#724),#731);
#724 = B_SPLINE_CURVE_WITH_KNOTS('',5,(#725,#726,#727,#728,#729,#730),
  .UNSPECIFIED.,.F.,.F.,(6,6),(0.,1.),.PIECEWISE_BEZIER_KNOTS.);
#725 = CARTESIAN_POINT('',(0.64369944,0.89363739));
#726 = CARTESIAN_POINT('',(0.563342747638,0.833250711244));
#727 = CARTESIAN_POINT('',(0.486097383732,0.773011744683));
#728 = CARTESIAN_POINT('',(0.411853018758,0.712927092785));
#729 = CARTESIAN_POINT('',(0.341244520778,0.653094637583));
#730 = CARTESIAN_POINT('',(0.27625208,0.59323179));
#731 = ( GEOMETRIC_REPRESENTATION_CONTEXT(2) 
PARAMETRIC_REPRESENTATION_CONTEXT() REPRESENTATION_CONTEXT('2D SPACE',''
  ) );
#732 = ADVANCED_FACE('',(#733),#558,.T.);
#733 = FACE_BOUND('',#734,.T.);
#734 = EDGE_LOOP('',(#735,#736,#759));
#735 = ORIENTED_EDGE('',*,*,#524,.F.);
#736 = ORIENTED_EDGE('',*,*,#737,.T.);
#737 = EDGE_CURVE('',#525,#738,#740,.T.);
#738 = VERTEX_POINT('',#739);
#739 = CARTESIAN_POINT('',(581.5239,-38.405228,145.50165));
#740 = SURFACE_CURVE('',#741,(#748),.PCURVE_S1.);
#741 = B_SPLINE_CURVE_WITH_KNOTS('',5,(#742,#743,#744,#745,#746,#747),
  .UNSPECIFIED.,.F.,.F.,(6,6),(0.,1.),.PIECEWISE_BEZIER_KNOTS.);
#742 = CARTESIAN_POINT('',(557.8192,31.2301805,161.420185));
#743 = CARTESIAN_POINT('',(566.18675,17.550091,158.20025));
#744 = CARTESIAN_POINT('',(573.38715,3.83486535,155.00277));
#745 = CARTESIAN_POINT('',(579.1336,-9.9872045,151.816275));
#746 = CARTESIAN_POINT('',(582.00005,-24.033931,148.6529));
#747 = CARTESIAN_POINT('',(581.5239,-38.405228,145.50165));
#748 = PCURVE('',#558,#749);
#749 = DEFINITIONAL_REPRESENTATION('',(#750),#758);
#750 = B_SPLINE_CURVE_WITH_KNOTS('',6,(#751,#752,#753,#754,#755,#756,
    #757),.UNSPECIFIED.,.F.,.F.,(7,7),(0.,1.),.PIECEWISE_BEZIER_KNOTS.);
#751 = CARTESIAN_POINT('',(0.27625208,0.59323179));
#752 = CARTESIAN_POINT('',(0.208801496455,0.531104806038));
#753 = CARTESIAN_POINT('',(0.147207651327,0.468990027317));
#754 = CARTESIAN_POINT('',(9.351757997712E-02,0.406518080038));
#755 = CARTESIAN_POINT('',(5.11668635907E-02,0.343540143735));
#756 = CARTESIAN_POINT('',(2.759130099481E-02,0.278294319322));
#757 = CARTESIAN_POINT('',(2.3812361E-02,0.20975384));
#758 = ( GEOMETRIC_REPRESENTATION_CONTEXT(2) 
PARAMETRIC_REPRESENTATION_CONTEXT() REPRESENTATION_CONTEXT('2D SPACE',''
  ) );
#759 = ORIENTED_EDGE('',*,*,#760,.F.);
#760 = EDGE_CURVE('',#53,#738,#761,.T.);
#761 = SURFACE_CURVE('',#762,(#769,#789),.PCURVE_S1.);
#762 = B_SPLINE_CURVE_WITH_KNOTS('',5,(#763,#764,#765,#766,#767,#768),
  .UNSPECIFIED.,.F.,.F.,(6,6),(0.,1.),.PIECEWISE_BEZIER_KNOTS.);
#763 = CARTESIAN_POINT('',(497.50351,-50.010115,107.14618));
#764 = CARTESIAN_POINT('',(513.33715,-44.138192,119.01281));
#765 = CARTESIAN_POINT('',(529.76675,-39.9121905,128.97503));
#766 = CARTESIAN_POINT('',(546.6329,-37.5025075,136.776285));
#767 = CARTESIAN_POINT('',(563.9337,-37.0054165,142.29224));
#768 = CARTESIAN_POINT('',(581.5239,-38.405228,145.50165));
#769 = PCURVE('',#558,#770);
#770 = DEFINITIONAL_REPRESENTATION('',(#771),#788);
#771 = B_SPLINE_CURVE_WITH_KNOTS('',8,(#772,#773,#774,#775,#776,#777,
    #778,#779,#780,#781,#782,#783,#784,#785,#786,#787),.UNSPECIFIED.,.F.
  ,.F.,(9,7,9),(0.,0.5,1.),.UNSPECIFIED.);
#772 = CARTESIAN_POINT('',(0.97618764,2.3810667E-02));
#773 = CARTESIAN_POINT('',(0.91604279633,4.217835540248E-02));
#774 = CARTESIAN_POINT('',(0.856053076964,5.979443616764E-02));
#775 = CARTESIAN_POINT('',(0.796208320388,7.658270547072E-02));
#776 = CARTESIAN_POINT('',(0.736502448535,9.247338096148E-02));
#777 = CARTESIAN_POINT('',(0.67689994113,0.107411006142));
#778 = CARTESIAN_POINT('',(0.617409365065,0.121340607778));
#779 = CARTESIAN_POINT('',(0.557987125383,0.134228760179));
#780 = CARTESIAN_POINT('',(0.439252530876,0.157862281568));
#781 = CARTESIAN_POINT('',(0.379937370013,0.1686081219));
#782 = CARTESIAN_POINT('',(0.320660628294,0.17825438089));
#783 = CARTESIAN_POINT('',(0.261364806807,0.186787009127));
#784 = CARTESIAN_POINT('',(0.202091298411,0.194192497677));
#785 = CARTESIAN_POINT('',(0.142730472086,0.200482228088));
#786 = CARTESIAN_POINT('',(8.332143270118E-02,0.20566175717));
#787 = CARTESIAN_POINT('',(2.3812361E-02,0.20975384));
#788 = ( GEOMETRIC_REPRESENTATION_CONTEXT(2) 
PARAMETRIC_REPRESENTATION_CONTEXT() REPRESENTATION_CONTEXT('2D SPACE',''
  ) );
#789 = PCURVE('',#300,#790);
#790 = DEFINITIONAL_REPRESENTATION('',(#791),#804);
#791 = B_SPLINE_CURVE_WITH_KNOTS('',11,(#792,#793,#794,#795,#796,#797,
    #798,#799,#800,#801,#802,#803),.UNSPECIFIED.,.F.,.F.,(12,12),(0.,1.)
  ,.PIECEWISE_BEZIER_KNOTS.);
#792 = CARTESIAN_POINT('',(0.97618952,2.3810476E-02));
#793 = CARTESIAN_POINT('',(0.97618952,0.11039045555));
#794 = CARTESIAN_POINT('',(0.97618952,0.196976580989));
#795 = CARTESIAN_POINT('',(0.97618952,0.283507141183));
#796 = CARTESIAN_POINT('',(0.97618952,0.370249744152));
#797 = CARTESIAN_POINT('',(0.97618952,0.456495320979));
#798 = CARTESIAN_POINT('',(0.97618952,0.543558092497));
#799 = CARTESIAN_POINT('',(0.97618952,0.629645882534));
#800 = CARTESIAN_POINT('',(0.97618952,0.716571872619));
#801 = CARTESIAN_POINT('',(0.97618952,0.80298944608));
#802 = CARTESIAN_POINT('',(0.97618952,0.889609646151));
#803 = CARTESIAN_POINT('',(0.97618952,0.97618952));
#804 = ( GEOMETRIC_REPRESENTATION_CONTEXT(2) 
PARAMETRIC_REPRESENTATION_CONTEXT() REPRESENTATION_CONTEXT('2D SPACE',''
  ) );
#805 = ADVANCED_FACE('',(#806),#300,.T.);
#806 = FACE_BOUND('',#807,.T.);
#807 = EDGE_LOOP('',(#808,#840,#841,#842));
#808 = ORIENTED_EDGE('',*,*,#809,.F.);
#809 = EDGE_CURVE('',#282,#810,#812,.T.);
#810 = VERTEX_POINT('',#811);
#811 = CARTESIAN_POINT('',(627.4689,-71.283735,117.105205));
#812 = SURFACE_CURVE('',#813,(#816),.PCURVE_S1.);
#813 = B_SPLINE_CURVE_WITH_KNOTS('',1,(#814,#815),.UNSPECIFIED.,.F.,.F.,
  (2,2),(0.,1.),.PIECEWISE_BEZIER_KNOTS.);
#814 = CARTESIAN_POINT('',(627.4689,-80.022985,100.48458));
#815 = CARTESIAN_POINT('',(627.4689,-71.283735,117.105205));
#816 = PCURVE('',#300,#817);
#817 = DEFINITIONAL_REPRESENTATION('',(#818),#839);
#818 = B_SPLINE_CURVE_WITH_KNOTS('',7,(#819,#820,#821,#822,#823,#824,
    #825,#826,#827,#828,#829,#830,#831,#832,#833,#834,#835,#836,#837,
    #838),.UNSPECIFIED.,.F.,.F.,(8,6,6,8),(0.,0.5,0.75,1.),
  .UNSPECIFIED.);
#819 = CARTESIAN_POINT('',(2.3810476E-02,2.3810476E-02));
#820 = CARTESIAN_POINT('',(2.3810476E-02,9.183782363673E-02));
#821 = CARTESIAN_POINT('',(2.3810476E-02,0.159863201258));
#822 = CARTESIAN_POINT('',(2.3810476E-02,0.227896288015));
#823 = CARTESIAN_POINT('',(2.3810476E-02,0.295916089787));
#824 = CARTESIAN_POINT('',(2.3810476E-02,0.36394853281));
#825 = CARTESIAN_POINT('',(2.3810476E-02,0.431972791394));
#826 = CARTESIAN_POINT('',(2.3810476E-02,0.534013601303));
#827 = CARTESIAN_POINT('',(2.3810476E-02,0.568026637745));
#828 = CARTESIAN_POINT('',(2.3810476E-02,0.602040622126));
#829 = CARTESIAN_POINT('',(2.3810476E-02,0.636054807945));
#830 = CARTESIAN_POINT('',(2.3810476E-02,0.67006795684));
#831 = CARTESIAN_POINT('',(2.3810476E-02,0.704080108019));
#832 = CARTESIAN_POINT('',(2.3810476E-02,0.772108587394));
#833 = CARTESIAN_POINT('',(2.3810476E-02,0.80612287844));
#834 = CARTESIAN_POINT('',(2.3810476E-02,0.840134013435));
#835 = CARTESIAN_POINT('',(2.3810476E-02,0.87414813059));
#836 = CARTESIAN_POINT('',(2.3810476E-02,0.908164305715));
#837 = CARTESIAN_POINT('',(2.3810476E-02,0.942175879487));
#838 = CARTESIAN_POINT('',(2.3810476E-02,0.97618952));
#839 = ( GEOMETRIC_REPRESENTATION_CONTEXT(2) 
PARAMETRIC_REPRESENTATION_CONTEXT() REPRESENTATION_CONTEXT('2D SPACE',''
  ) );
#840 = ORIENTED_EDGE('',*,*,#281,.F.);
#841 = ORIENTED_EDGE('',*,*,#760,.T.);
#842 = ORIENTED_EDGE('',*,*,#843,.F.);
#843 = EDGE_CURVE('',#810,#738,#844,.T.);
#844 = SURFACE_CURVE('',#845,(#852),.PCURVE_S1.);
#845 = B_SPLINE_CURVE_WITH_KNOTS('',5,(#846,#847,#848,#849,#850,#851),
  .UNSPECIFIED.,.F.,.F.,(6,6),(0.,1.),.PIECEWISE_BEZIER_KNOTS.);
#846 = CARTESIAN_POINT('',(627.4689,-71.283735,117.105205));
#847 = CARTESIAN_POINT('',(616.5379,-68.03893,118.098515));
#848 = CARTESIAN_POINT('',(605.78455,-62.85795,121.581855));
#849 = CARTESIAN_POINT('',(596.2193,-56.031785,127.467085));
#850 = CARTESIAN_POINT('',(588.50565,-47.869388,135.562155));
#851 = CARTESIAN_POINT('',(581.5239,-38.405228,145.50165));
#852 = PCURVE('',#300,#853);
#853 = DEFINITIONAL_REPRESENTATION('',(#854),#867);
#854 = B_SPLINE_CURVE_WITH_KNOTS('',11,(#855,#856,#857,#858,#859,#860,
    #861,#862,#863,#864,#865,#866),.UNSPECIFIED.,.F.,.F.,(12,12),(0.,1.)
  ,.PIECEWISE_BEZIER_KNOTS.);
#855 = CARTESIAN_POINT('',(2.3810476E-02,0.97618952));
#856 = CARTESIAN_POINT('',(0.110398831674,0.97618952));
#857 = CARTESIAN_POINT('',(0.196847347308,0.97618952));
#858 = CARTESIAN_POINT('',(0.283683346625,0.97618952));
#859 = CARTESIAN_POINT('',(0.37085275258,0.97618952));
#860 = CARTESIAN_POINT('',(0.454210575204,0.97618952));
#861 = CARTESIAN_POINT('',(0.547104951638,0.97618952));
#862 = CARTESIAN_POINT('',(0.626416524056,0.97618952));
#863 = CARTESIAN_POINT('',(0.718330891337,0.97618952));
#864 = CARTESIAN_POINT('',(0.802501453823,0.97618952));
#865 = CARTESIAN_POINT('',(0.889645703894,0.97618952));
#866 = CARTESIAN_POINT('',(0.97618952,0.97618952));
#867 = ( GEOMETRIC_REPRESENTATION_CONTEXT(2) 
PARAMETRIC_REPRESENTATION_CONTEXT() REPRESENTATION_CONTEXT('2D SPACE',''
  ) );
#868 = ( GEOMETRIC_REPRESENTATION_CONTEXT(3) 
GLOBAL_UNCERTAINTY_ASSIGNED_CONTEXT((#872)) GLOBAL_UNIT_ASSIGNED_CONTEXT
((#869,#870,#871)) REPRESENTATION_CONTEXT('Context #1',
  '3D Context with UNIT and UNCERTAINTY') );
#869 = ( LENGTH_UNIT() NAMED_UNIT(*) SI_UNIT(.MILLI.,.METRE.) );
#870 = ( NAMED_UNIT(*) PLANE_ANGLE_UNIT() SI_UNIT($,.RADIAN.) );
#871 = ( NAMED_UNIT(*) SI_UNIT($,.STERADIAN.) SOLID_ANGLE_UNIT() );
#872 = UNCERTAINTY_MEASURE_WITH_UNIT(LENGTH_MEASURE(1.E-03),#869,
  'distance_accuracy_value','confusion accuracy');
#873 = PRODUCT_RELATED_PRODUCT_CATEGORY('part',$,(#7));
ENDSEC;
END-ISO-10303-21;
