ISO-10303-21;
HEADER;
FILE_DESCRIPTION(('Open CASCADE Model'),'2;1');
FILE_NAME('Open CASCADE Shape Model','2026-07-11T20:15:55',('Author'),(
    'Open CASCADE'),'Open CASCADE STEP processor 8.0','Open CASCADE 8.0'
  ,'Unknown');
FILE_SCHEMA(('AUTOMOTIVE_DESIGN { 1 0 10303 214 1 1 1 1 }'));
ENDSEC;
DATA;
#1 = APPLICATION_PROTOCOL_DEFINITION('international standard',
  'automotive_design',2000,#2);
#2 = APPLICATION_CONTEXT(
  'core data for automotive mechanical design processes');
#3 = SHAPE_DEFINITION_REPRESENTATION(#4,#10);
#4 = PRODUCT_DEFINITION_SHAPE('','',#5);
#5 = PRODUCT_DEFINITION('design','',#6,#9);
#6 = PRODUCT_DEFINITION_FORMATION('','',#7);
#7 = PRODUCT('Open CASCADE STEP translator 8.0 1',
  'Open CASCADE STEP translator 8.0 1','',(#8));
#8 = PRODUCT_CONTEXT('',#2,'mechanical');
#9 = PRODUCT_DEFINITION_CONTEXT('part definition',#2,'design');
#10 = ADVANCED_BREP_SHAPE_REPRESENTATION('',(#11,#15),#1349);
#11 = AXIS2_PLACEMENT_3D('',#12,#13,#14);
#12 = CARTESIAN_POINT('',(0.,0.,0.));
#13 = DIRECTION('',(0.,0.,1.));
#14 = DIRECTION('',(1.,0.,-0.));
#15 = MANIFOLD_SOLID_BREP('',#16);
#16 = CLOSED_SHELL('',(#17,#1019,#1155,#1183,#1210,#1221,#1232,#1295,
    #1318,#1343));
#17 = ADVANCED_FACE('',(#18,#165),#31,.T.);
#18 = FACE_BOUND('',#19,.F.);
#19 = EDGE_LOOP('',(#20,#52,#72,#97,#122,#142));
#20 = ORIENTED_EDGE('',*,*,#21,.T.);
#21 = EDGE_CURVE('',#22,#24,#26,.T.);
#22 = VERTEX_POINT('',#23);
#23 = CARTESIAN_POINT('',(0.,100.,0.));
#24 = VERTEX_POINT('',#25);
#25 = CARTESIAN_POINT('',(38.,100.,0.));
#26 = SURFACE_CURVE('',#27,(#30,#41),.PCURVE_S1.);
#27 = B_SPLINE_CURVE_WITH_KNOTS('',1,(#28,#29),.UNSPECIFIED.,.F.,.F.,(2,
    2),(0.,1.),.PIECEWISE_BEZIER_KNOTS.);
#28 = CARTESIAN_POINT('',(0.,100.,0.));
#29 = CARTESIAN_POINT('',(38.,100.,0.));
#30 = PCURVE('',#31,#36);
#31 = B_SPLINE_SURFACE_WITH_KNOTS('',1,1,(
    (#32,#33)
    ,(#34,#35)),.UNSPECIFIED.,.F.,.F.,.F.,(2,2),(2,2),(0.,1.),(0.,1.),
  .PIECEWISE_BEZIER_KNOTS.);
#32 = CARTESIAN_POINT('',(0.,0.,173.20508075688));
#33 = CARTESIAN_POINT('',(0.,100.,0.));
#34 = CARTESIAN_POINT('',(76.,0.,173.20508075688));
#35 = CARTESIAN_POINT('',(76.,100.,0.));
#36 = DEFINITIONAL_REPRESENTATION('',(#37),#40);
#37 = B_SPLINE_CURVE_WITH_KNOTS('',1,(#38,#39),.UNSPECIFIED.,.F.,.F.,(2,
    2),(0.,1.),.PIECEWISE_BEZIER_KNOTS.);
#38 = CARTESIAN_POINT('',(0.,1.));
#39 = CARTESIAN_POINT('',(0.5,1.));
#40 = ( GEOMETRIC_REPRESENTATION_CONTEXT(2) 
PARAMETRIC_REPRESENTATION_CONTEXT() REPRESENTATION_CONTEXT('2D SPACE',''
  ) );
#41 = PCURVE('',#42,#47);
#42 = B_SPLINE_SURFACE_WITH_KNOTS('',1,1,(
    (#43,#44)
    ,(#45,#46)),.UNSPECIFIED.,.F.,.F.,.F.,(2,2),(2,2),(0.,1.),(0.,1.),
  .PIECEWISE_BEZIER_KNOTS.);
#43 = CARTESIAN_POINT('',(76.,0.,0.));
#44 = CARTESIAN_POINT('',(0.,0.,0.));
#45 = CARTESIAN_POINT('',(76.,100.,0.));
#46 = CARTESIAN_POINT('',(0.,100.,0.));
#47 = DEFINITIONAL_REPRESENTATION('',(#48),#51);
#48 = B_SPLINE_CURVE_WITH_KNOTS('',1,(#49,#50),.UNSPECIFIED.,.F.,.F.,(2,
    2),(0.,1.),.PIECEWISE_BEZIER_KNOTS.);
#49 = CARTESIAN_POINT('',(1.,1.));
#50 = CARTESIAN_POINT('',(1.,0.5));
#51 = ( GEOMETRIC_REPRESENTATION_CONTEXT(2) 
PARAMETRIC_REPRESENTATION_CONTEXT() REPRESENTATION_CONTEXT('2D SPACE',''
  ) );
#52 = ORIENTED_EDGE('',*,*,#53,.T.);
#53 = EDGE_CURVE('',#24,#54,#56,.T.);
#54 = VERTEX_POINT('',#55);
#55 = CARTESIAN_POINT('',(76.,100.,0.));
#56 = SURFACE_CURVE('',#57,(#60,#66),.PCURVE_S1.);
#57 = B_SPLINE_CURVE_WITH_KNOTS('',1,(#58,#59),.UNSPECIFIED.,.F.,.F.,(2,
    2),(0.,1.),.PIECEWISE_BEZIER_KNOTS.);
#58 = CARTESIAN_POINT('',(38.,100.,0.));
#59 = CARTESIAN_POINT('',(76.,100.,0.));
#60 = PCURVE('',#31,#61);
#61 = DEFINITIONAL_REPRESENTATION('',(#62),#65);
#62 = B_SPLINE_CURVE_WITH_KNOTS('',1,(#63,#64),.UNSPECIFIED.,.F.,.F.,(2,
    2),(0.,1.),.PIECEWISE_BEZIER_KNOTS.);
#63 = CARTESIAN_POINT('',(0.5,1.));
#64 = CARTESIAN_POINT('',(1.,1.));
#65 = ( GEOMETRIC_REPRESENTATION_CONTEXT(2) 
PARAMETRIC_REPRESENTATION_CONTEXT() REPRESENTATION_CONTEXT('2D SPACE',''
  ) );
#66 = PCURVE('',#42,#67);
#67 = DEFINITIONAL_REPRESENTATION('',(#68),#71);
#68 = B_SPLINE_CURVE_WITH_KNOTS('',1,(#69,#70),.UNSPECIFIED.,.F.,.F.,(2,
    2),(0.,1.),.PIECEWISE_BEZIER_KNOTS.);
#69 = CARTESIAN_POINT('',(1.,0.5));
#70 = CARTESIAN_POINT('',(1.,0.));
#71 = ( GEOMETRIC_REPRESENTATION_CONTEXT(2) 
PARAMETRIC_REPRESENTATION_CONTEXT() REPRESENTATION_CONTEXT('2D SPACE',''
  ) );
#72 = ORIENTED_EDGE('',*,*,#73,.F.);
#73 = EDGE_CURVE('',#74,#54,#76,.T.);
#74 = VERTEX_POINT('',#75);
#75 = CARTESIAN_POINT('',(76.,0.,173.20508075688));
#76 = SURFACE_CURVE('',#77,(#80,#86),.PCURVE_S1.);
#77 = B_SPLINE_CURVE_WITH_KNOTS('',1,(#78,#79),.UNSPECIFIED.,.F.,.F.,(2,
    2),(0.,1.),.PIECEWISE_BEZIER_KNOTS.);
#78 = CARTESIAN_POINT('',(76.,0.,173.20508075688));
#79 = CARTESIAN_POINT('',(76.,100.,0.));
#80 = PCURVE('',#31,#81);
#81 = DEFINITIONAL_REPRESENTATION('',(#82),#85);
#82 = B_SPLINE_CURVE_WITH_KNOTS('',1,(#83,#84),.UNSPECIFIED.,.F.,.F.,(2,
    2),(0.,1.),.PIECEWISE_BEZIER_KNOTS.);
#83 = CARTESIAN_POINT('',(1.,0.));
#84 = CARTESIAN_POINT('',(1.,1.));
#85 = ( GEOMETRIC_REPRESENTATION_CONTEXT(2) 
PARAMETRIC_REPRESENTATION_CONTEXT() REPRESENTATION_CONTEXT('2D SPACE',''
  ) );
#86 = PCURVE('',#87,#92);
#87 = B_SPLINE_SURFACE_WITH_KNOTS('',1,1,(
    (#88,#89)
    ,(#90,#91)),.UNSPECIFIED.,.F.,.F.,.F.,(2,2),(2,2),(0.,1.),(0.,1.),
  .PIECEWISE_BEZIER_KNOTS.);
#88 = CARTESIAN_POINT('',(76.,0.,173.20508075688));
#89 = CARTESIAN_POINT('',(76.,0.,0.));
#90 = CARTESIAN_POINT('',(76.,100.,0.));
#91 = CARTESIAN_POINT('',(76.,100.,0.));
#92 = DEFINITIONAL_REPRESENTATION('',(#93),#96);
#93 = B_SPLINE_CURVE_WITH_KNOTS('',1,(#94,#95),.UNSPECIFIED.,.F.,.F.,(2,
    2),(0.,1.),.PIECEWISE_BEZIER_KNOTS.);
#94 = CARTESIAN_POINT('',(0.,0.));
#95 = CARTESIAN_POINT('',(1.,0.));
#96 = ( GEOMETRIC_REPRESENTATION_CONTEXT(2) 
PARAMETRIC_REPRESENTATION_CONTEXT() REPRESENTATION_CONTEXT('2D SPACE',''
  ) );
#97 = ORIENTED_EDGE('',*,*,#98,.F.);
#98 = EDGE_CURVE('',#99,#74,#101,.T.);
#99 = VERTEX_POINT('',#100);
#100 = CARTESIAN_POINT('',(38.,0.,173.20508075688));
#101 = SURFACE_CURVE('',#102,(#105,#111),.PCURVE_S1.);
#102 = B_SPLINE_CURVE_WITH_KNOTS('',1,(#103,#104),.UNSPECIFIED.,.F.,.F.,
  (2,2),(0.,1.),.PIECEWISE_BEZIER_KNOTS.);
#103 = CARTESIAN_POINT('',(38.,0.,173.20508075688));
#104 = CARTESIAN_POINT('',(76.,0.,173.20508075688));
#105 = PCURVE('',#31,#106);
#106 = DEFINITIONAL_REPRESENTATION('',(#107),#110);
#107 = B_SPLINE_CURVE_WITH_KNOTS('',1,(#108,#109),.UNSPECIFIED.,.F.,.F.,
  (2,2),(0.,1.),.PIECEWISE_BEZIER_KNOTS.);
#108 = CARTESIAN_POINT('',(0.5,0.));
#109 = CARTESIAN_POINT('',(1.,0.));
#110 = ( GEOMETRIC_REPRESENTATION_CONTEXT(2) 
PARAMETRIC_REPRESENTATION_CONTEXT() REPRESENTATION_CONTEXT('2D SPACE',''
  ) );
#111 = PCURVE('',#112,#117);
#112 = B_SPLINE_SURFACE_WITH_KNOTS('',1,1,(
    (#113,#114)
    ,(#115,#116)),.UNSPECIFIED.,.F.,.F.,.F.,(2,2),(2,2),(0.,1.),(0.,1.),
  .PIECEWISE_BEZIER_KNOTS.);
#113 = CARTESIAN_POINT('',(76.,0.,0.));
#114 = CARTESIAN_POINT('',(0.,0.,0.));
#115 = CARTESIAN_POINT('',(76.,0.,173.20508075688));
#116 = CARTESIAN_POINT('',(0.,0.,173.20508075688));
#117 = DEFINITIONAL_REPRESENTATION('',(#118),#121);
#118 = B_SPLINE_CURVE_WITH_KNOTS('',1,(#119,#120),.UNSPECIFIED.,.F.,.F.,
  (2,2),(0.,1.),.PIECEWISE_BEZIER_KNOTS.);
#119 = CARTESIAN_POINT('',(1.,0.5));
#120 = CARTESIAN_POINT('',(1.,0.));
#121 = ( GEOMETRIC_REPRESENTATION_CONTEXT(2) 
PARAMETRIC_REPRESENTATION_CONTEXT() REPRESENTATION_CONTEXT('2D SPACE',''
  ) );
#122 = ORIENTED_EDGE('',*,*,#123,.F.);
#123 = EDGE_CURVE('',#124,#99,#126,.T.);
#124 = VERTEX_POINT('',#125);
#125 = CARTESIAN_POINT('',(0.,0.,173.20508075688));
#126 = SURFACE_CURVE('',#127,(#130,#136),.PCURVE_S1.);
#127 = B_SPLINE_CURVE_WITH_KNOTS('',1,(#128,#129),.UNSPECIFIED.,.F.,.F.,
  (2,2),(0.,1.),.PIECEWISE_BEZIER_KNOTS.);
#128 = CARTESIAN_POINT('',(0.,0.,173.20508075688));
#129 = CARTESIAN_POINT('',(38.,0.,173.20508075688));
#130 = PCURVE('',#31,#131);
#131 = DEFINITIONAL_REPRESENTATION('',(#132),#135);
#132 = B_SPLINE_CURVE_WITH_KNOTS('',1,(#133,#134),.UNSPECIFIED.,.F.,.F.,
  (2,2),(0.,1.),.PIECEWISE_BEZIER_KNOTS.);
#133 = CARTESIAN_POINT('',(0.,0.));
#134 = CARTESIAN_POINT('',(0.5,0.));
#135 = ( GEOMETRIC_REPRESENTATION_CONTEXT(2) 
PARAMETRIC_REPRESENTATION_CONTEXT() REPRESENTATION_CONTEXT('2D SPACE',''
  ) );
#136 = PCURVE('',#112,#137);
#137 = DEFINITIONAL_REPRESENTATION('',(#138),#141);
#138 = B_SPLINE_CURVE_WITH_KNOTS('',1,(#139,#140),.UNSPECIFIED.,.F.,.F.,
  (2,2),(0.,1.),.PIECEWISE_BEZIER_KNOTS.);
#139 = CARTESIAN_POINT('',(1.,1.));
#140 = CARTESIAN_POINT('',(1.,0.5));
#141 = ( GEOMETRIC_REPRESENTATION_CONTEXT(2) 
PARAMETRIC_REPRESENTATION_CONTEXT() REPRESENTATION_CONTEXT('2D SPACE',''
  ) );
#142 = ORIENTED_EDGE('',*,*,#143,.T.);
#143 = EDGE_CURVE('',#124,#22,#144,.T.);
#144 = SURFACE_CURVE('',#145,(#148,#154),.PCURVE_S1.);
#145 = B_SPLINE_CURVE_WITH_KNOTS('',1,(#146,#147),.UNSPECIFIED.,.F.,.F.,
  (2,2),(0.,1.),.PIECEWISE_BEZIER_KNOTS.);
#146 = CARTESIAN_POINT('',(0.,0.,173.20508075688));
#147 = CARTESIAN_POINT('',(0.,100.,0.));
#148 = PCURVE('',#31,#149);
#149 = DEFINITIONAL_REPRESENTATION('',(#150),#153);
#150 = B_SPLINE_CURVE_WITH_KNOTS('',1,(#151,#152),.UNSPECIFIED.,.F.,.F.,
  (2,2),(0.,1.),.PIECEWISE_BEZIER_KNOTS.);
#151 = CARTESIAN_POINT('',(0.,0.));
#152 = CARTESIAN_POINT('',(0.,1.));
#153 = ( GEOMETRIC_REPRESENTATION_CONTEXT(2) 
PARAMETRIC_REPRESENTATION_CONTEXT() REPRESENTATION_CONTEXT('2D SPACE',''
  ) );
#154 = PCURVE('',#155,#160);
#155 = B_SPLINE_SURFACE_WITH_KNOTS('',1,1,(
    (#156,#157)
    ,(#158,#159)),.UNSPECIFIED.,.F.,.F.,.F.,(2,2),(2,2),(0.,1.),(0.,1.),
  .PIECEWISE_BEZIER_KNOTS.);
#156 = CARTESIAN_POINT('',(0.,0.,173.20508075688));
#157 = CARTESIAN_POINT('',(0.,0.,0.));
#158 = CARTESIAN_POINT('',(0.,100.,0.));
#159 = CARTESIAN_POINT('',(0.,100.,0.));
#160 = DEFINITIONAL_REPRESENTATION('',(#161),#164);
#161 = B_SPLINE_CURVE_WITH_KNOTS('',1,(#162,#163),.UNSPECIFIED.,.F.,.F.,
  (2,2),(0.,1.),.PIECEWISE_BEZIER_KNOTS.);
#162 = CARTESIAN_POINT('',(0.,0.));
#163 = CARTESIAN_POINT('',(1.,0.));
#164 = ( GEOMETRIC_REPRESENTATION_CONTEXT(2) 
PARAMETRIC_REPRESENTATION_CONTEXT() REPRESENTATION_CONTEXT('2D SPACE',''
  ) );
#165 = FACE_BOUND('',#166,.F.);
#166 = EDGE_LOOP('',(#167,#225,#258,#290,#323,#356,#412,#445,#478,#511,
    #544,#577,#633,#666,#699,#732,#765,#798,#858,#891,#924,#955,#988));
#167 = ORIENTED_EDGE('',*,*,#168,.T.);
#168 = EDGE_CURVE('',#169,#171,#173,.T.);
#169 = VERTEX_POINT('',#170);
#170 = CARTESIAN_POINT('',(38.,70.,51.961524227066));
#171 = VERTEX_POINT('',#172);
#172 = CARTESIAN_POINT('',(30.899291108992,68.697056060961,
    54.218289328895));
#173 = SURFACE_CURVE('',#174,(#181,#191),.PCURVE_S1.);
#174 = B_SPLINE_CURVE_WITH_KNOTS('',5,(#175,#176,#177,#178,#179,#180),
  .UNSPECIFIED.,.F.,.F.,(6,6),(0.,1.),.PIECEWISE_BEZIER_KNOTS.);
#175 = CARTESIAN_POINT('',(38.,70.,51.961524227066));
#176 = CARTESIAN_POINT('',(36.519011637152,70.,51.961524227066));
#177 = CARTESIAN_POINT('',(35.037135391527,69.862914435449,
    52.198967215315));
#178 = CARTESIAN_POINT('',(33.591661276253,69.588671385067,
    52.673961406476));
#179 = CARTESIAN_POINT('',(32.207328930793,69.19381887113,
    53.357870902372));
#180 = CARTESIAN_POINT('',(30.899291108992,68.697056060961,
    54.218289328895));
#181 = PCURVE('',#31,#182);
#182 = DEFINITIONAL_REPRESENTATION('',(#183),#190);
#183 = B_SPLINE_CURVE_WITH_KNOTS('',5,(#184,#185,#186,#187,#188,#189),
  .UNSPECIFIED.,.F.,.F.,(6,6),(0.,1.),.PIECEWISE_BEZIER_KNOTS.);
#184 = CARTESIAN_POINT('',(0.5,0.7));
#185 = CARTESIAN_POINT('',(0.480513311129,0.7));
#186 = CARTESIAN_POINT('',(0.461014939589,0.698629117807));
#187 = CARTESIAN_POINT('',(0.441995569465,0.695886721455));
#188 = CARTESIAN_POINT('',(0.423780647264,0.691938186933));
#189 = CARTESIAN_POINT('',(0.406569621823,0.686970559646));
#190 = ( GEOMETRIC_REPRESENTATION_CONTEXT(2) 
PARAMETRIC_REPRESENTATION_CONTEXT() REPRESENTATION_CONTEXT('2D SPACE',''
  ) );
#191 = PCURVE('',#192,#215);
#192 = B_SPLINE_SURFACE_WITH_KNOTS('',10,1,(
    (#193,#194)
    ,(#195,#196)
    ,(#197,#198)
    ,(#199,#200)
    ,(#201,#202)
    ,(#203,#204)
    ,(#205,#206)
    ,(#207,#208)
    ,(#209,#210)
    ,(#211,#212)
    ,(#213,#214
    )),.UNSPECIFIED.,.F.,.F.,.F.,(11,11),(2,2),(0.,1.),(0.,1.),
  .PIECEWISE_BEZIER_KNOTS.);
#193 = CARTESIAN_POINT('',(38.,70.,30.));
#194 = CARTESIAN_POINT('',(38.,70.,130.));
#195 = CARTESIAN_POINT('',(31.71681469282,70.,30.));
#196 = CARTESIAN_POINT('',(31.71681469282,70.,130.));
#197 = CARTESIAN_POINT('',(25.433629385641,67.806754577536,30.));
#198 = CARTESIAN_POINT('',(25.433629385641,67.806754577536,130.));
#199 = CARTESIAN_POINT('',(20.011729541803,63.420263732607,30.));
#200 = CARTESIAN_POINT('',(20.011729541803,63.420263732607,130.));
#201 = CARTESIAN_POINT('',(16.312400624648,57.227071477254,30.));
#202 = CARTESIAN_POINT('',(16.312400624648,57.227071477254,130.));
#203 = CARTESIAN_POINT('',(14.9945341261,50.,30.));
#204 = CARTESIAN_POINT('',(14.9945341261,50.,130.));
#205 = CARTESIAN_POINT('',(16.312400624648,42.772928522746,30.));
#206 = CARTESIAN_POINT('',(16.312400624648,42.772928522746,130.));
#207 = CARTESIAN_POINT('',(20.011729541803,36.579736267393,30.));
#208 = CARTESIAN_POINT('',(20.011729541803,36.579736267393,130.));
#209 = CARTESIAN_POINT('',(25.433629385641,32.193245422464,30.));
#210 = CARTESIAN_POINT('',(25.433629385641,32.193245422464,130.));
#211 = CARTESIAN_POINT('',(31.71681469282,30.,30.));
#212 = CARTESIAN_POINT('',(31.71681469282,30.,130.));
#213 = CARTESIAN_POINT('',(38.,30.,30.));
#214 = CARTESIAN_POINT('',(38.,30.,130.));
#215 = DEFINITIONAL_REPRESENTATION('',(#216),#224);
#216 = B_SPLINE_CURVE_WITH_KNOTS('',6,(#217,#218,#219,#220,#221,#222,
    #223),.UNSPECIFIED.,.F.,.F.,(7,7),(0.,1.),.PIECEWISE_BEZIER_KNOTS.);
#217 = CARTESIAN_POINT('',(0.,0.219615242271));
#218 = CARTESIAN_POINT('',(1.964221833171E-02,0.219615242271));
#219 = CARTESIAN_POINT('',(3.929385739232E-02,0.221198190374));
#220 = CARTESIAN_POINT('',(5.87929188842E-02,0.224366590643));
#221 = CARTESIAN_POINT('',(7.804365807868E-02,0.229019287604));
#222 = CARTESIAN_POINT('',(9.69738591128E-02,0.23501273689));
#223 = CARTESIAN_POINT('',(0.115531207175,0.24218289162));
#224 = ( GEOMETRIC_REPRESENTATION_CONTEXT(2) 
PARAMETRIC_REPRESENTATION_CONTEXT() REPRESENTATION_CONTEXT('2D SPACE',''
  ) );
#225 = ORIENTED_EDGE('',*,*,#226,.T.);
#226 = EDGE_CURVE('',#171,#227,#229,.T.);
#227 = VERTEX_POINT('',#228);
#228 = CARTESIAN_POINT('',(23.628739109876,63.909226840188,
    62.511052797237));
#229 = SURFACE_CURVE('',#230,(#237,#247),.PCURVE_S1.);
#230 = B_SPLINE_CURVE_WITH_KNOTS('',5,(#231,#232,#233,#234,#235,#236),
  .UNSPECIFIED.,.F.,.F.,(6,6),(0.,1.),.PIECEWISE_BEZIER_KNOTS.);
#231 = CARTESIAN_POINT('',(30.899291108992,68.697056060961,
    54.218289328895));
#232 = CARTESIAN_POINT('',(29.143174747943,68.03012328275,
    55.373450785991));
#233 = CARTESIAN_POINT('',(27.524320058678,67.179403805944,
    56.846952189127));
#234 = CARTESIAN_POINT('',(26.066906825241,66.18614221211,
    58.567307133508));
#235 = CARTESIAN_POINT('',(24.770562087894,65.088981469667,
    60.467657838516));
#236 = CARTESIAN_POINT('',(23.628739110753,63.909226840531,
    62.511052796643));
#237 = PCURVE('',#31,#238);
#238 = DEFINITIONAL_REPRESENTATION('',(#239),#246);
#239 = B_SPLINE_CURVE_WITH_KNOTS('',5,(#240,#241,#242,#243,#244,#245),
  .UNSPECIFIED.,.F.,.F.,(6,6),(0.,1.),.PIECEWISE_BEZIER_KNOTS.);
#240 = CARTESIAN_POINT('',(0.406569621823,0.686970559646));
#241 = CARTESIAN_POINT('',(0.383462825431,0.680301232901));
#242 = CARTESIAN_POINT('',(0.36216202797,0.671794024504));
#243 = CARTESIAN_POINT('',(0.34298566691,0.661861467548));
#244 = CARTESIAN_POINT('',(0.325928437665,0.650889816759));
#245 = CARTESIAN_POINT('',(0.310904459035,0.639092268975));
#246 = ( GEOMETRIC_REPRESENTATION_CONTEXT(2) 
PARAMETRIC_REPRESENTATION_CONTEXT() REPRESENTATION_CONTEXT('2D SPACE',''
  ) );
#247 = PCURVE('',#192,#248);
#248 = DEFINITIONAL_REPRESENTATION('',(#249),#257);
#249 = B_SPLINE_CURVE_WITH_KNOTS('',6,(#250,#251,#252,#253,#254,#255,
    #256),.UNSPECIFIED.,.F.,.F.,(7,7),(0.,1.),.PIECEWISE_BEZIER_KNOTS.);
#250 = CARTESIAN_POINT('',(0.115531207175,0.24218289162));
#251 = CARTESIAN_POINT('',(0.14044551908,0.251809238593));
#252 = CARTESIAN_POINT('',(0.164690587747,0.263557915247));
#253 = CARTESIAN_POINT('',(0.188244683236,0.277073412033));
#254 = CARTESIAN_POINT('',(0.211138747311,0.292007543629));
#255 = CARTESIAN_POINT('',(0.233424527658,0.308082239789));
#256 = CARTESIAN_POINT('',(0.25519986541,0.325110528953));
#257 = ( GEOMETRIC_REPRESENTATION_CONTEXT(2) 
PARAMETRIC_REPRESENTATION_CONTEXT() REPRESENTATION_CONTEXT('2D SPACE',''
  ) );
#258 = ORIENTED_EDGE('',*,*,#259,.T.);
#259 = EDGE_CURVE('',#227,#260,#262,.T.);
#260 = VERTEX_POINT('',#261);
#261 = CARTESIAN_POINT('',(23.124755786359,63.36887458625,
    63.446970135773));
#262 = SURFACE_CURVE('',#263,(#270,#279),.PCURVE_S1.);
#263 = B_SPLINE_CURVE_WITH_KNOTS('',5,(#264,#265,#266,#267,#268,#269),
  .UNSPECIFIED.,.F.,.F.,(6,6),(0.,1.),.PIECEWISE_BEZIER_KNOTS.);
#264 = CARTESIAN_POINT('',(23.628739108999,63.909226839845,
    62.511052797832));
#265 = CARTESIAN_POINT('',(23.525403772351,63.802458674551,
    62.695980684752));
#266 = CARTESIAN_POINT('',(23.423342558887,63.695022870855,
    62.882064901865));
#267 = CARTESIAN_POINT('',(23.32255063612,63.586936142381,
    63.069276542472));
#268 = CARTESIAN_POINT('',(23.223023264454,63.478214764025,
    63.257587435746));
#269 = CARTESIAN_POINT('',(23.124755787648,63.368874587111,
    63.446970134281));
#270 = PCURVE('',#31,#271);
#271 = DEFINITIONAL_REPRESENTATION('',(#272),#278);
#272 = B_SPLINE_CURVE_WITH_KNOTS('',4,(#273,#274,#275,#276,#277),
  .UNSPECIFIED.,.F.,.F.,(5,5),(0.,1.),.PIECEWISE_BEZIER_KNOTS.);
#273 = CARTESIAN_POINT('',(0.310904458989,0.639092268961));
#274 = CARTESIAN_POINT('',(0.309204865538,0.637757666703));
#275 = CARTESIAN_POINT('',(0.307533213944,0.636411937479));
#276 = CARTESIAN_POINT('',(0.305889344609,0.635055498715));
#277 = CARTESIAN_POINT('',(0.304273103433,0.633688746674));
#278 = ( GEOMETRIC_REPRESENTATION_CONTEXT(2) 
PARAMETRIC_REPRESENTATION_CONTEXT() REPRESENTATION_CONTEXT('2D SPACE',''
  ) );
#279 = PCURVE('',#192,#280);
#280 = DEFINITIONAL_REPRESENTATION('',(#281),#289);
#281 = B_SPLINE_CURVE_WITH_KNOTS('',6,(#282,#283,#284,#285,#286,#287,
    #288),.UNSPECIFIED.,.F.,.F.,(7,7),(0.,1.),.PIECEWISE_BEZIER_KNOTS.);
#282 = CARTESIAN_POINT('',(0.25519986541,0.325110528953));
#283 = CARTESIAN_POINT('',(0.257170540297,0.326651594456));
#284 = CARTESIAN_POINT('',(0.259136903901,0.328200368706));
#285 = CARTESIAN_POINT('',(0.261099023157,0.329756707237));
#286 = CARTESIAN_POINT('',(0.263056963383,0.331320468047));
#287 = CARTESIAN_POINT('',(0.265010788412,0.33289151155));
#288 = CARTESIAN_POINT('',(0.26696056072,0.334469700541));
#289 = ( GEOMETRIC_REPRESENTATION_CONTEXT(2) 
PARAMETRIC_REPRESENTATION_CONTEXT() REPRESENTATION_CONTEXT('2D SPACE',''
  ) );
#290 = ORIENTED_EDGE('',*,*,#291,.T.);
#291 = EDGE_CURVE('',#260,#292,#294,.T.);
#292 = VERTEX_POINT('',#293);
#293 = CARTESIAN_POINT('',(19.224472112999,56.890511771401,
    74.667823900226));
#294 = SURFACE_CURVE('',#295,(#302,#312),.PCURVE_S1.);
#295 = B_SPLINE_CURVE_WITH_KNOTS('',5,(#296,#297,#298,#299,#300,#301),
  .UNSPECIFIED.,.F.,.F.,(6,6),(0.,1.),.PIECEWISE_BEZIER_KNOTS.);
#296 = CARTESIAN_POINT('',(23.12475578507,63.368874585389,
    63.446970137265));
#297 = CARTESIAN_POINT('',(22.059564235513,62.183658134745,
    65.499824779606));
#298 = CARTESIAN_POINT('',(21.142411101801,60.925733242371,
    67.678615866836));
#299 = CARTESIAN_POINT('',(20.367532419336,59.61522563984,
    69.948486736829));
#300 = CARTESIAN_POINT('',(19.72958907883,58.266873441084,
    72.283895558745));
#301 = CARTESIAN_POINT('',(19.224472113,56.890511771403,74.667823900222)
  );
#302 = PCURVE('',#31,#303);
#303 = DEFINITIONAL_REPRESENTATION('',(#304),#311);
#304 = B_SPLINE_CURVE_WITH_KNOTS('',5,(#305,#306,#307,#308,#309,#310),
  .UNSPECIFIED.,.F.,.F.,(6,6),(0.,1.),.PIECEWISE_BEZIER_KNOTS.);
#305 = CARTESIAN_POINT('',(0.304273103365,0.63368874664));
#306 = CARTESIAN_POINT('',(0.290257426947,0.621836583837));
#307 = CARTESIAN_POINT('',(0.278189565134,0.609257339315));
#308 = CARTESIAN_POINT('',(0.267993829707,0.596152233051));
#309 = CARTESIAN_POINT('',(0.25959985496,0.582668734511));
#310 = CARTESIAN_POINT('',(0.252953581219,0.568905117662));
#311 = ( GEOMETRIC_REPRESENTATION_CONTEXT(2) 
PARAMETRIC_REPRESENTATION_CONTEXT() REPRESENTATION_CONTEXT('2D SPACE',''
  ) );
#312 = PCURVE('',#192,#313);
#313 = DEFINITIONAL_REPRESENTATION('',(#314),#322);
#314 = B_SPLINE_CURVE_WITH_KNOTS('',6,(#315,#316,#317,#318,#319,#320,
    #321),.UNSPECIFIED.,.F.,.F.,(7,7),(0.,1.),.PIECEWISE_BEZIER_KNOTS.);
#315 = CARTESIAN_POINT('',(0.26696056072,0.334469700541));
#316 = CARTESIAN_POINT('',(0.288095538953,0.351576821119));
#317 = CARTESIAN_POINT('',(0.308754324802,0.369523532642));
#318 = CARTESIAN_POINT('',(0.329016491925,0.38813508271));
#319 = CARTESIAN_POINT('',(0.348942875179,0.407269574492));
#320 = CARTESIAN_POINT('',(0.368594520974,0.42681216962));
#321 = CARTESIAN_POINT('',(0.388039590334,0.446678238911));
#322 = ( GEOMETRIC_REPRESENTATION_CONTEXT(2) 
PARAMETRIC_REPRESENTATION_CONTEXT() REPRESENTATION_CONTEXT('2D SPACE',''
  ) );
#323 = ORIENTED_EDGE('',*,*,#324,.T.);
#324 = EDGE_CURVE('',#292,#325,#327,.T.);
#325 = VERTEX_POINT('',#326);
#326 = CARTESIAN_POINT('',(18.000074403638,50.000010405919,
    86.602540378444));
#327 = SURFACE_CURVE('',#328,(#335,#345),.PCURVE_S1.);
#328 = B_SPLINE_CURVE_WITH_KNOTS('',5,(#329,#330,#331,#332,#333,#334),
  .UNSPECIFIED.,.F.,.F.,(6,6),(0.,1.),.PIECEWISE_BEZIER_KNOTS.);
#329 = CARTESIAN_POINT('',(19.224472112999,56.890511771399,
    74.667823900229));
#330 = CARTESIAN_POINT('',(18.731131364236,55.546238380042,
    76.996173713323));
#331 = CARTESIAN_POINT('',(18.364711333948,54.175833605994,
    79.369777575442));
#332 = CARTESIAN_POINT('',(18.121574487998,52.789126234423,
    81.771627950903));
#333 = CARTESIAN_POINT('',(18.00000868235,51.394636228392,
    84.186959572793));
#334 = CARTESIAN_POINT('',(18.00000868235,50.,86.602540378444));
#335 = PCURVE('',#31,#336);
#336 = DEFINITIONAL_REPRESENTATION('',(#337),#344);
#337 = B_SPLINE_CURVE_WITH_KNOTS('',5,(#338,#339,#340,#341,#342,#343),
  .UNSPECIFIED.,.F.,.F.,(6,6),(0.,1.),.PIECEWISE_BEZIER_KNOTS.);
#338 = CARTESIAN_POINT('',(0.252953581219,0.568905117661));
#339 = CARTESIAN_POINT('',(0.246462257658,0.55546238361));
#340 = CARTESIAN_POINT('',(0.241640954572,0.541758364593));
#341 = CARTESIAN_POINT('',(0.238441801292,0.527891280001));
#342 = CARTESIAN_POINT('',(0.236842219505,0.513946362277));
#343 = CARTESIAN_POINT('',(0.236842219505,0.5));
#344 = ( GEOMETRIC_REPRESENTATION_CONTEXT(2) 
PARAMETRIC_REPRESENTATION_CONTEXT() REPRESENTATION_CONTEXT('2D SPACE',''
  ) );
#345 = PCURVE('',#192,#346);
#346 = DEFINITIONAL_REPRESENTATION('',(#347),#355);
#347 = B_SPLINE_CURVE_WITH_KNOTS('',6,(#348,#349,#350,#351,#352,#353,
    #354),.UNSPECIFIED.,.F.,.F.,(7,7),(0.,1.),.PIECEWISE_BEZIER_KNOTS.);
#348 = CARTESIAN_POINT('',(0.388039590334,0.446678238911));
#349 = CARTESIAN_POINT('',(0.407031320439,0.466081153821));
#350 = CARTESIAN_POINT('',(0.425819414281,0.485785750161));
#351 = CARTESIAN_POINT('',(0.444461949822,0.505707013061));
#352 = CARTESIAN_POINT('',(0.463007616989,0.525767378094));
#353 = CARTESIAN_POINT('',(0.481503023385,0.545895563727));
#354 = CARTESIAN_POINT('',(0.5,0.566025403784));
#355 = ( GEOMETRIC_REPRESENTATION_CONTEXT(2) 
PARAMETRIC_REPRESENTATION_CONTEXT() REPRESENTATION_CONTEXT('2D SPACE',''
  ) );
#356 = ORIENTED_EDGE('',*,*,#357,.T.);
#357 = EDGE_CURVE('',#325,#358,#360,.T.);
#358 = VERTEX_POINT('',#359);
#359 = CARTESIAN_POINT('',(18.742845672526,44.59985007493,
    95.955874417154));
#360 = SURFACE_CURVE('',#361,(#368,#378),.PCURVE_S1.);
#361 = B_SPLINE_CURVE_WITH_KNOTS('',5,(#362,#363,#364,#365,#366,#367),
  .UNSPECIFIED.,.F.,.F.,(6,6),(0.,1.),.PIECEWISE_BEZIER_KNOTS.);
#362 = CARTESIAN_POINT('',(18.00000868235,50.,86.602540378444));
#363 = CARTESIAN_POINT('',(18.00000868235,48.91220931344,88.486649115567
    ));
#364 = CARTESIAN_POINT('',(18.073965835243,47.824459471919,
    90.370687818661));
#365 = CARTESIAN_POINT('',(18.221878425755,46.740451494938,
    92.248245181531));
#366 = CARTESIAN_POINT('',(18.444393109234,45.664142690514,
    94.112465532843));
#367 = CARTESIAN_POINT('',(18.742845672526,44.59985007493,
    95.955874417154));
#368 = PCURVE('',#31,#369);
#369 = DEFINITIONAL_REPRESENTATION('',(#370),#377);
#370 = B_SPLINE_CURVE_WITH_KNOTS('',5,(#371,#372,#373,#374,#375,#376),
  .UNSPECIFIED.,.F.,.F.,(6,6),(0.,1.),.PIECEWISE_BEZIER_KNOTS.);
#371 = CARTESIAN_POINT('',(0.236842219505,0.5));
#372 = CARTESIAN_POINT('',(0.236842219505,0.489122093136));
#373 = CARTESIAN_POINT('',(0.237815359151,0.478244591641));
#374 = CARTESIAN_POINT('',(0.239761556015,0.467404509727));
#375 = CARTESIAN_POINT('',(0.242689382592,0.45664142688));
#376 = CARTESIAN_POINT('',(0.246616391424,0.445998500802));
#377 = ( GEOMETRIC_REPRESENTATION_CONTEXT(2) 
PARAMETRIC_REPRESENTATION_CONTEXT() REPRESENTATION_CONTEXT('2D SPACE',''
  ) );
#378 = PCURVE('',#379,#402);
#379 = B_SPLINE_SURFACE_WITH_KNOTS('',10,1,(
    (#380,#381)
    ,(#382,#383)
    ,(#384,#385)
    ,(#386,#387)
    ,(#388,#389)
    ,(#390,#391)
    ,(#392,#393)
    ,(#394,#395)
    ,(#396,#397)
    ,(#398,#399)
    ,(#400,#401
    )),.UNSPECIFIED.,.F.,.F.,.F.,(11,11),(2,2),(0.,1.),(0.,1.),
  .PIECEWISE_BEZIER_KNOTS.);
#380 = CARTESIAN_POINT('',(38.,70.,30.));
#381 = CARTESIAN_POINT('',(38.,70.,130.));
#382 = CARTESIAN_POINT('',(31.71681469282,70.,30.));
#383 = CARTESIAN_POINT('',(31.71681469282,70.,130.));
#384 = CARTESIAN_POINT('',(25.433629385641,67.806754577536,30.));
#385 = CARTESIAN_POINT('',(25.433629385641,67.806754577536,130.));
#386 = CARTESIAN_POINT('',(20.011729541803,63.420263732607,30.));
#387 = CARTESIAN_POINT('',(20.011729541803,63.420263732607,130.));
#388 = CARTESIAN_POINT('',(16.312400624648,57.227071477254,30.));
#389 = CARTESIAN_POINT('',(16.312400624648,57.227071477254,130.));
#390 = CARTESIAN_POINT('',(14.9945341261,50.,30.));
#391 = CARTESIAN_POINT('',(14.9945341261,50.,130.));
#392 = CARTESIAN_POINT('',(16.312400624648,42.772928522746,30.));
#393 = CARTESIAN_POINT('',(16.312400624648,42.772928522746,130.));
#394 = CARTESIAN_POINT('',(20.011729541803,36.579736267393,30.));
#395 = CARTESIAN_POINT('',(20.011729541803,36.579736267393,130.));
#396 = CARTESIAN_POINT('',(25.433629385641,32.193245422464,30.));
#397 = CARTESIAN_POINT('',(25.433629385641,32.193245422464,130.));
#398 = CARTESIAN_POINT('',(31.71681469282,30.,30.));
#399 = CARTESIAN_POINT('',(31.71681469282,30.,130.));
#400 = CARTESIAN_POINT('',(38.,30.,30.));
#401 = CARTESIAN_POINT('',(38.,30.,130.));
#402 = DEFINITIONAL_REPRESENTATION('',(#403),#411);
#403 = B_SPLINE_CURVE_WITH_KNOTS('',6,(#404,#405,#406,#407,#408,#409,
    #410),.UNSPECIFIED.,.F.,.F.,(7,7),(0.,1.),.PIECEWISE_BEZIER_KNOTS.);
#404 = CARTESIAN_POINT('',(0.5,0.566025403784));
#405 = CARTESIAN_POINT('',(0.514427302601,0.581726309929));
#406 = CARTESIAN_POINT('',(0.528854168551,0.597426750367));
#407 = CARTESIAN_POINT('',(0.543304524165,0.613094667283));
#408 = CARTESIAN_POINT('',(0.557800842969,0.628696521492));
#409 = CARTESIAN_POINT('',(0.572366203465,0.644197003448));
#410 = CARTESIAN_POINT('',(0.587026346906,0.659558744262));
#411 = ( GEOMETRIC_REPRESENTATION_CONTEXT(2) 
PARAMETRIC_REPRESENTATION_CONTEXT() REPRESENTATION_CONTEXT('2D SPACE',''
  ) );
#412 = ORIENTED_EDGE('',*,*,#413,.T.);
#413 = EDGE_CURVE('',#358,#414,#416,.T.);
#414 = VERTEX_POINT('',#415);
#415 = CARTESIAN_POINT('',(21.267186424233,39.044975256121,
    105.57719983301));
#416 = SURFACE_CURVE('',#417,(#424,#434),.PCURVE_S1.);
#417 = B_SPLINE_CURVE_WITH_KNOTS('',5,(#418,#419,#420,#421,#422,#423),
  .UNSPECIFIED.,.F.,.F.,(6,6),(0.,1.),.PIECEWISE_BEZIER_KNOTS.);
#418 = CARTESIAN_POINT('',(18.742845672526,44.59985007493,
    95.955874417154));
#419 = CARTESIAN_POINT('',(19.065787674466,43.448227236994,
    97.950543683616));
#420 = CARTESIAN_POINT('',(19.477599363029,42.310821818576,
    99.920592516047));
#421 = CARTESIAN_POINT('',(19.980015353401,41.19297965987,
    101.85675307639));
#422 = CARTESIAN_POINT('',(20.575467430207,40.101514801863,
    103.74721965958));
#423 = CARTESIAN_POINT('',(21.267186424233,39.044975256121,
    105.57719983301));
#424 = PCURVE('',#31,#425);
#425 = DEFINITIONAL_REPRESENTATION('',(#426),#433);
#426 = B_SPLINE_CURVE_WITH_KNOTS('',5,(#427,#428,#429,#430,#431,#432),
  .UNSPECIFIED.,.F.,.F.,(6,6),(0.,1.),.PIECEWISE_BEZIER_KNOTS.);
#427 = CARTESIAN_POINT('',(0.246616391424,0.445998500802));
#428 = CARTESIAN_POINT('',(0.250865629828,0.434482272509));
#429 = CARTESIAN_POINT('',(0.256284211217,0.423108197662));
#430 = CARTESIAN_POINT('',(0.262894956147,0.411929772707));
#431 = CARTESIAN_POINT('',(0.270729836966,0.401015148298));
#432 = CARTESIAN_POINT('',(0.279831401835,0.390449752741));
#433 = ( GEOMETRIC_REPRESENTATION_CONTEXT(2) 
PARAMETRIC_REPRESENTATION_CONTEXT() REPRESENTATION_CONTEXT('2D SPACE',''
  ) );
#434 = PCURVE('',#379,#435);
#435 = DEFINITIONAL_REPRESENTATION('',(#436),#444);
#436 = B_SPLINE_CURVE_WITH_KNOTS('',6,(#437,#438,#439,#440,#441,#442,
    #443),.UNSPECIFIED.,.F.,.F.,(7,7),(0.,1.),.PIECEWISE_BEZIER_KNOTS.);
#437 = CARTESIAN_POINT('',(0.587026346906,0.659558744262));
#438 = CARTESIAN_POINT('',(0.602889424176,0.676180988275));
#439 = CARTESIAN_POINT('',(0.618861826245,0.692639104494));
#440 = CARTESIAN_POINT('',(0.634977391023,0.70888674382));
#441 = CARTESIAN_POINT('',(0.651267896058,0.724869098652));
#442 = CARTESIAN_POINT('',(0.667767335238,0.740522164007));
#443 = CARTESIAN_POINT('',(0.684516195495,0.755771998642));
#444 = ( GEOMETRIC_REPRESENTATION_CONTEXT(2) 
PARAMETRIC_REPRESENTATION_CONTEXT() REPRESENTATION_CONTEXT('2D SPACE',''
  ) );
#445 = ORIENTED_EDGE('',*,*,#446,.T.);
#446 = EDGE_CURVE('',#414,#447,#449,.T.);
#447 = VERTEX_POINT('',#448);
#448 = CARTESIAN_POINT('',(23.111993594916,36.64533928542,
    109.73349090118));
#449 = SURFACE_CURVE('',#450,(#457,#467),.PCURVE_S1.);
#450 = B_SPLINE_CURVE_WITH_KNOTS('',5,(#451,#452,#453,#454,#455,#456),
  .UNSPECIFIED.,.F.,.F.,(6,6),(0.,1.),.PIECEWISE_BEZIER_KNOTS.);
#451 = CARTESIAN_POINT('',(21.267186424233,39.044975256121,
    105.57719983301));
#452 = CARTESIAN_POINT('',(21.59288050999,38.547506364289,
    106.43884122885));
#453 = CARTESIAN_POINT('',(21.939861435624,38.057864742972,
    107.2869267006));
#454 = CARTESIAN_POINT('',(22.3084857273,37.576892938686,108.11999366409
    ));
#455 = CARTESIAN_POINT('',(22.699101849033,37.105638878222,
    108.93622896153));
#456 = CARTESIAN_POINT('',(23.111993594916,36.64533928542,
    109.73349090118));
#457 = PCURVE('',#31,#458);
#458 = DEFINITIONAL_REPRESENTATION('',(#459),#466);
#459 = B_SPLINE_CURVE_WITH_KNOTS('',5,(#460,#461,#462,#463,#464,#465),
  .UNSPECIFIED.,.F.,.F.,(6,6),(0.,1.),.PIECEWISE_BEZIER_KNOTS.);
#460 = CARTESIAN_POINT('',(0.279831401835,0.390449752741));
#461 = CARTESIAN_POINT('',(0.284116849934,0.385475063777));
#462 = CARTESIAN_POINT('',(0.28868239107,0.380578642236));
#463 = CARTESIAN_POINT('',(0.293532702175,0.375768925652));
#464 = CARTESIAN_POINT('',(0.298672392789,0.371056388828));
#465 = CARTESIAN_POINT('',(0.304105177384,0.366453394122));
#466 = ( GEOMETRIC_REPRESENTATION_CONTEXT(2) 
PARAMETRIC_REPRESENTATION_CONTEXT() REPRESENTATION_CONTEXT('2D SPACE',''
  ) );
#467 = PCURVE('',#379,#468);
#468 = DEFINITIONAL_REPRESENTATION('',(#469),#477);
#469 = B_SPLINE_CURVE_WITH_KNOTS('',6,(#470,#471,#472,#473,#474,#475,
    #476),.UNSPECIFIED.,.F.,.F.,(7,7),(0.,1.),.PIECEWISE_BEZIER_KNOTS.);
#470 = CARTESIAN_POINT('',(0.684516195495,0.755771998642));
#471 = CARTESIAN_POINT('',(0.692402352702,0.762952343541));
#472 = CARTESIAN_POINT('',(0.700342735335,0.770042318221));
#473 = CARTESIAN_POINT('',(0.708342012808,0.77703460396));
#474 = CARTESIAN_POINT('',(0.716404507088,0.783920721094));
#475 = CARTESIAN_POINT('',(0.72453431278,0.790691059268));
#476 = CARTESIAN_POINT('',(0.732735417207,0.79733490768));
#477 = ( GEOMETRIC_REPRESENTATION_CONTEXT(2) 
PARAMETRIC_REPRESENTATION_CONTEXT() REPRESENTATION_CONTEXT('2D SPACE',''
  ) );
#478 = ORIENTED_EDGE('',*,*,#479,.T.);
#479 = EDGE_CURVE('',#447,#480,#482,.T.);
#480 = VERTEX_POINT('',#481);
#481 = CARTESIAN_POINT('',(26.307097832685,33.774221697688,
    114.70641279039));
#482 = SURFACE_CURVE('',#483,(#490,#500),.PCURVE_S1.);
#483 = B_SPLINE_CURVE_WITH_KNOTS('',5,(#484,#485,#486,#487,#488,#489),
  .UNSPECIFIED.,.F.,.F.,(6,6),(0.,1.),.PIECEWISE_BEZIER_KNOTS.);
#484 = CARTESIAN_POINT('',(23.111993594916,36.64533928542,
    109.73349090118));
#485 = CARTESIAN_POINT('',(23.66881702693,36.024581903916,
    110.80867376418));
#486 = CARTESIAN_POINT('',(24.266152806256,35.423747377013,
    111.84934984326));
#487 = CARTESIAN_POINT('',(24.904708013274,34.845872758745,
    112.85026173501));
#488 = CARTESIAN_POINT('',(25.584974001471,34.294612141785,
    113.80507010144));
#489 = CARTESIAN_POINT('',(26.307097832677,33.774221697694,
    114.70641279038));
#490 = PCURVE('',#31,#491);
#491 = DEFINITIONAL_REPRESENTATION('',(#492),#499);
#492 = B_SPLINE_CURVE_WITH_KNOTS('',5,(#493,#494,#495,#496,#497,#498),
  .UNSPECIFIED.,.F.,.F.,(6,6),(0.,1.),.PIECEWISE_BEZIER_KNOTS.);
#493 = CARTESIAN_POINT('',(0.304105177384,0.366453394122));
#494 = CARTESIAN_POINT('',(0.311431799424,0.360245821951));
#495 = CARTESIAN_POINT('',(0.319291460908,0.35423747261));
#496 = CARTESIAN_POINT('',(0.327693543665,0.348458718977));
#497 = CARTESIAN_POINT('',(0.336644398749,0.34294612248));
#498 = CARTESIAN_POINT('',(0.346146027266,0.337742217817));
#499 = ( GEOMETRIC_REPRESENTATION_CONTEXT(2) 
PARAMETRIC_REPRESENTATION_CONTEXT() REPRESENTATION_CONTEXT('2D SPACE',''
  ) );
#500 = PCURVE('',#379,#501);
#501 = DEFINITIONAL_REPRESENTATION('',(#502),#510);
#502 = B_SPLINE_CURVE_WITH_KNOTS('',6,(#503,#504,#505,#506,#507,#508,
    #509),.UNSPECIFIED.,.F.,.F.,(7,7),(0.,1.),.PIECEWISE_BEZIER_KNOTS.);
#503 = CARTESIAN_POINT('',(0.732735417207,0.79733490768));
#504 = CARTESIAN_POINT('',(0.743795379427,0.806294763403));
#505 = CARTESIAN_POINT('',(0.754985013116,0.815024571383));
#506 = CARTESIAN_POINT('',(0.766314097973,0.823498061271));
#507 = CARTESIAN_POINT('',(0.777792058851,0.831685322778));
#508 = CARTESIAN_POINT('',(0.789428501426,0.839552940604));
#509 = CARTESIAN_POINT('',(0.801233747857,0.847064129358));
#510 = ( GEOMETRIC_REPRESENTATION_CONTEXT(2) 
PARAMETRIC_REPRESENTATION_CONTEXT() REPRESENTATION_CONTEXT('2D SPACE',''
  ) );
#511 = ORIENTED_EDGE('',*,*,#512,.T.);
#512 = EDGE_CURVE('',#480,#513,#515,.T.);
#513 = VERTEX_POINT('',#514);
#514 = CARTESIAN_POINT('',(32.037134227781,30.909577880745,
    119.66812142693));
#515 = SURFACE_CURVE('',#516,(#523,#533),.PCURVE_S1.);
#516 = B_SPLINE_CURVE_WITH_KNOTS('',5,(#517,#518,#519,#520,#521,#522),
  .UNSPECIFIED.,.F.,.F.,(6,6),(0.,1.),.PIECEWISE_BEZIER_KNOTS.);
#517 = CARTESIAN_POINT('',(26.307097832693,33.774221697682,
    114.7064127904));
#518 = CARTESIAN_POINT('',(27.300757216834,33.058152201229,
    115.94668154001));
#519 = CARTESIAN_POINT('',(28.373279095227,32.400816652512,
    117.08522305763));
#520 = CARTESIAN_POINT('',(29.524545671668,31.813383769872,
    118.10268096545));
#521 = CARTESIAN_POINT('',(30.750322867662,31.311511984916,
    118.97195113721));
#522 = CARTESIAN_POINT('',(32.037134227781,30.909577880745,
    119.66812142693));
#523 = PCURVE('',#31,#524);
#524 = DEFINITIONAL_REPRESENTATION('',(#525),#532);
#525 = B_SPLINE_CURVE_WITH_KNOTS('',5,(#526,#527,#528,#529,#530,#531),
  .UNSPECIFIED.,.F.,.F.,(6,6),(0.,1.),.PIECEWISE_BEZIER_KNOTS.);
#526 = CARTESIAN_POINT('',(0.346146027267,0.337742217816));
#527 = CARTESIAN_POINT('',(0.359220491666,0.33058152256));
#528 = CARTESIAN_POINT('',(0.373332628945,0.324008156194));
#529 = CARTESIAN_POINT('',(0.388480852019,0.318133841849));
#530 = CARTESIAN_POINT('',(0.40460951482,0.313115121942));
#531 = CARTESIAN_POINT('',(0.421541241178,0.309095779671));
#532 = ( GEOMETRIC_REPRESENTATION_CONTEXT(2) 
PARAMETRIC_REPRESENTATION_CONTEXT() REPRESENTATION_CONTEXT('2D SPACE',''
  ) );
#533 = PCURVE('',#379,#534);
#534 = DEFINITIONAL_REPRESENTATION('',(#535),#543);
#535 = B_SPLINE_CURVE_WITH_KNOTS('',6,(#536,#537,#538,#539,#540,#541,
    #542),.UNSPECIFIED.,.F.,.F.,(7,7),(0.,1.),.PIECEWISE_BEZIER_KNOTS.);
#536 = CARTESIAN_POINT('',(0.801233747857,0.847064129358));
#537 = CARTESIAN_POINT('',(0.817478044768,0.85739970185));
#538 = CARTESIAN_POINT('',(0.834036838715,0.867057100236));
#539 = CARTESIAN_POINT('',(0.850933598254,0.875938771791));
#540 = CARTESIAN_POINT('',(0.868174620009,0.883924364619));
#541 = CARTESIAN_POINT('',(0.885752639505,0.890879798459));
#542 = CARTESIAN_POINT('',(0.903632671312,0.896681215765));
#543 = ( GEOMETRIC_REPRESENTATION_CONTEXT(2) 
PARAMETRIC_REPRESENTATION_CONTEXT() REPRESENTATION_CONTEXT('2D SPACE',''
  ) );
#544 = ORIENTED_EDGE('',*,*,#545,.T.);
#545 = EDGE_CURVE('',#513,#546,#548,.T.);
#546 = VERTEX_POINT('',#547);
#547 = CARTESIAN_POINT('',(38.,30.,121.24355652982));
#548 = SURFACE_CURVE('',#549,(#556,#566),.PCURVE_S1.);
#549 = B_SPLINE_CURVE_WITH_KNOTS('',5,(#550,#551,#552,#553,#554,#555),
  .UNSPECIFIED.,.F.,.F.,(6,6),(0.,1.),.PIECEWISE_BEZIER_KNOTS.);
#550 = CARTESIAN_POINT('',(32.037134227781,30.909577880745,
    119.66812142693));
#551 = CARTESIAN_POINT('',(33.162481527603,30.55807689711,
    120.27693898949));
#552 = CARTESIAN_POINT('',(34.334818027939,30.282910394538,
    120.75354254303));
#553 = CARTESIAN_POINT('',(35.5431124555,30.094281875789,121.08025458458
    ));
#554 = CARTESIAN_POINT('',(36.771797913136,30.,121.24355652982));
#555 = CARTESIAN_POINT('',(38.,30.,121.24355652982));
#556 = PCURVE('',#31,#557);
#557 = DEFINITIONAL_REPRESENTATION('',(#558),#565);
#558 = B_SPLINE_CURVE_WITH_KNOTS('',5,(#559,#560,#561,#562,#563,#564),
  .UNSPECIFIED.,.F.,.F.,(6,6),(0.,1.),.PIECEWISE_BEZIER_KNOTS.);
#559 = CARTESIAN_POINT('',(0.421541241178,0.309095779671));
#560 = CARTESIAN_POINT('',(0.436348440677,0.305580768762));
#561 = CARTESIAN_POINT('',(0.451773922537,0.3028290993));
#562 = CARTESIAN_POINT('',(0.46767253239,0.300942837282));
#563 = CARTESIAN_POINT('',(0.483839446266,0.3));
#564 = CARTESIAN_POINT('',(0.5,0.3));
#565 = ( GEOMETRIC_REPRESENTATION_CONTEXT(2) 
PARAMETRIC_REPRESENTATION_CONTEXT() REPRESENTATION_CONTEXT('2D SPACE',''
  ) );
#566 = PCURVE('',#379,#567);
#567 = DEFINITIONAL_REPRESENTATION('',(#568),#576);
#568 = B_SPLINE_CURVE_WITH_KNOTS('',6,(#569,#570,#571,#572,#573,#574,
    #575),.UNSPECIFIED.,.F.,.F.,(7,7),(0.,1.),.PIECEWISE_BEZIER_KNOTS.);
#569 = CARTESIAN_POINT('',(0.903632671312,0.896681215765));
#570 = CARTESIAN_POINT('',(0.919269186619,0.901754693904));
#571 = CARTESIAN_POINT('',(0.935140118651,0.90594674937));
#572 = CARTESIAN_POINT('',(0.951205293365,0.909168371063));
#573 = CARTESIAN_POINT('',(0.967415798989,0.911346900746));
#574 = CARTESIAN_POINT('',(0.983710463856,0.912435565298));
#575 = CARTESIAN_POINT('',(1.,0.912435565298));
#576 = ( GEOMETRIC_REPRESENTATION_CONTEXT(2) 
PARAMETRIC_REPRESENTATION_CONTEXT() REPRESENTATION_CONTEXT('2D SPACE',''
  ) );
#577 = ORIENTED_EDGE('',*,*,#578,.T.);
#578 = EDGE_CURVE('',#546,#579,#581,.T.);
#579 = VERTEX_POINT('',#580);
#580 = CARTESIAN_POINT('',(43.580756332266,30.794397984385,
    119.86761885943));
#581 = SURFACE_CURVE('',#582,(#589,#599),.PCURVE_S1.);
#582 = B_SPLINE_CURVE_WITH_KNOTS('',5,(#583,#584,#585,#586,#587,#588),
  .UNSPECIFIED.,.F.,.F.,(6,6),(0.,1.),.PIECEWISE_BEZIER_KNOTS.);
#583 = CARTESIAN_POINT('',(38.,30.,121.24355652982));
#584 = CARTESIAN_POINT('',(39.145271472602,30.,121.24355652982));
#585 = CARTESIAN_POINT('',(40.290898800914,30.081979585718,
    121.10155451348));
#586 = CARTESIAN_POINT('',(41.4201269343,30.245989250154,120.81747981394
    ));
#587 = CARTESIAN_POINT('',(42.519939300365,30.486145813258,
    120.40152728137));
#588 = CARTESIAN_POINT('',(43.580756329418,30.794397983557,
    119.86761886087));
#589 = PCURVE('',#31,#590);
#590 = DEFINITIONAL_REPRESENTATION('',(#591),#598);
#591 = B_SPLINE_CURVE_WITH_KNOTS('',5,(#592,#593,#594,#595,#596,#597),
  .UNSPECIFIED.,.F.,.F.,(6,6),(0.,1.),.PIECEWISE_BEZIER_KNOTS.);
#592 = CARTESIAN_POINT('',(0.5,0.3));
#593 = CARTESIAN_POINT('',(0.515069361643,0.3));
#594 = CARTESIAN_POINT('',(0.530143405598,0.300819812516));
#595 = CARTESIAN_POINT('',(0.54500172832,0.302459900698));
#596 = CARTESIAN_POINT('',(0.559472886964,0.30486145699));
#597 = CARTESIAN_POINT('',(0.573431003642,0.307943980213));
#598 = ( GEOMETRIC_REPRESENTATION_CONTEXT(2) 
PARAMETRIC_REPRESENTATION_CONTEXT() REPRESENTATION_CONTEXT('2D SPACE',''
  ) );
#599 = PCURVE('',#600,#623);
#600 = B_SPLINE_SURFACE_WITH_KNOTS('',10,1,(
    (#601,#602)
    ,(#603,#604)
    ,(#605,#606)
    ,(#607,#608)
    ,(#609,#610)
    ,(#611,#612)
    ,(#613,#614)
    ,(#615,#616)
    ,(#617,#618)
    ,(#619,#620)
    ,(#621,#622
    )),.UNSPECIFIED.,.F.,.F.,.F.,(11,11),(2,2),(0.,1.),(0.,1.),
  .PIECEWISE_BEZIER_KNOTS.);
#601 = CARTESIAN_POINT('',(38.,30.,30.));
#602 = CARTESIAN_POINT('',(38.,30.,130.));
#603 = CARTESIAN_POINT('',(44.28318530718,30.,30.));
#604 = CARTESIAN_POINT('',(44.28318530718,30.,130.));
#605 = CARTESIAN_POINT('',(50.566370614359,32.193245422464,30.));
#606 = CARTESIAN_POINT('',(50.566370614359,32.193245422464,130.));
#607 = CARTESIAN_POINT('',(55.988270458197,36.579736267393,30.));
#608 = CARTESIAN_POINT('',(55.988270458197,36.579736267393,130.));
#609 = CARTESIAN_POINT('',(59.687599375352,42.772928522746,30.));
#610 = CARTESIAN_POINT('',(59.687599375352,42.772928522746,130.));
#611 = CARTESIAN_POINT('',(61.0054658739,50.,30.));
#612 = CARTESIAN_POINT('',(61.0054658739,50.,130.));
#613 = CARTESIAN_POINT('',(59.687599375352,57.227071477254,30.));
#614 = CARTESIAN_POINT('',(59.687599375352,57.227071477254,130.));
#615 = CARTESIAN_POINT('',(55.988270458197,63.420263732607,30.));
#616 = CARTESIAN_POINT('',(55.988270458197,63.420263732607,130.));
#617 = CARTESIAN_POINT('',(50.566370614359,67.806754577536,30.));
#618 = CARTESIAN_POINT('',(50.566370614359,67.806754577536,130.));
#619 = CARTESIAN_POINT('',(44.28318530718,70.,30.));
#620 = CARTESIAN_POINT('',(44.28318530718,70.,130.));
#621 = CARTESIAN_POINT('',(38.,70.,30.));
#622 = CARTESIAN_POINT('',(38.,70.,130.));
#623 = DEFINITIONAL_REPRESENTATION('',(#624),#632);
#624 = B_SPLINE_CURVE_WITH_KNOTS('',6,(#625,#626,#627,#628,#629,#630,
    #631),.UNSPECIFIED.,.F.,.F.,(7,7),(0.,1.),.PIECEWISE_BEZIER_KNOTS.);
#625 = CARTESIAN_POINT('',(0.,0.912435565298));
#626 = CARTESIAN_POINT('',(1.518963450806E-02,0.912435565298));
#627 = CARTESIAN_POINT('',(3.038304476243E-02,0.911488843034));
#628 = CARTESIAN_POINT('',(4.550954256433E-02,0.909595092936));
#629 = CARTESIAN_POINT('',(6.051676846702E-02,0.906788226259));
#630 = CARTESIAN_POINT('',(7.536400407284E-02,0.903125423905));
#631 = CARTESIAN_POINT('',(9.001548433027E-02,0.898676189262));
#632 = ( GEOMETRIC_REPRESENTATION_CONTEXT(2) 
PARAMETRIC_REPRESENTATION_CONTEXT() REPRESENTATION_CONTEXT('2D SPACE',''
  ) );
#633 = ORIENTED_EDGE('',*,*,#634,.T.);
#634 = EDGE_CURVE('',#579,#635,#637,.T.);
#635 = VERTEX_POINT('',#636);
#636 = CARTESIAN_POINT('',(49.304389760394,33.501192968322,
    115.17931242158));
#637 = SURFACE_CURVE('',#638,(#645,#655),.PCURVE_S1.);
#638 = B_SPLINE_CURVE_WITH_KNOTS('',5,(#639,#640,#641,#642,#643,#644),
  .UNSPECIFIED.,.F.,.F.,(6,6),(0.,1.),.PIECEWISE_BEZIER_KNOTS.);
#639 = CARTESIAN_POINT('',(43.580756335115,30.794397985213,119.867618858
    ));
#640 = CARTESIAN_POINT('',(44.857920425154,31.165516276339,
    119.22482312215));
#641 = CARTESIAN_POINT('',(46.078860370245,31.635424672571,
    118.4109152327));
#642 = CARTESIAN_POINT('',(47.229485898368,32.190761190897,
    117.44904973215));
#643 = CARTESIAN_POINT('',(48.304880282337,32.816363491609,
    116.36547186977));
#644 = CARTESIAN_POINT('',(49.304389760394,33.501192968322,
    115.17931242158));
#645 = PCURVE('',#31,#646);
#646 = DEFINITIONAL_REPRESENTATION('',(#647),#654);
#647 = B_SPLINE_CURVE_WITH_KNOTS('',5,(#648,#649,#650,#651,#652,#653),
  .UNSPECIFIED.,.F.,.F.,(6,6),(0.,1.),.PIECEWISE_BEZIER_KNOTS.);
#648 = CARTESIAN_POINT('',(0.573431003792,0.307943980246));
#649 = CARTESIAN_POINT('',(0.590235791678,0.311655164945));
#650 = CARTESIAN_POINT('',(0.606300802783,0.316354252161));
#651 = CARTESIAN_POINT('',(0.621440596822,0.321907601212));
#652 = CARTESIAN_POINT('',(0.635590531123,0.328163634601));
#653 = CARTESIAN_POINT('',(0.648741968301,0.335011930271));
#654 = ( GEOMETRIC_REPRESENTATION_CONTEXT(2) 
PARAMETRIC_REPRESENTATION_CONTEXT() REPRESENTATION_CONTEXT('2D SPACE',''
  ) );
#655 = PCURVE('',#600,#656);
#656 = DEFINITIONAL_REPRESENTATION('',(#657),#665);
#657 = B_SPLINE_CURVE_WITH_KNOTS('',6,(#658,#659,#660,#661,#662,#663,
    #664),.UNSPECIFIED.,.F.,.F.,(7,7),(0.,1.),.PIECEWISE_BEZIER_KNOTS.);
#658 = CARTESIAN_POINT('',(9.001548433027E-02,0.898676189262));
#659 = CARTESIAN_POINT('',(0.10765504344,0.89331956071));
#660 = CARTESIAN_POINT('',(0.125014215104,0.886822168346));
#661 = CARTESIAN_POINT('',(0.142053101323,0.879299057964));
#662 = CARTESIAN_POINT('',(0.158760458586,0.870878577861));
#663 = CARTESIAN_POINT('',(0.17513899973,0.861677785999));
#664 = CARTESIAN_POINT('',(0.191208536699,0.851793125234));
#665 = ( GEOMETRIC_REPRESENTATION_CONTEXT(2) 
PARAMETRIC_REPRESENTATION_CONTEXT() REPRESENTATION_CONTEXT('2D SPACE',''
  ) );
#666 = ORIENTED_EDGE('',*,*,#667,.T.);
#667 = EDGE_CURVE('',#635,#668,#670,.T.);
#668 = VERTEX_POINT('',#669);
#669 = CARTESIAN_POINT('',(52.952783561839,36.717908366344,
    109.60779794736));
#670 = SURFACE_CURVE('',#671,(#678,#688),.PCURVE_S1.);
#671 = B_SPLINE_CURVE_WITH_KNOTS('',5,(#672,#673,#674,#675,#676,#677),
  .UNSPECIFIED.,.F.,.F.,(6,6),(0.,1.),.PIECEWISE_BEZIER_KNOTS.);
#672 = CARTESIAN_POINT('',(49.304389760394,33.501192968322,
    115.17931242158));
#673 = CARTESIAN_POINT('',(50.140148436524,34.073826034239,
    114.18748285732));
#674 = CARTESIAN_POINT('',(50.922584555676,34.687687562716,
    113.12424634999));
#675 = CARTESIAN_POINT('',(51.65166080895,35.336403964991,
    112.00063272941));
#676 = CARTESIAN_POINT('',(52.328043352061,36.014583894786,
    110.82599114853));
#677 = CARTESIAN_POINT('',(52.952783561748,36.717908366243,
    109.60779794754));
#678 = PCURVE('',#31,#679);
#679 = DEFINITIONAL_REPRESENTATION('',(#680),#687);
#680 = B_SPLINE_CURVE_WITH_KNOTS('',5,(#681,#682,#683,#684,#685,#686),
  .UNSPECIFIED.,.F.,.F.,(6,6),(0.,1.),.PIECEWISE_BEZIER_KNOTS.);
#681 = CARTESIAN_POINT('',(0.648741968301,0.335011930271));
#682 = CARTESIAN_POINT('',(0.659738790234,0.340738261699));
#683 = CARTESIAN_POINT('',(0.670033987033,0.346876868791));
#684 = CARTESIAN_POINT('',(0.679627146957,0.353364038699));
#685 = CARTESIAN_POINT('',(0.688526888262,0.360145840713));
#686 = CARTESIAN_POINT('',(0.696747152005,0.367179083557));
#687 = ( GEOMETRIC_REPRESENTATION_CONTEXT(2) 
PARAMETRIC_REPRESENTATION_CONTEXT() REPRESENTATION_CONTEXT('2D SPACE',''
  ) );
#688 = PCURVE('',#600,#689);
#689 = DEFINITIONAL_REPRESENTATION('',(#690),#698);
#690 = B_SPLINE_CURVE_WITH_KNOTS('',6,(#691,#692,#693,#694,#695,#696,
    #697),.UNSPECIFIED.,.F.,.F.,(7,7),(0.,1.),.PIECEWISE_BEZIER_KNOTS.);
#691 = CARTESIAN_POINT('',(0.191208536699,0.851793125234));
#692 = CARTESIAN_POINT('',(0.204645382679,0.843527879975));
#693 = CARTESIAN_POINT('',(0.217862769491,0.834786597072));
#694 = CARTESIAN_POINT('',(0.230874824279,0.82562439788));
#695 = CARTESIAN_POINT('',(0.243694794343,0.816090846959));
#696 = CARTESIAN_POINT('',(0.256335995445,0.806229587972));
#697 = CARTESIAN_POINT('',(0.268812760104,0.796077979579));
#698 = ( GEOMETRIC_REPRESENTATION_CONTEXT(2) 
PARAMETRIC_REPRESENTATION_CONTEXT() REPRESENTATION_CONTEXT('2D SPACE',''
  ) );
#699 = ORIENTED_EDGE('',*,*,#700,.T.);
#700 = EDGE_CURVE('',#668,#701,#703,.T.);
#701 = VERTEX_POINT('',#702);
#702 = CARTESIAN_POINT('',(54.481061409398,38.669764225972,
    106.22708440079));
#703 = SURFACE_CURVE('',#704,(#711,#721),.PCURVE_S1.);
#704 = B_SPLINE_CURVE_WITH_KNOTS('',5,(#705,#706,#707,#708,#709,#710),
  .UNSPECIFIED.,.F.,.F.,(6,6),(0.,1.),.PIECEWISE_BEZIER_KNOTS.);
#705 = CARTESIAN_POINT('',(52.952783561929,36.717908366446,
    109.60779794718));
#706 = CARTESIAN_POINT('',(53.287793295722,37.095058004497,
    108.95455588967));
#707 = CARTESIAN_POINT('',(53.607952999175,37.479438040293,
    108.28879041694));
#708 = CARTESIAN_POINT('',(53.913422269336,37.870383319986,
    107.61165335104));
#709 = CARTESIAN_POINT('',(54.204392243173,38.267318247555,
    106.92414128271));
#710 = CARTESIAN_POINT('',(54.481061409386,38.669764225955,
    106.22708440082));
#711 = PCURVE('',#31,#712);
#712 = DEFINITIONAL_REPRESENTATION('',(#713),#720);
#713 = B_SPLINE_CURVE_WITH_KNOTS('',5,(#714,#715,#716,#717,#718,#719),
  .UNSPECIFIED.,.F.,.F.,(6,6),(0.,1.),.PIECEWISE_BEZIER_KNOTS.);
#714 = CARTESIAN_POINT('',(0.69674715201,0.367179083561));
#715 = CARTESIAN_POINT('',(0.701155173655,0.370950578937));
#716 = CARTESIAN_POINT('',(0.705367805381,0.374794377393));
#717 = CARTESIAN_POINT('',(0.709387135134,0.378703830563));
#718 = CARTESIAN_POINT('',(0.713215687825,0.382673182422));
#719 = CARTESIAN_POINT('',(0.716856070501,0.38669764235));
#720 = ( GEOMETRIC_REPRESENTATION_CONTEXT(2) 
PARAMETRIC_REPRESENTATION_CONTEXT() REPRESENTATION_CONTEXT('2D SPACE',''
  ) );
#721 = PCURVE('',#600,#722);
#722 = DEFINITIONAL_REPRESENTATION('',(#723),#731);
#723 = B_SPLINE_CURVE_WITH_KNOTS('',6,(#724,#725,#726,#727,#728,#729,
    #730),.UNSPECIFIED.,.F.,.F.,(7,7),(0.,1.),.PIECEWISE_BEZIER_KNOTS.);
#724 = CARTESIAN_POINT('',(0.268812760104,0.796077979579));
#725 = CARTESIAN_POINT('',(0.27550328129,0.79063429663));
#726 = CARTESIAN_POINT('',(0.282146518498,0.785107123218));
#727 = CARTESIAN_POINT('',(0.28874468175,0.779502219907));
#728 = CARTESIAN_POINT('',(0.295300065139,0.773824827584));
#729 = CARTESIAN_POINT('',(0.301815088877,0.768079651307));
#730 = CARTESIAN_POINT('',(0.308292341341,0.762270844164));
#731 = ( GEOMETRIC_REPRESENTATION_CONTEXT(2) 
PARAMETRIC_REPRESENTATION_CONTEXT() REPRESENTATION_CONTEXT('2D SPACE',''
  ) );
#732 = ORIENTED_EDGE('',*,*,#733,.T.);
#733 = EDGE_CURVE('',#701,#734,#736,.T.);
#734 = VERTEX_POINT('',#735);
#735 = CARTESIAN_POINT('',(57.147971512546,44.224639055837,
    96.605758965783));
#736 = SURFACE_CURVE('',#737,(#744,#754),.PCURVE_S1.);
#737 = B_SPLINE_CURVE_WITH_KNOTS('',5,(#738,#739,#740,#741,#742,#743),
  .UNSPECIFIED.,.F.,.F.,(6,6),(0.,1.),.PIECEWISE_BEZIER_KNOTS.);
#738 = CARTESIAN_POINT('',(54.48106140941,38.66976422599,106.22708440076
    ));
#739 = CARTESIAN_POINT('',(55.204726906403,39.72241592896,
    104.40383816854));
#740 = CARTESIAN_POINT('',(55.830277729894,40.812371646367,
    102.51598605207));
#741 = CARTESIAN_POINT('',(56.361064021708,41.930568865114,
    100.57921042673));
#742 = CARTESIAN_POINT('',(56.799664253582,43.069841720684,
    98.605926622714));
#743 = CARTESIAN_POINT('',(57.147971512545,44.224639055837,
    96.605758965783));
#744 = PCURVE('',#31,#745);
#745 = DEFINITIONAL_REPRESENTATION('',(#746),#753);
#746 = B_SPLINE_CURVE_WITH_KNOTS('',5,(#747,#748,#749,#750,#751,#752),
  .UNSPECIFIED.,.F.,.F.,(6,6),(0.,1.),.PIECEWISE_BEZIER_KNOTS.);
#747 = CARTESIAN_POINT('',(0.716856070501,0.38669764235));
#748 = CARTESIAN_POINT('',(0.726377982074,0.397224159744));
#749 = CARTESIAN_POINT('',(0.734608892424,0.408123691234));
#750 = CARTESIAN_POINT('',(0.741592939995,0.419305666009));
#751 = CARTESIAN_POINT('',(0.747364001477,0.430698417314));
#752 = CARTESIAN_POINT('',(0.75194699215,0.442246390632));
#753 = ( GEOMETRIC_REPRESENTATION_CONTEXT(2) 
PARAMETRIC_REPRESENTATION_CONTEXT() REPRESENTATION_CONTEXT('2D SPACE',''
  ) );
#754 = PCURVE('',#600,#755);
#755 = DEFINITIONAL_REPRESENTATION('',(#756),#764);
#756 = B_SPLINE_CURVE_WITH_KNOTS('',6,(#757,#758,#759,#760,#761,#762,
    #763),.UNSPECIFIED.,.F.,.F.,(7,7),(0.,1.),.PIECEWISE_BEZIER_KNOTS.);
#757 = CARTESIAN_POINT('',(0.308292341341,0.762270844164));
#758 = CARTESIAN_POINT('',(0.325234468262,0.747077126087));
#759 = CARTESIAN_POINT('',(0.341913041882,0.731452715799));
#760 = CARTESIAN_POINT('',(0.358369957124,0.715476000428));
#761 = CARTESIAN_POINT('',(0.374640259605,0.699214501067));
#762 = CARTESIAN_POINT('',(0.39075668317,0.682725653642));
#763 = CARTESIAN_POINT('',(0.40675418743,0.666057589785));
#764 = ( GEOMETRIC_REPRESENTATION_CONTEXT(2) 
PARAMETRIC_REPRESENTATION_CONTEXT() REPRESENTATION_CONTEXT('2D SPACE',''
  ) );
#765 = ORIENTED_EDGE('',*,*,#766,.T.);
#766 = EDGE_CURVE('',#734,#767,#769,.T.);
#767 = VERTEX_POINT('',#768);
#768 = CARTESIAN_POINT('',(57.99992559189,49.999989594118,86.60254037838
    ));
#769 = SURFACE_CURVE('',#770,(#777,#787),.PCURVE_S1.);
#770 = B_SPLINE_CURVE_WITH_KNOTS('',5,(#771,#772,#773,#774,#775,#776),
  .UNSPECIFIED.,.F.,.F.,(6,6),(0.,1.),.PIECEWISE_BEZIER_KNOTS.);
#771 = CARTESIAN_POINT('',(57.147971512545,44.224639055837,
    96.605758965783));
#772 = CARTESIAN_POINT('',(57.490510316057,45.360311331687,
    94.638716883263));
#773 = CARTESIAN_POINT('',(57.745673030165,46.510835319465,
    92.645952794814));
#774 = CARTESIAN_POINT('',(57.915218696838,47.670818592577,
    90.636802065874));
#775 = CARTESIAN_POINT('',(57.999991177128,48.835380378299,
    88.619720734721));
#776 = CARTESIAN_POINT('',(57.999991308707,50.000000000073,
    86.602540378317));
#777 = PCURVE('',#31,#778);
#778 = DEFINITIONAL_REPRESENTATION('',(#779),#786);
#779 = B_SPLINE_CURVE_WITH_KNOTS('',5,(#780,#781,#782,#783,#784,#785),
  .UNSPECIFIED.,.F.,.F.,(6,6),(0.,1.),.PIECEWISE_BEZIER_KNOTS.);
#780 = CARTESIAN_POINT('',(0.75194699215,0.442246390632));
#781 = CARTESIAN_POINT('',(0.75645408209,0.453603113365));
#782 = CARTESIAN_POINT('',(0.759811486896,0.465108344923));
#783 = CARTESIAN_POINT('',(0.762042334663,0.476708180975));
#784 = CARTESIAN_POINT('',(0.763157776797,0.488353803785));
#785 = CARTESIAN_POINT('',(0.76315778026,0.500000000001));
#786 = ( GEOMETRIC_REPRESENTATION_CONTEXT(2) 
PARAMETRIC_REPRESENTATION_CONTEXT() REPRESENTATION_CONTEXT('2D SPACE',''
  ) );
#787 = PCURVE('',#600,#788);
#788 = DEFINITIONAL_REPRESENTATION('',(#789),#797);
#789 = B_SPLINE_CURVE_WITH_KNOTS('',6,(#790,#791,#792,#793,#794,#795,
    #796),.UNSPECIFIED.,.F.,.F.,(7,7),(0.,1.),.PIECEWISE_BEZIER_KNOTS.);
#790 = CARTESIAN_POINT('',(0.40675418743,0.666057589785));
#791 = CARTESIAN_POINT('',(0.422486750629,0.649665572394));
#792 = CARTESIAN_POINT('',(0.438102481264,0.633102078144));
#793 = CARTESIAN_POINT('',(0.45363347313,0.616413778169));
#794 = CARTESIAN_POINT('',(0.469108058603,0.59964441817));
#795 = CARTESIAN_POINT('',(0.484553719843,0.58283524009));
#796 = CARTESIAN_POINT('',(0.5,0.566025403784));
#797 = ( GEOMETRIC_REPRESENTATION_CONTEXT(2) 
PARAMETRIC_REPRESENTATION_CONTEXT() REPRESENTATION_CONTEXT('2D SPACE',''
  ) );
#798 = ORIENTED_EDGE('',*,*,#799,.T.);
#799 = EDGE_CURVE('',#767,#800,#802,.T.);
#800 = VERTEX_POINT('',#801);
#801 = CARTESIAN_POINT('',(57.999459497814,50.1458508334,86.349919308788
    ));
#802 = SURFACE_CURVE('',#803,(#811,#824),.PCURVE_S1.);
#803 = B_SPLINE_CURVE_WITH_KNOTS('',6,(#804,#805,#806,#807,#808,#809,
    #810),.UNSPECIFIED.,.F.,.F.,(7,7),(0.,1.),.PIECEWISE_BEZIER_KNOTS.);
#804 = CARTESIAN_POINT('',(57.99999131765,50.,86.602540378444));
#805 = CARTESIAN_POINT('',(57.99999131765,50.024308695227,
    86.560436483245));
#806 = CARTESIAN_POINT('',(57.99995586701,50.048617348666,
    86.518332660425));
#807 = CARTESIAN_POINT('',(57.999884965541,50.072925925362,
    86.476228970529));
#808 = CARTESIAN_POINT('',(57.999778612951,50.097234390301,86.4341254742
    ));
#809 = CARTESIAN_POINT('',(57.999636808841,50.121542708414,
    86.392022232181));
#810 = CARTESIAN_POINT('',(57.999459552702,50.145850844576,
    86.349919305312));
#811 = PCURVE('',#31,#812);
#812 = DEFINITIONAL_REPRESENTATION('',(#813),#823);
#813 = B_SPLINE_CURVE_WITH_KNOTS('',8,(#814,#815,#816,#817,#818,#819,
    #820,#821,#822),.UNSPECIFIED.,.F.,.F.,(9,9),(0.,1.),
  .PIECEWISE_BEZIER_KNOTS.);
#814 = CARTESIAN_POINT('',(0.76315778026,0.500000000001));
#815 = CARTESIAN_POINT('',(0.763157780314,0.500182296498));
#816 = CARTESIAN_POINT('',(0.763157530497,0.500364598836));
#817 = CARTESIAN_POINT('',(0.763157030781,0.500546906534));
#818 = CARTESIAN_POINT('',(0.763156281138,0.500729219106));
#819 = CARTESIAN_POINT('',(0.763155281545,0.500911536068));
#820 = CARTESIAN_POINT('',(0.763154031982,0.501093856932));
#821 = CARTESIAN_POINT('',(0.763152532427,0.501276181208));
#822 = CARTESIAN_POINT('',(0.763150782865,0.501458508406));
#823 = ( GEOMETRIC_REPRESENTATION_CONTEXT(2) 
PARAMETRIC_REPRESENTATION_CONTEXT() REPRESENTATION_CONTEXT('2D SPACE',''
  ) );
#824 = PCURVE('',#825,#848);
#825 = B_SPLINE_SURFACE_WITH_KNOTS('',10,1,(
    (#826,#827)
    ,(#828,#829)
    ,(#830,#831)
    ,(#832,#833)
    ,(#834,#835)
    ,(#836,#837)
    ,(#838,#839)
    ,(#840,#841)
    ,(#842,#843)
    ,(#844,#845)
    ,(#846,#847
    )),.UNSPECIFIED.,.F.,.F.,.F.,(11,11),(2,2),(0.,1.),(0.,1.),
  .PIECEWISE_BEZIER_KNOTS.);
#826 = CARTESIAN_POINT('',(38.,30.,30.));
#827 = CARTESIAN_POINT('',(38.,30.,130.));
#828 = CARTESIAN_POINT('',(44.28318530718,30.,30.));
#829 = CARTESIAN_POINT('',(44.28318530718,30.,130.));
#830 = CARTESIAN_POINT('',(50.566370614359,32.193245422464,30.));
#831 = CARTESIAN_POINT('',(50.566370614359,32.193245422464,130.));
#832 = CARTESIAN_POINT('',(55.988270458197,36.579736267393,30.));
#833 = CARTESIAN_POINT('',(55.988270458197,36.579736267393,130.));
#834 = CARTESIAN_POINT('',(59.687599375352,42.772928522746,30.));
#835 = CARTESIAN_POINT('',(59.687599375352,42.772928522746,130.));
#836 = CARTESIAN_POINT('',(61.0054658739,50.,30.));
#837 = CARTESIAN_POINT('',(61.0054658739,50.,130.));
#838 = CARTESIAN_POINT('',(59.687599375352,57.227071477254,30.));
#839 = CARTESIAN_POINT('',(59.687599375352,57.227071477254,130.));
#840 = CARTESIAN_POINT('',(55.988270458197,63.420263732607,30.));
#841 = CARTESIAN_POINT('',(55.988270458197,63.420263732607,130.));
#842 = CARTESIAN_POINT('',(50.566370614359,67.806754577536,30.));
#843 = CARTESIAN_POINT('',(50.566370614359,67.806754577536,130.));
#844 = CARTESIAN_POINT('',(44.28318530718,70.,30.));
#845 = CARTESIAN_POINT('',(44.28318530718,70.,130.));
#846 = CARTESIAN_POINT('',(38.,70.,30.));
#847 = CARTESIAN_POINT('',(38.,70.,130.));
#848 = DEFINITIONAL_REPRESENTATION('',(#849),#857);
#849 = B_SPLINE_CURVE_WITH_KNOTS('',6,(#850,#851,#852,#853,#854,#855,
    #856),.UNSPECIFIED.,.F.,.F.,(7,7),(0.,1.),.PIECEWISE_BEZIER_KNOTS.);
#850 = CARTESIAN_POINT('',(0.5,0.566025403784));
#851 = CARTESIAN_POINT('',(0.500386885719,0.565604364832));
#852 = CARTESIAN_POINT('',(0.500773770752,0.565183326604));
#853 = CARTESIAN_POINT('',(0.501160655571,0.564762289705));
#854 = CARTESIAN_POINT('',(0.501547540651,0.564341254742));
#855 = CARTESIAN_POINT('',(0.501934426465,0.563920222322));
#856 = CARTESIAN_POINT('',(0.502321313482,0.563499193053));
#857 = ( GEOMETRIC_REPRESENTATION_CONTEXT(2) 
PARAMETRIC_REPRESENTATION_CONTEXT() REPRESENTATION_CONTEXT('2D SPACE',''
  ) );
#858 = ORIENTED_EDGE('',*,*,#859,.T.);
#859 = EDGE_CURVE('',#800,#860,#862,.T.);
#860 = VERTEX_POINT('',#861);
#861 = CARTESIAN_POINT('',(56.775527874333,56.890511770228,
    74.667823902257));
#862 = SURFACE_CURVE('',#863,(#870,#880),.PCURVE_S1.);
#863 = B_SPLINE_CURVE_WITH_KNOTS('',5,(#864,#865,#866,#867,#868,#869),
  .UNSPECIFIED.,.F.,.F.,(6,6),(0.,1.),.PIECEWISE_BEZIER_KNOTS.);
#864 = CARTESIAN_POINT('',(57.999459497814,50.1458508334,86.349919308788
    ));
#865 = CARTESIAN_POINT('',(57.989501726243,51.511285021978,
    83.984917640251));
#866 = CARTESIAN_POINT('',(57.863010821701,52.876119255826,
    81.620952464324));
#867 = CARTESIAN_POINT('',(57.619905001927,54.233149389802,
    79.270504008681));
#868 = CARTESIAN_POINT('',(57.258549845382,55.574355417516,
    76.94747357586));
#869 = CARTESIAN_POINT('',(56.775527874333,56.890511770228,
    74.667823902257));
#870 = PCURVE('',#31,#871);
#871 = DEFINITIONAL_REPRESENTATION('',(#872),#879);
#872 = B_SPLINE_CURVE_WITH_KNOTS('',5,(#873,#874,#875,#876,#877,#878),
  .UNSPECIFIED.,.F.,.F.,(6,6),(0.,1.),.PIECEWISE_BEZIER_KNOTS.);
#873 = CARTESIAN_POINT('',(0.763150782865,0.501458508406));
#874 = CARTESIAN_POINT('',(0.763019759537,0.515112851494));
#875 = CARTESIAN_POINT('',(0.761355374762,0.528761206509));
#876 = CARTESIAN_POINT('',(0.75815663015,0.542331521295));
#877 = CARTESIAN_POINT('',(0.753401968875,0.555743553991));
#878 = CARTESIAN_POINT('',(0.747046418448,0.568905117638));
#879 = ( GEOMETRIC_REPRESENTATION_CONTEXT(2) 
PARAMETRIC_REPRESENTATION_CONTEXT() REPRESENTATION_CONTEXT('2D SPACE',''
  ) );
#880 = PCURVE('',#825,#881);
#881 = DEFINITIONAL_REPRESENTATION('',(#882),#890);
#882 = B_SPLINE_CURVE_WITH_KNOTS('',6,(#883,#884,#885,#886,#887,#888,
    #889),.UNSPECIFIED.,.F.,.F.,(7,7),(0.,1.),.PIECEWISE_BEZIER_KNOTS.);
#883 = CARTESIAN_POINT('',(0.502321313482,0.563499193053));
#884 = CARTESIAN_POINT('',(0.520431465148,0.543790845222));
#885 = CARTESIAN_POINT('',(0.538544255621,0.52408940286));
#886 = CARTESIAN_POINT('',(0.556708032507,0.504457269248));
#887 = CARTESIAN_POINT('',(0.574966624354,0.484961593169));
#888 = CARTESIAN_POINT('',(0.593365913623,0.465675319352));
#889 = CARTESIAN_POINT('',(0.611960409666,0.446678238911));
#890 = ( GEOMETRIC_REPRESENTATION_CONTEXT(2) 
PARAMETRIC_REPRESENTATION_CONTEXT() REPRESENTATION_CONTEXT('2D SPACE',''
  ) );
#891 = ORIENTED_EDGE('',*,*,#892,.T.);
#892 = EDGE_CURVE('',#860,#893,#895,.T.);
#893 = VERTEX_POINT('',#894);
#894 = CARTESIAN_POINT('',(52.821671364604,63.428244809735,
    63.344137917352));
#895 = SURFACE_CURVE('',#896,(#903,#913),.PCURVE_S1.);
#896 = B_SPLINE_CURVE_WITH_KNOTS('',5,(#897,#898,#899,#900,#901,#902),
  .UNSPECIFIED.,.F.,.F.,(6,6),(0.,1.),.PIECEWISE_BEZIER_KNOTS.);
#897 = CARTESIAN_POINT('',(56.775527874333,56.890511770228,
    74.667823902258));
#898 = CARTESIAN_POINT('',(56.265344143553,58.280679502884,
    72.259982758255));
#899 = CARTESIAN_POINT('',(55.619655999768,59.642273033126,
    69.901639392226));
#900 = CARTESIAN_POINT('',(54.83422552898,60.965156417533,
    67.610332495783));
#901 = CARTESIAN_POINT('',(53.903550820317,62.234098580045,
    65.412459322588));
#902 = CARTESIAN_POINT('',(52.821671365004,63.428244809628,
    63.344137917537));
#903 = PCURVE('',#31,#904);
#904 = DEFINITIONAL_REPRESENTATION('',(#905),#912);
#905 = B_SPLINE_CURVE_WITH_KNOTS('',5,(#906,#907,#908,#909,#910,#911),
  .UNSPECIFIED.,.F.,.F.,(6,6),(0.,1.),.PIECEWISE_BEZIER_KNOTS.);
#906 = CARTESIAN_POINT('',(0.747046418448,0.568905117638));
#907 = CARTESIAN_POINT('',(0.740333476543,0.582806795103));
#908 = CARTESIAN_POINT('',(0.731837597192,0.596422706505));
#909 = CARTESIAN_POINT('',(0.721503019742,0.609651572603));
#910 = CARTESIAN_POINT('',(0.709257244628,0.622340988436));
#911 = CARTESIAN_POINT('',(0.695021990818,0.63428244879));
#912 = ( GEOMETRIC_REPRESENTATION_CONTEXT(2) 
PARAMETRIC_REPRESENTATION_CONTEXT() REPRESENTATION_CONTEXT('2D SPACE',''
  ) );
#913 = PCURVE('',#825,#914);
#914 = DEFINITIONAL_REPRESENTATION('',(#915),#923);
#915 = B_SPLINE_CURVE_WITH_KNOTS('',6,(#916,#917,#918,#919,#920,#921,
    #922),.UNSPECIFIED.,.F.,.F.,(7,7),(0.,1.),.PIECEWISE_BEZIER_KNOTS.);
#916 = CARTESIAN_POINT('',(0.611960409666,0.446678238911));
#917 = CARTESIAN_POINT('',(0.631600529419,0.426612896244));
#918 = CARTESIAN_POINT('',(0.651451390662,0.406877549723));
#919 = CARTESIAN_POINT('',(0.671583226202,0.387559400867));
#920 = CARTESIAN_POINT('',(0.69205886444,0.368777090835));
#921 = CARTESIAN_POINT('',(0.712940985677,0.350677388478));
#922 = CARTESIAN_POINT('',(0.734312169186,0.333441378435));
#923 = ( GEOMETRIC_REPRESENTATION_CONTEXT(2) 
PARAMETRIC_REPRESENTATION_CONTEXT() REPRESENTATION_CONTEXT('2D SPACE',''
  ) );
#924 = ORIENTED_EDGE('',*,*,#925,.T.);
#925 = EDGE_CURVE('',#893,#926,#928,.T.);
#926 = VERTEX_POINT('',#927);
#927 = CARTESIAN_POINT('',(52.371260852245,63.909226830659,
    62.511052813743));
#928 = SURFACE_CURVE('',#929,(#935,#944),.PCURVE_S1.);
#929 = B_SPLINE_CURVE_WITH_KNOTS('',4,(#930,#931,#932,#933,#934),
  .UNSPECIFIED.,.F.,.F.,(5,5),(0.,1.),.PIECEWISE_BEZIER_KNOTS.);
#930 = CARTESIAN_POINT('',(52.821671364035,63.428244809571,
    63.344137917387));
#931 = CARTESIAN_POINT('',(52.711582113989,63.549758038478,
    63.133670886318));
#932 = CARTESIAN_POINT('',(52.599822838267,63.670445157999,
    62.924634732617));
#933 = CARTESIAN_POINT('',(52.486385267852,63.790277949951,
    62.71707831826));
#934 = CARTESIAN_POINT('',(52.371260852086,63.909226831581,
    62.511052812395));
#935 = PCURVE('',#31,#936);
#936 = DEFINITIONAL_REPRESENTATION('',(#937),#943);
#937 = B_SPLINE_CURVE_WITH_KNOTS('',4,(#938,#939,#940,#941,#942),
  .UNSPECIFIED.,.F.,.F.,(5,5),(0.,1.),.PIECEWISE_BEZIER_KNOTS.);
#938 = CARTESIAN_POINT('',(0.695021990797,0.634282448794));
#939 = CARTESIAN_POINT('',(0.693573448266,0.635497580882));
#940 = CARTESIAN_POINT('',(0.692102932533,0.636704451978));
#941 = CARTESIAN_POINT('',(0.690610334109,0.637902779829));
#942 = CARTESIAN_POINT('',(0.689095539983,0.63909226879));
#943 = ( GEOMETRIC_REPRESENTATION_CONTEXT(2) 
PARAMETRIC_REPRESENTATION_CONTEXT() REPRESENTATION_CONTEXT('2D SPACE',''
  ) );
#944 = PCURVE('',#825,#945);
#945 = DEFINITIONAL_REPRESENTATION('',(#946),#954);
#946 = B_SPLINE_CURVE_WITH_KNOTS('',6,(#947,#948,#949,#950,#951,#952,
    #953),.UNSPECIFIED.,.F.,.F.,(7,7),(0.,1.),.PIECEWISE_BEZIER_KNOTS.);
#947 = CARTESIAN_POINT('',(0.734312169186,0.333441378435));
#948 = CARTESIAN_POINT('',(0.736051910218,0.332038265037));
#949 = CARTESIAN_POINT('',(0.73779489223,0.330640875264));
#950 = CARTESIAN_POINT('',(0.739541159769,0.329249306805));
#951 = CARTESIAN_POINT('',(0.74129075826,0.327863658857));
#952 = CARTESIAN_POINT('',(0.74304373407,0.326484032146));
#953 = CARTESIAN_POINT('',(0.74480013459,0.325110528953));
#954 = ( GEOMETRIC_REPRESENTATION_CONTEXT(2) 
PARAMETRIC_REPRESENTATION_CONTEXT() REPRESENTATION_CONTEXT('2D SPACE',''
  ) );
#955 = ORIENTED_EDGE('',*,*,#956,.T.);
#956 = EDGE_CURVE('',#926,#957,#959,.T.);
#957 = VERTEX_POINT('',#958);
#958 = CARTESIAN_POINT('',(45.100708900605,68.697056065442,
    54.218289321134));
#959 = SURFACE_CURVE('',#960,(#967,#977),.PCURVE_S1.);
#960 = B_SPLINE_CURVE_WITH_KNOTS('',5,(#961,#962,#963,#964,#965,#966),
  .UNSPECIFIED.,.F.,.F.,(6,6),(0.,1.),.PIECEWISE_BEZIER_KNOTS.);
#961 = CARTESIAN_POINT('',(52.371260852573,63.909226830007,
    62.511052814871));
#962 = CARTESIAN_POINT('',(51.229437880333,65.088981460129,
    60.467657855036));
#963 = CARTESIAN_POINT('',(49.933093510973,66.186142291653,
    58.567306995735));
#964 = CARTESIAN_POINT('',(48.47567992923,67.179403794746,
    56.846952208523));
#965 = CARTESIAN_POINT('',(46.856825266498,68.030123289729,
    55.373450773903));
#966 = CARTESIAN_POINT('',(45.100708901511,68.697056065098,
    54.21828932173));
#967 = PCURVE('',#31,#968);
#968 = DEFINITIONAL_REPRESENTATION('',(#969),#976);
#969 = B_SPLINE_CURVE_WITH_KNOTS('',5,(#970,#971,#972,#973,#974,#975),
  .UNSPECIFIED.,.F.,.F.,(6,6),(0.,1.),.PIECEWISE_BEZIER_KNOTS.);
#970 = CARTESIAN_POINT('',(0.68909554,0.639092268764));
#971 = CARTESIAN_POINT('',(0.674071561499,0.650889816568));
#972 = CARTESIAN_POINT('',(0.657014341938,0.661861469139));
#973 = CARTESIAN_POINT('',(0.637837971712,0.67179402428));
#974 = CARTESIAN_POINT('',(0.616537174949,0.680301233041));
#975 = CARTESIAN_POINT('',(0.593430378454,0.686970559729));
#976 = ( GEOMETRIC_REPRESENTATION_CONTEXT(2) 
PARAMETRIC_REPRESENTATION_CONTEXT() REPRESENTATION_CONTEXT('2D SPACE',''
  ) );
#977 = PCURVE('',#825,#978);
#978 = DEFINITIONAL_REPRESENTATION('',(#979),#987);
#979 = B_SPLINE_CURVE_WITH_KNOTS('',6,(#980,#981,#982,#983,#984,#985,
    #986),.UNSPECIFIED.,.F.,.F.,(7,7),(0.,1.),.PIECEWISE_BEZIER_KNOTS.);
#980 = CARTESIAN_POINT('',(0.74480013459,0.325110528953));
#981 = CARTESIAN_POINT('',(0.766575472342,0.308082239789));
#982 = CARTESIAN_POINT('',(0.788861252689,0.292007543629));
#983 = CARTESIAN_POINT('',(0.811755316764,0.277073412033));
#984 = CARTESIAN_POINT('',(0.835309412253,0.263557915247));
#985 = CARTESIAN_POINT('',(0.85955448092,0.251809238593));
#986 = CARTESIAN_POINT('',(0.884468792825,0.24218289162));
#987 = ( GEOMETRIC_REPRESENTATION_CONTEXT(2) 
PARAMETRIC_REPRESENTATION_CONTEXT() REPRESENTATION_CONTEXT('2D SPACE',''
  ) );
#988 = ORIENTED_EDGE('',*,*,#989,.T.);
#989 = EDGE_CURVE('',#957,#169,#990,.T.);
#990 = SURFACE_CURVE('',#991,(#998,#1008),.PCURVE_S1.);
#991 = B_SPLINE_CURVE_WITH_KNOTS('',5,(#992,#993,#994,#995,#996,#997),
  .UNSPECIFIED.,.F.,.F.,(6,6),(0.,1.),.PIECEWISE_BEZIER_KNOTS.);
#992 = CARTESIAN_POINT('',(45.100708899698,68.697056065787,
    54.218289320538));
#993 = CARTESIAN_POINT('',(43.792671074343,69.19381887393,
    53.357870897523));
#994 = CARTESIAN_POINT('',(42.408338708349,69.588671374089,
    52.673961425492));
#995 = CARTESIAN_POINT('',(40.962864609159,69.862914490258,
    52.198967120382));
#996 = CARTESIAN_POINT('',(39.480988363191,70.,51.961524227066));
#997 = CARTESIAN_POINT('',(38.,70.,51.961524227066));
#998 = PCURVE('',#31,#999);
#999 = DEFINITIONAL_REPRESENTATION('',(#1000),#1007);
#1000 = B_SPLINE_CURVE_WITH_KNOTS('',5,(#1001,#1002,#1003,#1004,#1005,
    #1006),.UNSPECIFIED.,.F.,.F.,(6,6),(0.,1.),
  .PIECEWISE_BEZIER_KNOTS.);
#1001 = CARTESIAN_POINT('',(0.593430378406,0.686970559742));
#1002 = CARTESIAN_POINT('',(0.576219352871,0.691938186989));
#1003 = CARTESIAN_POINT('',(0.55800443013,0.695886721236));
#1004 = CARTESIAN_POINT('',(0.538985060429,0.698629118903));
#1005 = CARTESIAN_POINT('',(0.51948668888,0.7));
#1006 = CARTESIAN_POINT('',(0.5,0.7));
#1007 = ( GEOMETRIC_REPRESENTATION_CONTEXT(2) 
PARAMETRIC_REPRESENTATION_CONTEXT() REPRESENTATION_CONTEXT('2D SPACE',''
  ) );
#1008 = PCURVE('',#825,#1009);
#1009 = DEFINITIONAL_REPRESENTATION('',(#1010),#1018);
#1010 = B_SPLINE_CURVE_WITH_KNOTS('',6,(#1011,#1012,#1013,#1014,#1015,
    #1016,#1017),.UNSPECIFIED.,.F.,.F.,(7,7),(0.,1.),
  .PIECEWISE_BEZIER_KNOTS.);
#1011 = CARTESIAN_POINT('',(0.884468792825,0.24218289162));
#1012 = CARTESIAN_POINT('',(0.903026140887,0.23501273689));
#1013 = CARTESIAN_POINT('',(0.921956341921,0.229019287604));
#1014 = CARTESIAN_POINT('',(0.941207081116,0.224366590643));
#1015 = CARTESIAN_POINT('',(0.960706142608,0.221198190374));
#1016 = CARTESIAN_POINT('',(0.980357781668,0.219615242271));
#1017 = CARTESIAN_POINT('',(1.,0.219615242271));
#1018 = ( GEOMETRIC_REPRESENTATION_CONTEXT(2) 
PARAMETRIC_REPRESENTATION_CONTEXT() REPRESENTATION_CONTEXT('2D SPACE',''
  ) );
#1019 = ADVANCED_FACE('',(#1020),#1037,.F.);
#1020 = FACE_BOUND('',#1021,.F.);
#1021 = EDGE_LOOP('',(#1022,#1060,#1093,#1124));
#1022 = ORIENTED_EDGE('',*,*,#1023,.F.);
#1023 = EDGE_CURVE('',#325,#1024,#1026,.T.);
#1024 = VERTEX_POINT('',#1025);
#1025 = CARTESIAN_POINT('',(38.,30.,86.602540378444));
#1026 = SURFACE_CURVE('',#1027,(#1036,#1053),.PCURVE_S1.);
#1027 = B_SPLINE_CURVE_WITH_KNOTS('',7,(#1028,#1029,#1030,#1031,#1032,
    #1033,#1034,#1035),.UNSPECIFIED.,.F.,.F.,(8,8),(0.,1.),
  .PIECEWISE_BEZIER_KNOTS.);
#1028 = CARTESIAN_POINT('',(18.000271567461,50.,86.602540378444));
#1029 = CARTESIAN_POINT('',(18.000271567461,45.512044072482,
    86.602540378444));
#1030 = CARTESIAN_POINT('',(19.17487021164,41.024088144964,
    86.602540378444));
#1031 = CARTESIAN_POINT('',(21.524067499999,36.905187238176,
    86.602540378444));
#1032 = CARTESIAN_POINT('',(24.903808546083,33.524396372848,
    86.602540378444));
#1033 = CARTESIAN_POINT('',(29.025983576988,31.175209761462,
    86.602540378444));
#1034 = CARTESIAN_POINT('',(33.512010494872,30.,86.602540378444));
#1035 = CARTESIAN_POINT('',(38.,30.,86.602540378444));
#1036 = PCURVE('',#1037,#1042);
#1037 = B_SPLINE_SURFACE_WITH_KNOTS('',1,1,(
    (#1038,#1039)
    ,(#1040,#1041
    )),.UNSPECIFIED.,.F.,.F.,.F.,(2,2),(2,2),(0.,1.),(0.,1.),
  .PIECEWISE_BEZIER_KNOTS.);
#1038 = CARTESIAN_POINT('',(13.990728414044,30.,86.602540378444));
#1039 = CARTESIAN_POINT('',(62.009271585956,30.,86.602540378444));
#1040 = CARTESIAN_POINT('',(13.990728414044,70.,86.602540378444));
#1041 = CARTESIAN_POINT('',(62.009271585956,70.,86.602540378444));
#1042 = DEFINITIONAL_REPRESENTATION('',(#1043),#1052);
#1043 = B_SPLINE_CURVE_WITH_KNOTS('',7,(#1044,#1045,#1046,#1047,#1048,
    #1049,#1050,#1051),.UNSPECIFIED.,.F.,.F.,(8,8),(0.,1.),
  .PIECEWISE_BEZIER_KNOTS.);
#1044 = CARTESIAN_POINT('',(0.500001040592,8.349989167946E-02));
#1045 = CARTESIAN_POINT('',(0.387801993748,8.349969722131E-02));
#1046 = CARTESIAN_POINT('',(0.275602885783,0.107960922855));
#1047 = CARTESIAN_POINT('',(0.172630128887,0.156883584479));
#1048 = CARTESIAN_POINT('',(8.811014275991E-02,0.227267697568));
#1049 = CARTESIAN_POINT('',(2.938032189029E-02,0.313113274215));
#1050 = CARTESIAN_POINT('',(-2.57432963835E-15,0.406536201331));
#1051 = CARTESIAN_POINT('',(-3.275157922644E-15,0.5));
#1052 = ( GEOMETRIC_REPRESENTATION_CONTEXT(2) 
PARAMETRIC_REPRESENTATION_CONTEXT() REPRESENTATION_CONTEXT('2D SPACE',''
  ) );
#1053 = PCURVE('',#379,#1054);
#1054 = DEFINITIONAL_REPRESENTATION('',(#1055),#1059);
#1055 = B_SPLINE_CURVE_WITH_KNOTS('',2,(#1056,#1057,#1058),
  .UNSPECIFIED.,.F.,.F.,(3,3),(0.,1.),.PIECEWISE_BEZIER_KNOTS.);
#1056 = CARTESIAN_POINT('',(0.5,0.566025403784));
#1057 = CARTESIAN_POINT('',(0.75,0.566025403784));
#1058 = CARTESIAN_POINT('',(1.,0.566025403784));
#1059 = ( GEOMETRIC_REPRESENTATION_CONTEXT(2) 
PARAMETRIC_REPRESENTATION_CONTEXT() REPRESENTATION_CONTEXT('2D SPACE',''
  ) );
#1060 = ORIENTED_EDGE('',*,*,#1061,.F.);
#1061 = EDGE_CURVE('',#1062,#325,#1064,.T.);
#1062 = VERTEX_POINT('',#1063);
#1063 = CARTESIAN_POINT('',(38.,70.,86.602540378444));
#1064 = SURFACE_CURVE('',#1065,(#1074,#1086),.PCURVE_S1.);
#1065 = B_SPLINE_CURVE_WITH_KNOTS('',7,(#1066,#1067,#1068,#1069,#1070,
    #1071,#1072,#1073),.UNSPECIFIED.,.F.,.F.,(8,8),(0.,1.),
  .PIECEWISE_BEZIER_KNOTS.);
#1066 = CARTESIAN_POINT('',(38.,70.,86.602540378444));
#1067 = CARTESIAN_POINT('',(33.512010494872,70.,86.602540378444));
#1068 = CARTESIAN_POINT('',(29.025983576988,68.824790238538,
    86.602540378444));
#1069 = CARTESIAN_POINT('',(24.903808546083,66.475603627152,
    86.602540378444));
#1070 = CARTESIAN_POINT('',(21.524067499999,63.094812761824,
    86.602540378444));
#1071 = CARTESIAN_POINT('',(19.17487021164,58.975911855036,
    86.602540378444));
#1072 = CARTESIAN_POINT('',(18.000271567461,54.487955927518,
    86.602540378444));
#1073 = CARTESIAN_POINT('',(18.000271567461,50.,86.602540378444));
#1074 = PCURVE('',#1037,#1075);
#1075 = DEFINITIONAL_REPRESENTATION('',(#1076),#1085);
#1076 = B_SPLINE_CURVE_WITH_KNOTS('',7,(#1077,#1078,#1079,#1080,#1081,
    #1082,#1083,#1084),.UNSPECIFIED.,.F.,.F.,(8,8),(0.,1.),
  .PIECEWISE_BEZIER_KNOTS.);
#1077 = CARTESIAN_POINT('',(1.,0.5));
#1078 = CARTESIAN_POINT('',(1.,0.406536448997));
#1079 = CARTESIAN_POINT('',(0.970619833817,0.31311376933));
#1080 = CARTESIAN_POINT('',(0.911890324117,0.227268380004));
#1081 = CARTESIAN_POINT('',(0.827370766977,0.156884330512));
#1082 = CARTESIAN_POINT('',(0.724398478534,0.107961571048));
#1083 = CARTESIAN_POINT('',(0.612199790124,8.350008613709E-02));
#1084 = CARTESIAN_POINT('',(0.500001040592,8.349989167946E-02));
#1085 = ( GEOMETRIC_REPRESENTATION_CONTEXT(2) 
PARAMETRIC_REPRESENTATION_CONTEXT() REPRESENTATION_CONTEXT('2D SPACE',''
  ) );
#1086 = PCURVE('',#192,#1087);
#1087 = DEFINITIONAL_REPRESENTATION('',(#1088),#1092);
#1088 = B_SPLINE_CURVE_WITH_KNOTS('',2,(#1089,#1090,#1091),
  .UNSPECIFIED.,.F.,.F.,(3,3),(0.,1.),.PIECEWISE_BEZIER_KNOTS.);
#1089 = CARTESIAN_POINT('',(2.200214414681E-17,0.566025403784));
#1090 = CARTESIAN_POINT('',(0.25,0.566025403784));
#1091 = CARTESIAN_POINT('',(0.5,0.566025403784));
#1092 = ( GEOMETRIC_REPRESENTATION_CONTEXT(2) 
PARAMETRIC_REPRESENTATION_CONTEXT() REPRESENTATION_CONTEXT('2D SPACE',''
  ) );
#1093 = ORIENTED_EDGE('',*,*,#1094,.F.);
#1094 = EDGE_CURVE('',#767,#1062,#1095,.T.);
#1095 = SURFACE_CURVE('',#1096,(#1105,#1117),.PCURVE_S1.);
#1096 = B_SPLINE_CURVE_WITH_KNOTS('',7,(#1097,#1098,#1099,#1100,#1101,
    #1102,#1103,#1104),.UNSPECIFIED.,.F.,.F.,(8,8),(0.,1.),
  .PIECEWISE_BEZIER_KNOTS.);
#1097 = CARTESIAN_POINT('',(57.999728432539,50.,86.602540378444));
#1098 = CARTESIAN_POINT('',(57.999728432539,54.487955927518,
    86.602540378444));
#1099 = CARTESIAN_POINT('',(56.82512978836,58.975911855036,
    86.602540378444));
#1100 = CARTESIAN_POINT('',(54.475932500001,63.094812761824,
    86.602540378444));
#1101 = CARTESIAN_POINT('',(51.096191453917,66.475603627152,
    86.602540378444));
#1102 = CARTESIAN_POINT('',(46.974016423012,68.824790238538,
    86.602540378444));
#1103 = CARTESIAN_POINT('',(42.487989505128,70.,86.602540378444));
#1104 = CARTESIAN_POINT('',(38.,70.,86.602540378444));
#1105 = PCURVE('',#1037,#1106);
#1106 = DEFINITIONAL_REPRESENTATION('',(#1107),#1116);
#1107 = B_SPLINE_CURVE_WITH_KNOTS('',7,(#1108,#1109,#1110,#1111,#1112,
    #1113,#1114,#1115),.UNSPECIFIED.,.F.,.F.,(8,8),(0.,1.),
  .PIECEWISE_BEZIER_KNOTS.);
#1108 = CARTESIAN_POINT('',(0.499998959408,0.916500108321));
#1109 = CARTESIAN_POINT('',(0.612198006252,0.916500302779));
#1110 = CARTESIAN_POINT('',(0.724397114217,0.892039077145));
#1111 = CARTESIAN_POINT('',(0.827369871113,0.843116415521));
#1112 = CARTESIAN_POINT('',(0.91188985724,0.772732302432));
#1113 = CARTESIAN_POINT('',(0.97061967811,0.686886725785));
#1114 = CARTESIAN_POINT('',(1.,0.593463798669));
#1115 = CARTESIAN_POINT('',(1.,0.5));
#1116 = ( GEOMETRIC_REPRESENTATION_CONTEXT(2) 
PARAMETRIC_REPRESENTATION_CONTEXT() REPRESENTATION_CONTEXT('2D SPACE',''
  ) );
#1117 = PCURVE('',#825,#1118);
#1118 = DEFINITIONAL_REPRESENTATION('',(#1119),#1123);
#1119 = B_SPLINE_CURVE_WITH_KNOTS('',2,(#1120,#1121,#1122),
  .UNSPECIFIED.,.F.,.F.,(3,3),(0.,1.),.PIECEWISE_BEZIER_KNOTS.);
#1120 = CARTESIAN_POINT('',(0.5,0.566025403784));
#1121 = CARTESIAN_POINT('',(0.75,0.566025403784));
#1122 = CARTESIAN_POINT('',(1.,0.566025403784));
#1123 = ( GEOMETRIC_REPRESENTATION_CONTEXT(2) 
PARAMETRIC_REPRESENTATION_CONTEXT() REPRESENTATION_CONTEXT('2D SPACE',''
  ) );
#1124 = ORIENTED_EDGE('',*,*,#1125,.F.);
#1125 = EDGE_CURVE('',#1024,#767,#1126,.T.);
#1126 = SURFACE_CURVE('',#1127,(#1136,#1148),.PCURVE_S1.);
#1127 = B_SPLINE_CURVE_WITH_KNOTS('',7,(#1128,#1129,#1130,#1131,#1132,
    #1133,#1134,#1135),.UNSPECIFIED.,.F.,.F.,(8,8),(0.,1.),
  .PIECEWISE_BEZIER_KNOTS.);
#1128 = CARTESIAN_POINT('',(38.,30.,86.602540378444));
#1129 = CARTESIAN_POINT('',(42.487989505128,30.,86.602540378444));
#1130 = CARTESIAN_POINT('',(46.974016423012,31.175209761462,
    86.602540378444));
#1131 = CARTESIAN_POINT('',(51.096191453917,33.524396372848,
    86.602540378444));
#1132 = CARTESIAN_POINT('',(54.475932500001,36.905187238176,
    86.602540378444));
#1133 = CARTESIAN_POINT('',(56.82512978836,41.024088144964,
    86.602540378444));
#1134 = CARTESIAN_POINT('',(57.999728432539,45.512044072482,
    86.602540378444));
#1135 = CARTESIAN_POINT('',(57.999728432539,50.,86.602540378444));
#1136 = PCURVE('',#1037,#1137);
#1137 = DEFINITIONAL_REPRESENTATION('',(#1138),#1147);
#1138 = B_SPLINE_CURVE_WITH_KNOTS('',7,(#1139,#1140,#1141,#1142,#1143,
    #1144,#1145,#1146),.UNSPECIFIED.,.F.,.F.,(8,8),(0.,1.),
  .PIECEWISE_BEZIER_KNOTS.);
#1139 = CARTESIAN_POINT('',(3.155028321933E-15,0.5));
#1140 = CARTESIAN_POINT('',(2.443791696782E-15,0.593463551003));
#1141 = CARTESIAN_POINT('',(2.938016618291E-02,0.68688623067));
#1142 = CARTESIAN_POINT('',(8.810967588281E-02,0.772731619996));
#1143 = CARTESIAN_POINT('',(0.172629233023,0.843115669488));
#1144 = CARTESIAN_POINT('',(0.275601521466,0.892038428952));
#1145 = CARTESIAN_POINT('',(0.387800209876,0.916499913863));
#1146 = CARTESIAN_POINT('',(0.499998959408,0.916500108321));
#1147 = ( GEOMETRIC_REPRESENTATION_CONTEXT(2) 
PARAMETRIC_REPRESENTATION_CONTEXT() REPRESENTATION_CONTEXT('2D SPACE',''
  ) );
#1148 = PCURVE('',#600,#1149);
#1149 = DEFINITIONAL_REPRESENTATION('',(#1150),#1154);
#1150 = B_SPLINE_CURVE_WITH_KNOTS('',2,(#1151,#1152,#1153),
  .UNSPECIFIED.,.F.,.F.,(3,3),(0.,1.),.PIECEWISE_BEZIER_KNOTS.);
#1151 = CARTESIAN_POINT('',(2.129773177501E-17,0.566025403784));
#1152 = CARTESIAN_POINT('',(0.25,0.566025403784));
#1153 = CARTESIAN_POINT('',(0.5,0.566025403784));
#1154 = ( GEOMETRIC_REPRESENTATION_CONTEXT(2) 
PARAMETRIC_REPRESENTATION_CONTEXT() REPRESENTATION_CONTEXT('2D SPACE',''
  ) );
#1155 = ADVANCED_FACE('',(#1156),#379,.F.);
#1156 = FACE_BOUND('',#1157,.F.);
#1157 = EDGE_LOOP('',(#1158,#1159,#1177,#1178,#1179,#1180,#1181,#1182));
#1158 = ORIENTED_EDGE('',*,*,#1023,.T.);
#1159 = ORIENTED_EDGE('',*,*,#1160,.T.);
#1160 = EDGE_CURVE('',#1024,#546,#1161,.T.);
#1161 = SURFACE_CURVE('',#1162,(#1165,#1171),.PCURVE_S1.);
#1162 = B_SPLINE_CURVE_WITH_KNOTS('',1,(#1163,#1164),.UNSPECIFIED.,.F.,
  .F.,(2,2),(0.,1.),.PIECEWISE_BEZIER_KNOTS.);
#1163 = CARTESIAN_POINT('',(38.,30.,86.602540378444));
#1164 = CARTESIAN_POINT('',(38.,30.,121.24355652982));
#1165 = PCURVE('',#379,#1166);
#1166 = DEFINITIONAL_REPRESENTATION('',(#1167),#1170);
#1167 = B_SPLINE_CURVE_WITH_KNOTS('',1,(#1168,#1169),.UNSPECIFIED.,.F.,
  .F.,(2,2),(0.,1.),.PIECEWISE_BEZIER_KNOTS.);
#1168 = CARTESIAN_POINT('',(1.,0.566025403784));
#1169 = CARTESIAN_POINT('',(1.,0.912435565298));
#1170 = ( GEOMETRIC_REPRESENTATION_CONTEXT(2) 
PARAMETRIC_REPRESENTATION_CONTEXT() REPRESENTATION_CONTEXT('2D SPACE',''
  ) );
#1171 = PCURVE('',#600,#1172);
#1172 = DEFINITIONAL_REPRESENTATION('',(#1173),#1176);
#1173 = B_SPLINE_CURVE_WITH_KNOTS('',1,(#1174,#1175),.UNSPECIFIED.,.F.,
  .F.,(2,2),(0.,1.),.PIECEWISE_BEZIER_KNOTS.);
#1174 = CARTESIAN_POINT('',(0.,0.566025403784));
#1175 = CARTESIAN_POINT('',(0.,0.912435565298));
#1176 = ( GEOMETRIC_REPRESENTATION_CONTEXT(2) 
PARAMETRIC_REPRESENTATION_CONTEXT() REPRESENTATION_CONTEXT('2D SPACE',''
  ) );
#1177 = ORIENTED_EDGE('',*,*,#545,.F.);
#1178 = ORIENTED_EDGE('',*,*,#512,.F.);
#1179 = ORIENTED_EDGE('',*,*,#479,.F.);
#1180 = ORIENTED_EDGE('',*,*,#446,.F.);
#1181 = ORIENTED_EDGE('',*,*,#413,.F.);
#1182 = ORIENTED_EDGE('',*,*,#357,.F.);
#1183 = ADVANCED_FACE('',(#1184),#192,.T.);
#1184 = FACE_BOUND('',#1185,.F.);
#1185 = EDGE_LOOP('',(#1186,#1187,#1188,#1189,#1190,#1191,#1209));
#1186 = ORIENTED_EDGE('',*,*,#324,.F.);
#1187 = ORIENTED_EDGE('',*,*,#291,.F.);
#1188 = ORIENTED_EDGE('',*,*,#259,.F.);
#1189 = ORIENTED_EDGE('',*,*,#226,.F.);
#1190 = ORIENTED_EDGE('',*,*,#168,.F.);
#1191 = ORIENTED_EDGE('',*,*,#1192,.T.);
#1192 = EDGE_CURVE('',#169,#1062,#1193,.T.);
#1193 = SURFACE_CURVE('',#1194,(#1197,#1203),.PCURVE_S1.);
#1194 = B_SPLINE_CURVE_WITH_KNOTS('',1,(#1195,#1196),.UNSPECIFIED.,.F.,
  .F.,(2,2),(0.,1.),.PIECEWISE_BEZIER_KNOTS.);
#1195 = CARTESIAN_POINT('',(38.,70.,51.961524227066));
#1196 = CARTESIAN_POINT('',(38.,70.,86.602540378444));
#1197 = PCURVE('',#192,#1198);
#1198 = DEFINITIONAL_REPRESENTATION('',(#1199),#1202);
#1199 = B_SPLINE_CURVE_WITH_KNOTS('',1,(#1200,#1201),.UNSPECIFIED.,.F.,
  .F.,(2,2),(0.,1.),.PIECEWISE_BEZIER_KNOTS.);
#1200 = CARTESIAN_POINT('',(0.,0.219615242271));
#1201 = CARTESIAN_POINT('',(0.,0.566025403784));
#1202 = ( GEOMETRIC_REPRESENTATION_CONTEXT(2) 
PARAMETRIC_REPRESENTATION_CONTEXT() REPRESENTATION_CONTEXT('2D SPACE',''
  ) );
#1203 = PCURVE('',#825,#1204);
#1204 = DEFINITIONAL_REPRESENTATION('',(#1205),#1208);
#1205 = B_SPLINE_CURVE_WITH_KNOTS('',1,(#1206,#1207),.UNSPECIFIED.,.F.,
  .F.,(2,2),(0.,1.),.PIECEWISE_BEZIER_KNOTS.);
#1206 = CARTESIAN_POINT('',(1.,0.219615242271));
#1207 = CARTESIAN_POINT('',(1.,0.566025403784));
#1208 = ( GEOMETRIC_REPRESENTATION_CONTEXT(2) 
PARAMETRIC_REPRESENTATION_CONTEXT() REPRESENTATION_CONTEXT('2D SPACE',''
  ) );
#1209 = ORIENTED_EDGE('',*,*,#1061,.T.);
#1210 = ADVANCED_FACE('',(#1211),#825,.T.);
#1211 = FACE_BOUND('',#1212,.F.);
#1212 = EDGE_LOOP('',(#1213,#1214,#1215,#1216,#1217,#1218,#1219,#1220));
#1213 = ORIENTED_EDGE('',*,*,#1192,.F.);
#1214 = ORIENTED_EDGE('',*,*,#989,.F.);
#1215 = ORIENTED_EDGE('',*,*,#956,.F.);
#1216 = ORIENTED_EDGE('',*,*,#925,.F.);
#1217 = ORIENTED_EDGE('',*,*,#892,.F.);
#1218 = ORIENTED_EDGE('',*,*,#859,.F.);
#1219 = ORIENTED_EDGE('',*,*,#799,.F.);
#1220 = ORIENTED_EDGE('',*,*,#1094,.T.);
#1221 = ADVANCED_FACE('',(#1222),#600,.F.);
#1222 = FACE_BOUND('',#1223,.F.);
#1223 = EDGE_LOOP('',(#1224,#1225,#1226,#1227,#1228,#1229,#1230,#1231));
#1224 = ORIENTED_EDGE('',*,*,#1125,.T.);
#1225 = ORIENTED_EDGE('',*,*,#766,.F.);
#1226 = ORIENTED_EDGE('',*,*,#733,.F.);
#1227 = ORIENTED_EDGE('',*,*,#700,.F.);
#1228 = ORIENTED_EDGE('',*,*,#667,.F.);
#1229 = ORIENTED_EDGE('',*,*,#634,.F.);
#1230 = ORIENTED_EDGE('',*,*,#578,.F.);
#1231 = ORIENTED_EDGE('',*,*,#1160,.F.);
#1232 = ADVANCED_FACE('',(#1233),#42,.F.);
#1233 = FACE_BOUND('',#1234,.F.);
#1234 = EDGE_LOOP('',(#1235,#1257,#1275,#1276,#1277));
#1235 = ORIENTED_EDGE('',*,*,#1236,.F.);
#1236 = EDGE_CURVE('',#1237,#1239,#1241,.T.);
#1237 = VERTEX_POINT('',#1238);
#1238 = CARTESIAN_POINT('',(76.,0.,0.));
#1239 = VERTEX_POINT('',#1240);
#1240 = CARTESIAN_POINT('',(0.,0.,0.));
#1241 = SURFACE_CURVE('',#1242,(#1245,#1251),.PCURVE_S1.);
#1242 = B_SPLINE_CURVE_WITH_KNOTS('',1,(#1243,#1244),.UNSPECIFIED.,.F.,
  .F.,(2,2),(0.,1.),.PIECEWISE_BEZIER_KNOTS.);
#1243 = CARTESIAN_POINT('',(76.,0.,0.));
#1244 = CARTESIAN_POINT('',(0.,0.,0.));
#1245 = PCURVE('',#42,#1246);
#1246 = DEFINITIONAL_REPRESENTATION('',(#1247),#1250);
#1247 = B_SPLINE_CURVE_WITH_KNOTS('',1,(#1248,#1249),.UNSPECIFIED.,.F.,
  .F.,(2,2),(0.,1.),.PIECEWISE_BEZIER_KNOTS.);
#1248 = CARTESIAN_POINT('',(0.,0.));
#1249 = CARTESIAN_POINT('',(0.,1.));
#1250 = ( GEOMETRIC_REPRESENTATION_CONTEXT(2) 
PARAMETRIC_REPRESENTATION_CONTEXT() REPRESENTATION_CONTEXT('2D SPACE',''
  ) );
#1251 = PCURVE('',#112,#1252);
#1252 = DEFINITIONAL_REPRESENTATION('',(#1253),#1256);
#1253 = B_SPLINE_CURVE_WITH_KNOTS('',1,(#1254,#1255),.UNSPECIFIED.,.F.,
  .F.,(2,2),(0.,1.),.PIECEWISE_BEZIER_KNOTS.);
#1254 = CARTESIAN_POINT('',(0.,0.));
#1255 = CARTESIAN_POINT('',(0.,1.));
#1256 = ( GEOMETRIC_REPRESENTATION_CONTEXT(2) 
PARAMETRIC_REPRESENTATION_CONTEXT() REPRESENTATION_CONTEXT('2D SPACE',''
  ) );
#1257 = ORIENTED_EDGE('',*,*,#1258,.T.);
#1258 = EDGE_CURVE('',#1237,#54,#1259,.T.);
#1259 = SURFACE_CURVE('',#1260,(#1263,#1269),.PCURVE_S1.);
#1260 = B_SPLINE_CURVE_WITH_KNOTS('',1,(#1261,#1262),.UNSPECIFIED.,.F.,
  .F.,(2,2),(0.,1.),.PIECEWISE_BEZIER_KNOTS.);
#1261 = CARTESIAN_POINT('',(76.,0.,0.));
#1262 = CARTESIAN_POINT('',(76.,100.,0.));
#1263 = PCURVE('',#42,#1264);
#1264 = DEFINITIONAL_REPRESENTATION('',(#1265),#1268);
#1265 = B_SPLINE_CURVE_WITH_KNOTS('',1,(#1266,#1267),.UNSPECIFIED.,.F.,
  .F.,(2,2),(0.,1.),.PIECEWISE_BEZIER_KNOTS.);
#1266 = CARTESIAN_POINT('',(0.,0.));
#1267 = CARTESIAN_POINT('',(1.,0.));
#1268 = ( GEOMETRIC_REPRESENTATION_CONTEXT(2) 
PARAMETRIC_REPRESENTATION_CONTEXT() REPRESENTATION_CONTEXT('2D SPACE',''
  ) );
#1269 = PCURVE('',#87,#1270);
#1270 = DEFINITIONAL_REPRESENTATION('',(#1271),#1274);
#1271 = B_SPLINE_CURVE_WITH_KNOTS('',1,(#1272,#1273),.UNSPECIFIED.,.F.,
  .F.,(2,2),(0.,1.),.PIECEWISE_BEZIER_KNOTS.);
#1272 = CARTESIAN_POINT('',(0.,1.));
#1273 = CARTESIAN_POINT('',(1.,1.));
#1274 = ( GEOMETRIC_REPRESENTATION_CONTEXT(2) 
PARAMETRIC_REPRESENTATION_CONTEXT() REPRESENTATION_CONTEXT('2D SPACE',''
  ) );
#1275 = ORIENTED_EDGE('',*,*,#53,.F.);
#1276 = ORIENTED_EDGE('',*,*,#21,.F.);
#1277 = ORIENTED_EDGE('',*,*,#1278,.F.);
#1278 = EDGE_CURVE('',#1239,#22,#1279,.T.);
#1279 = SURFACE_CURVE('',#1280,(#1283,#1289),.PCURVE_S1.);
#1280 = B_SPLINE_CURVE_WITH_KNOTS('',1,(#1281,#1282),.UNSPECIFIED.,.F.,
  .F.,(2,2),(0.,1.),.PIECEWISE_BEZIER_KNOTS.);
#1281 = CARTESIAN_POINT('',(0.,0.,0.));
#1282 = CARTESIAN_POINT('',(0.,100.,0.));
#1283 = PCURVE('',#42,#1284);
#1284 = DEFINITIONAL_REPRESENTATION('',(#1285),#1288);
#1285 = B_SPLINE_CURVE_WITH_KNOTS('',1,(#1286,#1287),.UNSPECIFIED.,.F.,
  .F.,(2,2),(0.,1.),.PIECEWISE_BEZIER_KNOTS.);
#1286 = CARTESIAN_POINT('',(0.,1.));
#1287 = CARTESIAN_POINT('',(1.,1.));
#1288 = ( GEOMETRIC_REPRESENTATION_CONTEXT(2) 
PARAMETRIC_REPRESENTATION_CONTEXT() REPRESENTATION_CONTEXT('2D SPACE',''
  ) );
#1289 = PCURVE('',#155,#1290);
#1290 = DEFINITIONAL_REPRESENTATION('',(#1291),#1294);
#1291 = B_SPLINE_CURVE_WITH_KNOTS('',1,(#1292,#1293),.UNSPECIFIED.,.F.,
  .F.,(2,2),(0.,1.),.PIECEWISE_BEZIER_KNOTS.);
#1292 = CARTESIAN_POINT('',(0.,1.));
#1293 = CARTESIAN_POINT('',(1.,1.));
#1294 = ( GEOMETRIC_REPRESENTATION_CONTEXT(2) 
PARAMETRIC_REPRESENTATION_CONTEXT() REPRESENTATION_CONTEXT('2D SPACE',''
  ) );
#1295 = ADVANCED_FACE('',(#1296),#87,.F.);
#1296 = FACE_BOUND('',#1297,.F.);
#1297 = EDGE_LOOP('',(#1298,#1316,#1317));
#1298 = ORIENTED_EDGE('',*,*,#1299,.T.);
#1299 = EDGE_CURVE('',#1237,#74,#1300,.T.);
#1300 = SURFACE_CURVE('',#1301,(#1304,#1310),.PCURVE_S1.);
#1301 = B_SPLINE_CURVE_WITH_KNOTS('',1,(#1302,#1303),.UNSPECIFIED.,.F.,
  .F.,(2,2),(0.,1.),.PIECEWISE_BEZIER_KNOTS.);
#1302 = CARTESIAN_POINT('',(76.,0.,0.));
#1303 = CARTESIAN_POINT('',(76.,0.,173.20508075688));
#1304 = PCURVE('',#87,#1305);
#1305 = DEFINITIONAL_REPRESENTATION('',(#1306),#1309);
#1306 = B_SPLINE_CURVE_WITH_KNOTS('',1,(#1307,#1308),.UNSPECIFIED.,.F.,
  .F.,(2,2),(0.,1.),.PIECEWISE_BEZIER_KNOTS.);
#1307 = CARTESIAN_POINT('',(0.,1.));
#1308 = CARTESIAN_POINT('',(0.,0.));
#1309 = ( GEOMETRIC_REPRESENTATION_CONTEXT(2) 
PARAMETRIC_REPRESENTATION_CONTEXT() REPRESENTATION_CONTEXT('2D SPACE',''
  ) );
#1310 = PCURVE('',#112,#1311);
#1311 = DEFINITIONAL_REPRESENTATION('',(#1312),#1315);
#1312 = B_SPLINE_CURVE_WITH_KNOTS('',1,(#1313,#1314),.UNSPECIFIED.,.F.,
  .F.,(2,2),(0.,1.),.PIECEWISE_BEZIER_KNOTS.);
#1313 = CARTESIAN_POINT('',(0.,0.));
#1314 = CARTESIAN_POINT('',(1.,0.));
#1315 = ( GEOMETRIC_REPRESENTATION_CONTEXT(2) 
PARAMETRIC_REPRESENTATION_CONTEXT() REPRESENTATION_CONTEXT('2D SPACE',''
  ) );
#1316 = ORIENTED_EDGE('',*,*,#73,.T.);
#1317 = ORIENTED_EDGE('',*,*,#1258,.F.);
#1318 = ADVANCED_FACE('',(#1319),#112,.T.);
#1319 = FACE_BOUND('',#1320,.F.);
#1320 = EDGE_LOOP('',(#1321,#1339,#1340,#1341,#1342));
#1321 = ORIENTED_EDGE('',*,*,#1322,.F.);
#1322 = EDGE_CURVE('',#124,#1239,#1323,.T.);
#1323 = SURFACE_CURVE('',#1324,(#1327,#1333),.PCURVE_S1.);
#1324 = B_SPLINE_CURVE_WITH_KNOTS('',1,(#1325,#1326),.UNSPECIFIED.,.F.,
  .F.,(2,2),(0.,1.),.PIECEWISE_BEZIER_KNOTS.);
#1325 = CARTESIAN_POINT('',(0.,0.,173.20508075688));
#1326 = CARTESIAN_POINT('',(0.,0.,0.));
#1327 = PCURVE('',#112,#1328);
#1328 = DEFINITIONAL_REPRESENTATION('',(#1329),#1332);
#1329 = B_SPLINE_CURVE_WITH_KNOTS('',1,(#1330,#1331),.UNSPECIFIED.,.F.,
  .F.,(2,2),(0.,1.),.PIECEWISE_BEZIER_KNOTS.);
#1330 = CARTESIAN_POINT('',(1.,1.));
#1331 = CARTESIAN_POINT('',(0.,1.));
#1332 = ( GEOMETRIC_REPRESENTATION_CONTEXT(2) 
PARAMETRIC_REPRESENTATION_CONTEXT() REPRESENTATION_CONTEXT('2D SPACE',''
  ) );
#1333 = PCURVE('',#155,#1334);
#1334 = DEFINITIONAL_REPRESENTATION('',(#1335),#1338);
#1335 = B_SPLINE_CURVE_WITH_KNOTS('',1,(#1336,#1337),.UNSPECIFIED.,.F.,
  .F.,(2,2),(0.,1.),.PIECEWISE_BEZIER_KNOTS.);
#1336 = CARTESIAN_POINT('',(0.,0.));
#1337 = CARTESIAN_POINT('',(0.,1.));
#1338 = ( GEOMETRIC_REPRESENTATION_CONTEXT(2) 
PARAMETRIC_REPRESENTATION_CONTEXT() REPRESENTATION_CONTEXT('2D SPACE',''
  ) );
#1339 = ORIENTED_EDGE('',*,*,#123,.T.);
#1340 = ORIENTED_EDGE('',*,*,#98,.T.);
#1341 = ORIENTED_EDGE('',*,*,#1299,.F.);
#1342 = ORIENTED_EDGE('',*,*,#1236,.T.);
#1343 = ADVANCED_FACE('',(#1344),#155,.T.);
#1344 = FACE_BOUND('',#1345,.F.);
#1345 = EDGE_LOOP('',(#1346,#1347,#1348));
#1346 = ORIENTED_EDGE('',*,*,#1278,.T.);
#1347 = ORIENTED_EDGE('',*,*,#143,.F.);
#1348 = ORIENTED_EDGE('',*,*,#1322,.T.);
#1349 = ( GEOMETRIC_REPRESENTATION_CONTEXT(3) 
GLOBAL_UNCERTAINTY_ASSIGNED_CONTEXT((#1353)) 
GLOBAL_UNIT_ASSIGNED_CONTEXT((#1350,#1351,#1352)) REPRESENTATION_CONTEXT
('Context #1','3D Context with UNIT and UNCERTAINTY') );
#1350 = ( LENGTH_UNIT() NAMED_UNIT(*) SI_UNIT(.MILLI.,.METRE.) );
#1351 = ( NAMED_UNIT(*) PLANE_ANGLE_UNIT() SI_UNIT($,.RADIAN.) );
#1352 = ( NAMED_UNIT(*) SI_UNIT($,.STERADIAN.) SOLID_ANGLE_UNIT() );
#1353 = UNCERTAINTY_MEASURE_WITH_UNIT(LENGTH_MEASURE(1.E-03),#1350,
  'distance_accuracy_value','confusion accuracy');
#1354 = PRODUCT_RELATED_PRODUCT_CATEGORY('part',$,(#7));
ENDSEC;
END-ISO-10303-21;
