ISO-10303-21;
HEADER;
FILE_DESCRIPTION(('Open CASCADE Model'),'2;1');
FILE_NAME('Open CASCADE Shape Model','2026-07-11T20:15:55',('Author'),(
    'Open CASCADE'),'Open CASCADE STEP processor 8.0','Open CASCADE 8.0'
  ,'Unknown');
FILE_SCHEMA(('AUTOMOTIVE_DESIGN { 1 0 10303 214 1 1 1 1 }'));
ENDSEC;
DATA;
#1 = APPLICATION_PROTOCOL_DEFINITION('international standard',
  'automotive_design',2000,#2);
#2 = APPLICATION_CONTEXT(
  'core data for automotive mechanical design processes');
#3 = SHAPE_DEFINITION_REPRESENTATION(#4,#10);
#4 = PRODUCT_DEFINITION_SHAPE('','',#5);
#5 = PRODUCT_DEFINITION('design','',#6,#9);
#6 = PRODUCT_DEFINITION_FORMATION('','',#7);
#7 = PRODUCT('Open CASCADE STEP translator 8.0 1',
  'Open CASCADE STEP translator 8.0 1','',(#8));
#8 = PRODUCT_CONTEXT('',#2,'mechanical');
#9 = PRODUCT_DEFINITION_CONTEXT('part definition',#2,'design');
#10 = MANIFOLD_SURFACE_SHAPE_REPRESENTATION('',(#11,#15),#765);
#11 = AXIS2_PLACEMENT_3D('',#12,#13,#14);
#12 = CARTESIAN_POINT('',(0.,0.,0.));
#13 = DIRECTION('',(0.,0.,1.));
#14 = DIRECTION('',(1.,0.,-0.));
#15 = SHELL_BASED_SURFACE_MODEL('',(#16));
#16 = OPEN_SHELL('',(#17,#661,#732));
#17 = ADVANCED_FACE('',(#18,#81),#31,.T.);
#18 = FACE_BOUND('',#19,.T.);
#19 = EDGE_LOOP('',(#20,#41,#55,#69));
#20 = ORIENTED_EDGE('',*,*,#21,.F.);
#21 = EDGE_CURVE('',#22,#24,#26,.T.);
#22 = VERTEX_POINT('',#23);
#23 = CARTESIAN_POINT('',(-30.,-30.,0.));
#24 = VERTEX_POINT('',#25);
#25 = CARTESIAN_POINT('',(-30.,30.,0.));
#26 = SURFACE_CURVE('',#27,(#30),.PCURVE_S1.);
#27 = B_SPLINE_CURVE_WITH_KNOTS('',1,(#28,#29),.UNSPECIFIED.,.F.,.F.,(2,
    2),(0.,1.),.PIECEWISE_BEZIER_KNOTS.);
#28 = CARTESIAN_POINT('',(-30.,-30.,0.));
#29 = CARTESIAN_POINT('',(-30.,30.,0.));
#30 = PCURVE('',#31,#36);
#31 = B_SPLINE_SURFACE_WITH_KNOTS('',1,1,(
    (#32,#33)
    ,(#34,#35)),.UNSPECIFIED.,.F.,.F.,.F.,(2,2),(2,2),(0.,1.),(0.,1.),
  .PIECEWISE_BEZIER_KNOTS.);
#32 = CARTESIAN_POINT('',(-30.,-30.,0.));
#33 = CARTESIAN_POINT('',(-30.,30.,0.));
#34 = CARTESIAN_POINT('',(30.,-30.,0.));
#35 = CARTESIAN_POINT('',(30.,30.,0.));
#36 = DEFINITIONAL_REPRESENTATION('',(#37),#40);
#37 = B_SPLINE_CURVE_WITH_KNOTS('',1,(#38,#39),.UNSPECIFIED.,.F.,.F.,(2,
    2),(0.,1.),.PIECEWISE_BEZIER_KNOTS.);
#38 = CARTESIAN_POINT('',(0.,0.));
#39 = CARTESIAN_POINT('',(0.,1.));
#40 = ( GEOMETRIC_REPRESENTATION_CONTEXT(2) 
PARAMETRIC_REPRESENTATION_CONTEXT() REPRESENTATION_CONTEXT('2D SPACE',''
  ) );
#41 = ORIENTED_EDGE('',*,*,#42,.T.);
#42 = EDGE_CURVE('',#22,#43,#45,.T.);
#43 = VERTEX_POINT('',#44);
#44 = CARTESIAN_POINT('',(30.,-30.,0.));
#45 = SURFACE_CURVE('',#46,(#49),.PCURVE_S1.);
#46 = B_SPLINE_CURVE_WITH_KNOTS('',1,(#47,#48),.UNSPECIFIED.,.F.,.F.,(2,
    2),(0.,1.),.PIECEWISE_BEZIER_KNOTS.);
#47 = CARTESIAN_POINT('',(-30.,-30.,0.));
#48 = CARTESIAN_POINT('',(30.,-30.,0.));
#49 = PCURVE('',#31,#50);
#50 = DEFINITIONAL_REPRESENTATION('',(#51),#54);
#51 = B_SPLINE_CURVE_WITH_KNOTS('',1,(#52,#53),.UNSPECIFIED.,.F.,.F.,(2,
    2),(0.,1.),.PIECEWISE_BEZIER_KNOTS.);
#52 = CARTESIAN_POINT('',(0.,0.));
#53 = CARTESIAN_POINT('',(1.,0.));
#54 = ( GEOMETRIC_REPRESENTATION_CONTEXT(2) 
PARAMETRIC_REPRESENTATION_CONTEXT() REPRESENTATION_CONTEXT('2D SPACE',''
  ) );
#55 = ORIENTED_EDGE('',*,*,#56,.T.);
#56 = EDGE_CURVE('',#43,#57,#59,.T.);
#57 = VERTEX_POINT('',#58);
#58 = CARTESIAN_POINT('',(30.,30.,0.));
#59 = SURFACE_CURVE('',#60,(#63),.PCURVE_S1.);
#60 = B_SPLINE_CURVE_WITH_KNOTS('',1,(#61,#62),.UNSPECIFIED.,.F.,.F.,(2,
    2),(0.,1.),.PIECEWISE_BEZIER_KNOTS.);
#61 = CARTESIAN_POINT('',(30.,-30.,0.));
#62 = CARTESIAN_POINT('',(30.,30.,0.));
#63 = PCURVE('',#31,#64);
#64 = DEFINITIONAL_REPRESENTATION('',(#65),#68);
#65 = B_SPLINE_CURVE_WITH_KNOTS('',1,(#66,#67),.UNSPECIFIED.,.F.,.F.,(2,
    2),(0.,1.),.PIECEWISE_BEZIER_KNOTS.);
#66 = CARTESIAN_POINT('',(1.,0.));
#67 = CARTESIAN_POINT('',(1.,1.));
#68 = ( GEOMETRIC_REPRESENTATION_CONTEXT(2) 
PARAMETRIC_REPRESENTATION_CONTEXT() REPRESENTATION_CONTEXT('2D SPACE',''
  ) );
#69 = ORIENTED_EDGE('',*,*,#70,.F.);
#70 = EDGE_CURVE('',#24,#57,#71,.T.);
#71 = SURFACE_CURVE('',#72,(#75),.PCURVE_S1.);
#72 = B_SPLINE_CURVE_WITH_KNOTS('',1,(#73,#74),.UNSPECIFIED.,.F.,.F.,(2,
    2),(0.,1.),.PIECEWISE_BEZIER_KNOTS.);
#73 = CARTESIAN_POINT('',(-30.,30.,0.));
#74 = CARTESIAN_POINT('',(30.,30.,0.));
#75 = PCURVE('',#31,#76);
#76 = DEFINITIONAL_REPRESENTATION('',(#77),#80);
#77 = B_SPLINE_CURVE_WITH_KNOTS('',1,(#78,#79),.UNSPECIFIED.,.F.,.F.,(2,
    2),(0.,1.),.PIECEWISE_BEZIER_KNOTS.);
#78 = CARTESIAN_POINT('',(0.,1.));
#79 = CARTESIAN_POINT('',(1.,1.));
#80 = ( GEOMETRIC_REPRESENTATION_CONTEXT(2) 
PARAMETRIC_REPRESENTATION_CONTEXT() REPRESENTATION_CONTEXT('2D SPACE',''
  ) );
#81 = FACE_BOUND('',#82,.T.);
#82 = EDGE_LOOP('',(#83,#146,#207,#245,#283,#321,#359,#397,#435,#473,
    #511,#549,#587,#625));
#83 = ORIENTED_EDGE('',*,*,#84,.F.);
#84 = EDGE_CURVE('',#85,#87,#89,.T.);
#85 = VERTEX_POINT('',#86);
#86 = CARTESIAN_POINT('',(7.105427357601E-15,12.,2.960594732334E-16));
#87 = VERTEX_POINT('',#88);
#88 = CARTESIAN_POINT('',(-4.331773114884,11.19087722792,
    4.440892098501E-16));
#89 = SURFACE_CURVE('',#90,(#99,#111),.PCURVE_S1.);
#90 = B_SPLINE_CURVE_WITH_KNOTS('',7,(#91,#92,#93,#94,#95,#96,#97,#98),
  .UNSPECIFIED.,.F.,.F.,(8,8),(0.,1.),.PIECEWISE_BEZIER_KNOTS.);
#91 = CARTESIAN_POINT('',(5.329070518201E-15,12.,0.));
#92 = CARTESIAN_POINT('',(-0.623940119007,12.,0.));
#93 = CARTESIAN_POINT('',(-1.247820084983,11.962163266269,0.));
#94 = CARTESIAN_POINT('',(-1.870763789101,11.88645803882,0.));
#95 = CARTESIAN_POINT('',(-2.491795218507,11.772515080435,0.));
#96 = CARTESIAN_POINT('',(-3.109820168003,11.619550149946,0.));
#97 = CARTESIAN_POINT('',(-3.723607951737,11.426286475515,0.));
#98 = CARTESIAN_POINT('',(-4.331773114884,11.19087722792,0.));
#99 = PCURVE('',#31,#100);
#100 = DEFINITIONAL_REPRESENTATION('',(#101),#110);
#101 = B_SPLINE_CURVE_WITH_KNOTS('',7,(#102,#103,#104,#105,#106,#107,
    #108,#109),.UNSPECIFIED.,.F.,.F.,(8,8),(0.,1.),
  .PIECEWISE_BEZIER_KNOTS.);
#102 = CARTESIAN_POINT('',(0.5,0.7));
#103 = CARTESIAN_POINT('',(0.489600998017,0.7));
#104 = CARTESIAN_POINT('',(0.479202998584,0.699369387771));
#105 = CARTESIAN_POINT('',(0.468820603515,0.69810763398));
#106 = CARTESIAN_POINT('',(0.458470079692,0.696208584674));
#107 = CARTESIAN_POINT('',(0.448169663867,0.693659169166));
#108 = CARTESIAN_POINT('',(0.437939867471,0.690438107925));
#109 = CARTESIAN_POINT('',(0.427803781419,0.686514620465));
#110 = ( GEOMETRIC_REPRESENTATION_CONTEXT(2) 
PARAMETRIC_REPRESENTATION_CONTEXT() REPRESENTATION_CONTEXT('2D SPACE',''
  ) );
#111 = PCURVE('',#112,#135);
#112 = B_SPLINE_SURFACE_WITH_KNOTS('',10,1,(
    (#113,#114)
    ,(#115,#116)
    ,(#117,#118)
    ,(#119,#120)
    ,(#121,#122)
    ,(#123,#124)
    ,(#125,#126)
    ,(#127,#128)
    ,(#129,#130)
    ,(#131,#132)
    ,(#133,#134
    )),.UNSPECIFIED.,.F.,.F.,.F.,(11,11),(2,2),(0.,1.),(0.,1.),
  .PIECEWISE_BEZIER_KNOTS.);
#113 = CARTESIAN_POINT('',(3.552713678801E-15,12.,-5.));
#114 = CARTESIAN_POINT('',(3.552713678801E-15,12.,40.));
#115 = CARTESIAN_POINT('',(-3.769911184308,12.,-5.));
#116 = CARTESIAN_POINT('',(-3.769911184308,12.,40.));
#117 = CARTESIAN_POINT('',(-7.539822368615,10.684052746521,-5.));
#118 = CARTESIAN_POINT('',(-7.539822368615,10.684052746521,40.));
#119 = CARTESIAN_POINT('',(-10.79296227491,8.052158239564,-5.));
#120 = CARTESIAN_POINT('',(-10.79296227491,8.052158239564,40.));
#121 = CARTESIAN_POINT('',(-13.01255962521,4.336242886352,-5.));
#122 = CARTESIAN_POINT('',(-13.01255962521,4.336242886352,40.));
#123 = CARTESIAN_POINT('',(-13.80327952434,6.217248937901E-15,-5.));
#124 = CARTESIAN_POINT('',(-13.80327952434,6.217248937901E-15,40.));
#125 = CARTESIAN_POINT('',(-13.01255962521,-4.336242886352,-5.));
#126 = CARTESIAN_POINT('',(-13.01255962521,-4.336242886352,40.));
#127 = CARTESIAN_POINT('',(-10.79296227491,-8.052158239564,-5.));
#128 = CARTESIAN_POINT('',(-10.79296227491,-8.052158239564,40.));
#129 = CARTESIAN_POINT('',(-7.539822368616,-10.68405274652,-5.));
#130 = CARTESIAN_POINT('',(-7.539822368616,-10.68405274652,40.));
#131 = CARTESIAN_POINT('',(-3.769911184308,-12.,-5.));
#132 = CARTESIAN_POINT('',(-3.769911184308,-12.,40.));
#133 = CARTESIAN_POINT('',(-1.376676550535E-14,-12.,-5.));
#134 = CARTESIAN_POINT('',(-1.376676550535E-14,-12.,40.));
#135 = DEFINITIONAL_REPRESENTATION('',(#136),#145);
#136 = B_SPLINE_CURVE_WITH_KNOTS('',7,(#137,#138,#139,#140,#141,#142,
    #143,#144),.UNSPECIFIED.,.F.,.F.,(8,8),(0.,1.),
  .PIECEWISE_BEZIER_KNOTS.);
#137 = CARTESIAN_POINT('',(0.,0.111111111111));
#138 = CARTESIAN_POINT('',(1.655052568889E-02,0.111111111111));
#139 = CARTESIAN_POINT('',(3.309929219201E-02,0.111111111111));
#140 = CARTESIAN_POINT('',(4.969670882902E-02,0.111111111111));
#141 = CARTESIAN_POINT('',(6.638943591219E-02,0.111111111111));
#142 = CARTESIAN_POINT('',(8.322554031383E-02,0.111111111111));
#143 = CARTESIAN_POINT('',(0.100259651034,0.111111111111));
#144 = CARTESIAN_POINT('',(0.117558114766,0.111111111111));
#145 = ( GEOMETRIC_REPRESENTATION_CONTEXT(2) 
PARAMETRIC_REPRESENTATION_CONTEXT() REPRESENTATION_CONTEXT('2D SPACE',''
  ) );
#146 = ORIENTED_EDGE('',*,*,#147,.F.);
#147 = EDGE_CURVE('',#148,#85,#150,.T.);
#148 = VERTEX_POINT('',#149);
#149 = CARTESIAN_POINT('',(5.380448851777,10.72617125213,
    4.440892098501E-16));
#150 = SURFACE_CURVE('',#151,(#160,#172),.PCURVE_S1.);
#151 = B_SPLINE_CURVE_WITH_KNOTS('',7,(#152,#153,#154,#155,#156,#157,
    #158,#159),.UNSPECIFIED.,.F.,.F.,(8,8),(0.,1.),
  .PIECEWISE_BEZIER_KNOTS.);
#152 = CARTESIAN_POINT('',(5.380448851777,10.72617125213,0.));
#153 = CARTESIAN_POINT('',(4.633722504075,11.100743717801,0.));
#154 = CARTESIAN_POINT('',(3.875049263981,11.405406975538,0.));
#155 = CARTESIAN_POINT('',(3.107725426291,11.645218751935,0.));
#156 = CARTESIAN_POINT('',(2.334466178331,11.82312697538,0.));
#157 = CARTESIAN_POINT('',(1.557550307616,11.941014263543,0.));
#158 = CARTESIAN_POINT('',(0.778886324528,12.,0.));
#159 = CARTESIAN_POINT('',(7.105427357601E-15,12.,0.));
#160 = PCURVE('',#31,#161);
#161 = DEFINITIONAL_REPRESENTATION('',(#162),#171);
#162 = B_SPLINE_CURVE_WITH_KNOTS('',7,(#163,#164,#165,#166,#167,#168,
    #169,#170),.UNSPECIFIED.,.F.,.F.,(8,8),(0.,1.),
  .PIECEWISE_BEZIER_KNOTS.);
#163 = CARTESIAN_POINT('',(0.58967414753,0.678769520869));
#164 = CARTESIAN_POINT('',(0.577228708401,0.685012395297));
#165 = CARTESIAN_POINT('',(0.5645841544,0.690090116259));
#166 = CARTESIAN_POINT('',(0.551795423772,0.694086979199));
#167 = CARTESIAN_POINT('',(0.538907769639,0.697052116256));
#168 = CARTESIAN_POINT('',(0.525959171794,0.699016904392));
#169 = CARTESIAN_POINT('',(0.512981438742,0.7));
#170 = CARTESIAN_POINT('',(0.5,0.7));
#171 = ( GEOMETRIC_REPRESENTATION_CONTEXT(2) 
PARAMETRIC_REPRESENTATION_CONTEXT() REPRESENTATION_CONTEXT('2D SPACE',''
  ) );
#172 = PCURVE('',#173,#196);
#173 = B_SPLINE_SURFACE_WITH_KNOTS('',10,1,(
    (#174,#175)
    ,(#176,#177)
    ,(#178,#179)
    ,(#180,#181)
    ,(#182,#183)
    ,(#184,#185)
    ,(#186,#187)
    ,(#188,#189)
    ,(#190,#191)
    ,(#192,#193)
    ,(#194,#195
    )),.UNSPECIFIED.,.F.,.F.,.F.,(11,11),(2,2),(0.,1.),(0.,1.),
  .PIECEWISE_BEZIER_KNOTS.);
#174 = CARTESIAN_POINT('',(0.,-12.,-5.));
#175 = CARTESIAN_POINT('',(0.,-12.,40.));
#176 = CARTESIAN_POINT('',(3.769911184308,-12.,-5.));
#177 = CARTESIAN_POINT('',(3.769911184308,-12.,40.));
#178 = CARTESIAN_POINT('',(7.539822368616,-10.68405274652,-5.));
#179 = CARTESIAN_POINT('',(7.539822368616,-10.68405274652,40.));
#180 = CARTESIAN_POINT('',(10.792962274918,-8.052158239564,-5.));
#181 = CARTESIAN_POINT('',(10.792962274918,-8.052158239564,40.));
#182 = CARTESIAN_POINT('',(13.012559625211,-4.336242886352,-5.));
#183 = CARTESIAN_POINT('',(13.012559625211,-4.336242886352,40.));
#184 = CARTESIAN_POINT('',(13.80327952434,-1.7763568394E-15,-5.));
#185 = CARTESIAN_POINT('',(13.80327952434,-1.7763568394E-15,40.));
#186 = CARTESIAN_POINT('',(13.012559625211,4.336242886352,-5.));
#187 = CARTESIAN_POINT('',(13.012559625211,4.336242886352,40.));
#188 = CARTESIAN_POINT('',(10.792962274918,8.052158239564,-5.));
#189 = CARTESIAN_POINT('',(10.792962274918,8.052158239564,40.));
#190 = CARTESIAN_POINT('',(7.539822368616,10.684052746521,-5.));
#191 = CARTESIAN_POINT('',(7.539822368616,10.684052746521,40.));
#192 = CARTESIAN_POINT('',(3.769911184308,12.,-5.));
#193 = CARTESIAN_POINT('',(3.769911184308,12.,40.));
#194 = CARTESIAN_POINT('',(1.15463194561E-14,12.,-5.));
#195 = CARTESIAN_POINT('',(1.15463194561E-14,12.,40.));
#196 = DEFINITIONAL_REPRESENTATION('',(#197),#206);
#197 = B_SPLINE_CURVE_WITH_KNOTS('',7,(#198,#199,#200,#201,#202,#203,
    #204,#205),.UNSPECIFIED.,.F.,.F.,(8,8),(0.,1.),
  .PIECEWISE_BEZIER_KNOTS.);
#198 = CARTESIAN_POINT('',(0.852004441211,0.111111111111));
#199 = CARTESIAN_POINT('',(0.874164294262,0.111111111111));
#200 = CARTESIAN_POINT('',(0.895776138736,0.111111111111));
#201 = CARTESIAN_POINT('',(0.916996273839,0.111111111111));
#202 = CARTESIAN_POINT('',(0.937934708042,0.111111111111));
#203 = CARTESIAN_POINT('',(0.958684489611,0.111111111111));
#204 = CARTESIAN_POINT('',(0.979339398557,0.111111111111));
#205 = CARTESIAN_POINT('',(1.,0.111111111111));
#206 = ( GEOMETRIC_REPRESENTATION_CONTEXT(2) 
PARAMETRIC_REPRESENTATION_CONTEXT() REPRESENTATION_CONTEXT('2D SPACE',''
  ) );
#207 = ORIENTED_EDGE('',*,*,#208,.F.);
#208 = EDGE_CURVE('',#209,#148,#211,.T.);
#209 = VERTEX_POINT('',#210);
#210 = CARTESIAN_POINT('',(9.548367903653,7.268324761435,0.));
#211 = SURFACE_CURVE('',#212,(#221,#233),.PCURVE_S1.);
#212 = B_SPLINE_CURVE_WITH_KNOTS('',7,(#213,#214,#215,#216,#217,#218,
    #219,#220),.UNSPECIFIED.,.F.,.F.,(8,8),(0.,1.),
  .PIECEWISE_BEZIER_KNOTS.);
#213 = CARTESIAN_POINT('',(9.548367903653,7.268324761435,0.));
#214 = CARTESIAN_POINT('',(9.019312930419,7.963342968263,0.));
#215 = CARTESIAN_POINT('',(8.45720064746,8.579335829627,0.));
#216 = CARTESIAN_POINT('',(7.870853697398,9.126258608528,0.));
#217 = CARTESIAN_POINT('',(7.266291671361,9.609648517161,0.));
#218 = CARTESIAN_POINT('',(6.648075159054,10.034797360768,0.));
#219 = CARTESIAN_POINT('',(6.019024263947,10.405849400101,0.));
#220 = CARTESIAN_POINT('',(5.380448851777,10.72617125213,0.));
#221 = PCURVE('',#31,#222);
#222 = DEFINITIONAL_REPRESENTATION('',(#223),#232);
#223 = B_SPLINE_CURVE_WITH_KNOTS('',7,(#224,#225,#226,#227,#228,#229,
    #230,#231),.UNSPECIFIED.,.F.,.F.,(8,8),(0.,1.),
  .PIECEWISE_BEZIER_KNOTS.);
#224 = CARTESIAN_POINT('',(0.659139465061,0.621138746024));
#225 = CARTESIAN_POINT('',(0.650321882174,0.632722382804));
#226 = CARTESIAN_POINT('',(0.640953344124,0.642988930494));
#227 = CARTESIAN_POINT('',(0.631180894957,0.652104310142));
#228 = CARTESIAN_POINT('',(0.621104861189,0.660160808619));
#229 = CARTESIAN_POINT('',(0.610801252651,0.667246622679));
#230 = CARTESIAN_POINT('',(0.600317071066,0.673430823335));
#231 = CARTESIAN_POINT('',(0.58967414753,0.678769520869));
#232 = ( GEOMETRIC_REPRESENTATION_CONTEXT(2) 
PARAMETRIC_REPRESENTATION_CONTEXT() REPRESENTATION_CONTEXT('2D SPACE',''
  ) );
#233 = PCURVE('',#173,#234);
#234 = DEFINITIONAL_REPRESENTATION('',(#235),#244);
#235 = B_SPLINE_CURVE_WITH_KNOTS('',7,(#236,#237,#238,#239,#240,#241,
    #242,#243),.UNSPECIFIED.,.F.,.F.,(8,8),(0.,1.),
  .PIECEWISE_BEZIER_KNOTS.);
#236 = CARTESIAN_POINT('',(0.707104540482,0.111111111111));
#237 = CARTESIAN_POINT('',(0.730274037421,0.111111111111));
#238 = CARTESIAN_POINT('',(0.752306780511,0.111111111111));
#239 = CARTESIAN_POINT('',(0.773470957062,0.111111111111));
#240 = CARTESIAN_POINT('',(0.79390160527,0.111111111111));
#241 = CARTESIAN_POINT('',(0.813726298002,0.111111111111));
#242 = CARTESIAN_POINT('',(0.833054075606,0.111111111111));
#243 = CARTESIAN_POINT('',(0.852004441211,0.111111111111));
#244 = ( GEOMETRIC_REPRESENTATION_CONTEXT(2) 
PARAMETRIC_REPRESENTATION_CONTEXT() REPRESENTATION_CONTEXT('2D SPACE',''
  ) );
#245 = ORIENTED_EDGE('',*,*,#246,.F.);
#246 = EDGE_CURVE('',#247,#209,#249,.T.);
#247 = VERTEX_POINT('',#248);
#248 = CARTESIAN_POINT('',(11.842994891877,1.934771613947,0.));
#249 = SURFACE_CURVE('',#250,(#259,#271),.PCURVE_S1.);
#250 = B_SPLINE_CURVE_WITH_KNOTS('',7,(#251,#252,#253,#254,#255,#256,
    #257,#258),.UNSPECIFIED.,.F.,.F.,(8,8),(0.,1.),
  .PIECEWISE_BEZIER_KNOTS.);
#251 = CARTESIAN_POINT('',(11.842994891877,1.934771613947,0.));
#252 = CARTESIAN_POINT('',(11.689205791687,2.876133872692,0.));
#253 = CARTESIAN_POINT('',(11.453824527636,3.768247263588,0.));
#254 = CARTESIAN_POINT('',(11.151364276383,4.596198484212,0.));
#255 = CARTESIAN_POINT('',(10.798738155562,5.357113661268,0.));
#256 = CARTESIAN_POINT('',(10.408770622415,6.05239366037,0.));
#257 = CARTESIAN_POINT('',(9.990704434772,6.687228357043,0.));
#258 = CARTESIAN_POINT('',(9.548367903653,7.268324761435,0.));
#259 = PCURVE('',#31,#260);
#260 = DEFINITIONAL_REPRESENTATION('',(#261),#270);
#261 = B_SPLINE_CURVE_WITH_KNOTS('',7,(#262,#263,#264,#265,#266,#267,
    #268,#269),.UNSPECIFIED.,.F.,.F.,(8,8),(0.,1.),
  .PIECEWISE_BEZIER_KNOTS.);
#262 = CARTESIAN_POINT('',(0.697383248198,0.532246193566));
#263 = CARTESIAN_POINT('',(0.694820096528,0.547935564545));
#264 = CARTESIAN_POINT('',(0.690897075461,0.56280412106));
#265 = CARTESIAN_POINT('',(0.685856071273,0.57660330807));
#266 = CARTESIAN_POINT('',(0.679978969259,0.589285227688));
#267 = CARTESIAN_POINT('',(0.673479510374,0.600873227673));
#268 = CARTESIAN_POINT('',(0.66651174058,0.611453805951));
#269 = CARTESIAN_POINT('',(0.659139465061,0.621138746024));
#270 = ( GEOMETRIC_REPRESENTATION_CONTEXT(2) 
PARAMETRIC_REPRESENTATION_CONTEXT() REPRESENTATION_CONTEXT('2D SPACE',''
  ) );
#271 = PCURVE('',#173,#272);
#272 = DEFINITIONAL_REPRESENTATION('',(#273),#282);
#273 = B_SPLINE_CURVE_WITH_KNOTS('',7,(#274,#275,#276,#277,#278,#279,
    #280,#281),.UNSPECIFIED.,.F.,.F.,(8,8),(0.,1.),
  .PIECEWISE_BEZIER_KNOTS.);
#274 = CARTESIAN_POINT('',(0.55154651148,0.111111111111));
#275 = CARTESIAN_POINT('',(0.576847994417,0.111111111111));
#276 = CARTESIAN_POINT('',(0.601208985137,0.111111111111));
#277 = CARTESIAN_POINT('',(0.624439367116,0.111111111111));
#278 = CARTESIAN_POINT('',(0.646560110309,0.111111111111));
#279 = CARTESIAN_POINT('',(0.667616548857,0.111111111111));
#280 = CARTESIAN_POINT('',(0.687732801395,0.111111111111));
#281 = CARTESIAN_POINT('',(0.707104540482,0.111111111111));
#282 = ( GEOMETRIC_REPRESENTATION_CONTEXT(2) 
PARAMETRIC_REPRESENTATION_CONTEXT() REPRESENTATION_CONTEXT('2D SPACE',''
  ) );
#283 = ORIENTED_EDGE('',*,*,#284,.F.);
#284 = EDGE_CURVE('',#285,#247,#287,.T.);
#285 = VERTEX_POINT('',#286);
#286 = CARTESIAN_POINT('',(11.022139700519,-4.744708888585,
    4.440892098501E-16));
#287 = SURFACE_CURVE('',#288,(#297,#309),.PCURVE_S1.);
#288 = B_SPLINE_CURVE_WITH_KNOTS('',7,(#289,#290,#291,#292,#293,#294,
    #295,#296),.UNSPECIFIED.,.F.,.F.,(8,8),(0.,1.),
  .PIECEWISE_BEZIER_KNOTS.);
#289 = CARTESIAN_POINT('',(11.022138338568,-4.744708985656,0.));
#290 = CARTESIAN_POINT('',(11.365925987248,-3.946083530321,0.));
#291 = CARTESIAN_POINT('',(11.664749093404,-3.066016625855,0.));
#292 = CARTESIAN_POINT('',(11.895677355223,-2.113902947986,0.));
#293 = CARTESIAN_POINT('',(12.03738203775,-1.106528338819,0.));
#294 = CARTESIAN_POINT('',(12.074434530531,-6.979857902335E-02,0.));
#295 = CARTESIAN_POINT('',(12.002198126613,0.960268762542,0.));
#296 = CARTESIAN_POINT('',(11.842994891877,1.934771613947,0.));
#297 = PCURVE('',#31,#298);
#298 = DEFINITIONAL_REPRESENTATION('',(#299),#308);
#299 = B_SPLINE_CURVE_WITH_KNOTS('',7,(#300,#301,#302,#303,#304,#305,
    #306,#307),.UNSPECIFIED.,.F.,.F.,(8,8),(0.,1.),
  .PIECEWISE_BEZIER_KNOTS.);
#300 = CARTESIAN_POINT('',(0.683702305643,0.420921516906));
#301 = CARTESIAN_POINT('',(0.689432099787,0.434231941161));
#302 = CARTESIAN_POINT('',(0.69441248489,0.448899722902));
#303 = CARTESIAN_POINT('',(0.698261289254,0.4647682842));
#304 = CARTESIAN_POINT('',(0.700623033962,0.48155786102));
#305 = CARTESIAN_POINT('',(0.701240575509,0.49883669035));
#306 = CARTESIAN_POINT('',(0.700036635444,0.516004479376));
#307 = CARTESIAN_POINT('',(0.697383248198,0.532246193566));
#308 = ( GEOMETRIC_REPRESENTATION_CONTEXT(2) 
PARAMETRIC_REPRESENTATION_CONTEXT() REPRESENTATION_CONTEXT('2D SPACE',''
  ) );
#309 = PCURVE('',#173,#310);
#310 = DEFINITIONAL_REPRESENTATION('',(#311),#320);
#311 = B_SPLINE_CURVE_WITH_KNOTS('',7,(#312,#313,#314,#315,#316,#317,
    #318,#319),.UNSPECIFIED.,.F.,.F.,(8,8),(0.,1.),
  .PIECEWISE_BEZIER_KNOTS.);
#312 = CARTESIAN_POINT('',(0.370608404743,0.111111111111));
#313 = CARTESIAN_POINT('',(0.39367201486,0.111111111111));
#314 = CARTESIAN_POINT('',(0.41824845915,0.111111111111));
#315 = CARTESIAN_POINT('',(0.444065152256,0.111111111111));
#316 = CARTESIAN_POINT('',(0.470807591599,0.111111111111));
#317 = CARTESIAN_POINT('',(0.498079460643,0.111111111111));
#318 = CARTESIAN_POINT('',(0.5253542916,0.111111111111));
#319 = CARTESIAN_POINT('',(0.55154651148,0.111111111111));
#320 = ( GEOMETRIC_REPRESENTATION_CONTEXT(2) 
PARAMETRIC_REPRESENTATION_CONTEXT() REPRESENTATION_CONTEXT('2D SPACE',''
  ) );
#321 = ORIENTED_EDGE('',*,*,#322,.F.);
#322 = EDGE_CURVE('',#323,#285,#325,.T.);
#323 = VERTEX_POINT('',#324);
#324 = CARTESIAN_POINT('',(8.838528587332,-8.116666729875,
    -8.881784197001E-16));
#325 = SURFACE_CURVE('',#326,(#335,#347),.PCURVE_S1.);
#326 = B_SPLINE_CURVE_WITH_KNOTS('',7,(#327,#328,#329,#330,#331,#332,
    #333,#334),.UNSPECIFIED.,.F.,.F.,(8,8),(0.,1.),
  .PIECEWISE_BEZIER_KNOTS.);
#327 = CARTESIAN_POINT('',(8.838527201093,-8.116666548282,0.));
#328 = CARTESIAN_POINT('',(9.193790094699,-7.729805451983,0.));
#329 = CARTESIAN_POINT('',(9.538531804524,-7.314767559768,0.));
#330 = CARTESIAN_POINT('',(9.871325858983,-6.869345353777,0.));
#331 = CARTESIAN_POINT('',(10.189821997057,-6.391438117165,0.));
#332 = CARTESIAN_POINT('',(10.49074555948,-5.879114703549,0.));
#333 = CARTESIAN_POINT('',(10.769895194913,-5.33067475909,0.));
#334 = CARTESIAN_POINT('',(11.022138338568,-4.744708985656,0.));
#335 = PCURVE('',#31,#336);
#336 = DEFINITIONAL_REPRESENTATION('',(#337),#346);
#337 = B_SPLINE_CURVE_WITH_KNOTS('',7,(#338,#339,#340,#341,#342,#343,
    #344,#345),.UNSPECIFIED.,.F.,.F.,(8,8),(0.,1.),
  .PIECEWISE_BEZIER_KNOTS.);
#338 = CARTESIAN_POINT('',(0.647308786685,0.364722224195));
#339 = CARTESIAN_POINT('',(0.653229834912,0.371169909134));
#340 = CARTESIAN_POINT('',(0.658975530075,0.378087207337));
#341 = CARTESIAN_POINT('',(0.66452209765,0.38551091077));
#342 = CARTESIAN_POINT('',(0.669830366618,0.393476031381));
#343 = CARTESIAN_POINT('',(0.674845759325,0.402014754941));
#344 = CARTESIAN_POINT('',(0.679498253249,0.411155420682));
#345 = CARTESIAN_POINT('',(0.683702305643,0.420921516906));
#346 = ( GEOMETRIC_REPRESENTATION_CONTEXT(2) 
PARAMETRIC_REPRESENTATION_CONTEXT() REPRESENTATION_CONTEXT('2D SPACE',''
  ) );
#347 = PCURVE('',#173,#348);
#348 = DEFINITIONAL_REPRESENTATION('',(#349),#358);
#349 = B_SPLINE_CURVE_WITH_KNOTS('',7,(#350,#351,#352,#353,#354,#355,
    #356,#357),.UNSPECIFIED.,.F.,.F.,(8,8),(0.,1.),
  .PIECEWISE_BEZIER_KNOTS.);
#350 = CARTESIAN_POINT('',(0.263543697545,0.111111111111));
#351 = CARTESIAN_POINT('',(0.277476043047,0.111111111111));
#352 = CARTESIAN_POINT('',(0.291769883757,0.111111111111));
#353 = CARTESIAN_POINT('',(0.306486995672,0.111111111111));
#354 = CARTESIAN_POINT('',(0.321679564577,0.111111111111));
#355 = CARTESIAN_POINT('',(0.337395904979,0.111111111111));
#356 = CARTESIAN_POINT('',(0.353686221697,0.111111111111));
#357 = CARTESIAN_POINT('',(0.370608404743,0.111111111111));
#358 = ( GEOMETRIC_REPRESENTATION_CONTEXT(2) 
PARAMETRIC_REPRESENTATION_CONTEXT() REPRESENTATION_CONTEXT('2D SPACE',''
  ) );
#359 = ORIENTED_EDGE('',*,*,#360,.F.);
#360 = EDGE_CURVE('',#361,#323,#363,.T.);
#361 = VERTEX_POINT('',#362);
#362 = CARTESIAN_POINT('',(4.331773114884,-11.19087722792,
    4.440892098501E-16));
#363 = SURFACE_CURVE('',#364,(#373,#385),.PCURVE_S1.);
#364 = B_SPLINE_CURVE_WITH_KNOTS('',7,(#365,#366,#367,#368,#369,#370,
    #371,#372),.UNSPECIFIED.,.F.,.F.,(8,8),(0.,1.),
  .PIECEWISE_BEZIER_KNOTS.);
#365 = CARTESIAN_POINT('',(4.331773114884,-11.19087722792,0.));
#366 = CARTESIAN_POINT('',(5.011397479216,-10.92780747327,0.));
#367 = CARTESIAN_POINT('',(5.683389934402,-10.61232892906,0.));
#368 = CARTESIAN_POINT('',(6.346449469522,-10.24168410538,0.));
#369 = CARTESIAN_POINT('',(6.998074803932,-9.812247942797,0.));
#370 = CARTESIAN_POINT('',(7.634387787255,-9.319202641621,0.));
#371 = CARTESIAN_POINT('',(8.250304630579,-8.757207490194,0.));
#372 = CARTESIAN_POINT('',(8.838527201093,-8.116666548282,0.));
#373 = PCURVE('',#31,#374);
#374 = DEFINITIONAL_REPRESENTATION('',(#375),#384);
#375 = B_SPLINE_CURVE_WITH_KNOTS('',7,(#376,#377,#378,#379,#380,#381,
    #382,#383),.UNSPECIFIED.,.F.,.F.,(8,8),(0.,1.),
  .PIECEWISE_BEZIER_KNOTS.);
#376 = CARTESIAN_POINT('',(0.572196218581,0.313485379535));
#377 = CARTESIAN_POINT('',(0.58352329132,0.317869875445));
#378 = CARTESIAN_POINT('',(0.594723165573,0.323127851182));
#379 = CARTESIAN_POINT('',(0.605774157825,0.32930526491));
#380 = CARTESIAN_POINT('',(0.616634580066,0.336462534287));
#381 = CARTESIAN_POINT('',(0.627239796454,0.344679955973));
#382 = CARTESIAN_POINT('',(0.637505077176,0.35404654183));
#383 = CARTESIAN_POINT('',(0.647308786685,0.364722224195));
#384 = ( GEOMETRIC_REPRESENTATION_CONTEXT(2) 
PARAMETRIC_REPRESENTATION_CONTEXT() REPRESENTATION_CONTEXT('2D SPACE',''
  ) );
#385 = PCURVE('',#173,#386);
#386 = DEFINITIONAL_REPRESENTATION('',(#387),#396);
#387 = B_SPLINE_CURVE_WITH_KNOTS('',7,(#388,#389,#390,#391,#392,#393,
    #394,#395),.UNSPECIFIED.,.F.,.F.,(8,8),(0.,1.),
  .PIECEWISE_BEZIER_KNOTS.);
#388 = CARTESIAN_POINT('',(0.117558114766,0.111111111111));
#389 = CARTESIAN_POINT('',(0.136889142143,0.111111111111));
#390 = CARTESIAN_POINT('',(0.156533109088,0.111111111111));
#391 = CARTESIAN_POINT('',(0.176601380835,0.111111111111));
#392 = CARTESIAN_POINT('',(0.197197856622,0.111111111111));
#393 = CARTESIAN_POINT('',(0.218444715344,0.111111111111));
#394 = CARTESIAN_POINT('',(0.240475371999,0.111111111111));
#395 = CARTESIAN_POINT('',(0.263543697545,0.111111111111));
#396 = ( GEOMETRIC_REPRESENTATION_CONTEXT(2) 
PARAMETRIC_REPRESENTATION_CONTEXT() REPRESENTATION_CONTEXT('2D SPACE',''
  ) );
#397 = ORIENTED_EDGE('',*,*,#398,.F.);
#398 = EDGE_CURVE('',#399,#361,#401,.T.);
#399 = VERTEX_POINT('',#400);
#400 = CARTESIAN_POINT('',(-4.736951571734E-15,-12.,2.960594732334E-16)
  );
#401 = SURFACE_CURVE('',#402,(#411,#423),.PCURVE_S1.);
#402 = B_SPLINE_CURVE_WITH_KNOTS('',7,(#403,#404,#405,#406,#407,#408,
    #409,#410),.UNSPECIFIED.,.F.,.F.,(8,8),(0.,1.),
  .PIECEWISE_BEZIER_KNOTS.);
#403 = CARTESIAN_POINT('',(0.,-12.,0.));
#404 = CARTESIAN_POINT('',(0.623940119007,-12.,0.));
#405 = CARTESIAN_POINT('',(1.247820084983,-11.96216326626,0.));
#406 = CARTESIAN_POINT('',(1.870763789101,-11.88645803882,0.));
#407 = CARTESIAN_POINT('',(2.491795218507,-11.77251508043,0.));
#408 = CARTESIAN_POINT('',(3.109820168003,-11.61955014994,0.));
#409 = CARTESIAN_POINT('',(3.723607951737,-11.42628647551,0.));
#410 = CARTESIAN_POINT('',(4.331773114884,-11.19087722792,0.));
#411 = PCURVE('',#31,#412);
#412 = DEFINITIONAL_REPRESENTATION('',(#413),#422);
#413 = B_SPLINE_CURVE_WITH_KNOTS('',7,(#414,#415,#416,#417,#418,#419,
    #420,#421),.UNSPECIFIED.,.F.,.F.,(8,8),(0.,1.),
  .PIECEWISE_BEZIER_KNOTS.);
#414 = CARTESIAN_POINT('',(0.5,0.3));
#415 = CARTESIAN_POINT('',(0.510399001983,0.3));
#416 = CARTESIAN_POINT('',(0.520797001416,0.300630612229));
#417 = CARTESIAN_POINT('',(0.531179396485,0.30189236602));
#418 = CARTESIAN_POINT('',(0.541529920308,0.303791415326));
#419 = CARTESIAN_POINT('',(0.551830336133,0.306340830834));
#420 = CARTESIAN_POINT('',(0.562060132529,0.309561892075));
#421 = CARTESIAN_POINT('',(0.572196218581,0.313485379535));
#422 = ( GEOMETRIC_REPRESENTATION_CONTEXT(2) 
PARAMETRIC_REPRESENTATION_CONTEXT() REPRESENTATION_CONTEXT('2D SPACE',''
  ) );
#423 = PCURVE('',#173,#424);
#424 = DEFINITIONAL_REPRESENTATION('',(#425),#434);
#425 = B_SPLINE_CURVE_WITH_KNOTS('',7,(#426,#427,#428,#429,#430,#431,
    #432,#433),.UNSPECIFIED.,.F.,.F.,(8,8),(0.,1.),
  .PIECEWISE_BEZIER_KNOTS.);
#426 = CARTESIAN_POINT('',(0.,0.111111111111));
#427 = CARTESIAN_POINT('',(1.655052568889E-02,0.111111111111));
#428 = CARTESIAN_POINT('',(3.309929219201E-02,0.111111111111));
#429 = CARTESIAN_POINT('',(4.969670882901E-02,0.111111111111));
#430 = CARTESIAN_POINT('',(6.638943591219E-02,0.111111111111));
#431 = CARTESIAN_POINT('',(8.322554031383E-02,0.111111111111));
#432 = CARTESIAN_POINT('',(0.100259651034,0.111111111111));
#433 = CARTESIAN_POINT('',(0.117558114766,0.111111111111));
#434 = ( GEOMETRIC_REPRESENTATION_CONTEXT(2) 
PARAMETRIC_REPRESENTATION_CONTEXT() REPRESENTATION_CONTEXT('2D SPACE',''
  ) );
#435 = ORIENTED_EDGE('',*,*,#436,.F.);
#436 = EDGE_CURVE('',#437,#399,#439,.T.);
#437 = VERTEX_POINT('',#438);
#438 = CARTESIAN_POINT('',(-5.380448851777,-10.72617125213,
    4.440892098501E-16));
#439 = SURFACE_CURVE('',#440,(#449,#461),.PCURVE_S1.);
#440 = B_SPLINE_CURVE_WITH_KNOTS('',7,(#441,#442,#443,#444,#445,#446,
    #447,#448),.UNSPECIFIED.,.F.,.F.,(8,8),(0.,1.),
  .PIECEWISE_BEZIER_KNOTS.);
#441 = CARTESIAN_POINT('',(-5.380448851777,-10.72617125213,0.));
#442 = CARTESIAN_POINT('',(-4.633722504075,-11.1007437178,0.));
#443 = CARTESIAN_POINT('',(-3.875049263981,-11.40540697553,0.));
#444 = CARTESIAN_POINT('',(-3.107725426291,-11.64521875193,0.));
#445 = CARTESIAN_POINT('',(-2.334466178331,-11.82312697538,0.));
#446 = CARTESIAN_POINT('',(-1.557550307616,-11.94101426354,0.));
#447 = CARTESIAN_POINT('',(-0.778886324528,-12.,0.));
#448 = CARTESIAN_POINT('',(-1.06581410364E-14,-12.,0.));
#449 = PCURVE('',#31,#450);
#450 = DEFINITIONAL_REPRESENTATION('',(#451),#460);
#451 = B_SPLINE_CURVE_WITH_KNOTS('',7,(#452,#453,#454,#455,#456,#457,
    #458,#459),.UNSPECIFIED.,.F.,.F.,(8,8),(0.,1.),
  .PIECEWISE_BEZIER_KNOTS.);
#452 = CARTESIAN_POINT('',(0.41032585247,0.321230479131));
#453 = CARTESIAN_POINT('',(0.422771291599,0.314987604703));
#454 = CARTESIAN_POINT('',(0.4354158456,0.309909883741));
#455 = CARTESIAN_POINT('',(0.448204576228,0.305913020801));
#456 = CARTESIAN_POINT('',(0.461092230361,0.302947883744));
#457 = CARTESIAN_POINT('',(0.474040828206,0.300983095608));
#458 = CARTESIAN_POINT('',(0.487018561258,0.3));
#459 = CARTESIAN_POINT('',(0.5,0.3));
#460 = ( GEOMETRIC_REPRESENTATION_CONTEXT(2) 
PARAMETRIC_REPRESENTATION_CONTEXT() REPRESENTATION_CONTEXT('2D SPACE',''
  ) );
#461 = PCURVE('',#112,#462);
#462 = DEFINITIONAL_REPRESENTATION('',(#463),#472);
#463 = B_SPLINE_CURVE_WITH_KNOTS('',7,(#464,#465,#466,#467,#468,#469,
    #470,#471),.UNSPECIFIED.,.F.,.F.,(8,8),(0.,1.),
  .PIECEWISE_BEZIER_KNOTS.);
#464 = CARTESIAN_POINT('',(0.852004441211,0.111111111111));
#465 = CARTESIAN_POINT('',(0.874164294262,0.111111111111));
#466 = CARTESIAN_POINT('',(0.895776138736,0.111111111111));
#467 = CARTESIAN_POINT('',(0.916996273839,0.111111111111));
#468 = CARTESIAN_POINT('',(0.937934708042,0.111111111111));
#469 = CARTESIAN_POINT('',(0.958684489611,0.111111111111));
#470 = CARTESIAN_POINT('',(0.979339398557,0.111111111111));
#471 = CARTESIAN_POINT('',(1.,0.111111111111));
#472 = ( GEOMETRIC_REPRESENTATION_CONTEXT(2) 
PARAMETRIC_REPRESENTATION_CONTEXT() REPRESENTATION_CONTEXT('2D SPACE',''
  ) );
#473 = ORIENTED_EDGE('',*,*,#474,.F.);
#474 = EDGE_CURVE('',#475,#437,#477,.T.);
#475 = VERTEX_POINT('',#476);
#476 = CARTESIAN_POINT('',(-9.548367903653,-7.268324761435,0.));
#477 = SURFACE_CURVE('',#478,(#487,#499),.PCURVE_S1.);
#478 = B_SPLINE_CURVE_WITH_KNOTS('',7,(#479,#480,#481,#482,#483,#484,
    #485,#486),.UNSPECIFIED.,.F.,.F.,(8,8),(0.,1.),
  .PIECEWISE_BEZIER_KNOTS.);
#479 = CARTESIAN_POINT('',(-9.548367903653,-7.268324761435,0.));
#480 = CARTESIAN_POINT('',(-9.019312930419,-7.963342968262,0.));
#481 = CARTESIAN_POINT('',(-8.457200647458,-8.579335829629,0.));
#482 = CARTESIAN_POINT('',(-7.870853697402,-9.126258608522,0.));
#483 = CARTESIAN_POINT('',(-7.266291671357,-9.609648517166,0.));
#484 = CARTESIAN_POINT('',(-6.648075159056,-10.03479736076,0.));
#485 = CARTESIAN_POINT('',(-6.019024263946,-10.4058494001,0.));
#486 = CARTESIAN_POINT('',(-5.380448851777,-10.72617125213,0.));
#487 = PCURVE('',#31,#488);
#488 = DEFINITIONAL_REPRESENTATION('',(#489),#498);
#489 = B_SPLINE_CURVE_WITH_KNOTS('',7,(#490,#491,#492,#493,#494,#495,
    #496,#497),.UNSPECIFIED.,.F.,.F.,(8,8),(0.,1.),
  .PIECEWISE_BEZIER_KNOTS.);
#490 = CARTESIAN_POINT('',(0.340860534939,0.378861253976));
#491 = CARTESIAN_POINT('',(0.349678117826,0.367277617196));
#492 = CARTESIAN_POINT('',(0.359046655876,0.357011069506));
#493 = CARTESIAN_POINT('',(0.368819105043,0.347895689858));
#494 = CARTESIAN_POINT('',(0.378895138811,0.339839191381));
#495 = CARTESIAN_POINT('',(0.389198747349,0.332753377321));
#496 = CARTESIAN_POINT('',(0.399682928934,0.326569176665));
#497 = CARTESIAN_POINT('',(0.41032585247,0.321230479131));
#498 = ( GEOMETRIC_REPRESENTATION_CONTEXT(2) 
PARAMETRIC_REPRESENTATION_CONTEXT() REPRESENTATION_CONTEXT('2D SPACE',''
  ) );
#499 = PCURVE('',#112,#500);
#500 = DEFINITIONAL_REPRESENTATION('',(#501),#510);
#501 = B_SPLINE_CURVE_WITH_KNOTS('',7,(#502,#503,#504,#505,#506,#507,
    #508,#509),.UNSPECIFIED.,.F.,.F.,(8,8),(0.,1.),
  .PIECEWISE_BEZIER_KNOTS.);
#502 = CARTESIAN_POINT('',(0.707104540482,0.111111111111));
#503 = CARTESIAN_POINT('',(0.730274037421,0.111111111111));
#504 = CARTESIAN_POINT('',(0.752306780511,0.111111111111));
#505 = CARTESIAN_POINT('',(0.773470957062,0.111111111111));
#506 = CARTESIAN_POINT('',(0.79390160527,0.111111111111));
#507 = CARTESIAN_POINT('',(0.813726298002,0.111111111111));
#508 = CARTESIAN_POINT('',(0.833054075606,0.111111111111));
#509 = CARTESIAN_POINT('',(0.852004441211,0.111111111111));
#510 = ( GEOMETRIC_REPRESENTATION_CONTEXT(2) 
PARAMETRIC_REPRESENTATION_CONTEXT() REPRESENTATION_CONTEXT('2D SPACE',''
  ) );
#511 = ORIENTED_EDGE('',*,*,#512,.F.);
#512 = EDGE_CURVE('',#513,#475,#515,.T.);
#513 = VERTEX_POINT('',#514);
#514 = CARTESIAN_POINT('',(-11.84299489187,-1.934771613948,0.));
#515 = SURFACE_CURVE('',#516,(#525,#537),.PCURVE_S1.);
#516 = B_SPLINE_CURVE_WITH_KNOTS('',7,(#517,#518,#519,#520,#521,#522,
    #523,#524),.UNSPECIFIED.,.F.,.F.,(8,8),(0.,1.),
  .PIECEWISE_BEZIER_KNOTS.);
#517 = CARTESIAN_POINT('',(-11.84299489187,-1.934771613948,0.));
#518 = CARTESIAN_POINT('',(-11.68920579168,-2.876133872693,0.));
#519 = CARTESIAN_POINT('',(-11.45382452763,-3.768247263586,0.));
#520 = CARTESIAN_POINT('',(-11.15136427638,-4.596198484217,0.));
#521 = CARTESIAN_POINT('',(-10.79873815556,-5.357113661264,0.));
#522 = CARTESIAN_POINT('',(-10.40877062241,-6.052393660372,0.));
#523 = CARTESIAN_POINT('',(-9.990704434772,-6.687228357042,0.));
#524 = CARTESIAN_POINT('',(-9.548367903653,-7.268324761435,0.));
#525 = PCURVE('',#31,#526);
#526 = DEFINITIONAL_REPRESENTATION('',(#527),#536);
#527 = B_SPLINE_CURVE_WITH_KNOTS('',7,(#528,#529,#530,#531,#532,#533,
    #534,#535),.UNSPECIFIED.,.F.,.F.,(8,8),(0.,1.),
  .PIECEWISE_BEZIER_KNOTS.);
#528 = CARTESIAN_POINT('',(0.302616751802,0.467753806434));
#529 = CARTESIAN_POINT('',(0.305179903472,0.452064435455));
#530 = CARTESIAN_POINT('',(0.309102924539,0.43719587894));
#531 = CARTESIAN_POINT('',(0.314143928727,0.42339669193));
#532 = CARTESIAN_POINT('',(0.320021030741,0.410714772312));
#533 = CARTESIAN_POINT('',(0.326520489626,0.399126772327));
#534 = CARTESIAN_POINT('',(0.33348825942,0.388546194049));
#535 = CARTESIAN_POINT('',(0.340860534939,0.378861253976));
#536 = ( GEOMETRIC_REPRESENTATION_CONTEXT(2) 
PARAMETRIC_REPRESENTATION_CONTEXT() REPRESENTATION_CONTEXT('2D SPACE',''
  ) );
#537 = PCURVE('',#112,#538);
#538 = DEFINITIONAL_REPRESENTATION('',(#539),#548);
#539 = B_SPLINE_CURVE_WITH_KNOTS('',7,(#540,#541,#542,#543,#544,#545,
    #546,#547),.UNSPECIFIED.,.F.,.F.,(8,8),(0.,1.),
  .PIECEWISE_BEZIER_KNOTS.);
#540 = CARTESIAN_POINT('',(0.55154651148,0.111111111111));
#541 = CARTESIAN_POINT('',(0.576847994417,0.111111111111));
#542 = CARTESIAN_POINT('',(0.601208985137,0.111111111111));
#543 = CARTESIAN_POINT('',(0.624439367116,0.111111111111));
#544 = CARTESIAN_POINT('',(0.646560110309,0.111111111111));
#545 = CARTESIAN_POINT('',(0.667616548857,0.111111111111));
#546 = CARTESIAN_POINT('',(0.687732801395,0.111111111111));
#547 = CARTESIAN_POINT('',(0.707104540482,0.111111111111));
#548 = ( GEOMETRIC_REPRESENTATION_CONTEXT(2) 
PARAMETRIC_REPRESENTATION_CONTEXT() REPRESENTATION_CONTEXT('2D SPACE',''
  ) );
#549 = ORIENTED_EDGE('',*,*,#550,.F.);
#550 = EDGE_CURVE('',#551,#513,#553,.T.);
#551 = VERTEX_POINT('',#552);
#552 = CARTESIAN_POINT('',(-11.02213970051,4.744708888585,
    4.440892098501E-16));
#553 = SURFACE_CURVE('',#554,(#563,#575),.PCURVE_S1.);
#554 = B_SPLINE_CURVE_WITH_KNOTS('',7,(#555,#556,#557,#558,#559,#560,
    #561,#562),.UNSPECIFIED.,.F.,.F.,(8,8),(0.,1.),
  .PIECEWISE_BEZIER_KNOTS.);
#555 = CARTESIAN_POINT('',(-11.02213833856,4.744708985655,0.));
#556 = CARTESIAN_POINT('',(-11.36592598724,3.946083530321,0.));
#557 = CARTESIAN_POINT('',(-11.6647490934,3.066016625851,0.));
#558 = CARTESIAN_POINT('',(-11.89567735522,2.113902947991,0.));
#559 = CARTESIAN_POINT('',(-12.03738203775,1.106528338813,0.));
#560 = CARTESIAN_POINT('',(-12.07443453053,6.979857902539E-02,0.));
#561 = CARTESIAN_POINT('',(-12.00219812661,-0.960268762543,0.));
#562 = CARTESIAN_POINT('',(-11.84299489187,-1.934771613948,0.));
#563 = PCURVE('',#31,#564);
#564 = DEFINITIONAL_REPRESENTATION('',(#565),#574);
#565 = B_SPLINE_CURVE_WITH_KNOTS('',7,(#566,#567,#568,#569,#570,#571,
    #572,#573),.UNSPECIFIED.,.F.,.F.,(8,8),(0.,1.),
  .PIECEWISE_BEZIER_KNOTS.);
#566 = CARTESIAN_POINT('',(0.316297694357,0.579078483094));
#567 = CARTESIAN_POINT('',(0.310567900213,0.565768058839));
#568 = CARTESIAN_POINT('',(0.30558751511,0.551100277098));
#569 = CARTESIAN_POINT('',(0.301738710746,0.5352317158));
#570 = CARTESIAN_POINT('',(0.299376966037,0.51844213898));
#571 = CARTESIAN_POINT('',(0.298759424491,0.50116330965));
#572 = CARTESIAN_POINT('',(0.299963364556,0.483995520624));
#573 = CARTESIAN_POINT('',(0.302616751802,0.467753806434));
#574 = ( GEOMETRIC_REPRESENTATION_CONTEXT(2) 
PARAMETRIC_REPRESENTATION_CONTEXT() REPRESENTATION_CONTEXT('2D SPACE',''
  ) );
#575 = PCURVE('',#112,#576);
#576 = DEFINITIONAL_REPRESENTATION('',(#577),#586);
#577 = B_SPLINE_CURVE_WITH_KNOTS('',7,(#578,#579,#580,#581,#582,#583,
    #584,#585),.UNSPECIFIED.,.F.,.F.,(8,8),(0.,1.),
  .PIECEWISE_BEZIER_KNOTS.);
#578 = CARTESIAN_POINT('',(0.370608404743,0.111111111111));
#579 = CARTESIAN_POINT('',(0.39367201486,0.111111111111));
#580 = CARTESIAN_POINT('',(0.41824845915,0.111111111111));
#581 = CARTESIAN_POINT('',(0.444065152256,0.111111111111));
#582 = CARTESIAN_POINT('',(0.470807591599,0.111111111111));
#583 = CARTESIAN_POINT('',(0.498079460643,0.111111111111));
#584 = CARTESIAN_POINT('',(0.5253542916,0.111111111111));
#585 = CARTESIAN_POINT('',(0.55154651148,0.111111111111));
#586 = ( GEOMETRIC_REPRESENTATION_CONTEXT(2) 
PARAMETRIC_REPRESENTATION_CONTEXT() REPRESENTATION_CONTEXT('2D SPACE',''
  ) );
#587 = ORIENTED_EDGE('',*,*,#588,.F.);
#588 = EDGE_CURVE('',#589,#551,#591,.T.);
#589 = VERTEX_POINT('',#590);
#590 = CARTESIAN_POINT('',(-8.838528587332,8.116666729874,
    4.440892098501E-16));
#591 = SURFACE_CURVE('',#592,(#601,#613),.PCURVE_S1.);
#592 = B_SPLINE_CURVE_WITH_KNOTS('',7,(#593,#594,#595,#596,#597,#598,
    #599,#600),.UNSPECIFIED.,.F.,.F.,(8,8),(0.,1.),
  .PIECEWISE_BEZIER_KNOTS.);
#593 = CARTESIAN_POINT('',(-8.838527201093,8.116666548282,0.));
#594 = CARTESIAN_POINT('',(-9.1937900947,7.729805451983,0.));
#595 = CARTESIAN_POINT('',(-9.538531804525,7.314767559768,0.));
#596 = CARTESIAN_POINT('',(-9.871325858983,6.869345353777,0.));
#597 = CARTESIAN_POINT('',(-10.18982199705,6.391438117164,0.));
#598 = CARTESIAN_POINT('',(-10.49074555948,5.879114703549,0.));
#599 = CARTESIAN_POINT('',(-10.76989519491,5.33067475909,0.));
#600 = CARTESIAN_POINT('',(-11.02213833856,4.744708985655,0.));
#601 = PCURVE('',#31,#602);
#602 = DEFINITIONAL_REPRESENTATION('',(#603),#612);
#603 = B_SPLINE_CURVE_WITH_KNOTS('',7,(#604,#605,#606,#607,#608,#609,
    #610,#611),.UNSPECIFIED.,.F.,.F.,(8,8),(0.,1.),
  .PIECEWISE_BEZIER_KNOTS.);
#604 = CARTESIAN_POINT('',(0.352691213315,0.635277775805));
#605 = CARTESIAN_POINT('',(0.346770165088,0.628830090866));
#606 = CARTESIAN_POINT('',(0.341024469925,0.621912792663));
#607 = CARTESIAN_POINT('',(0.33547790235,0.61448908923));
#608 = CARTESIAN_POINT('',(0.330169633382,0.606523968619));
#609 = CARTESIAN_POINT('',(0.325154240675,0.597985245059));
#610 = CARTESIAN_POINT('',(0.320501746751,0.588844579318));
#611 = CARTESIAN_POINT('',(0.316297694357,0.579078483094));
#612 = ( GEOMETRIC_REPRESENTATION_CONTEXT(2) 
PARAMETRIC_REPRESENTATION_CONTEXT() REPRESENTATION_CONTEXT('2D SPACE',''
  ) );
#613 = PCURVE('',#112,#614);
#614 = DEFINITIONAL_REPRESENTATION('',(#615),#624);
#615 = B_SPLINE_CURVE_WITH_KNOTS('',7,(#616,#617,#618,#619,#620,#621,
    #622,#623),.UNSPECIFIED.,.F.,.F.,(8,8),(0.,1.),
  .PIECEWISE_BEZIER_KNOTS.);
#616 = CARTESIAN_POINT('',(0.263543697545,0.111111111111));
#617 = CARTESIAN_POINT('',(0.277476043047,0.111111111111));
#618 = CARTESIAN_POINT('',(0.291769883757,0.111111111111));
#619 = CARTESIAN_POINT('',(0.306486995672,0.111111111111));
#620 = CARTESIAN_POINT('',(0.321679564577,0.111111111111));
#621 = CARTESIAN_POINT('',(0.337395904979,0.111111111111));
#622 = CARTESIAN_POINT('',(0.353686221697,0.111111111111));
#623 = CARTESIAN_POINT('',(0.370608404743,0.111111111111));
#624 = ( GEOMETRIC_REPRESENTATION_CONTEXT(2) 
PARAMETRIC_REPRESENTATION_CONTEXT() REPRESENTATION_CONTEXT('2D SPACE',''
  ) );
#625 = ORIENTED_EDGE('',*,*,#626,.F.);
#626 = EDGE_CURVE('',#87,#589,#627,.T.);
#627 = SURFACE_CURVE('',#628,(#637,#649),.PCURVE_S1.);
#628 = B_SPLINE_CURVE_WITH_KNOTS('',7,(#629,#630,#631,#632,#633,#634,
    #635,#636),.UNSPECIFIED.,.F.,.F.,(8,8),(0.,1.),
  .PIECEWISE_BEZIER_KNOTS.);
#629 = CARTESIAN_POINT('',(-4.331773114884,11.19087722792,0.));
#630 = CARTESIAN_POINT('',(-5.011397479216,10.927807473272,0.));
#631 = CARTESIAN_POINT('',(-5.683389934401,10.612328929064,0.));
#632 = CARTESIAN_POINT('',(-6.346449469524,10.24168410538,0.));
#633 = CARTESIAN_POINT('',(-6.998074803931,9.812247942798,0.));
#634 = CARTESIAN_POINT('',(-7.634387787256,9.31920264162,0.));
#635 = CARTESIAN_POINT('',(-8.250304630579,8.757207490195,0.));
#636 = CARTESIAN_POINT('',(-8.838527201093,8.116666548282,0.));
#637 = PCURVE('',#31,#638);
#638 = DEFINITIONAL_REPRESENTATION('',(#639),#648);
#639 = B_SPLINE_CURVE_WITH_KNOTS('',7,(#640,#641,#642,#643,#644,#645,
    #646,#647),.UNSPECIFIED.,.F.,.F.,(8,8),(0.,1.),
  .PIECEWISE_BEZIER_KNOTS.);
#640 = CARTESIAN_POINT('',(0.427803781419,0.686514620465));
#641 = CARTESIAN_POINT('',(0.41647670868,0.682130124555));
#642 = CARTESIAN_POINT('',(0.405276834427,0.676872148818));
#643 = CARTESIAN_POINT('',(0.394225842175,0.67069473509));
#644 = CARTESIAN_POINT('',(0.383365419934,0.663537465713));
#645 = CARTESIAN_POINT('',(0.372760203546,0.655320044027));
#646 = CARTESIAN_POINT('',(0.362494922824,0.64595345817));
#647 = CARTESIAN_POINT('',(0.352691213315,0.635277775805));
#648 = ( GEOMETRIC_REPRESENTATION_CONTEXT(2) 
PARAMETRIC_REPRESENTATION_CONTEXT() REPRESENTATION_CONTEXT('2D SPACE',''
  ) );
#649 = PCURVE('',#112,#650);
#650 = DEFINITIONAL_REPRESENTATION('',(#651),#660);
#651 = B_SPLINE_CURVE_WITH_KNOTS('',7,(#652,#653,#654,#655,#656,#657,
    #658,#659),.UNSPECIFIED.,.F.,.F.,(8,8),(0.,1.),
  .PIECEWISE_BEZIER_KNOTS.);
#652 = CARTESIAN_POINT('',(0.117558114766,0.111111111111));
#653 = CARTESIAN_POINT('',(0.136889142143,0.111111111111));
#654 = CARTESIAN_POINT('',(0.156533109088,0.111111111111));
#655 = CARTESIAN_POINT('',(0.176601380835,0.111111111111));
#656 = CARTESIAN_POINT('',(0.197197856622,0.111111111111));
#657 = CARTESIAN_POINT('',(0.218444715344,0.111111111111));
#658 = CARTESIAN_POINT('',(0.240475371999,0.111111111111));
#659 = CARTESIAN_POINT('',(0.263543697545,0.111111111111));
#660 = ( GEOMETRIC_REPRESENTATION_CONTEXT(2) 
PARAMETRIC_REPRESENTATION_CONTEXT() REPRESENTATION_CONTEXT('2D SPACE',''
  ) );
#661 = ADVANCED_FACE('',(#662),#112,.T.);
#662 = FACE_BOUND('',#663,.T.);
#663 = EDGE_LOOP('',(#664,#665,#666,#667,#668,#669,#670,#671,#691,#714)
  );
#664 = ORIENTED_EDGE('',*,*,#84,.T.);
#665 = ORIENTED_EDGE('',*,*,#626,.T.);
#666 = ORIENTED_EDGE('',*,*,#588,.T.);
#667 = ORIENTED_EDGE('',*,*,#550,.T.);
#668 = ORIENTED_EDGE('',*,*,#512,.T.);
#669 = ORIENTED_EDGE('',*,*,#474,.T.);
#670 = ORIENTED_EDGE('',*,*,#436,.T.);
#671 = ORIENTED_EDGE('',*,*,#672,.T.);
#672 = EDGE_CURVE('',#399,#673,#675,.T.);
#673 = VERTEX_POINT('',#674);
#674 = CARTESIAN_POINT('',(-5.329070518201E-15,-12.,40.));
#675 = SURFACE_CURVE('',#676,(#679,#685),.PCURVE_S1.);
#676 = B_SPLINE_CURVE_WITH_KNOTS('',1,(#677,#678),.UNSPECIFIED.,.F.,.F.,
  (2,2),(0.,1.),.PIECEWISE_BEZIER_KNOTS.);
#677 = CARTESIAN_POINT('',(-3.552713678801E-15,-12.,0.));
#678 = CARTESIAN_POINT('',(-3.552713678801E-15,-12.,40.));
#679 = PCURVE('',#112,#680);
#680 = DEFINITIONAL_REPRESENTATION('',(#681),#684);
#681 = B_SPLINE_CURVE_WITH_KNOTS('',1,(#682,#683),.UNSPECIFIED.,.F.,.F.,
  (2,2),(0.,1.),.PIECEWISE_BEZIER_KNOTS.);
#682 = CARTESIAN_POINT('',(1.,0.111111111111));
#683 = CARTESIAN_POINT('',(1.,1.));
#684 = ( GEOMETRIC_REPRESENTATION_CONTEXT(2) 
PARAMETRIC_REPRESENTATION_CONTEXT() REPRESENTATION_CONTEXT('2D SPACE',''
  ) );
#685 = PCURVE('',#173,#686);
#686 = DEFINITIONAL_REPRESENTATION('',(#687),#690);
#687 = B_SPLINE_CURVE_WITH_KNOTS('',1,(#688,#689),.UNSPECIFIED.,.F.,.F.,
  (2,2),(0.,1.),.PIECEWISE_BEZIER_KNOTS.);
#688 = CARTESIAN_POINT('',(0.,0.111111111111));
#689 = CARTESIAN_POINT('',(0.,1.));
#690 = ( GEOMETRIC_REPRESENTATION_CONTEXT(2) 
PARAMETRIC_REPRESENTATION_CONTEXT() REPRESENTATION_CONTEXT('2D SPACE',''
  ) );
#691 = ORIENTED_EDGE('',*,*,#692,.F.);
#692 = EDGE_CURVE('',#693,#673,#695,.T.);
#693 = VERTEX_POINT('',#694);
#694 = CARTESIAN_POINT('',(5.329070518201E-15,12.,40.));
#695 = SURFACE_CURVE('',#696,(#708),.PCURVE_S1.);
#696 = B_SPLINE_CURVE_WITH_KNOTS('',10,(#697,#698,#699,#700,#701,#702,
    #703,#704,#705,#706,#707),.UNSPECIFIED.,.F.,.F.,(11,11),(0.,1.),
  .PIECEWISE_BEZIER_KNOTS.);
#697 = CARTESIAN_POINT('',(3.552713678801E-15,12.,40.));
#698 = CARTESIAN_POINT('',(-3.769911184308,12.,40.));
#699 = CARTESIAN_POINT('',(-7.539822368615,10.684052746521,40.));
#700 = CARTESIAN_POINT('',(-10.79296227491,8.052158239564,40.));
#701 = CARTESIAN_POINT('',(-13.01255962521,4.336242886352,40.));
#702 = CARTESIAN_POINT('',(-13.80327952434,6.217248937901E-15,40.));
#703 = CARTESIAN_POINT('',(-13.01255962521,-4.336242886352,40.));
#704 = CARTESIAN_POINT('',(-10.79296227491,-8.052158239564,40.));
#705 = CARTESIAN_POINT('',(-7.539822368616,-10.68405274652,40.));
#706 = CARTESIAN_POINT('',(-3.769911184308,-12.,40.));
#707 = CARTESIAN_POINT('',(-1.376676550535E-14,-12.,40.));
#708 = PCURVE('',#112,#709);
#709 = DEFINITIONAL_REPRESENTATION('',(#710),#713);
#710 = B_SPLINE_CURVE_WITH_KNOTS('',1,(#711,#712),.UNSPECIFIED.,.F.,.F.,
  (2,2),(0.,1.),.PIECEWISE_BEZIER_KNOTS.);
#711 = CARTESIAN_POINT('',(0.,1.));
#712 = CARTESIAN_POINT('',(1.,1.));
#713 = ( GEOMETRIC_REPRESENTATION_CONTEXT(2) 
PARAMETRIC_REPRESENTATION_CONTEXT() REPRESENTATION_CONTEXT('2D SPACE',''
  ) );
#714 = ORIENTED_EDGE('',*,*,#715,.F.);
#715 = EDGE_CURVE('',#85,#693,#716,.T.);
#716 = SURFACE_CURVE('',#717,(#720,#726),.PCURVE_S1.);
#717 = B_SPLINE_CURVE_WITH_KNOTS('',1,(#718,#719),.UNSPECIFIED.,.F.,.F.,
  (2,2),(0.,1.),.PIECEWISE_BEZIER_KNOTS.);
#718 = CARTESIAN_POINT('',(3.552713678801E-15,12.,0.));
#719 = CARTESIAN_POINT('',(3.552713678801E-15,12.,40.));
#720 = PCURVE('',#112,#721);
#721 = DEFINITIONAL_REPRESENTATION('',(#722),#725);
#722 = B_SPLINE_CURVE_WITH_KNOTS('',1,(#723,#724),.UNSPECIFIED.,.F.,.F.,
  (2,2),(0.,1.),.PIECEWISE_BEZIER_KNOTS.);
#723 = CARTESIAN_POINT('',(0.,0.111111111111));
#724 = CARTESIAN_POINT('',(0.,1.));
#725 = ( GEOMETRIC_REPRESENTATION_CONTEXT(2) 
PARAMETRIC_REPRESENTATION_CONTEXT() REPRESENTATION_CONTEXT('2D SPACE',''
  ) );
#726 = PCURVE('',#173,#727);
#727 = DEFINITIONAL_REPRESENTATION('',(#728),#731);
#728 = B_SPLINE_CURVE_WITH_KNOTS('',1,(#729,#730),.UNSPECIFIED.,.F.,.F.,
  (2,2),(0.,1.),.PIECEWISE_BEZIER_KNOTS.);
#729 = CARTESIAN_POINT('',(1.,0.111111111111));
#730 = CARTESIAN_POINT('',(1.,1.));
#731 = ( GEOMETRIC_REPRESENTATION_CONTEXT(2) 
PARAMETRIC_REPRESENTATION_CONTEXT() REPRESENTATION_CONTEXT('2D SPACE',''
  ) );
#732 = ADVANCED_FACE('',(#733),#173,.T.);
#733 = FACE_BOUND('',#734,.T.);
#734 = EDGE_LOOP('',(#735,#736,#737,#738,#739,#740,#741,#742,#743,#764)
  );
#735 = ORIENTED_EDGE('',*,*,#398,.T.);
#736 = ORIENTED_EDGE('',*,*,#360,.T.);
#737 = ORIENTED_EDGE('',*,*,#322,.T.);
#738 = ORIENTED_EDGE('',*,*,#284,.T.);
#739 = ORIENTED_EDGE('',*,*,#246,.T.);
#740 = ORIENTED_EDGE('',*,*,#208,.T.);
#741 = ORIENTED_EDGE('',*,*,#147,.T.);
#742 = ORIENTED_EDGE('',*,*,#715,.T.);
#743 = ORIENTED_EDGE('',*,*,#744,.F.);
#744 = EDGE_CURVE('',#673,#693,#745,.T.);
#745 = SURFACE_CURVE('',#746,(#758),.PCURVE_S1.);
#746 = B_SPLINE_CURVE_WITH_KNOTS('',10,(#747,#748,#749,#750,#751,#752,
    #753,#754,#755,#756,#757),.UNSPECIFIED.,.F.,.F.,(11,11),(0.,1.),
  .PIECEWISE_BEZIER_KNOTS.);
#747 = CARTESIAN_POINT('',(0.,-12.,40.));
#748 = CARTESIAN_POINT('',(3.769911184308,-12.,40.));
#749 = CARTESIAN_POINT('',(7.539822368616,-10.68405274652,40.));
#750 = CARTESIAN_POINT('',(10.792962274918,-8.052158239564,40.));
#751 = CARTESIAN_POINT('',(13.012559625211,-4.336242886352,40.));
#752 = CARTESIAN_POINT('',(13.80327952434,-1.7763568394E-15,40.));
#753 = CARTESIAN_POINT('',(13.012559625211,4.336242886352,40.));
#754 = CARTESIAN_POINT('',(10.792962274918,8.052158239564,40.));
#755 = CARTESIAN_POINT('',(7.539822368616,10.684052746521,40.));
#756 = CARTESIAN_POINT('',(3.769911184308,12.,40.));
#757 = CARTESIAN_POINT('',(1.15463194561E-14,12.,40.));
#758 = PCURVE('',#173,#759);
#759 = DEFINITIONAL_REPRESENTATION('',(#760),#763);
#760 = B_SPLINE_CURVE_WITH_KNOTS('',1,(#761,#762),.UNSPECIFIED.,.F.,.F.,
  (2,2),(0.,1.),.PIECEWISE_BEZIER_KNOTS.);
#761 = CARTESIAN_POINT('',(0.,1.));
#762 = CARTESIAN_POINT('',(1.,1.));
#763 = ( GEOMETRIC_REPRESENTATION_CONTEXT(2) 
PARAMETRIC_REPRESENTATION_CONTEXT() REPRESENTATION_CONTEXT('2D SPACE',''
  ) );
#764 = ORIENTED_EDGE('',*,*,#672,.F.);
#765 = ( GEOMETRIC_REPRESENTATION_CONTEXT(3) 
GLOBAL_UNCERTAINTY_ASSIGNED_CONTEXT((#769)) GLOBAL_UNIT_ASSIGNED_CONTEXT
((#766,#767,#768)) REPRESENTATION_CONTEXT('Context #1',
  '3D Context with UNIT and UNCERTAINTY') );
#766 = ( LENGTH_UNIT() NAMED_UNIT(*) SI_UNIT(.MILLI.,.METRE.) );
#767 = ( NAMED_UNIT(*) PLANE_ANGLE_UNIT() SI_UNIT($,.RADIAN.) );
#768 = ( NAMED_UNIT(*) SI_UNIT($,.STERADIAN.) SOLID_ANGLE_UNIT() );
#769 = UNCERTAINTY_MEASURE_WITH_UNIT(LENGTH_MEASURE(1.E-03),#766,
  'distance_accuracy_value','confusion accuracy');
#770 = PRODUCT_RELATED_PRODUCT_CATEGORY('part',$,(#7));
ENDSEC;
END-ISO-10303-21;
