ISO-10303-21;
HEADER;
FILE_DESCRIPTION(('Open CASCADE Model'),'2;1');
FILE_NAME('Open CASCADE Shape Model','2026-07-11T20:20:03',('Author'),(
    'Open CASCADE'),'Open CASCADE STEP processor 8.0','Open CASCADE 8.0'
  ,'Unknown');
FILE_SCHEMA(('AUTOMOTIVE_DESIGN { 1 0 10303 214 1 1 1 1 }'));
ENDSEC;
DATA;
#1 = APPLICATION_PROTOCOL_DEFINITION('international standard',
  'automotive_design',2000,#2);
#2 = APPLICATION_CONTEXT(
  'core data for automotive mechanical design processes');
#3 = SHAPE_DEFINITION_REPRESENTATION(#4,#10);
#4 = PRODUCT_DEFINITION_SHAPE('','',#5);
#5 = PRODUCT_DEFINITION('design','',#6,#9);
#6 = PRODUCT_DEFINITION_FORMATION('','',#7);
#7 = PRODUCT('Open CASCADE STEP translator 8.0 1',
  'Open CASCADE STEP translator 8.0 1','',(#8));
#8 = PRODUCT_CONTEXT('',#2,'mechanical');
#9 = PRODUCT_DEFINITION_CONTEXT('part definition',#2,'design');
#10 = ADVANCED_BREP_SHAPE_REPRESENTATION('',(#11,#15),#1033);
#11 = AXIS2_PLACEMENT_3D('',#12,#13,#14);
#12 = CARTESIAN_POINT('',(0.,0.,0.));
#13 = DIRECTION('',(0.,0.,1.));
#14 = DIRECTION('',(1.,0.,-0.));
#15 = MANIFOLD_SOLID_BREP('',#16);
#16 = CLOSED_SHELL('',(#17,#429,#805,#844,#849,#916,#959,#1002,#1026));
#17 = ADVANCED_FACE('',(#18),#37,.T.);
#18 = FACE_BOUND('',#19,.T.);
#19 = EDGE_LOOP('',(#20,#88,#126,#164,#202,#240,#278,#316,#359,#411));
#20 = ORIENTED_EDGE('',*,*,#21,.T.);
#21 = EDGE_CURVE('',#22,#24,#26,.T.);
#22 = VERTEX_POINT('',#23);
#23 = CARTESIAN_POINT('',(40.,52.,30.));
#24 = VERTEX_POINT('',#25);
#25 = CARTESIAN_POINT('',(35.603774676513,51.165715105456,30.));
#26 = SURFACE_CURVE('',#27,(#36,#71),.PCURVE_S1.);
#27 = B_SPLINE_CURVE_WITH_KNOTS('',7,(#28,#29,#30,#31,#32,#33,#34,#35),
  .UNSPECIFIED.,.F.,.F.,(8,8),(0.,1.),.PIECEWISE_BEZIER_KNOTS.);
#28 = CARTESIAN_POINT('',(40.,52.,30.));
#29 = CARTESIAN_POINT('',(39.36660717594,52.,30.));
#30 = CARTESIAN_POINT('',(38.733283270182,51.960994870545,30.));
#31 = CARTESIAN_POINT('',(38.100932639835,51.883004433351,30.));
#32 = CARTESIAN_POINT('',(37.470582173488,51.765570511954,30.));
#33 = CARTESIAN_POINT('',(36.843382417525,51.607861143438,30.));
#34 = CARTESIAN_POINT('',(36.220624760635,51.408584869301,30.));
#35 = CARTESIAN_POINT('',(35.603774676513,51.165715105456,30.));
#36 = PCURVE('',#37,#60);
#37 = B_SPLINE_SURFACE_WITH_KNOTS('',10,1,(
    (#38,#39)
    ,(#40,#41)
    ,(#42,#43)
    ,(#44,#45)
    ,(#46,#47)
    ,(#48,#49)
    ,(#50,#51)
    ,(#52,#53)
    ,(#54,#55)
    ,(#56,#57)
    ,(#58,#59)),.UNSPECIFIED.,.F.,.F.,.F.,(11,11),(2,2),(0.,1.),(0.,1.),
  .PIECEWISE_BEZIER_KNOTS.);
#38 = CARTESIAN_POINT('',(40.,52.,15.));
#39 = CARTESIAN_POINT('',(40.,52.,55.));
#40 = CARTESIAN_POINT('',(36.230088815692,52.,15.));
#41 = CARTESIAN_POINT('',(36.230088815692,52.,55.));
#42 = CARTESIAN_POINT('',(32.460177631384,50.684052746521,15.));
#43 = CARTESIAN_POINT('',(32.460177631384,50.684052746521,55.));
#44 = CARTESIAN_POINT('',(29.207037725082,48.052158239564,15.));
#45 = CARTESIAN_POINT('',(29.207037725082,48.052158239564,55.));
#46 = CARTESIAN_POINT('',(26.987440374789,44.336242886352,15.));
#47 = CARTESIAN_POINT('',(26.987440374789,44.336242886352,55.));
#48 = CARTESIAN_POINT('',(26.19672047566,40.,15.));
#49 = CARTESIAN_POINT('',(26.19672047566,40.,55.));
#50 = CARTESIAN_POINT('',(26.987440374789,35.663757113648,15.));
#51 = CARTESIAN_POINT('',(26.987440374789,35.663757113648,55.));
#52 = CARTESIAN_POINT('',(29.207037725082,31.947841760436,15.));
#53 = CARTESIAN_POINT('',(29.207037725082,31.947841760436,55.));
#54 = CARTESIAN_POINT('',(32.460177631384,29.315947253479,15.));
#55 = CARTESIAN_POINT('',(32.460177631384,29.315947253479,55.));
#56 = CARTESIAN_POINT('',(36.230088815692,28.,15.));
#57 = CARTESIAN_POINT('',(36.230088815692,28.,55.));
#58 = CARTESIAN_POINT('',(40.,28.,15.));
#59 = CARTESIAN_POINT('',(40.,28.,55.));
#60 = DEFINITIONAL_REPRESENTATION('',(#61),#70);
#61 = B_SPLINE_CURVE_WITH_KNOTS('',7,(#62,#63,#64,#65,#66,#67,#68,#69),
  .UNSPECIFIED.,.F.,.F.,(8,8),(0.,1.),.PIECEWISE_BEZIER_KNOTS.);
#62 = CARTESIAN_POINT('',(0.,0.375));
#63 = CARTESIAN_POINT('',(1.6801266478E-02,0.375));
#64 = CARTESIAN_POINT('',(3.360074969241E-02,0.375));
#65 = CARTESIAN_POINT('',(5.0450672352E-02,0.375));
#66 = CARTESIAN_POINT('',(6.740072477683E-02,0.375));
#67 = CARTESIAN_POINT('',(8.450114600953E-02,0.375));
#68 = CARTESIAN_POINT('',(0.101808397861,0.375));
#69 = CARTESIAN_POINT('',(0.119393431888,0.375));
#70 = ( GEOMETRIC_REPRESENTATION_CONTEXT(2) 
PARAMETRIC_REPRESENTATION_CONTEXT() REPRESENTATION_CONTEXT('2D SPACE',''
  ) );
#71 = PCURVE('',#72,#77);
#72 = B_SPLINE_SURFACE_WITH_KNOTS('',1,1,(
    (#73,#74)
    ,(#75,#76)),.UNSPECIFIED.,.F.,.F.,.F.,(2,2),(2,2),(0.,1.),(0.,1.),
  .PIECEWISE_BEZIER_KNOTS.);
#73 = CARTESIAN_POINT('',(40.,-40.,30.));
#74 = CARTESIAN_POINT('',(-40.,40.,30.));
#75 = CARTESIAN_POINT('',(120.,40.,30.));
#76 = CARTESIAN_POINT('',(40.,120.,30.));
#77 = DEFINITIONAL_REPRESENTATION('',(#78),#87);
#78 = B_SPLINE_CURVE_WITH_KNOTS('',7,(#79,#80,#81,#82,#83,#84,#85,#86),
  .UNSPECIFIED.,.F.,.F.,(8,8),(0.,1.),.PIECEWISE_BEZIER_KNOTS.);
#79 = CARTESIAN_POINT('',(0.575,0.575));
#80 = CARTESIAN_POINT('',(0.57104129485,0.57895870515));
#81 = CARTESIAN_POINT('',(0.56683923838,0.582673197502));
#82 = CARTESIAN_POINT('',(0.562399606707,0.586137948709));
#83 = CARTESIAN_POINT('',(0.557725954284,0.589343677115));
#84 = CARTESIAN_POINT('',(0.552820272256,0.592277992037));
#85 = CARTESIAN_POINT('',(0.547682560187,0.594924750679));
#86 = CARTESIAN_POINT('',(0.542309311137,0.597262127681));
#87 = ( GEOMETRIC_REPRESENTATION_CONTEXT(2) 
PARAMETRIC_REPRESENTATION_CONTEXT() REPRESENTATION_CONTEXT('2D SPACE',''
  ) );
#88 = ORIENTED_EDGE('',*,*,#89,.T.);
#89 = EDGE_CURVE('',#24,#90,#92,.T.);
#90 = VERTEX_POINT('',#91);
#91 = CARTESIAN_POINT('',(31.128357277871,48.080460895932,30.));
#92 = SURFACE_CURVE('',#93,(#102,#114),.PCURVE_S1.);
#93 = B_SPLINE_CURVE_WITH_KNOTS('',7,(#94,#95,#96,#97,#98,#99,#100,#101)
  ,.UNSPECIFIED.,.F.,.F.,(8,8),(0.,1.),.PIECEWISE_BEZIER_KNOTS.);
#94 = CARTESIAN_POINT('',(35.603774676513,51.165715105456,30.));
#95 = CARTESIAN_POINT('',(34.928472876876,50.899831395908,30.));
#96 = CARTESIAN_POINT('',(34.26086581239,50.581945916662,30.));
#97 = CARTESIAN_POINT('',(33.602245637407,50.209288348551,30.));
#98 = CARTESIAN_POINT('',(32.955109176119,49.778234425993,30.));
#99 = CARTESIAN_POINT('',(32.32332982948,49.283986619521,30.));
#100 = CARTESIAN_POINT('',(31.71198414817,48.721233450318,30.));
#101 = CARTESIAN_POINT('',(31.128357277871,48.080460895932,30.));
#102 = PCURVE('',#37,#103);
#103 = DEFINITIONAL_REPRESENTATION('',(#104),#113);
#104 = B_SPLINE_CURVE_WITH_KNOTS('',7,(#105,#106,#107,#108,#109,#110,
    #111,#112),.UNSPECIFIED.,.F.,.F.,(8,8),(0.,1.),
  .PIECEWISE_BEZIER_KNOTS.);
#105 = CARTESIAN_POINT('',(0.119393431888,0.375));
#106 = CARTESIAN_POINT('',(0.138644795276,0.375));
#107 = CARTESIAN_POINT('',(0.158211485667,0.375));
#108 = CARTESIAN_POINT('',(0.178204229174,0.375));
#109 = CARTESIAN_POINT('',(0.198726278741,0.375));
#110 = CARTESIAN_POINT('',(0.219898917175,0.375));
#111 = CARTESIAN_POINT('',(0.241854629924,0.375));
#112 = CARTESIAN_POINT('',(0.264845175272,0.375));
#113 = ( GEOMETRIC_REPRESENTATION_CONTEXT(2) 
PARAMETRIC_REPRESENTATION_CONTEXT() REPRESENTATION_CONTEXT('2D SPACE',''
  ) );
#114 = PCURVE('',#72,#115);
#115 = DEFINITIONAL_REPRESENTATION('',(#116),#125);
#116 = B_SPLINE_CURVE_WITH_KNOTS('',7,(#117,#118,#119,#120,#121,#122,
    #123,#124),.UNSPECIFIED.,.F.,.F.,(8,8),(0.,1.),
  .PIECEWISE_BEZIER_KNOTS.);
#117 = CARTESIAN_POINT('',(0.542309311137,0.597262127681));
#118 = CARTESIAN_POINT('',(0.536426901705,0.599820990744));
#119 = CARTESIAN_POINT('',(0.530267573307,0.602006750652));
#120 = CARTESIAN_POINT('',(0.523822087412,0.603794016945));
#121 = CARTESIAN_POINT('',(0.517083397513,0.605144532812));
#122 = CARTESIAN_POINT('',(0.510045727806,0.606004104938));
#123 = CARTESIAN_POINT('',(0.502707609991,0.606307808138));
#124 = CARTESIAN_POINT('',(0.495055113586,0.605950647613));
#125 = ( GEOMETRIC_REPRESENTATION_CONTEXT(2) 
PARAMETRIC_REPRESENTATION_CONTEXT() REPRESENTATION_CONTEXT('2D SPACE',''
  ) );
#126 = ORIENTED_EDGE('',*,*,#127,.T.);
#127 = EDGE_CURVE('',#90,#128,#130,.T.);
#128 = VERTEX_POINT('',#129);
#129 = CARTESIAN_POINT('',(28.889016381052,44.532758380625,30.));
#130 = SURFACE_CURVE('',#131,(#140,#152),.PCURVE_S1.);
#131 = B_SPLINE_CURVE_WITH_KNOTS('',7,(#132,#133,#134,#135,#136,#137,
    #138,#139),.UNSPECIFIED.,.F.,.F.,(8,8),(0.,1.),
  .PIECEWISE_BEZIER_KNOTS.);
#132 = CARTESIAN_POINT('',(31.128357277871,48.080460895932,30.));
#133 = CARTESIAN_POINT('',(30.760504116069,47.676589480612,30.));
#134 = CARTESIAN_POINT('',(30.404155999623,47.242275678011,30.));
#135 = CARTESIAN_POINT('',(30.060873713233,46.774992754065,30.));
#136 = CARTESIAN_POINT('',(29.733351630569,46.272349599303,30.));
#137 = CARTESIAN_POINT('',(29.425404485936,45.732203888674,30.));
#138 = CARTESIAN_POINT('',(29.14195414592,45.152775241365,30.));
#139 = CARTESIAN_POINT('',(28.889016381052,44.532758380625,30.));
#140 = PCURVE('',#37,#141);
#141 = DEFINITIONAL_REPRESENTATION('',(#142),#151);
#142 = B_SPLINE_CURVE_WITH_KNOTS('',7,(#143,#144,#145,#146,#147,#148,
    #149,#150),.UNSPECIFIED.,.F.,.F.,(8,8),(0.,1.),
  .PIECEWISE_BEZIER_KNOTS.);
#143 = CARTESIAN_POINT('',(0.264845175272,0.375));
#144 = CARTESIAN_POINT('',(0.279335845987,0.375));
#145 = CARTESIAN_POINT('',(0.29421783691,0.375));
#146 = CARTESIAN_POINT('',(0.309562492377,0.375));
#147 = CARTESIAN_POINT('',(0.325428995489,0.375));
#148 = CARTESIAN_POINT('',(0.341870824838,0.375));
#149 = CARTESIAN_POINT('',(0.358942211226,0.375));
#150 = CARTESIAN_POINT('',(0.37670459439,0.375));
#151 = ( GEOMETRIC_REPRESENTATION_CONTEXT(2) 
PARAMETRIC_REPRESENTATION_CONTEXT() REPRESENTATION_CONTEXT('2D SPACE',''
  ) );
#152 = PCURVE('',#72,#153);
#153 = DEFINITIONAL_REPRESENTATION('',(#154),#163);
#154 = B_SPLINE_CURVE_WITH_KNOTS('',7,(#155,#156,#157,#158,#159,#160,
    #161,#162),.UNSPECIFIED.,.F.,.F.,(8,8),(0.,1.),
  .PIECEWISE_BEZIER_KNOTS.);
#155 = CARTESIAN_POINT('',(0.495055113586,0.605950647613));
#156 = CARTESIAN_POINT('',(0.490231834979,0.605725533528));
#157 = CARTESIAN_POINT('',(0.485290197985,0.60523824799));
#158 = CARTESIAN_POINT('',(0.480224165421,0.604463244005));
#159 = CARTESIAN_POINT('',(0.475035632687,0.603368737305));
#160 = CARTESIAN_POINT('',(0.469735052341,0.601917496267));
#161 = CARTESIAN_POINT('',(0.464342058671,0.600067631847));
#162 = CARTESIAN_POINT('',(0.45888609226,0.597773387497));
#163 = ( GEOMETRIC_REPRESENTATION_CONTEXT(2) 
PARAMETRIC_REPRESENTATION_CONTEXT() REPRESENTATION_CONTEXT('2D SPACE',''
  ) );
#164 = ORIENTED_EDGE('',*,*,#165,.T.);
#165 = EDGE_CURVE('',#128,#166,#168,.T.);
#166 = VERTEX_POINT('',#167);
#167 = CARTESIAN_POINT('',(28.134009649705,38.211664743795,30.));
#168 = SURFACE_CURVE('',#169,(#178,#190),.PCURVE_S1.);
#169 = B_SPLINE_CURVE_WITH_KNOTS('',7,(#170,#171,#172,#173,#174,#175,
    #176,#177),.UNSPECIFIED.,.F.,.F.,(8,8),(0.,1.),
  .PIECEWISE_BEZIER_KNOTS.);
#170 = CARTESIAN_POINT('',(28.889016381052,44.532758380625,30.));
#171 = CARTESIAN_POINT('',(28.576041886495,43.765575735093,30.));
#172 = CARTESIAN_POINT('',(28.305976840187,42.926875411175,30.));
#173 = CARTESIAN_POINT('',(28.098170137723,42.025691660308,30.));
#174 = CARTESIAN_POINT('',(27.970197708707,41.077070788637,30.));
#175 = CARTESIAN_POINT('',(27.934591233004,40.103305611416,30.));
#176 = CARTESIAN_POINT('',(27.994893766259,39.134727321596,30.));
#177 = CARTESIAN_POINT('',(28.134009649705,38.211664743795,30.));
#178 = PCURVE('',#37,#179);
#179 = DEFINITIONAL_REPRESENTATION('',(#180),#189);
#180 = B_SPLINE_CURVE_WITH_KNOTS('',7,(#181,#182,#183,#184,#185,#186,
    #187,#188),.UNSPECIFIED.,.F.,.F.,(8,8),(0.,1.),
  .PIECEWISE_BEZIER_KNOTS.);
#181 = CARTESIAN_POINT('',(0.37670459439,0.375));
#182 = CARTESIAN_POINT('',(0.39868301622,0.375));
#183 = CARTESIAN_POINT('',(0.421988106072,0.375));
#184 = CARTESIAN_POINT('',(0.4463747036,0.375));
#185 = CARTESIAN_POINT('',(0.471563458311,0.375));
#186 = CARTESIAN_POINT('',(0.497209155055,0.375));
#187 = CARTESIAN_POINT('',(0.522852978096,0.375));
#188 = CARTESIAN_POINT('',(0.54761453266,0.375));
#189 = ( GEOMETRIC_REPRESENTATION_CONTEXT(2) 
PARAMETRIC_REPRESENTATION_CONTEXT() REPRESENTATION_CONTEXT('2D SPACE',''
  ) );
#190 = PCURVE('',#72,#191);
#191 = DEFINITIONAL_REPRESENTATION('',(#192),#201);
#192 = B_SPLINE_CURVE_WITH_KNOTS('',7,(#193,#194,#195,#196,#197,#198,
    #199,#200),.UNSPECIFIED.,.F.,.F.,(8,8),(0.,1.),
  .PIECEWISE_BEZIER_KNOTS.);
#193 = CARTESIAN_POINT('',(0.45888609226,0.597773387497));
#194 = CARTESIAN_POINT('',(0.452135110135,0.594934586554));
#195 = CARTESIAN_POINT('',(0.445205326571,0.591380616069));
#196 = CARTESIAN_POINT('',(0.438274136238,0.587047009516));
#197 = CARTESIAN_POINT('',(0.431545428108,0.58191795675));
#198 = CARTESIAN_POINT('',(0.425236855278,0.576054464865));
#199 = CARTESIAN_POINT('',(0.419560131799,0.569623959721));
#200 = CARTESIAN_POINT('',(0.414660464959,0.562985344338));
#201 = ( GEOMETRIC_REPRESENTATION_CONTEXT(2) 
PARAMETRIC_REPRESENTATION_CONTEXT() REPRESENTATION_CONTEXT('2D SPACE',''
  ) );
#202 = ORIENTED_EDGE('',*,*,#203,.T.);
#203 = EDGE_CURVE('',#166,#204,#206,.T.);
#204 = VERTEX_POINT('',#205);
#205 = CARTESIAN_POINT('',(30.293676861276,32.943998169915,30.));
#206 = SURFACE_CURVE('',#207,(#216,#228),.PCURVE_S1.);
#207 = B_SPLINE_CURVE_WITH_KNOTS('',7,(#208,#209,#210,#211,#212,#213,
    #214,#215),.UNSPECIFIED.,.F.,.F.,(8,8),(0.,1.),
  .PIECEWISE_BEZIER_KNOTS.);
#208 = CARTESIAN_POINT('',(28.134009649705,38.211664743795,30.));
#209 = CARTESIAN_POINT('',(28.272553797291,37.292395751342,30.));
#210 = CARTESIAN_POINT('',(28.489489674982,36.416864940763,30.));
#211 = CARTESIAN_POINT('',(28.771995438592,35.600701705138,30.));
#212 = CARTESIAN_POINT('',(29.104182117072,34.847645203555,30.));
#213 = CARTESIAN_POINT('',(29.473768074536,34.157068569162,30.));
#214 = CARTESIAN_POINT('',(29.871642691729,33.52455426483,30.));
#215 = CARTESIAN_POINT('',(30.293676861276,32.943998169915,30.));
#216 = PCURVE('',#37,#217);
#217 = DEFINITIONAL_REPRESENTATION('',(#218),#227);
#218 = B_SPLINE_CURVE_WITH_KNOTS('',7,(#219,#220,#221,#222,#223,#224,
    #225,#226),.UNSPECIFIED.,.F.,.F.,(8,8),(0.,1.),
  .PIECEWISE_BEZIER_KNOTS.);
#219 = CARTESIAN_POINT('',(0.54761453266,0.375));
#220 = CARTESIAN_POINT('',(0.57227432265,0.375));
#221 = CARTESIAN_POINT('',(0.596096603673,0.375));
#222 = CARTESIAN_POINT('',(0.618863688969,0.375));
#223 = CARTESIAN_POINT('',(0.640577553172,0.375));
#224 = CARTESIAN_POINT('',(0.661269031192,0.375));
#225 = CARTESIAN_POINT('',(0.681046001959,0.375));
#226 = CARTESIAN_POINT('',(0.700084779401,0.375));
#227 = ( GEOMETRIC_REPRESENTATION_CONTEXT(2) 
PARAMETRIC_REPRESENTATION_CONTEXT() REPRESENTATION_CONTEXT('2D SPACE',''
  ) );
#228 = PCURVE('',#72,#229);
#229 = DEFINITIONAL_REPRESENTATION('',(#230),#239);
#230 = B_SPLINE_CURVE_WITH_KNOTS('',7,(#231,#232,#233,#234,#235,#236,
    #237,#238),.UNSPECIFIED.,.F.,.F.,(8,8),(0.,1.),
  .PIECEWISE_BEZIER_KNOTS.);
#231 = CARTESIAN_POINT('',(0.414660464959,0.562985344338));
#232 = CARTESIAN_POINT('',(0.409780934679,0.556374012213));
#233 = CARTESIAN_POINT('',(0.405664716348,0.549546095411));
#234 = CARTESIAN_POINT('',(0.402329357148,0.542679414166));
#235 = CARTESIAN_POINT('',(0.399698920754,0.535896644291));
#236 = CARTESIAN_POINT('',(0.397692729023,0.529270628091));
#237 = CARTESIAN_POINT('',(0.396226230978,0.522830697332));
#238 = CARTESIAN_POINT('',(0.395235468945,0.516564508179));
#239 = ( GEOMETRIC_REPRESENTATION_CONTEXT(2) 
PARAMETRIC_REPRESENTATION_CONTEXT() REPRESENTATION_CONTEXT('2D SPACE',''
  ) );
#240 = ORIENTED_EDGE('',*,*,#241,.T.);
#241 = EDGE_CURVE('',#204,#242,#244,.T.);
#242 = VERTEX_POINT('',#243);
#243 = CARTESIAN_POINT('',(34.640474010343,29.263358949415,30.));
#244 = SURFACE_CURVE('',#245,(#254,#266),.PCURVE_S1.);
#245 = B_SPLINE_CURVE_WITH_KNOTS('',7,(#246,#247,#248,#249,#250,#251,
    #252,#253),.UNSPECIFIED.,.F.,.F.,(8,8),(0.,1.),
  .PIECEWISE_BEZIER_KNOTS.);
#246 = CARTESIAN_POINT('',(30.293676861276,32.943998169915,30.));
#247 = CARTESIAN_POINT('',(30.838616915916,32.194371023789,30.));
#248 = CARTESIAN_POINT('',(31.422178121917,31.533612352216,30.));
#249 = CARTESIAN_POINT('',(32.033487938004,30.949687952661,30.));
#250 = CARTESIAN_POINT('',(32.66533934424,30.436300492744,30.));
#251 = CARTESIAN_POINT('',(33.312284379589,29.98717629668,30.));
#252 = CARTESIAN_POINT('',(33.971105960083,29.597495139805,30.));
#253 = CARTESIAN_POINT('',(34.640474010343,29.263358949415,30.));
#254 = PCURVE('',#37,#255);
#255 = DEFINITIONAL_REPRESENTATION('',(#256),#265);
#256 = B_SPLINE_CURVE_WITH_KNOTS('',7,(#257,#258,#259,#260,#261,#262,
    #263,#264),.UNSPECIFIED.,.F.,.F.,(8,8),(0.,1.),
  .PIECEWISE_BEZIER_KNOTS.);
#257 = CARTESIAN_POINT('',(0.700084779401,0.375));
#258 = CARTESIAN_POINT('',(0.724668078973,0.375));
#259 = CARTESIAN_POINT('',(0.747947148921,0.375));
#260 = CARTESIAN_POINT('',(0.770249061098,0.375));
#261 = CARTESIAN_POINT('',(0.791726097469,0.375));
#262 = CARTESIAN_POINT('',(0.812527877593,0.375));
#263 = CARTESIAN_POINT('',(0.832780247501,0.375));
#264 = CARTESIAN_POINT('',(0.85262504504,0.375));
#265 = ( GEOMETRIC_REPRESENTATION_CONTEXT(2) 
PARAMETRIC_REPRESENTATION_CONTEXT() REPRESENTATION_CONTEXT('2D SPACE',''
  ) );
#266 = PCURVE('',#72,#267);
#267 = DEFINITIONAL_REPRESENTATION('',(#268),#277);
#268 = B_SPLINE_CURVE_WITH_KNOTS('',7,(#269,#270,#271,#272,#273,#274,
    #275,#276),.UNSPECIFIED.,.F.,.F.,(8,8),(0.,1.),
  .PIECEWISE_BEZIER_KNOTS.);
#269 = CARTESIAN_POINT('',(0.395235468945,0.516564508179));
#270 = CARTESIAN_POINT('',(0.393956174623,0.508473463174));
#271 = CARTESIAN_POINT('',(0.393473690463,0.500696463939));
#272 = CARTESIAN_POINT('',(0.393644849317,0.493226250092));
#273 = CARTESIAN_POINT('',(0.394385248981,0.486068507178));
#274 = CARTESIAN_POINT('',(0.395621629227,0.479218074482));
#275 = CARTESIAN_POINT('',(0.397303756874,0.472664932373));
#276 = CARTESIAN_POINT('',(0.399398955998,0.466393030869));
#277 = ( GEOMETRIC_REPRESENTATION_CONTEXT(2) 
PARAMETRIC_REPRESENTATION_CONTEXT() REPRESENTATION_CONTEXT('2D SPACE',''
  ) );
#278 = ORIENTED_EDGE('',*,*,#279,.T.);
#279 = EDGE_CURVE('',#242,#280,#282,.T.);
#280 = VERTEX_POINT('',#281);
#281 = CARTESIAN_POINT('',(40.,28.,30.));
#282 = SURFACE_CURVE('',#283,(#292,#304),.PCURVE_S1.);
#283 = B_SPLINE_CURVE_WITH_KNOTS('',7,(#284,#285,#286,#287,#288,#289,
    #290,#291),.UNSPECIFIED.,.F.,.F.,(8,8),(0.,1.),
  .PIECEWISE_BEZIER_KNOTS.);
#284 = CARTESIAN_POINT('',(34.640474010343,29.263358949415,30.));
#285 = CARTESIAN_POINT('',(35.384501241149,28.891954272494,30.));
#286 = CARTESIAN_POINT('',(36.140312137427,28.589801824163,30.));
#287 = CARTESIAN_POINT('',(36.904659226361,28.351937592737,30.));
#288 = CARTESIAN_POINT('',(37.674865868779,28.175460076339,30.));
#289 = CARTESIAN_POINT('',(38.448684211068,28.058514489308,30.));
#290 = CARTESIAN_POINT('',(39.224230819932,28.,30.));
#291 = CARTESIAN_POINT('',(40.,28.,30.));
#292 = PCURVE('',#37,#293);
#293 = DEFINITIONAL_REPRESENTATION('',(#294),#303);
#294 = B_SPLINE_CURVE_WITH_KNOTS('',7,(#295,#296,#297,#298,#299,#300,
    #301,#302),.UNSPECIFIED.,.F.,.F.,(8,8),(0.,1.),
  .PIECEWISE_BEZIER_KNOTS.);
#295 = CARTESIAN_POINT('',(0.85262504504,0.375));
#296 = CARTESIAN_POINT('',(0.874683268095,0.375));
#297 = CARTESIAN_POINT('',(0.89620089321,0.375));
#298 = CARTESIAN_POINT('',(0.917331601539,0.375));
#299 = CARTESIAN_POINT('',(0.938183936587,0.375));
#300 = CARTESIAN_POINT('',(0.958849868387,0.375));
#301 = CARTESIAN_POINT('',(0.979422083382,0.375));
#302 = CARTESIAN_POINT('',(1.,0.375));
#303 = ( GEOMETRIC_REPRESENTATION_CONTEXT(2) 
PARAMETRIC_REPRESENTATION_CONTEXT() REPRESENTATION_CONTEXT('2D SPACE',''
  ) );
#304 = PCURVE('',#72,#305);
#305 = DEFINITIONAL_REPRESENTATION('',(#306),#315);
#306 = B_SPLINE_CURVE_WITH_KNOTS('',7,(#307,#308,#309,#310,#311,#312,
    #313,#314),.UNSPECIFIED.,.F.,.F.,(8,8),(0.,1.),
  .PIECEWISE_BEZIER_KNOTS.);
#307 = CARTESIAN_POINT('',(0.399398955998,0.466393030869));
#308 = CARTESIAN_POINT('',(0.40172784696,0.459421581446));
#309 = CARTESIAN_POINT('',(0.40456321226,0.452809310542));
#310 = CARTESIAN_POINT('',(0.407853730119,0.44654548979));
#311 = CARTESIAN_POINT('',(0.411564537157,0.440628713797));
#312 = CARTESIAN_POINT('',(0.415669991877,0.435061439239));
#313 = CARTESIAN_POINT('',(0.420151442625,0.429848557375));
#314 = CARTESIAN_POINT('',(0.425,0.425));
#315 = ( GEOMETRIC_REPRESENTATION_CONTEXT(2) 
PARAMETRIC_REPRESENTATION_CONTEXT() REPRESENTATION_CONTEXT('2D SPACE',''
  ) );
#316 = ORIENTED_EDGE('',*,*,#317,.F.);
#317 = EDGE_CURVE('',#318,#280,#320,.T.);
#318 = VERTEX_POINT('',#319);
#319 = CARTESIAN_POINT('',(40.,28.,55.));
#320 = SURFACE_CURVE('',#321,(#324,#330),.PCURVE_S1.);
#321 = B_SPLINE_CURVE_WITH_KNOTS('',1,(#322,#323),.UNSPECIFIED.,.F.,.F.,
  (2,2),(0.,1.),.PIECEWISE_BEZIER_KNOTS.);
#322 = CARTESIAN_POINT('',(40.,28.,55.));
#323 = CARTESIAN_POINT('',(40.,28.,30.));
#324 = PCURVE('',#37,#325);
#325 = DEFINITIONAL_REPRESENTATION('',(#326),#329);
#326 = B_SPLINE_CURVE_WITH_KNOTS('',1,(#327,#328),.UNSPECIFIED.,.F.,.F.,
  (2,2),(0.,1.),.PIECEWISE_BEZIER_KNOTS.);
#327 = CARTESIAN_POINT('',(1.,1.));
#328 = CARTESIAN_POINT('',(1.,0.375));
#329 = ( GEOMETRIC_REPRESENTATION_CONTEXT(2) 
PARAMETRIC_REPRESENTATION_CONTEXT() REPRESENTATION_CONTEXT('2D SPACE',''
  ) );
#330 = PCURVE('',#331,#354);
#331 = B_SPLINE_SURFACE_WITH_KNOTS('',10,1,(
    (#332,#333)
    ,(#334,#335)
    ,(#336,#337)
    ,(#338,#339)
    ,(#340,#341)
    ,(#342,#343)
    ,(#344,#345)
    ,(#346,#347)
    ,(#348,#349)
    ,(#350,#351)
    ,(#352,#353
    )),.UNSPECIFIED.,.F.,.F.,.F.,(11,11),(2,2),(0.,1.),(0.,1.),
  .PIECEWISE_BEZIER_KNOTS.);
#332 = CARTESIAN_POINT('',(40.,28.,15.));
#333 = CARTESIAN_POINT('',(40.,28.,55.));
#334 = CARTESIAN_POINT('',(43.769911184308,28.,15.));
#335 = CARTESIAN_POINT('',(43.769911184308,28.,55.));
#336 = CARTESIAN_POINT('',(47.539822368616,29.315947253479,15.));
#337 = CARTESIAN_POINT('',(47.539822368616,29.315947253479,55.));
#338 = CARTESIAN_POINT('',(50.792962274918,31.947841760436,15.));
#339 = CARTESIAN_POINT('',(50.792962274918,31.947841760436,55.));
#340 = CARTESIAN_POINT('',(53.012559625211,35.663757113648,15.));
#341 = CARTESIAN_POINT('',(53.012559625211,35.663757113648,55.));
#342 = CARTESIAN_POINT('',(53.80327952434,40.,15.));
#343 = CARTESIAN_POINT('',(53.80327952434,40.,55.));
#344 = CARTESIAN_POINT('',(53.012559625211,44.336242886352,15.));
#345 = CARTESIAN_POINT('',(53.012559625211,44.336242886352,55.));
#346 = CARTESIAN_POINT('',(50.792962274918,48.052158239564,15.));
#347 = CARTESIAN_POINT('',(50.792962274918,48.052158239564,55.));
#348 = CARTESIAN_POINT('',(47.539822368616,50.684052746521,15.));
#349 = CARTESIAN_POINT('',(47.539822368616,50.684052746521,55.));
#350 = CARTESIAN_POINT('',(43.769911184308,52.,15.));
#351 = CARTESIAN_POINT('',(43.769911184308,52.,55.));
#352 = CARTESIAN_POINT('',(40.,52.,15.));
#353 = CARTESIAN_POINT('',(40.,52.,55.));
#354 = DEFINITIONAL_REPRESENTATION('',(#355),#358);
#355 = B_SPLINE_CURVE_WITH_KNOTS('',1,(#356,#357),.UNSPECIFIED.,.F.,.F.,
  (2,2),(0.,1.),.PIECEWISE_BEZIER_KNOTS.);
#356 = CARTESIAN_POINT('',(0.,1.));
#357 = CARTESIAN_POINT('',(0.,0.375));
#358 = ( GEOMETRIC_REPRESENTATION_CONTEXT(2) 
PARAMETRIC_REPRESENTATION_CONTEXT() REPRESENTATION_CONTEXT('2D SPACE',''
  ) );
#359 = ORIENTED_EDGE('',*,*,#360,.T.);
#360 = EDGE_CURVE('',#318,#361,#363,.T.);
#361 = VERTEX_POINT('',#362);
#362 = CARTESIAN_POINT('',(40.,52.,55.));
#363 = SURFACE_CURVE('',#364,(#376,#382),.PCURVE_S1.);
#364 = B_SPLINE_CURVE_WITH_KNOTS('',10,(#365,#366,#367,#368,#369,#370,
    #371,#372,#373,#374,#375),.UNSPECIFIED.,.F.,.F.,(11,11),(0.,1.),
  .PIECEWISE_BEZIER_KNOTS.);
#365 = CARTESIAN_POINT('',(40.,28.,55.));
#366 = CARTESIAN_POINT('',(36.230088815692,28.,55.));
#367 = CARTESIAN_POINT('',(32.460177631384,29.315947253479,55.));
#368 = CARTESIAN_POINT('',(29.207037725082,31.947841760436,55.));
#369 = CARTESIAN_POINT('',(26.987440374789,35.663757113648,55.));
#370 = CARTESIAN_POINT('',(26.19672047566,40.,55.));
#371 = CARTESIAN_POINT('',(26.987440374789,44.336242886352,55.));
#372 = CARTESIAN_POINT('',(29.207037725082,48.052158239564,55.));
#373 = CARTESIAN_POINT('',(32.460177631384,50.684052746521,55.));
#374 = CARTESIAN_POINT('',(36.230088815692,52.,55.));
#375 = CARTESIAN_POINT('',(40.,52.,55.));
#376 = PCURVE('',#37,#377);
#377 = DEFINITIONAL_REPRESENTATION('',(#378),#381);
#378 = B_SPLINE_CURVE_WITH_KNOTS('',1,(#379,#380),.UNSPECIFIED.,.F.,.F.,
  (2,2),(0.,1.),.PIECEWISE_BEZIER_KNOTS.);
#379 = CARTESIAN_POINT('',(1.,1.));
#380 = CARTESIAN_POINT('',(0.,1.));
#381 = ( GEOMETRIC_REPRESENTATION_CONTEXT(2) 
PARAMETRIC_REPRESENTATION_CONTEXT() REPRESENTATION_CONTEXT('2D SPACE',''
  ) );
#382 = PCURVE('',#383,#406);
#383 = B_SPLINE_SURFACE_WITH_KNOTS('',10,1,(
    (#384,#385)
    ,(#386,#387)
    ,(#388,#389)
    ,(#390,#391)
    ,(#392,#393)
    ,(#394,#395)
    ,(#396,#397)
    ,(#398,#399)
    ,(#400,#401)
    ,(#402,#403)
    ,(#404,#405
    )),.UNSPECIFIED.,.F.,.F.,.F.,(11,11),(2,2),(0.,1.),(0.,1.),
  .PIECEWISE_BEZIER_KNOTS.);
#384 = CARTESIAN_POINT('',(40.,28.,55.));
#385 = CARTESIAN_POINT('',(40.,28.,55.));
#386 = CARTESIAN_POINT('',(43.769911184308,28.,55.));
#387 = CARTESIAN_POINT('',(36.230088815692,28.,55.));
#388 = CARTESIAN_POINT('',(47.539822368616,29.315947253479,55.));
#389 = CARTESIAN_POINT('',(32.460177631384,29.315947253479,55.));
#390 = CARTESIAN_POINT('',(50.792962274918,31.947841760436,55.));
#391 = CARTESIAN_POINT('',(29.207037725082,31.947841760436,55.));
#392 = CARTESIAN_POINT('',(53.012559625211,35.663757113648,55.));
#393 = CARTESIAN_POINT('',(26.987440374789,35.663757113648,55.));
#394 = CARTESIAN_POINT('',(53.80327952434,40.,55.));
#395 = CARTESIAN_POINT('',(26.19672047566,40.,55.));
#396 = CARTESIAN_POINT('',(53.012559625211,44.336242886352,55.));
#397 = CARTESIAN_POINT('',(26.987440374789,44.336242886352,55.));
#398 = CARTESIAN_POINT('',(50.792962274918,48.052158239564,55.));
#399 = CARTESIAN_POINT('',(29.207037725082,48.052158239564,55.));
#400 = CARTESIAN_POINT('',(47.539822368616,50.684052746521,55.));
#401 = CARTESIAN_POINT('',(32.460177631384,50.684052746521,55.));
#402 = CARTESIAN_POINT('',(43.769911184308,52.,55.));
#403 = CARTESIAN_POINT('',(36.230088815692,52.,55.));
#404 = CARTESIAN_POINT('',(40.,52.,55.));
#405 = CARTESIAN_POINT('',(40.,52.,55.));
#406 = DEFINITIONAL_REPRESENTATION('',(#407),#410);
#407 = B_SPLINE_CURVE_WITH_KNOTS('',1,(#408,#409),.UNSPECIFIED.,.F.,.F.,
  (2,2),(0.,1.),.PIECEWISE_BEZIER_KNOTS.);
#408 = CARTESIAN_POINT('',(0.,1.));
#409 = CARTESIAN_POINT('',(1.,1.));
#410 = ( GEOMETRIC_REPRESENTATION_CONTEXT(2) 
PARAMETRIC_REPRESENTATION_CONTEXT() REPRESENTATION_CONTEXT('2D SPACE',''
  ) );
#411 = ORIENTED_EDGE('',*,*,#412,.T.);
#412 = EDGE_CURVE('',#361,#22,#413,.T.);
#413 = SURFACE_CURVE('',#414,(#417,#423),.PCURVE_S1.);
#414 = B_SPLINE_CURVE_WITH_KNOTS('',1,(#415,#416),.UNSPECIFIED.,.F.,.F.,
  (2,2),(0.,1.),.PIECEWISE_BEZIER_KNOTS.);
#415 = CARTESIAN_POINT('',(40.,52.,55.));
#416 = CARTESIAN_POINT('',(40.,52.,30.));
#417 = PCURVE('',#37,#418);
#418 = DEFINITIONAL_REPRESENTATION('',(#419),#422);
#419 = B_SPLINE_CURVE_WITH_KNOTS('',1,(#420,#421),.UNSPECIFIED.,.F.,.F.,
  (2,2),(0.,1.),.PIECEWISE_BEZIER_KNOTS.);
#420 = CARTESIAN_POINT('',(0.,1.));
#421 = CARTESIAN_POINT('',(0.,0.375));
#422 = ( GEOMETRIC_REPRESENTATION_CONTEXT(2) 
PARAMETRIC_REPRESENTATION_CONTEXT() REPRESENTATION_CONTEXT('2D SPACE',''
  ) );
#423 = PCURVE('',#331,#424);
#424 = DEFINITIONAL_REPRESENTATION('',(#425),#428);
#425 = B_SPLINE_CURVE_WITH_KNOTS('',1,(#426,#427),.UNSPECIFIED.,.F.,.F.,
  (2,2),(0.,1.),.PIECEWISE_BEZIER_KNOTS.);
#426 = CARTESIAN_POINT('',(1.,1.));
#427 = CARTESIAN_POINT('',(1.,0.375));
#428 = ( GEOMETRIC_REPRESENTATION_CONTEXT(2) 
PARAMETRIC_REPRESENTATION_CONTEXT() REPRESENTATION_CONTEXT('2D SPACE',''
  ) );
#429 = ADVANCED_FACE('',(#430,#532),#72,.T.);
#430 = FACE_BOUND('',#431,.T.);
#431 = EDGE_LOOP('',(#432,#459,#484,#509));
#432 = ORIENTED_EDGE('',*,*,#433,.F.);
#433 = EDGE_CURVE('',#434,#436,#438,.T.);
#434 = VERTEX_POINT('',#435);
#435 = CARTESIAN_POINT('',(-2.368475785867E-15,80.,30.));
#436 = VERTEX_POINT('',#437);
#437 = CARTESIAN_POINT('',(80.,80.,30.));
#438 = SURFACE_CURVE('',#439,(#442,#448),.PCURVE_S1.);
#439 = B_SPLINE_CURVE_WITH_KNOTS('',1,(#440,#441),.UNSPECIFIED.,.F.,.F.,
  (2,2),(0.,1.),.PIECEWISE_BEZIER_KNOTS.);
#440 = CARTESIAN_POINT('',(0.,80.,30.));
#441 = CARTESIAN_POINT('',(80.,80.,30.));
#442 = PCURVE('',#72,#443);
#443 = DEFINITIONAL_REPRESENTATION('',(#444),#447);
#444 = B_SPLINE_CURVE_WITH_KNOTS('',1,(#445,#446),.UNSPECIFIED.,.F.,.F.,
  (2,2),(0.,1.),.PIECEWISE_BEZIER_KNOTS.);
#445 = CARTESIAN_POINT('',(0.5,1.));
#446 = CARTESIAN_POINT('',(1.,0.5));
#447 = ( GEOMETRIC_REPRESENTATION_CONTEXT(2) 
PARAMETRIC_REPRESENTATION_CONTEXT() REPRESENTATION_CONTEXT('2D SPACE',''
  ) );
#448 = PCURVE('',#449,#454);
#449 = B_SPLINE_SURFACE_WITH_KNOTS('',1,1,(
    (#450,#451)
    ,(#452,#453)),.UNSPECIFIED.,.F.,.F.,.F.,(2,2),(2,2),(0.,1.),(0.,1.),
  .PIECEWISE_BEZIER_KNOTS.);
#450 = CARTESIAN_POINT('',(0.,80.,0.));
#451 = CARTESIAN_POINT('',(80.,80.,0.));
#452 = CARTESIAN_POINT('',(0.,80.,30.));
#453 = CARTESIAN_POINT('',(80.,80.,30.));
#454 = DEFINITIONAL_REPRESENTATION('',(#455),#458);
#455 = B_SPLINE_CURVE_WITH_KNOTS('',1,(#456,#457),.UNSPECIFIED.,.F.,.F.,
  (2,2),(0.,1.),.PIECEWISE_BEZIER_KNOTS.);
#456 = CARTESIAN_POINT('',(1.,0.));
#457 = CARTESIAN_POINT('',(1.,1.));
#458 = ( GEOMETRIC_REPRESENTATION_CONTEXT(2) 
PARAMETRIC_REPRESENTATION_CONTEXT() REPRESENTATION_CONTEXT('2D SPACE',''
  ) );
#459 = ORIENTED_EDGE('',*,*,#460,.T.);
#460 = EDGE_CURVE('',#434,#461,#463,.T.);
#461 = VERTEX_POINT('',#462);
#462 = CARTESIAN_POINT('',(1.184237892934E-15,-1.184237892934E-15,30.));
#463 = SURFACE_CURVE('',#464,(#467,#473),.PCURVE_S1.);
#464 = B_SPLINE_CURVE_WITH_KNOTS('',1,(#465,#466),.UNSPECIFIED.,.F.,.F.,
  (2,2),(0.,1.),.PIECEWISE_BEZIER_KNOTS.);
#465 = CARTESIAN_POINT('',(0.,80.,30.));
#466 = CARTESIAN_POINT('',(0.,0.,30.));
#467 = PCURVE('',#72,#468);
#468 = DEFINITIONAL_REPRESENTATION('',(#469),#472);
#469 = B_SPLINE_CURVE_WITH_KNOTS('',1,(#470,#471),.UNSPECIFIED.,.F.,.F.,
  (2,2),(0.,1.),.PIECEWISE_BEZIER_KNOTS.);
#470 = CARTESIAN_POINT('',(0.5,1.));
#471 = CARTESIAN_POINT('',(0.,0.5));
#472 = ( GEOMETRIC_REPRESENTATION_CONTEXT(2) 
PARAMETRIC_REPRESENTATION_CONTEXT() REPRESENTATION_CONTEXT('2D SPACE',''
  ) );
#473 = PCURVE('',#474,#479);
#474 = B_SPLINE_SURFACE_WITH_KNOTS('',1,1,(
    (#475,#476)
    ,(#477,#478)),.UNSPECIFIED.,.F.,.F.,.F.,(2,2),(2,2),(0.,1.),(0.,1.),
  .PIECEWISE_BEZIER_KNOTS.);
#475 = CARTESIAN_POINT('',(0.,0.,0.));
#476 = CARTESIAN_POINT('',(0.,80.,0.));
#477 = CARTESIAN_POINT('',(0.,0.,30.));
#478 = CARTESIAN_POINT('',(0.,80.,30.));
#479 = DEFINITIONAL_REPRESENTATION('',(#480),#483);
#480 = B_SPLINE_CURVE_WITH_KNOTS('',1,(#481,#482),.UNSPECIFIED.,.F.,.F.,
  (2,2),(0.,1.),.PIECEWISE_BEZIER_KNOTS.);
#481 = CARTESIAN_POINT('',(1.,1.));
#482 = CARTESIAN_POINT('',(1.,0.));
#483 = ( GEOMETRIC_REPRESENTATION_CONTEXT(2) 
PARAMETRIC_REPRESENTATION_CONTEXT() REPRESENTATION_CONTEXT('2D SPACE',''
  ) );
#484 = ORIENTED_EDGE('',*,*,#485,.T.);
#485 = EDGE_CURVE('',#461,#486,#488,.T.);
#486 = VERTEX_POINT('',#487);
#487 = CARTESIAN_POINT('',(80.,7.401486830834E-16,30.));
#488 = SURFACE_CURVE('',#489,(#492,#498),.PCURVE_S1.);
#489 = B_SPLINE_CURVE_WITH_KNOTS('',1,(#490,#491),.UNSPECIFIED.,.F.,.F.,
  (2,2),(0.,1.),.PIECEWISE_BEZIER_KNOTS.);
#490 = CARTESIAN_POINT('',(0.,0.,30.));
#491 = CARTESIAN_POINT('',(80.,0.,30.));
#492 = PCURVE('',#72,#493);
#493 = DEFINITIONAL_REPRESENTATION('',(#494),#497);
#494 = B_SPLINE_CURVE_WITH_KNOTS('',1,(#495,#496),.UNSPECIFIED.,.F.,.F.,
  (2,2),(0.,1.),.PIECEWISE_BEZIER_KNOTS.);
#495 = CARTESIAN_POINT('',(0.,0.5));
#496 = CARTESIAN_POINT('',(0.5,0.));
#497 = ( GEOMETRIC_REPRESENTATION_CONTEXT(2) 
PARAMETRIC_REPRESENTATION_CONTEXT() REPRESENTATION_CONTEXT('2D SPACE',''
  ) );
#498 = PCURVE('',#499,#504);
#499 = B_SPLINE_SURFACE_WITH_KNOTS('',1,1,(
    (#500,#501)
    ,(#502,#503)),.UNSPECIFIED.,.F.,.F.,.F.,(2,2),(2,2),(0.,1.),(0.,1.),
  .PIECEWISE_BEZIER_KNOTS.);
#500 = CARTESIAN_POINT('',(0.,0.,0.));
#501 = CARTESIAN_POINT('',(0.,0.,30.));
#502 = CARTESIAN_POINT('',(80.,0.,0.));
#503 = CARTESIAN_POINT('',(80.,0.,30.));
#504 = DEFINITIONAL_REPRESENTATION('',(#505),#508);
#505 = B_SPLINE_CURVE_WITH_KNOTS('',1,(#506,#507),.UNSPECIFIED.,.F.,.F.,
  (2,2),(0.,1.),.PIECEWISE_BEZIER_KNOTS.);
#506 = CARTESIAN_POINT('',(0.,1.));
#507 = CARTESIAN_POINT('',(1.,1.));
#508 = ( GEOMETRIC_REPRESENTATION_CONTEXT(2) 
PARAMETRIC_REPRESENTATION_CONTEXT() REPRESENTATION_CONTEXT('2D SPACE',''
  ) );
#509 = ORIENTED_EDGE('',*,*,#510,.T.);
#510 = EDGE_CURVE('',#486,#436,#511,.T.);
#511 = SURFACE_CURVE('',#512,(#515,#521),.PCURVE_S1.);
#512 = B_SPLINE_CURVE_WITH_KNOTS('',1,(#513,#514),.UNSPECIFIED.,.F.,.F.,
  (2,2),(0.,1.),.PIECEWISE_BEZIER_KNOTS.);
#513 = CARTESIAN_POINT('',(80.,0.,30.));
#514 = CARTESIAN_POINT('',(80.,80.,30.));
#515 = PCURVE('',#72,#516);
#516 = DEFINITIONAL_REPRESENTATION('',(#517),#520);
#517 = B_SPLINE_CURVE_WITH_KNOTS('',1,(#518,#519),.UNSPECIFIED.,.F.,.F.,
  (2,2),(0.,1.),.PIECEWISE_BEZIER_KNOTS.);
#518 = CARTESIAN_POINT('',(0.5,5.551115123126E-17));
#519 = CARTESIAN_POINT('',(1.,0.5));
#520 = ( GEOMETRIC_REPRESENTATION_CONTEXT(2) 
PARAMETRIC_REPRESENTATION_CONTEXT() REPRESENTATION_CONTEXT('2D SPACE',''
  ) );
#521 = PCURVE('',#522,#527);
#522 = B_SPLINE_SURFACE_WITH_KNOTS('',1,1,(
    (#523,#524)
    ,(#525,#526)),.UNSPECIFIED.,.F.,.F.,.F.,(2,2),(2,2),(0.,1.),(0.,1.),
  .PIECEWISE_BEZIER_KNOTS.);
#523 = CARTESIAN_POINT('',(80.,0.,0.));
#524 = CARTESIAN_POINT('',(80.,0.,30.));
#525 = CARTESIAN_POINT('',(80.,80.,0.));
#526 = CARTESIAN_POINT('',(80.,80.,30.));
#527 = DEFINITIONAL_REPRESENTATION('',(#528),#531);
#528 = B_SPLINE_CURVE_WITH_KNOTS('',1,(#529,#530),.UNSPECIFIED.,.F.,.F.,
  (2,2),(0.,1.),.PIECEWISE_BEZIER_KNOTS.);
#529 = CARTESIAN_POINT('',(0.,1.));
#530 = CARTESIAN_POINT('',(1.,1.));
#531 = ( GEOMETRIC_REPRESENTATION_CONTEXT(2) 
PARAMETRIC_REPRESENTATION_CONTEXT() REPRESENTATION_CONTEXT('2D SPACE',''
  ) );
#532 = FACE_BOUND('',#533,.T.);
#533 = EDGE_LOOP('',(#534,#535,#536,#537,#538,#576,#614,#652,#690,#728,
    #766,#802,#803,#804));
#534 = ORIENTED_EDGE('',*,*,#165,.F.);
#535 = ORIENTED_EDGE('',*,*,#127,.F.);
#536 = ORIENTED_EDGE('',*,*,#89,.F.);
#537 = ORIENTED_EDGE('',*,*,#21,.F.);
#538 = ORIENTED_EDGE('',*,*,#539,.T.);
#539 = EDGE_CURVE('',#22,#540,#542,.T.);
#540 = VERTEX_POINT('',#541);
#541 = CARTESIAN_POINT('',(45.359525989657,50.736641050585,30.));
#542 = SURFACE_CURVE('',#543,(#552,#564),.PCURVE_S1.);
#543 = B_SPLINE_CURVE_WITH_KNOTS('',7,(#544,#545,#546,#547,#548,#549,
    #550,#551),.UNSPECIFIED.,.F.,.F.,(8,8),(0.,1.),
  .PIECEWISE_BEZIER_KNOTS.);
#544 = CARTESIAN_POINT('',(40.,52.,30.));
#545 = CARTESIAN_POINT('',(40.775769180068,52.,30.));
#546 = CARTESIAN_POINT('',(41.551315788932,51.941485510692,30.));
#547 = CARTESIAN_POINT('',(42.325134131221,51.824539923661,30.));
#548 = CARTESIAN_POINT('',(43.095340773639,51.648062407263,30.));
#549 = CARTESIAN_POINT('',(43.859687862574,51.410198175837,30.));
#550 = CARTESIAN_POINT('',(44.615498758851,51.108045727506,30.));
#551 = CARTESIAN_POINT('',(45.359525989657,50.736641050585,30.));
#552 = PCURVE('',#72,#553);
#553 = DEFINITIONAL_REPRESENTATION('',(#554),#563);
#554 = B_SPLINE_CURVE_WITH_KNOTS('',7,(#555,#556,#557,#558,#559,#560,
    #561,#562),.UNSPECIFIED.,.F.,.F.,(8,8),(0.,1.),
  .PIECEWISE_BEZIER_KNOTS.);
#555 = CARTESIAN_POINT('',(0.575,0.575));
#556 = CARTESIAN_POINT('',(0.579848557375,0.570151442625));
#557 = CARTESIAN_POINT('',(0.584330008123,0.564938560761));
#558 = CARTESIAN_POINT('',(0.588435462843,0.559371286203));
#559 = CARTESIAN_POINT('',(0.592146269881,0.55345451021));
#560 = CARTESIAN_POINT('',(0.59543678774,0.547190689458));
#561 = CARTESIAN_POINT('',(0.59827215304,0.540578418554));
#562 = CARTESIAN_POINT('',(0.600601044002,0.533606969131));
#563 = ( GEOMETRIC_REPRESENTATION_CONTEXT(2) 
PARAMETRIC_REPRESENTATION_CONTEXT() REPRESENTATION_CONTEXT('2D SPACE',''
  ) );
#564 = PCURVE('',#331,#565);
#565 = DEFINITIONAL_REPRESENTATION('',(#566),#575);
#566 = B_SPLINE_CURVE_WITH_KNOTS('',7,(#567,#568,#569,#570,#571,#572,
    #573,#574),.UNSPECIFIED.,.F.,.F.,(8,8),(0.,1.),
  .PIECEWISE_BEZIER_KNOTS.);
#567 = CARTESIAN_POINT('',(1.,0.375));
#568 = CARTESIAN_POINT('',(0.979422083382,0.375));
#569 = CARTESIAN_POINT('',(0.958849868387,0.375));
#570 = CARTESIAN_POINT('',(0.938183936587,0.375));
#571 = CARTESIAN_POINT('',(0.917331601539,0.375));
#572 = CARTESIAN_POINT('',(0.89620089321,0.375));
#573 = CARTESIAN_POINT('',(0.874683268095,0.375));
#574 = CARTESIAN_POINT('',(0.85262504504,0.375));
#575 = ( GEOMETRIC_REPRESENTATION_CONTEXT(2) 
PARAMETRIC_REPRESENTATION_CONTEXT() REPRESENTATION_CONTEXT('2D SPACE',''
  ) );
#576 = ORIENTED_EDGE('',*,*,#577,.T.);
#577 = EDGE_CURVE('',#540,#578,#580,.T.);
#578 = VERTEX_POINT('',#579);
#579 = CARTESIAN_POINT('',(49.706323138724,47.056001830085,30.));
#580 = SURFACE_CURVE('',#581,(#590,#602),.PCURVE_S1.);
#581 = B_SPLINE_CURVE_WITH_KNOTS('',7,(#582,#583,#584,#585,#586,#587,
    #588,#589),.UNSPECIFIED.,.F.,.F.,(8,8),(0.,1.),
  .PIECEWISE_BEZIER_KNOTS.);
#582 = CARTESIAN_POINT('',(45.359525989657,50.736641050585,30.));
#583 = CARTESIAN_POINT('',(46.028894039918,50.402504860195,30.));
#584 = CARTESIAN_POINT('',(46.687715620409,50.012823703322,30.));
#585 = CARTESIAN_POINT('',(47.334660655765,49.563699507251,30.));
#586 = CARTESIAN_POINT('',(47.966512061991,49.050312047345,30.));
#587 = CARTESIAN_POINT('',(48.577821878085,48.466387647781,30.));
#588 = CARTESIAN_POINT('',(49.161383084083,47.805628976211,30.));
#589 = CARTESIAN_POINT('',(49.706323138724,47.056001830085,30.));
#590 = PCURVE('',#72,#591);
#591 = DEFINITIONAL_REPRESENTATION('',(#592),#601);
#592 = B_SPLINE_CURVE_WITH_KNOTS('',7,(#593,#594,#595,#596,#597,#598,
    #599,#600),.UNSPECIFIED.,.F.,.F.,(8,8),(0.,1.),
  .PIECEWISE_BEZIER_KNOTS.);
#593 = CARTESIAN_POINT('',(0.600601044002,0.533606969131));
#594 = CARTESIAN_POINT('',(0.602696243126,0.527335067627));
#595 = CARTESIAN_POINT('',(0.604378370773,0.520781925518));
#596 = CARTESIAN_POINT('',(0.605614751019,0.513931492822));
#597 = CARTESIAN_POINT('',(0.606355150683,0.506773749908));
#598 = CARTESIAN_POINT('',(0.606526309537,0.499303536061));
#599 = CARTESIAN_POINT('',(0.606043825377,0.491526536826));
#600 = CARTESIAN_POINT('',(0.604764531055,0.483435491821));
#601 = ( GEOMETRIC_REPRESENTATION_CONTEXT(2) 
PARAMETRIC_REPRESENTATION_CONTEXT() REPRESENTATION_CONTEXT('2D SPACE',''
  ) );
#602 = PCURVE('',#331,#603);
#603 = DEFINITIONAL_REPRESENTATION('',(#604),#613);
#604 = B_SPLINE_CURVE_WITH_KNOTS('',7,(#605,#606,#607,#608,#609,#610,
    #611,#612),.UNSPECIFIED.,.F.,.F.,(8,8),(0.,1.),
  .PIECEWISE_BEZIER_KNOTS.);
#605 = CARTESIAN_POINT('',(0.85262504504,0.375));
#606 = CARTESIAN_POINT('',(0.832780247501,0.375));
#607 = CARTESIAN_POINT('',(0.812527877593,0.375));
#608 = CARTESIAN_POINT('',(0.791726097469,0.375));
#609 = CARTESIAN_POINT('',(0.770249061098,0.375));
#610 = CARTESIAN_POINT('',(0.747947148921,0.375));
#611 = CARTESIAN_POINT('',(0.724668078973,0.375));
#612 = CARTESIAN_POINT('',(0.700084779401,0.375));
#613 = ( GEOMETRIC_REPRESENTATION_CONTEXT(2) 
PARAMETRIC_REPRESENTATION_CONTEXT() REPRESENTATION_CONTEXT('2D SPACE',''
  ) );
#614 = ORIENTED_EDGE('',*,*,#615,.F.);
#615 = EDGE_CURVE('',#616,#578,#618,.T.);
#616 = VERTEX_POINT('',#617);
#617 = CARTESIAN_POINT('',(51.865990350295,41.788335256205,30.));
#618 = SURFACE_CURVE('',#619,(#628,#640),.PCURVE_S1.);
#619 = B_SPLINE_CURVE_WITH_KNOTS('',7,(#620,#621,#622,#623,#624,#625,
    #626,#627),.UNSPECIFIED.,.F.,.F.,(8,8),(0.,1.),
  .PIECEWISE_BEZIER_KNOTS.);
#620 = CARTESIAN_POINT('',(51.865990350295,41.788335256205,30.));
#621 = CARTESIAN_POINT('',(51.727446202709,42.707604248658,30.));
#622 = CARTESIAN_POINT('',(51.510510325019,43.583135059237,30.));
#623 = CARTESIAN_POINT('',(51.228004561407,44.399298294864,30.));
#624 = CARTESIAN_POINT('',(50.89581788293,45.152354796443,30.));
#625 = CARTESIAN_POINT('',(50.526231925463,45.84293143084,30.));
#626 = CARTESIAN_POINT('',(50.128357308271,46.47544573517,30.));
#627 = CARTESIAN_POINT('',(49.706323138724,47.056001830085,30.));
#628 = PCURVE('',#72,#629);
#629 = DEFINITIONAL_REPRESENTATION('',(#630),#639);
#630 = B_SPLINE_CURVE_WITH_KNOTS('',7,(#631,#632,#633,#634,#635,#636,
    #637,#638),.UNSPECIFIED.,.F.,.F.,(8,8),(0.,1.),
  .PIECEWISE_BEZIER_KNOTS.);
#631 = CARTESIAN_POINT('',(0.585339535041,0.437014655662));
#632 = CARTESIAN_POINT('',(0.590219065321,0.443625987787));
#633 = CARTESIAN_POINT('',(0.594335283652,0.450453904589));
#634 = CARTESIAN_POINT('',(0.597670642852,0.457320585834));
#635 = CARTESIAN_POINT('',(0.600301079246,0.464103355709));
#636 = CARTESIAN_POINT('',(0.602307270977,0.470729371909));
#637 = CARTESIAN_POINT('',(0.603773769022,0.477169302668));
#638 = CARTESIAN_POINT('',(0.604764531055,0.483435491821));
#639 = ( GEOMETRIC_REPRESENTATION_CONTEXT(2) 
PARAMETRIC_REPRESENTATION_CONTEXT() REPRESENTATION_CONTEXT('2D SPACE',''
  ) );
#640 = PCURVE('',#331,#641);
#641 = DEFINITIONAL_REPRESENTATION('',(#642),#651);
#642 = B_SPLINE_CURVE_WITH_KNOTS('',7,(#643,#644,#645,#646,#647,#648,
    #649,#650),.UNSPECIFIED.,.F.,.F.,(8,8),(0.,1.),
  .PIECEWISE_BEZIER_KNOTS.);
#643 = CARTESIAN_POINT('',(0.54761453266,0.375));
#644 = CARTESIAN_POINT('',(0.57227432265,0.375));
#645 = CARTESIAN_POINT('',(0.596096603673,0.375));
#646 = CARTESIAN_POINT('',(0.618863688969,0.375));
#647 = CARTESIAN_POINT('',(0.640577553171,0.375));
#648 = CARTESIAN_POINT('',(0.661269031192,0.375));
#649 = CARTESIAN_POINT('',(0.681046001959,0.375));
#650 = CARTESIAN_POINT('',(0.700084779401,0.375));
#651 = ( GEOMETRIC_REPRESENTATION_CONTEXT(2) 
PARAMETRIC_REPRESENTATION_CONTEXT() REPRESENTATION_CONTEXT('2D SPACE',''
  ) );
#652 = ORIENTED_EDGE('',*,*,#653,.F.);
#653 = EDGE_CURVE('',#654,#616,#656,.T.);
#654 = VERTEX_POINT('',#655);
#655 = CARTESIAN_POINT('',(51.110983618948,35.467241619375,30.));
#656 = SURFACE_CURVE('',#657,(#666,#678),.PCURVE_S1.);
#657 = B_SPLINE_CURVE_WITH_KNOTS('',7,(#658,#659,#660,#661,#662,#663,
    #664,#665),.UNSPECIFIED.,.F.,.F.,(8,8),(0.,1.),
  .PIECEWISE_BEZIER_KNOTS.);
#658 = CARTESIAN_POINT('',(51.110983618948,35.467241619375,30.));
#659 = CARTESIAN_POINT('',(51.423958113505,36.234424264908,30.));
#660 = CARTESIAN_POINT('',(51.694023159812,37.073124588822,30.));
#661 = CARTESIAN_POINT('',(51.901829862277,37.974308339697,30.));
#662 = CARTESIAN_POINT('',(52.029802291293,38.922929211357,30.));
#663 = CARTESIAN_POINT('',(52.065408766996,39.896694388587,30.));
#664 = CARTESIAN_POINT('',(52.005106233741,40.865272678403,30.));
#665 = CARTESIAN_POINT('',(51.865990350295,41.788335256205,30.));
#666 = PCURVE('',#72,#667);
#667 = DEFINITIONAL_REPRESENTATION('',(#668),#677);
#668 = B_SPLINE_CURVE_WITH_KNOTS('',7,(#669,#670,#671,#672,#673,#674,
    #675,#676),.UNSPECIFIED.,.F.,.F.,(8,8),(0.,1.),
  .PIECEWISE_BEZIER_KNOTS.);
#669 = CARTESIAN_POINT('',(0.54111390774,0.402226612503));
#670 = CARTESIAN_POINT('',(0.547864889865,0.405065413446));
#671 = CARTESIAN_POINT('',(0.554794673429,0.408619383931));
#672 = CARTESIAN_POINT('',(0.561725863762,0.412952990484));
#673 = CARTESIAN_POINT('',(0.568454571892,0.41808204325));
#674 = CARTESIAN_POINT('',(0.574763144722,0.423945535135));
#675 = CARTESIAN_POINT('',(0.580439868201,0.430376040279));
#676 = CARTESIAN_POINT('',(0.585339535041,0.437014655662));
#677 = ( GEOMETRIC_REPRESENTATION_CONTEXT(2) 
PARAMETRIC_REPRESENTATION_CONTEXT() REPRESENTATION_CONTEXT('2D SPACE',''
  ) );
#678 = PCURVE('',#331,#679);
#679 = DEFINITIONAL_REPRESENTATION('',(#680),#689);
#680 = B_SPLINE_CURVE_WITH_KNOTS('',7,(#681,#682,#683,#684,#685,#686,
    #687,#688),.UNSPECIFIED.,.F.,.F.,(8,8),(0.,1.),
  .PIECEWISE_BEZIER_KNOTS.);
#681 = CARTESIAN_POINT('',(0.37670459439,0.375));
#682 = CARTESIAN_POINT('',(0.39868301622,0.375));
#683 = CARTESIAN_POINT('',(0.421988106072,0.375));
#684 = CARTESIAN_POINT('',(0.4463747036,0.375));
#685 = CARTESIAN_POINT('',(0.47156345831,0.375));
#686 = CARTESIAN_POINT('',(0.497209155055,0.375));
#687 = CARTESIAN_POINT('',(0.522852978096,0.375));
#688 = CARTESIAN_POINT('',(0.54761453266,0.375));
#689 = ( GEOMETRIC_REPRESENTATION_CONTEXT(2) 
PARAMETRIC_REPRESENTATION_CONTEXT() REPRESENTATION_CONTEXT('2D SPACE',''
  ) );
#690 = ORIENTED_EDGE('',*,*,#691,.F.);
#691 = EDGE_CURVE('',#692,#654,#694,.T.);
#692 = VERTEX_POINT('',#693);
#693 = CARTESIAN_POINT('',(48.871642722129,31.919539104068,30.));
#694 = SURFACE_CURVE('',#695,(#704,#716),.PCURVE_S1.);
#695 = B_SPLINE_CURVE_WITH_KNOTS('',7,(#696,#697,#698,#699,#700,#701,
    #702,#703),.UNSPECIFIED.,.F.,.F.,(8,8),(0.,1.),
  .PIECEWISE_BEZIER_KNOTS.);
#696 = CARTESIAN_POINT('',(48.871642722129,31.919539104068,30.));
#697 = CARTESIAN_POINT('',(49.239495883932,32.323410519388,30.));
#698 = CARTESIAN_POINT('',(49.595844000377,32.757724321989,30.));
#699 = CARTESIAN_POINT('',(49.939126286767,33.225007245935,30.));
#700 = CARTESIAN_POINT('',(50.266648369431,33.727650400697,30.));
#701 = CARTESIAN_POINT('',(50.574595514064,34.267796111326,30.));
#702 = CARTESIAN_POINT('',(50.85804585408,34.847224758635,30.));
#703 = CARTESIAN_POINT('',(51.110983618948,35.467241619375,30.));
#704 = PCURVE('',#72,#705);
#705 = DEFINITIONAL_REPRESENTATION('',(#706),#715);
#706 = B_SPLINE_CURVE_WITH_KNOTS('',7,(#707,#708,#709,#710,#711,#712,
    #713,#714),.UNSPECIFIED.,.F.,.F.,(8,8),(0.,1.),
  .PIECEWISE_BEZIER_KNOTS.);
#707 = CARTESIAN_POINT('',(0.504944886414,0.394049352387));
#708 = CARTESIAN_POINT('',(0.509768165021,0.394274466472));
#709 = CARTESIAN_POINT('',(0.514709802015,0.39476175201));
#710 = CARTESIAN_POINT('',(0.519775834579,0.395536755995));
#711 = CARTESIAN_POINT('',(0.524964367313,0.396631262695));
#712 = CARTESIAN_POINT('',(0.530264947659,0.398082503733));
#713 = CARTESIAN_POINT('',(0.535657941329,0.399932368153));
#714 = CARTESIAN_POINT('',(0.54111390774,0.402226612503));
#715 = ( GEOMETRIC_REPRESENTATION_CONTEXT(2) 
PARAMETRIC_REPRESENTATION_CONTEXT() REPRESENTATION_CONTEXT('2D SPACE',''
  ) );
#716 = PCURVE('',#331,#717);
#717 = DEFINITIONAL_REPRESENTATION('',(#718),#727);
#718 = B_SPLINE_CURVE_WITH_KNOTS('',7,(#719,#720,#721,#722,#723,#724,
    #725,#726),.UNSPECIFIED.,.F.,.F.,(8,8),(0.,1.),
  .PIECEWISE_BEZIER_KNOTS.);
#719 = CARTESIAN_POINT('',(0.264845175272,0.375));
#720 = CARTESIAN_POINT('',(0.279335845987,0.375));
#721 = CARTESIAN_POINT('',(0.29421783691,0.375));
#722 = CARTESIAN_POINT('',(0.309562492377,0.375));
#723 = CARTESIAN_POINT('',(0.325428995489,0.375));
#724 = CARTESIAN_POINT('',(0.341870824838,0.375));
#725 = CARTESIAN_POINT('',(0.358942211226,0.375));
#726 = CARTESIAN_POINT('',(0.37670459439,0.375));
#727 = ( GEOMETRIC_REPRESENTATION_CONTEXT(2) 
PARAMETRIC_REPRESENTATION_CONTEXT() REPRESENTATION_CONTEXT('2D SPACE',''
  ) );
#728 = ORIENTED_EDGE('',*,*,#729,.F.);
#729 = EDGE_CURVE('',#730,#692,#732,.T.);
#730 = VERTEX_POINT('',#731);
#731 = CARTESIAN_POINT('',(44.396225323487,28.834284894544,30.));
#732 = SURFACE_CURVE('',#733,(#742,#754),.PCURVE_S1.);
#733 = B_SPLINE_CURVE_WITH_KNOTS('',7,(#734,#735,#736,#737,#738,#739,
    #740,#741),.UNSPECIFIED.,.F.,.F.,(8,8),(0.,1.),
  .PIECEWISE_BEZIER_KNOTS.);
#734 = CARTESIAN_POINT('',(44.396225323487,28.834284894544,30.));
#735 = CARTESIAN_POINT('',(45.071527123125,29.100168604092,30.));
#736 = CARTESIAN_POINT('',(45.739134187608,29.418054083337,30.));
#737 = CARTESIAN_POINT('',(46.397754362597,29.790711651451,30.));
#738 = CARTESIAN_POINT('',(47.044890823877,30.221765574004,30.));
#739 = CARTESIAN_POINT('',(47.676670170521,30.71601338048,30.));
#740 = CARTESIAN_POINT('',(48.28801585183,31.278766549682,30.));
#741 = CARTESIAN_POINT('',(48.871642722129,31.919539104068,30.));
#742 = PCURVE('',#72,#743);
#743 = DEFINITIONAL_REPRESENTATION('',(#744),#753);
#744 = B_SPLINE_CURVE_WITH_KNOTS('',7,(#745,#746,#747,#748,#749,#750,
    #751,#752),.UNSPECIFIED.,.F.,.F.,(8,8),(0.,1.),
  .PIECEWISE_BEZIER_KNOTS.);
#745 = CARTESIAN_POINT('',(0.457690688863,0.402737872319));
#746 = CARTESIAN_POINT('',(0.463573098295,0.400179009256));
#747 = CARTESIAN_POINT('',(0.469732426693,0.397993249348));
#748 = CARTESIAN_POINT('',(0.476177912588,0.396205983055));
#749 = CARTESIAN_POINT('',(0.482916602487,0.394855467188));
#750 = CARTESIAN_POINT('',(0.489954272194,0.393995895062));
#751 = CARTESIAN_POINT('',(0.497292390009,0.393692191862));
#752 = CARTESIAN_POINT('',(0.504944886414,0.394049352387));
#753 = ( GEOMETRIC_REPRESENTATION_CONTEXT(2) 
PARAMETRIC_REPRESENTATION_CONTEXT() REPRESENTATION_CONTEXT('2D SPACE',''
  ) );
#754 = PCURVE('',#331,#755);
#755 = DEFINITIONAL_REPRESENTATION('',(#756),#765);
#756 = B_SPLINE_CURVE_WITH_KNOTS('',7,(#757,#758,#759,#760,#761,#762,
    #763,#764),.UNSPECIFIED.,.F.,.F.,(8,8),(0.,1.),
  .PIECEWISE_BEZIER_KNOTS.);
#757 = CARTESIAN_POINT('',(0.119393431888,0.375));
#758 = CARTESIAN_POINT('',(0.138644795276,0.375));
#759 = CARTESIAN_POINT('',(0.158211485667,0.375));
#760 = CARTESIAN_POINT('',(0.178204229174,0.375));
#761 = CARTESIAN_POINT('',(0.198726278741,0.375));
#762 = CARTESIAN_POINT('',(0.219898917175,0.375));
#763 = CARTESIAN_POINT('',(0.241854629924,0.375));
#764 = CARTESIAN_POINT('',(0.264845175272,0.375));
#765 = ( GEOMETRIC_REPRESENTATION_CONTEXT(2) 
PARAMETRIC_REPRESENTATION_CONTEXT() REPRESENTATION_CONTEXT('2D SPACE',''
  ) );
#766 = ORIENTED_EDGE('',*,*,#767,.F.);
#767 = EDGE_CURVE('',#280,#730,#768,.T.);
#768 = SURFACE_CURVE('',#769,(#778,#790),.PCURVE_S1.);
#769 = B_SPLINE_CURVE_WITH_KNOTS('',7,(#770,#771,#772,#773,#774,#775,
    #776,#777),.UNSPECIFIED.,.F.,.F.,(8,8),(0.,1.),
  .PIECEWISE_BEZIER_KNOTS.);
#770 = CARTESIAN_POINT('',(40.,28.,30.));
#771 = CARTESIAN_POINT('',(40.633392824059,28.,30.));
#772 = CARTESIAN_POINT('',(41.266716729819,28.039005129455,30.));
#773 = CARTESIAN_POINT('',(41.899067360165,28.116995566649,30.));
#774 = CARTESIAN_POINT('',(42.529417826512,28.234429488046,30.));
#775 = CARTESIAN_POINT('',(43.156617582475,28.392138856562,30.));
#776 = CARTESIAN_POINT('',(43.779375239365,28.591415130699,30.));
#777 = CARTESIAN_POINT('',(44.396225323487,28.834284894544,30.));
#778 = PCURVE('',#72,#779);
#779 = DEFINITIONAL_REPRESENTATION('',(#780),#789);
#780 = B_SPLINE_CURVE_WITH_KNOTS('',7,(#781,#782,#783,#784,#785,#786,
    #787,#788),.UNSPECIFIED.,.F.,.F.,(8,8),(0.,1.),
  .PIECEWISE_BEZIER_KNOTS.);
#781 = CARTESIAN_POINT('',(0.425,0.425));
#782 = CARTESIAN_POINT('',(0.42895870515,0.42104129485));
#783 = CARTESIAN_POINT('',(0.43316076162,0.417326802498));
#784 = CARTESIAN_POINT('',(0.437600393293,0.413862051291));
#785 = CARTESIAN_POINT('',(0.442274045716,0.410656322885));
#786 = CARTESIAN_POINT('',(0.447179727744,0.407722007963));
#787 = CARTESIAN_POINT('',(0.452317439813,0.405075249321));
#788 = CARTESIAN_POINT('',(0.457690688863,0.402737872319));
#789 = ( GEOMETRIC_REPRESENTATION_CONTEXT(2) 
PARAMETRIC_REPRESENTATION_CONTEXT() REPRESENTATION_CONTEXT('2D SPACE',''
  ) );
#790 = PCURVE('',#331,#791);
#791 = DEFINITIONAL_REPRESENTATION('',(#792),#801);
#792 = B_SPLINE_CURVE_WITH_KNOTS('',7,(#793,#794,#795,#796,#797,#798,
    #799,#800),.UNSPECIFIED.,.F.,.F.,(8,8),(0.,1.),
  .PIECEWISE_BEZIER_KNOTS.);
#793 = CARTESIAN_POINT('',(0.,0.375));
#794 = CARTESIAN_POINT('',(1.6801266478E-02,0.375));
#795 = CARTESIAN_POINT('',(3.360074969241E-02,0.375));
#796 = CARTESIAN_POINT('',(5.0450672352E-02,0.375));
#797 = CARTESIAN_POINT('',(6.740072477683E-02,0.375));
#798 = CARTESIAN_POINT('',(8.450114600953E-02,0.375));
#799 = CARTESIAN_POINT('',(0.101808397861,0.375));
#800 = CARTESIAN_POINT('',(0.119393431888,0.375));
#801 = ( GEOMETRIC_REPRESENTATION_CONTEXT(2) 
PARAMETRIC_REPRESENTATION_CONTEXT() REPRESENTATION_CONTEXT('2D SPACE',''
  ) );
#802 = ORIENTED_EDGE('',*,*,#279,.F.);
#803 = ORIENTED_EDGE('',*,*,#241,.F.);
#804 = ORIENTED_EDGE('',*,*,#203,.F.);
#805 = ADVANCED_FACE('',(#806),#331,.T.);
#806 = FACE_BOUND('',#807,.T.);
#807 = EDGE_LOOP('',(#808,#809,#810,#811,#812,#813,#814,#815,#816,#843)
  );
#808 = ORIENTED_EDGE('',*,*,#767,.T.);
#809 = ORIENTED_EDGE('',*,*,#729,.T.);
#810 = ORIENTED_EDGE('',*,*,#691,.T.);
#811 = ORIENTED_EDGE('',*,*,#653,.T.);
#812 = ORIENTED_EDGE('',*,*,#615,.T.);
#813 = ORIENTED_EDGE('',*,*,#577,.F.);
#814 = ORIENTED_EDGE('',*,*,#539,.F.);
#815 = ORIENTED_EDGE('',*,*,#412,.F.);
#816 = ORIENTED_EDGE('',*,*,#817,.T.);
#817 = EDGE_CURVE('',#361,#318,#818,.T.);
#818 = SURFACE_CURVE('',#819,(#831,#837),.PCURVE_S1.);
#819 = B_SPLINE_CURVE_WITH_KNOTS('',10,(#820,#821,#822,#823,#824,#825,
    #826,#827,#828,#829,#830),.UNSPECIFIED.,.F.,.F.,(11,11),(0.,1.),
  .PIECEWISE_BEZIER_KNOTS.);
#820 = CARTESIAN_POINT('',(40.,52.,55.));
#821 = CARTESIAN_POINT('',(43.769911184308,52.,55.));
#822 = CARTESIAN_POINT('',(47.539822368616,50.684052746521,55.));
#823 = CARTESIAN_POINT('',(50.792962274918,48.052158239564,55.));
#824 = CARTESIAN_POINT('',(53.012559625211,44.336242886352,55.));
#825 = CARTESIAN_POINT('',(53.80327952434,40.,55.));
#826 = CARTESIAN_POINT('',(53.012559625211,35.663757113648,55.));
#827 = CARTESIAN_POINT('',(50.792962274918,31.947841760436,55.));
#828 = CARTESIAN_POINT('',(47.539822368616,29.315947253479,55.));
#829 = CARTESIAN_POINT('',(43.769911184308,28.,55.));
#830 = CARTESIAN_POINT('',(40.,28.,55.));
#831 = PCURVE('',#331,#832);
#832 = DEFINITIONAL_REPRESENTATION('',(#833),#836);
#833 = B_SPLINE_CURVE_WITH_KNOTS('',1,(#834,#835),.UNSPECIFIED.,.F.,.F.,
  (2,2),(0.,1.),.PIECEWISE_BEZIER_KNOTS.);
#834 = CARTESIAN_POINT('',(1.,1.));
#835 = CARTESIAN_POINT('',(0.,1.));
#836 = ( GEOMETRIC_REPRESENTATION_CONTEXT(2) 
PARAMETRIC_REPRESENTATION_CONTEXT() REPRESENTATION_CONTEXT('2D SPACE',''
  ) );
#837 = PCURVE('',#383,#838);
#838 = DEFINITIONAL_REPRESENTATION('',(#839),#842);
#839 = B_SPLINE_CURVE_WITH_KNOTS('',1,(#840,#841),.UNSPECIFIED.,.F.,.F.,
  (2,2),(0.,1.),.PIECEWISE_BEZIER_KNOTS.);
#840 = CARTESIAN_POINT('',(1.,0.));
#841 = CARTESIAN_POINT('',(0.,0.));
#842 = ( GEOMETRIC_REPRESENTATION_CONTEXT(2) 
PARAMETRIC_REPRESENTATION_CONTEXT() REPRESENTATION_CONTEXT('2D SPACE',''
  ) );
#843 = ORIENTED_EDGE('',*,*,#317,.T.);
#844 = ADVANCED_FACE('',(#845),#383,.T.);
#845 = FACE_BOUND('',#846,.T.);
#846 = EDGE_LOOP('',(#847,#848));
#847 = ORIENTED_EDGE('',*,*,#817,.F.);
#848 = ORIENTED_EDGE('',*,*,#360,.F.);
#849 = ADVANCED_FACE('',(#850),#449,.T.);
#850 = FACE_BOUND('',#851,.T.);
#851 = EDGE_LOOP('',(#852,#879,#897,#898));
#852 = ORIENTED_EDGE('',*,*,#853,.F.);
#853 = EDGE_CURVE('',#854,#856,#858,.T.);
#854 = VERTEX_POINT('',#855);
#855 = CARTESIAN_POINT('',(0.,80.,0.));
#856 = VERTEX_POINT('',#857);
#857 = CARTESIAN_POINT('',(80.,80.,0.));
#858 = SURFACE_CURVE('',#859,(#862,#868),.PCURVE_S1.);
#859 = B_SPLINE_CURVE_WITH_KNOTS('',1,(#860,#861),.UNSPECIFIED.,.F.,.F.,
  (2,2),(0.,1.),.PIECEWISE_BEZIER_KNOTS.);
#860 = CARTESIAN_POINT('',(0.,80.,0.));
#861 = CARTESIAN_POINT('',(80.,80.,0.));
#862 = PCURVE('',#449,#863);
#863 = DEFINITIONAL_REPRESENTATION('',(#864),#867);
#864 = B_SPLINE_CURVE_WITH_KNOTS('',1,(#865,#866),.UNSPECIFIED.,.F.,.F.,
  (2,2),(0.,1.),.PIECEWISE_BEZIER_KNOTS.);
#865 = CARTESIAN_POINT('',(0.,0.));
#866 = CARTESIAN_POINT('',(0.,1.));
#867 = ( GEOMETRIC_REPRESENTATION_CONTEXT(2) 
PARAMETRIC_REPRESENTATION_CONTEXT() REPRESENTATION_CONTEXT('2D SPACE',''
  ) );
#868 = PCURVE('',#869,#874);
#869 = B_SPLINE_SURFACE_WITH_KNOTS('',1,1,(
    (#870,#871)
    ,(#872,#873)),.UNSPECIFIED.,.F.,.F.,.F.,(2,2),(2,2),(0.,1.),(0.,1.),
  .PIECEWISE_BEZIER_KNOTS.);
#870 = CARTESIAN_POINT('',(0.,0.,0.));
#871 = CARTESIAN_POINT('',(80.,0.,0.));
#872 = CARTESIAN_POINT('',(0.,80.,0.));
#873 = CARTESIAN_POINT('',(80.,80.,0.));
#874 = DEFINITIONAL_REPRESENTATION('',(#875),#878);
#875 = B_SPLINE_CURVE_WITH_KNOTS('',1,(#876,#877),.UNSPECIFIED.,.F.,.F.,
  (2,2),(0.,1.),.PIECEWISE_BEZIER_KNOTS.);
#876 = CARTESIAN_POINT('',(1.,0.));
#877 = CARTESIAN_POINT('',(1.,1.));
#878 = ( GEOMETRIC_REPRESENTATION_CONTEXT(2) 
PARAMETRIC_REPRESENTATION_CONTEXT() REPRESENTATION_CONTEXT('2D SPACE',''
  ) );
#879 = ORIENTED_EDGE('',*,*,#880,.T.);
#880 = EDGE_CURVE('',#854,#434,#881,.T.);
#881 = SURFACE_CURVE('',#882,(#885,#891),.PCURVE_S1.);
#882 = B_SPLINE_CURVE_WITH_KNOTS('',1,(#883,#884),.UNSPECIFIED.,.F.,.F.,
  (2,2),(0.,1.),.PIECEWISE_BEZIER_KNOTS.);
#883 = CARTESIAN_POINT('',(0.,80.,0.));
#884 = CARTESIAN_POINT('',(0.,80.,30.));
#885 = PCURVE('',#449,#886);
#886 = DEFINITIONAL_REPRESENTATION('',(#887),#890);
#887 = B_SPLINE_CURVE_WITH_KNOTS('',1,(#888,#889),.UNSPECIFIED.,.F.,.F.,
  (2,2),(0.,1.),.PIECEWISE_BEZIER_KNOTS.);
#888 = CARTESIAN_POINT('',(0.,0.));
#889 = CARTESIAN_POINT('',(1.,0.));
#890 = ( GEOMETRIC_REPRESENTATION_CONTEXT(2) 
PARAMETRIC_REPRESENTATION_CONTEXT() REPRESENTATION_CONTEXT('2D SPACE',''
  ) );
#891 = PCURVE('',#474,#892);
#892 = DEFINITIONAL_REPRESENTATION('',(#893),#896);
#893 = B_SPLINE_CURVE_WITH_KNOTS('',1,(#894,#895),.UNSPECIFIED.,.F.,.F.,
  (2,2),(0.,1.),.PIECEWISE_BEZIER_KNOTS.);
#894 = CARTESIAN_POINT('',(0.,1.));
#895 = CARTESIAN_POINT('',(1.,1.));
#896 = ( GEOMETRIC_REPRESENTATION_CONTEXT(2) 
PARAMETRIC_REPRESENTATION_CONTEXT() REPRESENTATION_CONTEXT('2D SPACE',''
  ) );
#897 = ORIENTED_EDGE('',*,*,#433,.T.);
#898 = ORIENTED_EDGE('',*,*,#899,.F.);
#899 = EDGE_CURVE('',#856,#436,#900,.T.);
#900 = SURFACE_CURVE('',#901,(#904,#910),.PCURVE_S1.);
#901 = B_SPLINE_CURVE_WITH_KNOTS('',1,(#902,#903),.UNSPECIFIED.,.F.,.F.,
  (2,2),(0.,1.),.PIECEWISE_BEZIER_KNOTS.);
#902 = CARTESIAN_POINT('',(80.,80.,0.));
#903 = CARTESIAN_POINT('',(80.,80.,30.));
#904 = PCURVE('',#449,#905);
#905 = DEFINITIONAL_REPRESENTATION('',(#906),#909);
#906 = B_SPLINE_CURVE_WITH_KNOTS('',1,(#907,#908),.UNSPECIFIED.,.F.,.F.,
  (2,2),(0.,1.),.PIECEWISE_BEZIER_KNOTS.);
#907 = CARTESIAN_POINT('',(0.,1.));
#908 = CARTESIAN_POINT('',(1.,1.));
#909 = ( GEOMETRIC_REPRESENTATION_CONTEXT(2) 
PARAMETRIC_REPRESENTATION_CONTEXT() REPRESENTATION_CONTEXT('2D SPACE',''
  ) );
#910 = PCURVE('',#522,#911);
#911 = DEFINITIONAL_REPRESENTATION('',(#912),#915);
#912 = B_SPLINE_CURVE_WITH_KNOTS('',1,(#913,#914),.UNSPECIFIED.,.F.,.F.,
  (2,2),(0.,1.),.PIECEWISE_BEZIER_KNOTS.);
#913 = CARTESIAN_POINT('',(1.,0.));
#914 = CARTESIAN_POINT('',(1.,1.));
#915 = ( GEOMETRIC_REPRESENTATION_CONTEXT(2) 
PARAMETRIC_REPRESENTATION_CONTEXT() REPRESENTATION_CONTEXT('2D SPACE',''
  ) );
#916 = ADVANCED_FACE('',(#917),#474,.T.);
#917 = FACE_BOUND('',#918,.T.);
#918 = EDGE_LOOP('',(#919,#939,#957,#958));
#919 = ORIENTED_EDGE('',*,*,#920,.F.);
#920 = EDGE_CURVE('',#921,#854,#923,.T.);
#921 = VERTEX_POINT('',#922);
#922 = CARTESIAN_POINT('',(0.,0.,0.));
#923 = SURFACE_CURVE('',#924,(#927,#933),.PCURVE_S1.);
#924 = B_SPLINE_CURVE_WITH_KNOTS('',1,(#925,#926),.UNSPECIFIED.,.F.,.F.,
  (2,2),(0.,1.),.PIECEWISE_BEZIER_KNOTS.);
#925 = CARTESIAN_POINT('',(0.,0.,0.));
#926 = CARTESIAN_POINT('',(0.,80.,0.));
#927 = PCURVE('',#474,#928);
#928 = DEFINITIONAL_REPRESENTATION('',(#929),#932);
#929 = B_SPLINE_CURVE_WITH_KNOTS('',1,(#930,#931),.UNSPECIFIED.,.F.,.F.,
  (2,2),(0.,1.),.PIECEWISE_BEZIER_KNOTS.);
#930 = CARTESIAN_POINT('',(0.,0.));
#931 = CARTESIAN_POINT('',(0.,1.));
#932 = ( GEOMETRIC_REPRESENTATION_CONTEXT(2) 
PARAMETRIC_REPRESENTATION_CONTEXT() REPRESENTATION_CONTEXT('2D SPACE',''
  ) );
#933 = PCURVE('',#869,#934);
#934 = DEFINITIONAL_REPRESENTATION('',(#935),#938);
#935 = B_SPLINE_CURVE_WITH_KNOTS('',1,(#936,#937),.UNSPECIFIED.,.F.,.F.,
  (2,2),(0.,1.),.PIECEWISE_BEZIER_KNOTS.);
#936 = CARTESIAN_POINT('',(0.,0.));
#937 = CARTESIAN_POINT('',(1.,0.));
#938 = ( GEOMETRIC_REPRESENTATION_CONTEXT(2) 
PARAMETRIC_REPRESENTATION_CONTEXT() REPRESENTATION_CONTEXT('2D SPACE',''
  ) );
#939 = ORIENTED_EDGE('',*,*,#940,.T.);
#940 = EDGE_CURVE('',#921,#461,#941,.T.);
#941 = SURFACE_CURVE('',#942,(#945,#951),.PCURVE_S1.);
#942 = B_SPLINE_CURVE_WITH_KNOTS('',1,(#943,#944),.UNSPECIFIED.,.F.,.F.,
  (2,2),(0.,1.),.PIECEWISE_BEZIER_KNOTS.);
#943 = CARTESIAN_POINT('',(0.,0.,0.));
#944 = CARTESIAN_POINT('',(0.,0.,30.));
#945 = PCURVE('',#474,#946);
#946 = DEFINITIONAL_REPRESENTATION('',(#947),#950);
#947 = B_SPLINE_CURVE_WITH_KNOTS('',1,(#948,#949),.UNSPECIFIED.,.F.,.F.,
  (2,2),(0.,1.),.PIECEWISE_BEZIER_KNOTS.);
#948 = CARTESIAN_POINT('',(0.,0.));
#949 = CARTESIAN_POINT('',(1.,0.));
#950 = ( GEOMETRIC_REPRESENTATION_CONTEXT(2) 
PARAMETRIC_REPRESENTATION_CONTEXT() REPRESENTATION_CONTEXT('2D SPACE',''
  ) );
#951 = PCURVE('',#499,#952);
#952 = DEFINITIONAL_REPRESENTATION('',(#953),#956);
#953 = B_SPLINE_CURVE_WITH_KNOTS('',1,(#954,#955),.UNSPECIFIED.,.F.,.F.,
  (2,2),(0.,1.),.PIECEWISE_BEZIER_KNOTS.);
#954 = CARTESIAN_POINT('',(0.,0.));
#955 = CARTESIAN_POINT('',(0.,1.));
#956 = ( GEOMETRIC_REPRESENTATION_CONTEXT(2) 
PARAMETRIC_REPRESENTATION_CONTEXT() REPRESENTATION_CONTEXT('2D SPACE',''
  ) );
#957 = ORIENTED_EDGE('',*,*,#460,.F.);
#958 = ORIENTED_EDGE('',*,*,#880,.F.);
#959 = ADVANCED_FACE('',(#960),#499,.T.);
#960 = FACE_BOUND('',#961,.T.);
#961 = EDGE_LOOP('',(#962,#963,#983,#1001));
#962 = ORIENTED_EDGE('',*,*,#940,.F.);
#963 = ORIENTED_EDGE('',*,*,#964,.T.);
#964 = EDGE_CURVE('',#921,#965,#967,.T.);
#965 = VERTEX_POINT('',#966);
#966 = CARTESIAN_POINT('',(80.,0.,0.));
#967 = SURFACE_CURVE('',#968,(#971,#977),.PCURVE_S1.);
#968 = B_SPLINE_CURVE_WITH_KNOTS('',1,(#969,#970),.UNSPECIFIED.,.F.,.F.,
  (2,2),(0.,1.),.PIECEWISE_BEZIER_KNOTS.);
#969 = CARTESIAN_POINT('',(0.,0.,0.));
#970 = CARTESIAN_POINT('',(80.,0.,0.));
#971 = PCURVE('',#499,#972);
#972 = DEFINITIONAL_REPRESENTATION('',(#973),#976);
#973 = B_SPLINE_CURVE_WITH_KNOTS('',1,(#974,#975),.UNSPECIFIED.,.F.,.F.,
  (2,2),(0.,1.),.PIECEWISE_BEZIER_KNOTS.);
#974 = CARTESIAN_POINT('',(0.,0.));
#975 = CARTESIAN_POINT('',(1.,0.));
#976 = ( GEOMETRIC_REPRESENTATION_CONTEXT(2) 
PARAMETRIC_REPRESENTATION_CONTEXT() REPRESENTATION_CONTEXT('2D SPACE',''
  ) );
#977 = PCURVE('',#869,#978);
#978 = DEFINITIONAL_REPRESENTATION('',(#979),#982);
#979 = B_SPLINE_CURVE_WITH_KNOTS('',1,(#980,#981),.UNSPECIFIED.,.F.,.F.,
  (2,2),(0.,1.),.PIECEWISE_BEZIER_KNOTS.);
#980 = CARTESIAN_POINT('',(0.,0.));
#981 = CARTESIAN_POINT('',(0.,1.));
#982 = ( GEOMETRIC_REPRESENTATION_CONTEXT(2) 
PARAMETRIC_REPRESENTATION_CONTEXT() REPRESENTATION_CONTEXT('2D SPACE',''
  ) );
#983 = ORIENTED_EDGE('',*,*,#984,.T.);
#984 = EDGE_CURVE('',#965,#486,#985,.T.);
#985 = SURFACE_CURVE('',#986,(#989,#995),.PCURVE_S1.);
#986 = B_SPLINE_CURVE_WITH_KNOTS('',1,(#987,#988),.UNSPECIFIED.,.F.,.F.,
  (2,2),(0.,1.),.PIECEWISE_BEZIER_KNOTS.);
#987 = CARTESIAN_POINT('',(80.,0.,0.));
#988 = CARTESIAN_POINT('',(80.,0.,30.));
#989 = PCURVE('',#499,#990);
#990 = DEFINITIONAL_REPRESENTATION('',(#991),#994);
#991 = B_SPLINE_CURVE_WITH_KNOTS('',1,(#992,#993),.UNSPECIFIED.,.F.,.F.,
  (2,2),(0.,1.),.PIECEWISE_BEZIER_KNOTS.);
#992 = CARTESIAN_POINT('',(1.,0.));
#993 = CARTESIAN_POINT('',(1.,1.));
#994 = ( GEOMETRIC_REPRESENTATION_CONTEXT(2) 
PARAMETRIC_REPRESENTATION_CONTEXT() REPRESENTATION_CONTEXT('2D SPACE',''
  ) );
#995 = PCURVE('',#522,#996);
#996 = DEFINITIONAL_REPRESENTATION('',(#997),#1000);
#997 = B_SPLINE_CURVE_WITH_KNOTS('',1,(#998,#999),.UNSPECIFIED.,.F.,.F.,
  (2,2),(0.,1.),.PIECEWISE_BEZIER_KNOTS.);
#998 = CARTESIAN_POINT('',(0.,0.));
#999 = CARTESIAN_POINT('',(0.,1.));
#1000 = ( GEOMETRIC_REPRESENTATION_CONTEXT(2) 
PARAMETRIC_REPRESENTATION_CONTEXT() REPRESENTATION_CONTEXT('2D SPACE',''
  ) );
#1001 = ORIENTED_EDGE('',*,*,#485,.F.);
#1002 = ADVANCED_FACE('',(#1003),#522,.T.);
#1003 = FACE_BOUND('',#1004,.T.);
#1004 = EDGE_LOOP('',(#1005,#1006,#1024,#1025));
#1005 = ORIENTED_EDGE('',*,*,#984,.F.);
#1006 = ORIENTED_EDGE('',*,*,#1007,.T.);
#1007 = EDGE_CURVE('',#965,#856,#1008,.T.);
#1008 = SURFACE_CURVE('',#1009,(#1012,#1018),.PCURVE_S1.);
#1009 = B_SPLINE_CURVE_WITH_KNOTS('',1,(#1010,#1011),.UNSPECIFIED.,.F.,
  .F.,(2,2),(0.,1.),.PIECEWISE_BEZIER_KNOTS.);
#1010 = CARTESIAN_POINT('',(80.,0.,0.));
#1011 = CARTESIAN_POINT('',(80.,80.,0.));
#1012 = PCURVE('',#522,#1013);
#1013 = DEFINITIONAL_REPRESENTATION('',(#1014),#1017);
#1014 = B_SPLINE_CURVE_WITH_KNOTS('',1,(#1015,#1016),.UNSPECIFIED.,.F.,
  .F.,(2,2),(0.,1.),.PIECEWISE_BEZIER_KNOTS.);
#1015 = CARTESIAN_POINT('',(0.,0.));
#1016 = CARTESIAN_POINT('',(1.,0.));
#1017 = ( GEOMETRIC_REPRESENTATION_CONTEXT(2) 
PARAMETRIC_REPRESENTATION_CONTEXT() REPRESENTATION_CONTEXT('2D SPACE',''
  ) );
#1018 = PCURVE('',#869,#1019);
#1019 = DEFINITIONAL_REPRESENTATION('',(#1020),#1023);
#1020 = B_SPLINE_CURVE_WITH_KNOTS('',1,(#1021,#1022),.UNSPECIFIED.,.F.,
  .F.,(2,2),(0.,1.),.PIECEWISE_BEZIER_KNOTS.);
#1021 = CARTESIAN_POINT('',(0.,1.));
#1022 = CARTESIAN_POINT('',(1.,1.));
#1023 = ( GEOMETRIC_REPRESENTATION_CONTEXT(2) 
PARAMETRIC_REPRESENTATION_CONTEXT() REPRESENTATION_CONTEXT('2D SPACE',''
  ) );
#1024 = ORIENTED_EDGE('',*,*,#899,.T.);
#1025 = ORIENTED_EDGE('',*,*,#510,.F.);
#1026 = ADVANCED_FACE('',(#1027),#869,.T.);
#1027 = FACE_BOUND('',#1028,.T.);
#1028 = EDGE_LOOP('',(#1029,#1030,#1031,#1032));
#1029 = ORIENTED_EDGE('',*,*,#964,.F.);
#1030 = ORIENTED_EDGE('',*,*,#920,.T.);
#1031 = ORIENTED_EDGE('',*,*,#853,.T.);
#1032 = ORIENTED_EDGE('',*,*,#1007,.F.);
#1033 = ( GEOMETRIC_REPRESENTATION_CONTEXT(3) 
GLOBAL_UNCERTAINTY_ASSIGNED_CONTEXT((#1037)) 
GLOBAL_UNIT_ASSIGNED_CONTEXT((#1034,#1035,#1036)) REPRESENTATION_CONTEXT
('Context #1','3D Context with UNIT and UNCERTAINTY') );
#1034 = ( LENGTH_UNIT() NAMED_UNIT(*) SI_UNIT(.MILLI.,.METRE.) );
#1035 = ( NAMED_UNIT(*) PLANE_ANGLE_UNIT() SI_UNIT($,.RADIAN.) );
#1036 = ( NAMED_UNIT(*) SI_UNIT($,.STERADIAN.) SOLID_ANGLE_UNIT() );
#1037 = UNCERTAINTY_MEASURE_WITH_UNIT(LENGTH_MEASURE(1.E-03),#1034,
  'distance_accuracy_value','confusion accuracy');
#1038 = PRODUCT_RELATED_PRODUCT_CATEGORY('part',$,(#7));
ENDSEC;
END-ISO-10303-21;
