ISO-10303-21;
HEADER;
FILE_DESCRIPTION(('Open CASCADE Model'),'2;1');
FILE_NAME('Open CASCADE Shape Model','2026-07-11T20:15:56',('Author'),(
    'Open CASCADE'),'Open CASCADE STEP processor 8.0','Open CASCADE 8.0'
  ,'Unknown');
FILE_SCHEMA(('AUTOMOTIVE_DESIGN { 1 0 10303 214 1 1 1 1 }'));
ENDSEC;
DATA;
#1 = APPLICATION_PROTOCOL_DEFINITION('international standard',
  'automotive_design',2000,#2);
#2 = APPLICATION_CONTEXT(
  'core data for automotive mechanical design processes');
#3 = SHAPE_DEFINITION_REPRESENTATION(#4,#10);
#4 = PRODUCT_DEFINITION_SHAPE('','',#5);
#5 = PRODUCT_DEFINITION('design','',#6,#9);
#6 = PRODUCT_DEFINITION_FORMATION('','',#7);
#7 = PRODUCT('Open CASCADE STEP translator 8.0 1',
  'Open CASCADE STEP translator 8.0 1','',(#8));
#8 = PRODUCT_CONTEXT('',#2,'mechanical');
#9 = PRODUCT_DEFINITION_CONTEXT('part definition',#2,'design');
#10 = MANIFOLD_SURFACE_SHAPE_REPRESENTATION('',(#11,#15),#748);
#11 = AXIS2_PLACEMENT_3D('',#12,#13,#14);
#12 = CARTESIAN_POINT('',(0.,0.,0.));
#13 = DIRECTION('',(0.,0.,1.));
#14 = DIRECTION('',(1.,0.,-0.));
#15 = SHELL_BASED_SURFACE_MODEL('',(#16));
#16 = OPEN_SHELL('',(#17,#391,#471,#514,#563,#631,#692,#700));
#17 = ADVANCED_FACE('',(#18),#31,.T.);
#18 = FACE_BOUND('',#19,.T.);
#19 = EDGE_LOOP('',(#20,#52,#66,#80,#94,#114,#145,#201,#238,#269,#325,
    #362));
#20 = ORIENTED_EDGE('',*,*,#21,.F.);
#21 = EDGE_CURVE('',#22,#24,#26,.T.);
#22 = VERTEX_POINT('',#23);
#23 = CARTESIAN_POINT('',(0.,0.,0.));
#24 = VERTEX_POINT('',#25);
#25 = CARTESIAN_POINT('',(1.184237892934E-15,19.886517559455,0.));
#26 = SURFACE_CURVE('',#27,(#30,#41),.PCURVE_S1.);
#27 = B_SPLINE_CURVE_WITH_KNOTS('',1,(#28,#29),.UNSPECIFIED.,.F.,.F.,(2,
    2),(0.,1.),.PIECEWISE_BEZIER_KNOTS.);
#28 = CARTESIAN_POINT('',(0.,0.,0.));
#29 = CARTESIAN_POINT('',(0.,19.886517559455,0.));
#30 = PCURVE('',#31,#36);
#31 = B_SPLINE_SURFACE_WITH_KNOTS('',1,1,(
    (#32,#33)
    ,(#34,#35)),.UNSPECIFIED.,.F.,.F.,.F.,(2,2),(2,2),(0.,1.),(0.,1.),
  .PIECEWISE_BEZIER_KNOTS.);
#32 = CARTESIAN_POINT('',(0.,0.,0.));
#33 = CARTESIAN_POINT('',(0.,80.,0.));
#34 = CARTESIAN_POINT('',(120.,0.,0.));
#35 = CARTESIAN_POINT('',(120.,80.,0.));
#36 = DEFINITIONAL_REPRESENTATION('',(#37),#40);
#37 = B_SPLINE_CURVE_WITH_KNOTS('',1,(#38,#39),.UNSPECIFIED.,.F.,.F.,(2,
    2),(0.,1.),.PIECEWISE_BEZIER_KNOTS.);
#38 = CARTESIAN_POINT('',(0.,0.));
#39 = CARTESIAN_POINT('',(0.,0.248581469493));
#40 = ( GEOMETRIC_REPRESENTATION_CONTEXT(2) 
PARAMETRIC_REPRESENTATION_CONTEXT() REPRESENTATION_CONTEXT('2D SPACE',''
  ) );
#41 = PCURVE('',#42,#47);
#42 = B_SPLINE_SURFACE_WITH_KNOTS('',1,1,(
    (#43,#44)
    ,(#45,#46)),.UNSPECIFIED.,.F.,.F.,.F.,(2,2),(2,2),(0.,1.),(0.,1.),
  .PIECEWISE_BEZIER_KNOTS.);
#43 = CARTESIAN_POINT('',(0.,0.,0.));
#44 = CARTESIAN_POINT('',(-35.35533905932,0.,35.355339059327));
#45 = CARTESIAN_POINT('',(0.,80.,0.));
#46 = CARTESIAN_POINT('',(-35.35533905932,80.,35.355339059327));
#47 = DEFINITIONAL_REPRESENTATION('',(#48),#51);
#48 = B_SPLINE_CURVE_WITH_KNOTS('',1,(#49,#50),.UNSPECIFIED.,.F.,.F.,(2,
    2),(0.,1.),.PIECEWISE_BEZIER_KNOTS.);
#49 = CARTESIAN_POINT('',(0.,0.));
#50 = CARTESIAN_POINT('',(0.248581469493,0.));
#51 = ( GEOMETRIC_REPRESENTATION_CONTEXT(2) 
PARAMETRIC_REPRESENTATION_CONTEXT() REPRESENTATION_CONTEXT('2D SPACE',''
  ) );
#52 = ORIENTED_EDGE('',*,*,#53,.T.);
#53 = EDGE_CURVE('',#22,#54,#56,.T.);
#54 = VERTEX_POINT('',#55);
#55 = CARTESIAN_POINT('',(120.,0.,0.));
#56 = SURFACE_CURVE('',#57,(#60),.PCURVE_S1.);
#57 = B_SPLINE_CURVE_WITH_KNOTS('',1,(#58,#59),.UNSPECIFIED.,.F.,.F.,(2,
    2),(0.,1.),.PIECEWISE_BEZIER_KNOTS.);
#58 = CARTESIAN_POINT('',(0.,0.,0.));
#59 = CARTESIAN_POINT('',(120.,0.,0.));
#60 = PCURVE('',#31,#61);
#61 = DEFINITIONAL_REPRESENTATION('',(#62),#65);
#62 = B_SPLINE_CURVE_WITH_KNOTS('',1,(#63,#64),.UNSPECIFIED.,.F.,.F.,(2,
    2),(0.,1.),.PIECEWISE_BEZIER_KNOTS.);
#63 = CARTESIAN_POINT('',(0.,0.));
#64 = CARTESIAN_POINT('',(1.,0.));
#65 = ( GEOMETRIC_REPRESENTATION_CONTEXT(2) 
PARAMETRIC_REPRESENTATION_CONTEXT() REPRESENTATION_CONTEXT('2D SPACE',''
  ) );
#66 = ORIENTED_EDGE('',*,*,#67,.T.);
#67 = EDGE_CURVE('',#54,#68,#70,.T.);
#68 = VERTEX_POINT('',#69);
#69 = CARTESIAN_POINT('',(120.,80.,0.));
#70 = SURFACE_CURVE('',#71,(#74),.PCURVE_S1.);
#71 = B_SPLINE_CURVE_WITH_KNOTS('',1,(#72,#73),.UNSPECIFIED.,.F.,.F.,(2,
    2),(0.,1.),.PIECEWISE_BEZIER_KNOTS.);
#72 = CARTESIAN_POINT('',(120.,0.,0.));
#73 = CARTESIAN_POINT('',(120.,80.,0.));
#74 = PCURVE('',#31,#75);
#75 = DEFINITIONAL_REPRESENTATION('',(#76),#79);
#76 = B_SPLINE_CURVE_WITH_KNOTS('',1,(#77,#78),.UNSPECIFIED.,.F.,.F.,(2,
    2),(0.,1.),.PIECEWISE_BEZIER_KNOTS.);
#77 = CARTESIAN_POINT('',(1.,0.));
#78 = CARTESIAN_POINT('',(1.,1.));
#79 = ( GEOMETRIC_REPRESENTATION_CONTEXT(2) 
PARAMETRIC_REPRESENTATION_CONTEXT() REPRESENTATION_CONTEXT('2D SPACE',''
  ) );
#80 = ORIENTED_EDGE('',*,*,#81,.F.);
#81 = EDGE_CURVE('',#82,#68,#84,.T.);
#82 = VERTEX_POINT('',#83);
#83 = CARTESIAN_POINT('',(0.,80.,0.));
#84 = SURFACE_CURVE('',#85,(#88),.PCURVE_S1.);
#85 = B_SPLINE_CURVE_WITH_KNOTS('',1,(#86,#87),.UNSPECIFIED.,.F.,.F.,(2,
    2),(0.,1.),.PIECEWISE_BEZIER_KNOTS.);
#86 = CARTESIAN_POINT('',(0.,80.,0.));
#87 = CARTESIAN_POINT('',(120.,80.,0.));
#88 = PCURVE('',#31,#89);
#89 = DEFINITIONAL_REPRESENTATION('',(#90),#93);
#90 = B_SPLINE_CURVE_WITH_KNOTS('',1,(#91,#92),.UNSPECIFIED.,.F.,.F.,(2,
    2),(0.,1.),.PIECEWISE_BEZIER_KNOTS.);
#91 = CARTESIAN_POINT('',(0.,1.));
#92 = CARTESIAN_POINT('',(1.,1.));
#93 = ( GEOMETRIC_REPRESENTATION_CONTEXT(2) 
PARAMETRIC_REPRESENTATION_CONTEXT() REPRESENTATION_CONTEXT('2D SPACE',''
  ) );
#94 = ORIENTED_EDGE('',*,*,#95,.F.);
#95 = EDGE_CURVE('',#96,#82,#98,.T.);
#96 = VERTEX_POINT('',#97);
#97 = CARTESIAN_POINT('',(0.,60.113482440546,5.921189464668E-16));
#98 = SURFACE_CURVE('',#99,(#102,#108),.PCURVE_S1.);
#99 = B_SPLINE_CURVE_WITH_KNOTS('',1,(#100,#101),.UNSPECIFIED.,.F.,.F.,(
    2,2),(0.,1.),.PIECEWISE_BEZIER_KNOTS.);
#100 = CARTESIAN_POINT('',(0.,60.113482440545,0.));
#101 = CARTESIAN_POINT('',(0.,80.,0.));
#102 = PCURVE('',#31,#103);
#103 = DEFINITIONAL_REPRESENTATION('',(#104),#107);
#104 = B_SPLINE_CURVE_WITH_KNOTS('',1,(#105,#106),.UNSPECIFIED.,.F.,.F.,
  (2,2),(0.,1.),.PIECEWISE_BEZIER_KNOTS.);
#105 = CARTESIAN_POINT('',(0.,0.751418530507));
#106 = CARTESIAN_POINT('',(0.,1.));
#107 = ( GEOMETRIC_REPRESENTATION_CONTEXT(2) 
PARAMETRIC_REPRESENTATION_CONTEXT() REPRESENTATION_CONTEXT('2D SPACE',''
  ) );
#108 = PCURVE('',#42,#109);
#109 = DEFINITIONAL_REPRESENTATION('',(#110),#113);
#110 = B_SPLINE_CURVE_WITH_KNOTS('',1,(#111,#112),.UNSPECIFIED.,.F.,.F.,
  (2,2),(0.,1.),.PIECEWISE_BEZIER_KNOTS.);
#111 = CARTESIAN_POINT('',(0.751418530507,0.));
#112 = CARTESIAN_POINT('',(1.,0.));
#113 = ( GEOMETRIC_REPRESENTATION_CONTEXT(2) 
PARAMETRIC_REPRESENTATION_CONTEXT() REPRESENTATION_CONTEXT('2D SPACE',''
  ) );
#114 = ORIENTED_EDGE('',*,*,#115,.F.);
#115 = EDGE_CURVE('',#116,#96,#118,.T.);
#116 = VERTEX_POINT('',#117);
#117 = CARTESIAN_POINT('',(63.,60.113482440546,-5.921189464668E-16));
#118 = SURFACE_CURVE('',#119,(#122,#131),.PCURVE_S1.);
#119 = B_SPLINE_CURVE_WITH_KNOTS('',1,(#120,#121),.UNSPECIFIED.,.F.,.F.,
  (2,2),(0.,1.),.PIECEWISE_BEZIER_KNOTS.);
#120 = CARTESIAN_POINT('',(63.,60.113482440545,0.));
#121 = CARTESIAN_POINT('',(-6.394884621841E-14,60.113482440545,0.));
#122 = PCURVE('',#31,#123);
#123 = DEFINITIONAL_REPRESENTATION('',(#124),#130);
#124 = B_SPLINE_CURVE_WITH_KNOTS('',4,(#125,#126,#127,#128,#129),
  .UNSPECIFIED.,.F.,.F.,(5,5),(0.,1.),.PIECEWISE_BEZIER_KNOTS.);
#125 = CARTESIAN_POINT('',(0.525,0.751418530507));
#126 = CARTESIAN_POINT('',(0.39375,0.751418530507));
#127 = CARTESIAN_POINT('',(0.2625,0.751418530507));
#128 = CARTESIAN_POINT('',(0.13125,0.751418530507));
#129 = CARTESIAN_POINT('',(0.,0.751418530507));
#130 = ( GEOMETRIC_REPRESENTATION_CONTEXT(2) 
PARAMETRIC_REPRESENTATION_CONTEXT() REPRESENTATION_CONTEXT('2D SPACE',''
  ) );
#131 = PCURVE('',#132,#137);
#132 = B_SPLINE_SURFACE_WITH_KNOTS('',1,1,(
    (#133,#134)
    ,(#135,#136)),.UNSPECIFIED.,.F.,.F.,.F.,(2,2),(2,2),(0.,1.),(0.,1.),
  .PIECEWISE_BEZIER_KNOTS.);
#133 = CARTESIAN_POINT('',(-32.,55.,29.));
#134 = CARTESIAN_POINT('',(-32.,60.289809421254,-1.));
#135 = CARTESIAN_POINT('',(63.,55.,29.));
#136 = CARTESIAN_POINT('',(63.,60.289809421254,-1.));
#137 = DEFINITIONAL_REPRESENTATION('',(#138),#144);
#138 = B_SPLINE_CURVE_WITH_KNOTS('',4,(#139,#140,#141,#142,#143),
  .UNSPECIFIED.,.F.,.F.,(5,5),(0.,1.),.PIECEWISE_BEZIER_KNOTS.);
#139 = CARTESIAN_POINT('',(1.,0.966666666667));
#140 = CARTESIAN_POINT('',(0.834210526316,0.966666666667));
#141 = CARTESIAN_POINT('',(0.668421052632,0.966666666667));
#142 = CARTESIAN_POINT('',(0.502631578947,0.966666666667));
#143 = CARTESIAN_POINT('',(0.336842105263,0.966666666667));
#144 = ( GEOMETRIC_REPRESENTATION_CONTEXT(2) 
PARAMETRIC_REPRESENTATION_CONTEXT() REPRESENTATION_CONTEXT('2D SPACE',''
  ) );
#145 = ORIENTED_EDGE('',*,*,#146,.F.);
#146 = EDGE_CURVE('',#147,#116,#149,.T.);
#147 = VERTEX_POINT('',#148);
#148 = CARTESIAN_POINT('',(73.75430279663,55.618352700087,
    -1.7763568394E-15));
#149 = SURFACE_CURVE('',#150,(#158,#170),.PCURVE_S1.);
#150 = B_SPLINE_CURVE_WITH_KNOTS('',6,(#151,#152,#153,#154,#155,#156,
    #157),.UNSPECIFIED.,.F.,.F.,(7,7),(0.,1.),.PIECEWISE_BEZIER_KNOTS.);
#151 = CARTESIAN_POINT('',(73.75430279663,55.618352700087,
    -1.7763568394E-15));
#152 = CARTESIAN_POINT('',(72.35346384177,57.037105351604,
    -1.7763568394E-15));
#153 = CARTESIAN_POINT('',(70.726905030037,58.235756368102,
    -1.7763568394E-15));
#154 = CARTESIAN_POINT('',(68.92055804546,59.166274800505,
    -1.7763568394E-15));
#155 = CARTESIAN_POINT('',(66.989770636715,59.798667374601,
    -1.7763568394E-15));
#156 = CARTESIAN_POINT('',(64.994017471103,60.113482440545,
    -1.7763568394E-15));
#157 = CARTESIAN_POINT('',(63.,60.113482440545,-1.7763568394E-15));
#158 = PCURVE('',#31,#159);
#159 = DEFINITIONAL_REPRESENTATION('',(#160),#169);
#160 = B_SPLINE_CURVE_WITH_KNOTS('',7,(#161,#162,#163,#164,#165,#166,
    #167,#168),.UNSPECIFIED.,.F.,.F.,(8,8),(0.,1.),
  .PIECEWISE_BEZIER_KNOTS.);
#161 = CARTESIAN_POINT('',(0.614619189972,0.695229408751));
#162 = CARTESIAN_POINT('',(0.604613197437,0.710430330017));
#163 = CARTESIAN_POINT('',(0.593263619883,0.723666035515));
#164 = CARTESIAN_POINT('',(0.58078894023,0.734593574491));
#165 = CARTESIAN_POINT('',(0.567442613038,0.742966231395));
#166 = CARTESIAN_POINT('',(0.55349628992,0.748607655946));
#167 = CARTESIAN_POINT('',(0.539242981936,0.751418530507));
#168 = CARTESIAN_POINT('',(0.525,0.751418530507));
#169 = ( GEOMETRIC_REPRESENTATION_CONTEXT(2) 
PARAMETRIC_REPRESENTATION_CONTEXT() REPRESENTATION_CONTEXT('2D SPACE',''
  ) );
#170 = PCURVE('',#171,#190);
#171 = B_SPLINE_SURFACE_WITH_KNOTS('',8,1,(
    (#172,#173)
    ,(#174,#175)
    ,(#176,#177)
    ,(#178,#179)
    ,(#180,#181)
    ,(#182,#183)
    ,(#184,#185)
    ,(#186,#187)
    ,(#188,#189)),.UNSPECIFIED.,.F.,.F.,.F.,(9,9),(2,2),(0.,1.),(0.,1.),
  .PIECEWISE_BEZIER_KNOTS.);
#172 = CARTESIAN_POINT('',(63.,55.,29.));
#173 = CARTESIAN_POINT('',(63.,60.289809421254,-1.));
#174 = CARTESIAN_POINT('',(64.963495408494,55.,29.));
#175 = CARTESIAN_POINT('',(66.002147059537,60.289809421254,-1.));
#176 = CARTESIAN_POINT('',(66.926990816987,54.559392660666,29.));
#177 = CARTESIAN_POINT('',(69.005896140943,59.61806652092,-1.));
#178 = CARTESIAN_POINT('',(68.775135493783,53.678177981997,29.));
#179 = CARTESIAN_POINT('',(71.830026964011,58.268185576199,-1.));
#180 = CARTESIAN_POINT('',(70.392586586153,52.392586586153,29.));
#181 = CARTESIAN_POINT('',(74.301068430638,56.301068430638,-1.));
#182 = CARTESIAN_POINT('',(71.678177981997,50.775135493783,29.));
#183 = CARTESIAN_POINT('',(76.268185576199,53.830026964011,-1.));
#184 = CARTESIAN_POINT('',(72.559392660666,48.926990816987,29.));
#185 = CARTESIAN_POINT('',(77.61806652092,51.005896140943,-1.));
#186 = CARTESIAN_POINT('',(73.,46.963495408494,29.));
#187 = CARTESIAN_POINT('',(78.289809421254,48.002147059537,-1.));
#188 = CARTESIAN_POINT('',(73.,45.,29.));
#189 = CARTESIAN_POINT('',(78.289809421254,45.,-1.));
#190 = DEFINITIONAL_REPRESENTATION('',(#191),#200);
#191 = B_SPLINE_CURVE_WITH_KNOTS('',7,(#192,#193,#194,#195,#196,#197,
    #198,#199),.UNSPECIFIED.,.F.,.F.,(8,8),(0.,1.),
  .PIECEWISE_BEZIER_KNOTS.);
#192 = CARTESIAN_POINT('',(0.504049371594,0.966666666667));
#193 = CARTESIAN_POINT('',(0.43206248607,0.966666666667));
#194 = CARTESIAN_POINT('',(0.360016434956,0.966666666667));
#195 = CARTESIAN_POINT('',(0.28800702742,0.966666666667));
#196 = CARTESIAN_POINT('',(0.216013243028,0.966666666667));
#197 = CARTESIAN_POINT('',(0.144018639182,0.966666666667));
#198 = CARTESIAN_POINT('',(7.199423921434E-02,0.966666666667));
#199 = CARTESIAN_POINT('',(-5.551115123126E-17,0.966666666667));
#200 = ( GEOMETRIC_REPRESENTATION_CONTEXT(2) 
PARAMETRIC_REPRESENTATION_CONTEXT() REPRESENTATION_CONTEXT('2D SPACE',''
  ) );
#201 = ORIENTED_EDGE('',*,*,#202,.F.);
#202 = EDGE_CURVE('',#203,#147,#205,.T.);
#203 = VERTEX_POINT('',#204);
#204 = CARTESIAN_POINT('',(78.113482440545,45.,-1.184237892934E-15));
#205 = SURFACE_CURVE('',#206,(#214,#226),.PCURVE_S1.);
#206 = B_SPLINE_CURVE_WITH_KNOTS('',6,(#207,#208,#209,#210,#211,#212,
    #213),.UNSPECIFIED.,.F.,.F.,(7,7),(0.,1.),.PIECEWISE_BEZIER_KNOTS.);
#207 = CARTESIAN_POINT('',(78.113482440545,45.,-1.7763568394E-15));
#208 = CARTESIAN_POINT('',(78.113482440545,46.961998016201,
    -1.7763568394E-15));
#209 = CARTESIAN_POINT('',(77.808696855454,48.925621866067,
    -1.7763568394E-15));
#210 = CARTESIAN_POINT('',(77.196522851072,50.82742692373,
    -1.7763568394E-15));
#211 = CARTESIAN_POINT('',(76.295102918896,52.610643275722,
    -1.7763568394E-15));
#212 = CARTESIAN_POINT('',(75.132655745968,54.222373601409,
    -1.7763568394E-15));
#213 = CARTESIAN_POINT('',(73.75430279663,55.618352700087,
    -1.7763568394E-15));
#214 = PCURVE('',#31,#215);
#215 = DEFINITIONAL_REPRESENTATION('',(#216),#225);
#216 = B_SPLINE_CURVE_WITH_KNOTS('',7,(#217,#218,#219,#220,#221,#222,
    #223,#224),.UNSPECIFIED.,.F.,.F.,(8,8),(0.,1.),
  .PIECEWISE_BEZIER_KNOTS.);
#217 = CARTESIAN_POINT('',(0.650945687005,0.5625));
#218 = CARTESIAN_POINT('',(0.650945687005,0.583521407316));
#219 = CARTESIAN_POINT('',(0.649131471698,0.604557323725));
#220 = CARTESIAN_POINT('',(0.645490682568,0.625154991916));
#221 = CARTESIAN_POINT('',(0.640085033468,0.644895405387));
#222 = CARTESIAN_POINT('',(0.633024779583,0.663389201906));
#223 = CARTESIAN_POINT('',(0.624464568181,0.680272489837));
#224 = CARTESIAN_POINT('',(0.614619189972,0.695229408751));
#225 = ( GEOMETRIC_REPRESENTATION_CONTEXT(2) 
PARAMETRIC_REPRESENTATION_CONTEXT() REPRESENTATION_CONTEXT('2D SPACE',''
  ) );
#226 = PCURVE('',#171,#227);
#227 = DEFINITIONAL_REPRESENTATION('',(#228),#237);
#228 = B_SPLINE_CURVE_WITH_KNOTS('',7,(#229,#230,#231,#232,#233,#234,
    #235,#236),.UNSPECIFIED.,.F.,.F.,(8,8),(0.,1.),
  .PIECEWISE_BEZIER_KNOTS.);
#229 = CARTESIAN_POINT('',(1.,0.966666666667));
#230 = CARTESIAN_POINT('',(0.929161827033,0.966666666667));
#231 = CARTESIAN_POINT('',(0.858296098138,0.966666666667));
#232 = CARTESIAN_POINT('',(0.787457727288,0.966666666667));
#233 = CARTESIAN_POINT('',(0.716620014174,0.966666666667));
#234 = CARTESIAN_POINT('',(0.645767263754,0.966666666667));
#235 = CARTESIAN_POINT('',(0.574880737063,0.966666666667));
#236 = CARTESIAN_POINT('',(0.504049371594,0.966666666667));
#237 = ( GEOMETRIC_REPRESENTATION_CONTEXT(2) 
PARAMETRIC_REPRESENTATION_CONTEXT() REPRESENTATION_CONTEXT('2D SPACE',''
  ) );
#238 = ORIENTED_EDGE('',*,*,#239,.F.);
#239 = EDGE_CURVE('',#240,#203,#242,.T.);
#240 = VERTEX_POINT('',#241);
#241 = CARTESIAN_POINT('',(78.113482440545,35.,-1.184237892934E-15));
#242 = SURFACE_CURVE('',#243,(#246,#255),.PCURVE_S1.);
#243 = B_SPLINE_CURVE_WITH_KNOTS('',1,(#244,#245),.UNSPECIFIED.,.F.,.F.,
  (2,2),(0.,1.),.PIECEWISE_BEZIER_KNOTS.);
#244 = CARTESIAN_POINT('',(78.113482440545,35.,-1.7763568394E-15));
#245 = CARTESIAN_POINT('',(78.113482440545,45.,-1.7763568394E-15));
#246 = PCURVE('',#31,#247);
#247 = DEFINITIONAL_REPRESENTATION('',(#248),#254);
#248 = B_SPLINE_CURVE_WITH_KNOTS('',4,(#249,#250,#251,#252,#253),
  .UNSPECIFIED.,.F.,.F.,(5,5),(0.,1.),.PIECEWISE_BEZIER_KNOTS.);
#249 = CARTESIAN_POINT('',(0.650945687005,0.4375));
#250 = CARTESIAN_POINT('',(0.650945687005,0.46875));
#251 = CARTESIAN_POINT('',(0.650945687005,0.5));
#252 = CARTESIAN_POINT('',(0.650945687005,0.53125));
#253 = CARTESIAN_POINT('',(0.650945687005,0.5625));
#254 = ( GEOMETRIC_REPRESENTATION_CONTEXT(2) 
PARAMETRIC_REPRESENTATION_CONTEXT() REPRESENTATION_CONTEXT('2D SPACE',''
  ) );
#255 = PCURVE('',#256,#261);
#256 = B_SPLINE_SURFACE_WITH_KNOTS('',1,1,(
    (#257,#258)
    ,(#259,#260)),.UNSPECIFIED.,.F.,.F.,.F.,(2,2),(2,2),(0.,1.),(0.,1.),
  .PIECEWISE_BEZIER_KNOTS.);
#257 = CARTESIAN_POINT('',(73.,45.,29.));
#258 = CARTESIAN_POINT('',(78.289809421254,45.,-1.));
#259 = CARTESIAN_POINT('',(73.,35.,29.));
#260 = CARTESIAN_POINT('',(78.289809421254,35.,-1.));
#261 = DEFINITIONAL_REPRESENTATION('',(#262),#268);
#262 = B_SPLINE_CURVE_WITH_KNOTS('',4,(#263,#264,#265,#266,#267),
  .UNSPECIFIED.,.F.,.F.,(5,5),(0.,1.),.PIECEWISE_BEZIER_KNOTS.);
#263 = CARTESIAN_POINT('',(1.,0.966666666667));
#264 = CARTESIAN_POINT('',(0.75,0.966666666667));
#265 = CARTESIAN_POINT('',(0.5,0.966666666667));
#266 = CARTESIAN_POINT('',(0.25,0.966666666667));
#267 = CARTESIAN_POINT('',(-2.775557561563E-17,0.966666666667));
#268 = ( GEOMETRIC_REPRESENTATION_CONTEXT(2) 
PARAMETRIC_REPRESENTATION_CONTEXT() REPRESENTATION_CONTEXT('2D SPACE',''
  ) );
#269 = ORIENTED_EDGE('',*,*,#270,.F.);
#270 = EDGE_CURVE('',#271,#240,#273,.T.);
#271 = VERTEX_POINT('',#272);
#272 = CARTESIAN_POINT('',(73.618352700087,24.245697203369,
    -1.7763568394E-15));
#273 = SURFACE_CURVE('',#274,(#282,#294),.PCURVE_S1.);
#274 = B_SPLINE_CURVE_WITH_KNOTS('',6,(#275,#276,#277,#278,#279,#280,
    #281),.UNSPECIFIED.,.F.,.F.,(7,7),(0.,1.),.PIECEWISE_BEZIER_KNOTS.);
#275 = CARTESIAN_POINT('',(73.618352700087,24.24569720337,
    -1.7763568394E-15));
#276 = CARTESIAN_POINT('',(75.037105351603,25.646536158229,
    -1.7763568394E-15));
#277 = CARTESIAN_POINT('',(76.235756368105,27.273094969966,
    -1.7763568394E-15));
#278 = CARTESIAN_POINT('',(77.166274800503,29.07944195454,
    -1.7763568394E-15));
#279 = CARTESIAN_POINT('',(77.798667374601,31.010229363282,
    -1.7763568394E-15));
#280 = CARTESIAN_POINT('',(78.113482440546,33.005982528897,
    -1.7763568394E-15));
#281 = CARTESIAN_POINT('',(78.113482440546,35.,-1.7763568394E-15));
#282 = PCURVE('',#31,#283);
#283 = DEFINITIONAL_REPRESENTATION('',(#284),#293);
#284 = B_SPLINE_CURVE_WITH_KNOTS('',7,(#285,#286,#287,#288,#289,#290,
    #291,#292),.UNSPECIFIED.,.F.,.F.,(8,8),(0.,1.),
  .PIECEWISE_BEZIER_KNOTS.);
#285 = CARTESIAN_POINT('',(0.613486272501,0.303071215042));
#286 = CARTESIAN_POINT('',(0.623620220012,0.318080203844));
#287 = CARTESIAN_POINT('',(0.632444023676,0.335104570176));
#288 = CARTESIAN_POINT('',(0.639729049661,0.353816589655));
#289 = CARTESIAN_POINT('',(0.64531082093,0.373836080443));
#290 = CARTESIAN_POINT('',(0.649071770631,0.394755565119));
#291 = CARTESIAN_POINT('',(0.650945687005,0.416135527095));
#292 = CARTESIAN_POINT('',(0.650945687005,0.4375));
#293 = ( GEOMETRIC_REPRESENTATION_CONTEXT(2) 
PARAMETRIC_REPRESENTATION_CONTEXT() REPRESENTATION_CONTEXT('2D SPACE',''
  ) );
#294 = PCURVE('',#295,#314);
#295 = B_SPLINE_SURFACE_WITH_KNOTS('',8,1,(
    (#296,#297)
    ,(#298,#299)
    ,(#300,#301)
    ,(#302,#303)
    ,(#304,#305)
    ,(#306,#307)
    ,(#308,#309)
    ,(#310,#311)
    ,(#312,#313)),.UNSPECIFIED.,.F.,.F.,.F.,(9,9),(2,2),(0.,1.),(0.,1.),
  .PIECEWISE_BEZIER_KNOTS.);
#296 = CARTESIAN_POINT('',(73.,35.,29.));
#297 = CARTESIAN_POINT('',(78.289809421254,35.,-1.));
#298 = CARTESIAN_POINT('',(73.,33.036504591506,29.));
#299 = CARTESIAN_POINT('',(78.289809421254,31.997852940463,-1.));
#300 = CARTESIAN_POINT('',(72.559392660666,31.073009183013,29.));
#301 = CARTESIAN_POINT('',(77.61806652092,28.994103859057,-1.));
#302 = CARTESIAN_POINT('',(71.678177981997,29.224864506217,29.));
#303 = CARTESIAN_POINT('',(76.268185576199,26.169973035989,-1.));
#304 = CARTESIAN_POINT('',(70.392586586153,27.607413413847,29.));
#305 = CARTESIAN_POINT('',(74.301068430638,23.698931569362,-1.));
#306 = CARTESIAN_POINT('',(68.775135493783,26.321822018003,29.));
#307 = CARTESIAN_POINT('',(71.830026964011,21.731814423801,-1.));
#308 = CARTESIAN_POINT('',(66.926990816987,25.440607339334,29.));
#309 = CARTESIAN_POINT('',(69.005896140943,20.38193347908,-1.));
#310 = CARTESIAN_POINT('',(64.963495408494,25.,29.));
#311 = CARTESIAN_POINT('',(66.002147059537,19.710190578746,-1.));
#312 = CARTESIAN_POINT('',(63.,25.,29.));
#313 = CARTESIAN_POINT('',(63.,19.710190578746,-1.));
#314 = DEFINITIONAL_REPRESENTATION('',(#315),#324);
#315 = B_SPLINE_CURVE_WITH_KNOTS('',7,(#316,#317,#318,#319,#320,#321,
    #322,#323),.UNSPECIFIED.,.F.,.F.,(8,8),(0.,1.),
  .PIECEWISE_BEZIER_KNOTS.);
#316 = CARTESIAN_POINT('',(0.504049371594,0.966666666667));
#317 = CARTESIAN_POINT('',(0.43206248607,0.966666666667));
#318 = CARTESIAN_POINT('',(0.360016434956,0.966666666667));
#319 = CARTESIAN_POINT('',(0.28800702742,0.966666666667));
#320 = CARTESIAN_POINT('',(0.216013243028,0.966666666667));
#321 = CARTESIAN_POINT('',(0.144018639183,0.966666666667));
#322 = CARTESIAN_POINT('',(7.199423921432E-02,0.966666666667));
#323 = CARTESIAN_POINT('',(-5.551115123126E-17,0.966666666667));
#324 = ( GEOMETRIC_REPRESENTATION_CONTEXT(2) 
PARAMETRIC_REPRESENTATION_CONTEXT() REPRESENTATION_CONTEXT('2D SPACE',''
  ) );
#325 = ORIENTED_EDGE('',*,*,#326,.F.);
#326 = EDGE_CURVE('',#327,#271,#329,.T.);
#327 = VERTEX_POINT('',#328);
#328 = CARTESIAN_POINT('',(63.,19.886517559455,-1.184237892934E-15));
#329 = SURFACE_CURVE('',#330,(#338,#350),.PCURVE_S1.);
#330 = B_SPLINE_CURVE_WITH_KNOTS('',6,(#331,#332,#333,#334,#335,#336,
    #337),.UNSPECIFIED.,.F.,.F.,(7,7),(0.,1.),.PIECEWISE_BEZIER_KNOTS.);
#331 = CARTESIAN_POINT('',(63.,19.886517559455,-1.7763568394E-15));
#332 = CARTESIAN_POINT('',(64.961998016201,19.886517559455,
    -1.7763568394E-15));
#333 = CARTESIAN_POINT('',(66.925621866067,20.191303144546,
    -1.7763568394E-15));
#334 = CARTESIAN_POINT('',(68.827426923731,20.803477148928,
    -1.7763568394E-15));
#335 = CARTESIAN_POINT('',(70.610643275722,21.704897081105,
    -1.7763568394E-15));
#336 = CARTESIAN_POINT('',(72.222373601409,22.867344254032,
    -1.7763568394E-15));
#337 = CARTESIAN_POINT('',(73.618352700087,24.24569720337,
    -1.7763568394E-15));
#338 = PCURVE('',#31,#339);
#339 = DEFINITIONAL_REPRESENTATION('',(#340),#349);
#340 = B_SPLINE_CURVE_WITH_KNOTS('',7,(#341,#342,#343,#344,#345,#346,
    #347,#348),.UNSPECIFIED.,.F.,.F.,(8,8),(0.,1.),
  .PIECEWISE_BEZIER_KNOTS.);
#341 = CARTESIAN_POINT('',(0.525,0.248581469493));
#342 = CARTESIAN_POINT('',(0.539014271544,0.248581469493));
#343 = CARTESIAN_POINT('',(0.553038215817,0.251302792452));
#344 = CARTESIAN_POINT('',(0.566769994611,0.256763976148));
#345 = CARTESIAN_POINT('',(0.579930270258,0.264872449797));
#346 = CARTESIAN_POINT('',(0.592259467937,0.275462830626));
#347 = CARTESIAN_POINT('',(0.603514993224,0.288303147728));
#348 = CARTESIAN_POINT('',(0.613486272501,0.303071215042));
#349 = ( GEOMETRIC_REPRESENTATION_CONTEXT(2) 
PARAMETRIC_REPRESENTATION_CONTEXT() REPRESENTATION_CONTEXT('2D SPACE',''
  ) );
#350 = PCURVE('',#295,#351);
#351 = DEFINITIONAL_REPRESENTATION('',(#352),#361);
#352 = B_SPLINE_CURVE_WITH_KNOTS('',7,(#353,#354,#355,#356,#357,#358,
    #359,#360),.UNSPECIFIED.,.F.,.F.,(8,8),(0.,1.),
  .PIECEWISE_BEZIER_KNOTS.);
#353 = CARTESIAN_POINT('',(1.,0.966666666667));
#354 = CARTESIAN_POINT('',(0.929161827033,0.966666666667));
#355 = CARTESIAN_POINT('',(0.858296098138,0.966666666667));
#356 = CARTESIAN_POINT('',(0.787457727288,0.966666666667));
#357 = CARTESIAN_POINT('',(0.716620014174,0.966666666667));
#358 = CARTESIAN_POINT('',(0.645767263754,0.966666666667));
#359 = CARTESIAN_POINT('',(0.574880737063,0.966666666667));
#360 = CARTESIAN_POINT('',(0.504049371594,0.966666666667));
#361 = ( GEOMETRIC_REPRESENTATION_CONTEXT(2) 
PARAMETRIC_REPRESENTATION_CONTEXT() REPRESENTATION_CONTEXT('2D SPACE',''
  ) );
#362 = ORIENTED_EDGE('',*,*,#363,.F.);
#363 = EDGE_CURVE('',#24,#327,#364,.T.);
#364 = SURFACE_CURVE('',#365,(#368,#377),.PCURVE_S1.);
#365 = B_SPLINE_CURVE_WITH_KNOTS('',1,(#366,#367),.UNSPECIFIED.,.F.,.F.,
  (2,2),(0.,1.),.PIECEWISE_BEZIER_KNOTS.);
#366 = CARTESIAN_POINT('',(-3.552713678801E-15,19.886517559455,
    -1.7763568394E-15));
#367 = CARTESIAN_POINT('',(63.,19.886517559455,-1.7763568394E-15));
#368 = PCURVE('',#31,#369);
#369 = DEFINITIONAL_REPRESENTATION('',(#370),#376);
#370 = B_SPLINE_CURVE_WITH_KNOTS('',4,(#371,#372,#373,#374,#375),
  .UNSPECIFIED.,.F.,.F.,(5,5),(0.,1.),.PIECEWISE_BEZIER_KNOTS.);
#371 = CARTESIAN_POINT('',(0.,0.248581469493));
#372 = CARTESIAN_POINT('',(0.13125,0.248581469493));
#373 = CARTESIAN_POINT('',(0.2625,0.248581469493));
#374 = CARTESIAN_POINT('',(0.39375,0.248581469493));
#375 = CARTESIAN_POINT('',(0.525,0.248581469493));
#376 = ( GEOMETRIC_REPRESENTATION_CONTEXT(2) 
PARAMETRIC_REPRESENTATION_CONTEXT() REPRESENTATION_CONTEXT('2D SPACE',''
  ) );
#377 = PCURVE('',#378,#383);
#378 = B_SPLINE_SURFACE_WITH_KNOTS('',1,1,(
    (#379,#380)
    ,(#381,#382)),.UNSPECIFIED.,.F.,.F.,.F.,(2,2),(2,2),(0.,1.),(0.,1.),
  .PIECEWISE_BEZIER_KNOTS.);
#379 = CARTESIAN_POINT('',(63.,25.,29.));
#380 = CARTESIAN_POINT('',(63.,19.710190578746,-1.));
#381 = CARTESIAN_POINT('',(-32.,25.,29.));
#382 = CARTESIAN_POINT('',(-32.,19.710190578746,-1.));
#383 = DEFINITIONAL_REPRESENTATION('',(#384),#390);
#384 = B_SPLINE_CURVE_WITH_KNOTS('',4,(#385,#386,#387,#388,#389),
  .UNSPECIFIED.,.F.,.F.,(5,5),(0.,1.),.PIECEWISE_BEZIER_KNOTS.);
#385 = CARTESIAN_POINT('',(0.663157894737,0.966666666667));
#386 = CARTESIAN_POINT('',(0.497368421053,0.966666666667));
#387 = CARTESIAN_POINT('',(0.331578947368,0.966666666667));
#388 = CARTESIAN_POINT('',(0.165789473684,0.966666666667));
#389 = CARTESIAN_POINT('',(0.,0.966666666667));
#390 = ( GEOMETRIC_REPRESENTATION_CONTEXT(2) 
PARAMETRIC_REPRESENTATION_CONTEXT() REPRESENTATION_CONTEXT('2D SPACE',''
  ) );
#391 = ADVANCED_FACE('',(#392),#295,.T.);
#392 = FACE_BOUND('',#393,.T.);
#393 = EDGE_LOOP('',(#394,#414,#451,#469,#470));
#394 = ORIENTED_EDGE('',*,*,#395,.F.);
#395 = EDGE_CURVE('',#396,#240,#398,.T.);
#396 = VERTEX_POINT('',#397);
#397 = CARTESIAN_POINT('',(73.,35.,29.));
#398 = SURFACE_CURVE('',#399,(#402,#408),.PCURVE_S1.);
#399 = B_SPLINE_CURVE_WITH_KNOTS('',1,(#400,#401),.UNSPECIFIED.,.F.,.F.,
  (2,2),(0.,1.),.PIECEWISE_BEZIER_KNOTS.);
#400 = CARTESIAN_POINT('',(73.,35.,29.));
#401 = CARTESIAN_POINT('',(78.113482440545,35.,0.));
#402 = PCURVE('',#295,#403);
#403 = DEFINITIONAL_REPRESENTATION('',(#404),#407);
#404 = B_SPLINE_CURVE_WITH_KNOTS('',1,(#405,#406),.UNSPECIFIED.,.F.,.F.,
  (2,2),(0.,1.),.PIECEWISE_BEZIER_KNOTS.);
#405 = CARTESIAN_POINT('',(0.,0.));
#406 = CARTESIAN_POINT('',(0.,0.966666666667));
#407 = ( GEOMETRIC_REPRESENTATION_CONTEXT(2) 
PARAMETRIC_REPRESENTATION_CONTEXT() REPRESENTATION_CONTEXT('2D SPACE',''
  ) );
#408 = PCURVE('',#256,#409);
#409 = DEFINITIONAL_REPRESENTATION('',(#410),#413);
#410 = B_SPLINE_CURVE_WITH_KNOTS('',1,(#411,#412),.UNSPECIFIED.,.F.,.F.,
  (2,2),(0.,1.),.PIECEWISE_BEZIER_KNOTS.);
#411 = CARTESIAN_POINT('',(1.,0.));
#412 = CARTESIAN_POINT('',(1.,0.966666666667));
#413 = ( GEOMETRIC_REPRESENTATION_CONTEXT(2) 
PARAMETRIC_REPRESENTATION_CONTEXT() REPRESENTATION_CONTEXT('2D SPACE',''
  ) );
#414 = ORIENTED_EDGE('',*,*,#415,.T.);
#415 = EDGE_CURVE('',#396,#416,#418,.T.);
#416 = VERTEX_POINT('',#417);
#417 = CARTESIAN_POINT('',(63.,25.,29.));
#418 = SURFACE_CURVE('',#419,(#428,#434),.PCURVE_S1.);
#419 = B_SPLINE_CURVE_WITH_KNOTS('',7,(#420,#421,#422,#423,#424,#425,
    #426,#427),.UNSPECIFIED.,.F.,.F.,(8,8),(0.,1.),
  .PIECEWISE_BEZIER_KNOTS.);
#420 = CARTESIAN_POINT('',(73.,35.,29.));
#421 = CARTESIAN_POINT('',(73.,32.756006718611,29.));
#422 = CARTESIAN_POINT('',(72.412524317859,30.512013437221,29.));
#423 = CARTESIAN_POINT('',(71.237573904505,28.452515659438,29.));
#424 = CARTESIAN_POINT('',(69.547483091571,26.762426266493,29.));
#425 = CARTESIAN_POINT('',(67.487986562779,25.587475682141,29.));
#426 = CARTESIAN_POINT('',(65.243993281389,25.,29.));
#427 = CARTESIAN_POINT('',(63.,25.,29.));
#428 = PCURVE('',#295,#429);
#429 = DEFINITIONAL_REPRESENTATION('',(#430),#433);
#430 = B_SPLINE_CURVE_WITH_KNOTS('',1,(#431,#432),.UNSPECIFIED.,.F.,.F.,
  (2,2),(0.,1.),.PIECEWISE_BEZIER_KNOTS.);
#431 = CARTESIAN_POINT('',(0.,0.));
#432 = CARTESIAN_POINT('',(1.,0.));
#433 = ( GEOMETRIC_REPRESENTATION_CONTEXT(2) 
PARAMETRIC_REPRESENTATION_CONTEXT() REPRESENTATION_CONTEXT('2D SPACE',''
  ) );
#434 = PCURVE('',#435,#440);
#435 = B_SPLINE_SURFACE_WITH_KNOTS('',1,1,(
    (#436,#437)
    ,(#438,#439)),.UNSPECIFIED.,.F.,.F.,.F.,(2,2),(2,2),(0.,1.),(0.,1.),
  .PIECEWISE_BEZIER_KNOTS.);
#436 = CARTESIAN_POINT('',(-32.,25.,29.));
#437 = CARTESIAN_POINT('',(-32.,55.,29.));
#438 = CARTESIAN_POINT('',(73.,25.,29.));
#439 = CARTESIAN_POINT('',(73.,55.,29.));
#440 = DEFINITIONAL_REPRESENTATION('',(#441),#450);
#441 = B_SPLINE_CURVE_WITH_KNOTS('',7,(#442,#443,#444,#445,#446,#447,
    #448,#449),.UNSPECIFIED.,.F.,.F.,(8,8),(0.,1.),
  .PIECEWISE_BEZIER_KNOTS.);
#442 = CARTESIAN_POINT('',(1.,0.333333333333));
#443 = CARTESIAN_POINT('',(1.,0.258533606326));
#444 = CARTESIAN_POINT('',(0.99440500084,0.183733879319));
#445 = CARTESIAN_POINT('',(0.98321462187,0.115083209194));
#446 = CARTESIAN_POINT('',(0.967119059297,5.874883485345E-02));
#447 = CARTESIAN_POINT('',(0.947504605909,1.95824970612E-02));
#448 = CARTESIAN_POINT('',(0.926133255335,1.387778780781E-16));
#449 = CARTESIAN_POINT('',(0.904761904762,1.214306433184E-16));
#450 = ( GEOMETRIC_REPRESENTATION_CONTEXT(2) 
PARAMETRIC_REPRESENTATION_CONTEXT() REPRESENTATION_CONTEXT('2D SPACE',''
  ) );
#451 = ORIENTED_EDGE('',*,*,#452,.T.);
#452 = EDGE_CURVE('',#416,#327,#453,.T.);
#453 = SURFACE_CURVE('',#454,(#457,#463),.PCURVE_S1.);
#454 = B_SPLINE_CURVE_WITH_KNOTS('',1,(#455,#456),.UNSPECIFIED.,.F.,.F.,
  (2,2),(0.,1.),.PIECEWISE_BEZIER_KNOTS.);
#455 = CARTESIAN_POINT('',(63.,25.,29.));
#456 = CARTESIAN_POINT('',(63.,19.886517559455,0.));
#457 = PCURVE('',#295,#458);
#458 = DEFINITIONAL_REPRESENTATION('',(#459),#462);
#459 = B_SPLINE_CURVE_WITH_KNOTS('',1,(#460,#461),.UNSPECIFIED.,.F.,.F.,
  (2,2),(0.,1.),.PIECEWISE_BEZIER_KNOTS.);
#460 = CARTESIAN_POINT('',(1.,0.));
#461 = CARTESIAN_POINT('',(1.,0.966666666667));
#462 = ( GEOMETRIC_REPRESENTATION_CONTEXT(2) 
PARAMETRIC_REPRESENTATION_CONTEXT() REPRESENTATION_CONTEXT('2D SPACE',''
  ) );
#463 = PCURVE('',#378,#464);
#464 = DEFINITIONAL_REPRESENTATION('',(#465),#468);
#465 = B_SPLINE_CURVE_WITH_KNOTS('',1,(#466,#467),.UNSPECIFIED.,.F.,.F.,
  (2,2),(0.,1.),.PIECEWISE_BEZIER_KNOTS.);
#466 = CARTESIAN_POINT('',(0.,0.));
#467 = CARTESIAN_POINT('',(0.,0.966666666667));
#468 = ( GEOMETRIC_REPRESENTATION_CONTEXT(2) 
PARAMETRIC_REPRESENTATION_CONTEXT() REPRESENTATION_CONTEXT('2D SPACE',''
  ) );
#469 = ORIENTED_EDGE('',*,*,#326,.T.);
#470 = ORIENTED_EDGE('',*,*,#270,.T.);
#471 = ADVANCED_FACE('',(#472),#256,.T.);
#472 = FACE_BOUND('',#473,.T.);
#473 = EDGE_LOOP('',(#474,#494,#512,#513));
#474 = ORIENTED_EDGE('',*,*,#475,.F.);
#475 = EDGE_CURVE('',#476,#203,#478,.T.);
#476 = VERTEX_POINT('',#477);
#477 = CARTESIAN_POINT('',(73.,45.,29.));
#478 = SURFACE_CURVE('',#479,(#482,#488),.PCURVE_S1.);
#479 = B_SPLINE_CURVE_WITH_KNOTS('',1,(#480,#481),.UNSPECIFIED.,.F.,.F.,
  (2,2),(0.,1.),.PIECEWISE_BEZIER_KNOTS.);
#480 = CARTESIAN_POINT('',(73.,45.,29.));
#481 = CARTESIAN_POINT('',(78.113482440545,45.,0.));
#482 = PCURVE('',#256,#483);
#483 = DEFINITIONAL_REPRESENTATION('',(#484),#487);
#484 = B_SPLINE_CURVE_WITH_KNOTS('',1,(#485,#486),.UNSPECIFIED.,.F.,.F.,
  (2,2),(0.,1.),.PIECEWISE_BEZIER_KNOTS.);
#485 = CARTESIAN_POINT('',(0.,0.));
#486 = CARTESIAN_POINT('',(0.,0.966666666667));
#487 = ( GEOMETRIC_REPRESENTATION_CONTEXT(2) 
PARAMETRIC_REPRESENTATION_CONTEXT() REPRESENTATION_CONTEXT('2D SPACE',''
  ) );
#488 = PCURVE('',#171,#489);
#489 = DEFINITIONAL_REPRESENTATION('',(#490),#493);
#490 = B_SPLINE_CURVE_WITH_KNOTS('',1,(#491,#492),.UNSPECIFIED.,.F.,.F.,
  (2,2),(0.,1.),.PIECEWISE_BEZIER_KNOTS.);
#491 = CARTESIAN_POINT('',(1.,0.));
#492 = CARTESIAN_POINT('',(1.,0.966666666667));
#493 = ( GEOMETRIC_REPRESENTATION_CONTEXT(2) 
PARAMETRIC_REPRESENTATION_CONTEXT() REPRESENTATION_CONTEXT('2D SPACE',''
  ) );
#494 = ORIENTED_EDGE('',*,*,#495,.F.);
#495 = EDGE_CURVE('',#396,#476,#496,.T.);
#496 = SURFACE_CURVE('',#497,(#500,#506),.PCURVE_S1.);
#497 = B_SPLINE_CURVE_WITH_KNOTS('',1,(#498,#499),.UNSPECIFIED.,.F.,.F.,
  (2,2),(0.,1.),.PIECEWISE_BEZIER_KNOTS.);
#498 = CARTESIAN_POINT('',(73.,35.,29.));
#499 = CARTESIAN_POINT('',(73.,45.,29.));
#500 = PCURVE('',#256,#501);
#501 = DEFINITIONAL_REPRESENTATION('',(#502),#505);
#502 = B_SPLINE_CURVE_WITH_KNOTS('',1,(#503,#504),.UNSPECIFIED.,.F.,.F.,
  (2,2),(0.,1.),.PIECEWISE_BEZIER_KNOTS.);
#503 = CARTESIAN_POINT('',(1.,0.));
#504 = CARTESIAN_POINT('',(0.,0.));
#505 = ( GEOMETRIC_REPRESENTATION_CONTEXT(2) 
PARAMETRIC_REPRESENTATION_CONTEXT() REPRESENTATION_CONTEXT('2D SPACE',''
  ) );
#506 = PCURVE('',#435,#507);
#507 = DEFINITIONAL_REPRESENTATION('',(#508),#511);
#508 = B_SPLINE_CURVE_WITH_KNOTS('',1,(#509,#510),.UNSPECIFIED.,.F.,.F.,
  (2,2),(0.,1.),.PIECEWISE_BEZIER_KNOTS.);
#509 = CARTESIAN_POINT('',(1.,0.333333333333));
#510 = CARTESIAN_POINT('',(1.,0.666666666667));
#511 = ( GEOMETRIC_REPRESENTATION_CONTEXT(2) 
PARAMETRIC_REPRESENTATION_CONTEXT() REPRESENTATION_CONTEXT('2D SPACE',''
  ) );
#512 = ORIENTED_EDGE('',*,*,#395,.T.);
#513 = ORIENTED_EDGE('',*,*,#239,.T.);
#514 = ADVANCED_FACE('',(#515),#378,.T.);
#515 = FACE_BOUND('',#516,.T.);
#516 = EDGE_LOOP('',(#517,#518,#538,#562));
#517 = ORIENTED_EDGE('',*,*,#452,.F.);
#518 = ORIENTED_EDGE('',*,*,#519,.F.);
#519 = EDGE_CURVE('',#520,#416,#522,.T.);
#520 = VERTEX_POINT('',#521);
#521 = CARTESIAN_POINT('',(-29.,25.,29.));
#522 = SURFACE_CURVE('',#523,(#526,#532),.PCURVE_S1.);
#523 = B_SPLINE_CURVE_WITH_KNOTS('',1,(#524,#525),.UNSPECIFIED.,.F.,.F.,
  (2,2),(0.,1.),.PIECEWISE_BEZIER_KNOTS.);
#524 = CARTESIAN_POINT('',(-29.,25.,29.));
#525 = CARTESIAN_POINT('',(63.,25.,29.));
#526 = PCURVE('',#378,#527);
#527 = DEFINITIONAL_REPRESENTATION('',(#528),#531);
#528 = B_SPLINE_CURVE_WITH_KNOTS('',1,(#529,#530),.UNSPECIFIED.,.F.,.F.,
  (2,2),(0.,1.),.PIECEWISE_BEZIER_KNOTS.);
#529 = CARTESIAN_POINT('',(0.968421052632,0.));
#530 = CARTESIAN_POINT('',(0.,0.));
#531 = ( GEOMETRIC_REPRESENTATION_CONTEXT(2) 
PARAMETRIC_REPRESENTATION_CONTEXT() REPRESENTATION_CONTEXT('2D SPACE',''
  ) );
#532 = PCURVE('',#435,#533);
#533 = DEFINITIONAL_REPRESENTATION('',(#534),#537);
#534 = B_SPLINE_CURVE_WITH_KNOTS('',1,(#535,#536),.UNSPECIFIED.,.F.,.F.,
  (2,2),(0.,1.),.PIECEWISE_BEZIER_KNOTS.);
#535 = CARTESIAN_POINT('',(2.857142857143E-02,0.));
#536 = CARTESIAN_POINT('',(0.904761904762,0.));
#537 = ( GEOMETRIC_REPRESENTATION_CONTEXT(2) 
PARAMETRIC_REPRESENTATION_CONTEXT() REPRESENTATION_CONTEXT('2D SPACE',''
  ) );
#538 = ORIENTED_EDGE('',*,*,#539,.T.);
#539 = EDGE_CURVE('',#520,#24,#540,.T.);
#540 = SURFACE_CURVE('',#541,(#544,#553),.PCURVE_S1.);
#541 = B_SPLINE_CURVE_WITH_KNOTS('',1,(#542,#543),.UNSPECIFIED.,.F.,.F.,
  (2,2),(0.,1.),.PIECEWISE_BEZIER_KNOTS.);
#542 = CARTESIAN_POINT('',(-29.,25.,29.));
#543 = CARTESIAN_POINT('',(7.105427357601E-15,19.886517559455,
    -7.105427357601E-15));
#544 = PCURVE('',#378,#545);
#545 = DEFINITIONAL_REPRESENTATION('',(#546),#552);
#546 = B_SPLINE_CURVE_WITH_KNOTS('',4,(#547,#548,#549,#550,#551),
  .UNSPECIFIED.,.F.,.F.,(5,5),(0.,1.),.PIECEWISE_BEZIER_KNOTS.);
#547 = CARTESIAN_POINT('',(0.968421052632,0.));
#548 = CARTESIAN_POINT('',(0.892105263158,0.241666666667));
#549 = CARTESIAN_POINT('',(0.815789473684,0.483333333333));
#550 = CARTESIAN_POINT('',(0.739473684211,0.725));
#551 = CARTESIAN_POINT('',(0.663157894737,0.966666666667));
#552 = ( GEOMETRIC_REPRESENTATION_CONTEXT(2) 
PARAMETRIC_REPRESENTATION_CONTEXT() REPRESENTATION_CONTEXT('2D SPACE',''
  ) );
#553 = PCURVE('',#42,#554);
#554 = DEFINITIONAL_REPRESENTATION('',(#555),#561);
#555 = B_SPLINE_CURVE_WITH_KNOTS('',4,(#556,#557,#558,#559,#560),
  .UNSPECIFIED.,.F.,.F.,(5,5),(0.,1.),.PIECEWISE_BEZIER_KNOTS.);
#556 = CARTESIAN_POINT('',(0.3125,0.820243866176));
#557 = CARTESIAN_POINT('',(0.296520367373,0.615182899632));
#558 = CARTESIAN_POINT('',(0.280540734747,0.410121933088));
#559 = CARTESIAN_POINT('',(0.26456110212,0.205060966544));
#560 = CARTESIAN_POINT('',(0.248581469493,0.));
#561 = ( GEOMETRIC_REPRESENTATION_CONTEXT(2) 
PARAMETRIC_REPRESENTATION_CONTEXT() REPRESENTATION_CONTEXT('2D SPACE',''
  ) );
#562 = ORIENTED_EDGE('',*,*,#363,.T.);
#563 = ADVANCED_FACE('',(#564),#132,.T.);
#564 = FACE_BOUND('',#565,.T.);
#565 = EDGE_LOOP('',(#566,#588,#606,#607));
#566 = ORIENTED_EDGE('',*,*,#567,.T.);
#567 = EDGE_CURVE('',#568,#570,#572,.T.);
#568 = VERTEX_POINT('',#569);
#569 = CARTESIAN_POINT('',(-29.,55.,29.));
#570 = VERTEX_POINT('',#571);
#571 = CARTESIAN_POINT('',(63.,55.,29.));
#572 = SURFACE_CURVE('',#573,(#576,#582),.PCURVE_S1.);
#573 = B_SPLINE_CURVE_WITH_KNOTS('',1,(#574,#575),.UNSPECIFIED.,.F.,.F.,
  (2,2),(0.,1.),.PIECEWISE_BEZIER_KNOTS.);
#574 = CARTESIAN_POINT('',(-29.,55.,29.));
#575 = CARTESIAN_POINT('',(63.,55.,29.));
#576 = PCURVE('',#132,#577);
#577 = DEFINITIONAL_REPRESENTATION('',(#578),#581);
#578 = B_SPLINE_CURVE_WITH_KNOTS('',1,(#579,#580),.UNSPECIFIED.,.F.,.F.,
  (2,2),(0.,1.),.PIECEWISE_BEZIER_KNOTS.);
#579 = CARTESIAN_POINT('',(3.157894736842E-02,0.));
#580 = CARTESIAN_POINT('',(1.,0.));
#581 = ( GEOMETRIC_REPRESENTATION_CONTEXT(2) 
PARAMETRIC_REPRESENTATION_CONTEXT() REPRESENTATION_CONTEXT('2D SPACE',''
  ) );
#582 = PCURVE('',#435,#583);
#583 = DEFINITIONAL_REPRESENTATION('',(#584),#587);
#584 = B_SPLINE_CURVE_WITH_KNOTS('',1,(#585,#586),.UNSPECIFIED.,.F.,.F.,
  (2,2),(0.,1.),.PIECEWISE_BEZIER_KNOTS.);
#585 = CARTESIAN_POINT('',(2.857142857143E-02,1.));
#586 = CARTESIAN_POINT('',(0.904761904762,1.));
#587 = ( GEOMETRIC_REPRESENTATION_CONTEXT(2) 
PARAMETRIC_REPRESENTATION_CONTEXT() REPRESENTATION_CONTEXT('2D SPACE',''
  ) );
#588 = ORIENTED_EDGE('',*,*,#589,.T.);
#589 = EDGE_CURVE('',#570,#116,#590,.T.);
#590 = SURFACE_CURVE('',#591,(#594,#600),.PCURVE_S1.);
#591 = B_SPLINE_CURVE_WITH_KNOTS('',1,(#592,#593),.UNSPECIFIED.,.F.,.F.,
  (2,2),(0.,1.),.PIECEWISE_BEZIER_KNOTS.);
#592 = CARTESIAN_POINT('',(63.,55.,29.));
#593 = CARTESIAN_POINT('',(63.,60.113482440545,0.));
#594 = PCURVE('',#132,#595);
#595 = DEFINITIONAL_REPRESENTATION('',(#596),#599);
#596 = B_SPLINE_CURVE_WITH_KNOTS('',1,(#597,#598),.UNSPECIFIED.,.F.,.F.,
  (2,2),(0.,1.),.PIECEWISE_BEZIER_KNOTS.);
#597 = CARTESIAN_POINT('',(1.,0.));
#598 = CARTESIAN_POINT('',(1.,0.966666666667));
#599 = ( GEOMETRIC_REPRESENTATION_CONTEXT(2) 
PARAMETRIC_REPRESENTATION_CONTEXT() REPRESENTATION_CONTEXT('2D SPACE',''
  ) );
#600 = PCURVE('',#171,#601);
#601 = DEFINITIONAL_REPRESENTATION('',(#602),#605);
#602 = B_SPLINE_CURVE_WITH_KNOTS('',1,(#603,#604),.UNSPECIFIED.,.F.,.F.,
  (2,2),(0.,1.),.PIECEWISE_BEZIER_KNOTS.);
#603 = CARTESIAN_POINT('',(0.,0.));
#604 = CARTESIAN_POINT('',(0.,0.966666666667));
#605 = ( GEOMETRIC_REPRESENTATION_CONTEXT(2) 
PARAMETRIC_REPRESENTATION_CONTEXT() REPRESENTATION_CONTEXT('2D SPACE',''
  ) );
#606 = ORIENTED_EDGE('',*,*,#115,.T.);
#607 = ORIENTED_EDGE('',*,*,#608,.T.);
#608 = EDGE_CURVE('',#96,#568,#609,.T.);
#609 = SURFACE_CURVE('',#610,(#613,#622),.PCURVE_S1.);
#610 = B_SPLINE_CURVE_WITH_KNOTS('',1,(#611,#612),.UNSPECIFIED.,.F.,.F.,
  (2,2),(0.,1.),.PIECEWISE_BEZIER_KNOTS.);
#611 = CARTESIAN_POINT('',(2.13162820728E-14,60.113482440545,
    -1.95399252334E-14));
#612 = CARTESIAN_POINT('',(-29.,55.,29.));
#613 = PCURVE('',#132,#614);
#614 = DEFINITIONAL_REPRESENTATION('',(#615),#621);
#615 = B_SPLINE_CURVE_WITH_KNOTS('',4,(#616,#617,#618,#619,#620),
  .UNSPECIFIED.,.F.,.F.,(5,5),(0.,1.),.PIECEWISE_BEZIER_KNOTS.);
#616 = CARTESIAN_POINT('',(0.336842105263,0.966666666667));
#617 = CARTESIAN_POINT('',(0.260526315789,0.725));
#618 = CARTESIAN_POINT('',(0.184210526316,0.483333333333));
#619 = CARTESIAN_POINT('',(0.107894736842,0.241666666667));
#620 = CARTESIAN_POINT('',(3.157894736842E-02,0.));
#621 = ( GEOMETRIC_REPRESENTATION_CONTEXT(2) 
PARAMETRIC_REPRESENTATION_CONTEXT() REPRESENTATION_CONTEXT('2D SPACE',''
  ) );
#622 = PCURVE('',#42,#623);
#623 = DEFINITIONAL_REPRESENTATION('',(#624),#630);
#624 = B_SPLINE_CURVE_WITH_KNOTS('',4,(#625,#626,#627,#628,#629),
  .UNSPECIFIED.,.F.,.F.,(5,5),(0.,1.),.PIECEWISE_BEZIER_KNOTS.);
#625 = CARTESIAN_POINT('',(0.751418530507,0.));
#626 = CARTESIAN_POINT('',(0.73543889788,0.205060966544));
#627 = CARTESIAN_POINT('',(0.719459265253,0.410121933088));
#628 = CARTESIAN_POINT('',(0.703479632627,0.615182899632));
#629 = CARTESIAN_POINT('',(0.6875,0.820243866176));
#630 = ( GEOMETRIC_REPRESENTATION_CONTEXT(2) 
PARAMETRIC_REPRESENTATION_CONTEXT() REPRESENTATION_CONTEXT('2D SPACE',''
  ) );
#631 = ADVANCED_FACE('',(#632),#435,.T.);
#632 = FACE_BOUND('',#633,.T.);
#633 = EDGE_LOOP('',(#634,#635,#659,#660,#661,#662));
#634 = ORIENTED_EDGE('',*,*,#567,.F.);
#635 = ORIENTED_EDGE('',*,*,#636,.T.);
#636 = EDGE_CURVE('',#568,#520,#637,.T.);
#637 = SURFACE_CURVE('',#638,(#641,#650),.PCURVE_S1.);
#638 = B_SPLINE_CURVE_WITH_KNOTS('',1,(#639,#640),.UNSPECIFIED.,.F.,.F.,
  (2,2),(0.,1.),.PIECEWISE_BEZIER_KNOTS.);
#639 = CARTESIAN_POINT('',(-29.,55.,29.));
#640 = CARTESIAN_POINT('',(-29.,25.,29.));
#641 = PCURVE('',#435,#642);
#642 = DEFINITIONAL_REPRESENTATION('',(#643),#649);
#643 = B_SPLINE_CURVE_WITH_KNOTS('',4,(#644,#645,#646,#647,#648),
  .UNSPECIFIED.,.F.,.F.,(5,5),(0.,1.),.PIECEWISE_BEZIER_KNOTS.);
#644 = CARTESIAN_POINT('',(2.857142857143E-02,1.));
#645 = CARTESIAN_POINT('',(2.857142857143E-02,0.75));
#646 = CARTESIAN_POINT('',(2.857142857143E-02,0.5));
#647 = CARTESIAN_POINT('',(2.857142857143E-02,0.25));
#648 = CARTESIAN_POINT('',(2.857142857143E-02,0.));
#649 = ( GEOMETRIC_REPRESENTATION_CONTEXT(2) 
PARAMETRIC_REPRESENTATION_CONTEXT() REPRESENTATION_CONTEXT('2D SPACE',''
  ) );
#650 = PCURVE('',#42,#651);
#651 = DEFINITIONAL_REPRESENTATION('',(#652),#658);
#652 = B_SPLINE_CURVE_WITH_KNOTS('',4,(#653,#654,#655,#656,#657),
  .UNSPECIFIED.,.F.,.F.,(5,5),(0.,1.),.PIECEWISE_BEZIER_KNOTS.);
#653 = CARTESIAN_POINT('',(0.6875,0.820243866176));
#654 = CARTESIAN_POINT('',(0.59375,0.820243866176));
#655 = CARTESIAN_POINT('',(0.5,0.820243866176));
#656 = CARTESIAN_POINT('',(0.40625,0.820243866176));
#657 = CARTESIAN_POINT('',(0.3125,0.820243866176));
#658 = ( GEOMETRIC_REPRESENTATION_CONTEXT(2) 
PARAMETRIC_REPRESENTATION_CONTEXT() REPRESENTATION_CONTEXT('2D SPACE',''
  ) );
#659 = ORIENTED_EDGE('',*,*,#519,.T.);
#660 = ORIENTED_EDGE('',*,*,#415,.F.);
#661 = ORIENTED_EDGE('',*,*,#495,.T.);
#662 = ORIENTED_EDGE('',*,*,#663,.F.);
#663 = EDGE_CURVE('',#570,#476,#664,.T.);
#664 = SURFACE_CURVE('',#665,(#674,#686),.PCURVE_S1.);
#665 = B_SPLINE_CURVE_WITH_KNOTS('',7,(#666,#667,#668,#669,#670,#671,
    #672,#673),.UNSPECIFIED.,.F.,.F.,(8,8),(0.,1.),
  .PIECEWISE_BEZIER_KNOTS.);
#666 = CARTESIAN_POINT('',(63.,55.,29.));
#667 = CARTESIAN_POINT('',(65.243993281389,55.,29.));
#668 = CARTESIAN_POINT('',(67.487986562779,54.412524317859,29.));
#669 = CARTESIAN_POINT('',(69.547484340562,53.237573904505,29.));
#670 = CARTESIAN_POINT('',(71.237573733508,51.547483091571,29.));
#671 = CARTESIAN_POINT('',(72.412524317859,49.487986562779,29.));
#672 = CARTESIAN_POINT('',(73.,47.243993281389,29.));
#673 = CARTESIAN_POINT('',(73.,45.,29.));
#674 = PCURVE('',#435,#675);
#675 = DEFINITIONAL_REPRESENTATION('',(#676),#685);
#676 = B_SPLINE_CURVE_WITH_KNOTS('',7,(#677,#678,#679,#680,#681,#682,
    #683,#684),.UNSPECIFIED.,.F.,.F.,(8,8),(0.,1.),
  .PIECEWISE_BEZIER_KNOTS.);
#677 = CARTESIAN_POINT('',(0.904761904762,1.));
#678 = CARTESIAN_POINT('',(0.926133255335,1.));
#679 = CARTESIAN_POINT('',(0.947504605909,0.980417502939));
#680 = CARTESIAN_POINT('',(0.967119083088,0.941251176546));
#681 = CARTESIAN_POINT('',(0.983214618613,0.88491670754));
#682 = CARTESIAN_POINT('',(0.99440500084,0.816266120681));
#683 = CARTESIAN_POINT('',(1.,0.741466393674));
#684 = CARTESIAN_POINT('',(1.,0.666666666667));
#685 = ( GEOMETRIC_REPRESENTATION_CONTEXT(2) 
PARAMETRIC_REPRESENTATION_CONTEXT() REPRESENTATION_CONTEXT('2D SPACE',''
  ) );
#686 = PCURVE('',#171,#687);
#687 = DEFINITIONAL_REPRESENTATION('',(#688),#691);
#688 = B_SPLINE_CURVE_WITH_KNOTS('',1,(#689,#690),.UNSPECIFIED.,.F.,.F.,
  (2,2),(0.,1.),.PIECEWISE_BEZIER_KNOTS.);
#689 = CARTESIAN_POINT('',(0.,0.));
#690 = CARTESIAN_POINT('',(1.,0.));
#691 = ( GEOMETRIC_REPRESENTATION_CONTEXT(2) 
PARAMETRIC_REPRESENTATION_CONTEXT() REPRESENTATION_CONTEXT('2D SPACE',''
  ) );
#692 = ADVANCED_FACE('',(#693),#171,.T.);
#693 = FACE_BOUND('',#694,.T.);
#694 = EDGE_LOOP('',(#695,#696,#697,#698,#699));
#695 = ORIENTED_EDGE('',*,*,#589,.F.);
#696 = ORIENTED_EDGE('',*,*,#663,.T.);
#697 = ORIENTED_EDGE('',*,*,#475,.T.);
#698 = ORIENTED_EDGE('',*,*,#202,.T.);
#699 = ORIENTED_EDGE('',*,*,#146,.T.);
#700 = ADVANCED_FACE('',(#701),#42,.T.);
#701 = FACE_BOUND('',#702,.T.);
#702 = EDGE_LOOP('',(#703,#704,#705,#706,#707,#708,#722,#736));
#703 = ORIENTED_EDGE('',*,*,#21,.T.);
#704 = ORIENTED_EDGE('',*,*,#539,.F.);
#705 = ORIENTED_EDGE('',*,*,#636,.F.);
#706 = ORIENTED_EDGE('',*,*,#608,.F.);
#707 = ORIENTED_EDGE('',*,*,#95,.T.);
#708 = ORIENTED_EDGE('',*,*,#709,.T.);
#709 = EDGE_CURVE('',#82,#710,#712,.T.);
#710 = VERTEX_POINT('',#711);
#711 = CARTESIAN_POINT('',(-35.35533905932,80.,35.355339059327));
#712 = SURFACE_CURVE('',#713,(#716),.PCURVE_S1.);
#713 = B_SPLINE_CURVE_WITH_KNOTS('',1,(#714,#715),.UNSPECIFIED.,.F.,.F.,
  (2,2),(0.,1.),.PIECEWISE_BEZIER_KNOTS.);
#714 = CARTESIAN_POINT('',(0.,80.,0.));
#715 = CARTESIAN_POINT('',(-35.35533905932,80.,35.355339059327));
#716 = PCURVE('',#42,#717);
#717 = DEFINITIONAL_REPRESENTATION('',(#718),#721);
#718 = B_SPLINE_CURVE_WITH_KNOTS('',1,(#719,#720),.UNSPECIFIED.,.F.,.F.,
  (2,2),(0.,1.),.PIECEWISE_BEZIER_KNOTS.);
#719 = CARTESIAN_POINT('',(1.,0.));
#720 = CARTESIAN_POINT('',(1.,1.));
#721 = ( GEOMETRIC_REPRESENTATION_CONTEXT(2) 
PARAMETRIC_REPRESENTATION_CONTEXT() REPRESENTATION_CONTEXT('2D SPACE',''
  ) );
#722 = ORIENTED_EDGE('',*,*,#723,.F.);
#723 = EDGE_CURVE('',#724,#710,#726,.T.);
#724 = VERTEX_POINT('',#725);
#725 = CARTESIAN_POINT('',(-35.35533905932,0.,35.355339059327));
#726 = SURFACE_CURVE('',#727,(#730),.PCURVE_S1.);
#727 = B_SPLINE_CURVE_WITH_KNOTS('',1,(#728,#729),.UNSPECIFIED.,.F.,.F.,
  (2,2),(0.,1.),.PIECEWISE_BEZIER_KNOTS.);
#728 = CARTESIAN_POINT('',(-35.35533905932,0.,35.355339059327));
#729 = CARTESIAN_POINT('',(-35.35533905932,80.,35.355339059327));
#730 = PCURVE('',#42,#731);
#731 = DEFINITIONAL_REPRESENTATION('',(#732),#735);
#732 = B_SPLINE_CURVE_WITH_KNOTS('',1,(#733,#734),.UNSPECIFIED.,.F.,.F.,
  (2,2),(0.,1.),.PIECEWISE_BEZIER_KNOTS.);
#733 = CARTESIAN_POINT('',(0.,1.));
#734 = CARTESIAN_POINT('',(1.,1.));
#735 = ( GEOMETRIC_REPRESENTATION_CONTEXT(2) 
PARAMETRIC_REPRESENTATION_CONTEXT() REPRESENTATION_CONTEXT('2D SPACE',''
  ) );
#736 = ORIENTED_EDGE('',*,*,#737,.F.);
#737 = EDGE_CURVE('',#22,#724,#738,.T.);
#738 = SURFACE_CURVE('',#739,(#742),.PCURVE_S1.);
#739 = B_SPLINE_CURVE_WITH_KNOTS('',1,(#740,#741),.UNSPECIFIED.,.F.,.F.,
  (2,2),(0.,1.),.PIECEWISE_BEZIER_KNOTS.);
#740 = CARTESIAN_POINT('',(0.,0.,0.));
#741 = CARTESIAN_POINT('',(-35.35533905932,0.,35.355339059327));
#742 = PCURVE('',#42,#743);
#743 = DEFINITIONAL_REPRESENTATION('',(#744),#747);
#744 = B_SPLINE_CURVE_WITH_KNOTS('',1,(#745,#746),.UNSPECIFIED.,.F.,.F.,
  (2,2),(0.,1.),.PIECEWISE_BEZIER_KNOTS.);
#745 = CARTESIAN_POINT('',(0.,0.));
#746 = CARTESIAN_POINT('',(0.,1.));
#747 = ( GEOMETRIC_REPRESENTATION_CONTEXT(2) 
PARAMETRIC_REPRESENTATION_CONTEXT() REPRESENTATION_CONTEXT('2D SPACE',''
  ) );
#748 = ( GEOMETRIC_REPRESENTATION_CONTEXT(3) 
GLOBAL_UNCERTAINTY_ASSIGNED_CONTEXT((#752)) GLOBAL_UNIT_ASSIGNED_CONTEXT
((#749,#750,#751)) REPRESENTATION_CONTEXT('Context #1',
  '3D Context with UNIT and UNCERTAINTY') );
#749 = ( LENGTH_UNIT() NAMED_UNIT(*) SI_UNIT(.MILLI.,.METRE.) );
#750 = ( NAMED_UNIT(*) PLANE_ANGLE_UNIT() SI_UNIT($,.RADIAN.) );
#751 = ( NAMED_UNIT(*) SI_UNIT($,.STERADIAN.) SOLID_ANGLE_UNIT() );
#752 = UNCERTAINTY_MEASURE_WITH_UNIT(LENGTH_MEASURE(1.E-03),#749,
  'distance_accuracy_value','confusion accuracy');
#753 = PRODUCT_RELATED_PRODUCT_CATEGORY('part',$,(#7));
ENDSEC;
END-ISO-10303-21;
