ISO-10303-21;
HEADER;
FILE_DESCRIPTION(('Open CASCADE Model'),'2;1');
FILE_NAME('Open CASCADE Shape Model','2026-07-11T20:15:59',('Author'),(
    'Open CASCADE'),'Open CASCADE STEP processor 8.0','Open CASCADE 8.0'
  ,'Unknown');
FILE_SCHEMA(('AUTOMOTIVE_DESIGN { 1 0 10303 214 1 1 1 1 }'));
ENDSEC;
DATA;
#1 = APPLICATION_PROTOCOL_DEFINITION('international standard',
  'automotive_design',2000,#2);
#2 = APPLICATION_CONTEXT(
  'core data for automotive mechanical design processes');
#3 = SHAPE_DEFINITION_REPRESENTATION(#4,#10);
#4 = PRODUCT_DEFINITION_SHAPE('','',#5);
#5 = PRODUCT_DEFINITION('design','',#6,#9);
#6 = PRODUCT_DEFINITION_FORMATION('','',#7);
#7 = PRODUCT('Open CASCADE STEP translator 8.0 1',
  'Open CASCADE STEP translator 8.0 1','',(#8));
#8 = PRODUCT_CONTEXT('',#2,'mechanical');
#9 = PRODUCT_DEFINITION_CONTEXT('part definition',#2,'design');
#10 = ADVANCED_BREP_SHAPE_REPRESENTATION('',(#11,#15),#361);
#11 = AXIS2_PLACEMENT_3D('',#12,#13,#14);
#12 = CARTESIAN_POINT('',(0.,0.,0.));
#13 = DIRECTION('',(0.,0.,1.));
#14 = DIRECTION('',(1.,0.,-0.));
#15 = MANIFOLD_SOLID_BREP('',#16);
#16 = CLOSED_SHELL('',(#17,#137,#224,#277,#330,#354));
#17 = ADVANCED_FACE('',(#18),#31,.T.);
#18 = FACE_BOUND('',#19,.T.);
#19 = EDGE_LOOP('',(#20,#52,#87,#112));
#20 = ORIENTED_EDGE('',*,*,#21,.T.);
#21 = EDGE_CURVE('',#22,#24,#26,.T.);
#22 = VERTEX_POINT('',#23);
#23 = CARTESIAN_POINT('',(0.,0.,0.));
#24 = VERTEX_POINT('',#25);
#25 = CARTESIAN_POINT('',(100.,0.,0.));
#26 = SURFACE_CURVE('',#27,(#30,#41),.PCURVE_S1.);
#27 = B_SPLINE_CURVE_WITH_KNOTS('',1,(#28,#29),.UNSPECIFIED.,.F.,.F.,(2,
    2),(0.,10.),.PIECEWISE_BEZIER_KNOTS.);
#28 = CARTESIAN_POINT('',(0.,0.,0.));
#29 = CARTESIAN_POINT('',(100.,0.,0.));
#30 = PCURVE('',#31,#36);
#31 = PLANE('',#32);
#32 = AXIS2_PLACEMENT_3D('',#33,#34,#35);
#33 = CARTESIAN_POINT('',(50.,0.,50.));
#34 = DIRECTION('',(-0.,-1.,-0.));
#35 = DIRECTION('',(0.,0.,-1.));
#36 = DEFINITIONAL_REPRESENTATION('',(#37),#40);
#37 = B_SPLINE_CURVE_WITH_KNOTS('',1,(#38,#39),.UNSPECIFIED.,.F.,.F.,(2,
    2),(0.,10.),.PIECEWISE_BEZIER_KNOTS.);
#38 = CARTESIAN_POINT('',(50.,-50.));
#39 = CARTESIAN_POINT('',(50.,50.));
#40 = ( GEOMETRIC_REPRESENTATION_CONTEXT(2) 
PARAMETRIC_REPRESENTATION_CONTEXT() REPRESENTATION_CONTEXT('2D SPACE',''
  ) );
#41 = PCURVE('',#42,#47);
#42 = PLANE('',#43);
#43 = AXIS2_PLACEMENT_3D('',#44,#45,#46);
#44 = CARTESIAN_POINT('',(99.26557861652,75.618284055312,0.));
#45 = DIRECTION('',(0.,-0.,1.));
#46 = DIRECTION('',(0.697232103242,-0.716845446528,-0.));
#47 = DEFINITIONAL_REPRESENTATION('',(#48),#51);
#48 = B_SPLINE_CURVE_WITH_KNOTS('',1,(#49,#50),.UNSPECIFIED.,.F.,.F.,(2,
    2),(0.,10.),.PIECEWISE_BEZIER_KNOTS.);
#49 = CARTESIAN_POINT('',(-15.00452555903,-123.8815732637));
#50 = CARTESIAN_POINT('',(54.718684765198,-52.19702861088));
#51 = ( GEOMETRIC_REPRESENTATION_CONTEXT(2) 
PARAMETRIC_REPRESENTATION_CONTEXT() REPRESENTATION_CONTEXT('2D SPACE',''
  ) );
#52 = ORIENTED_EDGE('',*,*,#53,.T.);
#53 = EDGE_CURVE('',#24,#54,#56,.T.);
#54 = VERTEX_POINT('',#55);
#55 = CARTESIAN_POINT('',(100.,0.,100.));
#56 = SURFACE_CURVE('',#57,(#60,#66),.PCURVE_S1.);
#57 = B_SPLINE_CURVE_WITH_KNOTS('',1,(#58,#59),.UNSPECIFIED.,.F.,.F.,(2,
    2),(0.,10.),.PIECEWISE_BEZIER_KNOTS.);
#58 = CARTESIAN_POINT('',(100.,0.,0.));
#59 = CARTESIAN_POINT('',(100.,0.,100.));
#60 = PCURVE('',#31,#61);
#61 = DEFINITIONAL_REPRESENTATION('',(#62),#65);
#62 = B_SPLINE_CURVE_WITH_KNOTS('',1,(#63,#64),.UNSPECIFIED.,.F.,.F.,(2,
    2),(0.,10.),.PIECEWISE_BEZIER_KNOTS.);
#63 = CARTESIAN_POINT('',(50.,50.));
#64 = CARTESIAN_POINT('',(-50.,50.));
#65 = ( GEOMETRIC_REPRESENTATION_CONTEXT(2) 
PARAMETRIC_REPRESENTATION_CONTEXT() REPRESENTATION_CONTEXT('2D SPACE',''
  ) );
#66 = PCURVE('',#67,#82);
#67 = B_SPLINE_SURFACE_WITH_KNOTS('',1,6,(
    (#68,#69,#70,#71,#72,#73,#74)
    ,(#75,#76,#77,#78,#79,#80,#81
    )),.UNSPECIFIED.,.F.,.F.,.F.,(2,2),(7,7),(0.,10.),(0.,1.),
  .PIECEWISE_BEZIER_KNOTS.);
#68 = CARTESIAN_POINT('',(100.,0.,0.));
#69 = CARTESIAN_POINT('',(116.66666666666,30.,0.));
#70 = CARTESIAN_POINT('',(133.19999999999,56.133333333333,0.));
#71 = CARTESIAN_POINT('',(149.51842202668,78.251779573297,0.));
#72 = CARTESIAN_POINT('',(165.48784354692,96.204329340754,0.));
#73 = CARTESIAN_POINT('',(180.83689452185,109.61625088207,0.));
#74 = CARTESIAN_POINT('',(194.86832980505,118.37722339831,0.));
#75 = CARTESIAN_POINT('',(100.,0.,100.));
#76 = CARTESIAN_POINT('',(116.66666666666,30.,100.));
#77 = CARTESIAN_POINT('',(133.19999999999,56.133333333333,
    99.999999999999));
#78 = CARTESIAN_POINT('',(149.51842202668,78.251779573297,100.));
#79 = CARTESIAN_POINT('',(165.48784354692,96.204329340754,
    99.999999999999));
#80 = CARTESIAN_POINT('',(180.83689452185,109.61625088207,100.));
#81 = CARTESIAN_POINT('',(194.86832980505,118.37722339831,100.));
#82 = DEFINITIONAL_REPRESENTATION('',(#83),#86);
#83 = B_SPLINE_CURVE_WITH_KNOTS('',1,(#84,#85),.UNSPECIFIED.,.F.,.F.,(2,
    2),(0.,10.),.PIECEWISE_BEZIER_KNOTS.);
#84 = CARTESIAN_POINT('',(0.,0.));
#85 = CARTESIAN_POINT('',(10.,0.));
#86 = ( GEOMETRIC_REPRESENTATION_CONTEXT(2) 
PARAMETRIC_REPRESENTATION_CONTEXT() REPRESENTATION_CONTEXT('2D SPACE',''
  ) );
#87 = ORIENTED_EDGE('',*,*,#88,.T.);
#88 = EDGE_CURVE('',#54,#89,#91,.T.);
#89 = VERTEX_POINT('',#90);
#90 = CARTESIAN_POINT('',(0.,0.,100.));
#91 = SURFACE_CURVE('',#92,(#95,#101),.PCURVE_S1.);
#92 = B_SPLINE_CURVE_WITH_KNOTS('',1,(#93,#94),.UNSPECIFIED.,.F.,.F.,(2,
    2),(0.,10.),.PIECEWISE_BEZIER_KNOTS.);
#93 = CARTESIAN_POINT('',(100.,0.,100.));
#94 = CARTESIAN_POINT('',(0.,0.,100.));
#95 = PCURVE('',#31,#96);
#96 = DEFINITIONAL_REPRESENTATION('',(#97),#100);
#97 = B_SPLINE_CURVE_WITH_KNOTS('',1,(#98,#99),.UNSPECIFIED.,.F.,.F.,(2,
    2),(0.,10.),.PIECEWISE_BEZIER_KNOTS.);
#98 = CARTESIAN_POINT('',(-50.,50.));
#99 = CARTESIAN_POINT('',(-50.,-50.));
#100 = ( GEOMETRIC_REPRESENTATION_CONTEXT(2) 
PARAMETRIC_REPRESENTATION_CONTEXT() REPRESENTATION_CONTEXT('2D SPACE',''
  ) );
#101 = PCURVE('',#102,#107);
#102 = PLANE('',#103);
#103 = AXIS2_PLACEMENT_3D('',#104,#105,#106);
#104 = CARTESIAN_POINT('',(99.26557861652,75.618284055312,100.));
#105 = DIRECTION('',(4.390687351461E-17,1.533958724405E-16,-1.));
#106 = DIRECTION('',(-0.697232103242,0.716845446528,7.934785090782E-17)
  );
#107 = DEFINITIONAL_REPRESENTATION('',(#108),#111);
#108 = B_SPLINE_CURVE_WITH_KNOTS('',1,(#109,#110),.UNSPECIFIED.,.F.,.F.,
  (2,2),(0.,10.),.PIECEWISE_BEZIER_KNOTS.);
#109 = CARTESIAN_POINT('',(-54.71868476519,-52.19702861088));
#110 = CARTESIAN_POINT('',(15.004525559038,-123.8815732637));
#111 = ( GEOMETRIC_REPRESENTATION_CONTEXT(2) 
PARAMETRIC_REPRESENTATION_CONTEXT() REPRESENTATION_CONTEXT('2D SPACE',''
  ) );
#112 = ORIENTED_EDGE('',*,*,#113,.T.);
#113 = EDGE_CURVE('',#89,#22,#114,.T.);
#114 = SURFACE_CURVE('',#115,(#118,#124),.PCURVE_S1.);
#115 = B_SPLINE_CURVE_WITH_KNOTS('',1,(#116,#117),.UNSPECIFIED.,.F.,.F.,
  (2,2),(0.,10.),.PIECEWISE_BEZIER_KNOTS.);
#116 = CARTESIAN_POINT('',(0.,0.,100.));
#117 = CARTESIAN_POINT('',(0.,0.,0.));
#118 = PCURVE('',#31,#119);
#119 = DEFINITIONAL_REPRESENTATION('',(#120),#123);
#120 = B_SPLINE_CURVE_WITH_KNOTS('',1,(#121,#122),.UNSPECIFIED.,.F.,.F.,
  (2,2),(0.,10.),.PIECEWISE_BEZIER_KNOTS.);
#121 = CARTESIAN_POINT('',(-50.,-50.));
#122 = CARTESIAN_POINT('',(50.,-50.));
#123 = ( GEOMETRIC_REPRESENTATION_CONTEXT(2) 
PARAMETRIC_REPRESENTATION_CONTEXT() REPRESENTATION_CONTEXT('2D SPACE',''
  ) );
#124 = PCURVE('',#125,#132);
#125 = B_SPLINE_SURFACE_WITH_KNOTS('',1,2,(
    (#126,#127,#128)
    ,(#129,#130,#131
    )),.UNSPECIFIED.,.F.,.F.,.F.,(2,2),(3,3),(0.,10.),(0.,1.),
  .PIECEWISE_BEZIER_KNOTS.);
#126 = CARTESIAN_POINT('',(0.,0.,100.));
#127 = CARTESIAN_POINT('',(50.,100.,100.));
#128 = CARTESIAN_POINT('',(100.,150.,100.));
#129 = CARTESIAN_POINT('',(0.,0.,0.));
#130 = CARTESIAN_POINT('',(50.,100.,0.));
#131 = CARTESIAN_POINT('',(100.,150.,0.));
#132 = DEFINITIONAL_REPRESENTATION('',(#133),#136);
#133 = B_SPLINE_CURVE_WITH_KNOTS('',1,(#134,#135),.UNSPECIFIED.,.F.,.F.,
  (2,2),(0.,10.),.PIECEWISE_BEZIER_KNOTS.);
#134 = CARTESIAN_POINT('',(0.,0.));
#135 = CARTESIAN_POINT('',(10.,0.));
#136 = ( GEOMETRIC_REPRESENTATION_CONTEXT(2) 
PARAMETRIC_REPRESENTATION_CONTEXT() REPRESENTATION_CONTEXT('2D SPACE',''
  ) );
#137 = ADVANCED_FACE('',(#138),#42,.F.);
#138 = FACE_BOUND('',#139,.F.);
#139 = EDGE_LOOP('',(#140,#170,#171,#201));
#140 = ORIENTED_EDGE('',*,*,#141,.F.);
#141 = EDGE_CURVE('',#22,#142,#144,.T.);
#142 = VERTEX_POINT('',#143);
#143 = CARTESIAN_POINT('',(100.,150.,0.));
#144 = SURFACE_CURVE('',#145,(#153,#164),.PCURVE_S1.);
#145 = B_SPLINE_CURVE_WITH_KNOTS('',6,(#146,#147,#148,#149,#150,#151,
    #152),.UNSPECIFIED.,.F.,.F.,(7,7),(0.,1.),.PIECEWISE_BEZIER_KNOTS.);
#146 = CARTESIAN_POINT('',(0.,0.,0.));
#147 = CARTESIAN_POINT('',(16.666666666667,33.333333333333,0.));
#148 = CARTESIAN_POINT('',(33.333333333333,63.333333333333,0.));
#149 = CARTESIAN_POINT('',(50.,90.,0.));
#150 = CARTESIAN_POINT('',(66.666666666667,113.33333333333,0.));
#151 = CARTESIAN_POINT('',(83.333333333333,133.33333333333,0.));
#152 = CARTESIAN_POINT('',(100.,150.,0.));
#153 = PCURVE('',#42,#154);
#154 = DEFINITIONAL_REPRESENTATION('',(#155),#163);
#155 = B_SPLINE_CURVE_WITH_KNOTS('',6,(#156,#157,#158,#159,#160,#161,
    #162),.UNSPECIFIED.,.F.,.F.,(7,7),(0.,1.),.PIECEWISE_BEZIER_KNOTS.);
#156 = CARTESIAN_POINT('',(-15.00452555903,-123.8815732637));
#157 = CARTESIAN_POINT('',(-27.2788387226,-88.69307904682));
#158 = CARTESIAN_POINT('',(-37.16366706441,-55.82869184074));
#159 = CARTESIAN_POINT('',(-44.65901058446,-25.28841164548));
#160 = CARTESIAN_POINT('',(-49.76486928274,2.927761538977));
#161 = CARTESIAN_POINT('',(-52.48124315927,28.819827712628));
#162 = CARTESIAN_POINT('',(-52.80813221403,52.387786875471));
#163 = ( GEOMETRIC_REPRESENTATION_CONTEXT(2) 
PARAMETRIC_REPRESENTATION_CONTEXT() REPRESENTATION_CONTEXT('2D SPACE',''
  ) );
#164 = PCURVE('',#125,#165);
#165 = DEFINITIONAL_REPRESENTATION('',(#166),#169);
#166 = B_SPLINE_CURVE_WITH_KNOTS('',1,(#167,#168),.UNSPECIFIED.,.F.,.F.,
  (2,2),(0.,1.),.PIECEWISE_BEZIER_KNOTS.);
#167 = CARTESIAN_POINT('',(10.,0.));
#168 = CARTESIAN_POINT('',(10.,1.));
#169 = ( GEOMETRIC_REPRESENTATION_CONTEXT(2) 
PARAMETRIC_REPRESENTATION_CONTEXT() REPRESENTATION_CONTEXT('2D SPACE',''
  ) );
#170 = ORIENTED_EDGE('',*,*,#21,.T.);
#171 = ORIENTED_EDGE('',*,*,#172,.T.);
#172 = EDGE_CURVE('',#24,#173,#175,.T.);
#173 = VERTEX_POINT('',#174);
#174 = CARTESIAN_POINT('',(194.86832980505,118.37722339831,0.));
#175 = SURFACE_CURVE('',#176,(#184,#195),.PCURVE_S1.);
#176 = B_SPLINE_CURVE_WITH_KNOTS('',6,(#177,#178,#179,#180,#181,#182,
    #183),.UNSPECIFIED.,.F.,.F.,(7,7),(0.,1.),.PIECEWISE_BEZIER_KNOTS.);
#177 = CARTESIAN_POINT('',(100.,0.,0.));
#178 = CARTESIAN_POINT('',(116.66666666666,30.,0.));
#179 = CARTESIAN_POINT('',(133.19999999999,56.133333333333,0.));
#180 = CARTESIAN_POINT('',(149.51842202668,78.251779573297,0.));
#181 = CARTESIAN_POINT('',(165.48784354692,96.204329340754,0.));
#182 = CARTESIAN_POINT('',(180.83689452185,109.61625088207,0.));
#183 = CARTESIAN_POINT('',(194.86832980505,118.37722339831,0.));
#184 = PCURVE('',#42,#185);
#185 = DEFINITIONAL_REPRESENTATION('',(#186),#194);
#186 = B_SPLINE_CURVE_WITH_KNOTS('',6,(#187,#188,#189,#190,#191,#192,
    #193),.UNSPECIFIED.,.F.,.F.,(7,7),(0.,1.),.PIECEWISE_BEZIER_KNOTS.);
#187 = CARTESIAN_POINT('',(54.718684765198,-52.19702861088));
#188 = CARTESIAN_POINT('',(44.833856423391,-19.3326414048));
#189 = CARTESIAN_POINT('',(37.627866194393,10.740202275858));
#190 = CARTESIAN_POINT('',(33.150086434261,37.859679592559));
#191 = CARTESIAN_POINT('',(31.415276234008,61.824380725959));
#192 = CARTESIAN_POINT('',(32.502852441947,82.178500290642));
#193 = CARTESIAN_POINT('',(36.005756320527,98.345302075604));
#194 = ( GEOMETRIC_REPRESENTATION_CONTEXT(2) 
PARAMETRIC_REPRESENTATION_CONTEXT() REPRESENTATION_CONTEXT('2D SPACE',''
  ) );
#195 = PCURVE('',#67,#196);
#196 = DEFINITIONAL_REPRESENTATION('',(#197),#200);
#197 = B_SPLINE_CURVE_WITH_KNOTS('',1,(#198,#199),.UNSPECIFIED.,.F.,.F.,
  (2,2),(0.,1.),.PIECEWISE_BEZIER_KNOTS.);
#198 = CARTESIAN_POINT('',(0.,0.));
#199 = CARTESIAN_POINT('',(0.,1.));
#200 = ( GEOMETRIC_REPRESENTATION_CONTEXT(2) 
PARAMETRIC_REPRESENTATION_CONTEXT() REPRESENTATION_CONTEXT('2D SPACE',''
  ) );
#201 = ORIENTED_EDGE('',*,*,#202,.F.);
#202 = EDGE_CURVE('',#142,#173,#203,.T.);
#203 = SURFACE_CURVE('',#204,(#207,#213),.PCURVE_S1.);
#204 = B_SPLINE_CURVE_WITH_KNOTS('',1,(#205,#206),.UNSPECIFIED.,.F.,.F.,
  (2,2),(0.,10.),.PIECEWISE_BEZIER_KNOTS.);
#205 = CARTESIAN_POINT('',(100.,150.,0.));
#206 = CARTESIAN_POINT('',(194.86832980505,118.37722339831,0.));
#207 = PCURVE('',#42,#208);
#208 = DEFINITIONAL_REPRESENTATION('',(#209),#212);
#209 = B_SPLINE_CURVE_WITH_KNOTS('',1,(#210,#211),.UNSPECIFIED.,.F.,.F.,
  (2,2),(0.,10.),.PIECEWISE_BEZIER_KNOTS.);
#210 = CARTESIAN_POINT('',(-52.80813221403,52.387786875471));
#211 = CARTESIAN_POINT('',(36.005756320527,98.345302075604));
#212 = ( GEOMETRIC_REPRESENTATION_CONTEXT(2) 
PARAMETRIC_REPRESENTATION_CONTEXT() REPRESENTATION_CONTEXT('2D SPACE',''
  ) );
#213 = PCURVE('',#214,#219);
#214 = PLANE('',#215);
#215 = AXIS2_PLACEMENT_3D('',#216,#217,#218);
#216 = CARTESIAN_POINT('',(147.43416490252,134.18861169915,50.));
#217 = DIRECTION('',(-0.316227766017,-0.948683298051,-0.));
#218 = DIRECTION('',(0.,0.,-1.));
#219 = DEFINITIONAL_REPRESENTATION('',(#220),#223);
#220 = B_SPLINE_CURVE_WITH_KNOTS('',1,(#221,#222),.UNSPECIFIED.,.F.,.F.,
  (2,2),(0.,10.),.PIECEWISE_BEZIER_KNOTS.);
#221 = CARTESIAN_POINT('',(50.,-50.));
#222 = CARTESIAN_POINT('',(50.,50.));
#223 = ( GEOMETRIC_REPRESENTATION_CONTEXT(2) 
PARAMETRIC_REPRESENTATION_CONTEXT() REPRESENTATION_CONTEXT('2D SPACE',''
  ) );
#224 = ADVANCED_FACE('',(#225),#67,.F.);
#225 = FACE_BOUND('',#226,.F.);
#226 = EDGE_LOOP('',(#227,#228,#229,#259));
#227 = ORIENTED_EDGE('',*,*,#172,.F.);
#228 = ORIENTED_EDGE('',*,*,#53,.T.);
#229 = ORIENTED_EDGE('',*,*,#230,.T.);
#230 = EDGE_CURVE('',#54,#231,#233,.T.);
#231 = VERTEX_POINT('',#232);
#232 = CARTESIAN_POINT('',(194.86832980505,118.37722339831,100.));
#233 = SURFACE_CURVE('',#234,(#242,#248),.PCURVE_S1.);
#234 = B_SPLINE_CURVE_WITH_KNOTS('',6,(#235,#236,#237,#238,#239,#240,
    #241),.UNSPECIFIED.,.F.,.F.,(7,7),(0.,1.),.PIECEWISE_BEZIER_KNOTS.);
#235 = CARTESIAN_POINT('',(100.,0.,100.));
#236 = CARTESIAN_POINT('',(116.66666666666,30.,100.));
#237 = CARTESIAN_POINT('',(133.19999999999,56.133333333333,
    99.999999999999));
#238 = CARTESIAN_POINT('',(149.51842202668,78.251779573297,100.));
#239 = CARTESIAN_POINT('',(165.48784354692,96.204329340754,
    99.999999999999));
#240 = CARTESIAN_POINT('',(180.83689452185,109.61625088207,100.));
#241 = CARTESIAN_POINT('',(194.86832980505,118.37722339831,100.));
#242 = PCURVE('',#67,#243);
#243 = DEFINITIONAL_REPRESENTATION('',(#244),#247);
#244 = B_SPLINE_CURVE_WITH_KNOTS('',1,(#245,#246),.UNSPECIFIED.,.F.,.F.,
  (2,2),(0.,1.),.PIECEWISE_BEZIER_KNOTS.);
#245 = CARTESIAN_POINT('',(10.,0.));
#246 = CARTESIAN_POINT('',(10.,1.));
#247 = ( GEOMETRIC_REPRESENTATION_CONTEXT(2) 
PARAMETRIC_REPRESENTATION_CONTEXT() REPRESENTATION_CONTEXT('2D SPACE',''
  ) );
#248 = PCURVE('',#102,#249);
#249 = DEFINITIONAL_REPRESENTATION('',(#250),#258);
#250 = B_SPLINE_CURVE_WITH_KNOTS('',6,(#251,#252,#253,#254,#255,#256,
    #257),.UNSPECIFIED.,.F.,.F.,(7,7),(0.,1.),.PIECEWISE_BEZIER_KNOTS.);
#251 = CARTESIAN_POINT('',(-54.71868476519,-52.19702861088));
#252 = CARTESIAN_POINT('',(-44.83385642339,-19.3326414048));
#253 = CARTESIAN_POINT('',(-37.62786619439,10.740202275858));
#254 = CARTESIAN_POINT('',(-33.15008643426,37.859679592559));
#255 = CARTESIAN_POINT('',(-31.415276234,61.824380725959));
#256 = CARTESIAN_POINT('',(-32.50285244194,82.178500290642));
#257 = CARTESIAN_POINT('',(-36.00575632052,98.345302075604));
#258 = ( GEOMETRIC_REPRESENTATION_CONTEXT(2) 
PARAMETRIC_REPRESENTATION_CONTEXT() REPRESENTATION_CONTEXT('2D SPACE',''
  ) );
#259 = ORIENTED_EDGE('',*,*,#260,.F.);
#260 = EDGE_CURVE('',#173,#231,#261,.T.);
#261 = SURFACE_CURVE('',#262,(#265,#271),.PCURVE_S1.);
#262 = B_SPLINE_CURVE_WITH_KNOTS('',1,(#263,#264),.UNSPECIFIED.,.F.,.F.,
  (2,2),(0.,10.),.PIECEWISE_BEZIER_KNOTS.);
#263 = CARTESIAN_POINT('',(194.86832980505,118.37722339831,0.));
#264 = CARTESIAN_POINT('',(194.86832980505,118.37722339831,100.));
#265 = PCURVE('',#67,#266);
#266 = DEFINITIONAL_REPRESENTATION('',(#267),#270);
#267 = B_SPLINE_CURVE_WITH_KNOTS('',1,(#268,#269),.UNSPECIFIED.,.F.,.F.,
  (2,2),(0.,10.),.PIECEWISE_BEZIER_KNOTS.);
#268 = CARTESIAN_POINT('',(0.,1.));
#269 = CARTESIAN_POINT('',(10.,1.));
#270 = ( GEOMETRIC_REPRESENTATION_CONTEXT(2) 
PARAMETRIC_REPRESENTATION_CONTEXT() REPRESENTATION_CONTEXT('2D SPACE',''
  ) );
#271 = PCURVE('',#214,#272);
#272 = DEFINITIONAL_REPRESENTATION('',(#273),#276);
#273 = B_SPLINE_CURVE_WITH_KNOTS('',1,(#274,#275),.UNSPECIFIED.,.F.,.F.,
  (2,2),(0.,10.),.PIECEWISE_BEZIER_KNOTS.);
#274 = CARTESIAN_POINT('',(50.,50.));
#275 = CARTESIAN_POINT('',(-50.,50.));
#276 = ( GEOMETRIC_REPRESENTATION_CONTEXT(2) 
PARAMETRIC_REPRESENTATION_CONTEXT() REPRESENTATION_CONTEXT('2D SPACE',''
  ) );
#277 = ADVANCED_FACE('',(#278),#102,.F.);
#278 = FACE_BOUND('',#279,.F.);
#279 = EDGE_LOOP('',(#280,#281,#282,#312));
#280 = ORIENTED_EDGE('',*,*,#230,.F.);
#281 = ORIENTED_EDGE('',*,*,#88,.T.);
#282 = ORIENTED_EDGE('',*,*,#283,.T.);
#283 = EDGE_CURVE('',#89,#284,#286,.T.);
#284 = VERTEX_POINT('',#285);
#285 = CARTESIAN_POINT('',(100.,150.,100.));
#286 = SURFACE_CURVE('',#287,(#295,#306),.PCURVE_S1.);
#287 = B_SPLINE_CURVE_WITH_KNOTS('',6,(#288,#289,#290,#291,#292,#293,
    #294),.UNSPECIFIED.,.F.,.F.,(7,7),(0.,1.),.PIECEWISE_BEZIER_KNOTS.);
#288 = CARTESIAN_POINT('',(0.,0.,100.));
#289 = CARTESIAN_POINT('',(16.666666666667,33.333333333333,100.));
#290 = CARTESIAN_POINT('',(33.333333333333,63.333333333333,
    99.999999999999));
#291 = CARTESIAN_POINT('',(50.,90.,100.));
#292 = CARTESIAN_POINT('',(66.666666666667,113.33333333333,
    99.999999999999));
#293 = CARTESIAN_POINT('',(83.333333333333,133.33333333333,100.));
#294 = CARTESIAN_POINT('',(100.,150.,100.));
#295 = PCURVE('',#102,#296);
#296 = DEFINITIONAL_REPRESENTATION('',(#297),#305);
#297 = B_SPLINE_CURVE_WITH_KNOTS('',6,(#298,#299,#300,#301,#302,#303,
    #304),.UNSPECIFIED.,.F.,.F.,(7,7),(0.,1.),.PIECEWISE_BEZIER_KNOTS.);
#298 = CARTESIAN_POINT('',(15.004525559038,-123.8815732637));
#299 = CARTESIAN_POINT('',(27.278838722606,-88.69307904682));
#300 = CARTESIAN_POINT('',(37.163667064413,-55.82869184074));
#301 = CARTESIAN_POINT('',(44.65901058446,-25.28841164548));
#302 = CARTESIAN_POINT('',(49.764869282745,2.927761538977));
#303 = CARTESIAN_POINT('',(52.481243159271,28.819827712628));
#304 = CARTESIAN_POINT('',(52.808132214035,52.387786875471));
#305 = ( GEOMETRIC_REPRESENTATION_CONTEXT(2) 
PARAMETRIC_REPRESENTATION_CONTEXT() REPRESENTATION_CONTEXT('2D SPACE',''
  ) );
#306 = PCURVE('',#125,#307);
#307 = DEFINITIONAL_REPRESENTATION('',(#308),#311);
#308 = B_SPLINE_CURVE_WITH_KNOTS('',1,(#309,#310),.UNSPECIFIED.,.F.,.F.,
  (2,2),(0.,1.),.PIECEWISE_BEZIER_KNOTS.);
#309 = CARTESIAN_POINT('',(0.,0.));
#310 = CARTESIAN_POINT('',(0.,1.));
#311 = ( GEOMETRIC_REPRESENTATION_CONTEXT(2) 
PARAMETRIC_REPRESENTATION_CONTEXT() REPRESENTATION_CONTEXT('2D SPACE',''
  ) );
#312 = ORIENTED_EDGE('',*,*,#313,.F.);
#313 = EDGE_CURVE('',#231,#284,#314,.T.);
#314 = SURFACE_CURVE('',#315,(#318,#324),.PCURVE_S1.);
#315 = B_SPLINE_CURVE_WITH_KNOTS('',1,(#316,#317),.UNSPECIFIED.,.F.,.F.,
  (2,2),(0.,10.),.PIECEWISE_BEZIER_KNOTS.);
#316 = CARTESIAN_POINT('',(194.86832980505,118.37722339831,100.));
#317 = CARTESIAN_POINT('',(100.,150.,100.));
#318 = PCURVE('',#102,#319);
#319 = DEFINITIONAL_REPRESENTATION('',(#320),#323);
#320 = B_SPLINE_CURVE_WITH_KNOTS('',1,(#321,#322),.UNSPECIFIED.,.F.,.F.,
  (2,2),(0.,10.),.PIECEWISE_BEZIER_KNOTS.);
#321 = CARTESIAN_POINT('',(-36.00575632052,98.345302075604));
#322 = CARTESIAN_POINT('',(52.808132214035,52.387786875471));
#323 = ( GEOMETRIC_REPRESENTATION_CONTEXT(2) 
PARAMETRIC_REPRESENTATION_CONTEXT() REPRESENTATION_CONTEXT('2D SPACE',''
  ) );
#324 = PCURVE('',#214,#325);
#325 = DEFINITIONAL_REPRESENTATION('',(#326),#329);
#326 = B_SPLINE_CURVE_WITH_KNOTS('',1,(#327,#328),.UNSPECIFIED.,.F.,.F.,
  (2,2),(0.,10.),.PIECEWISE_BEZIER_KNOTS.);
#327 = CARTESIAN_POINT('',(-50.,50.));
#328 = CARTESIAN_POINT('',(-50.,-50.));
#329 = ( GEOMETRIC_REPRESENTATION_CONTEXT(2) 
PARAMETRIC_REPRESENTATION_CONTEXT() REPRESENTATION_CONTEXT('2D SPACE',''
  ) );
#330 = ADVANCED_FACE('',(#331),#125,.F.);
#331 = FACE_BOUND('',#332,.F.);
#332 = EDGE_LOOP('',(#333,#334,#335,#336));
#333 = ORIENTED_EDGE('',*,*,#283,.F.);
#334 = ORIENTED_EDGE('',*,*,#113,.T.);
#335 = ORIENTED_EDGE('',*,*,#141,.T.);
#336 = ORIENTED_EDGE('',*,*,#337,.F.);
#337 = EDGE_CURVE('',#284,#142,#338,.T.);
#338 = SURFACE_CURVE('',#339,(#342,#348),.PCURVE_S1.);
#339 = B_SPLINE_CURVE_WITH_KNOTS('',1,(#340,#341),.UNSPECIFIED.,.F.,.F.,
  (2,2),(0.,10.),.PIECEWISE_BEZIER_KNOTS.);
#340 = CARTESIAN_POINT('',(100.,150.,100.));
#341 = CARTESIAN_POINT('',(100.,150.,0.));
#342 = PCURVE('',#125,#343);
#343 = DEFINITIONAL_REPRESENTATION('',(#344),#347);
#344 = B_SPLINE_CURVE_WITH_KNOTS('',1,(#345,#346),.UNSPECIFIED.,.F.,.F.,
  (2,2),(0.,10.),.PIECEWISE_BEZIER_KNOTS.);
#345 = CARTESIAN_POINT('',(0.,1.));
#346 = CARTESIAN_POINT('',(10.,1.));
#347 = ( GEOMETRIC_REPRESENTATION_CONTEXT(2) 
PARAMETRIC_REPRESENTATION_CONTEXT() REPRESENTATION_CONTEXT('2D SPACE',''
  ) );
#348 = PCURVE('',#214,#349);
#349 = DEFINITIONAL_REPRESENTATION('',(#350),#353);
#350 = B_SPLINE_CURVE_WITH_KNOTS('',1,(#351,#352),.UNSPECIFIED.,.F.,.F.,
  (2,2),(0.,10.),.PIECEWISE_BEZIER_KNOTS.);
#351 = CARTESIAN_POINT('',(-50.,-50.));
#352 = CARTESIAN_POINT('',(50.,-50.));
#353 = ( GEOMETRIC_REPRESENTATION_CONTEXT(2) 
PARAMETRIC_REPRESENTATION_CONTEXT() REPRESENTATION_CONTEXT('2D SPACE',''
  ) );
#354 = ADVANCED_FACE('',(#355),#214,.F.);
#355 = FACE_BOUND('',#356,.F.);
#356 = EDGE_LOOP('',(#357,#358,#359,#360));
#357 = ORIENTED_EDGE('',*,*,#202,.T.);
#358 = ORIENTED_EDGE('',*,*,#260,.T.);
#359 = ORIENTED_EDGE('',*,*,#313,.T.);
#360 = ORIENTED_EDGE('',*,*,#337,.T.);
#361 = ( GEOMETRIC_REPRESENTATION_CONTEXT(3) 
GLOBAL_UNCERTAINTY_ASSIGNED_CONTEXT((#365)) GLOBAL_UNIT_ASSIGNED_CONTEXT
((#362,#363,#364)) REPRESENTATION_CONTEXT('Context #1',
  '3D Context with UNIT and UNCERTAINTY') );
#362 = ( LENGTH_UNIT() NAMED_UNIT(*) SI_UNIT(.MILLI.,.METRE.) );
#363 = ( NAMED_UNIT(*) PLANE_ANGLE_UNIT() SI_UNIT($,.RADIAN.) );
#364 = ( NAMED_UNIT(*) SI_UNIT($,.STERADIAN.) SOLID_ANGLE_UNIT() );
#365 = UNCERTAINTY_MEASURE_WITH_UNIT(LENGTH_MEASURE(5.E-04),#362,
  'distance_accuracy_value','confusion accuracy');
#366 = PRODUCT_RELATED_PRODUCT_CATEGORY('part',$,(#7));
ENDSEC;
END-ISO-10303-21;
