ISO-10303-21;
HEADER;
FILE_DESCRIPTION(('Open CASCADE Model'),'2;1');
FILE_NAME('Open CASCADE Shape Model','2026-07-11T20:16:00',('Author'),(
    'Open CASCADE'),'Open CASCADE STEP processor 8.0','Open CASCADE 8.0'
  ,'Unknown');
FILE_SCHEMA(('AUTOMOTIVE_DESIGN { 1 0 10303 214 1 1 1 1 }'));
ENDSEC;
DATA;
#1 = APPLICATION_PROTOCOL_DEFINITION('international standard',
  'automotive_design',2000,#2);
#2 = APPLICATION_CONTEXT(
  'core data for automotive mechanical design processes');
#3 = SHAPE_DEFINITION_REPRESENTATION(#4,#10);
#4 = PRODUCT_DEFINITION_SHAPE('','',#5);
#5 = PRODUCT_DEFINITION('design','',#6,#9);
#6 = PRODUCT_DEFINITION_FORMATION('','',#7);
#7 = PRODUCT('Open CASCADE STEP translator 8.0 1',
  'Open CASCADE STEP translator 8.0 1','',(#8));
#8 = PRODUCT_CONTEXT('',#2,'mechanical');
#9 = PRODUCT_DEFINITION_CONTEXT('part definition',#2,'design');
#10 = ADVANCED_BREP_SHAPE_REPRESENTATION('',(#11,#15),#783);
#11 = AXIS2_PLACEMENT_3D('',#12,#13,#14);
#12 = CARTESIAN_POINT('',(0.,0.,0.));
#13 = DIRECTION('',(0.,0.,1.));
#14 = DIRECTION('',(1.,0.,-0.));
#15 = MANIFOLD_SOLID_BREP('',#16);
#16 = CLOSED_SHELL('',(#17,#750,#754,#758));
#17 = ADVANCED_FACE('',(#18,#101,#428),#32,.T.);
#18 = FACE_BOUND('',#19,.T.);
#19 = EDGE_LOOP('',(#20,#48,#74,#75));
#20 = ORIENTED_EDGE('',*,*,#21,.T.);
#21 = EDGE_CURVE('',#22,#24,#26,.T.);
#22 = VERTEX_POINT('',#23);
#23 = CARTESIAN_POINT('',(100.,50.,0.));
#24 = VERTEX_POINT('',#25);
#25 = CARTESIAN_POINT('',(100.,50.,150.));
#26 = SEAM_CURVE('',#27,(#31,#42),.PCURVE_S1.);
#27 = LINE('',#28,#29);
#28 = CARTESIAN_POINT('',(100.,50.,0.));
#29 = VECTOR('',#30,1.);
#30 = DIRECTION('',(0.,0.,1.));
#31 = PCURVE('',#32,#37);
#32 = CYLINDRICAL_SURFACE('',#33,50.);
#33 = AXIS2_PLACEMENT_3D('',#34,#35,#36);
#34 = CARTESIAN_POINT('',(50.,50.,0.));
#35 = DIRECTION('',(0.,0.,1.));
#36 = DIRECTION('',(1.,0.,0.));
#37 = DEFINITIONAL_REPRESENTATION('',(#38),#41);
#38 = B_SPLINE_CURVE_WITH_KNOTS('',1,(#39,#40),.UNSPECIFIED.,.F.,.F.,(2,
    2),(0.,150.),.PIECEWISE_BEZIER_KNOTS.);
#39 = CARTESIAN_POINT('',(6.28318530718,0.));
#40 = CARTESIAN_POINT('',(6.28318530718,150.));
#41 = ( GEOMETRIC_REPRESENTATION_CONTEXT(2) 
PARAMETRIC_REPRESENTATION_CONTEXT() REPRESENTATION_CONTEXT('2D SPACE',''
  ) );
#42 = PCURVE('',#32,#43);
#43 = DEFINITIONAL_REPRESENTATION('',(#44),#47);
#44 = B_SPLINE_CURVE_WITH_KNOTS('',1,(#45,#46),.UNSPECIFIED.,.F.,.F.,(2,
    2),(0.,150.),.PIECEWISE_BEZIER_KNOTS.);
#45 = CARTESIAN_POINT('',(0.,0.));
#46 = CARTESIAN_POINT('',(0.,150.));
#47 = ( GEOMETRIC_REPRESENTATION_CONTEXT(2) 
PARAMETRIC_REPRESENTATION_CONTEXT() REPRESENTATION_CONTEXT('2D SPACE',''
  ) );
#48 = ORIENTED_EDGE('',*,*,#49,.F.);
#49 = EDGE_CURVE('',#24,#24,#50,.T.);
#50 = SURFACE_CURVE('',#51,(#56,#62),.PCURVE_S1.);
#51 = CIRCLE('',#52,50.);
#52 = AXIS2_PLACEMENT_3D('',#53,#54,#55);
#53 = CARTESIAN_POINT('',(50.,50.,150.));
#54 = DIRECTION('',(0.,0.,1.));
#55 = DIRECTION('',(1.,0.,-0.));
#56 = PCURVE('',#32,#57);
#57 = DEFINITIONAL_REPRESENTATION('',(#58),#61);
#58 = B_SPLINE_CURVE_WITH_KNOTS('',1,(#59,#60),.UNSPECIFIED.,.F.,.F.,(2,
    2),(0.,6.28318530718),.PIECEWISE_BEZIER_KNOTS.);
#59 = CARTESIAN_POINT('',(0.,150.));
#60 = CARTESIAN_POINT('',(6.28318530718,150.));
#61 = ( GEOMETRIC_REPRESENTATION_CONTEXT(2) 
PARAMETRIC_REPRESENTATION_CONTEXT() REPRESENTATION_CONTEXT('2D SPACE',''
  ) );
#62 = PCURVE('',#63,#68);
#63 = PLANE('',#64);
#64 = AXIS2_PLACEMENT_3D('',#65,#66,#67);
#65 = CARTESIAN_POINT('',(50.,50.,150.));
#66 = DIRECTION('',(0.,0.,1.));
#67 = DIRECTION('',(1.,0.,0.));
#68 = DEFINITIONAL_REPRESENTATION('',(#69),#73);
#69 = CIRCLE('',#70,50.);
#70 = AXIS2_PLACEMENT_2D('',#71,#72);
#71 = CARTESIAN_POINT('',(0.,0.));
#72 = DIRECTION('',(1.,0.));
#73 = ( GEOMETRIC_REPRESENTATION_CONTEXT(2) 
PARAMETRIC_REPRESENTATION_CONTEXT() REPRESENTATION_CONTEXT('2D SPACE',''
  ) );
#74 = ORIENTED_EDGE('',*,*,#21,.F.);
#75 = ORIENTED_EDGE('',*,*,#76,.T.);
#76 = EDGE_CURVE('',#22,#22,#77,.T.);
#77 = SURFACE_CURVE('',#78,(#83,#89),.PCURVE_S1.);
#78 = CIRCLE('',#79,50.);
#79 = AXIS2_PLACEMENT_3D('',#80,#81,#82);
#80 = CARTESIAN_POINT('',(50.,50.,0.));
#81 = DIRECTION('',(0.,0.,1.));
#82 = DIRECTION('',(1.,0.,-0.));
#83 = PCURVE('',#32,#84);
#84 = DEFINITIONAL_REPRESENTATION('',(#85),#88);
#85 = B_SPLINE_CURVE_WITH_KNOTS('',1,(#86,#87),.UNSPECIFIED.,.F.,.F.,(2,
    2),(0.,6.28318530718),.PIECEWISE_BEZIER_KNOTS.);
#86 = CARTESIAN_POINT('',(0.,0.));
#87 = CARTESIAN_POINT('',(6.28318530718,0.));
#88 = ( GEOMETRIC_REPRESENTATION_CONTEXT(2) 
PARAMETRIC_REPRESENTATION_CONTEXT() REPRESENTATION_CONTEXT('2D SPACE',''
  ) );
#89 = PCURVE('',#90,#95);
#90 = PLANE('',#91);
#91 = AXIS2_PLACEMENT_3D('',#92,#93,#94);
#92 = CARTESIAN_POINT('',(50.,50.,0.));
#93 = DIRECTION('',(0.,0.,1.));
#94 = DIRECTION('',(1.,0.,0.));
#95 = DEFINITIONAL_REPRESENTATION('',(#96),#100);
#96 = CIRCLE('',#97,50.);
#97 = AXIS2_PLACEMENT_2D('',#98,#99);
#98 = CARTESIAN_POINT('',(0.,0.));
#99 = DIRECTION('',(1.,0.));
#100 = ( GEOMETRIC_REPRESENTATION_CONTEXT(2) 
PARAMETRIC_REPRESENTATION_CONTEXT() REPRESENTATION_CONTEXT('2D SPACE',''
  ) );
#101 = FACE_BOUND('',#102,.T.);
#102 = EDGE_LOOP('',(#103));
#103 = ORIENTED_EDGE('',*,*,#104,.F.);
#104 = EDGE_CURVE('',#105,#105,#107,.T.);
#105 = VERTEX_POINT('',#106);
#106 = CARTESIAN_POINT('',(80.,10.,70.));
#107 = SURFACE_CURVE('',#108,(#211,#317),.PCURVE_S1.);
#108 = B_SPLINE_CURVE_WITH_KNOTS('',6,(#109,#110,#111,#112,#113,#114,
    #115,#116,#117,#118,#119,#120,#121,#122,#123,#124,#125,#126,#127,
    #128,#129,#130,#131,#132,#133,#134,#135,#136,#137,#138,#139,#140,
    #141,#142,#143,#144,#145,#146,#147,#148,#149,#150,#151,#152,#153,
    #154,#155,#156,#157,#158,#159,#160,#161,#162,#163,#164,#165,#166,
    #167,#168,#169,#170,#171,#172,#173,#174,#175,#176,#177,#178,#179,
    #180,#181,#182,#183,#184,#185,#186,#187,#188,#189,#190,#191,#192,
    #193,#194,#195,#196,#197,#198,#199,#200,#201,#202,#203,#204,#205,
    #206,#207,#208,#209,#210),.UNSPECIFIED.,.T.,.F.,(7,5,5,5,5,5,5,5,5,5
    ,5,5,5,5,5,5,5,5,5,5,7),(0.,5.000817576503E-02,0.100156608601,
    0.149036806949,0.194464014023,0.24946430386,0.305513810636,
    0.331111051287,0.401535091661,0.449925539262,0.500004236126,
    0.55036005031,0.60048800093,0.668798919877,0.716728340698,
    0.774450758599,0.805865790516,0.831367901397,0.901530217358,
    0.949740826351,1.),.UNSPECIFIED.);
#109 = CARTESIAN_POINT('',(80.,10.,70.));
#110 = CARTESIAN_POINT('',(80.,10.,71.419396122076));
#111 = CARTESIAN_POINT('',(79.919412973789,9.939559773012,
    72.837677003049));
#112 = CARTESIAN_POINT('',(79.758473784147,9.818855189437,
    74.249718744237));
#113 = CARTESIAN_POINT('',(79.517743775046,9.640210698892,
    75.650285441007));
#114 = CARTESIAN_POINT('',(79.198173825381,9.40810639717,77.033769787652
    ));
#115 = CARTESIAN_POINT('',(78.404234026249,8.848621026156,
    79.757972989208));
#116 = CARTESIAN_POINT('',(77.929379296373,8.520934388507,
    81.098756962029));
#117 = CARTESIAN_POINT('',(77.378004154191,8.151129469494,
    82.413988086312));
#118 = CARTESIAN_POINT('',(76.750406389585,7.745394056015,
    83.700773398077));
#119 = CARTESIAN_POINT('',(76.046563700823,7.310492455337,
    84.955628393997));
#120 = CARTESIAN_POINT('',(74.505816898187,6.408238785799,
    87.362449445097));
#121 = CARTESIAN_POINT('',(73.672434502871,5.941816083448,
    88.516667527076));
#122 = CARTESIAN_POINT('',(72.764768533939,5.460255252019,
    89.635055381747));
#123 = CARTESIAN_POINT('',(71.780598392469,4.969719965561,
    90.714498880494));
#124 = CARTESIAN_POINT('',(70.7172132931,4.476966059657,91.75043599325)
  );
#125 = CARTESIAN_POINT('',(68.507173709501,3.536865431487,
    93.652855341541));
#126 = CARTESIAN_POINT('',(67.370758831249,3.088369421646,
    94.526955926087));
#127 = CARTESIAN_POINT('',(66.160384549765,2.650594911716,
    95.353115262648));
#128 = CARTESIAN_POINT('',(64.874090526554,2.230759633066,
    96.124290542379));
#129 = CARTESIAN_POINT('',(63.510434914454,1.836997282839,
    96.831837995956));
#130 = CARTESIAN_POINT('',(60.323513768342,1.044307880034,
    98.232242829888));
#131 = CARTESIAN_POINT('',(58.449175177973,0.658096051355,
    98.897076162146));
#132 = CARTESIAN_POINT('',(56.468935282233,0.34450738817,99.425581159586
    ));
#133 = CARTESIAN_POINT('',(54.409630692673,0.123616276391,
    99.793969527378));
#134 = CARTESIAN_POINT('',(52.300557562545,7.617175340546E-03,
    99.98730457685));
#135 = CARTESIAN_POINT('',(48.002791950231,-7.165314020439E-03,
    100.01194231821));
#136 = CARTESIAN_POINT('',(45.8485434613,9.835852527902E-02,
    99.83606628788));
#137 = CARTESIAN_POINT('',(43.742142871904,0.313970076626,
    99.476912989797));
#138 = CARTESIAN_POINT('',(41.715632979373,0.627377327955,
    98.949575420663));
#139 = CARTESIAN_POINT('',(39.798452708348,1.017356233795,
    98.279127053612));
#140 = CARTESIAN_POINT('',(37.201903066521,1.65838458737,97.147692660884
    ));
#141 = CARTESIAN_POINT('',(36.412245116383,1.870713102991,
    96.769198881832));
#142 = CARTESIAN_POINT('',(35.64704021511,2.092755986701,96.368823756531
    ));
#143 = CARTESIAN_POINT('',(34.906265624855,2.322938498034,
    95.948323203203));
#144 = CARTESIAN_POINT('',(34.189818696736,2.559763548724,
    95.509319685552));
#145 = CARTESIAN_POINT('',(31.592847094451,3.467774604899,93.79870841518
    ));
#146 = CARTESIAN_POINT('',(29.869361447756,4.173890950325,
    92.414305490585));
#147 = CARTESIAN_POINT('',(28.318572704319,4.892772264529,
    90.927217376287));
#148 = CARTESIAN_POINT('',(26.930753812517,5.602630057143,
    89.354697627399));
#149 = CARTESIAN_POINT('',(25.697762948983,6.285243845145,
    87.706688754389));
#150 = CARTESIAN_POINT('',(23.871501413547,7.361438720703,
    84.807073631478));
#151 = CARTESIAN_POINT('',(23.198845918246,7.778587977916,
    83.592881339687));
#152 = CARTESIAN_POINT('',(22.597229687383,8.168149534751,
    82.349107443793));
#153 = CARTESIAN_POINT('',(22.066662035742,8.524050912112,
    81.078882274567));
#154 = CARTESIAN_POINT('',(21.607424564623,8.840725777246,
    79.784824999559));
#155 = CARTESIAN_POINT('',(20.81953504047,9.395313380762,77.107401300356
    ));
#156 = CARTESIAN_POINT('',(20.495910648944,9.630156410268,
    75.722186450275));
#157 = CARTESIAN_POINT('',(20.251376461454,9.811511684289,
    74.319653136143));
#158 = CARTESIAN_POINT('',(20.086895265583,9.934829231449,
    72.905426608439));
#159 = CARTESIAN_POINT('',(20.003040381687,9.997719721446,
    71.484753167706));
#160 = CARTESIAN_POINT('',(19.997074444056,10.002194159372,
    68.63289458765));
#161 = CARTESIAN_POINT('',(20.075865771305,9.943101329898,
    67.203981076858));
#162 = CARTESIAN_POINT('',(20.236212810362,9.822799100817,
    65.781266173213));
#163 = CARTESIAN_POINT('',(20.477548872836,9.643630001915,
    64.370108087269));
#164 = CARTESIAN_POINT('',(20.798907350324,9.410163277925,62.97624541816
    ));
#165 = CARTESIAN_POINT('',(21.595765973751,8.848621026156,
    60.242027010792));
#166 = CARTESIAN_POINT('',(22.070620703628,8.520934388507,
    58.901243037971));
#167 = CARTESIAN_POINT('',(22.621995845809,8.151129469494,
    57.586011913688));
#168 = CARTESIAN_POINT('',(23.249593610415,7.745394056015,
    56.299226601923));
#169 = CARTESIAN_POINT('',(23.953436299177,7.310492455337,
    55.044371606003));
#170 = CARTESIAN_POINT('',(25.796932167635,6.230950437629,
    52.164622216791));
#171 = CARTESIAN_POINT('',(27.002098965394,5.567432983915,
    50.570561002526));
#172 = CARTESIAN_POINT('',(28.353272747586,4.879043631581,
    49.048032314491));
#173 = CARTESIAN_POINT('',(29.85789040075,4.182513646609,47.60626963676)
  );
#174 = CARTESIAN_POINT('',(31.524795510014,3.497723322577,
    46.260988905539));
#175 = CARTESIAN_POINT('',(34.650762263453,2.394652464613,
    44.177524225612));
#176 = CARTESIAN_POINT('',(36.02713828849,1.956513963561,43.375504455713
    ));
#177 = CARTESIAN_POINT('',(37.490128623084,1.545385855165,
    42.642572484456));
#178 = CARTESIAN_POINT('',(39.037826112161,1.172267506026,
    41.991116677499));
#179 = CARTESIAN_POINT('',(40.667000409487,0.848455050699,
    41.434178944781));
#180 = CARTESIAN_POINT('',(44.427243513193,0.26806396754,40.445701374125
    ));
#181 = CARTESIAN_POINT('',(46.5973080646,3.804738057589E-02,
    40.061859583047));
#182 = CARTESIAN_POINT('',(48.83581059923,-7.845601873105E-02,
    39.870441759409));
#183 = CARTESIAN_POINT('',(51.091808757403,-6.84245849259E-02,
    39.886111616917));
#184 = CARTESIAN_POINT('',(53.313689576005,6.355380821019E-02,
    40.104350402019));
#185 = CARTESIAN_POINT('',(56.616402499856,0.42586976053,40.714775628917
    ));
#186 = CARTESIAN_POINT('',(57.754705027,0.583849614756,40.982158823014)
  );
#187 = CARTESIAN_POINT('',(58.863752537459,0.769370205547,
    41.298281311453));
#188 = CARTESIAN_POINT('',(59.940262650041,0.97922472624,41.659228085616
    ));
#189 = CARTESIAN_POINT('',(60.981252033677,1.209847391677,
    42.060625650165));
#190 = CARTESIAN_POINT('',(62.798096933481,1.65838458737,42.852307339117
    ));
#191 = CARTESIAN_POINT('',(63.587754883618,1.870713102991,
    43.230801118169));
#192 = CARTESIAN_POINT('',(64.352959784891,2.092755986701,43.63117624347
    ));
#193 = CARTESIAN_POINT('',(65.093734375146,2.322938498034,
    44.051676796798));
#194 = CARTESIAN_POINT('',(65.810181303264,2.559763548724,
    44.490680314449));
#195 = CARTESIAN_POINT('',(68.407152905549,3.467774604899,46.20129158482
    ));
#196 = CARTESIAN_POINT('',(70.130638552248,4.173890950327,
    47.585694509418));
#197 = CARTESIAN_POINT('',(71.681427295677,4.892772264527,
    49.072782623711));
#198 = CARTESIAN_POINT('',(73.069246187486,5.602630057145,
    50.645302372604));
#199 = CARTESIAN_POINT('',(74.302237051017,6.285243845145,
    52.293311245612));
#200 = CARTESIAN_POINT('',(76.128498586454,7.361438720703,
    55.192926368524));
#201 = CARTESIAN_POINT('',(76.801154081755,7.778587977916,
    56.407118660314));
#202 = CARTESIAN_POINT('',(77.402770312618,8.168149534752,
    57.650892556209));
#203 = CARTESIAN_POINT('',(77.933337964259,8.524050912112,
    58.921117725434));
#204 = CARTESIAN_POINT('',(78.392575435377,8.840725777246,
    60.215175000442));
#205 = CARTESIAN_POINT('',(79.183409125867,9.397385750178,
    62.902603631151));
#206 = CARTESIAN_POINT('',(79.508847647832,9.633609664063,
    64.298193759137));
#207 = CARTESIAN_POINT('',(79.754011643397,9.815508578235,
    65.711319777153));
#208 = CARTESIAN_POINT('',(79.917921979801,9.938441529212,67.13622299161
    ));
#209 = CARTESIAN_POINT('',(80.,10.,68.567533263456));
#210 = CARTESIAN_POINT('',(80.,10.,70.));
#211 = PCURVE('',#32,#212);
#212 = DEFINITIONAL_REPRESENTATION('',(#213),#316);
#213 = B_SPLINE_CURVE_WITH_KNOTS('',6,(#214,#215,#216,#217,#218,#219,
    #220,#221,#222,#223,#224,#225,#226,#227,#228,#229,#230,#231,#232,
    #233,#234,#235,#236,#237,#238,#239,#240,#241,#242,#243,#244,#245,
    #246,#247,#248,#249,#250,#251,#252,#253,#254,#255,#256,#257,#258,
    #259,#260,#261,#262,#263,#264,#265,#266,#267,#268,#269,#270,#271,
    #272,#273,#274,#275,#276,#277,#278,#279,#280,#281,#282,#283,#284,
    #285,#286,#287,#288,#289,#290,#291,#292,#293,#294,#295,#296,#297,
    #298,#299,#300,#301,#302,#303,#304,#305,#306,#307,#308,#309,#310,
    #311,#312,#313,#314,#315),.UNSPECIFIED.,.T.,.F.,(7,5,5,5,5,5,5,5,5,5
    ,5,5,5,5,5,5,5,5,5,5,7),(0.,5.000817576503E-02,0.100156608601,
    0.149036806949,0.194464014023,0.24946430386,0.305513810636,
    0.331111051287,0.401535091661,0.449925539262,0.500004236126,
    0.55036005031,0.60048800093,0.668798919877,0.716728340698,
    0.774450758599,0.805865790516,0.831367901397,0.901530217358,
    0.949740826351,1.),.UNSPECIFIED.);
#214 = CARTESIAN_POINT('',(5.355890089178,70.));
#215 = CARTESIAN_POINT('',(5.355890089178,71.419396122076));
#216 = CARTESIAN_POINT('',(5.353875419043,72.837677003049));
#217 = CARTESIAN_POINT('',(5.349851913606,74.249718744237));
#218 = CARTESIAN_POINT('',(5.343856556462,75.650285441007));
#219 = CARTESIAN_POINT('',(5.335958068911,77.033769787652));
#220 = CARTESIAN_POINT('',(5.316532680523,79.757972989208));
#221 = CARTESIAN_POINT('',(5.304994340749,81.098756962029));
#222 = CARTESIAN_POINT('',(5.291718106394,82.413988086312));
#223 = CARTESIAN_POINT('',(5.276775436725,83.700773398077));
#224 = CARTESIAN_POINT('',(5.260232779707,84.955628393997));
#225 = CARTESIAN_POINT('',(5.224523047733,87.362449445097));
#226 = CARTESIAN_POINT('',(5.205426196331,88.516667527076));
#227 = CARTESIAN_POINT('',(5.184884288664,89.635055381747));
#228 = CARTESIAN_POINT('',(5.162903632591,90.714498880494));
#229 = CARTESIAN_POINT('',(5.139475294943,91.75043599325));
#230 = CARTESIAN_POINT('',(5.091441706061,93.652855341541));
#231 = CARTESIAN_POINT('',(5.067015877396,94.526955926087));
#232 = CARTESIAN_POINT('',(5.041290441827,95.353115262648));
#233 = CARTESIAN_POINT('',(5.014251347678,96.124290542379));
#234 = CARTESIAN_POINT('',(4.985883727163,96.831837995956));
#235 = CARTESIAN_POINT('',(4.920203219001,98.232242829888));
#236 = CARTESIAN_POINT('',(4.881960371794,98.897076162146));
#237 = CARTESIAN_POINT('',(4.84192926088,99.425581159586));
#238 = CARTESIAN_POINT('',(4.800589647068,99.793969527378));
#239 = CARTESIAN_POINT('',(4.758400390242,99.98730457685));
#240 = CARTESIAN_POINT('',(4.672444569543,100.01194231821));
#241 = CARTESIAN_POINT('',(4.629367035828,99.83606628788));
#242 = CARTESIAN_POINT('',(4.587107502803,99.476912989797));
#243 = CARTESIAN_POINT('',(4.546167543238,98.949575420663));
#244 = CARTESIAN_POINT('',(4.507072110893,98.279127053612));
#245 = CARTESIAN_POINT('',(4.453581972016,97.147692660884));
#246 = CARTESIAN_POINT('',(4.437231334502,96.769198881832));
#247 = CARTESIAN_POINT('',(4.421300447079,96.368823756531));
#248 = CARTESIAN_POINT('',(4.405790048645,95.948323203203));
#249 = CARTESIAN_POINT('',(4.390700772191,95.509319685552));
#250 = CARTESIAN_POINT('',(4.335678065674,93.79870841518));
#251 = CARTESIAN_POINT('',(4.298478821963,92.414305490585));
#252 = CARTESIAN_POINT('',(4.264337544697,90.927217376287));
#253 = CARTESIAN_POINT('',(4.233188105777,89.354697627399));
#254 = CARTESIAN_POINT('',(4.205011552315,87.706688754389));
#255 = CARTESIAN_POINT('',(4.162616144044,84.807073631478));
#256 = CARTESIAN_POINT('',(4.146790105299,83.592881339687));
#257 = CARTESIAN_POINT('',(4.132458969576,82.349107443793));
#258 = CARTESIAN_POINT('',(4.119683058817,81.078882274567));
#259 = CARTESIAN_POINT('',(4.108526840915,79.784824999559));
#260 = CARTESIAN_POINT('',(4.089256788375,77.107401300356));
#261 = CARTESIAN_POINT('',(4.081260525699,75.722186450275));
#262 = CARTESIAN_POINT('',(4.07517177362,74.319653136143));
#263 = CARTESIAN_POINT('',(4.071060239939,72.905426608439));
#264 = CARTESIAN_POINT('',(4.068963881041,71.484753167706));
#265 = CARTESIAN_POINT('',(4.068814732784,68.63289458765));
#266 = CARTESIAN_POINT('',(4.070784502735,67.203981076858));
#267 = CARTESIAN_POINT('',(4.07479370656,65.781266173213));
#268 = CARTESIAN_POINT('',(4.080805053691,64.370108087269));
#269 = CARTESIAN_POINT('',(4.088748476752,62.97624541816));
#270 = CARTESIAN_POINT('',(4.108245280246,60.242027010792));
#271 = CARTESIAN_POINT('',(4.119783620021,58.901243037971));
#272 = CARTESIAN_POINT('',(4.133059854376,57.586011913688));
#273 = CARTESIAN_POINT('',(4.148002524045,56.299226601923));
#274 = CARTESIAN_POINT('',(4.164545181063,55.044371606003));
#275 = CARTESIAN_POINT('',(4.207271697349,52.164622216791));
#276 = CARTESIAN_POINT('',(4.234777020962,50.570561002526));
#277 = CARTESIAN_POINT('',(4.265080428517,49.048032314491));
#278 = CARTESIAN_POINT('',(4.298199788877,47.60626963676));
#279 = CARTESIAN_POINT('',(4.334195444934,46.260988905539));
#280 = CARTESIAN_POINT('',(4.400493057143,44.177524225612));
#281 = CARTESIAN_POINT('',(4.429367783635,43.375504455713));
#282 = CARTESIAN_POINT('',(4.459732853405,42.642572484456));
#283 = CARTESIAN_POINT('',(4.491537108197,41.991116677499));
#284 = CARTESIAN_POINT('',(4.524727105345,41.434178944781));
#285 = CARTESIAN_POINT('',(4.600822524414,40.445701374125));
#286 = CARTESIAN_POINT('',(4.64441784898,40.061859583047));
#287 = CARTESIAN_POINT('',(4.689147665435,39.870441759409));
#288 = CARTESIAN_POINT('',(4.734162770669,39.886111616917));
#289 = CARTESIAN_POINT('',(4.778623443675,40.104350402019));
#290 = CARTESIAN_POINT('',(4.845073983196,40.714775628917));
#291 = CARTESIAN_POINT('',(4.86804879796,40.982158823014));
#292 = CARTESIAN_POINT('',(4.890525255828,41.298281311453));
#293 = CARTESIAN_POINT('',(4.912449671849,41.659228085616));
#294 = CARTESIAN_POINT('',(4.933768132785,42.060625650165));
#295 = CARTESIAN_POINT('',(4.971195988753,42.852307339117));
#296 = CARTESIAN_POINT('',(4.987546626267,43.230801118169));
#297 = CARTESIAN_POINT('',(5.003477513691,43.63117624347));
#298 = CARTESIAN_POINT('',(5.018987912124,44.051676796798));
#299 = CARTESIAN_POINT('',(5.034077188578,44.490680314449));
#300 = CARTESIAN_POINT('',(5.089099895096,46.20129158482));
#301 = CARTESIAN_POINT('',(5.126299138806,47.585694509418));
#302 = CARTESIAN_POINT('',(5.160440416072,49.072782623711));
#303 = CARTESIAN_POINT('',(5.191589854992,50.645302372604));
#304 = CARTESIAN_POINT('',(5.219766408455,52.293311245612));
#305 = CARTESIAN_POINT('',(5.262161816725,55.192926368524));
#306 = CARTESIAN_POINT('',(5.277987855471,56.407118660314));
#307 = CARTESIAN_POINT('',(5.292318991193,57.650892556209));
#308 = CARTESIAN_POINT('',(5.305094901952,58.921117725434));
#309 = CARTESIAN_POINT('',(5.316251119854,60.215175000442));
#310 = CARTESIAN_POINT('',(5.335593180256,62.902603631151));
#311 = CARTESIAN_POINT('',(5.343635008782,64.298193759137));
#312 = CARTESIAN_POINT('',(5.349740358713,65.711319777153));
#313 = CARTESIAN_POINT('',(5.353838144562,67.13622299161));
#314 = CARTESIAN_POINT('',(5.355890089178,68.567533263456));
#315 = CARTESIAN_POINT('',(5.355890089178,70.));
#316 = ( GEOMETRIC_REPRESENTATION_CONTEXT(2) 
PARAMETRIC_REPRESENTATION_CONTEXT() REPRESENTATION_CONTEXT('2D SPACE',''
  ) );
#317 = PCURVE('',#318,#323);
#318 = CYLINDRICAL_SURFACE('',#319,30.);
#319 = AXIS2_PLACEMENT_3D('',#320,#321,#322);
#320 = CARTESIAN_POINT('',(50.,120.,70.));
#321 = DIRECTION('',(0.,-1.,1.110223024625E-16));
#322 = DIRECTION('',(1.,0.,0.));
#323 = DEFINITIONAL_REPRESENTATION('',(#324),#427);
#324 = B_SPLINE_CURVE_WITH_KNOTS('',6,(#325,#326,#327,#328,#329,#330,
    #331,#332,#333,#334,#335,#336,#337,#338,#339,#340,#341,#342,#343,
    #344,#345,#346,#347,#348,#349,#350,#351,#352,#353,#354,#355,#356,
    #357,#358,#359,#360,#361,#362,#363,#364,#365,#366,#367,#368,#369,
    #370,#371,#372,#373,#374,#375,#376,#377,#378,#379,#380,#381,#382,
    #383,#384,#385,#386,#387,#388,#389,#390,#391,#392,#393,#394,#395,
    #396,#397,#398,#399,#400,#401,#402,#403,#404,#405,#406,#407,#408,
    #409,#410,#411,#412,#413,#414,#415,#416,#417,#418,#419,#420,#421,
    #422,#423,#424,#425,#426),.UNSPECIFIED.,.F.,.F.,(7,5,5,5,5,5,5,5,5,5
    ,5,5,5,5,5,5,5,5,5,5,7),(0.,5.000817576503E-02,0.100156608601,
    0.149036806949,0.194464014023,0.24946430386,0.305513810636,
    0.331111051287,0.401535091661,0.449925539262,0.500004236126,
    0.55036005031,0.60048800093,0.668798919877,0.716728340698,
    0.774450758599,0.805865790516,0.831367901397,0.901530217358,
    0.949740826351,1.),.UNSPECIFIED.);
#325 = CARTESIAN_POINT('',(0.,110.));
#326 = CARTESIAN_POINT('',(4.731320406921E-02,110.));
#327 = CARTESIAN_POINT('',(9.458921430493E-02,110.06044022698));
#328 = CARTESIAN_POINT('',(0.141848006345,110.18114481056));
#329 = CARTESIAN_POINT('',(0.189103755584,110.3597893011));
#330 = CARTESIAN_POINT('',(0.236358452338,110.59189360283));
#331 = CARTESIAN_POINT('',(0.330943061657,111.15137897384));
#332 = CARTESIAN_POINT('',(0.378279606897,111.47906561149));
#333 = CARTESIAN_POINT('',(0.425703090314,111.8488705305));
#334 = CARTESIAN_POINT('',(0.473309028838,112.25460594398));
#335 = CARTESIAN_POINT('',(0.521186578567,112.68950754466));
#336 = CARTESIAN_POINT('',(0.616444639071,113.5917612142));
#337 = CARTESIAN_POINT('',(0.663824922278,114.05818391655));
#338 = CARTESIAN_POINT('',(0.711721808094,114.53974474798));
#339 = CARTESIAN_POINT('',(0.760288407921,115.03028003443));
#340 = CARTESIAN_POINT('',(0.809680445666,115.52303394034));
#341 = CARTESIAN_POINT('',(0.906882836685,116.46313456851));
#342 = CARTESIAN_POINT('',(0.954600149668,116.91163057835));
#343 = CARTESIAN_POINT('',(1.003328704099,117.34940508828));
#344 = CARTESIAN_POINT('',(1.053183574824,117.76924036693));
#345 = CARTESIAN_POINT('',(1.104286548781,118.16300271716));
#346 = CARTESIAN_POINT('',(1.220321026848,118.95569211996));
#347 = CARTESIAN_POINT('',(1.286435485575,119.34190394864));
#348 = CARTESIAN_POINT('',(1.354415708056,119.65549261183));
#349 = CARTESIAN_POINT('',(1.423771696352,119.8763837236));
#350 = CARTESIAN_POINT('',(1.494109877438,119.99238282465));
#351 = CARTESIAN_POINT('',(1.63737108517,120.00716531402));
#352 = CARTESIAN_POINT('',(1.709144525731,119.90164147472));
#353 = CARTESIAN_POINT('',(1.77996889168,119.68602992337));
#354 = CARTESIAN_POINT('',(1.849407529688,119.37262267204));
#355 = CARTESIAN_POINT('',(1.91692055234,118.9826437662));
#356 = CARTESIAN_POINT('',(2.011332261992,118.34161541263));
#357 = CARTESIAN_POINT('',(2.040502696398,118.129286897));
#358 = CARTESIAN_POINT('',(2.069263903384,117.90724401329));
#359 = CARTESIAN_POINT('',(2.097633185078,117.67706150196));
#360 = CARTESIAN_POINT('',(2.125626523778,117.44023645127));
#361 = CARTESIAN_POINT('',(2.229284360601,116.5322253951));
#362 = CARTESIAN_POINT('',(2.302645736025,115.82610904967));
#363 = CARTESIAN_POINT('',(2.373872503696,115.10722773547));
#364 = CARTESIAN_POINT('',(2.443437451376,114.39736994285));
#365 = CARTESIAN_POINT('',(2.511823519664,113.71475615485));
#366 = CARTESIAN_POINT('',(2.626050384848,112.63856127929));
#367 = CARTESIAN_POINT('',(2.672246276052,112.22141202208));
#368 = CARTESIAN_POINT('',(2.718195935776,111.83185046524));
#369 = CARTESIAN_POINT('',(2.763979146505,111.47594908788));
#370 = CARTESIAN_POINT('',(2.809681381272,111.15927422275));
#371 = CARTESIAN_POINT('',(2.9027128429,110.60468661923));
#372 = CARTESIAN_POINT('',(2.950053887271,110.36984358973));
#373 = CARTESIAN_POINT('',(2.997395235041,110.18848831571));
#374 = CARTESIAN_POINT('',(3.044739270217,110.06517076855));
#375 = CARTESIAN_POINT('',(3.092100776091,110.00228027855));
#376 = CARTESIAN_POINT('',(3.187162936766,109.99780584062));
#377 = CARTESIAN_POINT('',(3.234787768451,110.0568986701));
#378 = CARTESIAN_POINT('',(3.282395303047,110.17720089918));
#379 = CARTESIAN_POINT('',(3.329999873663,110.35636999808));
#380 = CARTESIAN_POINT('',(3.377603376974,110.58983672207));
#381 = CARTESIAN_POINT('',(3.472535715246,111.15137897384));
#382 = CARTESIAN_POINT('',(3.519872260487,111.47906561149));
#383 = CARTESIAN_POINT('',(3.567295743904,111.8488705305));
#384 = CARTESIAN_POINT('',(3.614901682427,112.25460594398));
#385 = CARTESIAN_POINT('',(3.662779232157,112.68950754466));
#386 = CARTESIAN_POINT('',(3.776755026671,113.76904956237));
#387 = CARTESIAN_POINT('',(3.843165148581,114.43256701608));
#388 = CARTESIAN_POINT('',(3.910701571015,115.12095636841));
#389 = CARTESIAN_POINT('',(3.979805599804,115.81748635339));
#390 = CARTESIAN_POINT('',(4.050910868977,116.50227667742));
#391 = CARTESIAN_POINT('',(4.176132863921,117.60534753538));
#392 = CARTESIAN_POINT('',(4.229136091716,118.04348603643));
#393 = CARTESIAN_POINT('',(4.283513393309,118.45461414483));
#394 = CARTESIAN_POINT('',(4.339293802185,118.82773249397));
#395 = CARTESIAN_POINT('',(4.396535389596,119.1515449493));
#396 = CARTESIAN_POINT('',(4.526135270026,119.73193603246));
#397 = CARTESIAN_POINT('',(4.599346708138,119.96195261942));
#398 = CARTESIAN_POINT('',(4.673773428194,120.07845601873));
#399 = CARTESIAN_POINT('',(4.748502397584,120.06842458492));
#400 = CARTESIAN_POINT('',(4.822653613661,119.93644619179));
#401 = CARTESIAN_POINT('',(4.934608622556,119.57413023947));
#402 = CARTESIAN_POINT('',(4.973540000224,119.41615038524));
#403 = CARTESIAN_POINT('',(5.011918201111,119.23062979445));
#404 = CARTESIAN_POINT('',(5.049707990214,119.02077527376));
#405 = CARTESIAN_POINT('',(5.086863620084,118.79015260832));
#406 = CARTESIAN_POINT('',(5.152924915582,118.34161541263));
#407 = CARTESIAN_POINT('',(5.182095349988,118.129286897));
#408 = CARTESIAN_POINT('',(5.210856556974,117.90724401329));
#409 = CARTESIAN_POINT('',(5.239225838667,117.67706150196));
#410 = CARTESIAN_POINT('',(5.267219177368,117.44023645127));
#411 = CARTESIAN_POINT('',(5.370877014191,116.5322253951));
#412 = CARTESIAN_POINT('',(5.444238389615,115.82610904967));
#413 = CARTESIAN_POINT('',(5.515465157285,115.10722773547));
#414 = CARTESIAN_POINT('',(5.585030104966,114.39736994285));
#415 = CARTESIAN_POINT('',(5.653416173254,113.71475615485));
#416 = CARTESIAN_POINT('',(5.767643038438,112.63856127929));
#417 = CARTESIAN_POINT('',(5.813838929641,112.22141202208));
#418 = CARTESIAN_POINT('',(5.859788589366,111.83185046524));
#419 = CARTESIAN_POINT('',(5.905571800095,111.47594908788));
#420 = CARTESIAN_POINT('',(5.951274034862,111.15927422275));
#421 = CARTESIAN_POINT('',(6.044653134184,110.60261424982));
#422 = CARTESIAN_POINT('',(6.092343024282,110.36639033593));
#423 = CARTESIAN_POINT('',(6.140033265243,110.18449142176));
#424 = CARTESIAN_POINT('',(6.187726093837,110.06155847078));
#425 = CARTESIAN_POINT('',(6.235436415961,110.));
#426 = CARTESIAN_POINT('',(6.28318530718,110.));
#427 = ( GEOMETRIC_REPRESENTATION_CONTEXT(2) 
PARAMETRIC_REPRESENTATION_CONTEXT() REPRESENTATION_CONTEXT('2D SPACE',''
  ) );
#428 = FACE_BOUND('',#429,.T.);
#429 = EDGE_LOOP('',(#430));
#430 = ORIENTED_EDGE('',*,*,#431,.T.);
#431 = EDGE_CURVE('',#432,#432,#434,.T.);
#432 = VERTEX_POINT('',#433);
#433 = CARTESIAN_POINT('',(80.,90.,70.));
#434 = SURFACE_CURVE('',#435,(#538,#644),.PCURVE_S1.);
#435 = B_SPLINE_CURVE_WITH_KNOTS('',6,(#436,#437,#438,#439,#440,#441,
    #442,#443,#444,#445,#446,#447,#448,#449,#450,#451,#452,#453,#454,
    #455,#456,#457,#458,#459,#460,#461,#462,#463,#464,#465,#466,#467,
    #468,#469,#470,#471,#472,#473,#474,#475,#476,#477,#478,#479,#480,
    #481,#482,#483,#484,#485,#486,#487,#488,#489,#490,#491,#492,#493,
    #494,#495,#496,#497,#498,#499,#500,#501,#502,#503,#504,#505,#506,
    #507,#508,#509,#510,#511,#512,#513,#514,#515,#516,#517,#518,#519,
    #520,#521,#522,#523,#524,#525,#526,#527,#528,#529,#530,#531,#532,
    #533,#534,#535,#536,#537),.UNSPECIFIED.,.T.,.F.,(7,5,5,5,5,5,5,5,5,5
    ,5,5,5,5,5,5,5,5,5,5,7),(0.,5.000817570876E-02,0.100156608489,
    0.149036809549,0.194464016371,0.249464305905,0.30551381244,
    0.331111053016,0.401535093183,0.449925540643,0.50000423736,
    0.550360051397,0.600488001871,0.668798920619,0.716728341319,
    0.7744507591,0.805865790952,0.831367901778,0.90153021758,
    0.949740826464,1.),.UNSPECIFIED.);
#436 = CARTESIAN_POINT('',(80.,90.,70.));
#437 = CARTESIAN_POINT('',(80.,90.,71.419396122077));
#438 = CARTESIAN_POINT('',(79.919412973789,90.060440226988,
    72.837677003041));
#439 = CARTESIAN_POINT('',(79.758473784145,90.181144810564,
    74.249718744248));
#440 = CARTESIAN_POINT('',(79.517743775047,90.359789301107,75.650285441)
  );
#441 = CARTESIAN_POINT('',(79.19817382538,90.591893602831,
    77.033769787654));
#442 = CARTESIAN_POINT('',(78.404234026249,91.151378973844,
    79.757972989208));
#443 = CARTESIAN_POINT('',(77.929379296372,91.479065611493,
    81.098756962029));
#444 = CARTESIAN_POINT('',(77.378004154191,91.848870530506,
    82.413988086312));
#445 = CARTESIAN_POINT('',(76.750406389585,92.254605943985,
    83.700773398077));
#446 = CARTESIAN_POINT('',(76.046563700823,92.689507544662,
    84.955628393997));
#447 = CARTESIAN_POINT('',(74.505816855131,93.591761239415,
    87.362449512355));
#448 = CARTESIAN_POINT('',(73.672434589625,94.058183872928,
    88.516667423967));
#449 = CARTESIAN_POINT('',(72.764768521356,94.539744750155,
    89.635055378639));
#450 = CARTESIAN_POINT('',(71.780598299675,95.030280079152,
    90.714498982293));
#451 = CARTESIAN_POINT('',(70.717213363001,95.523033910609,
    91.750435933078));
#452 = CARTESIAN_POINT('',(68.507173709501,96.463134568513,
    93.652855341542));
#453 = CARTESIAN_POINT('',(67.37075883125,96.911630578354,
    94.526955926087));
#454 = CARTESIAN_POINT('',(66.160384549766,97.349405088284,
    95.353115262647));
#455 = CARTESIAN_POINT('',(64.874090526554,97.769240366934,
    96.124290542379));
#456 = CARTESIAN_POINT('',(63.510434914454,98.163002717161,
    96.831837995956));
#457 = CARTESIAN_POINT('',(60.32351376834,98.955692119966,
    98.232242829889));
#458 = CARTESIAN_POINT('',(58.449175177972,99.341903948645,
    98.897076162145));
#459 = CARTESIAN_POINT('',(56.468935282237,99.65549261183,
    99.425581159586));
#460 = CARTESIAN_POINT('',(54.409630692672,99.876383723609,
    99.793969527378));
#461 = CARTESIAN_POINT('',(52.300557562544,99.992382824659,
    99.98730457685));
#462 = CARTESIAN_POINT('',(48.002791947558,100.00716531403,
    100.01194231822));
#463 = CARTESIAN_POINT('',(45.848543461922,99.901641474437,
    99.836066287419));
#464 = CARTESIAN_POINT('',(43.742142874502,99.686029923713,
    99.476912990316));
#465 = CARTESIAN_POINT('',(41.715632980129,99.372622672465,
    98.949575421443));
#466 = CARTESIAN_POINT('',(39.798452705898,98.9826437656,98.279127052544
    ));
#467 = CARTESIAN_POINT('',(37.201903066521,98.34161541263,
    97.147692660884));
#468 = CARTESIAN_POINT('',(36.412245116383,98.129286897009,
    96.769198881832));
#469 = CARTESIAN_POINT('',(35.64704021511,97.907244013299,
    96.368823756531));
#470 = CARTESIAN_POINT('',(34.906265624855,97.677061501966,
    95.948323203203));
#471 = CARTESIAN_POINT('',(34.189818696737,97.440236451277,
    95.509319685552));
#472 = CARTESIAN_POINT('',(31.592847094451,96.532225395101,
    93.79870841518));
#473 = CARTESIAN_POINT('',(29.869361447756,95.826109049675,
    92.414305490586));
#474 = CARTESIAN_POINT('',(28.318572704319,95.107227735471,
    90.927217376285));
#475 = CARTESIAN_POINT('',(26.930753812518,94.397369942858,
    89.354697627401));
#476 = CARTESIAN_POINT('',(25.697762948982,93.714756154854,
    87.706688754388));
#477 = CARTESIAN_POINT('',(23.871501413547,92.638561279297,
    84.807073631478));
#478 = CARTESIAN_POINT('',(23.198845918246,92.221412022084,
    83.592881339687));
#479 = CARTESIAN_POINT('',(22.597229687383,91.831850465249,
    82.349107443793));
#480 = CARTESIAN_POINT('',(22.066662035742,91.475949087888,
    81.078882274567));
#481 = CARTESIAN_POINT('',(21.607424564623,91.159274222754,
    79.784824999559));
#482 = CARTESIAN_POINT('',(20.81953504047,90.604686619238,
    77.107401300356));
#483 = CARTESIAN_POINT('',(20.495910648944,90.369843589732,
    75.722186450275));
#484 = CARTESIAN_POINT('',(20.251376461454,90.188488315711,
    74.319653136145));
#485 = CARTESIAN_POINT('',(20.086895265583,90.06517076855,
    72.905426608438));
#486 = CARTESIAN_POINT('',(20.003040381687,90.002280278554,
    71.484753167706));
#487 = CARTESIAN_POINT('',(19.997074444056,89.997805840628,
    68.63289458765));
#488 = CARTESIAN_POINT('',(20.075865771306,90.056898670102,
    67.203981076859));
#489 = CARTESIAN_POINT('',(20.236212810362,90.177200899183,
    65.781266173214));
#490 = CARTESIAN_POINT('',(20.477548872836,90.356369998085,
    64.370108087269));
#491 = CARTESIAN_POINT('',(20.798907350324,90.589836722075,
    62.976245418158));
#492 = CARTESIAN_POINT('',(21.595765973751,91.151378973844,
    60.242027010792));
#493 = CARTESIAN_POINT('',(22.070620703628,91.479065611493,
    58.901243037971));
#494 = CARTESIAN_POINT('',(22.621995845809,91.848870530506,
    57.586011913688));
#495 = CARTESIAN_POINT('',(23.249593610415,92.254605943985,
    56.299226601923));
#496 = CARTESIAN_POINT('',(23.953436299177,92.689507544663,
    55.044371606003));
#497 = CARTESIAN_POINT('',(25.796932167635,93.769049562371,
    52.164622216791));
#498 = CARTESIAN_POINT('',(27.002098965394,94.432567016085,
    50.570561002526));
#499 = CARTESIAN_POINT('',(28.353272747586,95.120956368419,
    49.048032314491));
#500 = CARTESIAN_POINT('',(29.85789040075,95.817486353391,47.60626963676
    ));
#501 = CARTESIAN_POINT('',(31.524795510014,96.502276677423,
    46.260988905539));
#502 = CARTESIAN_POINT('',(34.650762264001,97.60534753558,
    44.177524225248));
#503 = CARTESIAN_POINT('',(36.027138288289,98.043486036322,
    43.37550445594));
#504 = CARTESIAN_POINT('',(37.49012862246,98.454614144682,
    42.642572484734));
#505 = CARTESIAN_POINT('',(39.037826112038,98.827732494009,
    41.991116677421));
#506 = CARTESIAN_POINT('',(40.667000410208,99.151544949413,
    41.434178944592));
#507 = CARTESIAN_POINT('',(44.427243513192,99.73193603246,
    40.445701374125));
#508 = CARTESIAN_POINT('',(46.597308064604,99.961952619425,
    40.061859583046));
#509 = CARTESIAN_POINT('',(48.835810599224,100.07845601873,
    39.870441759409));
#510 = CARTESIAN_POINT('',(51.091808757407,100.06842458492,
    39.886111616917));
#511 = CARTESIAN_POINT('',(53.313689576004,99.93644619179,
    40.104350402019));
#512 = CARTESIAN_POINT('',(56.616402499847,99.574130239471,
    40.714775628915));
#513 = CARTESIAN_POINT('',(57.754705027003,99.416150385244,
    40.982158823014));
#514 = CARTESIAN_POINT('',(58.863752537468,99.230629794452,
    41.298281311456));
#515 = CARTESIAN_POINT('',(59.940262650043,99.02077527376,
    41.659228085618));
#516 = CARTESIAN_POINT('',(60.981252033668,98.790152608325,
    42.060625650161));
#517 = CARTESIAN_POINT('',(62.79809693341,98.341615412647,
    42.852307339087));
#518 = CARTESIAN_POINT('',(63.587754883639,98.129286897006,
    43.230801118173));
#519 = CARTESIAN_POINT('',(64.352959784955,97.90724401328,
    43.631176243504));
#520 = CARTESIAN_POINT('',(65.09373437516,97.677061501958,
    44.051676796813));
#521 = CARTESIAN_POINT('',(65.810181303208,97.440236451296,
    44.490680314412));
#522 = CARTESIAN_POINT('',(68.407152905551,96.5322253951,46.201291584822
    ));
#523 = CARTESIAN_POINT('',(70.130638552242,95.826109049675,
    47.585694509414));
#524 = CARTESIAN_POINT('',(71.681427295685,95.10722773547,
    49.072782623717));
#525 = CARTESIAN_POINT('',(73.069246187481,94.397369942857,
    50.645302372599));
#526 = CARTESIAN_POINT('',(74.302237051019,93.714756154854,
    52.293311245614));
#527 = CARTESIAN_POINT('',(76.128498586454,92.638561279297,
    55.192926368523));
#528 = CARTESIAN_POINT('',(76.801154081755,92.221412022084,
    56.407118660313));
#529 = CARTESIAN_POINT('',(77.402770312618,91.831850465248,
    57.650892556209));
#530 = CARTESIAN_POINT('',(77.933337964259,91.475949087888,
    58.921117725435));
#531 = CARTESIAN_POINT('',(78.392575435377,91.159274222754,
    60.215175000443));
#532 = CARTESIAN_POINT('',(79.183409125866,90.602614249822,
    62.902603631149));
#533 = CARTESIAN_POINT('',(79.508847647833,90.366390335937,
    64.29819375914));
#534 = CARTESIAN_POINT('',(79.754011643396,90.184491421766,
    65.711319777146));
#535 = CARTESIAN_POINT('',(79.917921979801,90.061558470788,
    67.136222991614));
#536 = CARTESIAN_POINT('',(80.,90.,68.567533263455));
#537 = CARTESIAN_POINT('',(80.,90.,70.));
#538 = PCURVE('',#32,#539);
#539 = DEFINITIONAL_REPRESENTATION('',(#540),#643);
#540 = B_SPLINE_CURVE_WITH_KNOTS('',6,(#541,#542,#543,#544,#545,#546,
    #547,#548,#549,#550,#551,#552,#553,#554,#555,#556,#557,#558,#559,
    #560,#561,#562,#563,#564,#565,#566,#567,#568,#569,#570,#571,#572,
    #573,#574,#575,#576,#577,#578,#579,#580,#581,#582,#583,#584,#585,
    #586,#587,#588,#589,#590,#591,#592,#593,#594,#595,#596,#597,#598,
    #599,#600,#601,#602,#603,#604,#605,#606,#607,#608,#609,#610,#611,
    #612,#613,#614,#615,#616,#617,#618,#619,#620,#621,#622,#623,#624,
    #625,#626,#627,#628,#629,#630,#631,#632,#633,#634,#635,#636,#637,
    #638,#639,#640,#641,#642),.UNSPECIFIED.,.T.,.F.,(7,5,5,5,5,5,5,5,5,5
    ,5,5,5,5,5,5,5,5,5,5,7),(0.,5.000817570876E-02,0.100156608489,
    0.149036809549,0.194464016371,0.249464305905,0.30551381244,
    0.331111053016,0.401535093183,0.449925540643,0.50000423736,
    0.550360051397,0.600488001871,0.668798920619,0.716728341319,
    0.7744507591,0.805865790952,0.831367901778,0.90153021758,
    0.949740826464,1.),.UNSPECIFIED.);
#541 = CARTESIAN_POINT('',(0.927295218002,70.));
#542 = CARTESIAN_POINT('',(0.927295218002,71.419396122077));
#543 = CARTESIAN_POINT('',(0.929309888137,72.837677003041));
#544 = CARTESIAN_POINT('',(0.933333393574,74.249718744248));
#545 = CARTESIAN_POINT('',(0.939328750718,75.650285441));
#546 = CARTESIAN_POINT('',(0.947227238269,77.033769787654));
#547 = CARTESIAN_POINT('',(0.966652626656,79.757972989208));
#548 = CARTESIAN_POINT('',(0.978190966431,81.098756962029));
#549 = CARTESIAN_POINT('',(0.991467200786,82.413988086312));
#550 = CARTESIAN_POINT('',(1.006409870455,83.700773398077));
#551 = CARTESIAN_POINT('',(1.022952527473,84.955628393997));
#552 = CARTESIAN_POINT('',(1.058662260444,87.362449512355));
#553 = CARTESIAN_POINT('',(1.077759108903,88.516667423967));
#554 = CARTESIAN_POINT('',(1.098301018761,89.635055378639));
#555 = CARTESIAN_POINT('',(1.120281676652,90.714498982293));
#556 = CARTESIAN_POINT('',(1.143710010717,91.750435933078));
#557 = CARTESIAN_POINT('',(1.191743601118,93.652855341542));
#558 = CARTESIAN_POINT('',(1.216169429783,94.526955926087));
#559 = CARTESIAN_POINT('',(1.241894865353,95.353115262647));
#560 = CARTESIAN_POINT('',(1.268933959501,96.124290542379));
#561 = CARTESIAN_POINT('',(1.297301580017,96.831837995956));
#562 = CARTESIAN_POINT('',(1.362982088178,98.232242829889));
#563 = CARTESIAN_POINT('',(1.401224935386,98.897076162145));
#564 = CARTESIAN_POINT('',(1.441256046299,99.425581159586));
#565 = CARTESIAN_POINT('',(1.482595660112,99.793969527378));
#566 = CARTESIAN_POINT('',(1.524784916937,99.98730457685));
#567 = CARTESIAN_POINT('',(1.61074073769,100.01194231822));
#568 = CARTESIAN_POINT('',(1.653818271339,99.836066287419));
#569 = CARTESIAN_POINT('',(1.696077804325,99.476912990316));
#570 = CARTESIAN_POINT('',(1.737017763925,98.949575421443));
#571 = CARTESIAN_POINT('',(1.776113196337,98.279127052544));
#572 = CARTESIAN_POINT('',(1.829603335163,97.147692660884));
#573 = CARTESIAN_POINT('',(1.845953972677,96.769198881832));
#574 = CARTESIAN_POINT('',(1.861884860101,96.368823756531));
#575 = CARTESIAN_POINT('',(1.877395258534,95.948323203203));
#576 = CARTESIAN_POINT('',(1.892484534989,95.509319685552));
#577 = CARTESIAN_POINT('',(1.947507241506,93.79870841518));
#578 = CARTESIAN_POINT('',(1.984706485216,92.414305490586));
#579 = CARTESIAN_POINT('',(2.018847762483,90.927217376284));
#580 = CARTESIAN_POINT('',(2.049997201403,89.354697627401));
#581 = CARTESIAN_POINT('',(2.078173754865,87.706688754388));
#582 = CARTESIAN_POINT('',(2.120569163135,84.807073631478));
#583 = CARTESIAN_POINT('',(2.136395201881,83.592881339687));
#584 = CARTESIAN_POINT('',(2.150726337603,82.349107443793));
#585 = CARTESIAN_POINT('',(2.163502248362,81.078882274567));
#586 = CARTESIAN_POINT('',(2.174658466264,79.784824999559));
#587 = CARTESIAN_POINT('',(2.193928518804,77.107401300356));
#588 = CARTESIAN_POINT('',(2.20192478148,75.722186450275));
#589 = CARTESIAN_POINT('',(2.20801353356,74.319653136145));
#590 = CARTESIAN_POINT('',(2.21212506724,72.905426608438));
#591 = CARTESIAN_POINT('',(2.214221426139,71.484753167706));
#592 = CARTESIAN_POINT('',(2.214370574396,68.63289458765));
#593 = CARTESIAN_POINT('',(2.212400804445,67.203981076859));
#594 = CARTESIAN_POINT('',(2.208391600619,65.781266173214));
#595 = CARTESIAN_POINT('',(2.202380253489,64.370108087269));
#596 = CARTESIAN_POINT('',(2.194436830428,62.976245418158));
#597 = CARTESIAN_POINT('',(2.174940026933,60.242027010792));
#598 = CARTESIAN_POINT('',(2.163401687159,58.901243037971));
#599 = CARTESIAN_POINT('',(2.150125452804,57.586011913688));
#600 = CARTESIAN_POINT('',(2.135182783135,56.299226601923));
#601 = CARTESIAN_POINT('',(2.118640126117,55.044371606003));
#602 = CARTESIAN_POINT('',(2.07591360983,52.164622216791));
#603 = CARTESIAN_POINT('',(2.048408286217,50.570561002526));
#604 = CARTESIAN_POINT('',(2.018104878662,49.048032314491));
#605 = CARTESIAN_POINT('',(1.984985518302,47.606269636759));
#606 = CARTESIAN_POINT('',(1.948989862245,46.260988905539));
#607 = CARTESIAN_POINT('',(1.882692250025,44.177524225248));
#608 = CARTESIAN_POINT('',(1.853817523549,43.37550445594));
#609 = CARTESIAN_POINT('',(1.823452453787,42.642572484734));
#610 = CARTESIAN_POINT('',(1.791648198985,41.991116677421));
#611 = CARTESIAN_POINT('',(1.75845820182,41.434178944592));
#612 = CARTESIAN_POINT('',(1.682362782765,40.445701374125));
#613 = CARTESIAN_POINT('',(1.6387674582,40.061859583046));
#614 = CARTESIAN_POINT('',(1.594037641744,39.870441759409));
#615 = CARTESIAN_POINT('',(1.54902253651,39.886111616917));
#616 = CARTESIAN_POINT('',(1.504561863505,40.104350402019));
#617 = CARTESIAN_POINT('',(1.438111323984,40.714775628915));
#618 = CARTESIAN_POINT('',(1.41513650922,40.982158823014));
#619 = CARTESIAN_POINT('',(1.392660051351,41.298281311456));
#620 = CARTESIAN_POINT('',(1.370735635331,41.659228085618));
#621 = CARTESIAN_POINT('',(1.349417174394,42.060625650161));
#622 = CARTESIAN_POINT('',(1.311989318428,42.852307339087));
#623 = CARTESIAN_POINT('',(1.295638680912,43.230801118173));
#624 = CARTESIAN_POINT('',(1.279707793487,43.631176243504));
#625 = CARTESIAN_POINT('',(1.264197395055,44.051676796813));
#626 = CARTESIAN_POINT('',(1.249108118602,44.490680314412));
#627 = CARTESIAN_POINT('',(1.194085412084,46.201291584822));
#628 = CARTESIAN_POINT('',(1.156886168374,47.585694509414));
#629 = CARTESIAN_POINT('',(1.122744891107,49.072782623717));
#630 = CARTESIAN_POINT('',(1.091595452187,50.645302372599));
#631 = CARTESIAN_POINT('',(1.063418898725,52.293311245614));
#632 = CARTESIAN_POINT('',(1.021023490455,55.192926368523));
#633 = CARTESIAN_POINT('',(1.005197451709,56.407118660313));
#634 = CARTESIAN_POINT('',(0.990866315987,57.650892556209));
#635 = CARTESIAN_POINT('',(0.978090405228,58.921117725435));
#636 = CARTESIAN_POINT('',(0.966934187325,60.215175000443));
#637 = CARTESIAN_POINT('',(0.947592126924,62.902603631149));
#638 = CARTESIAN_POINT('',(0.939550298398,64.29819375914));
#639 = CARTESIAN_POINT('',(0.933444948467,65.711319777146));
#640 = CARTESIAN_POINT('',(0.929347162618,67.136222991614));
#641 = CARTESIAN_POINT('',(0.927295218002,68.567533263455));
#642 = CARTESIAN_POINT('',(0.927295218002,70.));
#643 = ( GEOMETRIC_REPRESENTATION_CONTEXT(2) 
PARAMETRIC_REPRESENTATION_CONTEXT() REPRESENTATION_CONTEXT('2D SPACE',''
  ) );
#644 = PCURVE('',#318,#645);
#645 = DEFINITIONAL_REPRESENTATION('',(#646),#749);
#646 = B_SPLINE_CURVE_WITH_KNOTS('',6,(#647,#648,#649,#650,#651,#652,
    #653,#654,#655,#656,#657,#658,#659,#660,#661,#662,#663,#664,#665,
    #666,#667,#668,#669,#670,#671,#672,#673,#674,#675,#676,#677,#678,
    #679,#680,#681,#682,#683,#684,#685,#686,#687,#688,#689,#690,#691,
    #692,#693,#694,#695,#696,#697,#698,#699,#700,#701,#702,#703,#704,
    #705,#706,#707,#708,#709,#710,#711,#712,#713,#714,#715,#716,#717,
    #718,#719,#720,#721,#722,#723,#724,#725,#726,#727,#728,#729,#730,
    #731,#732,#733,#734,#735,#736,#737,#738,#739,#740,#741,#742,#743,
    #744,#745,#746,#747,#748),.UNSPECIFIED.,.F.,.F.,(7,5,5,5,5,5,5,5,5,5
    ,5,5,5,5,5,5,5,5,5,5,7),(0.,5.000817570876E-02,0.100156608489,
    0.149036809549,0.194464016371,0.249464305905,0.30551381244,
    0.331111053016,0.401535093183,0.449925540643,0.50000423736,
    0.550360051397,0.600488001871,0.668798920619,0.716728341319,
    0.7744507591,0.805865790952,0.831367901778,0.90153021758,
    0.949740826464,1.),.UNSPECIFIED.);
#647 = CARTESIAN_POINT('',(0.,30.));
#648 = CARTESIAN_POINT('',(4.731320406925E-02,30.));
#649 = CARTESIAN_POINT('',(9.458921430467E-02,29.939559773012));
#650 = CARTESIAN_POINT('',(0.141848006345,29.818855189436));
#651 = CARTESIAN_POINT('',(0.189103755584,29.640210698893));
#652 = CARTESIAN_POINT('',(0.236358452338,29.408106397169));
#653 = CARTESIAN_POINT('',(0.330943061657,28.848621026156));
#654 = CARTESIAN_POINT('',(0.378279606897,28.520934388507));
#655 = CARTESIAN_POINT('',(0.425703090314,28.151129469494));
#656 = CARTESIAN_POINT('',(0.473309028838,27.745394056015));
#657 = CARTESIAN_POINT('',(0.521186578567,27.310492455338));
#658 = CARTESIAN_POINT('',(0.616444641733,26.408238760585));
#659 = CARTESIAN_POINT('',(0.663824917747,25.941816127072));
#660 = CARTESIAN_POINT('',(0.711721808292,25.460255249845));
#661 = CARTESIAN_POINT('',(0.760288412552,24.969719920848));
#662 = CARTESIAN_POINT('',(0.809680442592,24.476966089391));
#663 = CARTESIAN_POINT('',(0.906882836685,23.536865431487));
#664 = CARTESIAN_POINT('',(0.954600149668,23.088369421646));
#665 = CARTESIAN_POINT('',(1.003328704099,22.650594911716));
#666 = CARTESIAN_POINT('',(1.053183574823,22.230759633066));
#667 = CARTESIAN_POINT('',(1.104286548781,21.836997282839));
#668 = CARTESIAN_POINT('',(1.220321026849,21.044307880034));
#669 = CARTESIAN_POINT('',(1.286435485575,20.658096051355));
#670 = CARTESIAN_POINT('',(1.354415708056,20.34450738817));
#671 = CARTESIAN_POINT('',(1.423771696352,20.123616276391));
#672 = CARTESIAN_POINT('',(1.494109877438,20.007617175341));
#673 = CARTESIAN_POINT('',(1.637371085259,19.99283468597));
#674 = CARTESIAN_POINT('',(1.709144525711,20.098358525563));
#675 = CARTESIAN_POINT('',(1.779968891596,20.313970076287));
#676 = CARTESIAN_POINT('',(1.849407529655,20.627377327535));
#677 = CARTESIAN_POINT('',(1.916920552429,21.0173562344));
#678 = CARTESIAN_POINT('',(2.011332261992,21.65838458737));
#679 = CARTESIAN_POINT('',(2.040502696398,21.870713102991));
#680 = CARTESIAN_POINT('',(2.069263903384,22.092755986701));
#681 = CARTESIAN_POINT('',(2.097633185078,22.322938498034));
#682 = CARTESIAN_POINT('',(2.125626523778,22.559763548723));
#683 = CARTESIAN_POINT('',(2.229284360601,23.467774604899));
#684 = CARTESIAN_POINT('',(2.302645736025,24.173890950325));
#685 = CARTESIAN_POINT('',(2.373872503696,24.892772264529));
#686 = CARTESIAN_POINT('',(2.443437451376,25.602630057142));
#687 = CARTESIAN_POINT('',(2.511823519664,26.285243845146));
#688 = CARTESIAN_POINT('',(2.626050384848,27.361438720703));
#689 = CARTESIAN_POINT('',(2.672246276052,27.778587977916));
#690 = CARTESIAN_POINT('',(2.718195935776,28.168149534751));
#691 = CARTESIAN_POINT('',(2.763979146505,28.524050912112));
#692 = CARTESIAN_POINT('',(2.809681381272,28.840725777246));
#693 = CARTESIAN_POINT('',(2.9027128429,29.395313380762));
#694 = CARTESIAN_POINT('',(2.950053887271,29.630156410268));
#695 = CARTESIAN_POINT('',(2.997395235041,29.811511684289));
#696 = CARTESIAN_POINT('',(3.044739270217,29.93482923145));
#697 = CARTESIAN_POINT('',(3.092100776091,29.997719721446));
#698 = CARTESIAN_POINT('',(3.187162936766,30.002194159372));
#699 = CARTESIAN_POINT('',(3.234787768451,29.943101329898));
#700 = CARTESIAN_POINT('',(3.282395303047,29.822799100817));
#701 = CARTESIAN_POINT('',(3.329999873663,29.643630001915));
#702 = CARTESIAN_POINT('',(3.377603376974,29.410163277925));
#703 = CARTESIAN_POINT('',(3.472535715246,28.848621026156));
#704 = CARTESIAN_POINT('',(3.519872260487,28.520934388507));
#705 = CARTESIAN_POINT('',(3.567295743904,28.151129469494));
#706 = CARTESIAN_POINT('',(3.614901682427,27.745394056015));
#707 = CARTESIAN_POINT('',(3.662779232157,27.310492455337));
#708 = CARTESIAN_POINT('',(3.776755026671,26.230950437629));
#709 = CARTESIAN_POINT('',(3.843165148581,25.567432983915));
#710 = CARTESIAN_POINT('',(3.910701571015,24.879043631581));
#711 = CARTESIAN_POINT('',(3.979805599805,24.182513646609));
#712 = CARTESIAN_POINT('',(4.050910868977,23.497723322577));
#713 = CARTESIAN_POINT('',(4.176132863943,22.39465246442));
#714 = CARTESIAN_POINT('',(4.229136091707,21.956513963678));
#715 = CARTESIAN_POINT('',(4.283513393286,21.545385855318));
#716 = CARTESIAN_POINT('',(4.339293802183,21.172267505991));
#717 = CARTESIAN_POINT('',(4.396535389621,20.848455050587));
#718 = CARTESIAN_POINT('',(4.526135270026,20.26806396754));
#719 = CARTESIAN_POINT('',(4.599346708138,20.038047380576));
#720 = CARTESIAN_POINT('',(4.673773428194,19.921543981269));
#721 = CARTESIAN_POINT('',(4.748502397584,19.931575415074));
#722 = CARTESIAN_POINT('',(4.822653613661,20.06355380821));
#723 = CARTESIAN_POINT('',(4.934608622555,20.425869760529));
#724 = CARTESIAN_POINT('',(4.973540000224,20.583849614756));
#725 = CARTESIAN_POINT('',(5.011918201111,20.769370205548));
#726 = CARTESIAN_POINT('',(5.049707990215,20.979224726241));
#727 = CARTESIAN_POINT('',(5.086863620084,21.209847391675));
#728 = CARTESIAN_POINT('',(5.15292491558,21.658384587353));
#729 = CARTESIAN_POINT('',(5.182095349988,21.870713102994));
#730 = CARTESIAN_POINT('',(5.210856556976,22.09275598672));
#731 = CARTESIAN_POINT('',(5.239225838668,22.322938498042));
#732 = CARTESIAN_POINT('',(5.267219177365,22.559763548704));
#733 = CARTESIAN_POINT('',(5.370877014191,23.4677746049));
#734 = CARTESIAN_POINT('',(5.444238389615,24.173890950325));
#735 = CARTESIAN_POINT('',(5.515465157286,24.89277226453));
#736 = CARTESIAN_POINT('',(5.585030104966,25.602630057143));
#737 = CARTESIAN_POINT('',(5.653416173254,26.285243845146));
#738 = CARTESIAN_POINT('',(5.767643038438,27.361438720703));
#739 = CARTESIAN_POINT('',(5.813838929641,27.778587977916));
#740 = CARTESIAN_POINT('',(5.859788589366,28.168149534752));
#741 = CARTESIAN_POINT('',(5.905571800095,28.524050912112));
#742 = CARTESIAN_POINT('',(5.951274034862,28.840725777246));
#743 = CARTESIAN_POINT('',(6.044653134184,29.397385750178));
#744 = CARTESIAN_POINT('',(6.092343024282,29.633609664063));
#745 = CARTESIAN_POINT('',(6.140033265242,29.815508578234));
#746 = CARTESIAN_POINT('',(6.187726093837,29.938441529212));
#747 = CARTESIAN_POINT('',(6.235436415961,30.));
#748 = CARTESIAN_POINT('',(6.28318530718,30.));
#749 = ( GEOMETRIC_REPRESENTATION_CONTEXT(2) 
PARAMETRIC_REPRESENTATION_CONTEXT() REPRESENTATION_CONTEXT('2D SPACE',''
  ) );
#750 = ADVANCED_FACE('',(#751),#90,.F.);
#751 = FACE_BOUND('',#752,.T.);
#752 = EDGE_LOOP('',(#753));
#753 = ORIENTED_EDGE('',*,*,#76,.F.);
#754 = ADVANCED_FACE('',(#755),#63,.T.);
#755 = FACE_BOUND('',#756,.T.);
#756 = EDGE_LOOP('',(#757));
#757 = ORIENTED_EDGE('',*,*,#49,.T.);
#758 = ADVANCED_FACE('',(#759),#318,.F.);
#759 = FACE_BOUND('',#760,.F.);
#760 = EDGE_LOOP('',(#761,#762,#781,#782));
#761 = ORIENTED_EDGE('',*,*,#104,.F.);
#762 = ORIENTED_EDGE('',*,*,#763,.F.);
#763 = EDGE_CURVE('',#432,#105,#764,.T.);
#764 = SEAM_CURVE('',#765,(#769,#775),.PCURVE_S1.);
#765 = LINE('',#766,#767);
#766 = CARTESIAN_POINT('',(80.,120.,70.));
#767 = VECTOR('',#768,1.);
#768 = DIRECTION('',(0.,-1.,1.110223024625E-16));
#769 = PCURVE('',#318,#770);
#770 = DEFINITIONAL_REPRESENTATION('',(#771),#774);
#771 = B_SPLINE_CURVE_WITH_KNOTS('',1,(#772,#773),.UNSPECIFIED.,.F.,.F.,
  (2,2),(30.,110.),.PIECEWISE_BEZIER_KNOTS.);
#772 = CARTESIAN_POINT('',(6.28318530718,30.));
#773 = CARTESIAN_POINT('',(6.28318530718,110.));
#774 = ( GEOMETRIC_REPRESENTATION_CONTEXT(2) 
PARAMETRIC_REPRESENTATION_CONTEXT() REPRESENTATION_CONTEXT('2D SPACE',''
  ) );
#775 = PCURVE('',#318,#776);
#776 = DEFINITIONAL_REPRESENTATION('',(#777),#780);
#777 = B_SPLINE_CURVE_WITH_KNOTS('',1,(#778,#779),.UNSPECIFIED.,.F.,.F.,
  (2,2),(30.,110.),.PIECEWISE_BEZIER_KNOTS.);
#778 = CARTESIAN_POINT('',(0.,30.));
#779 = CARTESIAN_POINT('',(0.,110.));
#780 = ( GEOMETRIC_REPRESENTATION_CONTEXT(2) 
PARAMETRIC_REPRESENTATION_CONTEXT() REPRESENTATION_CONTEXT('2D SPACE',''
  ) );
#781 = ORIENTED_EDGE('',*,*,#431,.T.);
#782 = ORIENTED_EDGE('',*,*,#763,.T.);
#783 = ( GEOMETRIC_REPRESENTATION_CONTEXT(3) 
GLOBAL_UNCERTAINTY_ASSIGNED_CONTEXT((#787)) GLOBAL_UNIT_ASSIGNED_CONTEXT
((#784,#785,#786)) REPRESENTATION_CONTEXT('Context #1',
  '3D Context with UNIT and UNCERTAINTY') );
#784 = ( LENGTH_UNIT() NAMED_UNIT(*) SI_UNIT(.MILLI.,.METRE.) );
#785 = ( NAMED_UNIT(*) PLANE_ANGLE_UNIT() SI_UNIT($,.RADIAN.) );
#786 = ( NAMED_UNIT(*) SI_UNIT($,.STERADIAN.) SOLID_ANGLE_UNIT() );
#787 = UNCERTAINTY_MEASURE_WITH_UNIT(LENGTH_MEASURE(1.E-06),#784,
  'distance_accuracy_value','confusion accuracy');
#788 = PRODUCT_RELATED_PRODUCT_CATEGORY('part',$,(#7));
ENDSEC;
END-ISO-10303-21;
