ISO-10303-21;
HEADER;
FILE_DESCRIPTION(('Open CASCADE Model'),'2;1');
FILE_NAME('Open CASCADE Shape Model','2026-07-11T20:16:00',('Author'),(
    'Open CASCADE'),'Open CASCADE STEP processor 8.0','Open CASCADE 8.0'
  ,'Unknown');
FILE_SCHEMA(('AUTOMOTIVE_DESIGN { 1 0 10303 214 1 1 1 1 }'));
ENDSEC;
DATA;
#1 = APPLICATION_PROTOCOL_DEFINITION('international standard',
  'automotive_design',2000,#2);
#2 = APPLICATION_CONTEXT(
  'core data for automotive mechanical design processes');
#3 = SHAPE_DEFINITION_REPRESENTATION(#4,#10);
#4 = PRODUCT_DEFINITION_SHAPE('','',#5);
#5 = PRODUCT_DEFINITION('design','',#6,#9);
#6 = PRODUCT_DEFINITION_FORMATION('','',#7);
#7 = PRODUCT('Open CASCADE STEP translator 8.0 1',
  'Open CASCADE STEP translator 8.0 1','',(#8));
#8 = PRODUCT_CONTEXT('',#2,'mechanical');
#9 = PRODUCT_DEFINITION_CONTEXT('part definition',#2,'design');
#10 = ADVANCED_BREP_SHAPE_REPRESENTATION('',(#11,#15),#430);
#11 = AXIS2_PLACEMENT_3D('',#12,#13,#14);
#12 = CARTESIAN_POINT('',(0.,0.,0.));
#13 = DIRECTION('',(0.,0.,1.));
#14 = DIRECTION('',(1.,0.,-0.));
#15 = MANIFOLD_SOLID_BREP('',#16);
#16 = CLOSED_SHELL('',(#17,#422,#426));
#17 = ADVANCED_FACE('',(#18),#32,.T.);
#18 = FACE_BOUND('',#19,.T.);
#19 = EDGE_LOOP('',(#20,#48,#74,#75));
#20 = ORIENTED_EDGE('',*,*,#21,.T.);
#21 = EDGE_CURVE('',#22,#24,#26,.T.);
#22 = VERTEX_POINT('',#23);
#23 = CARTESIAN_POINT('',(80.,50.,12.735091160628));
#24 = VERTEX_POINT('',#25);
#25 = CARTESIAN_POINT('',(80.,50.,100.));
#26 = SEAM_CURVE('',#27,(#31,#42),.PCURVE_S1.);
#27 = LINE('',#28,#29);
#28 = CARTESIAN_POINT('',(80.,50.,0.));
#29 = VECTOR('',#30,1.);
#30 = DIRECTION('',(0.,0.,1.));
#31 = PCURVE('',#32,#37);
#32 = CYLINDRICAL_SURFACE('',#33,30.);
#33 = AXIS2_PLACEMENT_3D('',#34,#35,#36);
#34 = CARTESIAN_POINT('',(50.,50.,0.));
#35 = DIRECTION('',(0.,0.,1.));
#36 = DIRECTION('',(1.,0.,0.));
#37 = DEFINITIONAL_REPRESENTATION('',(#38),#41);
#38 = B_SPLINE_CURVE_WITH_KNOTS('',1,(#39,#40),.UNSPECIFIED.,.F.,.F.,(2,
    2),(12.735091160628,100.),.PIECEWISE_BEZIER_KNOTS.);
#39 = CARTESIAN_POINT('',(6.28318530718,12.735091160628));
#40 = CARTESIAN_POINT('',(6.28318530718,100.));
#41 = ( GEOMETRIC_REPRESENTATION_CONTEXT(2) 
PARAMETRIC_REPRESENTATION_CONTEXT() REPRESENTATION_CONTEXT('2D SPACE',''
  ) );
#42 = PCURVE('',#32,#43);
#43 = DEFINITIONAL_REPRESENTATION('',(#44),#47);
#44 = B_SPLINE_CURVE_WITH_KNOTS('',1,(#45,#46),.UNSPECIFIED.,.F.,.F.,(2,
    2),(12.735091160628,100.),.PIECEWISE_BEZIER_KNOTS.);
#45 = CARTESIAN_POINT('',(0.,12.735091160628));
#46 = CARTESIAN_POINT('',(0.,100.));
#47 = ( GEOMETRIC_REPRESENTATION_CONTEXT(2) 
PARAMETRIC_REPRESENTATION_CONTEXT() REPRESENTATION_CONTEXT('2D SPACE',''
  ) );
#48 = ORIENTED_EDGE('',*,*,#49,.F.);
#49 = EDGE_CURVE('',#24,#24,#50,.T.);
#50 = SURFACE_CURVE('',#51,(#56,#62),.PCURVE_S1.);
#51 = CIRCLE('',#52,30.);
#52 = AXIS2_PLACEMENT_3D('',#53,#54,#55);
#53 = CARTESIAN_POINT('',(50.,50.,100.));
#54 = DIRECTION('',(0.,0.,1.));
#55 = DIRECTION('',(1.,0.,-0.));
#56 = PCURVE('',#32,#57);
#57 = DEFINITIONAL_REPRESENTATION('',(#58),#61);
#58 = B_SPLINE_CURVE_WITH_KNOTS('',1,(#59,#60),.UNSPECIFIED.,.F.,.F.,(2,
    2),(0.,6.28318530718),.PIECEWISE_BEZIER_KNOTS.);
#59 = CARTESIAN_POINT('',(0.,100.));
#60 = CARTESIAN_POINT('',(6.28318530718,100.));
#61 = ( GEOMETRIC_REPRESENTATION_CONTEXT(2) 
PARAMETRIC_REPRESENTATION_CONTEXT() REPRESENTATION_CONTEXT('2D SPACE',''
  ) );
#62 = PCURVE('',#63,#68);
#63 = PLANE('',#64);
#64 = AXIS2_PLACEMENT_3D('',#65,#66,#67);
#65 = CARTESIAN_POINT('',(50.,50.,100.));
#66 = DIRECTION('',(0.,0.,1.));
#67 = DIRECTION('',(1.,0.,0.));
#68 = DEFINITIONAL_REPRESENTATION('',(#69),#73);
#69 = CIRCLE('',#70,30.);
#70 = AXIS2_PLACEMENT_2D('',#71,#72);
#71 = CARTESIAN_POINT('',(0.,0.));
#72 = DIRECTION('',(1.,0.));
#73 = ( GEOMETRIC_REPRESENTATION_CONTEXT(2) 
PARAMETRIC_REPRESENTATION_CONTEXT() REPRESENTATION_CONTEXT('2D SPACE',''
  ) );
#74 = ORIENTED_EDGE('',*,*,#21,.F.);
#75 = ORIENTED_EDGE('',*,*,#76,.T.);
#76 = EDGE_CURVE('',#22,#22,#77,.T.);
#77 = SURFACE_CURVE('',#78,(#189,#303),.PCURVE_S1.);
#78 = B_SPLINE_CURVE_WITH_KNOTS('',7,(#79,#80,#81,#82,#83,#84,#85,#86,
    #87,#88,#89,#90,#91,#92,#93,#94,#95,#96,#97,#98,#99,#100,#101,#102,
    #103,#104,#105,#106,#107,#108,#109,#110,#111,#112,#113,#114,#115,
    #116,#117,#118,#119,#120,#121,#122,#123,#124,#125,#126,#127,#128,
    #129,#130,#131,#132,#133,#134,#135,#136,#137,#138,#139,#140,#141,
    #142,#143,#144,#145,#146,#147,#148,#149,#150,#151,#152,#153,#154,
    #155,#156,#157,#158,#159,#160,#161,#162,#163,#164,#165,#166,#167,
    #168,#169,#170,#171,#172,#173,#174,#175,#176,#177,#178,#179,#180,
    #181,#182,#183,#184,#185,#186,#187,#188),.UNSPECIFIED.,.T.,.F.,(8,6,
    6,6,6,6,6,6,6,6,6,6,6,6,6,6,6,6,8),(0.,6.043486127559E-02,
    0.107576730128,0.160295251329,0.211954143595,0.269601104311,
    0.312806061892,0.364404180082,0.410529026533,0.452300963174,
    0.486392139602,0.579445451987,0.660068156679,0.706238887475,
    0.765430653431,0.812371331542,0.891659770049,0.962264001454,1.),
  .UNSPECIFIED.);
#79 = CARTESIAN_POINT('',(80.,50.,12.735091160628));
#80 = CARTESIAN_POINT('',(80.,51.510745681938,12.468705935913));
#81 = CARTESIAN_POINT('',(79.911240480467,53.043942839323,
    12.300558865775));
#82 = CARTESIAN_POINT('',(79.728981808487,54.589546194696,
    12.237873086126));
#83 = CARTESIAN_POINT('',(79.450227614416,56.138202690025,
    12.281418441583));
#84 = CARTESIAN_POINT('',(79.07322072895,57.679094239478,12.4250474215)
  );
#85 = CARTESIAN_POINT('',(78.598919859604,59.198677305724,
    12.656324463643));
#86 = CARTESIAN_POINT('',(77.594150977495,61.836065686772,
    13.193762845959));
#87 = CARTESIAN_POINT('',(77.097767626649,62.971919213648,
    13.472913469261));
#88 = CARTESIAN_POINT('',(76.545582599361,64.086489445886,
    13.789424012909));
#89 = CARTESIAN_POINT('',(75.937674576169,65.177943150832,
    14.136960845487));
#90 = CARTESIAN_POINT('',(75.274064634313,66.244068204994,
    14.509304135556));
#91 = CARTESIAN_POINT('',(74.554773096132,67.282330849261,
    14.900440703008));
#92 = CARTESIAN_POINT('',(72.913138382694,69.416715343925,
    15.756524398369));
#93 = CARTESIAN_POINT('',(71.975976057884,70.506276035366,
    16.225181085192));
#94 = CARTESIAN_POINT('',(70.967009681019,71.555897568815,
    16.703046762556));
#95 = CARTESIAN_POINT('',(69.884528577689,72.561951040813,17.18295732381
    ));
#96 = CARTESIAN_POINT('',(68.726604534401,73.519706382769,
    17.657755110321));
#97 = CARTESIAN_POINT('',(67.491317144865,74.423133368663,
    18.120007349186));
#98 = CARTESIAN_POINT('',(64.889117277118,76.089325001854,
    18.994662331547));
#99 = CARTESIAN_POINT('',(63.520928452275,76.857381620287,
    19.409367743705));
#100 = CARTESIAN_POINT('',(62.075565305665,77.557425748446,
    19.796283631898));
#101 = CARTESIAN_POINT('',(60.557204408429,78.178659372164,
    20.146023179961));
#102 = CARTESIAN_POINT('',(58.971061203935,78.710793708889,
    20.449713753418));
#103 = CARTESIAN_POINT('',(57.323381569908,79.143954696532,
    20.699217574088));
#104 = CARTESIAN_POINT('',(53.722215762059,79.83091381426,
    21.097140135098));
#105 = CARTESIAN_POINT('',(51.763643013825,80.056531236972,
    21.229581545086));
#106 = CARTESIAN_POINT('',(49.773682307038,80.131127910228,
    21.273866624162));
#107 = CARTESIAN_POINT('',(47.781704539633,80.049204036043,
    21.225486645898));
#108 = CARTESIAN_POINT('',(45.817303230036,79.813707237113,
    21.086821549818));
#109 = CARTESIAN_POINT('',(43.909137971071,79.43607619016,
    20.866979148468));
#110 = CARTESIAN_POINT('',(40.715769642676,78.562469472352,
    20.366338575095));
#111 = CARTESIAN_POINT('',(39.392573910654,78.119382519693,
    20.114344774571));
#112 = CARTESIAN_POINT('',(38.117106351321,77.613409101136,19.8295715632
    ));
#113 = CARTESIAN_POINT('',(36.891776112515,77.050407875315,
    19.516973124078));
#114 = CARTESIAN_POINT('',(35.718525369269,76.436179246062,
    19.181650916878));
#115 = CARTESIAN_POINT('',(34.598838249504,75.77649585436,
    18.828786760309));
#116 = CARTESIAN_POINT('',(32.261753098849,74.241909392039,
    18.02741781059));
#117 = CARTESIAN_POINT('',(31.065285994603,73.348552585583,
    17.572840215194));
#118 = CARTESIAN_POINT('',(29.942720079421,72.403950411294,
    17.107239463321));
#119 = CARTESIAN_POINT('',(28.892238677208,71.413621828194,
    16.637536514021));
#120 = CARTESIAN_POINT('',(27.912035549172,70.381899946861,
    16.170434516809));
#121 = CARTESIAN_POINT('',(27.000513639644,69.312114982328,
    15.712676377997));
#122 = CARTESIAN_POINT('',(25.40198448918,67.218688165107,
    14.876747040105));
#123 = CARTESIAN_POINT('',(24.700793596036,66.20137253182,
    14.494960408505));
#124 = CARTESIAN_POINT('',(24.052912114494,65.157446588792,
    14.131380953163));
#125 = CARTESIAN_POINT('',(23.458363679415,64.089277495115,
    13.791650395133));
#126 = CARTESIAN_POINT('',(22.91717333046,62.998937408356,
    13.481598615697));
#127 = CARTESIAN_POINT('',(22.429418682579,61.888151837369,
    13.207159879146));
#128 = CARTESIAN_POINT('',(21.602252113238,59.734964833231,
    12.763263809379));
#129 = CARTESIAN_POINT('',(21.252804075664,58.695010343672,
    12.586139430134));
#130 = CARTESIAN_POINT('',(20.948827672116,57.64315788036,
    12.448127011377));
#131 = CARTESIAN_POINT('',(20.690985674856,56.583516260746,
    12.353600269804));
#132 = CARTESIAN_POINT('',(20.479258108709,55.519601509665,
    12.305795810688));
#133 = CARTESIAN_POINT('',(20.313236158905,54.454449521514,
    12.306683678057));
#134 = CARTESIAN_POINT('',(20.093486851096,52.522662030944,
    12.397954511777));
#135 = CARTESIAN_POINT('',(20.024937246304,51.657403260249,
    12.471763853456));
#136 = CARTESIAN_POINT('',(19.986013174913,50.796681788018,
    12.578471937215));
#137 = CARTESIAN_POINT('',(19.975995466055,49.942135457412,
    12.717547950066));
#138 = CARTESIAN_POINT('',(19.994040383055,49.095432052883,12.8878052507
    ));
#139 = CARTESIAN_POINT('',(20.039141282431,48.258360951209,
    13.087406747849));
#140 = CARTESIAN_POINT('',(20.303533399971,45.179881564439,
    13.932108815004));
#141 = CARTESIAN_POINT('',(20.688040693281,43.026759480699,
    14.747017560136));
#142 = CARTESIAN_POINT('',(21.238047549999,40.963433721154,
    15.717965058329));
#143 = CARTESIAN_POINT('',(21.941313983577,38.984373768804,
    16.802978280115));
#144 = CARTESIAN_POINT('',(22.790436192545,37.086881393061,
    17.966325756607));
#145 = CARTESIAN_POINT('',(23.78305099149,35.269288361025,
    19.179390423026));
#146 = CARTESIAN_POINT('',(25.913133091565,32.025922447,21.491650768888)
  );
#147 = CARTESIAN_POINT('',(27.011992685907,30.582596417966,
    22.582727571362));
#148 = CARTESIAN_POINT('',(28.228416203651,29.193988404287,
    23.681029609666));
#149 = CARTESIAN_POINT('',(29.574691758488,27.859213173824,
    24.776515547148));
#150 = CARTESIAN_POINT('',(31.065725088709,26.584902010114,
    25.854910093983));
#151 = CARTESIAN_POINT('',(32.71694257396,25.386346229666,
    26.894533933383));
#152 = CARTESIAN_POINT('',(35.587562514932,23.660499746961,
    28.420174826293));
#153 = CARTESIAN_POINT('',(36.694627239247,23.062424346324,
    28.955393975855));
#154 = CARTESIAN_POINT('',(37.865429670214,22.500955363776,
    29.463313789659));
#155 = CARTESIAN_POINT('',(39.101569998135,21.983223577804,
    29.93603099924));
#156 = CARTESIAN_POINT('',(40.404098673687,21.517321397332,
    30.364665124622));
#157 = CARTESIAN_POINT('',(41.773330713759,21.112402267281,
    30.73935115162));
#158 = CARTESIAN_POINT('',(45.048733880751,20.351158486082,
    31.446588289887));
#159 = CARTESIAN_POINT('',(47.005486738586,20.038864749332,
    31.73920233114));
#160 = CARTESIAN_POINT('',(49.032717094911,19.876490087772,
    31.892521629198));
#161 = CARTESIAN_POINT('',(51.082960095026,19.880524073291,
    31.888713149551));
#162 = CARTESIAN_POINT('',(53.108341314072,20.050707181029,
    31.728058760243));
#163 = CARTESIAN_POINT('',(55.06143214809,20.370021239679,
    31.428943779177));
#164 = CARTESIAN_POINT('',(58.351017545831,21.147003226281,
    30.70730638124));
#165 = CARTESIAN_POINT('',(59.737252863826,21.563728467136,
    30.321865014697));
#166 = CARTESIAN_POINT('',(61.054339421961,22.042664888565,
    29.881516588274));
#167 = CARTESIAN_POINT('',(62.302830489258,22.574282877104,
    29.396544538005));
#168 = CARTESIAN_POINT('',(63.484057133598,23.150241540202,
    28.876122990307));
#169 = CARTESIAN_POINT('',(64.599922051552,23.763284286363,
    28.328331653198));
#170 = CARTESIAN_POINT('',(67.431011066006,25.494794545101,
    26.800591574983));
#171 = CARTESIAN_POINT('',(69.042311258371,26.678355484939,
    25.775988198169));
#172 = CARTESIAN_POINT('',(70.49987418031,27.934367121455,
    24.715049640859));
#173 = CARTESIAN_POINT('',(71.818257415795,29.248674046796,
    23.638062318083));
#174 = CARTESIAN_POINT('',(73.011460602548,30.615129876649,
    22.558537254853));
#175 = CARTESIAN_POINT('',(74.09101925558,32.034535033439,
    21.486128751234));
#176 = CARTESIAN_POINT('',(75.930508289312,34.831126410044,
    19.491221404794));
#177 = CARTESIAN_POINT('',(76.709865378425,36.191913907439,
    18.568023441239));
#178 = CARTESIAN_POINT('',(77.405585148472,37.596846134088,
    17.670940191037));
#179 = CARTESIAN_POINT('',(78.018493740635,39.047799865945,
    16.810733869985));
#180 = CARTESIAN_POINT('',(78.546884384447,40.547029568847,
    16.000607688163));
#181 = CARTESIAN_POINT('',(78.986836739534,42.097120779953,
    15.256667366205));
#182 = CARTESIAN_POINT('',(79.515452039887,44.558754983184,
    14.243719412191));
#183 = CARTESIAN_POINT('',(79.672474220999,45.432419279384,
    13.914514327259));
#184 = CARTESIAN_POINT('',(79.800792191728,46.320822135537,
    13.612552432785));
#185 = CARTESIAN_POINT('',(79.899016706005,47.222700463152,
    13.34107732099));
#186 = CARTESIAN_POINT('',(79.965856302019,48.137026690947,
    13.102893279381));
#187 = CARTESIAN_POINT('',(80.,49.062993740186,12.900310645326));
#188 = CARTESIAN_POINT('',(80.,50.,12.735091160628));
#189 = PCURVE('',#32,#190);
#190 = DEFINITIONAL_REPRESENTATION('',(#191),#302);
#191 = B_SPLINE_CURVE_WITH_KNOTS('',7,(#192,#193,#194,#195,#196,#197,
    #198,#199,#200,#201,#202,#203,#204,#205,#206,#207,#208,#209,#210,
    #211,#212,#213,#214,#215,#216,#217,#218,#219,#220,#221,#222,#223,
    #224,#225,#226,#227,#228,#229,#230,#231,#232,#233,#234,#235,#236,
    #237,#238,#239,#240,#241,#242,#243,#244,#245,#246,#247,#248,#249,
    #250,#251,#252,#253,#254,#255,#256,#257,#258,#259,#260,#261,#262,
    #263,#264,#265,#266,#267,#268,#269,#270,#271,#272,#273,#274,#275,
    #276,#277,#278,#279,#280,#281,#282,#283,#284,#285,#286,#287,#288,
    #289,#290,#291,#292,#293,#294,#295,#296,#297,#298,#299,#300,#301),
  .UNSPECIFIED.,.F.,.F.,(8,6,6,6,6,6,6,6,6,6,6,6,6,6,6,6,6,6,8),(0.,
    6.043486127559E-02,0.107576730128,0.160295251329,0.211954143595,
    0.269601104311,0.312806061892,0.364404180082,0.410529026533,
    0.452300963174,0.486392139602,0.579445451987,0.660068156679,
    0.706238887475,0.765430653431,0.812371331542,0.891659770049,
    0.962264001454,1.),.UNSPECIFIED.);
#192 = CARTESIAN_POINT('',(0.,12.735091160628));
#193 = CARTESIAN_POINT('',(5.035818939792E-02,12.468705935913));
#194 = CARTESIAN_POINT('',(0.101464338334,12.300558865775));
#195 = CARTESIAN_POINT('',(0.153194522171,12.237873086126));
#196 = CARTESIAN_POINT('',(0.205467948426,12.281418441583));
#197 = CARTESIAN_POINT('',(0.258182406919,12.4250474215));
#198 = CARTESIAN_POINT('',(0.311144599022,12.656324463643));
#199 = CARTESIAN_POINT('',(0.405221269757,13.193762845959));
#200 = CARTESIAN_POINT('',(0.446493030187,13.472913469261));
#201 = CARTESIAN_POINT('',(0.487878398355,13.789424012909));
#202 = CARTESIAN_POINT('',(0.529435127042,14.136960845487));
#203 = CARTESIAN_POINT('',(0.571214455354,14.509304135556));
#204 = CARTESIAN_POINT('',(0.613264980563,14.900440703008));
#205 = CARTESIAN_POINT('',(0.703021204138,15.756524398369));
#206 = CARTESIAN_POINT('',(0.750854736717,16.225181085192));
#207 = CARTESIAN_POINT('',(0.799265878078,16.703046762556));
#208 = CARTESIAN_POINT('',(0.848382391999,17.18295732381));
#209 = CARTESIAN_POINT('',(0.898332475873,17.657755110321));
#210 = CARTESIAN_POINT('',(0.949247938825,18.120007349186));
#211 = CARTESIAN_POINT('',(1.052245450717,18.994662331547));
#212 = CARTESIAN_POINT('',(1.104458483824,19.409367743705));
#213 = CARTESIAN_POINT('',(1.157831769395,19.796283631898));
#214 = CARTESIAN_POINT('',(1.212317702865,20.146023179961));
#215 = CARTESIAN_POINT('',(1.267891001553,20.449713753418));
#216 = CARTESIAN_POINT('',(1.324546374077,20.699217574088));
#217 = CARTESIAN_POINT('',(1.446749792855,21.097140135098));
#218 = CARTESIAN_POINT('',(1.51228828589,21.229581545086));
#219 = CARTESIAN_POINT('',(1.578348891243,21.273866624162));
#220 = CARTESIAN_POINT('',(1.644438136683,21.225486645898));
#221 = CARTESIAN_POINT('',(1.710079037198,21.086821549818));
#222 = CARTESIAN_POINT('',(1.7747516674,20.866979148468));
#223 = CARTESIAN_POINT('',(1.885108613404,20.366338575095));
#224 = CARTESIAN_POINT('',(1.931549302813,20.114344774571));
#225 = CARTESIAN_POINT('',(1.977180806293,19.8295715632));
#226 = CARTESIAN_POINT('',(2.022019891268,19.516973124078));
#227 = CARTESIAN_POINT('',(2.066073906681,19.181650916878));
#228 = CARTESIAN_POINT('',(2.109341632798,18.828786760309));
#229 = CARTESIAN_POINT('',(2.20253749949,18.02741781059));
#230 = CARTESIAN_POINT('',(2.252220183525,17.572840215194));
#231 = CARTESIAN_POINT('',(2.300993745749,17.107239463321));
#232 = CARTESIAN_POINT('',(2.348982927571,16.637536514021));
#233 = CARTESIAN_POINT('',(2.396308430867,16.170434516809));
#234 = CARTESIAN_POINT('',(2.443089699671,15.712676377997));
#235 = CARTESIAN_POINT('',(2.530888277766,14.876747040105));
#236 = CARTESIAN_POINT('',(2.572024742483,14.494960408505));
#237 = CARTESIAN_POINT('',(2.61290393882,14.131380953163));
#238 = CARTESIAN_POINT('',(2.653571396787,13.791650395133));
#239 = CARTESIAN_POINT('',(2.694075122935,13.481598615697));
#240 = CARTESIAN_POINT('',(2.734469070397,13.207159879146));
#241 = CARTESIAN_POINT('',(2.811355847242,12.763263809379));
#242 = CARTESIAN_POINT('',(2.847892493396,12.586139430134));
#243 = CARTESIAN_POINT('',(2.884335609803,12.448127011377));
#244 = CARTESIAN_POINT('',(2.920628703342,12.353600269804));
#245 = CARTESIAN_POINT('',(2.956737282363,12.305795810688));
#246 = CARTESIAN_POINT('',(2.992640298176,12.306683678057));
#247 = CARTESIAN_POINT('',(3.057448499534,12.397954511777));
#248 = CARTESIAN_POINT('',(3.086363897436,12.471763853456));
#249 = CARTESIAN_POINT('',(3.115057779978,12.578471937215));
#250 = CARTESIAN_POINT('',(3.143516285668,12.717547950066));
#251 = CARTESIAN_POINT('',(3.171722103446,12.8878052507));
#252 = CARTESIAN_POINT('',(3.199650770207,13.087406747849));
#253 = CARTESIAN_POINT('',(3.302644505327,13.932108815004));
#254 = CARTESIAN_POINT('',(3.375248880905,14.747017560136));
#255 = CARTESIAN_POINT('',(3.44604157101,15.717965058328));
#256 = CARTESIAN_POINT('',(3.515644308127,16.802978280116));
#257 = CARTESIAN_POINT('',(3.584593903478,17.966325756606));
#258 = CARTESIAN_POINT('',(3.653398427635,19.179390423026));
#259 = CARTESIAN_POINT('',(3.782741520932,21.491650768888));
#260 = CARTESIAN_POINT('',(3.843062969151,22.582727571362));
#261 = CARTESIAN_POINT('',(3.904362676308,23.681029609666));
#262 = CARTESIAN_POINT('',(3.967264186549,24.776515547149));
#263 = CARTESIAN_POINT('',(4.032329097325,25.854910093983));
#264 = CARTESIAN_POINT('',(4.100086815674,26.894533933383));
#265 = CARTESIAN_POINT('',(4.211736092566,28.420174826293));
#266 = CARTESIAN_POINT('',(4.253634669743,28.955393975855));
#267 = CARTESIAN_POINT('',(4.296835010278,29.463313789659));
#268 = CARTESIAN_POINT('',(4.341400629471,29.93603099924));
#269 = CARTESIAN_POINT('',(4.387400241576,30.364665124622));
#270 = CARTESIAN_POINT('',(4.434911967095,30.73935115162));
#271 = CARTESIAN_POINT('',(4.547002000356,31.446588289887));
#272 = CARTESIAN_POINT('',(4.612890511922,31.73920233114));
#273 = CARTESIAN_POINT('',(4.680343157986,31.892521629198));
#274 = CARTESIAN_POINT('',(4.748274748897,31.888713149551));
#275 = CARTESIAN_POINT('',(4.815688283475,31.728058760243));
#276 = CARTESIAN_POINT('',(4.881494770016,31.428943779177));
#277 = CARTESIAN_POINT('',(4.99416475565,30.70730638124));
#278 = CARTESIAN_POINT('',(5.042328332112,30.321865014697));
#279 = CARTESIAN_POINT('',(5.088927329008,29.881516588274));
#280 = CARTESIAN_POINT('',(5.134048337518,29.396544538005));
#281 = CARTESIAN_POINT('',(5.177768862673,28.876122990307));
#282 = CARTESIAN_POINT('',(5.22016213359,28.328331653198));
#283 = CARTESIAN_POINT('',(5.330782569636,26.800591574983));
#284 = CARTESIAN_POINT('',(5.397187063477,25.775988198169));
#285 = CARTESIAN_POINT('',(5.461025859491,24.715049640859));
#286 = CARTESIAN_POINT('',(5.522801882132,23.638062318083));
#287 = CARTESIAN_POINT('',(5.58304774708,22.558537254853));
#288 = CARTESIAN_POINT('',(5.642352368674,21.486128751234));
#289 = CARTESIAN_POINT('',(5.753930160336,19.491221404794));
#290 = CARTESIAN_POINT('',(5.806102867981,18.56802344124));
#291 = CARTESIAN_POINT('',(5.858210100167,17.670940191037));
#292 = CARTESIAN_POINT('',(5.910540415625,16.810733869985));
#293 = CARTESIAN_POINT('',(5.963365938511,16.000607688163));
#294 = CARTESIAN_POINT('',(6.016963005672,15.256667366205));
#295 = CARTESIAN_POINT('',(6.100888085265,14.243719412191));
#296 = CARTESIAN_POINT('',(6.13045994686,13.914514327259));
#297 = CARTESIAN_POINT('',(6.160352334384,13.612552432785));
#298 = CARTESIAN_POINT('',(6.190558978018,13.34107732099));
#299 = CARTESIAN_POINT('',(6.221086094962,13.102893279381));
#300 = CARTESIAN_POINT('',(6.251951765186,12.900310645326));
#301 = CARTESIAN_POINT('',(6.28318530718,12.735091160628));
#302 = ( GEOMETRIC_REPRESENTATION_CONTEXT(2) 
PARAMETRIC_REPRESENTATION_CONTEXT() REPRESENTATION_CONTEXT('2D SPACE',''
  ) );
#303 = PCURVE('',#304,#309);
#304 = CYLINDRICAL_SURFACE('',#305,40.);
#305 = AXIS2_PLACEMENT_3D('',#306,#307,#308);
#306 = CARTESIAN_POINT('',(50.,140.,-30.));
#307 = DIRECTION('',(0.,-0.984807753012,0.173648177667));
#308 = DIRECTION('',(1.,0.,0.));
#309 = DEFINITIONAL_REPRESENTATION('',(#310),#421);
#310 = B_SPLINE_CURVE_WITH_KNOTS('',7,(#311,#312,#313,#314,#315,#316,
    #317,#318,#319,#320,#321,#322,#323,#324,#325,#326,#327,#328,#329,
    #330,#331,#332,#333,#334,#335,#336,#337,#338,#339,#340,#341,#342,
    #343,#344,#345,#346,#347,#348,#349,#350,#351,#352,#353,#354,#355,
    #356,#357,#358,#359,#360,#361,#362,#363,#364,#365,#366,#367,#368,
    #369,#370,#371,#372,#373,#374,#375,#376,#377,#378,#379,#380,#381,
    #382,#383,#384,#385,#386,#387,#388,#389,#390,#391,#392,#393,#394,
    #395,#396,#397,#398,#399,#400,#401,#402,#403,#404,#405,#406,#407,
    #408,#409,#410,#411,#412,#413,#414,#415,#416,#417,#418,#419,#420),
  .UNSPECIFIED.,.T.,.F.,(8,6,6,6,6,6,6,6,6,6,6,6,6,6,6,6,6,6,8),(0.,
    6.043486127559E-02,0.107576730128,0.160295251329,0.211954143595,
    0.269601104311,0.312806061892,0.364404180082,0.410529026533,
    0.452300963174,0.486392139602,0.579445451987,0.660068156679,
    0.706238887475,0.765430653431,0.812371331542,0.891659770049,
    0.962264001454,1.),.UNSPECIFIED.);
#311 = CARTESIAN_POINT('',(0.722734247813,96.053568473572));
#312 = CARTESIAN_POINT('',(0.722734247813,94.519517104341));
#313 = CARTESIAN_POINT('',(0.726088900074,92.980414224542));
#314 = CARTESIAN_POINT('',(0.732978042219,91.447406785687));
#315 = CARTESIAN_POINT('',(0.743433345213,89.929839433955));
#316 = CARTESIAN_POINT('',(0.757336347375,88.437298400126));
#317 = CARTESIAN_POINT('',(0.774408307842,86.980962052045));
#318 = CARTESIAN_POINT('',(0.809623941646,84.476966722382));
#319 = CARTESIAN_POINT('',(0.82674843943,83.40684335986));
#320 = CARTESIAN_POINT('',(0.845453901767,82.364167432991));
#321 = CARTESIAN_POINT('',(0.865636037533,81.349644499956));
#322 = CARTESIAN_POINT('',(0.887200386354,80.364373014724));
#323 = CARTESIAN_POINT('',(0.910064413188,79.409804065144));
#324 = CARTESIAN_POINT('',(0.961103957318,77.45650304052));
#325 = CARTESIAN_POINT('',(0.989614749807,76.46487660383));
#326 = CARTESIAN_POINT('',(1.019632618486,75.514181684004));
#327 = CARTESIAN_POINT('',(1.051126478701,74.60674801924));
#328 = CARTESIAN_POINT('',(1.084086389118,73.745990903382));
#329 = CARTESIAN_POINT('',(1.118519147391,72.936558262293));
#330 = CARTESIAN_POINT('',(1.1896508491,71.447562067697));
#331 = CARTESIAN_POINT('',(1.22641120826,70.763186794202));
#332 = CARTESIAN_POINT('',(1.264611223922,70.140965148235));
#333 = CARTESIAN_POINT('',(1.304142695627,69.589901094346));
#334 = CARTESIAN_POINT('',(1.344907764318,69.11858638855));
#335 = CARTESIAN_POINT('',(1.386818518048,68.735331973397));
#336 = CARTESIAN_POINT('',(1.477750107329,68.127907835828));
#337 = CARTESIAN_POINT('',(1.526824572268,67.928716258218));
#338 = CARTESIAN_POINT('',(1.576458075934,67.862942899327));
#339 = CARTESIAN_POINT('',(1.626125074704,67.93522107072));
#340 = CARTESIAN_POINT('',(1.675305878504,68.143061202875));
#341 = CARTESIAN_POINT('',(1.723462278028,68.476779953324));
#342 = CARTESIAN_POINT('',(1.804907368481,69.250179298873));
#343 = CARTESIAN_POINT('',(1.838941449843,69.642776500866));
#344 = CARTESIAN_POINT('',(1.87208914759,70.091612697075));
#345 = CARTESIAN_POINT('',(1.904316150493,70.591778519925));
#346 = CARTESIAN_POINT('',(1.935583749046,71.138447545923));
#347 = CARTESIAN_POINT('',(1.965849356789,71.726834646853));
#348 = CARTESIAN_POINT('',(2.029960643934,73.098951034857));
#349 = CARTESIAN_POINT('',(2.063424167286,73.899799173011));
#350 = CARTESIAN_POINT('',(2.095476177022,74.749199995681));
#351 = CARTESIAN_POINT('',(2.126122675033,75.642920201157));
#352 = CARTESIAN_POINT('',(2.155353076223,76.577856498245));
#353 = CARTESIAN_POINT('',(2.183136194963,77.551900158756));
#354 = CARTESIAN_POINT('',(2.232908612586,79.468365512536));
#355 = CARTESIAN_POINT('',(2.255219179494,80.403929282622));
#356 = CARTESIAN_POINT('',(2.276282478136,81.36886073503));
#357 = CARTESIAN_POINT('',(2.296020768577,82.361808347712));
#358 = CARTESIAN_POINT('',(2.314345411804,83.38174379209));
#359 = CARTESIAN_POINT('',(2.331158752162,84.427998247849));
#360 = CARTESIAN_POINT('',(2.360119992262,86.471391759621));
#361 = CARTESIAN_POINT('',(2.372571750973,87.464789678042));
#362 = CARTESIAN_POINT('',(2.383578133358,88.476696533923));
#363 = CARTESIAN_POINT('',(2.393039807941,89.503825419918));
#364 = CARTESIAN_POINT('',(2.400888628846,90.543275758118));
#365 = CARTESIAN_POINT('',(2.407085917152,91.592399870736));
#366 = CARTESIAN_POINT('',(2.415324279579,93.510688182571));
#367 = CARTESIAN_POINT('',(2.417912063759,94.375618585992));
#368 = CARTESIAN_POINT('',(2.419387768519,95.241793429314));
#369 = CARTESIAN_POINT('',(2.419767690259,96.107507577192));
#370 = CARTESIAN_POINT('',(2.41908224164,96.970912524466));
#371 = CARTESIAN_POINT('',(2.417376228554,97.829927071454));
#372 = CARTESIAN_POINT('',(2.40742985407,101.00831841366));
#373 = CARTESIAN_POINT('',(2.393034339318,103.27023715347));
#374 = CARTESIAN_POINT('',(2.372725917455,105.47081962213));
#375 = CARTESIAN_POINT('',(2.347495214643,107.60822377559));
#376 = CARTESIAN_POINT('',(2.318085060362,109.67890214779));
#377 = CARTESIAN_POINT('',(2.284975017714,111.67952832627));
#378 = CARTESIAN_POINT('',(2.2166248318,115.27514001961));
#379 = CARTESIAN_POINT('',(2.182309646432,116.88600218157));
#380 = CARTESIAN_POINT('',(2.145392166151,118.44423226682));
#381 = CARTESIAN_POINT('',(2.105699509567,119.94895839901));
#382 = CARTESIAN_POINT('',(2.062999436,121.39117116065));
#383 = CARTESIAN_POINT('',(2.017045350826,122.75204697082));
#384 = CARTESIAN_POINT('',(1.939234998633,124.71659872832));
#385 = CARTESIAN_POINT('',(1.909619598808,125.39852784973));
#386 = CARTESIAN_POINT('',(1.878695712847,126.03966620689));
#387 = CARTESIAN_POINT('',(1.846437407805,126.63161896569));
#388 = CARTESIAN_POINT('',(1.812819779654,127.16487457992));
#389 = CARTESIAN_POINT('',(1.777818187578,127.62870562432));
#390 = CARTESIAN_POINT('',(1.694726728423,128.50119484222));
#391 = CARTESIAN_POINT('',(1.645524548069,128.85955603041));
#392 = CARTESIAN_POINT('',(1.594894392491,129.04608747272));
#393 = CARTESIAN_POINT('',(1.543813169316,129.04145343695));
#394 = CARTESIAN_POINT('',(1.493219447835,128.84595845108));
#395 = CARTESIAN_POINT('',(1.44409206944,128.4795547191));
#396 = CARTESIAN_POINT('',(1.360602312795,127.58906581566));
#397 = CARTESIAN_POINT('',(1.325141201273,127.11174037669));
#398 = CARTESIAN_POINT('',(1.291114187506,126.56361437388));
#399 = CARTESIAN_POINT('',(1.258491291946,125.95585834438));
#400 = CARTESIAN_POINT('',(1.227241842427,125.29827953417));
#401 = CARTESIAN_POINT('',(1.197333653549,124.59942731739));
#402 = CARTESIAN_POINT('',(1.120423251555,122.62893330964));
#403 = CARTESIAN_POINT('',(1.075492293756,121.28543281071));
#404 = CARTESIAN_POINT('',(1.033687247086,119.8642727661));
#405 = CARTESIAN_POINT('',(0.99477596183,118.38291623021));
#406 = CARTESIAN_POINT('',(0.958541796976,116.84976237485));
#407 = CARTESIAN_POINT('',(0.924825156914,115.26569938941));
#408 = CARTESIAN_POINT('',(0.865817246758,112.1651824944));
#409 = CARTESIAN_POINT('',(0.840092045086,110.66475677277));
#410 = CARTESIAN_POINT('',(0.816484281893,109.12539175189));
#411 = CARTESIAN_POINT('',(0.79513740374,107.54710800743));
#412 = CARTESIAN_POINT('',(0.776299304677,105.92997803731));
#413 = CARTESIAN_POINT('',(0.760324635231,104.27425231354));
#414 = CARTESIAN_POINT('',(0.740888056481,101.67411929883));
#415 = CARTESIAN_POINT('',(0.735056811059,100.75656206332));
#416 = CARTESIAN_POINT('',(0.730251736716,99.829220910089));
#417 = CARTESIAN_POINT('',(0.726551120745,98.893902982336));
#418 = CARTESIAN_POINT('',(0.724024694207,97.952107199645));
#419 = CARTESIAN_POINT('',(0.722734247813,97.005029565291));
#420 = CARTESIAN_POINT('',(0.722734247813,96.053568473572));
#421 = ( GEOMETRIC_REPRESENTATION_CONTEXT(2) 
PARAMETRIC_REPRESENTATION_CONTEXT() REPRESENTATION_CONTEXT('2D SPACE',''
  ) );
#422 = ADVANCED_FACE('',(#423),#304,.F.);
#423 = FACE_BOUND('',#424,.F.);
#424 = EDGE_LOOP('',(#425));
#425 = ORIENTED_EDGE('',*,*,#76,.T.);
#426 = ADVANCED_FACE('',(#427),#63,.T.);
#427 = FACE_BOUND('',#428,.T.);
#428 = EDGE_LOOP('',(#429));
#429 = ORIENTED_EDGE('',*,*,#49,.T.);
#430 = ( GEOMETRIC_REPRESENTATION_CONTEXT(3) 
GLOBAL_UNCERTAINTY_ASSIGNED_CONTEXT((#434)) GLOBAL_UNIT_ASSIGNED_CONTEXT
((#431,#432,#433)) REPRESENTATION_CONTEXT('Context #1',
  '3D Context with UNIT and UNCERTAINTY') );
#431 = ( LENGTH_UNIT() NAMED_UNIT(*) SI_UNIT(.MILLI.,.METRE.) );
#432 = ( NAMED_UNIT(*) PLANE_ANGLE_UNIT() SI_UNIT($,.RADIAN.) );
#433 = ( NAMED_UNIT(*) SI_UNIT($,.STERADIAN.) SOLID_ANGLE_UNIT() );
#434 = UNCERTAINTY_MEASURE_WITH_UNIT(LENGTH_MEASURE(2.E-06),#431,
  'distance_accuracy_value','confusion accuracy');
#435 = PRODUCT_RELATED_PRODUCT_CATEGORY('part',$,(#7));
ENDSEC;
END-ISO-10303-21;
