ISO-10303-21;
HEADER;
FILE_DESCRIPTION(('Open CASCADE Model'),'2;1');
FILE_NAME('Open CASCADE Shape Model','2026-07-11T20:16:02',('Author'),(
    'Open CASCADE'),'Open CASCADE STEP processor 8.0','Open CASCADE 8.0'
  ,'Unknown');
FILE_SCHEMA(('AUTOMOTIVE_DESIGN { 1 0 10303 214 1 1 1 1 }'));
ENDSEC;
DATA;
#1 = APPLICATION_PROTOCOL_DEFINITION('international standard',
  'automotive_design',2000,#2);
#2 = APPLICATION_CONTEXT(
  'core data for automotive mechanical design processes');
#3 = SHAPE_DEFINITION_REPRESENTATION(#4,#10);
#4 = PRODUCT_DEFINITION_SHAPE('','',#5);
#5 = PRODUCT_DEFINITION('design','',#6,#9);
#6 = PRODUCT_DEFINITION_FORMATION('','',#7);
#7 = PRODUCT('Open CASCADE STEP translator 8.0 1',
  'Open CASCADE STEP translator 8.0 1','',(#8));
#8 = PRODUCT_CONTEXT('',#2,'mechanical');
#9 = PRODUCT_DEFINITION_CONTEXT('part definition',#2,'design');
#10 = ADVANCED_BREP_SHAPE_REPRESENTATION('',(#11,#15),#459);
#11 = AXIS2_PLACEMENT_3D('',#12,#13,#14);
#12 = CARTESIAN_POINT('',(0.,0.,0.));
#13 = DIRECTION('',(0.,0.,1.));
#14 = DIRECTION('',(1.,0.,-0.));
#15 = MANIFOLD_SOLID_BREP('',#16);
#16 = CLOSED_SHELL('',(#17,#295,#299,#303,#378,#426,#453));
#17 = ADVANCED_FACE('',(#18,#101),#31,.T.);
#18 = FACE_BOUND('',#19,.T.);
#19 = EDGE_LOOP('',(#20,#53,#74,#100));
#20 = ORIENTED_EDGE('',*,*,#21,.F.);
#21 = EDGE_CURVE('',#22,#22,#24,.T.);
#22 = VERTEX_POINT('',#23);
#23 = CARTESIAN_POINT('',(100.,50.,150.));
#24 = SURFACE_CURVE('',#25,(#30,#41),.PCURVE_S1.);
#25 = CIRCLE('',#26,50.);
#26 = AXIS2_PLACEMENT_3D('',#27,#28,#29);
#27 = CARTESIAN_POINT('',(50.,50.,150.));
#28 = DIRECTION('',(0.,0.,1.));
#29 = DIRECTION('',(1.,0.,0.));
#30 = PCURVE('',#31,#36);
#31 = CYLINDRICAL_SURFACE('',#32,50.);
#32 = AXIS2_PLACEMENT_3D('',#33,#34,#35);
#33 = CARTESIAN_POINT('',(50.,50.,0.));
#34 = DIRECTION('',(0.,0.,1.));
#35 = DIRECTION('',(1.,0.,0.));
#36 = DEFINITIONAL_REPRESENTATION('',(#37),#40);
#37 = B_SPLINE_CURVE_WITH_KNOTS('',1,(#38,#39),.UNSPECIFIED.,.F.,.F.,(2,
    2),(0.,6.28318530718),.PIECEWISE_BEZIER_KNOTS.);
#38 = CARTESIAN_POINT('',(0.,150.));
#39 = CARTESIAN_POINT('',(6.28318530718,150.));
#40 = ( GEOMETRIC_REPRESENTATION_CONTEXT(2) 
PARAMETRIC_REPRESENTATION_CONTEXT() REPRESENTATION_CONTEXT('2D SPACE',''
  ) );
#41 = PCURVE('',#42,#47);
#42 = PLANE('',#43);
#43 = AXIS2_PLACEMENT_3D('',#44,#45,#46);
#44 = CARTESIAN_POINT('',(50.,50.,150.));
#45 = DIRECTION('',(0.,0.,1.));
#46 = DIRECTION('',(1.,0.,0.));
#47 = DEFINITIONAL_REPRESENTATION('',(#48),#52);
#48 = CIRCLE('',#49,50.);
#49 = AXIS2_PLACEMENT_2D('',#50,#51);
#50 = CARTESIAN_POINT('',(0.,0.));
#51 = DIRECTION('',(1.,0.));
#52 = ( GEOMETRIC_REPRESENTATION_CONTEXT(2) 
PARAMETRIC_REPRESENTATION_CONTEXT() REPRESENTATION_CONTEXT('2D SPACE',''
  ) );
#53 = ORIENTED_EDGE('',*,*,#54,.F.);
#54 = EDGE_CURVE('',#55,#22,#57,.T.);
#55 = VERTEX_POINT('',#56);
#56 = CARTESIAN_POINT('',(100.,50.,0.));
#57 = SEAM_CURVE('',#58,(#62,#68),.PCURVE_S1.);
#58 = LINE('',#59,#60);
#59 = CARTESIAN_POINT('',(100.,50.,0.));
#60 = VECTOR('',#61,1.);
#61 = DIRECTION('',(0.,0.,1.));
#62 = PCURVE('',#31,#63);
#63 = DEFINITIONAL_REPRESENTATION('',(#64),#67);
#64 = B_SPLINE_CURVE_WITH_KNOTS('',1,(#65,#66),.UNSPECIFIED.,.F.,.F.,(2,
    2),(0.,150.),.PIECEWISE_BEZIER_KNOTS.);
#65 = CARTESIAN_POINT('',(0.,0.));
#66 = CARTESIAN_POINT('',(0.,150.));
#67 = ( GEOMETRIC_REPRESENTATION_CONTEXT(2) 
PARAMETRIC_REPRESENTATION_CONTEXT() REPRESENTATION_CONTEXT('2D SPACE',''
  ) );
#68 = PCURVE('',#31,#69);
#69 = DEFINITIONAL_REPRESENTATION('',(#70),#73);
#70 = B_SPLINE_CURVE_WITH_KNOTS('',1,(#71,#72),.UNSPECIFIED.,.F.,.F.,(2,
    2),(0.,150.),.PIECEWISE_BEZIER_KNOTS.);
#71 = CARTESIAN_POINT('',(6.28318530718,0.));
#72 = CARTESIAN_POINT('',(6.28318530718,150.));
#73 = ( GEOMETRIC_REPRESENTATION_CONTEXT(2) 
PARAMETRIC_REPRESENTATION_CONTEXT() REPRESENTATION_CONTEXT('2D SPACE',''
  ) );
#74 = ORIENTED_EDGE('',*,*,#75,.T.);
#75 = EDGE_CURVE('',#55,#55,#76,.T.);
#76 = SURFACE_CURVE('',#77,(#82,#88),.PCURVE_S1.);
#77 = CIRCLE('',#78,50.);
#78 = AXIS2_PLACEMENT_3D('',#79,#80,#81);
#79 = CARTESIAN_POINT('',(50.,50.,0.));
#80 = DIRECTION('',(0.,0.,1.));
#81 = DIRECTION('',(1.,0.,0.));
#82 = PCURVE('',#31,#83);
#83 = DEFINITIONAL_REPRESENTATION('',(#84),#87);
#84 = B_SPLINE_CURVE_WITH_KNOTS('',1,(#85,#86),.UNSPECIFIED.,.F.,.F.,(2,
    2),(0.,6.28318530718),.PIECEWISE_BEZIER_KNOTS.);
#85 = CARTESIAN_POINT('',(0.,0.));
#86 = CARTESIAN_POINT('',(6.28318530718,0.));
#87 = ( GEOMETRIC_REPRESENTATION_CONTEXT(2) 
PARAMETRIC_REPRESENTATION_CONTEXT() REPRESENTATION_CONTEXT('2D SPACE',''
  ) );
#88 = PCURVE('',#89,#94);
#89 = PLANE('',#90);
#90 = AXIS2_PLACEMENT_3D('',#91,#92,#93);
#91 = CARTESIAN_POINT('',(50.,50.,0.));
#92 = DIRECTION('',(0.,0.,1.));
#93 = DIRECTION('',(1.,0.,0.));
#94 = DEFINITIONAL_REPRESENTATION('',(#95),#99);
#95 = CIRCLE('',#96,50.);
#96 = AXIS2_PLACEMENT_2D('',#97,#98);
#97 = CARTESIAN_POINT('',(0.,0.));
#98 = DIRECTION('',(1.,0.));
#99 = ( GEOMETRIC_REPRESENTATION_CONTEXT(2) 
PARAMETRIC_REPRESENTATION_CONTEXT() REPRESENTATION_CONTEXT('2D SPACE',''
  ) );
#100 = ORIENTED_EDGE('',*,*,#54,.T.);
#101 = FACE_BOUND('',#102,.T.);
#102 = EDGE_LOOP('',(#103,#137,#164));
#103 = ORIENTED_EDGE('',*,*,#104,.F.);
#104 = EDGE_CURVE('',#105,#107,#109,.T.);
#105 = VERTEX_POINT('',#106);
#106 = CARTESIAN_POINT('',(30.,4.174243050442,50.));
#107 = VERTEX_POINT('',#108);
#108 = CARTESIAN_POINT('',(70.,4.174243050442,50.));
#109 = SURFACE_CURVE('',#110,(#115,#121),.PCURVE_S1.);
#110 = CIRCLE('',#111,50.);
#111 = AXIS2_PLACEMENT_3D('',#112,#113,#114);
#112 = CARTESIAN_POINT('',(50.,50.,50.));
#113 = DIRECTION('',(0.,0.,1.));
#114 = DIRECTION('',(0.,-1.,0.));
#115 = PCURVE('',#31,#116);
#116 = DEFINITIONAL_REPRESENTATION('',(#117),#120);
#117 = B_SPLINE_CURVE_WITH_KNOTS('',1,(#118,#119),.UNSPECIFIED.,.F.,.F.,
  (2,2),(5.871668461112,6.694702153247),.PIECEWISE_BEZIER_KNOTS.);
#118 = CARTESIAN_POINT('',(4.300872134317,50.));
#119 = CARTESIAN_POINT('',(5.123905826452,50.));
#120 = ( GEOMETRIC_REPRESENTATION_CONTEXT(2) 
PARAMETRIC_REPRESENTATION_CONTEXT() REPRESENTATION_CONTEXT('2D SPACE',''
  ) );
#121 = PCURVE('',#122,#127);
#122 = PLANE('',#123);
#123 = AXIS2_PLACEMENT_3D('',#124,#125,#126);
#124 = CARTESIAN_POINT('',(30.,30.,50.));
#125 = DIRECTION('',(0.,-1.110223024625E-16,-1.));
#126 = DIRECTION('',(1.,0.,0.));
#127 = DEFINITIONAL_REPRESENTATION('',(#128),#136);
#128 = ( BOUNDED_CURVE() B_SPLINE_CURVE(2,(#129,#130,#131,#132,#133,#134
,#135),.UNSPECIFIED.,.T.,.F.) B_SPLINE_CURVE_WITH_KNOTS((1,2,2,2,2,1),(
    -2.094395102393,0.,2.094395102393,4.188790204786,6.28318530718,
8.377580409573),.UNSPECIFIED.) CURVE() GEOMETRIC_REPRESENTATION_ITEM() 
RATIONAL_B_SPLINE_CURVE((1.,0.5,1.,0.5,1.,0.5,1.)) REPRESENTATION_ITEM(
  '') );
#129 = CARTESIAN_POINT('',(20.,30.));
#130 = CARTESIAN_POINT('',(106.60254037844,30.));
#131 = CARTESIAN_POINT('',(63.301270189222,-45.));
#132 = CARTESIAN_POINT('',(20.,-120.));
#133 = CARTESIAN_POINT('',(-23.30127018922,-45.));
#134 = CARTESIAN_POINT('',(-66.60254037844,30.));
#135 = CARTESIAN_POINT('',(20.,30.));
#136 = ( GEOMETRIC_REPRESENTATION_CONTEXT(2) 
PARAMETRIC_REPRESENTATION_CONTEXT() REPRESENTATION_CONTEXT('2D SPACE',''
  ) );
#137 = ORIENTED_EDGE('',*,*,#138,.T.);
#138 = EDGE_CURVE('',#105,#139,#141,.T.);
#139 = VERTEX_POINT('',#140);
#140 = CARTESIAN_POINT('',(30.,4.174243050442,90.));
#141 = SURFACE_CURVE('',#142,(#146,#152),.PCURVE_S1.);
#142 = LINE('',#143,#144);
#143 = CARTESIAN_POINT('',(30.,4.174243050442,2.22044604925E-15));
#144 = VECTOR('',#145,1.);
#145 = DIRECTION('',(0.,0.,1.));
#146 = PCURVE('',#31,#147);
#147 = DEFINITIONAL_REPRESENTATION('',(#148),#151);
#148 = B_SPLINE_CURVE_WITH_KNOTS('',1,(#149,#150),.UNSPECIFIED.,.F.,.F.,
  (2,2),(50.,90.),.PIECEWISE_BEZIER_KNOTS.);
#149 = CARTESIAN_POINT('',(4.300872134317,50.));
#150 = CARTESIAN_POINT('',(4.300872134317,90.));
#151 = ( GEOMETRIC_REPRESENTATION_CONTEXT(2) 
PARAMETRIC_REPRESENTATION_CONTEXT() REPRESENTATION_CONTEXT('2D SPACE',''
  ) );
#152 = PCURVE('',#153,#158);
#153 = PLANE('',#154);
#154 = AXIS2_PLACEMENT_3D('',#155,#156,#157);
#155 = CARTESIAN_POINT('',(30.,30.,50.));
#156 = DIRECTION('',(1.,-1.232595164408E-32,-1.110223024625E-16));
#157 = DIRECTION('',(1.110223024625E-16,1.110223024625E-16,1.));
#158 = DEFINITIONAL_REPRESENTATION('',(#159),#163);
#159 = LINE('',#160,#161);
#160 = CARTESIAN_POINT('',(-50.,25.825756949558));
#161 = VECTOR('',#162,1.);
#162 = DIRECTION('',(1.,1.110223024625E-16));
#163 = ( GEOMETRIC_REPRESENTATION_CONTEXT(2) 
PARAMETRIC_REPRESENTATION_CONTEXT() REPRESENTATION_CONTEXT('2D SPACE',''
  ) );
#164 = ORIENTED_EDGE('',*,*,#165,.F.);
#165 = EDGE_CURVE('',#107,#139,#166,.T.);
#166 = SURFACE_CURVE('',#167,(#182,#224),.PCURVE_S1.);
#167 = B_SPLINE_CURVE_WITH_KNOTS('',7,(#168,#169,#170,#171,#172,#173,
    #174,#175,#176,#177,#178,#179,#180,#181),.UNSPECIFIED.,.F.,.F.,(8,6,
    8),(0.,0.523771056661,1.),.UNSPECIFIED.);
#168 = CARTESIAN_POINT('',(70.,4.174243050442,50.));
#169 = CARTESIAN_POINT('',(69.99999956269,4.174242859584,54.37309850893)
  );
#170 = CARTESIAN_POINT('',(69.442259489159,3.930803920309,
    58.735710688618));
#171 = CARTESIAN_POINT('',(68.331311467096,3.446051434275,
    63.012710351984));
#172 = CARTESIAN_POINT('',(66.681263814708,2.776564468566,67.14063184138
    ));
#173 = CARTESIAN_POINT('',(64.49956726607,2.026258128852,71.058630813059
    ));
#174 = CARTESIAN_POINT('',(61.795935995697,1.299301105552,
    74.709959163829));
#175 = CARTESIAN_POINT('',(55.584641457074,0.222247696482,
    81.036314197707));
#176 = CARTESIAN_POINT('',(52.136473410521,-0.162086942515,
    83.80629181893));
#177 = CARTESIAN_POINT('',(48.201669832935,-0.300312511581,
    86.221579484101));
#178 = CARTESIAN_POINT('',(43.837693927321,-3.787044628164E-02,
    88.137496309234));
#179 = CARTESIAN_POINT('',(39.177181119434,0.770011295087,
    89.421868811653));
#180 = CARTESIAN_POINT('',(34.45256979949,2.230982389205,89.999999889995
    ));
#181 = CARTESIAN_POINT('',(30.,4.174243050442,90.));
#182 = PCURVE('',#31,#183);
#183 = DEFINITIONAL_REPRESENTATION('',(#184),#223);
#184 = B_SPLINE_CURVE_WITH_KNOTS('',7,(#185,#186,#187,#188,#189,#190,
    #191,#192,#193,#194,#195,#196,#197,#198,#199,#200,#201,#202,#203,
    #204,#205,#206,#207,#208,#209,#210,#211,#212,#213,#214,#215,#216,
    #217,#218,#219,#220,#221,#222),.UNSPECIFIED.,.F.,.F.,(8,6,6,6,6,6,8)
  ,(0.,0.5,0.53125,0.5625,0.625,0.75,1.),.UNSPECIFIED.);
#185 = CARTESIAN_POINT('',(5.123905826452,50.));
#186 = CARTESIAN_POINT('',(5.123905817342,54.174627877306));
#187 = CARTESIAN_POINT('',(5.112815546984,58.339701358024));
#188 = CARTESIAN_POINT('',(5.090714627008,62.429851109646));
#189 = CARTESIAN_POINT('',(5.058220955738,66.389457268719));
#190 = CARTESIAN_POINT('',(5.016111083422,70.165268771896));
#191 = CARTESIAN_POINT('',(4.965003233586,73.707549040697));
#192 = CARTESIAN_POINT('',(4.900846671945,77.159509856775));
#193 = CARTESIAN_POINT('',(4.897035814694,77.361455442603));
#194 = CARTESIAN_POINT('',(4.893192604192,77.562046082893));
#195 = CARTESIAN_POINT('',(4.88930332921,77.761939889485));
#196 = CARTESIAN_POINT('',(4.885390695336,77.959992636477));
#197 = CARTESIAN_POINT('',(4.881432742491,78.15727895818));
#198 = CARTESIAN_POINT('',(4.873438792808,78.549617902899));
#199 = CARTESIAN_POINT('',(4.869402139679,78.744704408091));
#200 = CARTESIAN_POINT('',(4.865325881456,78.938674774801));
#201 = CARTESIAN_POINT('',(4.861210091334,79.131495831731));
#202 = CARTESIAN_POINT('',(4.857054842506,79.323134407559));
#203 = CARTESIAN_POINT('',(4.852860208169,79.513557330988));
#204 = CARTESIAN_POINT('',(4.840158368206,80.081079630135));
#205 = CARTESIAN_POINT('',(4.831533299877,80.454430583277));
#206 = CARTESIAN_POINT('',(4.822751829348,80.822509010729));
#207 = CARTESIAN_POINT('',(4.813814931994,81.185035903425));
#208 = CARTESIAN_POINT('',(4.804723785744,81.541728522646));
#209 = CARTESIAN_POINT('',(4.795479771082,81.892300400004));
#210 = CARTESIAN_POINT('',(4.767293870975,82.924783212374));
#211 = CARTESIAN_POINT('',(4.747898115338,83.587464391143));
#212 = CARTESIAN_POINT('',(4.727909995149,84.222204770459));
#213 = CARTESIAN_POINT('',(4.707345462313,84.826685338033));
#214 = CARTESIAN_POINT('',(4.686224018455,85.398638390582));
#215 = CARTESIAN_POINT('',(4.664569103748,85.935917751732));
#216 = CARTESIAN_POINT('',(4.598087249757,87.437871466532));
#217 = CARTESIAN_POINT('',(4.55174373134,88.292671591026));
#218 = CARTESIAN_POINT('',(4.503598562424,88.98532965296));
#219 = CARTESIAN_POINT('',(4.453953231231,89.503515345634));
#220 = CARTESIAN_POINT('',(4.403195601496,89.840670046449));
#221 = CARTESIAN_POINT('',(4.351878608841,89.999999942252));
#222 = CARTESIAN_POINT('',(4.300872134317,90.));
#223 = ( GEOMETRIC_REPRESENTATION_CONTEXT(2) 
PARAMETRIC_REPRESENTATION_CONTEXT() REPRESENTATION_CONTEXT('2D SPACE',''
  ) );
#224 = PCURVE('',#225,#230);
#225 = CYLINDRICAL_SURFACE('',#226,40.);
#226 = AXIS2_PLACEMENT_3D('',#227,#228,#229);
#227 = CARTESIAN_POINT('',(30.,30.,50.));
#228 = DIRECTION('',(0.,-1.,1.110223024625E-16));
#229 = DIRECTION('',(1.,0.,0.));
#230 = DEFINITIONAL_REPRESENTATION('',(#231),#294);
#231 = B_SPLINE_CURVE_WITH_KNOTS('',11,(#232,#233,#234,#235,#236,#237,
    #238,#239,#240,#241,#242,#243,#244,#245,#246,#247,#248,#249,#250,
    #251,#252,#253,#254,#255,#256,#257,#258,#259,#260,#261,#262,#263,
    #264,#265,#266,#267,#268,#269,#270,#271,#272,#273,#274,#275,#276,
    #277,#278,#279,#280,#281,#282,#283,#284,#285,#286,#287,#288,#289,
    #290,#291,#292,#293),.UNSPECIFIED.,.F.,.F.,(12,10,10,10,10,10,12),(
    0.,0.5,0.53125,0.5625,0.625,0.75,1.),.UNSPECIFIED.);
#232 = CARTESIAN_POINT('',(0.,25.825756949558));
#233 = CARTESIAN_POINT('',(6.641453441168E-02,25.825757065501));
#234 = CARTESIAN_POINT('',(0.132737285017,25.91046129847));
#235 = CARTESIAN_POINT('',(0.199017775341,26.079476398813));
#236 = CARTESIAN_POINT('',(0.265322153684,26.327615301366));
#237 = CARTESIAN_POINT('',(0.331733530189,26.645150376231));
#238 = CARTESIAN_POINT('',(0.398350792698,27.018527728009));
#239 = CARTESIAN_POINT('',(0.465288531234,27.431273973995));
#240 = CARTESIAN_POINT('',(0.53268070095,27.86482693351));
#241 = CARTESIAN_POINT('',(0.600690653373,28.299021658619));
#242 = CARTESIAN_POINT('',(0.669530165797,28.71196323836));
#243 = CARTESIAN_POINT('',(0.743862594445,29.101958717604));
#244 = CARTESIAN_POINT('',(0.748239142552,29.124718895065));
#245 = CARTESIAN_POINT('',(0.752622963825,29.147306805992));
#246 = CARTESIAN_POINT('',(0.756999415002,29.169648562645));
#247 = CARTESIAN_POINT('',(0.761412194644,29.191939714674));
#248 = CARTESIAN_POINT('',(0.765771019587,29.213755263029));
#249 = CARTESIAN_POINT('',(0.770211505446,29.235719216607));
#250 = CARTESIAN_POINT('',(0.774586929157,29.257140485236));
#251 = CARTESIAN_POINT('',(0.779006280555,29.278523031039));
#252 = CARTESIAN_POINT('',(0.783422522865,29.299638386585));
#253 = CARTESIAN_POINT('',(0.792271402859,29.341427227042));
#254 = CARTESIAN_POINT('',(0.79670282498,29.362095286171));
#255 = CARTESIAN_POINT('',(0.801141211562,29.38252955249));
#256 = CARTESIAN_POINT('',(0.805586544938,29.402722594316));
#257 = CARTESIAN_POINT('',(0.810038807445,29.422666979904));
#258 = CARTESIAN_POINT('',(0.814497981416,29.442355277627));
#259 = CARTESIAN_POINT('',(0.818964049189,29.461780055681));
#260 = CARTESIAN_POINT('',(0.823436993096,29.480933882467));
#261 = CARTESIAN_POINT('',(0.827916795475,29.499809326204));
#262 = CARTESIAN_POINT('',(0.832403438659,29.518398955233));
#263 = CARTESIAN_POINT('',(0.845883837634,29.573288103041));
#264 = CARTESIAN_POINT('',(0.854898027331,29.608706834587));
#265 = CARTESIAN_POINT('',(0.863939285174,29.64288982731));
#266 = CARTESIAN_POINT('',(0.873007399117,29.675774844143));
#267 = CARTESIAN_POINT('',(0.882102133975,29.707299116335));
#268 = CARTESIAN_POINT('',(0.891223231416,29.737399343072));
#269 = CARTESIAN_POINT('',(0.90037040997,29.766011691982));
#270 = CARTESIAN_POINT('',(0.909543365018,29.7930717986));
#271 = CARTESIAN_POINT('',(0.918741768803,29.818514766823));
#272 = CARTESIAN_POINT('',(0.927965270423,29.842275168601));
#273 = CARTESIAN_POINT('',(0.955709946656,29.908310795101));
#274 = CARTESIAN_POINT('',(0.974305304712,29.945341284408));
#275 = CARTESIAN_POINT('',(0.992996557394,29.974855695576));
#276 = CARTESIAN_POINT('',(1.011780351142,29.996326219177));
#277 = CARTESIAN_POINT('',(1.030652969166,30.009223531192));
#278 = CARTESIAN_POINT('',(1.049610309172,30.013020271248));
#279 = CARTESIAN_POINT('',(1.068647861086,30.007194521088));
#280 = CARTESIAN_POINT('',(1.087760684778,29.991233282756));
#281 = CARTESIAN_POINT('',(1.106943387781,29.964635957065));
#282 = CARTESIAN_POINT('',(1.126190103025,29.926917821837));
#283 = CARTESIAN_POINT('',(1.184103193598,29.7790048872));
#284 = CARTESIAN_POINT('',(1.222942377779,29.634059120387));
#285 = CARTESIAN_POINT('',(1.26196114515,29.439048759426));
#286 = CARTESIAN_POINT('',(1.301099866575,29.190606046046));
#287 = CARTESIAN_POINT('',(1.340289172499,28.885842186389));
#288 = CARTESIAN_POINT('',(1.379448251946,28.522515558766));
#289 = CARTESIAN_POINT('',(1.418482435726,28.09924885786));
#290 = CARTESIAN_POINT('',(1.457280063864,27.615795174105));
#291 = CARTESIAN_POINT('',(1.495708637233,27.073353009646));
#292 = CARTESIAN_POINT('',(1.533610253421,26.474930229597));
#293 = CARTESIAN_POINT('',(1.570796326795,25.825756949558));
#294 = ( GEOMETRIC_REPRESENTATION_CONTEXT(2) 
PARAMETRIC_REPRESENTATION_CONTEXT() REPRESENTATION_CONTEXT('2D SPACE',''
  ) );
#295 = ADVANCED_FACE('',(#296),#42,.T.);
#296 = FACE_BOUND('',#297,.T.);
#297 = EDGE_LOOP('',(#298));
#298 = ORIENTED_EDGE('',*,*,#21,.T.);
#299 = ADVANCED_FACE('',(#300),#89,.F.);
#300 = FACE_BOUND('',#301,.T.);
#301 = EDGE_LOOP('',(#302));
#302 = ORIENTED_EDGE('',*,*,#75,.F.);
#303 = ADVANCED_FACE('',(#304),#122,.F.);
#304 = FACE_BOUND('',#305,.F.);
#305 = EDGE_LOOP('',(#306,#329,#357,#377));
#306 = ORIENTED_EDGE('',*,*,#307,.F.);
#307 = EDGE_CURVE('',#308,#105,#310,.T.);
#308 = VERTEX_POINT('',#309);
#309 = CARTESIAN_POINT('',(30.,30.,50.));
#310 = SURFACE_CURVE('',#311,(#315,#322),.PCURVE_S1.);
#311 = LINE('',#312,#313);
#312 = CARTESIAN_POINT('',(30.,30.,50.));
#313 = VECTOR('',#314,1.);
#314 = DIRECTION('',(0.,-1.,1.110223024625E-16));
#315 = PCURVE('',#122,#316);
#316 = DEFINITIONAL_REPRESENTATION('',(#317),#321);
#317 = LINE('',#318,#319);
#318 = CARTESIAN_POINT('',(0.,0.));
#319 = VECTOR('',#320,1.);
#320 = DIRECTION('',(0.,1.));
#321 = ( GEOMETRIC_REPRESENTATION_CONTEXT(2) 
PARAMETRIC_REPRESENTATION_CONTEXT() REPRESENTATION_CONTEXT('2D SPACE',''
  ) );
#322 = PCURVE('',#153,#323);
#323 = DEFINITIONAL_REPRESENTATION('',(#324),#328);
#324 = LINE('',#325,#326);
#325 = CARTESIAN_POINT('',(0.,0.));
#326 = VECTOR('',#327,1.);
#327 = DIRECTION('',(0.,1.));
#328 = ( GEOMETRIC_REPRESENTATION_CONTEXT(2) 
PARAMETRIC_REPRESENTATION_CONTEXT() REPRESENTATION_CONTEXT('2D SPACE',''
  ) );
#329 = ORIENTED_EDGE('',*,*,#330,.T.);
#330 = EDGE_CURVE('',#308,#331,#333,.T.);
#331 = VERTEX_POINT('',#332);
#332 = CARTESIAN_POINT('',(70.,30.,50.));
#333 = SURFACE_CURVE('',#334,(#338,#345),.PCURVE_S1.);
#334 = LINE('',#335,#336);
#335 = CARTESIAN_POINT('',(30.,30.,50.));
#336 = VECTOR('',#337,1.);
#337 = DIRECTION('',(1.,0.,0.));
#338 = PCURVE('',#122,#339);
#339 = DEFINITIONAL_REPRESENTATION('',(#340),#344);
#340 = LINE('',#341,#342);
#341 = CARTESIAN_POINT('',(0.,0.));
#342 = VECTOR('',#343,1.);
#343 = DIRECTION('',(1.,0.));
#344 = ( GEOMETRIC_REPRESENTATION_CONTEXT(2) 
PARAMETRIC_REPRESENTATION_CONTEXT() REPRESENTATION_CONTEXT('2D SPACE',''
  ) );
#345 = PCURVE('',#346,#351);
#346 = PLANE('',#347);
#347 = AXIS2_PLACEMENT_3D('',#348,#349,#350);
#348 = CARTESIAN_POINT('',(30.,30.,50.));
#349 = DIRECTION('',(0.,-1.,1.110223024625E-16));
#350 = DIRECTION('',(1.,0.,0.));
#351 = DEFINITIONAL_REPRESENTATION('',(#352),#356);
#352 = LINE('',#353,#354);
#353 = CARTESIAN_POINT('',(0.,0.));
#354 = VECTOR('',#355,1.);
#355 = DIRECTION('',(1.,0.));
#356 = ( GEOMETRIC_REPRESENTATION_CONTEXT(2) 
PARAMETRIC_REPRESENTATION_CONTEXT() REPRESENTATION_CONTEXT('2D SPACE',''
  ) );
#357 = ORIENTED_EDGE('',*,*,#358,.T.);
#358 = EDGE_CURVE('',#331,#107,#359,.T.);
#359 = SURFACE_CURVE('',#360,(#364,#371),.PCURVE_S1.);
#360 = LINE('',#361,#362);
#361 = CARTESIAN_POINT('',(70.,30.,50.));
#362 = VECTOR('',#363,1.);
#363 = DIRECTION('',(0.,-1.,1.110223024625E-16));
#364 = PCURVE('',#122,#365);
#365 = DEFINITIONAL_REPRESENTATION('',(#366),#370);
#366 = LINE('',#367,#368);
#367 = CARTESIAN_POINT('',(40.,0.));
#368 = VECTOR('',#369,1.);
#369 = DIRECTION('',(0.,1.));
#370 = ( GEOMETRIC_REPRESENTATION_CONTEXT(2) 
PARAMETRIC_REPRESENTATION_CONTEXT() REPRESENTATION_CONTEXT('2D SPACE',''
  ) );
#371 = PCURVE('',#225,#372);
#372 = DEFINITIONAL_REPRESENTATION('',(#373),#376);
#373 = B_SPLINE_CURVE_WITH_KNOTS('',1,(#374,#375),.UNSPECIFIED.,.F.,.F.,
  (2,2),(0.,25.825756949558),.PIECEWISE_BEZIER_KNOTS.);
#374 = CARTESIAN_POINT('',(0.,0.));
#375 = CARTESIAN_POINT('',(0.,25.825756949558));
#376 = ( GEOMETRIC_REPRESENTATION_CONTEXT(2) 
PARAMETRIC_REPRESENTATION_CONTEXT() REPRESENTATION_CONTEXT('2D SPACE',''
  ) );
#377 = ORIENTED_EDGE('',*,*,#104,.F.);
#378 = ADVANCED_FACE('',(#379),#153,.T.);
#379 = FACE_BOUND('',#380,.T.);
#380 = EDGE_LOOP('',(#381,#382,#405,#425));
#381 = ORIENTED_EDGE('',*,*,#307,.F.);
#382 = ORIENTED_EDGE('',*,*,#383,.T.);
#383 = EDGE_CURVE('',#308,#384,#386,.T.);
#384 = VERTEX_POINT('',#385);
#385 = CARTESIAN_POINT('',(30.,30.,90.));
#386 = SURFACE_CURVE('',#387,(#391,#398),.PCURVE_S1.);
#387 = LINE('',#388,#389);
#388 = CARTESIAN_POINT('',(30.,30.,50.));
#389 = VECTOR('',#390,1.);
#390 = DIRECTION('',(1.110223024625E-16,1.110223024625E-16,1.));
#391 = PCURVE('',#153,#392);
#392 = DEFINITIONAL_REPRESENTATION('',(#393),#397);
#393 = LINE('',#394,#395);
#394 = CARTESIAN_POINT('',(0.,0.));
#395 = VECTOR('',#396,1.);
#396 = DIRECTION('',(1.,0.));
#397 = ( GEOMETRIC_REPRESENTATION_CONTEXT(2) 
PARAMETRIC_REPRESENTATION_CONTEXT() REPRESENTATION_CONTEXT('2D SPACE',''
  ) );
#398 = PCURVE('',#346,#399);
#399 = DEFINITIONAL_REPRESENTATION('',(#400),#404);
#400 = LINE('',#401,#402);
#401 = CARTESIAN_POINT('',(0.,0.));
#402 = VECTOR('',#403,1.);
#403 = DIRECTION('',(1.110223024625E-16,1.));
#404 = ( GEOMETRIC_REPRESENTATION_CONTEXT(2) 
PARAMETRIC_REPRESENTATION_CONTEXT() REPRESENTATION_CONTEXT('2D SPACE',''
  ) );
#405 = ORIENTED_EDGE('',*,*,#406,.T.);
#406 = EDGE_CURVE('',#384,#139,#407,.T.);
#407 = SURFACE_CURVE('',#408,(#412,#419),.PCURVE_S1.);
#408 = LINE('',#409,#410);
#409 = CARTESIAN_POINT('',(30.,30.,90.));
#410 = VECTOR('',#411,1.);
#411 = DIRECTION('',(0.,-1.,1.110223024625E-16));
#412 = PCURVE('',#153,#413);
#413 = DEFINITIONAL_REPRESENTATION('',(#414),#418);
#414 = LINE('',#415,#416);
#415 = CARTESIAN_POINT('',(40.,0.));
#416 = VECTOR('',#417,1.);
#417 = DIRECTION('',(0.,1.));
#418 = ( GEOMETRIC_REPRESENTATION_CONTEXT(2) 
PARAMETRIC_REPRESENTATION_CONTEXT() REPRESENTATION_CONTEXT('2D SPACE',''
  ) );
#419 = PCURVE('',#225,#420);
#420 = DEFINITIONAL_REPRESENTATION('',(#421),#424);
#421 = B_SPLINE_CURVE_WITH_KNOTS('',1,(#422,#423),.UNSPECIFIED.,.F.,.F.,
  (2,2),(0.,25.825756949558),.PIECEWISE_BEZIER_KNOTS.);
#422 = CARTESIAN_POINT('',(1.570796326795,0.));
#423 = CARTESIAN_POINT('',(1.570796326795,25.825756949558));
#424 = ( GEOMETRIC_REPRESENTATION_CONTEXT(2) 
PARAMETRIC_REPRESENTATION_CONTEXT() REPRESENTATION_CONTEXT('2D SPACE',''
  ) );
#425 = ORIENTED_EDGE('',*,*,#138,.F.);
#426 = ADVANCED_FACE('',(#427),#225,.F.);
#427 = FACE_BOUND('',#428,.F.);
#428 = EDGE_LOOP('',(#429,#430,#431,#432));
#429 = ORIENTED_EDGE('',*,*,#406,.T.);
#430 = ORIENTED_EDGE('',*,*,#165,.F.);
#431 = ORIENTED_EDGE('',*,*,#358,.F.);
#432 = ORIENTED_EDGE('',*,*,#433,.T.);
#433 = EDGE_CURVE('',#331,#384,#434,.T.);
#434 = SURFACE_CURVE('',#435,(#440,#446),.PCURVE_S1.);
#435 = CIRCLE('',#436,40.);
#436 = AXIS2_PLACEMENT_3D('',#437,#438,#439);
#437 = CARTESIAN_POINT('',(30.,30.,50.));
#438 = DIRECTION('',(0.,-1.,1.110223024625E-16));
#439 = DIRECTION('',(1.,0.,0.));
#440 = PCURVE('',#225,#441);
#441 = DEFINITIONAL_REPRESENTATION('',(#442),#445);
#442 = B_SPLINE_CURVE_WITH_KNOTS('',1,(#443,#444),.UNSPECIFIED.,.F.,.F.,
  (2,2),(0.,1.570796326795),.PIECEWISE_BEZIER_KNOTS.);
#443 = CARTESIAN_POINT('',(0.,0.));
#444 = CARTESIAN_POINT('',(1.570796326795,0.));
#445 = ( GEOMETRIC_REPRESENTATION_CONTEXT(2) 
PARAMETRIC_REPRESENTATION_CONTEXT() REPRESENTATION_CONTEXT('2D SPACE',''
  ) );
#446 = PCURVE('',#346,#447);
#447 = DEFINITIONAL_REPRESENTATION('',(#448),#452);
#448 = CIRCLE('',#449,40.);
#449 = AXIS2_PLACEMENT_2D('',#450,#451);
#450 = CARTESIAN_POINT('',(0.,0.));
#451 = DIRECTION('',(1.,0.));
#452 = ( GEOMETRIC_REPRESENTATION_CONTEXT(2) 
PARAMETRIC_REPRESENTATION_CONTEXT() REPRESENTATION_CONTEXT('2D SPACE',''
  ) );
#453 = ADVANCED_FACE('',(#454),#346,.T.);
#454 = FACE_BOUND('',#455,.F.);
#455 = EDGE_LOOP('',(#456,#457,#458));
#456 = ORIENTED_EDGE('',*,*,#433,.F.);
#457 = ORIENTED_EDGE('',*,*,#330,.F.);
#458 = ORIENTED_EDGE('',*,*,#383,.T.);
#459 = ( GEOMETRIC_REPRESENTATION_CONTEXT(3) 
GLOBAL_UNCERTAINTY_ASSIGNED_CONTEXT((#463)) GLOBAL_UNIT_ASSIGNED_CONTEXT
((#460,#461,#462)) REPRESENTATION_CONTEXT('Context #1',
  '3D Context with UNIT and UNCERTAINTY') );
#460 = ( LENGTH_UNIT() NAMED_UNIT(*) SI_UNIT(.MILLI.,.METRE.) );
#461 = ( NAMED_UNIT(*) PLANE_ANGLE_UNIT() SI_UNIT($,.RADIAN.) );
#462 = ( NAMED_UNIT(*) SI_UNIT($,.STERADIAN.) SOLID_ANGLE_UNIT() );
#463 = UNCERTAINTY_MEASURE_WITH_UNIT(LENGTH_MEASURE(2.E-06),#460,
  'distance_accuracy_value','confusion accuracy');
#464 = PRODUCT_RELATED_PRODUCT_CATEGORY('part',$,(#7));
ENDSEC;
END-ISO-10303-21;
