ISO-10303-21;
HEADER;
FILE_DESCRIPTION(('Open CASCADE Model'),'2;1');
FILE_NAME('Open CASCADE Shape Model','2026-07-11T20:16:02',('Author'),(
    'Open CASCADE'),'Open CASCADE STEP processor 8.0','Open CASCADE 8.0'
  ,'Unknown');
FILE_SCHEMA(('AUTOMOTIVE_DESIGN { 1 0 10303 214 1 1 1 1 }'));
ENDSEC;
DATA;
#1 = APPLICATION_PROTOCOL_DEFINITION('international standard',
  'automotive_design',2000,#2);
#2 = APPLICATION_CONTEXT(
  'core data for automotive mechanical design processes');
#3 = SHAPE_DEFINITION_REPRESENTATION(#4,#10);
#4 = PRODUCT_DEFINITION_SHAPE('','',#5);
#5 = PRODUCT_DEFINITION('design','',#6,#9);
#6 = PRODUCT_DEFINITION_FORMATION('','',#7);
#7 = PRODUCT('Open CASCADE STEP translator 8.0 1',
  'Open CASCADE STEP translator 8.0 1','',(#8));
#8 = PRODUCT_CONTEXT('',#2,'mechanical');
#9 = PRODUCT_DEFINITION_CONTEXT('part definition',#2,'design');
#10 = ADVANCED_BREP_SHAPE_REPRESENTATION('',(#11,#15),#459);
#11 = AXIS2_PLACEMENT_3D('',#12,#13,#14);
#12 = CARTESIAN_POINT('',(0.,0.,0.));
#13 = DIRECTION('',(0.,0.,1.));
#14 = DIRECTION('',(1.,0.,-0.));
#15 = MANIFOLD_SOLID_BREP('',#16);
#16 = CLOSED_SHELL('',(#17,#295,#299,#303,#378,#426,#453));
#17 = ADVANCED_FACE('',(#18,#101),#31,.T.);
#18 = FACE_BOUND('',#19,.T.);
#19 = EDGE_LOOP('',(#20,#53,#74,#100));
#20 = ORIENTED_EDGE('',*,*,#21,.F.);
#21 = EDGE_CURVE('',#22,#22,#24,.T.);
#22 = VERTEX_POINT('',#23);
#23 = CARTESIAN_POINT('',(100.,50.,150.));
#24 = SURFACE_CURVE('',#25,(#30,#41),.PCURVE_S1.);
#25 = CIRCLE('',#26,50.);
#26 = AXIS2_PLACEMENT_3D('',#27,#28,#29);
#27 = CARTESIAN_POINT('',(50.,50.,150.));
#28 = DIRECTION('',(0.,0.,1.));
#29 = DIRECTION('',(1.,0.,0.));
#30 = PCURVE('',#31,#36);
#31 = CYLINDRICAL_SURFACE('',#32,50.);
#32 = AXIS2_PLACEMENT_3D('',#33,#34,#35);
#33 = CARTESIAN_POINT('',(50.,50.,0.));
#34 = DIRECTION('',(0.,0.,1.));
#35 = DIRECTION('',(1.,0.,0.));
#36 = DEFINITIONAL_REPRESENTATION('',(#37),#40);
#37 = B_SPLINE_CURVE_WITH_KNOTS('',1,(#38,#39),.UNSPECIFIED.,.F.,.F.,(2,
    2),(0.,6.28318530718),.PIECEWISE_BEZIER_KNOTS.);
#38 = CARTESIAN_POINT('',(0.,150.));
#39 = CARTESIAN_POINT('',(6.28318530718,150.));
#40 = ( GEOMETRIC_REPRESENTATION_CONTEXT(2) 
PARAMETRIC_REPRESENTATION_CONTEXT() REPRESENTATION_CONTEXT('2D SPACE',''
  ) );
#41 = PCURVE('',#42,#47);
#42 = PLANE('',#43);
#43 = AXIS2_PLACEMENT_3D('',#44,#45,#46);
#44 = CARTESIAN_POINT('',(50.,50.,150.));
#45 = DIRECTION('',(0.,0.,1.));
#46 = DIRECTION('',(1.,0.,0.));
#47 = DEFINITIONAL_REPRESENTATION('',(#48),#52);
#48 = CIRCLE('',#49,50.);
#49 = AXIS2_PLACEMENT_2D('',#50,#51);
#50 = CARTESIAN_POINT('',(0.,0.));
#51 = DIRECTION('',(1.,0.));
#52 = ( GEOMETRIC_REPRESENTATION_CONTEXT(2) 
PARAMETRIC_REPRESENTATION_CONTEXT() REPRESENTATION_CONTEXT('2D SPACE',''
  ) );
#53 = ORIENTED_EDGE('',*,*,#54,.F.);
#54 = EDGE_CURVE('',#55,#22,#57,.T.);
#55 = VERTEX_POINT('',#56);
#56 = CARTESIAN_POINT('',(100.,50.,0.));
#57 = SEAM_CURVE('',#58,(#62,#68),.PCURVE_S1.);
#58 = LINE('',#59,#60);
#59 = CARTESIAN_POINT('',(100.,50.,0.));
#60 = VECTOR('',#61,1.);
#61 = DIRECTION('',(0.,0.,1.));
#62 = PCURVE('',#31,#63);
#63 = DEFINITIONAL_REPRESENTATION('',(#64),#67);
#64 = B_SPLINE_CURVE_WITH_KNOTS('',1,(#65,#66),.UNSPECIFIED.,.F.,.F.,(2,
    2),(0.,150.),.PIECEWISE_BEZIER_KNOTS.);
#65 = CARTESIAN_POINT('',(0.,0.));
#66 = CARTESIAN_POINT('',(0.,150.));
#67 = ( GEOMETRIC_REPRESENTATION_CONTEXT(2) 
PARAMETRIC_REPRESENTATION_CONTEXT() REPRESENTATION_CONTEXT('2D SPACE',''
  ) );
#68 = PCURVE('',#31,#69);
#69 = DEFINITIONAL_REPRESENTATION('',(#70),#73);
#70 = B_SPLINE_CURVE_WITH_KNOTS('',1,(#71,#72),.UNSPECIFIED.,.F.,.F.,(2,
    2),(0.,150.),.PIECEWISE_BEZIER_KNOTS.);
#71 = CARTESIAN_POINT('',(6.28318530718,0.));
#72 = CARTESIAN_POINT('',(6.28318530718,150.));
#73 = ( GEOMETRIC_REPRESENTATION_CONTEXT(2) 
PARAMETRIC_REPRESENTATION_CONTEXT() REPRESENTATION_CONTEXT('2D SPACE',''
  ) );
#74 = ORIENTED_EDGE('',*,*,#75,.T.);
#75 = EDGE_CURVE('',#55,#55,#76,.T.);
#76 = SURFACE_CURVE('',#77,(#82,#88),.PCURVE_S1.);
#77 = CIRCLE('',#78,50.);
#78 = AXIS2_PLACEMENT_3D('',#79,#80,#81);
#79 = CARTESIAN_POINT('',(50.,50.,0.));
#80 = DIRECTION('',(0.,0.,1.));
#81 = DIRECTION('',(1.,0.,0.));
#82 = PCURVE('',#31,#83);
#83 = DEFINITIONAL_REPRESENTATION('',(#84),#87);
#84 = B_SPLINE_CURVE_WITH_KNOTS('',1,(#85,#86),.UNSPECIFIED.,.F.,.F.,(2,
    2),(0.,6.28318530718),.PIECEWISE_BEZIER_KNOTS.);
#85 = CARTESIAN_POINT('',(0.,0.));
#86 = CARTESIAN_POINT('',(6.28318530718,0.));
#87 = ( GEOMETRIC_REPRESENTATION_CONTEXT(2) 
PARAMETRIC_REPRESENTATION_CONTEXT() REPRESENTATION_CONTEXT('2D SPACE',''
  ) );
#88 = PCURVE('',#89,#94);
#89 = PLANE('',#90);
#90 = AXIS2_PLACEMENT_3D('',#91,#92,#93);
#91 = CARTESIAN_POINT('',(50.,50.,0.));
#92 = DIRECTION('',(0.,0.,1.));
#93 = DIRECTION('',(1.,0.,0.));
#94 = DEFINITIONAL_REPRESENTATION('',(#95),#99);
#95 = CIRCLE('',#96,50.);
#96 = AXIS2_PLACEMENT_2D('',#97,#98);
#97 = CARTESIAN_POINT('',(0.,0.));
#98 = DIRECTION('',(1.,0.));
#99 = ( GEOMETRIC_REPRESENTATION_CONTEXT(2) 
PARAMETRIC_REPRESENTATION_CONTEXT() REPRESENTATION_CONTEXT('2D SPACE',''
  ) );
#100 = ORIENTED_EDGE('',*,*,#54,.T.);
#101 = FACE_BOUND('',#102,.T.);
#102 = EDGE_LOOP('',(#103,#137,#164));
#103 = ORIENTED_EDGE('',*,*,#104,.F.);
#104 = EDGE_CURVE('',#105,#107,#109,.T.);
#105 = VERTEX_POINT('',#106);
#106 = CARTESIAN_POINT('',(30.,4.174243050442,50.));
#107 = VERTEX_POINT('',#108);
#108 = CARTESIAN_POINT('',(70.,4.174243050442,50.));
#109 = SURFACE_CURVE('',#110,(#115,#121),.PCURVE_S1.);
#110 = CIRCLE('',#111,50.);
#111 = AXIS2_PLACEMENT_3D('',#112,#113,#114);
#112 = CARTESIAN_POINT('',(50.,50.,50.));
#113 = DIRECTION('',(0.,0.,1.));
#114 = DIRECTION('',(0.,-1.,0.));
#115 = PCURVE('',#31,#116);
#116 = DEFINITIONAL_REPRESENTATION('',(#117),#120);
#117 = B_SPLINE_CURVE_WITH_KNOTS('',1,(#118,#119),.UNSPECIFIED.,.F.,.F.,
  (2,2),(5.871668461112,6.694702153247),.PIECEWISE_BEZIER_KNOTS.);
#118 = CARTESIAN_POINT('',(4.300872134317,50.));
#119 = CARTESIAN_POINT('',(5.123905826452,50.));
#120 = ( GEOMETRIC_REPRESENTATION_CONTEXT(2) 
PARAMETRIC_REPRESENTATION_CONTEXT() REPRESENTATION_CONTEXT('2D SPACE',''
  ) );
#121 = PCURVE('',#122,#127);
#122 = PLANE('',#123);
#123 = AXIS2_PLACEMENT_3D('',#124,#125,#126);
#124 = CARTESIAN_POINT('',(30.,30.,50.));
#125 = DIRECTION('',(0.,-1.110223024625E-16,-1.));
#126 = DIRECTION('',(1.,0.,0.));
#127 = DEFINITIONAL_REPRESENTATION('',(#128),#136);
#128 = ( BOUNDED_CURVE() B_SPLINE_CURVE(2,(#129,#130,#131,#132,#133,#134
,#135),.UNSPECIFIED.,.T.,.F.) B_SPLINE_CURVE_WITH_KNOTS((1,2,2,2,2,1),(
    -2.094395102393,0.,2.094395102393,4.188790204786,6.28318530718,
8.377580409573),.UNSPECIFIED.) CURVE() GEOMETRIC_REPRESENTATION_ITEM() 
RATIONAL_B_SPLINE_CURVE((1.,0.5,1.,0.5,1.,0.5,1.)) REPRESENTATION_ITEM(
  '') );
#129 = CARTESIAN_POINT('',(20.,30.));
#130 = CARTESIAN_POINT('',(106.60254037844,30.));
#131 = CARTESIAN_POINT('',(63.301270189222,-45.));
#132 = CARTESIAN_POINT('',(20.,-120.));
#133 = CARTESIAN_POINT('',(-23.30127018922,-45.));
#134 = CARTESIAN_POINT('',(-66.60254037844,30.));
#135 = CARTESIAN_POINT('',(20.,30.));
#136 = ( GEOMETRIC_REPRESENTATION_CONTEXT(2) 
PARAMETRIC_REPRESENTATION_CONTEXT() REPRESENTATION_CONTEXT('2D SPACE',''
  ) );
#137 = ORIENTED_EDGE('',*,*,#138,.T.);
#138 = EDGE_CURVE('',#105,#139,#141,.T.);
#139 = VERTEX_POINT('',#140);
#140 = CARTESIAN_POINT('',(30.,4.174243050442,90.));
#141 = SURFACE_CURVE('',#142,(#146,#152),.PCURVE_S1.);
#142 = LINE('',#143,#144);
#143 = CARTESIAN_POINT('',(30.,4.174243050442,2.22044604925E-15));
#144 = VECTOR('',#145,1.);
#145 = DIRECTION('',(0.,0.,1.));
#146 = PCURVE('',#31,#147);
#147 = DEFINITIONAL_REPRESENTATION('',(#148),#151);
#148 = B_SPLINE_CURVE_WITH_KNOTS('',1,(#149,#150),.UNSPECIFIED.,.F.,.F.,
  (2,2),(50.,90.),.PIECEWISE_BEZIER_KNOTS.);
#149 = CARTESIAN_POINT('',(4.300872134317,50.));
#150 = CARTESIAN_POINT('',(4.300872134317,90.));
#151 = ( GEOMETRIC_REPRESENTATION_CONTEXT(2) 
PARAMETRIC_REPRESENTATION_CONTEXT() REPRESENTATION_CONTEXT('2D SPACE',''
  ) );
#152 = PCURVE('',#153,#158);
#153 = PLANE('',#154);
#154 = AXIS2_PLACEMENT_3D('',#155,#156,#157);
#155 = CARTESIAN_POINT('',(30.,30.,50.));
#156 = DIRECTION('',(1.,-1.232595164408E-32,-1.110223024625E-16));
#157 = DIRECTION('',(1.110223024625E-16,1.110223024625E-16,1.));
#158 = DEFINITIONAL_REPRESENTATION('',(#159),#163);
#159 = LINE('',#160,#161);
#160 = CARTESIAN_POINT('',(-50.,25.825756949558));
#161 = VECTOR('',#162,1.);
#162 = DIRECTION('',(1.,1.110223024625E-16));
#163 = ( GEOMETRIC_REPRESENTATION_CONTEXT(2) 
PARAMETRIC_REPRESENTATION_CONTEXT() REPRESENTATION_CONTEXT('2D SPACE',''
  ) );
#164 = ORIENTED_EDGE('',*,*,#165,.F.);
#165 = EDGE_CURVE('',#107,#139,#166,.T.);
#166 = SURFACE_CURVE('',#167,(#182,#224),.PCURVE_S1.);
#167 = B_SPLINE_CURVE_WITH_KNOTS('',7,(#168,#169,#170,#171,#172,#173,
    #174,#175,#176,#177,#178,#179,#180,#181),.UNSPECIFIED.,.F.,.F.,(8,6,
    8),(0.,0.523771056661,1.),.UNSPECIFIED.);
#168 = CARTESIAN_POINT('',(70.,4.174243050442,50.));
#169 = CARTESIAN_POINT('',(69.99999956269,4.174242859584,54.373098508931
    ));
#170 = CARTESIAN_POINT('',(69.442259489156,3.930803920308,
    58.735710688616));
#171 = CARTESIAN_POINT('',(68.331311467103,3.446051434277,
    63.012710351986));
#172 = CARTESIAN_POINT('',(66.681263814699,2.776564468564,67.14063184138
    ));
#173 = CARTESIAN_POINT('',(64.499567266075,2.026258128853,
    71.058630813058));
#174 = CARTESIAN_POINT('',(61.795935995696,1.299301105552,74.70995916383
    ));
#175 = CARTESIAN_POINT('',(55.58464145707,0.222247696481,81.036314197711
    ));
#176 = CARTESIAN_POINT('',(52.136473410531,-0.162086942514,
    83.80629181892));
#177 = CARTESIAN_POINT('',(48.201669832922,-0.300312511583,
    86.221579484115));
#178 = CARTESIAN_POINT('',(43.83769392733,-3.787044628027E-02,
    88.137496309224));
#179 = CARTESIAN_POINT('',(39.177181119431,0.770011295086,
    89.421868811656));
#180 = CARTESIAN_POINT('',(34.45256979949,2.230982389205,89.999999889995
    ));
#181 = CARTESIAN_POINT('',(30.,4.174243050442,90.));
#182 = PCURVE('',#31,#183);
#183 = DEFINITIONAL_REPRESENTATION('',(#184),#223);
#184 = B_SPLINE_CURVE_WITH_KNOTS('',7,(#185,#186,#187,#188,#189,#190,
    #191,#192,#193,#194,#195,#196,#197,#198,#199,#200,#201,#202,#203,
    #204,#205,#206,#207,#208,#209,#210,#211,#212,#213,#214,#215,#216,
    #217,#218,#219,#220,#221,#222),.UNSPECIFIED.,.F.,.F.,(8,6,6,6,6,6,8)
  ,(0.,0.5,0.53125,0.5625,0.625,0.75,1.),.UNSPECIFIED.);
#185 = CARTESIAN_POINT('',(5.123905826452,50.));
#186 = CARTESIAN_POINT('',(5.123905817342,54.17462787731));
#187 = CARTESIAN_POINT('',(5.112815546984,58.339701358028));
#188 = CARTESIAN_POINT('',(5.090714627008,62.429851109655));
#189 = CARTESIAN_POINT('',(5.058220955738,66.38945726873));
#190 = CARTESIAN_POINT('',(5.016111083421,70.165268771907));
#191 = CARTESIAN_POINT('',(4.965003233586,73.707549040711));
#192 = CARTESIAN_POINT('',(4.900846671945,77.15950985679));
#193 = CARTESIAN_POINT('',(4.897035814694,77.361455442618));
#194 = CARTESIAN_POINT('',(4.893192604192,77.562046082908));
#195 = CARTESIAN_POINT('',(4.88930332921,77.761939889501));
#196 = CARTESIAN_POINT('',(4.885390695336,77.959992636493));
#197 = CARTESIAN_POINT('',(4.881432742491,78.157278958196));
#198 = CARTESIAN_POINT('',(4.873438792808,78.549617902915));
#199 = CARTESIAN_POINT('',(4.869402139679,78.744704408106));
#200 = CARTESIAN_POINT('',(4.865325881456,78.938674774817));
#201 = CARTESIAN_POINT('',(4.861210091333,79.131495831745));
#202 = CARTESIAN_POINT('',(4.857054842506,79.323134407574));
#203 = CARTESIAN_POINT('',(4.852860208168,79.513557331002));
#204 = CARTESIAN_POINT('',(4.840158368206,80.081079630148));
#205 = CARTESIAN_POINT('',(4.831533299877,80.454430583291));
#206 = CARTESIAN_POINT('',(4.822751829348,80.82250901074));
#207 = CARTESIAN_POINT('',(4.813814931994,81.185035903438));
#208 = CARTESIAN_POINT('',(4.804723785744,81.541728522656));
#209 = CARTESIAN_POINT('',(4.795479771082,81.892300400015));
#210 = CARTESIAN_POINT('',(4.767293870975,82.924783212383));
#211 = CARTESIAN_POINT('',(4.747898115338,83.587464391152));
#212 = CARTESIAN_POINT('',(4.727909995149,84.222204770467));
#213 = CARTESIAN_POINT('',(4.707345462313,84.826685338041));
#214 = CARTESIAN_POINT('',(4.686224018455,85.398638390588));
#215 = CARTESIAN_POINT('',(4.664569103748,85.935917751737));
#216 = CARTESIAN_POINT('',(4.598087249756,87.437871466536));
#217 = CARTESIAN_POINT('',(4.55174373134,88.292671591028));
#218 = CARTESIAN_POINT('',(4.503598562424,88.985329652962));
#219 = CARTESIAN_POINT('',(4.453953231231,89.503515345634));
#220 = CARTESIAN_POINT('',(4.403195601495,89.84067004645));
#221 = CARTESIAN_POINT('',(4.351878608841,89.999999942252));
#222 = CARTESIAN_POINT('',(4.300872134317,90.));
#223 = ( GEOMETRIC_REPRESENTATION_CONTEXT(2) 
PARAMETRIC_REPRESENTATION_CONTEXT() REPRESENTATION_CONTEXT('2D SPACE',''
  ) );
#224 = PCURVE('',#225,#230);
#225 = CYLINDRICAL_SURFACE('',#226,40.);
#226 = AXIS2_PLACEMENT_3D('',#227,#228,#229);
#227 = CARTESIAN_POINT('',(30.,30.,50.));
#228 = DIRECTION('',(0.,-1.,1.110223024625E-16));
#229 = DIRECTION('',(1.,0.,0.));
#230 = DEFINITIONAL_REPRESENTATION('',(#231),#294);
#231 = B_SPLINE_CURVE_WITH_KNOTS('',11,(#232,#233,#234,#235,#236,#237,
    #238,#239,#240,#241,#242,#243,#244,#245,#246,#247,#248,#249,#250,
    #251,#252,#253,#254,#255,#256,#257,#258,#259,#260,#261,#262,#263,
    #264,#265,#266,#267,#268,#269,#270,#271,#272,#273,#274,#275,#276,
    #277,#278,#279,#280,#281,#282,#283,#284,#285,#286,#287,#288,#289,
    #290,#291,#292,#293),.UNSPECIFIED.,.F.,.F.,(12,10,10,10,10,10,12),(
    0.,0.5,0.53125,0.5625,0.625,0.75,1.),.UNSPECIFIED.);
#232 = CARTESIAN_POINT('',(-5.551115123126E-17,25.825756949558));
#233 = CARTESIAN_POINT('',(6.641453441173E-02,25.825757065501));
#234 = CARTESIAN_POINT('',(0.132737285017,25.910461298469));
#235 = CARTESIAN_POINT('',(0.199017775341,26.079476398815));
#236 = CARTESIAN_POINT('',(0.265322153684,26.327615301363));
#237 = CARTESIAN_POINT('',(0.331733530189,26.645150376239));
#238 = CARTESIAN_POINT('',(0.398350792698,27.018527728003));
#239 = CARTESIAN_POINT('',(0.465288531235,27.431273974003));
#240 = CARTESIAN_POINT('',(0.532680700951,27.864826933508));
#241 = CARTESIAN_POINT('',(0.600690653374,28.299021658624));
#242 = CARTESIAN_POINT('',(0.669530165797,28.711963238362));
#243 = CARTESIAN_POINT('',(0.743862594446,29.101958717606));
#244 = CARTESIAN_POINT('',(0.748239142553,29.124718895067));
#245 = CARTESIAN_POINT('',(0.752622963825,29.147306805998));
#246 = CARTESIAN_POINT('',(0.756999415002,29.16964856264));
#247 = CARTESIAN_POINT('',(0.761412194644,29.191939714687));
#248 = CARTESIAN_POINT('',(0.765771019587,29.21375526302));
#249 = CARTESIAN_POINT('',(0.770211505446,29.235719216618));
#250 = CARTESIAN_POINT('',(0.774586929158,29.257140485233));
#251 = CARTESIAN_POINT('',(0.779006280556,29.278523031044));
#252 = CARTESIAN_POINT('',(0.783422522866,29.299638386587));
#253 = CARTESIAN_POINT('',(0.792271402859,29.341427227045));
#254 = CARTESIAN_POINT('',(0.796702824981,29.362095286172));
#255 = CARTESIAN_POINT('',(0.801141211562,29.382529552496));
#256 = CARTESIAN_POINT('',(0.805586544939,29.40272259431));
#257 = CARTESIAN_POINT('',(0.810038807444,29.42266697992));
#258 = CARTESIAN_POINT('',(0.814497981417,29.442355277613));
#259 = CARTESIAN_POINT('',(0.818964049189,29.461780055696));
#260 = CARTESIAN_POINT('',(0.823436993097,29.480933882462));
#261 = CARTESIAN_POINT('',(0.827916795475,29.499809326209));
#262 = CARTESIAN_POINT('',(0.832403438659,29.518398955235));
#263 = CARTESIAN_POINT('',(0.845883837635,29.573288103044));
#264 = CARTESIAN_POINT('',(0.854898027332,29.608706834588));
#265 = CARTESIAN_POINT('',(0.863939285174,29.642889827314));
#266 = CARTESIAN_POINT('',(0.873007399117,29.67577484414));
#267 = CARTESIAN_POINT('',(0.882102133975,29.707299116343));
#268 = CARTESIAN_POINT('',(0.891223231417,29.737399343066));
#269 = CARTESIAN_POINT('',(0.90037040997,29.76601169199));
#270 = CARTESIAN_POINT('',(0.909543365018,29.793071798597));
#271 = CARTESIAN_POINT('',(0.918741768804,29.818514766827));
#272 = CARTESIAN_POINT('',(0.927965270424,29.842275168602));
#273 = CARTESIAN_POINT('',(0.955709946656,29.908310795102));
#274 = CARTESIAN_POINT('',(0.974305304712,29.945341284408));
#275 = CARTESIAN_POINT('',(0.992996557395,29.974855695575));
#276 = CARTESIAN_POINT('',(1.011780351143,29.996326219181));
#277 = CARTESIAN_POINT('',(1.030652969166,30.009223531185));
#278 = CARTESIAN_POINT('',(1.049610309173,30.013020271256));
#279 = CARTESIAN_POINT('',(1.068647861086,30.00719452108));
#280 = CARTESIAN_POINT('',(1.087760684778,29.99123328276));
#281 = CARTESIAN_POINT('',(1.106943387782,29.964635957062));
#282 = CARTESIAN_POINT('',(1.126190103025,29.926917821837));
#283 = CARTESIAN_POINT('',(1.184103193598,29.779004887198));
#284 = CARTESIAN_POINT('',(1.222942377779,29.63405912039));
#285 = CARTESIAN_POINT('',(1.26196114515,29.439048759414));
#286 = CARTESIAN_POINT('',(1.301099866576,29.190606046062));
#287 = CARTESIAN_POINT('',(1.340289172498,28.885842186364));
#288 = CARTESIAN_POINT('',(1.379448251948,28.522515558789));
#289 = CARTESIAN_POINT('',(1.418482435726,28.09924885784));
#290 = CARTESIAN_POINT('',(1.457280063864,27.615795174115));
#291 = CARTESIAN_POINT('',(1.495708637233,27.073353009641));
#292 = CARTESIAN_POINT('',(1.533610253421,26.474930229598));
#293 = CARTESIAN_POINT('',(1.570796326795,25.825756949558));
#294 = ( GEOMETRIC_REPRESENTATION_CONTEXT(2) 
PARAMETRIC_REPRESENTATION_CONTEXT() REPRESENTATION_CONTEXT('2D SPACE',''
  ) );
#295 = ADVANCED_FACE('',(#296),#42,.T.);
#296 = FACE_BOUND('',#297,.T.);
#297 = EDGE_LOOP('',(#298));
#298 = ORIENTED_EDGE('',*,*,#21,.T.);
#299 = ADVANCED_FACE('',(#300),#89,.F.);
#300 = FACE_BOUND('',#301,.T.);
#301 = EDGE_LOOP('',(#302));
#302 = ORIENTED_EDGE('',*,*,#75,.F.);
#303 = ADVANCED_FACE('',(#304),#122,.T.);
#304 = FACE_BOUND('',#305,.T.);
#305 = EDGE_LOOP('',(#306,#329,#330,#352));
#306 = ORIENTED_EDGE('',*,*,#307,.F.);
#307 = EDGE_CURVE('',#105,#308,#310,.T.);
#308 = VERTEX_POINT('',#309);
#309 = CARTESIAN_POINT('',(30.,-30.,50.));
#310 = SURFACE_CURVE('',#311,(#315,#322),.PCURVE_S1.);
#311 = LINE('',#312,#313);
#312 = CARTESIAN_POINT('',(30.,30.,50.));
#313 = VECTOR('',#314,1.);
#314 = DIRECTION('',(0.,-1.,1.110223024625E-16));
#315 = PCURVE('',#122,#316);
#316 = DEFINITIONAL_REPRESENTATION('',(#317),#321);
#317 = LINE('',#318,#319);
#318 = CARTESIAN_POINT('',(0.,0.));
#319 = VECTOR('',#320,1.);
#320 = DIRECTION('',(0.,1.));
#321 = ( GEOMETRIC_REPRESENTATION_CONTEXT(2) 
PARAMETRIC_REPRESENTATION_CONTEXT() REPRESENTATION_CONTEXT('2D SPACE',''
  ) );
#322 = PCURVE('',#153,#323);
#323 = DEFINITIONAL_REPRESENTATION('',(#324),#328);
#324 = LINE('',#325,#326);
#325 = CARTESIAN_POINT('',(0.,0.));
#326 = VECTOR('',#327,1.);
#327 = DIRECTION('',(0.,1.));
#328 = ( GEOMETRIC_REPRESENTATION_CONTEXT(2) 
PARAMETRIC_REPRESENTATION_CONTEXT() REPRESENTATION_CONTEXT('2D SPACE',''
  ) );
#329 = ORIENTED_EDGE('',*,*,#104,.T.);
#330 = ORIENTED_EDGE('',*,*,#331,.T.);
#331 = EDGE_CURVE('',#107,#332,#334,.T.);
#332 = VERTEX_POINT('',#333);
#333 = CARTESIAN_POINT('',(70.,-30.,50.));
#334 = SURFACE_CURVE('',#335,(#339,#346),.PCURVE_S1.);
#335 = LINE('',#336,#337);
#336 = CARTESIAN_POINT('',(70.,30.,50.));
#337 = VECTOR('',#338,1.);
#338 = DIRECTION('',(0.,-1.,1.110223024625E-16));
#339 = PCURVE('',#122,#340);
#340 = DEFINITIONAL_REPRESENTATION('',(#341),#345);
#341 = LINE('',#342,#343);
#342 = CARTESIAN_POINT('',(40.,0.));
#343 = VECTOR('',#344,1.);
#344 = DIRECTION('',(0.,1.));
#345 = ( GEOMETRIC_REPRESENTATION_CONTEXT(2) 
PARAMETRIC_REPRESENTATION_CONTEXT() REPRESENTATION_CONTEXT('2D SPACE',''
  ) );
#346 = PCURVE('',#225,#347);
#347 = DEFINITIONAL_REPRESENTATION('',(#348),#351);
#348 = B_SPLINE_CURVE_WITH_KNOTS('',1,(#349,#350),.UNSPECIFIED.,.F.,.F.,
  (2,2),(25.825756949558,60.),.PIECEWISE_BEZIER_KNOTS.);
#349 = CARTESIAN_POINT('',(0.,25.825756949558));
#350 = CARTESIAN_POINT('',(0.,60.));
#351 = ( GEOMETRIC_REPRESENTATION_CONTEXT(2) 
PARAMETRIC_REPRESENTATION_CONTEXT() REPRESENTATION_CONTEXT('2D SPACE',''
  ) );
#352 = ORIENTED_EDGE('',*,*,#353,.F.);
#353 = EDGE_CURVE('',#308,#332,#354,.T.);
#354 = SURFACE_CURVE('',#355,(#359,#366),.PCURVE_S1.);
#355 = LINE('',#356,#357);
#356 = CARTESIAN_POINT('',(30.,-30.,50.));
#357 = VECTOR('',#358,1.);
#358 = DIRECTION('',(1.,0.,0.));
#359 = PCURVE('',#122,#360);
#360 = DEFINITIONAL_REPRESENTATION('',(#361),#365);
#361 = LINE('',#362,#363);
#362 = CARTESIAN_POINT('',(0.,60.));
#363 = VECTOR('',#364,1.);
#364 = DIRECTION('',(1.,0.));
#365 = ( GEOMETRIC_REPRESENTATION_CONTEXT(2) 
PARAMETRIC_REPRESENTATION_CONTEXT() REPRESENTATION_CONTEXT('2D SPACE',''
  ) );
#366 = PCURVE('',#367,#372);
#367 = PLANE('',#368);
#368 = AXIS2_PLACEMENT_3D('',#369,#370,#371);
#369 = CARTESIAN_POINT('',(30.,-30.,50.));
#370 = DIRECTION('',(0.,-1.,1.110223024625E-16));
#371 = DIRECTION('',(1.,0.,0.));
#372 = DEFINITIONAL_REPRESENTATION('',(#373),#377);
#373 = LINE('',#374,#375);
#374 = CARTESIAN_POINT('',(0.,0.));
#375 = VECTOR('',#376,1.);
#376 = DIRECTION('',(1.,0.));
#377 = ( GEOMETRIC_REPRESENTATION_CONTEXT(2) 
PARAMETRIC_REPRESENTATION_CONTEXT() REPRESENTATION_CONTEXT('2D SPACE',''
  ) );
#378 = ADVANCED_FACE('',(#379),#153,.F.);
#379 = FACE_BOUND('',#380,.F.);
#380 = EDGE_LOOP('',(#381,#382,#383,#405));
#381 = ORIENTED_EDGE('',*,*,#307,.F.);
#382 = ORIENTED_EDGE('',*,*,#138,.T.);
#383 = ORIENTED_EDGE('',*,*,#384,.T.);
#384 = EDGE_CURVE('',#139,#385,#387,.T.);
#385 = VERTEX_POINT('',#386);
#386 = CARTESIAN_POINT('',(30.,-30.,90.));
#387 = SURFACE_CURVE('',#388,(#392,#399),.PCURVE_S1.);
#388 = LINE('',#389,#390);
#389 = CARTESIAN_POINT('',(30.,30.,90.));
#390 = VECTOR('',#391,1.);
#391 = DIRECTION('',(0.,-1.,1.110223024625E-16));
#392 = PCURVE('',#153,#393);
#393 = DEFINITIONAL_REPRESENTATION('',(#394),#398);
#394 = LINE('',#395,#396);
#395 = CARTESIAN_POINT('',(40.,0.));
#396 = VECTOR('',#397,1.);
#397 = DIRECTION('',(0.,1.));
#398 = ( GEOMETRIC_REPRESENTATION_CONTEXT(2) 
PARAMETRIC_REPRESENTATION_CONTEXT() REPRESENTATION_CONTEXT('2D SPACE',''
  ) );
#399 = PCURVE('',#225,#400);
#400 = DEFINITIONAL_REPRESENTATION('',(#401),#404);
#401 = B_SPLINE_CURVE_WITH_KNOTS('',1,(#402,#403),.UNSPECIFIED.,.F.,.F.,
  (2,2),(25.825756949558,60.),.PIECEWISE_BEZIER_KNOTS.);
#402 = CARTESIAN_POINT('',(1.570796326795,25.825756949558));
#403 = CARTESIAN_POINT('',(1.570796326795,60.));
#404 = ( GEOMETRIC_REPRESENTATION_CONTEXT(2) 
PARAMETRIC_REPRESENTATION_CONTEXT() REPRESENTATION_CONTEXT('2D SPACE',''
  ) );
#405 = ORIENTED_EDGE('',*,*,#406,.F.);
#406 = EDGE_CURVE('',#308,#385,#407,.T.);
#407 = SURFACE_CURVE('',#408,(#412,#419),.PCURVE_S1.);
#408 = LINE('',#409,#410);
#409 = CARTESIAN_POINT('',(30.,-30.,50.));
#410 = VECTOR('',#411,1.);
#411 = DIRECTION('',(1.110223024625E-16,1.110223024625E-16,1.));
#412 = PCURVE('',#153,#413);
#413 = DEFINITIONAL_REPRESENTATION('',(#414),#418);
#414 = LINE('',#415,#416);
#415 = CARTESIAN_POINT('',(0.,60.));
#416 = VECTOR('',#417,1.);
#417 = DIRECTION('',(1.,0.));
#418 = ( GEOMETRIC_REPRESENTATION_CONTEXT(2) 
PARAMETRIC_REPRESENTATION_CONTEXT() REPRESENTATION_CONTEXT('2D SPACE',''
  ) );
#419 = PCURVE('',#367,#420);
#420 = DEFINITIONAL_REPRESENTATION('',(#421),#425);
#421 = LINE('',#422,#423);
#422 = CARTESIAN_POINT('',(0.,0.));
#423 = VECTOR('',#424,1.);
#424 = DIRECTION('',(1.110223024625E-16,1.));
#425 = ( GEOMETRIC_REPRESENTATION_CONTEXT(2) 
PARAMETRIC_REPRESENTATION_CONTEXT() REPRESENTATION_CONTEXT('2D SPACE',''
  ) );
#426 = ADVANCED_FACE('',(#427),#225,.T.);
#427 = FACE_BOUND('',#428,.T.);
#428 = EDGE_LOOP('',(#429,#430,#451,#452));
#429 = ORIENTED_EDGE('',*,*,#384,.T.);
#430 = ORIENTED_EDGE('',*,*,#431,.F.);
#431 = EDGE_CURVE('',#332,#385,#432,.T.);
#432 = SURFACE_CURVE('',#433,(#438,#444),.PCURVE_S1.);
#433 = CIRCLE('',#434,40.);
#434 = AXIS2_PLACEMENT_3D('',#435,#436,#437);
#435 = CARTESIAN_POINT('',(30.,-30.,50.));
#436 = DIRECTION('',(0.,-1.,1.110223024625E-16));
#437 = DIRECTION('',(1.,0.,0.));
#438 = PCURVE('',#225,#439);
#439 = DEFINITIONAL_REPRESENTATION('',(#440),#443);
#440 = B_SPLINE_CURVE_WITH_KNOTS('',1,(#441,#442),.UNSPECIFIED.,.F.,.F.,
  (2,2),(0.,1.570796326795),.PIECEWISE_BEZIER_KNOTS.);
#441 = CARTESIAN_POINT('',(0.,60.));
#442 = CARTESIAN_POINT('',(1.570796326795,60.));
#443 = ( GEOMETRIC_REPRESENTATION_CONTEXT(2) 
PARAMETRIC_REPRESENTATION_CONTEXT() REPRESENTATION_CONTEXT('2D SPACE',''
  ) );
#444 = PCURVE('',#367,#445);
#445 = DEFINITIONAL_REPRESENTATION('',(#446),#450);
#446 = CIRCLE('',#447,40.);
#447 = AXIS2_PLACEMENT_2D('',#448,#449);
#448 = CARTESIAN_POINT('',(0.,0.));
#449 = DIRECTION('',(1.,0.));
#450 = ( GEOMETRIC_REPRESENTATION_CONTEXT(2) 
PARAMETRIC_REPRESENTATION_CONTEXT() REPRESENTATION_CONTEXT('2D SPACE',''
  ) );
#451 = ORIENTED_EDGE('',*,*,#331,.F.);
#452 = ORIENTED_EDGE('',*,*,#165,.T.);
#453 = ADVANCED_FACE('',(#454),#367,.T.);
#454 = FACE_BOUND('',#455,.T.);
#455 = EDGE_LOOP('',(#456,#457,#458));
#456 = ORIENTED_EDGE('',*,*,#431,.T.);
#457 = ORIENTED_EDGE('',*,*,#406,.F.);
#458 = ORIENTED_EDGE('',*,*,#353,.T.);
#459 = ( GEOMETRIC_REPRESENTATION_CONTEXT(3) 
GLOBAL_UNCERTAINTY_ASSIGNED_CONTEXT((#463)) GLOBAL_UNIT_ASSIGNED_CONTEXT
((#460,#461,#462)) REPRESENTATION_CONTEXT('Context #1',
  '3D Context with UNIT and UNCERTAINTY') );
#460 = ( LENGTH_UNIT() NAMED_UNIT(*) SI_UNIT(.MILLI.,.METRE.) );
#461 = ( NAMED_UNIT(*) PLANE_ANGLE_UNIT() SI_UNIT($,.RADIAN.) );
#462 = ( NAMED_UNIT(*) SI_UNIT($,.STERADIAN.) SOLID_ANGLE_UNIT() );
#463 = UNCERTAINTY_MEASURE_WITH_UNIT(LENGTH_MEASURE(2.E-06),#460,
  'distance_accuracy_value','confusion accuracy');
#464 = PRODUCT_RELATED_PRODUCT_CATEGORY('part',$,(#7));
ENDSEC;
END-ISO-10303-21;
