ISO-10303-21;
HEADER;
FILE_DESCRIPTION(('Open CASCADE Model'),'2;1');
FILE_NAME('Open CASCADE Shape Model','2026-07-11T20:16:03',('Author'),(
    'Open CASCADE'),'Open CASCADE STEP processor 8.0','Open CASCADE 8.0'
  ,'Unknown');
FILE_SCHEMA(('AUTOMOTIVE_DESIGN { 1 0 10303 214 1 1 1 1 }'));
ENDSEC;
DATA;
#1 = APPLICATION_PROTOCOL_DEFINITION('international standard',
  'automotive_design',2000,#2);
#2 = APPLICATION_CONTEXT(
  'core data for automotive mechanical design processes');
#3 = SHAPE_DEFINITION_REPRESENTATION(#4,#10);
#4 = PRODUCT_DEFINITION_SHAPE('','',#5);
#5 = PRODUCT_DEFINITION('design','',#6,#9);
#6 = PRODUCT_DEFINITION_FORMATION('','',#7);
#7 = PRODUCT('Open CASCADE STEP translator 8.0 1',
  'Open CASCADE STEP translator 8.0 1','',(#8));
#8 = PRODUCT_CONTEXT('',#2,'mechanical');
#9 = PRODUCT_DEFINITION_CONTEXT('part definition',#2,'design');
#10 = MANIFOLD_SURFACE_SHAPE_REPRESENTATION('',(#11,#15),#323);
#11 = AXIS2_PLACEMENT_3D('',#12,#13,#14);
#12 = CARTESIAN_POINT('',(0.,0.,0.));
#13 = DIRECTION('',(0.,0.,1.));
#14 = DIRECTION('',(1.,0.,-0.));
#15 = SHELL_BASED_SURFACE_MODEL('',(#16));
#16 = OPEN_SHELL('',(#17,#181,#250,#292));
#17 = ADVANCED_FACE('',(#18),#32,.T.);
#18 = FACE_BOUND('',#19,.T.);
#19 = EDGE_LOOP('',(#20,#44,#58,#73,#116,#158));
#20 = ORIENTED_EDGE('',*,*,#21,.T.);
#21 = EDGE_CURVE('',#22,#24,#26,.T.);
#22 = VERTEX_POINT('',#23);
#23 = CARTESIAN_POINT('',(5.6999998,-3.8363357,37.));
#24 = VERTEX_POINT('',#25);
#25 = CARTESIAN_POINT('',(0.,-3.8363357,37.));
#26 = SURFACE_CURVE('',#27,(#31),.PCURVE_S1.);
#27 = B_SPLINE_CURVE_WITH_KNOTS('',2,(#28,#29,#30),.UNSPECIFIED.,.F.,.F.
  ,(3,3),(0.,1.),.PIECEWISE_BEZIER_KNOTS.);
#28 = CARTESIAN_POINT('',(5.6999998,-3.8363357,37.));
#29 = CARTESIAN_POINT('',(2.8499999,-3.8363357,37.));
#30 = CARTESIAN_POINT('',(0.,-3.8363357,37.));
#31 = PCURVE('',#32,#39);
#32 = B_SPLINE_SURFACE_WITH_KNOTS('',2,1,(
    (#33,#34)
    ,(#35,#36)
    ,(#37,#38)),.UNSPECIFIED.,.F.,.F.,.F.,(3,3),(2,2),(0.,1.),(0.,1.),
  .PIECEWISE_BEZIER_KNOTS.);
#33 = CARTESIAN_POINT('',(5.6999998,2.1316282E-14,37.));
#34 = CARTESIAN_POINT('',(5.6999998,-39.928557,37.));
#35 = CARTESIAN_POINT('',(2.8499999,2.1316282E-14,37.));
#36 = CARTESIAN_POINT('',(2.8499999,-39.928557,37.));
#37 = CARTESIAN_POINT('',(0.,2.1316282E-14,37.));
#38 = CARTESIAN_POINT('',(2.9717911E-17,-39.928557,37.));
#39 = DEFINITIONAL_REPRESENTATION('',(#40),#43);
#40 = B_SPLINE_CURVE_WITH_KNOTS('',1,(#41,#42),.UNSPECIFIED.,.F.,.F.,(2,
    2),(0.,1.),.PIECEWISE_BEZIER_KNOTS.);
#41 = CARTESIAN_POINT('',(0.,9.608E-02));
#42 = CARTESIAN_POINT('',(1.,9.608E-02));
#43 = ( GEOMETRIC_REPRESENTATION_CONTEXT(2) 
PARAMETRIC_REPRESENTATION_CONTEXT() REPRESENTATION_CONTEXT('2D SPACE',''
  ) );
#44 = ORIENTED_EDGE('',*,*,#45,.T.);
#45 = EDGE_CURVE('',#24,#46,#48,.T.);
#46 = VERTEX_POINT('',#47);
#47 = CARTESIAN_POINT('',(2.9717911E-17,-39.928557,37.));
#48 = SURFACE_CURVE('',#49,(#52),.PCURVE_S1.);
#49 = B_SPLINE_CURVE_WITH_KNOTS('',1,(#50,#51),.UNSPECIFIED.,.F.,.F.,(2,
    2),(0.,1.),.PIECEWISE_BEZIER_KNOTS.);
#50 = CARTESIAN_POINT('',(2.8552969E-18,-3.8363357,37.));
#51 = CARTESIAN_POINT('',(2.9717911E-17,-39.928557,37.));
#52 = PCURVE('',#32,#53);
#53 = DEFINITIONAL_REPRESENTATION('',(#54),#57);
#54 = B_SPLINE_CURVE_WITH_KNOTS('',1,(#55,#56),.UNSPECIFIED.,.F.,.F.,(2,
    2),(0.,1.),.PIECEWISE_BEZIER_KNOTS.);
#55 = CARTESIAN_POINT('',(1.,9.608E-02));
#56 = CARTESIAN_POINT('',(1.,1.));
#57 = ( GEOMETRIC_REPRESENTATION_CONTEXT(2) 
PARAMETRIC_REPRESENTATION_CONTEXT() REPRESENTATION_CONTEXT('2D SPACE',''
  ) );
#58 = ORIENTED_EDGE('',*,*,#59,.F.);
#59 = EDGE_CURVE('',#60,#46,#62,.T.);
#60 = VERTEX_POINT('',#61);
#61 = CARTESIAN_POINT('',(3.5187453,-39.928557,37.));
#62 = SURFACE_CURVE('',#63,(#67),.PCURVE_S1.);
#63 = B_SPLINE_CURVE_WITH_KNOTS('',2,(#64,#65,#66),.UNSPECIFIED.,.F.,.F.
  ,(3,3),(0.,1.),.PIECEWISE_BEZIER_KNOTS.);
#64 = CARTESIAN_POINT('',(3.5187453,-39.928557,37.));
#65 = CARTESIAN_POINT('',(1.7593727,-39.928557,37.));
#66 = CARTESIAN_POINT('',(0.,-39.928557,37.));
#67 = PCURVE('',#32,#68);
#68 = DEFINITIONAL_REPRESENTATION('',(#69),#72);
#69 = B_SPLINE_CURVE_WITH_KNOTS('',1,(#70,#71),.UNSPECIFIED.,.F.,.F.,(2,
    2),(0.,1.),.PIECEWISE_BEZIER_KNOTS.);
#70 = CARTESIAN_POINT('',(0.38267624,1.));
#71 = CARTESIAN_POINT('',(1.,1.));
#72 = ( GEOMETRIC_REPRESENTATION_CONTEXT(2) 
PARAMETRIC_REPRESENTATION_CONTEXT() REPRESENTATION_CONTEXT('2D SPACE',''
  ) );
#73 = ORIENTED_EDGE('',*,*,#74,.T.);
#74 = EDGE_CURVE('',#60,#75,#77,.T.);
#75 = VERTEX_POINT('',#76);
#76 = CARTESIAN_POINT('',(5.5000001,-30.21856,37.));
#77 = SURFACE_CURVE('',#78,(#86,#95),.PCURVE_S1.);
#78 = B_SPLINE_CURVE_WITH_KNOTS('',6,(#79,#80,#81,#82,#83,#84,#85),
  .UNSPECIFIED.,.F.,.F.,(7,7),(0.,1.),.PIECEWISE_BEZIER_KNOTS.);
#79 = CARTESIAN_POINT('',(3.5187453,-39.928541,37.));
#80 = CARTESIAN_POINT('',(3.5773923,-38.270299,37.));
#81 = CARTESIAN_POINT('',(3.7460988,-36.61595,37.));
#82 = CARTESIAN_POINT('',(4.0245417,-34.974624,37.));
#83 = CARTESIAN_POINT('',(4.411388,-33.355417,37.));
#84 = CARTESIAN_POINT('',(4.9043009,-31.76722,37.));
#85 = CARTESIAN_POINT('',(5.5000001,-30.21856,37.));
#86 = PCURVE('',#32,#87);
#87 = DEFINITIONAL_REPRESENTATION('',(#88),#94);
#88 = B_SPLINE_CURVE_WITH_KNOTS('',4,(#89,#90,#91,#92,#93),
  .UNSPECIFIED.,.F.,.F.,(5,5),(0.,1.),.PIECEWISE_BEZIER_KNOTS.);
#89 = CARTESIAN_POINT('',(0.38267624,0.99999961));
#90 = CARTESIAN_POINT('',(0.36724294,0.9377048));
#91 = CARTESIAN_POINT('',(0.30353614,0.87565056));
#92 = CARTESIAN_POINT('',(0.1918493,0.8149939));
#93 = CARTESIAN_POINT('',(3.5087675E-02,0.75681572));
#94 = ( GEOMETRIC_REPRESENTATION_CONTEXT(2) 
PARAMETRIC_REPRESENTATION_CONTEXT() REPRESENTATION_CONTEXT('2D SPACE',''
  ) );
#95 = PCURVE('',#96,#111);
#96 = B_SPLINE_SURFACE_WITH_KNOTS('',6,1,(
    (#97,#98)
    ,(#99,#100)
    ,(#101,#102)
    ,(#103,#104)
    ,(#105,#106)
    ,(#107,#108)
    ,(#109,#110)),.UNSPECIFIED.,.F.,.F.,.F.,(7,7),(2,2),(0.,1.),(0.,1.),
  .PIECEWISE_BEZIER_KNOTS.);
#97 = CARTESIAN_POINT('',(3.5201488,-42.0882,0.));
#98 = CARTESIAN_POINT('',(3.5201488,-42.0882,37.));
#99 = CARTESIAN_POINT('',(3.4461541,-40.070256,0.));
#100 = CARTESIAN_POINT('',(3.4461541,-40.070256,37.));
#101 = CARTESIAN_POINT('',(3.5351527,-38.046336,0.));
#102 = CARTESIAN_POINT('',(3.5351527,-38.046336,37.));
#103 = CARTESIAN_POINT('',(3.7877481,-36.032896,0.));
#104 = CARTESIAN_POINT('',(3.7877481,-36.032896,37.));
#105 = CARTESIAN_POINT('',(4.2023281,-34.046474,0.));
#106 = CARTESIAN_POINT('',(4.2023281,-34.046474,37.));
#107 = CARTESIAN_POINT('',(4.7750494,-32.103239,0.));
#108 = CARTESIAN_POINT('',(4.7750494,-32.103239,37.));
#109 = CARTESIAN_POINT('',(5.5000001,-30.21856,0.));
#110 = CARTESIAN_POINT('',(5.5000001,-30.21856,37.));
#111 = DEFINITIONAL_REPRESENTATION('',(#112),#115);
#112 = B_SPLINE_CURVE_WITH_KNOTS('',1,(#113,#114),.UNSPECIFIED.,.F.,.F.,
  (2,2),(0.,1.),.PIECEWISE_BEZIER_KNOTS.);
#113 = CARTESIAN_POINT('',(0.17829,1.));
#114 = CARTESIAN_POINT('',(1.,1.));
#115 = ( GEOMETRIC_REPRESENTATION_CONTEXT(2) 
PARAMETRIC_REPRESENTATION_CONTEXT() REPRESENTATION_CONTEXT('2D SPACE',''
  ) );
#116 = ORIENTED_EDGE('',*,*,#117,.F.);
#117 = EDGE_CURVE('',#118,#75,#120,.T.);
#118 = VERTEX_POINT('',#119);
#119 = CARTESIAN_POINT('',(5.6999998,-29.141525,37.));
#120 = SURFACE_CURVE('',#121,(#129,#137),.PCURVE_S1.);
#121 = B_SPLINE_CURVE_WITH_KNOTS('',6,(#122,#123,#124,#125,#126,#127,
    #128),.UNSPECIFIED.,.F.,.F.,(7,7),(0.,1.),.PIECEWISE_BEZIER_KNOTS.);
#122 = CARTESIAN_POINT('',(5.6999998,-29.141525,37.));
#123 = CARTESIAN_POINT('',(5.6999998,-29.325129,37.));
#124 = CARTESIAN_POINT('',(5.6865156,-29.508734,37.));
#125 = CARTESIAN_POINT('',(5.6595472,-29.6911,37.));
#126 = CARTESIAN_POINT('',(5.6192462,-29.87099,37.));
#127 = CARTESIAN_POINT('',(5.5659154,-30.047195,37.));
#128 = CARTESIAN_POINT('',(5.4999995,-30.218559,37.));
#129 = PCURVE('',#32,#130);
#130 = DEFINITIONAL_REPRESENTATION('',(#131),#136);
#131 = B_SPLINE_CURVE_WITH_KNOTS('',3,(#132,#133,#134,#135),
  .UNSPECIFIED.,.F.,.F.,(4,4),(0.,1.),.PIECEWISE_BEZIER_KNOTS.);
#132 = CARTESIAN_POINT('',(1.0842022E-19,0.72984169));
#133 = CARTESIAN_POINT('',(2.390214E-14,0.73904254));
#134 = CARTESIAN_POINT('',(1.1948756E-02,0.74822825));
#135 = CARTESIAN_POINT('',(3.5087779E-02,0.75681571));
#136 = ( GEOMETRIC_REPRESENTATION_CONTEXT(2) 
PARAMETRIC_REPRESENTATION_CONTEXT() REPRESENTATION_CONTEXT('2D SPACE',''
  ) );
#137 = PCURVE('',#138,#153);
#138 = B_SPLINE_SURFACE_WITH_KNOTS('',6,1,(
    (#139,#140)
    ,(#141,#142)
    ,(#143,#144)
    ,(#145,#146)
    ,(#147,#148)
    ,(#149,#150)
    ,(#151,#152)),.UNSPECIFIED.,.F.,.F.,.F.,(7,7),(2,2),(0.,1.),(0.,1.),
  .PIECEWISE_BEZIER_KNOTS.);
#139 = CARTESIAN_POINT('',(5.6999998,-29.141525,0.));
#140 = CARTESIAN_POINT('',(5.6999998,-29.141525,37.));
#141 = CARTESIAN_POINT('',(5.6999998,-29.325129,0.));
#142 = CARTESIAN_POINT('',(5.6999998,-29.325129,37.));
#143 = CARTESIAN_POINT('',(5.6865156,-29.508734,0.));
#144 = CARTESIAN_POINT('',(5.6865156,-29.508734,37.));
#145 = CARTESIAN_POINT('',(5.6595472,-29.6911,0.));
#146 = CARTESIAN_POINT('',(5.6595472,-29.6911,37.));
#147 = CARTESIAN_POINT('',(5.6192462,-29.87099,0.));
#148 = CARTESIAN_POINT('',(5.6192462,-29.87099,37.));
#149 = CARTESIAN_POINT('',(5.5659154,-30.047195,0.));
#150 = CARTESIAN_POINT('',(5.5659154,-30.047195,37.));
#151 = CARTESIAN_POINT('',(5.4999995,-30.218559,0.));
#152 = CARTESIAN_POINT('',(5.4999995,-30.218559,37.));
#153 = DEFINITIONAL_REPRESENTATION('',(#154),#157);
#154 = B_SPLINE_CURVE_WITH_KNOTS('',1,(#155,#156),.UNSPECIFIED.,.F.,.F.,
  (2,2),(0.,1.),.PIECEWISE_BEZIER_KNOTS.);
#155 = CARTESIAN_POINT('',(0.,1.));
#156 = CARTESIAN_POINT('',(1.,1.));
#157 = ( GEOMETRIC_REPRESENTATION_CONTEXT(2) 
PARAMETRIC_REPRESENTATION_CONTEXT() REPRESENTATION_CONTEXT('2D SPACE',''
  ) );
#158 = ORIENTED_EDGE('',*,*,#159,.F.);
#159 = EDGE_CURVE('',#22,#118,#160,.T.);
#160 = SURFACE_CURVE('',#161,(#164,#170),.PCURVE_S1.);
#161 = B_SPLINE_CURVE_WITH_KNOTS('',1,(#162,#163),.UNSPECIFIED.,.F.,.F.,
  (2,2),(0.,1.),.PIECEWISE_BEZIER_KNOTS.);
#162 = CARTESIAN_POINT('',(5.6999998,-3.8363357,37.));
#163 = CARTESIAN_POINT('',(5.6999998,-29.141525,37.));
#164 = PCURVE('',#32,#165);
#165 = DEFINITIONAL_REPRESENTATION('',(#166),#169);
#166 = B_SPLINE_CURVE_WITH_KNOTS('',1,(#167,#168),.UNSPECIFIED.,.F.,.F.,
  (2,2),(0.,1.),.PIECEWISE_BEZIER_KNOTS.);
#167 = CARTESIAN_POINT('',(0.,9.608E-02));
#168 = CARTESIAN_POINT('',(0.,0.72984169));
#169 = ( GEOMETRIC_REPRESENTATION_CONTEXT(2) 
PARAMETRIC_REPRESENTATION_CONTEXT() REPRESENTATION_CONTEXT('2D SPACE',''
  ) );
#170 = PCURVE('',#171,#176);
#171 = B_SPLINE_SURFACE_WITH_KNOTS('',1,1,(
    (#172,#173)
    ,(#174,#175)),.UNSPECIFIED.,.F.,.F.,.F.,(2,2),(2,2),(0.,1.),(0.,1.),
  .PIECEWISE_BEZIER_KNOTS.);
#172 = CARTESIAN_POINT('',(5.6999998,-3.8361413,0.));
#173 = CARTESIAN_POINT('',(5.6999998,-3.8361413,37.));
#174 = CARTESIAN_POINT('',(5.6999998,-29.141525,0.));
#175 = CARTESIAN_POINT('',(5.6999998,-29.141525,37.));
#176 = DEFINITIONAL_REPRESENTATION('',(#177),#180);
#177 = B_SPLINE_CURVE_WITH_KNOTS('',1,(#178,#179),.UNSPECIFIED.,.F.,.F.,
  (2,2),(0.,1.),.PIECEWISE_BEZIER_KNOTS.);
#178 = CARTESIAN_POINT('',(0.,1.));
#179 = CARTESIAN_POINT('',(1.,1.));
#180 = ( GEOMETRIC_REPRESENTATION_CONTEXT(2) 
PARAMETRIC_REPRESENTATION_CONTEXT() REPRESENTATION_CONTEXT('2D SPACE',''
  ) );
#181 = ADVANCED_FACE('',(#182),#96,.T.);
#182 = FACE_BOUND('',#183,.T.);
#183 = EDGE_LOOP('',(#184,#205,#223,#224,#238));
#184 = ORIENTED_EDGE('',*,*,#185,.F.);
#185 = EDGE_CURVE('',#186,#188,#190,.T.);
#186 = VERTEX_POINT('',#187);
#187 = CARTESIAN_POINT('',(5.5000001,-30.21856,0.));
#188 = VERTEX_POINT('',#189);
#189 = CARTESIAN_POINT('',(3.5187453,-39.928541,0.));
#190 = SURFACE_CURVE('',#191,(#199),.PCURVE_S1.);
#191 = B_SPLINE_CURVE_WITH_KNOTS('',6,(#192,#193,#194,#195,#196,#197,
    #198),.UNSPECIFIED.,.F.,.F.,(7,7),(0.,1.),.PIECEWISE_BEZIER_KNOTS.);
#192 = CARTESIAN_POINT('',(5.5000001,-30.21856,0.));
#193 = CARTESIAN_POINT('',(4.9043009,-31.76722,0.));
#194 = CARTESIAN_POINT('',(4.411388,-33.355417,0.));
#195 = CARTESIAN_POINT('',(4.0245417,-34.974624,0.));
#196 = CARTESIAN_POINT('',(3.7460988,-36.61595,0.));
#197 = CARTESIAN_POINT('',(3.5773923,-38.270299,0.));
#198 = CARTESIAN_POINT('',(3.5187453,-39.928541,0.));
#199 = PCURVE('',#96,#200);
#200 = DEFINITIONAL_REPRESENTATION('',(#201),#204);
#201 = B_SPLINE_CURVE_WITH_KNOTS('',1,(#202,#203),.UNSPECIFIED.,.F.,.F.,
  (2,2),(0.,1.),.PIECEWISE_BEZIER_KNOTS.);
#202 = CARTESIAN_POINT('',(1.,0.));
#203 = CARTESIAN_POINT('',(0.17829,0.));
#204 = ( GEOMETRIC_REPRESENTATION_CONTEXT(2) 
PARAMETRIC_REPRESENTATION_CONTEXT() REPRESENTATION_CONTEXT('2D SPACE',''
  ) );
#205 = ORIENTED_EDGE('',*,*,#206,.T.);
#206 = EDGE_CURVE('',#186,#75,#207,.T.);
#207 = SURFACE_CURVE('',#208,(#211,#217),.PCURVE_S1.);
#208 = B_SPLINE_CURVE_WITH_KNOTS('',1,(#209,#210),.UNSPECIFIED.,.F.,.F.,
  (2,2),(0.,1.),.PIECEWISE_BEZIER_KNOTS.);
#209 = CARTESIAN_POINT('',(5.4999995,-30.218559,0.));
#210 = CARTESIAN_POINT('',(5.4999995,-30.218559,37.));
#211 = PCURVE('',#96,#212);
#212 = DEFINITIONAL_REPRESENTATION('',(#213),#216);
#213 = B_SPLINE_CURVE_WITH_KNOTS('',1,(#214,#215),.UNSPECIFIED.,.F.,.F.,
  (2,2),(0.,1.),.PIECEWISE_BEZIER_KNOTS.);
#214 = CARTESIAN_POINT('',(1.,0.));
#215 = CARTESIAN_POINT('',(1.,1.));
#216 = ( GEOMETRIC_REPRESENTATION_CONTEXT(2) 
PARAMETRIC_REPRESENTATION_CONTEXT() REPRESENTATION_CONTEXT('2D SPACE',''
  ) );
#217 = PCURVE('',#138,#218);
#218 = DEFINITIONAL_REPRESENTATION('',(#219),#222);
#219 = B_SPLINE_CURVE_WITH_KNOTS('',1,(#220,#221),.UNSPECIFIED.,.F.,.F.,
  (2,2),(0.,1.),.PIECEWISE_BEZIER_KNOTS.);
#220 = CARTESIAN_POINT('',(1.,0.));
#221 = CARTESIAN_POINT('',(1.,1.));
#222 = ( GEOMETRIC_REPRESENTATION_CONTEXT(2) 
PARAMETRIC_REPRESENTATION_CONTEXT() REPRESENTATION_CONTEXT('2D SPACE',''
  ) );
#223 = ORIENTED_EDGE('',*,*,#74,.F.);
#224 = ORIENTED_EDGE('',*,*,#225,.F.);
#225 = EDGE_CURVE('',#226,#60,#228,.T.);
#226 = VERTEX_POINT('',#227);
#227 = CARTESIAN_POINT('',(3.5187453,-39.928541,18.5));
#228 = SURFACE_CURVE('',#229,(#232),.PCURVE_S1.);
#229 = B_SPLINE_CURVE_WITH_KNOTS('',1,(#230,#231),.UNSPECIFIED.,.F.,.F.,
  (2,2),(0.,1.),.PIECEWISE_BEZIER_KNOTS.);
#230 = CARTESIAN_POINT('',(3.5187453,-39.928541,0.));
#231 = CARTESIAN_POINT('',(3.5187453,-39.928541,37.));
#232 = PCURVE('',#96,#233);
#233 = DEFINITIONAL_REPRESENTATION('',(#234),#237);
#234 = B_SPLINE_CURVE_WITH_KNOTS('',1,(#235,#236),.UNSPECIFIED.,.F.,.F.,
  (2,2),(0.,1.),.PIECEWISE_BEZIER_KNOTS.);
#235 = CARTESIAN_POINT('',(0.17829,0.5));
#236 = CARTESIAN_POINT('',(0.17829,1.));
#237 = ( GEOMETRIC_REPRESENTATION_CONTEXT(2) 
PARAMETRIC_REPRESENTATION_CONTEXT() REPRESENTATION_CONTEXT('2D SPACE',''
  ) );
#238 = ORIENTED_EDGE('',*,*,#239,.F.);
#239 = EDGE_CURVE('',#188,#226,#240,.T.);
#240 = SURFACE_CURVE('',#241,(#244),.PCURVE_S1.);
#241 = B_SPLINE_CURVE_WITH_KNOTS('',1,(#242,#243),.UNSPECIFIED.,.F.,.F.,
  (2,2),(0.,1.),.PIECEWISE_BEZIER_KNOTS.);
#242 = CARTESIAN_POINT('',(3.5187453,-39.928541,0.));
#243 = CARTESIAN_POINT('',(3.5187453,-39.928541,37.));
#244 = PCURVE('',#96,#245);
#245 = DEFINITIONAL_REPRESENTATION('',(#246),#249);
#246 = B_SPLINE_CURVE_WITH_KNOTS('',1,(#247,#248),.UNSPECIFIED.,.F.,.F.,
  (2,2),(0.,1.),.PIECEWISE_BEZIER_KNOTS.);
#247 = CARTESIAN_POINT('',(0.17829,0.));
#248 = CARTESIAN_POINT('',(0.17829,0.5));
#249 = ( GEOMETRIC_REPRESENTATION_CONTEXT(2) 
PARAMETRIC_REPRESENTATION_CONTEXT() REPRESENTATION_CONTEXT('2D SPACE',''
  ) );
#250 = ADVANCED_FACE('',(#251),#138,.F.);
#251 = FACE_BOUND('',#252,.T.);
#252 = EDGE_LOOP('',(#253,#254,#255,#274));
#253 = ORIENTED_EDGE('',*,*,#117,.T.);
#254 = ORIENTED_EDGE('',*,*,#206,.F.);
#255 = ORIENTED_EDGE('',*,*,#256,.F.);
#256 = EDGE_CURVE('',#257,#186,#259,.T.);
#257 = VERTEX_POINT('',#258);
#258 = CARTESIAN_POINT('',(5.6999998,-29.141525,0.));
#259 = SURFACE_CURVE('',#260,(#268),.PCURVE_S1.);
#260 = B_SPLINE_CURVE_WITH_KNOTS('',6,(#261,#262,#263,#264,#265,#266,
    #267),.UNSPECIFIED.,.F.,.F.,(7,7),(0.,1.),.PIECEWISE_BEZIER_KNOTS.);
#261 = CARTESIAN_POINT('',(5.6999998,-29.141525,0.));
#262 = CARTESIAN_POINT('',(5.6999998,-29.325129,0.));
#263 = CARTESIAN_POINT('',(5.6865156,-29.508734,0.));
#264 = CARTESIAN_POINT('',(5.6595472,-29.6911,0.));
#265 = CARTESIAN_POINT('',(5.6192462,-29.87099,0.));
#266 = CARTESIAN_POINT('',(5.5659154,-30.047195,0.));
#267 = CARTESIAN_POINT('',(5.4999995,-30.218559,0.));
#268 = PCURVE('',#138,#269);
#269 = DEFINITIONAL_REPRESENTATION('',(#270),#273);
#270 = B_SPLINE_CURVE_WITH_KNOTS('',1,(#271,#272),.UNSPECIFIED.,.F.,.F.,
  (2,2),(0.,1.),.PIECEWISE_BEZIER_KNOTS.);
#271 = CARTESIAN_POINT('',(0.,0.));
#272 = CARTESIAN_POINT('',(1.,0.));
#273 = ( GEOMETRIC_REPRESENTATION_CONTEXT(2) 
PARAMETRIC_REPRESENTATION_CONTEXT() REPRESENTATION_CONTEXT('2D SPACE',''
  ) );
#274 = ORIENTED_EDGE('',*,*,#275,.T.);
#275 = EDGE_CURVE('',#257,#118,#276,.T.);
#276 = SURFACE_CURVE('',#277,(#280,#286),.PCURVE_S1.);
#277 = B_SPLINE_CURVE_WITH_KNOTS('',1,(#278,#279),.UNSPECIFIED.,.F.,.F.,
  (2,2),(0.,1.),.PIECEWISE_BEZIER_KNOTS.);
#278 = CARTESIAN_POINT('',(5.6999998,-29.141525,0.));
#279 = CARTESIAN_POINT('',(5.6999998,-29.141525,37.));
#280 = PCURVE('',#138,#281);
#281 = DEFINITIONAL_REPRESENTATION('',(#282),#285);
#282 = B_SPLINE_CURVE_WITH_KNOTS('',1,(#283,#284),.UNSPECIFIED.,.F.,.F.,
  (2,2),(0.,1.),.PIECEWISE_BEZIER_KNOTS.);
#283 = CARTESIAN_POINT('',(0.,0.));
#284 = CARTESIAN_POINT('',(0.,1.));
#285 = ( GEOMETRIC_REPRESENTATION_CONTEXT(2) 
PARAMETRIC_REPRESENTATION_CONTEXT() REPRESENTATION_CONTEXT('2D SPACE',''
  ) );
#286 = PCURVE('',#171,#287);
#287 = DEFINITIONAL_REPRESENTATION('',(#288),#291);
#288 = B_SPLINE_CURVE_WITH_KNOTS('',1,(#289,#290),.UNSPECIFIED.,.F.,.F.,
  (2,2),(0.,1.),.PIECEWISE_BEZIER_KNOTS.);
#289 = CARTESIAN_POINT('',(1.,0.));
#290 = CARTESIAN_POINT('',(1.,1.));
#291 = ( GEOMETRIC_REPRESENTATION_CONTEXT(2) 
PARAMETRIC_REPRESENTATION_CONTEXT() REPRESENTATION_CONTEXT('2D SPACE',''
  ) );
#292 = ADVANCED_FACE('',(#293),#171,.F.);
#293 = FACE_BOUND('',#294,.T.);
#294 = EDGE_LOOP('',(#295,#296,#297,#311));
#295 = ORIENTED_EDGE('',*,*,#159,.T.);
#296 = ORIENTED_EDGE('',*,*,#275,.F.);
#297 = ORIENTED_EDGE('',*,*,#298,.F.);
#298 = EDGE_CURVE('',#299,#257,#301,.T.);
#299 = VERTEX_POINT('',#300);
#300 = CARTESIAN_POINT('',(5.6999998,-3.8361413,0.));
#301 = SURFACE_CURVE('',#302,(#305),.PCURVE_S1.);
#302 = B_SPLINE_CURVE_WITH_KNOTS('',1,(#303,#304),.UNSPECIFIED.,.F.,.F.,
  (2,2),(0.,1.),.PIECEWISE_BEZIER_KNOTS.);
#303 = CARTESIAN_POINT('',(5.6999998,-3.8361413,0.));
#304 = CARTESIAN_POINT('',(5.6999998,-29.141525,0.));
#305 = PCURVE('',#171,#306);
#306 = DEFINITIONAL_REPRESENTATION('',(#307),#310);
#307 = B_SPLINE_CURVE_WITH_KNOTS('',1,(#308,#309),.UNSPECIFIED.,.F.,.F.,
  (2,2),(0.,1.),.PIECEWISE_BEZIER_KNOTS.);
#308 = CARTESIAN_POINT('',(0.,0.));
#309 = CARTESIAN_POINT('',(1.,0.));
#310 = ( GEOMETRIC_REPRESENTATION_CONTEXT(2) 
PARAMETRIC_REPRESENTATION_CONTEXT() REPRESENTATION_CONTEXT('2D SPACE',''
  ) );
#311 = ORIENTED_EDGE('',*,*,#312,.T.);
#312 = EDGE_CURVE('',#299,#22,#313,.T.);
#313 = SURFACE_CURVE('',#314,(#317),.PCURVE_S1.);
#314 = B_SPLINE_CURVE_WITH_KNOTS('',1,(#315,#316),.UNSPECIFIED.,.F.,.F.,
  (2,2),(0.,1.),.PIECEWISE_BEZIER_KNOTS.);
#315 = CARTESIAN_POINT('',(5.6999998,-3.8361413,0.));
#316 = CARTESIAN_POINT('',(5.6999998,-3.8361413,37.));
#317 = PCURVE('',#171,#318);
#318 = DEFINITIONAL_REPRESENTATION('',(#319),#322);
#319 = B_SPLINE_CURVE_WITH_KNOTS('',1,(#320,#321),.UNSPECIFIED.,.F.,.F.,
  (2,2),(0.,1.),.PIECEWISE_BEZIER_KNOTS.);
#320 = CARTESIAN_POINT('',(0.,0.));
#321 = CARTESIAN_POINT('',(0.,1.));
#322 = ( GEOMETRIC_REPRESENTATION_CONTEXT(2) 
PARAMETRIC_REPRESENTATION_CONTEXT() REPRESENTATION_CONTEXT('2D SPACE',''
  ) );
#323 = ( GEOMETRIC_REPRESENTATION_CONTEXT(3) 
GLOBAL_UNCERTAINTY_ASSIGNED_CONTEXT((#327)) GLOBAL_UNIT_ASSIGNED_CONTEXT
((#324,#325,#326)) REPRESENTATION_CONTEXT('Context #1',
  '3D Context with UNIT and UNCERTAINTY') );
#324 = ( LENGTH_UNIT() NAMED_UNIT(*) SI_UNIT(.MILLI.,.METRE.) );
#325 = ( NAMED_UNIT(*) PLANE_ANGLE_UNIT() SI_UNIT($,.RADIAN.) );
#326 = ( NAMED_UNIT(*) SI_UNIT($,.STERADIAN.) SOLID_ANGLE_UNIT() );
#327 = UNCERTAINTY_MEASURE_WITH_UNIT(LENGTH_MEASURE(1.E-03),#324,
  'distance_accuracy_value','confusion accuracy');
#328 = PRODUCT_RELATED_PRODUCT_CATEGORY('part',$,(#7));
ENDSEC;
END-ISO-10303-21;
