ISO-10303-21;
HEADER;
FILE_DESCRIPTION(('Open CASCADE Model'),'2;1');
FILE_NAME('Open CASCADE Shape Model','2026-07-11T20:16:03',('Author'),(
    'Open CASCADE'),'Open CASCADE STEP processor 8.0','Open CASCADE 8.0'
  ,'Unknown');
FILE_SCHEMA(('AUTOMOTIVE_DESIGN { 1 0 10303 214 1 1 1 1 }'));
ENDSEC;
DATA;
#1 = APPLICATION_PROTOCOL_DEFINITION('international standard',
  'automotive_design',2000,#2);
#2 = APPLICATION_CONTEXT(
  'core data for automotive mechanical design processes');
#3 = SHAPE_DEFINITION_REPRESENTATION(#4,#10);
#4 = PRODUCT_DEFINITION_SHAPE('','',#5);
#5 = PRODUCT_DEFINITION('design','',#6,#9);
#6 = PRODUCT_DEFINITION_FORMATION('','',#7);
#7 = PRODUCT('Open CASCADE STEP translator 8.0 1',
  'Open CASCADE STEP translator 8.0 1','',(#8));
#8 = PRODUCT_CONTEXT('',#2,'mechanical');
#9 = PRODUCT_DEFINITION_CONTEXT('part definition',#2,'design');
#10 = MANIFOLD_SURFACE_SHAPE_REPRESENTATION('',(#11,#15),#464);
#11 = AXIS2_PLACEMENT_3D('',#12,#13,#14);
#12 = CARTESIAN_POINT('',(0.,0.,0.));
#13 = DIRECTION('',(0.,0.,1.));
#14 = DIRECTION('',(1.,0.,-0.));
#15 = SHELL_BASED_SURFACE_MODEL('',(#16));
#16 = OPEN_SHELL('',(#17,#370,#436));
#17 = ADVANCED_FACE('',(#18,#146),#36,.T.);
#18 = FACE_BOUND('',#19,.T.);
#19 = EDGE_LOOP('',(#20,#91,#110,#129));
#20 = ORIENTED_EDGE('',*,*,#21,.F.);
#21 = EDGE_CURVE('',#22,#24,#26,.T.);
#22 = VERTEX_POINT('',#23);
#23 = CARTESIAN_POINT('',(0.,0.,0.));
#24 = VERTEX_POINT('',#25);
#25 = CARTESIAN_POINT('',(0.,100.,0.));
#26 = SURFACE_CURVE('',#27,(#35),.PCURVE_S1.);
#27 = B_SPLINE_CURVE_WITH_KNOTS('',6,(#28,#29,#30,#31,#32,#33,#34),
  .UNSPECIFIED.,.F.,.F.,(7,7),(0.,1.),.PIECEWISE_BEZIER_KNOTS.);
#28 = CARTESIAN_POINT('',(0.,0.,0.));
#29 = CARTESIAN_POINT('',(0.,16.666667,0.));
#30 = CARTESIAN_POINT('',(0.,33.333333,0.));
#31 = CARTESIAN_POINT('',(0.,50.,0.));
#32 = CARTESIAN_POINT('',(0.,66.666667,0.));
#33 = CARTESIAN_POINT('',(0.,83.333333,0.));
#34 = CARTESIAN_POINT('',(0.,100.,0.));
#35 = PCURVE('',#36,#86);
#36 = B_SPLINE_SURFACE_WITH_KNOTS('',6,6,(
    (#37,#38,#39,#40,#41,#42,#43)
    ,(#44,#45,#46,#47,#48,#49,#50)
    ,(#51,#52,#53,#54,#55,#56,#57)
    ,(#58,#59,#60,#61,#62,#63,#64)
    ,(#65,#66,#67,#68,#69,#70,#71)
    ,(#72,#73,#74,#75,#76,#77,#78)
    ,(#79,#80,#81,#82,#83,#84,#85
    )),.UNSPECIFIED.,.F.,.F.,.F.,(7,7),(7,7),(0.,1.),(0.,1.),
  .PIECEWISE_BEZIER_KNOTS.);
#37 = CARTESIAN_POINT('',(0.,0.,0.));
#38 = CARTESIAN_POINT('',(0.,16.666667,0.));
#39 = CARTESIAN_POINT('',(0.,33.333333,0.));
#40 = CARTESIAN_POINT('',(0.,50.,0.));
#41 = CARTESIAN_POINT('',(0.,66.666667,0.));
#42 = CARTESIAN_POINT('',(0.,83.333333,0.));
#43 = CARTESIAN_POINT('',(0.,100.,0.));
#44 = CARTESIAN_POINT('',(16.666667,0.,0.));
#45 = CARTESIAN_POINT('',(16.666667,16.666667,-4.8888889));
#46 = CARTESIAN_POINT('',(16.666667,33.333333,-7.8222222));
#47 = CARTESIAN_POINT('',(16.666667,50.,-8.8));
#48 = CARTESIAN_POINT('',(16.666667,66.666667,-7.8222222));
#49 = CARTESIAN_POINT('',(16.666667,83.333333,-4.8888889));
#50 = CARTESIAN_POINT('',(16.666667,100.,-3.5527137E-15));
#51 = CARTESIAN_POINT('',(33.333333,0.,0.));
#52 = CARTESIAN_POINT('',(33.333333,16.666667,-7.8222222));
#53 = CARTESIAN_POINT('',(33.333333,33.333333,-12.515556));
#54 = CARTESIAN_POINT('',(33.333333,50.,-14.08));
#55 = CARTESIAN_POINT('',(33.333333,66.666667,-12.515556));
#56 = CARTESIAN_POINT('',(33.333333,83.333333,-7.8222222));
#57 = CARTESIAN_POINT('',(33.333333,100.,-1.4210855E-14));
#58 = CARTESIAN_POINT('',(50.,0.,0.));
#59 = CARTESIAN_POINT('',(50.,16.666667,-8.8));
#60 = CARTESIAN_POINT('',(50.,33.333333,-14.08));
#61 = CARTESIAN_POINT('',(50.,50.,-29.643301));
#62 = CARTESIAN_POINT('',(50.,66.666667,-14.08));
#63 = CARTESIAN_POINT('',(50.,83.333333,-8.8));
#64 = CARTESIAN_POINT('',(50.,100.,5.3290705E-14));
#65 = CARTESIAN_POINT('',(66.666667,0.,0.));
#66 = CARTESIAN_POINT('',(66.666667,16.666667,-7.8222222));
#67 = CARTESIAN_POINT('',(66.666667,33.333333,-12.515556));
#68 = CARTESIAN_POINT('',(66.666667,50.,-14.08));
#69 = CARTESIAN_POINT('',(66.666667,66.666667,-12.515556));
#70 = CARTESIAN_POINT('',(66.666667,83.333333,-7.8222222));
#71 = CARTESIAN_POINT('',(66.666667,100.,2.1582736E-13));
#72 = CARTESIAN_POINT('',(83.333333,0.,0.));
#73 = CARTESIAN_POINT('',(83.333333,16.666667,-4.8888889));
#74 = CARTESIAN_POINT('',(83.333333,33.333333,-7.8222222));
#75 = CARTESIAN_POINT('',(83.333333,50.,-8.8));
#76 = CARTESIAN_POINT('',(83.333333,66.666667,-7.8222222));
#77 = CARTESIAN_POINT('',(83.333333,83.333333,-4.8888889));
#78 = CARTESIAN_POINT('',(83.333333,100.,1.3864465E-12));
#79 = CARTESIAN_POINT('',(100.,0.,0.));
#80 = CARTESIAN_POINT('',(100.,16.666667,-3.5527137E-15));
#81 = CARTESIAN_POINT('',(100.,33.333333,-8.437695E-15));
#82 = CARTESIAN_POINT('',(100.,50.,1.0080825E-13));
#83 = CARTESIAN_POINT('',(100.,66.666667,4.6807003E-13));
#84 = CARTESIAN_POINT('',(100.,83.333333,1.7204016E-12));
#85 = CARTESIAN_POINT('',(100.,100.,4.5132786E-12));
#86 = DEFINITIONAL_REPRESENTATION('',(#87),#90);
#87 = B_SPLINE_CURVE_WITH_KNOTS('',1,(#88,#89),.UNSPECIFIED.,.F.,.F.,(2,
    2),(0.,1.),.PIECEWISE_BEZIER_KNOTS.);
#88 = CARTESIAN_POINT('',(0.,0.));
#89 = CARTESIAN_POINT('',(0.,1.));
#90 = ( GEOMETRIC_REPRESENTATION_CONTEXT(2) 
PARAMETRIC_REPRESENTATION_CONTEXT() REPRESENTATION_CONTEXT('2D SPACE',''
  ) );
#91 = ORIENTED_EDGE('',*,*,#92,.T.);
#92 = EDGE_CURVE('',#22,#93,#95,.T.);
#93 = VERTEX_POINT('',#94);
#94 = CARTESIAN_POINT('',(100.,0.,0.));
#95 = SURFACE_CURVE('',#96,(#104),.PCURVE_S1.);
#96 = B_SPLINE_CURVE_WITH_KNOTS('',6,(#97,#98,#99,#100,#101,#102,#103),
  .UNSPECIFIED.,.F.,.F.,(7,7),(0.,1.),.PIECEWISE_BEZIER_KNOTS.);
#97 = CARTESIAN_POINT('',(0.,0.,0.));
#98 = CARTESIAN_POINT('',(16.666667,0.,0.));
#99 = CARTESIAN_POINT('',(33.333333,0.,0.));
#100 = CARTESIAN_POINT('',(50.,0.,0.));
#101 = CARTESIAN_POINT('',(66.666667,0.,0.));
#102 = CARTESIAN_POINT('',(83.333333,0.,0.));
#103 = CARTESIAN_POINT('',(100.,0.,0.));
#104 = PCURVE('',#36,#105);
#105 = DEFINITIONAL_REPRESENTATION('',(#106),#109);
#106 = B_SPLINE_CURVE_WITH_KNOTS('',1,(#107,#108),.UNSPECIFIED.,.F.,.F.,
  (2,2),(0.,1.),.PIECEWISE_BEZIER_KNOTS.);
#107 = CARTESIAN_POINT('',(0.,0.));
#108 = CARTESIAN_POINT('',(1.,0.));
#109 = ( GEOMETRIC_REPRESENTATION_CONTEXT(2) 
PARAMETRIC_REPRESENTATION_CONTEXT() REPRESENTATION_CONTEXT('2D SPACE',''
  ) );
#110 = ORIENTED_EDGE('',*,*,#111,.T.);
#111 = EDGE_CURVE('',#93,#112,#114,.T.);
#112 = VERTEX_POINT('',#113);
#113 = CARTESIAN_POINT('',(100.,100.,1.815792E-11));
#114 = SURFACE_CURVE('',#115,(#123),.PCURVE_S1.);
#115 = B_SPLINE_CURVE_WITH_KNOTS('',6,(#116,#117,#118,#119,#120,#121,
    #122),.UNSPECIFIED.,.F.,.F.,(7,7),(0.,1.),.PIECEWISE_BEZIER_KNOTS.);
#116 = CARTESIAN_POINT('',(100.,0.,0.));
#117 = CARTESIAN_POINT('',(100.,16.666667,-1.7763568E-15));
#118 = CARTESIAN_POINT('',(100.,33.333333,-4.9737992E-15));
#119 = CARTESIAN_POINT('',(100.,50.,1.7230661E-13));
#120 = CARTESIAN_POINT('',(100.,66.666667,1.1970277E-12));
#121 = CARTESIAN_POINT('',(100.,83.333333,5.4338756E-12));
#122 = CARTESIAN_POINT('',(100.,100.,1.815792E-11));
#123 = PCURVE('',#36,#124);
#124 = DEFINITIONAL_REPRESENTATION('',(#125),#128);
#125 = B_SPLINE_CURVE_WITH_KNOTS('',1,(#126,#127),.UNSPECIFIED.,.F.,.F.,
  (2,2),(0.,1.),.PIECEWISE_BEZIER_KNOTS.);
#126 = CARTESIAN_POINT('',(1.,0.));
#127 = CARTESIAN_POINT('',(1.,1.));
#128 = ( GEOMETRIC_REPRESENTATION_CONTEXT(2) 
PARAMETRIC_REPRESENTATION_CONTEXT() REPRESENTATION_CONTEXT('2D SPACE',''
  ) );
#129 = ORIENTED_EDGE('',*,*,#130,.F.);
#130 = EDGE_CURVE('',#24,#112,#131,.T.);
#131 = SURFACE_CURVE('',#132,(#140),.PCURVE_S1.);
#132 = B_SPLINE_CURVE_WITH_KNOTS('',6,(#133,#134,#135,#136,#137,#138,
    #139),.UNSPECIFIED.,.F.,.F.,(7,7),(0.,1.),.PIECEWISE_BEZIER_KNOTS.);
#133 = CARTESIAN_POINT('',(0.,100.,0.));
#134 = CARTESIAN_POINT('',(16.666667,100.,-5.9211895E-16));
#135 = CARTESIAN_POINT('',(33.333333,100.,-9.2370556E-15));
#136 = CARTESIAN_POINT('',(50.,100.,1.5596413E-13));
#137 = CARTESIAN_POINT('',(66.666667,100.,6.7691038E-13));
#138 = CARTESIAN_POINT('',(83.333333,100.,2.9481602E-12));
#139 = CARTESIAN_POINT('',(100.,100.,1.0789591E-11));
#140 = PCURVE('',#36,#141);
#141 = DEFINITIONAL_REPRESENTATION('',(#142),#145);
#142 = B_SPLINE_CURVE_WITH_KNOTS('',1,(#143,#144),.UNSPECIFIED.,.F.,.F.,
  (2,2),(0.,1.),.PIECEWISE_BEZIER_KNOTS.);
#143 = CARTESIAN_POINT('',(0.,1.));
#144 = CARTESIAN_POINT('',(1.,1.));
#145 = ( GEOMETRIC_REPRESENTATION_CONTEXT(2) 
PARAMETRIC_REPRESENTATION_CONTEXT() REPRESENTATION_CONTEXT('2D SPACE',''
  ) );
#146 = FACE_BOUND('',#147,.T.);
#147 = EDGE_LOOP('',(#148,#223,#273,#333));
#148 = ORIENTED_EDGE('',*,*,#149,.F.);
#149 = EDGE_CURVE('',#150,#152,#154,.T.);
#150 = VERTEX_POINT('',#151);
#151 = CARTESIAN_POINT('',(55.659285,39.254381,-11.482843));
#152 = VERTEX_POINT('',#153);
#153 = CARTESIAN_POINT('',(35.565331,59.383843,-10.660421));
#154 = SURFACE_CURVE('',#155,(#170,#185),.PCURVE_S1.);
#155 = B_SPLINE_CURVE_WITH_KNOTS('',13,(#156,#157,#158,#159,#160,#161,
    #162,#163,#164,#165,#166,#167,#168,#169),.UNSPECIFIED.,.F.,.F.,(14,
    14),(0.,1.),.PIECEWISE_BEZIER_KNOTS.);
#156 = CARTESIAN_POINT('',(55.659285,39.254381,-11.482843));
#157 = CARTESIAN_POINT('',(55.642042,41.676969,-11.783795));
#158 = CARTESIAN_POINT('',(55.31686,44.103578,-12.034958));
#159 = CARTESIAN_POINT('',(54.681796,46.491155,-12.230048));
#160 = CARTESIAN_POINT('',(53.740823,48.795488,-12.363212));
#161 = CARTESIAN_POINT('',(52.504426,50.971885,-12.428581));
#162 = CARTESIAN_POINT('',(50.990136,52.976059,-12.42081));
#163 = CARTESIAN_POINT('',(49.223106,54.765312,-12.337286));
#164 = CARTESIAN_POINT('',(47.236901,56.300465,-12.181396));
#165 = CARTESIAN_POINT('',(45.073601,57.549317,-11.963804));
#166 = CARTESIAN_POINT('',(42.779596,58.490913,-11.696938));
#167 = CARTESIAN_POINT('',(40.396891,59.114768,-11.385364));
#168 = CARTESIAN_POINT('',(37.977015,59.410836,-11.038324));
#169 = CARTESIAN_POINT('',(35.565331,59.383843,-10.660421));
#170 = PCURVE('',#36,#171);
#171 = DEFINITIONAL_REPRESENTATION('',(#172),#184);
#172 = B_SPLINE_CURVE_WITH_KNOTS('',10,(#173,#174,#175,#176,#177,#178,
    #179,#180,#181,#182,#183),.UNSPECIFIED.,.F.,.F.,(11,11),(0.,1.),
  .PIECEWISE_BEZIER_KNOTS.);
#173 = CARTESIAN_POINT('',(0.55659271,0.39254274));
#174 = CARTESIAN_POINT('',(0.55637061,0.42403612));
#175 = CARTESIAN_POINT('',(0.55081111,0.4556009));
#176 = CARTESIAN_POINT('',(0.53986421,0.48621129));
#177 = CARTESIAN_POINT('',(0.52368078,0.51479819));
#178 = CARTESIAN_POINT('',(0.50265404,0.54028271));
#179 = CARTESIAN_POINT('',(0.4774584,0.56164309));
#180 = CARTESIAN_POINT('',(0.44903587,0.57803157));
#181 = CARTESIAN_POINT('',(0.41849257,0.58892062));
#182 = CARTESIAN_POINT('',(0.3870052,0.59418934));
#183 = CARTESIAN_POINT('',(0.35565331,0.59383843));
#184 = ( GEOMETRIC_REPRESENTATION_CONTEXT(2) 
PARAMETRIC_REPRESENTATION_CONTEXT() REPRESENTATION_CONTEXT('2D SPACE',''
  ) );
#185 = PCURVE('',#186,#209);
#186 = B_SPLINE_SURFACE_WITH_KNOTS('',10,1,(
    (#187,#188)
    ,(#189,#190)
    ,(#191,#192)
    ,(#193,#194)
    ,(#195,#196)
    ,(#197,#198)
    ,(#199,#200)
    ,(#201,#202)
    ,(#203,#204)
    ,(#205,#206)
    ,(#207,#208
    )),.UNSPECIFIED.,.F.,.F.,.F.,(11,11),(2,2),(0.,1.),(0.,1.),
  .PIECEWISE_BEZIER_KNOTS.);
#187 = CARTESIAN_POINT('',(35.,20.050826,-21.424941));
#188 = CARTESIAN_POINT('',(40.,15.050826,48.575059));
#189 = CARTESIAN_POINT('',(41.267299,20.08264,-21.870333));
#190 = CARTESIAN_POINT('',(46.267299,15.08264,48.129667));
#191 = CARTESIAN_POINT('',(47.534597,22.302125,-22.159462));
#192 = CARTESIAN_POINT('',(52.534597,17.302125,47.840538));
#193 = CARTESIAN_POINT('',(52.942788,26.704921,-22.231276));
#194 = CARTESIAN_POINT('',(57.942788,21.704921,47.768724));
#195 = CARTESIAN_POINT('',(56.632763,32.901106,-22.052261));
#196 = CARTESIAN_POINT('',(61.632763,27.901106,47.947739));
#197 = CARTESIAN_POINT('',(57.947298,40.116484,-21.630772));
#198 = CARTESIAN_POINT('',(62.947298,35.116484,48.369228));
#199 = CARTESIAN_POINT('',(56.632763,47.318516,-21.022446));
#200 = CARTESIAN_POINT('',(61.632763,42.318516,48.977554));
#201 = CARTESIAN_POINT('',(52.942788,53.477239,-20.318968));
#202 = CARTESIAN_POINT('',(57.942788,48.477239,49.681032));
#203 = CARTESIAN_POINT('',(47.534597,57.82513,-19.622105));
#204 = CARTESIAN_POINT('',(52.534597,52.82513,50.377895));
#205 = CARTESIAN_POINT('',(41.267299,59.980988,-19.020451));
#206 = CARTESIAN_POINT('',(46.267299,54.980988,50.979549));
#207 = CARTESIAN_POINT('',(35.,59.949174,-18.575059));
#208 = CARTESIAN_POINT('',(40.,54.949174,51.424941));
#209 = DEFINITIONAL_REPRESENTATION('',(#210),#222);
#210 = B_SPLINE_CURVE_WITH_KNOTS('',10,(#211,#212,#213,#214,#215,#216,
    #217,#218,#219,#220,#221),.UNSPECIFIED.,.F.,.F.,(11,11),(0.,1.),
  .PIECEWISE_BEZIER_KNOTS.);
#211 = CARTESIAN_POINT('',(0.49781923,0.14206514));
#212 = CARTESIAN_POINT('',(0.54737335,0.13332595));
#213 = CARTESIAN_POINT('',(0.59707832,0.1252622));
#214 = CARTESIAN_POINT('',(0.64698933,0.11818943));
#215 = CARTESIAN_POINT('',(0.6971367,0.1124235));
#216 = CARTESIAN_POINT('',(0.74752006,0.10829986));
#217 = CARTESIAN_POINT('',(0.79809066,0.10608692));
#218 = CARTESIAN_POINT('',(0.84871164,0.10573288));
#219 = CARTESIAN_POINT('',(0.899195,0.10676841));
#220 = CARTESIAN_POINT('',(0.94967089,0.10925035));
#221 = CARTESIAN_POINT('',(1.,0.11306626));
#222 = ( GEOMETRIC_REPRESENTATION_CONTEXT(2) 
PARAMETRIC_REPRESENTATION_CONTEXT() REPRESENTATION_CONTEXT('2D SPACE',''
  ) );
#223 = ORIENTED_EDGE('',*,*,#224,.F.);
#224 = EDGE_CURVE('',#225,#150,#227,.T.);
#225 = VERTEX_POINT('',#226);
#226 = CARTESIAN_POINT('',(36.066925,18.983901,-6.4879917));
#227 = SURFACE_CURVE('',#228,(#243,#258),.PCURVE_S1.);
#228 = B_SPLINE_CURVE_WITH_KNOTS('',13,(#229,#230,#231,#232,#233,#234,
    #235,#236,#237,#238,#239,#240,#241,#242),.UNSPECIFIED.,.F.,.F.,(14,
    14),(0.,1.),.PIECEWISE_BEZIER_KNOTS.);
#229 = CARTESIAN_POINT('',(36.066925,18.983901,-6.4879917));
#230 = CARTESIAN_POINT('',(38.499152,18.998858,-6.6973833));
#231 = CARTESIAN_POINT('',(40.924902,19.341772,-6.9614438));
#232 = CARTESIAN_POINT('',(43.292891,20.010077,-7.286107));
#233 = CARTESIAN_POINT('',(45.555867,20.999225,-7.6732432));
#234 = CARTESIAN_POINT('',(47.661971,22.28412,-8.1107572));
#235 = CARTESIAN_POINT('',(49.57514,23.834364,-8.5817801));
#236 = CARTESIAN_POINT('',(51.267518,25.619066,-9.0662831));
#237 = CARTESIAN_POINT('',(52.714466,27.605717,-9.54569));
#238 = CARTESIAN_POINT('',(53.894281,29.759189,-10.005884));
#239 = CARTESIAN_POINT('',(54.789127,32.041709,-10.436907));
#240 = CARTESIAN_POINT('',(55.385827,34.413207,-10.83115));
#241 = CARTESIAN_POINT('',(55.676527,36.831783,-11.181891));
#242 = CARTESIAN_POINT('',(55.659285,39.254381,-11.482843));
#243 = PCURVE('',#36,#244);
#244 = DEFINITIONAL_REPRESENTATION('',(#245),#257);
#245 = B_SPLINE_CURVE_WITH_KNOTS('',10,(#246,#247,#248,#249,#250,#251,
    #252,#253,#254,#255,#256),.UNSPECIFIED.,.F.,.F.,(11,11),(0.,1.),
  .PIECEWISE_BEZIER_KNOTS.);
#246 = CARTESIAN_POINT('',(0.36066925,0.18983901));
#247 = CARTESIAN_POINT('',(0.3922882,0.19003344));
#248 = CARTESIAN_POINT('',(0.42379508,0.19588357));
#249 = CARTESIAN_POINT('',(0.45400066,0.20748356));
#250 = CARTESIAN_POINT('',(0.48162453,0.22434962));
#251 = CARTESIAN_POINT('',(0.50579133,0.24579648));
#252 = CARTESIAN_POINT('',(0.52585719,0.27105674));
#253 = CARTESIAN_POINT('',(0.54129663,0.29930211));
#254 = CARTESIAN_POINT('',(0.55169945,0.32962708));
#255 = CARTESIAN_POINT('',(0.55681481,0.36104921));
#256 = CARTESIAN_POINT('',(0.55659271,0.39254274));
#257 = ( GEOMETRIC_REPRESENTATION_CONTEXT(2) 
PARAMETRIC_REPRESENTATION_CONTEXT() REPRESENTATION_CONTEXT('2D SPACE',''
  ) );
#258 = PCURVE('',#186,#259);
#259 = DEFINITIONAL_REPRESENTATION('',(#260),#272);
#260 = B_SPLINE_CURVE_WITH_KNOTS('',10,(#261,#262,#263,#264,#265,#266,
    #267,#268,#269,#270,#271),.UNSPECIFIED.,.F.,.F.,(11,11),(0.,1.),
  .PIECEWISE_BEZIER_KNOTS.);
#261 = CARTESIAN_POINT('',(9.1979231E-13,0.21338499));
#262 = CARTESIAN_POINT('',(5.0504435E-02,0.21270976));
#263 = CARTESIAN_POINT('',(0.10095711,0.21007457));
#264 = CARTESIAN_POINT('',(0.15135476,0.20530912));
#265 = CARTESIAN_POINT('',(0.20130366,0.19810575));
#266 = CARTESIAN_POINT('',(0.25088693,0.18934293));
#267 = CARTESIAN_POINT('',(0.30026235,0.17981287));
#268 = CARTESIAN_POINT('',(0.34955429,0.16999354));
#269 = CARTESIAN_POINT('',(0.39886186,0.16021897));
#270 = CARTESIAN_POINT('',(0.44826512,0.15080433));
#271 = CARTESIAN_POINT('',(0.49781923,0.14206514));
#272 = ( GEOMETRIC_REPRESENTATION_CONTEXT(2) 
PARAMETRIC_REPRESENTATION_CONTEXT() REPRESENTATION_CONTEXT('2D SPACE',''
  ) );
#273 = ORIENTED_EDGE('',*,*,#274,.F.);
#274 = EDGE_CURVE('',#275,#225,#277,.T.);
#275 = VERTEX_POINT('',#276);
#276 = CARTESIAN_POINT('',(15.963108,39.136342,-5.8040545));
#277 = SURFACE_CURVE('',#278,(#288,#299),.PCURVE_S1.);
#278 = B_SPLINE_CURVE_WITH_KNOTS('',8,(#279,#280,#281,#282,#283,#284,
    #285,#286,#287),.UNSPECIFIED.,.F.,.F.,(9,9),(0.,1.),
  .PIECEWISE_BEZIER_KNOTS.);
#279 = CARTESIAN_POINT('',(15.963108,39.136342,-5.8040545));
#280 = CARTESIAN_POINT('',(15.969307,35.185432,-5.5838418));
#281 = CARTESIAN_POINT('',(16.84567,31.225713,-5.5445962));
#282 = CARTESIAN_POINT('',(18.603602,27.49269,-5.6563321));
#283 = CARTESIAN_POINT('',(21.191848,24.227606,-5.8339559));
#284 = CARTESIAN_POINT('',(24.440354,21.636015,-5.8884591));
#285 = CARTESIAN_POINT('',(28.162878,19.842794,-5.9604135));
#286 = CARTESIAN_POINT('',(32.124561,18.959658,-6.1485924));
#287 = CARTESIAN_POINT('',(36.066925,18.983901,-6.4879917));
#288 = PCURVE('',#36,#289);
#289 = DEFINITIONAL_REPRESENTATION('',(#290),#298);
#290 = B_SPLINE_CURVE_WITH_KNOTS('',6,(#291,#292,#293,#294,#295,#296,
    #297),.UNSPECIFIED.,.F.,.F.,(7,7),(0.,1.),.PIECEWISE_BEZIER_KNOTS.);
#291 = CARTESIAN_POINT('',(0.15963108,0.39136342));
#292 = CARTESIAN_POINT('',(0.15971373,0.33868462));
#293 = CARTESIAN_POINT('',(0.176001,0.28580921));
#294 = CARTESIAN_POINT('',(0.20910744,0.23952888));
#295 = CARTESIAN_POINT('',(0.25519244,0.20618283));
#296 = CARTESIAN_POINT('',(0.3081044,0.18951577));
#297 = CARTESIAN_POINT('',(0.36066925,0.18983901));
#298 = ( GEOMETRIC_REPRESENTATION_CONTEXT(2) 
PARAMETRIC_REPRESENTATION_CONTEXT() REPRESENTATION_CONTEXT('2D SPACE',''
  ) );
#299 = PCURVE('',#300,#323);
#300 = B_SPLINE_SURFACE_WITH_KNOTS('',10,1,(
    (#301,#302)
    ,(#303,#304)
    ,(#305,#306)
    ,(#307,#308)
    ,(#309,#310)
    ,(#311,#312)
    ,(#313,#314)
    ,(#315,#316)
    ,(#317,#318)
    ,(#319,#320)
    ,(#321,#322
    )),.UNSPECIFIED.,.F.,.F.,.F.,(11,11),(2,2),(0.,1.),(0.,1.),
  .PIECEWISE_BEZIER_KNOTS.);
#301 = CARTESIAN_POINT('',(35.,59.949174,-18.575059));
#302 = CARTESIAN_POINT('',(40.,54.949174,51.424941));
#303 = CARTESIAN_POINT('',(28.732701,59.91736,-18.129667));
#304 = CARTESIAN_POINT('',(33.732701,54.91736,51.870333));
#305 = CARTESIAN_POINT('',(22.465403,57.697875,-17.840538));
#306 = CARTESIAN_POINT('',(27.465403,52.697875,52.159462));
#307 = CARTESIAN_POINT('',(17.057212,53.295079,-17.768724));
#308 = CARTESIAN_POINT('',(22.057212,48.295079,52.231276));
#309 = CARTESIAN_POINT('',(13.367237,47.098894,-17.947739));
#310 = CARTESIAN_POINT('',(18.367237,42.098894,52.052261));
#311 = CARTESIAN_POINT('',(12.052702,39.883516,-18.369228));
#312 = CARTESIAN_POINT('',(17.052702,34.883516,51.630772));
#313 = CARTESIAN_POINT('',(13.367237,32.681484,-18.977554));
#314 = CARTESIAN_POINT('',(18.367237,27.681484,51.022446));
#315 = CARTESIAN_POINT('',(17.057212,26.522761,-19.681032));
#316 = CARTESIAN_POINT('',(22.057212,21.522761,50.318968));
#317 = CARTESIAN_POINT('',(22.465403,22.17487,-20.377895));
#318 = CARTESIAN_POINT('',(27.465403,17.17487,49.622105));
#319 = CARTESIAN_POINT('',(28.732701,20.019012,-20.979549));
#320 = CARTESIAN_POINT('',(33.732701,15.019012,49.020451));
#321 = CARTESIAN_POINT('',(35.,20.050826,-21.424941));
#322 = CARTESIAN_POINT('',(40.,15.050826,48.575059));
#323 = DEFINITIONAL_REPRESENTATION('',(#324),#332);
#324 = B_SPLINE_CURVE_WITH_KNOTS('',6,(#325,#326,#327,#328,#329,#330,
    #331),.UNSPECIFIED.,.F.,.F.,(7,7),(0.,1.),.PIECEWISE_BEZIER_KNOTS.);
#325 = CARTESIAN_POINT('',(0.49761335,0.18239394));
#326 = CARTESIAN_POINT('',(0.58091064,0.19187554));
#327 = CARTESIAN_POINT('',(0.66463992,0.1983735));
#328 = CARTESIAN_POINT('',(0.74861998,0.20129536));
#329 = CARTESIAN_POINT('',(0.83196392,0.2099273));
#330 = CARTESIAN_POINT('',(0.91603882,0.21450751));
#331 = CARTESIAN_POINT('',(1.,0.21338499));
#332 = ( GEOMETRIC_REPRESENTATION_CONTEXT(2) 
PARAMETRIC_REPRESENTATION_CONTEXT() REPRESENTATION_CONTEXT('2D SPACE',''
  ) );
#333 = ORIENTED_EDGE('',*,*,#334,.F.);
#334 = EDGE_CURVE('',#152,#275,#335,.T.);
#335 = SURFACE_CURVE('',#336,(#346,#358),.PCURVE_S1.);
#336 = B_SPLINE_CURVE_WITH_KNOTS('',8,(#337,#338,#339,#340,#341,#342,
    #343,#344,#345),.UNSPECIFIED.,.F.,.F.,(9,9),(0.,1.),
  .PIECEWISE_BEZIER_KNOTS.);
#337 = CARTESIAN_POINT('',(35.565331,59.383843,-10.660421));
#338 = CARTESIAN_POINT('',(31.656232,59.340091,-10.047877));
#339 = CARTESIAN_POINT('',(27.771178,58.399409,-9.3501329));
#340 = CARTESIAN_POINT('',(24.142661,56.576222,-8.5975372));
#341 = CARTESIAN_POINT('',(21.017814,53.952032,-7.8066414));
#342 = CARTESIAN_POINT('',(18.542849,50.730278,-7.0337022));
#343 = CARTESIAN_POINT('',(16.819732,47.029144,-6.425171));
#344 = CARTESIAN_POINT('',(15.956909,43.087252,-6.0242672));
#345 = CARTESIAN_POINT('',(15.963108,39.136342,-5.8040545));
#346 = PCURVE('',#36,#347);
#347 = DEFINITIONAL_REPRESENTATION('',(#348),#357);
#348 = B_SPLINE_CURVE_WITH_KNOTS('',7,(#349,#350,#351,#352,#353,#354,
    #355,#356),.UNSPECIFIED.,.F.,.F.,(8,8),(0.,1.),
  .PIECEWISE_BEZIER_KNOTS.);
#349 = CARTESIAN_POINT('',(0.35565331,0.59383843));
#350 = CARTESIAN_POINT('',(0.3109779,0.59333841));
#351 = CARTESIAN_POINT('',(0.26662257,0.58090533));
#352 = CARTESIAN_POINT('',(0.22631095,0.55657642));
#353 = CARTESIAN_POINT('',(0.19404199,0.52263909));
#354 = CARTESIAN_POINT('',(0.17107584,0.48157572));
#355 = CARTESIAN_POINT('',(0.15956024,0.43651667));
#356 = CARTESIAN_POINT('',(0.15963108,0.39136342));
#357 = ( GEOMETRIC_REPRESENTATION_CONTEXT(2) 
PARAMETRIC_REPRESENTATION_CONTEXT() REPRESENTATION_CONTEXT('2D SPACE',''
  ) );
#358 = PCURVE('',#300,#359);
#359 = DEFINITIONAL_REPRESENTATION('',(#360),#369);
#360 = B_SPLINE_CURVE_WITH_KNOTS('',7,(#361,#362,#363,#364,#365,#366,
    #367,#368),.UNSPECIFIED.,.F.,.F.,(8,8),(0.,1.),
  .PIECEWISE_BEZIER_KNOTS.);
#361 = CARTESIAN_POINT('',(2.6669129E-12,0.11306626));
#362 = CARTESIAN_POINT('',(7.1717169E-02,0.11850379));
#363 = CARTESIAN_POINT('',(0.14314558,0.12680392));
#364 = CARTESIAN_POINT('',(0.21427969,0.13751524));
#365 = CARTESIAN_POINT('',(0.28454682,0.15102047));
#366 = CARTESIAN_POINT('',(0.35512478,0.16393109));
#367 = CARTESIAN_POINT('',(0.42621567,0.17426686));
#368 = CARTESIAN_POINT('',(0.49761335,0.18239394));
#369 = ( GEOMETRIC_REPRESENTATION_CONTEXT(2) 
PARAMETRIC_REPRESENTATION_CONTEXT() REPRESENTATION_CONTEXT('2D SPACE',''
  ) );
#370 = ADVANCED_FACE('',(#371),#186,.T.);
#371 = FACE_BOUND('',#372,.T.);
#372 = EDGE_LOOP('',(#373,#374,#375,#395,#418));
#373 = ORIENTED_EDGE('',*,*,#224,.T.);
#374 = ORIENTED_EDGE('',*,*,#149,.T.);
#375 = ORIENTED_EDGE('',*,*,#376,.T.);
#376 = EDGE_CURVE('',#152,#377,#379,.T.);
#377 = VERTEX_POINT('',#378);
#378 = CARTESIAN_POINT('',(40.,54.949174,51.424941));
#379 = SURFACE_CURVE('',#380,(#383,#389),.PCURVE_S1.);
#380 = B_SPLINE_CURVE_WITH_KNOTS('',1,(#381,#382),.UNSPECIFIED.,.F.,.F.,
  (2,2),(0.,1.),.PIECEWISE_BEZIER_KNOTS.);
#381 = CARTESIAN_POINT('',(35.565331,59.383843,-10.660421));
#382 = CARTESIAN_POINT('',(40.,54.949174,51.424941));
#383 = PCURVE('',#186,#384);
#384 = DEFINITIONAL_REPRESENTATION('',(#385),#388);
#385 = B_SPLINE_CURVE_WITH_KNOTS('',1,(#386,#387),.UNSPECIFIED.,.F.,.F.,
  (2,2),(0.,1.),.PIECEWISE_BEZIER_KNOTS.);
#386 = CARTESIAN_POINT('',(1.,0.11306626));
#387 = CARTESIAN_POINT('',(1.,1.));
#388 = ( GEOMETRIC_REPRESENTATION_CONTEXT(2) 
PARAMETRIC_REPRESENTATION_CONTEXT() REPRESENTATION_CONTEXT('2D SPACE',''
  ) );
#389 = PCURVE('',#300,#390);
#390 = DEFINITIONAL_REPRESENTATION('',(#391),#394);
#391 = B_SPLINE_CURVE_WITH_KNOTS('',1,(#392,#393),.UNSPECIFIED.,.F.,.F.,
  (2,2),(0.,1.),.PIECEWISE_BEZIER_KNOTS.);
#392 = CARTESIAN_POINT('',(0.,0.11306626));
#393 = CARTESIAN_POINT('',(0.,1.));
#394 = ( GEOMETRIC_REPRESENTATION_CONTEXT(2) 
PARAMETRIC_REPRESENTATION_CONTEXT() REPRESENTATION_CONTEXT('2D SPACE',''
  ) );
#395 = ORIENTED_EDGE('',*,*,#396,.T.);
#396 = EDGE_CURVE('',#377,#397,#399,.T.);
#397 = VERTEX_POINT('',#398);
#398 = CARTESIAN_POINT('',(40.,15.050826,48.575059));
#399 = SURFACE_CURVE('',#400,(#412),.PCURVE_S1.);
#400 = B_SPLINE_CURVE_WITH_KNOTS('',10,(#401,#402,#403,#404,#405,#406,
    #407,#408,#409,#410,#411),.UNSPECIFIED.,.F.,.F.,(11,11),(0.,1.),
  .PIECEWISE_BEZIER_KNOTS.);
#401 = CARTESIAN_POINT('',(40.,54.949174,51.424941));
#402 = CARTESIAN_POINT('',(46.267299,54.980988,50.979549));
#403 = CARTESIAN_POINT('',(52.534597,52.82513,50.377895));
#404 = CARTESIAN_POINT('',(57.942788,48.477239,49.681032));
#405 = CARTESIAN_POINT('',(61.632763,42.318516,48.977554));
#406 = CARTESIAN_POINT('',(62.947298,35.116484,48.369228));
#407 = CARTESIAN_POINT('',(61.632763,27.901106,47.947739));
#408 = CARTESIAN_POINT('',(57.942788,21.704921,47.768724));
#409 = CARTESIAN_POINT('',(52.534597,17.302125,47.840538));
#410 = CARTESIAN_POINT('',(46.267299,15.08264,48.129667));
#411 = CARTESIAN_POINT('',(40.,15.050826,48.575059));
#412 = PCURVE('',#186,#413);
#413 = DEFINITIONAL_REPRESENTATION('',(#414),#417);
#414 = B_SPLINE_CURVE_WITH_KNOTS('',1,(#415,#416),.UNSPECIFIED.,.F.,.F.,
  (2,2),(0.,1.),.PIECEWISE_BEZIER_KNOTS.);
#415 = CARTESIAN_POINT('',(1.,1.));
#416 = CARTESIAN_POINT('',(0.,1.));
#417 = ( GEOMETRIC_REPRESENTATION_CONTEXT(2) 
PARAMETRIC_REPRESENTATION_CONTEXT() REPRESENTATION_CONTEXT('2D SPACE',''
  ) );
#418 = ORIENTED_EDGE('',*,*,#419,.T.);
#419 = EDGE_CURVE('',#397,#225,#420,.T.);
#420 = SURFACE_CURVE('',#421,(#424,#430),.PCURVE_S1.);
#421 = B_SPLINE_CURVE_WITH_KNOTS('',1,(#422,#423),.UNSPECIFIED.,.F.,.F.,
  (2,2),(0.,1.),.PIECEWISE_BEZIER_KNOTS.);
#422 = CARTESIAN_POINT('',(40.,15.050826,48.575059));
#423 = CARTESIAN_POINT('',(36.066925,18.983901,-6.4879917));
#424 = PCURVE('',#186,#425);
#425 = DEFINITIONAL_REPRESENTATION('',(#426),#429);
#426 = B_SPLINE_CURVE_WITH_KNOTS('',1,(#427,#428),.UNSPECIFIED.,.F.,.F.,
  (2,2),(0.,1.),.PIECEWISE_BEZIER_KNOTS.);
#427 = CARTESIAN_POINT('',(0.,1.));
#428 = CARTESIAN_POINT('',(0.,0.21338499));
#429 = ( GEOMETRIC_REPRESENTATION_CONTEXT(2) 
PARAMETRIC_REPRESENTATION_CONTEXT() REPRESENTATION_CONTEXT('2D SPACE',''
  ) );
#430 = PCURVE('',#300,#431);
#431 = DEFINITIONAL_REPRESENTATION('',(#432),#435);
#432 = B_SPLINE_CURVE_WITH_KNOTS('',1,(#433,#434),.UNSPECIFIED.,.F.,.F.,
  (2,2),(0.,1.),.PIECEWISE_BEZIER_KNOTS.);
#433 = CARTESIAN_POINT('',(1.,1.));
#434 = CARTESIAN_POINT('',(1.,0.21338499));
#435 = ( GEOMETRIC_REPRESENTATION_CONTEXT(2) 
PARAMETRIC_REPRESENTATION_CONTEXT() REPRESENTATION_CONTEXT('2D SPACE',''
  ) );
#436 = ADVANCED_FACE('',(#437),#300,.T.);
#437 = FACE_BOUND('',#438,.T.);
#438 = EDGE_LOOP('',(#439,#440,#441,#442,#463));
#439 = ORIENTED_EDGE('',*,*,#334,.T.);
#440 = ORIENTED_EDGE('',*,*,#274,.T.);
#441 = ORIENTED_EDGE('',*,*,#419,.F.);
#442 = ORIENTED_EDGE('',*,*,#443,.T.);
#443 = EDGE_CURVE('',#397,#377,#444,.T.);
#444 = SURFACE_CURVE('',#445,(#457),.PCURVE_S1.);
#445 = B_SPLINE_CURVE_WITH_KNOTS('',10,(#446,#447,#448,#449,#450,#451,
    #452,#453,#454,#455,#456),.UNSPECIFIED.,.F.,.F.,(11,11),(0.,1.),
  .PIECEWISE_BEZIER_KNOTS.);
#446 = CARTESIAN_POINT('',(40.,15.050826,48.575059));
#447 = CARTESIAN_POINT('',(33.732701,15.019012,49.020451));
#448 = CARTESIAN_POINT('',(27.465403,17.17487,49.622105));
#449 = CARTESIAN_POINT('',(22.057212,21.522761,50.318968));
#450 = CARTESIAN_POINT('',(18.367237,27.681484,51.022446));
#451 = CARTESIAN_POINT('',(17.052702,34.883516,51.630772));
#452 = CARTESIAN_POINT('',(18.367237,42.098894,52.052261));
#453 = CARTESIAN_POINT('',(22.057212,48.295079,52.231276));
#454 = CARTESIAN_POINT('',(27.465403,52.697875,52.159462));
#455 = CARTESIAN_POINT('',(33.732701,54.91736,51.870333));
#456 = CARTESIAN_POINT('',(40.,54.949174,51.424941));
#457 = PCURVE('',#300,#458);
#458 = DEFINITIONAL_REPRESENTATION('',(#459),#462);
#459 = B_SPLINE_CURVE_WITH_KNOTS('',1,(#460,#461),.UNSPECIFIED.,.F.,.F.,
  (2,2),(0.,1.),.PIECEWISE_BEZIER_KNOTS.);
#460 = CARTESIAN_POINT('',(1.,1.));
#461 = CARTESIAN_POINT('',(0.,1.));
#462 = ( GEOMETRIC_REPRESENTATION_CONTEXT(2) 
PARAMETRIC_REPRESENTATION_CONTEXT() REPRESENTATION_CONTEXT('2D SPACE',''
  ) );
#463 = ORIENTED_EDGE('',*,*,#376,.F.);
#464 = ( GEOMETRIC_REPRESENTATION_CONTEXT(3) 
GLOBAL_UNCERTAINTY_ASSIGNED_CONTEXT((#468)) GLOBAL_UNIT_ASSIGNED_CONTEXT
((#465,#466,#467)) REPRESENTATION_CONTEXT('Context #1',
  '3D Context with UNIT and UNCERTAINTY') );
#465 = ( LENGTH_UNIT() NAMED_UNIT(*) SI_UNIT(.MILLI.,.METRE.) );
#466 = ( NAMED_UNIT(*) PLANE_ANGLE_UNIT() SI_UNIT($,.RADIAN.) );
#467 = ( NAMED_UNIT(*) SI_UNIT($,.STERADIAN.) SOLID_ANGLE_UNIT() );
#468 = UNCERTAINTY_MEASURE_WITH_UNIT(LENGTH_MEASURE(1.E-03),#465,
  'distance_accuracy_value','confusion accuracy');
#469 = PRODUCT_RELATED_PRODUCT_CATEGORY('part',$,(#7));
ENDSEC;
END-ISO-10303-21;
