ISO-10303-21;
HEADER;
FILE_DESCRIPTION(('Open CASCADE Model'),'2;1');
FILE_NAME('Open CASCADE Shape Model','2026-07-11T20:16:03',('Author'),(
    'Open CASCADE'),'Open CASCADE STEP processor 8.0','Open CASCADE 8.0'
  ,'Unknown');
FILE_SCHEMA(('AUTOMOTIVE_DESIGN { 1 0 10303 214 1 1 1 1 }'));
ENDSEC;
DATA;
#1 = APPLICATION_PROTOCOL_DEFINITION('international standard',
  'automotive_design',2000,#2);
#2 = APPLICATION_CONTEXT(
  'core data for automotive mechanical design processes');
#3 = SHAPE_DEFINITION_REPRESENTATION(#4,#10);
#4 = PRODUCT_DEFINITION_SHAPE('','',#5);
#5 = PRODUCT_DEFINITION('design','',#6,#9);
#6 = PRODUCT_DEFINITION_FORMATION('','',#7);
#7 = PRODUCT('Open CASCADE STEP translator 8.0 1',
  'Open CASCADE STEP translator 8.0 1','',(#8));
#8 = PRODUCT_CONTEXT('',#2,'mechanical');
#9 = PRODUCT_DEFINITION_CONTEXT('part definition',#2,'design');
#10 = MANIFOLD_SURFACE_SHAPE_REPRESENTATION('',(#11,#15),#428);
#11 = AXIS2_PLACEMENT_3D('',#12,#13,#14);
#12 = CARTESIAN_POINT('',(0.,0.,0.));
#13 = DIRECTION('',(0.,0.,1.));
#14 = DIRECTION('',(1.,0.,-0.));
#15 = SHELL_BASED_SURFACE_MODEL('',(#16));
#16 = OPEN_SHELL('',(#17,#348));
#17 = ADVANCED_FACE('',(#18),#37,.T.);
#18 = FACE_BOUND('',#19,.T.);
#19 = EDGE_LOOP('',(#20,#170,#216,#255,#291,#310,#331));
#20 = ORIENTED_EDGE('',*,*,#21,.T.);
#21 = EDGE_CURVE('',#22,#24,#26,.T.);
#22 = VERTEX_POINT('',#23);
#23 = CARTESIAN_POINT('',(28.681271,48.659876,-0.30199337));
#24 = VERTEX_POINT('',#25);
#25 = CARTESIAN_POINT('',(32.404223,62.136796,6.547954));
#26 = SURFACE_CURVE('',#27,(#36,#110),.PCURVE_S1.);
#27 = B_SPLINE_CURVE_WITH_KNOTS('',7,(#28,#29,#30,#31,#32,#33,#34,#35),
  .UNSPECIFIED.,.F.,.F.,(8,8),(0.,1.),.PIECEWISE_BEZIER_KNOTS.);
#28 = CARTESIAN_POINT('',(28.681271,48.659876,-0.30199337));
#29 = CARTESIAN_POINT('',(29.469223,50.239971,1.0860841));
#30 = CARTESIAN_POINT('',(30.155224,52.007538,2.318638));
#31 = CARTESIAN_POINT('',(30.746312,53.887025,3.4173325));
#32 = CARTESIAN_POINT('',(31.25646,55.851075,4.4040474));
#33 = CARTESIAN_POINT('',(31.704779,57.884429,5.2651202));
#34 = CARTESIAN_POINT('',(32.096169,59.982252,5.9936217));
#35 = CARTESIAN_POINT('',(32.404223,62.136796,6.547954));
#36 = PCURVE('',#37,#101);
#37 = B_SPLINE_SURFACE_WITH_KNOTS('',8,6,(
    (#38,#39,#40,#41,#42,#43,#44)
    ,(#45,#46,#47,#48,#49,#50,#51)
    ,(#52,#53,#54,#55,#56,#57,#58)
    ,(#59,#60,#61,#62,#63,#64,#65)
    ,(#66,#67,#68,#69,#70,#71,#72)
    ,(#73,#74,#75,#76,#77,#78,#79)
    ,(#80,#81,#82,#83,#84,#85,#86)
    ,(#87,#88,#89,#90,#91,#92,#93)
    ,(#94,#95,#96,#97,#98,#99,#100
    )),.UNSPECIFIED.,.F.,.F.,.F.,(9,9),(7,7),(0.,1.),(0.,1.),
  .PIECEWISE_BEZIER_KNOTS.);
#38 = CARTESIAN_POINT('',(0.,100.51025,-3.9621256));
#39 = CARTESIAN_POINT('',(4.6871562,100.51025,-3.9621256));
#40 = CARTESIAN_POINT('',(9.3743124,100.51025,-4.5347697));
#41 = CARTESIAN_POINT('',(13.974023,100.51025,-5.6800602));
#42 = CARTESIAN_POINT('',(18.398798,100.51025,-7.380179));
#43 = CARTESIAN_POINT('',(22.566746,100.51025,-9.5995387));
#44 = CARTESIAN_POINT('',(26.40624,100.51025,-12.287981));
#45 = CARTESIAN_POINT('',(-3.5527137E-15,88.802613,-4.414547));
#46 = CARTESIAN_POINT('',(4.6410948,88.802613,-4.414547));
#47 = CARTESIAN_POINT('',(9.2821895,88.802613,-4.9815637));
#48 = CARTESIAN_POINT('',(13.836698,88.802613,-6.1155993));
#49 = CARTESIAN_POINT('',(18.21799,88.802613,-7.7990107));
#50 = CARTESIAN_POINT('',(22.344979,88.802613,-9.9965604));
#51 = CARTESIAN_POINT('',(26.146742,88.802613,-12.658583));
#52 = CARTESIAN_POINT('',(-4.8560728E-15,79.029214,-1.2453677));
#53 = CARTESIAN_POINT('',(4.9637517,79.029214,-1.2453677));
#54 = CARTESIAN_POINT('',(9.9275034,79.029214,-1.8518044));
#55 = CARTESIAN_POINT('',(14.79865,79.029214,-3.06468));
#56 = CARTESIAN_POINT('',(19.484536,79.029214,-4.8651252));
#57 = CARTESIAN_POINT('',(23.898441,79.029214,-7.2154523));
#58 = CARTESIAN_POINT('',(27.964508,79.029214,-10.062543));
#59 = CARTESIAN_POINT('',(-0.44085169,78.210205,6.1803919));
#60 = CARTESIAN_POINT('',(5.2789231,78.210205,6.2252754));
#61 = CARTESIAN_POINT('',(11.004181,78.210205,5.5713566));
#62 = CARTESIAN_POINT('',(16.628213,78.210205,4.2177954));
#63 = CARTESIAN_POINT('',(22.044081,78.210205,2.1854976));
#64 = CARTESIAN_POINT('',(27.151515,78.210205,-0.4828934));
#65 = CARTESIAN_POINT('',(31.862624,78.210205,-3.726855));
#66 = CARTESIAN_POINT('',(-0.70536271,79.323693,14.881361));
#67 = CARTESIAN_POINT('',(5.9002652,79.323693,14.953174));
#68 = CARTESIAN_POINT('',(12.514667,79.323693,14.217958));
#69 = CARTESIAN_POINT('',(19.014605,79.323693,12.674369));
#70 = CARTESIAN_POINT('',(25.276506,79.323693,10.346179));
#71 = CARTESIAN_POINT('',(31.184416,79.323693,7.2822848));
#72 = CARTESIAN_POINT('',(36.63662,79.323693,3.5522785));
#73 = CARTESIAN_POINT('',(-0.44085169,76.596504,19.600131));
#74 = CARTESIAN_POINT('',(6.6451984,76.596504,19.645015));
#75 = CARTESIAN_POINT('',(13.736732,76.596504,18.824174));
#76 = CARTESIAN_POINT('',(20.701549,76.596504,17.136768));
#77 = CARTESIAN_POINT('',(27.40721,76.596504,14.608897));
#78 = CARTESIAN_POINT('',(33.729574,76.596504,11.293577));
#79 = CARTESIAN_POINT('',(39.559871,76.596504,7.2659518));
#80 = CARTESIAN_POINT('',(6.0840222E-14,67.495938,18.629442));
#81 = CARTESIAN_POINT('',(6.9872234,67.495938,18.629442));
#82 = CARTESIAN_POINT('',(13.974447,67.495938,17.775792));
#83 = CARTESIAN_POINT('',(20.831314,67.495938,16.068488));
#84 = CARTESIAN_POINT('',(27.4274,67.495938,13.534092));
#85 = CARTESIAN_POINT('',(33.640632,67.495938,10.225654));
#86 = CARTESIAN_POINT('',(39.364231,67.495938,6.2179476));
#87 = CARTESIAN_POINT('',(1.5026869E-13,55.93159,14.725702));
#88 = CARTESIAN_POINT('',(6.5897802,55.93159,14.725702));
#89 = CARTESIAN_POINT('',(13.17956,55.93159,13.920609));
#90 = CARTESIAN_POINT('',(19.646399,55.93159,12.310418));
#91 = CARTESIAN_POINT('',(25.867291,55.93159,9.9201825));
#92 = CARTESIAN_POINT('',(31.727106,55.93159,6.7999339));
#93 = CARTESIAN_POINT('',(37.125138,55.93159,3.0201912));
#94 = CARTESIAN_POINT('',(3.4172665E-13,48.659876,7.3803727));
#95 = CARTESIAN_POINT('',(5.8419458,48.659876,7.3803727));
#96 = CARTESIAN_POINT('',(11.683892,48.659876,6.6666444));
#97 = CARTESIAN_POINT('',(17.416848,48.659876,5.239185));
#98 = CARTESIAN_POINT('',(22.931768,48.659876,3.1202025));
#99 = CARTESIAN_POINT('',(28.126588,48.659876,0.35405207));
#100 = CARTESIAN_POINT('',(32.91203,48.659876,-2.9967504));
#101 = DEFINITIONAL_REPRESENTATION('',(#102),#109);
#102 = B_SPLINE_CURVE_WITH_KNOTS('',5,(#103,#104,#105,#106,#107,#108),
  .UNSPECIFIED.,.F.,.F.,(6,6),(0.,1.),.PIECEWISE_BEZIER_KNOTS.);
#103 = CARTESIAN_POINT('',(1.,0.85684918));
#104 = CARTESIAN_POINT('',(0.96197373,0.85639518));
#105 = CARTESIAN_POINT('',(0.92471392,0.85539333));
#106 = CARTESIAN_POINT('',(0.8872719,0.85361595));
#107 = CARTESIAN_POINT('',(0.8482924,0.85335181));
#108 = CARTESIAN_POINT('',(0.80452005,0.85425262));
#109 = ( GEOMETRIC_REPRESENTATION_CONTEXT(2) 
PARAMETRIC_REPRESENTATION_CONTEXT() REPRESENTATION_CONTEXT('2D SPACE',''
  ) );
#110 = PCURVE('',#111,#161);
#111 = B_SPLINE_SURFACE_WITH_KNOTS('',6,6,(
    (#112,#113,#114,#115,#116,#117,#118)
    ,(#119,#120,#121,#122,#123,#124,#125)
    ,(#126,#127,#128,#129,#130,#131,#132)
    ,(#133,#134,#135,#136,#137,#138,#139)
    ,(#140,#141,#142,#143,#144,#145,#146)
    ,(#147,#148,#149,#150,#151,#152,#153)
    ,(#154,#155,#156,#157,#158,#159,#160
    )),.UNSPECIFIED.,.F.,.F.,.F.,(7,7),(7,7),(0.,1.),(0.,1.),
  .PIECEWISE_BEZIER_KNOTS.);
#112 = CARTESIAN_POINT('',(42.08527,46.550416,22.893825));
#113 = CARTESIAN_POINT('',(40.221061,56.737599,19.664921));
#114 = CARTESIAN_POINT('',(38.356853,66.924781,16.436018));
#115 = CARTESIAN_POINT('',(36.492644,77.111963,13.207114));
#116 = CARTESIAN_POINT('',(34.628436,87.299145,9.9782097));
#117 = CARTESIAN_POINT('',(32.764227,97.486327,6.7493058));
#118 = CARTESIAN_POINT('',(30.900018,107.67351,3.5204019));
#119 = CARTESIAN_POINT('',(37.460938,46.022674,14.884248));
#120 = CARTESIAN_POINT('',(35.716904,56.359928,11.863492));
#121 = CARTESIAN_POINT('',(33.972869,66.697182,8.8427359));
#122 = CARTESIAN_POINT('',(32.228835,77.034436,5.8219799));
#123 = CARTESIAN_POINT('',(30.484801,87.37169,2.8012239));
#124 = CARTESIAN_POINT('',(28.740767,97.708945,-0.21953207));
#125 = CARTESIAN_POINT('',(26.996732,108.0462,-3.2402881));
#126 = CARTESIAN_POINT('',(32.836606,45.494932,6.8746705));
#127 = CARTESIAN_POINT('',(31.212746,55.982258,4.0620624));
#128 = CARTESIAN_POINT('',(29.588886,66.469584,1.2494543));
#129 = CARTESIAN_POINT('',(27.965026,76.95691,-1.5631538));
#130 = CARTESIAN_POINT('',(26.341166,87.444236,-4.3757619));
#131 = CARTESIAN_POINT('',(24.717306,97.931562,-7.1883699));
#132 = CARTESIAN_POINT('',(23.093446,108.41889,-10.000978));
#133 = CARTESIAN_POINT('',(28.212275,44.967189,-1.1349069));
#134 = CARTESIAN_POINT('',(26.708589,55.604587,-3.7393671));
#135 = CARTESIAN_POINT('',(25.204903,66.241985,-6.3438273));
#136 = CARTESIAN_POINT('',(16.654251,75.030718,1.1725942));
#137 = CARTESIAN_POINT('',(22.197532,87.516781,-11.552748));
#138 = CARTESIAN_POINT('',(20.693846,98.154179,-14.157208));
#139 = CARTESIAN_POINT('',(19.19016,108.79158,-16.761668));
#140 = CARTESIAN_POINT('',(23.587943,44.439447,-9.1444844));
#141 = CARTESIAN_POINT('',(22.204431,55.226917,-11.540797));
#142 = CARTESIAN_POINT('',(20.82092,66.014386,-13.937109));
#143 = CARTESIAN_POINT('',(19.437408,76.801856,-16.333421));
#144 = CARTESIAN_POINT('',(18.053897,87.589326,-18.729733));
#145 = CARTESIAN_POINT('',(16.670385,98.376796,-21.126046));
#146 = CARTESIAN_POINT('',(15.286874,109.16427,-23.522358));
#147 = CARTESIAN_POINT('',(18.963611,43.911704,-17.154062));
#148 = CARTESIAN_POINT('',(17.700274,54.849246,-19.342226));
#149 = CARTESIAN_POINT('',(16.436937,65.786788,-21.530391));
#150 = CARTESIAN_POINT('',(15.173599,76.724329,-23.718555));
#151 = CARTESIAN_POINT('',(13.910262,87.661871,-25.906719));
#152 = CARTESIAN_POINT('',(12.646925,98.599413,-28.094884));
#153 = CARTESIAN_POINT('',(11.383588,109.53695,-30.283048));
#154 = CARTESIAN_POINT('',(14.33928,43.383962,-25.163639));
#155 = CARTESIAN_POINT('',(13.196117,54.471575,-27.143656));
#156 = CARTESIAN_POINT('',(12.052954,65.559189,-29.123672));
#157 = CARTESIAN_POINT('',(10.90979,76.646803,-31.103689));
#158 = CARTESIAN_POINT('',(9.7666275,87.734416,-33.083705));
#159 = CARTESIAN_POINT('',(8.6234645,98.82203,-35.063721));
#160 = CARTESIAN_POINT('',(7.4803014,109.90964,-37.043738));
#161 = DEFINITIONAL_REPRESENTATION('',(#162),#169);
#162 = B_SPLINE_CURVE_WITH_KNOTS('',5,(#163,#164,#165,#166,#167,#168),
  .UNSPECIFIED.,.F.,.F.,(6,6),(0.,1.),.PIECEWISE_BEZIER_KNOTS.);
#163 = CARTESIAN_POINT('',(0.46424828,5.6280306E-02));
#164 = CARTESIAN_POINT('',(0.41291982,8.8778681E-02));
#165 = CARTESIAN_POINT('',(0.36593615,0.12803673));
#166 = CARTESIAN_POINT('',(0.32321267,0.17027262));
#167 = CARTESIAN_POINT('',(0.28294408,0.21531187));
#168 = CARTESIAN_POINT('',(0.24839642,0.26267274));
#169 = ( GEOMETRIC_REPRESENTATION_CONTEXT(2) 
PARAMETRIC_REPRESENTATION_CONTEXT() REPRESENTATION_CONTEXT('2D SPACE',''
  ) );
#170 = ORIENTED_EDGE('',*,*,#171,.T.);
#171 = EDGE_CURVE('',#24,#172,#174,.T.);
#172 = VERTEX_POINT('',#173);
#173 = CARTESIAN_POINT('',(30.805261,76.494185,4.0392644));
#174 = SURFACE_CURVE('',#175,(#188,#202),.PCURVE_S1.);
#175 = B_SPLINE_CURVE_WITH_KNOTS('',11,(#176,#177,#178,#179,#180,#181,
    #182,#183,#184,#185,#186,#187),.UNSPECIFIED.,.F.,.F.,(12,12),(0.,1.)
  ,.PIECEWISE_BEZIER_KNOTS.);
#176 = CARTESIAN_POINT('',(32.404223,62.136796,6.547954));
#177 = CARTESIAN_POINT('',(32.600258,63.507869,6.9007109));
#178 = CARTESIAN_POINT('',(32.764476,64.899555,7.1870651));
#179 = CARTESIAN_POINT('',(32.892172,66.319733,7.3990198));
#180 = CARTESIAN_POINT('',(32.968354,67.722882,7.5176917));
#181 = CARTESIAN_POINT('',(33.00415,69.227606,7.5565334));
#182 = CARTESIAN_POINT('',(32.913803,70.583063,7.39771));
#183 = CARTESIAN_POINT('',(32.808552,72.11199,7.2058408));
#184 = CARTESIAN_POINT('',(32.444624,73.466383,6.6044205));
#185 = CARTESIAN_POINT('',(31.982813,74.628788,5.8668977));
#186 = CARTESIAN_POINT('',(31.423075,75.625897,4.9916376));
#187 = CARTESIAN_POINT('',(30.805261,76.494185,4.0392644));
#188 = PCURVE('',#37,#189);
#189 = DEFINITIONAL_REPRESENTATION('',(#190),#201);
#190 = B_SPLINE_CURVE_WITH_KNOTS('',9,(#191,#192,#193,#194,#195,#196,
    #197,#198,#199,#200),.UNSPECIFIED.,.F.,.F.,(10,10),(0.,1.),
  .PIECEWISE_BEZIER_KNOTS.);
#191 = CARTESIAN_POINT('',(0.80452005,0.85425262));
#192 = CARTESIAN_POINT('',(0.78020208,0.85475307));
#193 = CARTESIAN_POINT('',(0.75443963,0.85558507));
#194 = CARTESIAN_POINT('',(0.72762669,0.85666672));
#195 = CARTESIAN_POINT('',(0.69608976,0.85811315));
#196 = CARTESIAN_POINT('',(0.66640474,0.85914296));
#197 = CARTESIAN_POINT('',(0.62640871,0.86070825));
#198 = CARTESIAN_POINT('',(0.5851775,0.86093392));
#199 = CARTESIAN_POINT('',(0.54531603,0.86010362));
#200 = CARTESIAN_POINT('',(0.50700107,0.85830149));
#201 = ( GEOMETRIC_REPRESENTATION_CONTEXT(2) 
PARAMETRIC_REPRESENTATION_CONTEXT() REPRESENTATION_CONTEXT('2D SPACE',''
  ) );
#202 = PCURVE('',#111,#203);
#203 = DEFINITIONAL_REPRESENTATION('',(#204),#215);
#204 = B_SPLINE_CURVE_WITH_KNOTS('',9,(#205,#206,#207,#208,#209,#210,
    #211,#212,#213,#214),.UNSPECIFIED.,.F.,.F.,(10,10),(0.,1.),
  .PIECEWISE_BEZIER_KNOTS.);
#205 = CARTESIAN_POINT('',(0.24839642,0.26267274));
#206 = CARTESIAN_POINT('',(0.22920328,0.28898434));
#207 = CARTESIAN_POINT('',(0.21166699,0.31598511));
#208 = CARTESIAN_POINT('',(0.1957984,0.34327463));
#209 = CARTESIAN_POINT('',(0.18359238,0.37228234));
#210 = CARTESIAN_POINT('',(0.17424991,0.39875652));
#211 = CARTESIAN_POINT('',(0.1697892,0.43019076));
#212 = CARTESIAN_POINT('',(0.17998243,0.45463618));
#213 = CARTESIAN_POINT('',(0.19609836,0.4752147));
#214 = CARTESIAN_POINT('',(0.21684592,0.49260999));
#215 = ( GEOMETRIC_REPRESENTATION_CONTEXT(2) 
PARAMETRIC_REPRESENTATION_CONTEXT() REPRESENTATION_CONTEXT('2D SPACE',''
  ) );
#216 = ORIENTED_EDGE('',*,*,#217,.T.);
#217 = EDGE_CURVE('',#172,#218,#220,.T.);
#218 = VERTEX_POINT('',#219);
#219 = CARTESIAN_POINT('',(24.054514,85.471121,-6.7520763));
#220 = SURFACE_CURVE('',#221,(#232,#243),.PCURVE_S1.);
#221 = B_SPLINE_CURVE_WITH_KNOTS('',9,(#222,#223,#224,#225,#226,#227,
    #228,#229,#230,#231),.UNSPECIFIED.,.F.,.F.,(10,10),(0.,1.),
  .PIECEWISE_BEZIER_KNOTS.);
#222 = CARTESIAN_POINT('',(30.805261,76.494185,4.0392644));
#223 = CARTESIAN_POINT('',(30.050154,77.555426,2.8752527));
#224 = CARTESIAN_POINT('',(29.203907,78.41943,1.589512));
#225 = CARTESIAN_POINT('',(28.331468,79.164465,0.27878015));
#226 = CARTESIAN_POINT('',(27.460222,79.917376,-1.0358169));
#227 = CARTESIAN_POINT('',(26.616705,80.714644,-2.3329681));
#228 = CARTESIAN_POINT('',(25.814407,81.640857,-3.6151996));
#229 = CARTESIAN_POINT('',(25.110253,82.761511,-4.8019252));
#230 = CARTESIAN_POINT('',(24.523318,84.049165,-5.8522514));
#231 = CARTESIAN_POINT('',(24.054514,85.471121,-6.7520763));
#232 = PCURVE('',#37,#233);
#233 = DEFINITIONAL_REPRESENTATION('',(#234),#242);
#234 = B_SPLINE_CURVE_WITH_KNOTS('',6,(#235,#236,#237,#238,#239,#240,
    #241),.UNSPECIFIED.,.F.,.F.,(7,7),(0.,1.),.PIECEWISE_BEZIER_KNOTS.);
#235 = CARTESIAN_POINT('',(0.50700107,0.85830149));
#236 = CARTESIAN_POINT('',(0.44952864,0.8555983));
#237 = CARTESIAN_POINT('',(0.39600311,0.85054686));
#238 = CARTESIAN_POINT('',(0.34799603,0.84401775));
#239 = CARTESIAN_POINT('',(0.2975763,0.83772903));
#240 = CARTESIAN_POINT('',(0.24978922,0.83471558));
#241 = CARTESIAN_POINT('',(0.206015,0.8345122));
#242 = ( GEOMETRIC_REPRESENTATION_CONTEXT(2) 
PARAMETRIC_REPRESENTATION_CONTEXT() REPRESENTATION_CONTEXT('2D SPACE',''
  ) );
#243 = PCURVE('',#111,#244);
#244 = DEFINITIONAL_REPRESENTATION('',(#245),#254);
#245 = B_SPLINE_CURVE_WITH_KNOTS('',7,(#246,#247,#248,#249,#250,#251,
    #252,#253),.UNSPECIFIED.,.F.,.F.,(8,8),(0.,1.),
  .PIECEWISE_BEZIER_KNOTS.);
#246 = CARTESIAN_POINT('',(0.21684592,0.49260999));
#247 = CARTESIAN_POINT('',(0.24352137,0.51497535));
#248 = CARTESIAN_POINT('',(0.27797657,0.5318447));
#249 = CARTESIAN_POINT('',(0.31314009,0.54682565));
#250 = CARTESIAN_POINT('',(0.34759387,0.56296034));
#251 = CARTESIAN_POINT('',(0.37881454,0.58314389));
#252 = CARTESIAN_POINT('',(0.40158796,0.608394));
#253 = CARTESIAN_POINT('',(0.41638036,0.63703112));
#254 = ( GEOMETRIC_REPRESENTATION_CONTEXT(2) 
PARAMETRIC_REPRESENTATION_CONTEXT() REPRESENTATION_CONTEXT('2D SPACE',''
  ) );
#255 = ORIENTED_EDGE('',*,*,#256,.T.);
#256 = EDGE_CURVE('',#218,#257,#259,.T.);
#257 = VERTEX_POINT('',#258);
#258 = CARTESIAN_POINT('',(22.948408,100.51025,-10.089394));
#259 = SURFACE_CURVE('',#260,(#269,#280),.PCURVE_S1.);
#260 = B_SPLINE_CURVE_WITH_KNOTS('',7,(#261,#262,#263,#264,#265,#266,
    #267,#268),.UNSPECIFIED.,.F.,.F.,(8,8),(0.,1.),
  .PIECEWISE_BEZIER_KNOTS.);
#261 = CARTESIAN_POINT('',(24.054514,85.471121,-6.7520763));
#262 = CARTESIAN_POINT('',(23.451767,87.29935,-7.908994));
#263 = CARTESIAN_POINT('',(23.051208,89.358735,-8.8088254));
#264 = CARTESIAN_POINT('',(22.857561,91.558978,-9.4100051));
#265 = CARTESIAN_POINT('',(22.783114,93.773004,-9.8131457));
#266 = CARTESIAN_POINT('',(22.792466,96.020031,-10.046727));
#267 = CARTESIAN_POINT('',(22.850808,98.266854,-10.133277));
#268 = CARTESIAN_POINT('',(22.948408,100.51025,-10.089394));
#269 = PCURVE('',#37,#270);
#270 = DEFINITIONAL_REPRESENTATION('',(#271),#279);
#271 = B_SPLINE_CURVE_WITH_KNOTS('',6,(#272,#273,#274,#275,#276,#277,
    #278),.UNSPECIFIED.,.F.,.F.,(7,7),(0.,1.),.PIECEWISE_BEZIER_KNOTS.);
#272 = CARTESIAN_POINT('',(0.206015,0.8345122));
#273 = CARTESIAN_POINT('',(0.16224078,0.83430882));
#274 = CARTESIAN_POINT('',(0.1224487,0.83695075));
#275 = CARTESIAN_POINT('',(8.8323969E-02,0.84208843));
#276 = CARTESIAN_POINT('',(5.7022306E-02,0.84747062));
#277 = CARTESIAN_POINT('',(2.7944333E-02,0.85164591));
#278 = CARTESIAN_POINT('',(1.436260832488E-11,0.85424847));
#279 = ( GEOMETRIC_REPRESENTATION_CONTEXT(2) 
PARAMETRIC_REPRESENTATION_CONTEXT() REPRESENTATION_CONTEXT('2D SPACE',''
  ) );
#280 = PCURVE('',#111,#281);
#281 = DEFINITIONAL_REPRESENTATION('',(#282),#290);
#282 = B_SPLINE_CURVE_WITH_KNOTS('',6,(#283,#284,#285,#286,#287,#288,
    #289),.UNSPECIFIED.,.F.,.F.,(7,7),(0.,1.),.PIECEWISE_BEZIER_KNOTS.);
#283 = CARTESIAN_POINT('',(0.41638036,0.63703112));
#284 = CARTESIAN_POINT('',(0.43363816,0.6704411));
#285 = CARTESIAN_POINT('',(0.4395493,0.70878187));
#286 = CARTESIAN_POINT('',(0.43422145,0.74931121));
#287 = CARTESIAN_POINT('',(0.42367616,0.79003489));
#288 = CARTESIAN_POINT('',(0.40815418,0.83148056));
#289 = CARTESIAN_POINT('',(0.38880049,0.87316152));
#290 = ( GEOMETRIC_REPRESENTATION_CONTEXT(2) 
PARAMETRIC_REPRESENTATION_CONTEXT() REPRESENTATION_CONTEXT('2D SPACE',''
  ) );
#291 = ORIENTED_EDGE('',*,*,#292,.T.);
#292 = EDGE_CURVE('',#257,#293,#295,.T.);
#293 = VERTEX_POINT('',#294);
#294 = CARTESIAN_POINT('',(-3.469446951954E-15,100.51025,-3.9621256));
#295 = SURFACE_CURVE('',#296,(#304),.PCURVE_S1.);
#296 = B_SPLINE_CURVE_WITH_KNOTS('',6,(#297,#298,#299,#300,#301,#302,
    #303),.UNSPECIFIED.,.F.,.F.,(7,7),(0.,1.),.PIECEWISE_BEZIER_KNOTS.);
#297 = CARTESIAN_POINT('',(22.948408,100.51025,-10.089394));
#298 = CARTESIAN_POINT('',(19.477311,100.51025,-8.0935301));
#299 = CARTESIAN_POINT('',(15.797913,100.51025,-6.4599309));
#300 = CARTESIAN_POINT('',(11.957476,100.51025,-5.2157717));
#301 = CARTESIAN_POINT('',(8.007992,100.51025,-4.3800072));
#302 = CARTESIAN_POINT('',(4.003996,100.51025,-3.9621256));
#303 = CARTESIAN_POINT('',(-5.3290705E-15,100.51025,-3.9621256));
#304 = PCURVE('',#37,#305);
#305 = DEFINITIONAL_REPRESENTATION('',(#306),#309);
#306 = B_SPLINE_CURVE_WITH_KNOTS('',1,(#307,#308),.UNSPECIFIED.,.F.,.F.,
  (2,2),(0.,1.),.PIECEWISE_BEZIER_KNOTS.);
#307 = CARTESIAN_POINT('',(0.,0.85424847));
#308 = CARTESIAN_POINT('',(0.,0.));
#309 = ( GEOMETRIC_REPRESENTATION_CONTEXT(2) 
PARAMETRIC_REPRESENTATION_CONTEXT() REPRESENTATION_CONTEXT('2D SPACE',''
  ) );
#310 = ORIENTED_EDGE('',*,*,#311,.T.);
#311 = EDGE_CURVE('',#293,#312,#314,.T.);
#312 = VERTEX_POINT('',#313);
#313 = CARTESIAN_POINT('',(3.32932657068E-13,48.659876,7.3803727));
#314 = SURFACE_CURVE('',#315,(#325),.PCURVE_S1.);
#315 = B_SPLINE_CURVE_WITH_KNOTS('',8,(#316,#317,#318,#319,#320,#321,
    #322,#323,#324),.UNSPECIFIED.,.F.,.F.,(9,9),(0.,1.),
  .PIECEWISE_BEZIER_KNOTS.);
#316 = CARTESIAN_POINT('',(0.,100.51025,-3.9621256));
#317 = CARTESIAN_POINT('',(-3.5527137E-15,88.802613,-4.414547));
#318 = CARTESIAN_POINT('',(-4.8560728E-15,79.029214,-1.2453677));
#319 = CARTESIAN_POINT('',(-0.44085169,78.210205,6.1803919));
#320 = CARTESIAN_POINT('',(-0.70536271,79.323693,14.881361));
#321 = CARTESIAN_POINT('',(-0.44085169,76.596504,19.600131));
#322 = CARTESIAN_POINT('',(6.0840222E-14,67.495938,18.629442));
#323 = CARTESIAN_POINT('',(1.5026869E-13,55.93159,14.725702));
#324 = CARTESIAN_POINT('',(3.4172665E-13,48.659876,7.3803727));
#325 = PCURVE('',#37,#326);
#326 = DEFINITIONAL_REPRESENTATION('',(#327),#330);
#327 = B_SPLINE_CURVE_WITH_KNOTS('',1,(#328,#329),.UNSPECIFIED.,.F.,.F.,
  (2,2),(0.,1.),.PIECEWISE_BEZIER_KNOTS.);
#328 = CARTESIAN_POINT('',(0.,0.));
#329 = CARTESIAN_POINT('',(1.,0.));
#330 = ( GEOMETRIC_REPRESENTATION_CONTEXT(2) 
PARAMETRIC_REPRESENTATION_CONTEXT() REPRESENTATION_CONTEXT('2D SPACE',''
  ) );
#331 = ORIENTED_EDGE('',*,*,#332,.T.);
#332 = EDGE_CURVE('',#312,#22,#333,.T.);
#333 = SURFACE_CURVE('',#334,(#342),.PCURVE_S1.);
#334 = B_SPLINE_CURVE_WITH_KNOTS('',6,(#335,#336,#337,#338,#339,#340,
    #341),.UNSPECIFIED.,.F.,.F.,(7,7),(0.,1.),.PIECEWISE_BEZIER_KNOTS.);
#335 = CARTESIAN_POINT('',(3.4364631E-13,48.659876,7.3803727));
#336 = CARTESIAN_POINT('',(5.0056665,48.659876,7.3803727));
#337 = CARTESIAN_POINT('',(10.011333,48.659876,6.8563601));
#338 = CARTESIAN_POINT('',(14.948435,48.659876,5.8083333));
#339 = CARTESIAN_POINT('',(19.748378,48.659876,4.2482628));
#340 = CARTESIAN_POINT('',(24.345787,48.659876,2.2000623));
#341 = CARTESIAN_POINT('',(28.681271,48.659876,-0.30199334));
#342 = PCURVE('',#37,#343);
#343 = DEFINITIONAL_REPRESENTATION('',(#344),#347);
#344 = B_SPLINE_CURVE_WITH_KNOTS('',1,(#345,#346),.UNSPECIFIED.,.F.,.F.,
  (2,2),(0.,1.),.PIECEWISE_BEZIER_KNOTS.);
#345 = CARTESIAN_POINT('',(1.,0.));
#346 = CARTESIAN_POINT('',(1.,0.85684918));
#347 = ( GEOMETRIC_REPRESENTATION_CONTEXT(2) 
PARAMETRIC_REPRESENTATION_CONTEXT() REPRESENTATION_CONTEXT('2D SPACE',''
  ) );
#348 = ADVANCED_FACE('',(#349),#111,.T.);
#349 = FACE_BOUND('',#350,.T.);
#350 = EDGE_LOOP('',(#351,#376,#377,#378,#379,#380,#405));
#351 = ORIENTED_EDGE('',*,*,#352,.F.);
#352 = EDGE_CURVE('',#257,#353,#355,.T.);
#353 = VERTEX_POINT('',#354);
#354 = CARTESIAN_POINT('',(13.665694,100.75437,-26.261248));
#355 = SURFACE_CURVE('',#356,(#370),.PCURVE_S1.);
#356 = B_SPLINE_CURVE_WITH_KNOTS('',12,(#357,#358,#359,#360,#361,#362,
    #363,#364,#365,#366,#367,#368,#369),.UNSPECIFIED.,.F.,.F.,(13,13),(
    0.,1.),.PIECEWISE_BEZIER_KNOTS.);
#357 = CARTESIAN_POINT('',(22.948408,100.51025,-10.089394));
#358 = CARTESIAN_POINT('',(22.167996,100.52958,-11.424689));
#359 = CARTESIAN_POINT('',(21.388526,100.54902,-12.761793));
#360 = CARTESIAN_POINT('',(20.610353,100.56865,-14.101219));
#361 = CARTESIAN_POINT('',(19.83375,100.58855,-15.443358));
#362 = CARTESIAN_POINT('',(19.058869,100.60876,-16.788427));
#363 = CARTESIAN_POINT('',(18.285713,100.62928,-18.136432));
#364 = CARTESIAN_POINT('',(17.514133,100.65007,-19.487158));
#365 = CARTESIAN_POINT('',(16.743824,100.67105,-20.840168));
#366 = CARTESIAN_POINT('',(15.974353,100.69211,-22.19484));
#367 = CARTESIAN_POINT('',(15.205197,100.71311,-23.550421));
#368 = CARTESIAN_POINT('',(14.435807,100.7339,-24.906124));
#369 = CARTESIAN_POINT('',(13.665694,100.75437,-26.261248));
#370 = PCURVE('',#111,#371);
#371 = DEFINITIONAL_REPRESENTATION('',(#372),#375);
#372 = B_SPLINE_CURVE_WITH_KNOTS('',1,(#373,#374),.UNSPECIFIED.,.F.,.F.,
  (2,2),(0.,1.),.PIECEWISE_BEZIER_KNOTS.);
#373 = CARTESIAN_POINT('',(0.38880049,0.87316152));
#374 = CARTESIAN_POINT('',(0.77916512,0.86751271));
#375 = ( GEOMETRIC_REPRESENTATION_CONTEXT(2) 
PARAMETRIC_REPRESENTATION_CONTEXT() REPRESENTATION_CONTEXT('2D SPACE',''
  ) );
#376 = ORIENTED_EDGE('',*,*,#256,.F.);
#377 = ORIENTED_EDGE('',*,*,#217,.F.);
#378 = ORIENTED_EDGE('',*,*,#171,.F.);
#379 = ORIENTED_EDGE('',*,*,#21,.F.);
#380 = ORIENTED_EDGE('',*,*,#381,.T.);
#381 = EDGE_CURVE('',#22,#382,#384,.T.);
#382 = VERTEX_POINT('',#383);
#383 = CARTESIAN_POINT('',(20.489666,57.495748,-14.188973));
#384 = SURFACE_CURVE('',#385,(#399),.PCURVE_S1.);
#385 = B_SPLINE_CURVE_WITH_KNOTS('',12,(#386,#387,#388,#389,#390,#391,
    #392,#393,#394,#395,#396,#397,#398),.UNSPECIFIED.,.F.,.F.,(13,13),(
    0.,1.),.PIECEWISE_BEZIER_KNOTS.);
#386 = CARTESIAN_POINT('',(28.681271,48.659876,-0.30199337));
#387 = CARTESIAN_POINT('',(27.989103,49.380538,-1.4878144));
#388 = CARTESIAN_POINT('',(27.297606,50.103769,-2.6669136));
#389 = CARTESIAN_POINT('',(26.606574,50.829514,-3.8389959));
#390 = CARTESIAN_POINT('',(25.916041,51.557783,-5.0041105));
#391 = CARTESIAN_POINT('',(25.226341,52.288663,-6.1627375));
#392 = CARTESIAN_POINT('',(24.538116,53.022323,-7.315797));
#393 = CARTESIAN_POINT('',(23.85225,53.758994,-8.4645606));
#394 = CARTESIAN_POINT('',(23.169752,54.498941,-9.6104779));
#395 = CARTESIAN_POINT('',(22.491602,55.242422,-10.754954));
#396 = CARTESIAN_POINT('',(21.818597,55.989644,-11.899134));
#397 = CARTESIAN_POINT('',(21.151235,56.74074,-13.043736));
#398 = CARTESIAN_POINT('',(20.489666,57.495748,-14.188973));
#399 = PCURVE('',#111,#400);
#400 = DEFINITIONAL_REPRESENTATION('',(#401),#404);
#401 = B_SPLINE_CURVE_WITH_KNOTS('',1,(#402,#403),.UNSPECIFIED.,.F.,.F.,
  (2,2),(0.,1.),.PIECEWISE_BEZIER_KNOTS.);
#402 = CARTESIAN_POINT('',(0.46424828,5.6280306E-02));
#403 = CARTESIAN_POINT('',(0.71527631,0.20368359));
#404 = ( GEOMETRIC_REPRESENTATION_CONTEXT(2) 
PARAMETRIC_REPRESENTATION_CONTEXT() REPRESENTATION_CONTEXT('2D SPACE',''
  ) );
#405 = ORIENTED_EDGE('',*,*,#406,.F.);
#406 = EDGE_CURVE('',#353,#382,#407,.T.);
#407 = SURFACE_CURVE('',#408,(#422),.PCURVE_S1.);
#408 = B_SPLINE_CURVE_WITH_KNOTS('',12,(#409,#410,#411,#412,#413,#414,
    #415,#416,#417,#418,#419,#420,#421),.UNSPECIFIED.,.F.,.F.,(13,13),(
    0.,1.),.PIECEWISE_BEZIER_KNOTS.);
#409 = CARTESIAN_POINT('',(13.665694,100.75437,-26.261248));
#410 = CARTESIAN_POINT('',(14.201449,97.125767,-25.256402));
#411 = CARTESIAN_POINT('',(14.723286,93.496257,-24.222762));
#412 = CARTESIAN_POINT('',(15.230609,89.865681,-23.159468));
#413 = CARTESIAN_POINT('',(15.730489,86.235896,-22.076676));
#414 = CARTESIAN_POINT('',(16.235368,82.610164,-20.992257));
#415 = CARTESIAN_POINT('',(16.759552,78.992239,-19.926755));
#416 = CARTESIAN_POINT('',(17.315074,75.385278,-18.897453));
#417 = CARTESIAN_POINT('',(17.907804,71.79082,-17.912782));
#418 = CARTESIAN_POINT('',(18.534905,68.208121,-16.968666));
#419 = CARTESIAN_POINT('',(19.184814,64.634147,-16.048499));
#420 = CARTESIAN_POINT('',(19.840887,61.064533,-15.128378));
#421 = CARTESIAN_POINT('',(20.489666,57.495748,-14.188973));
#422 = PCURVE('',#111,#423);
#423 = DEFINITIONAL_REPRESENTATION('',(#424),#427);
#424 = B_SPLINE_CURVE_WITH_KNOTS('',1,(#425,#426),.UNSPECIFIED.,.F.,.F.,
  (2,2),(0.,1.),.PIECEWISE_BEZIER_KNOTS.);
#425 = CARTESIAN_POINT('',(0.77916512,0.86751271));
#426 = CARTESIAN_POINT('',(0.71527631,0.20368359));
#427 = ( GEOMETRIC_REPRESENTATION_CONTEXT(2) 
PARAMETRIC_REPRESENTATION_CONTEXT() REPRESENTATION_CONTEXT('2D SPACE',''
  ) );
#428 = ( GEOMETRIC_REPRESENTATION_CONTEXT(3) 
GLOBAL_UNCERTAINTY_ASSIGNED_CONTEXT((#432)) GLOBAL_UNIT_ASSIGNED_CONTEXT
((#429,#430,#431)) REPRESENTATION_CONTEXT('Context #1',
  '3D Context with UNIT and UNCERTAINTY') );
#429 = ( LENGTH_UNIT() NAMED_UNIT(*) SI_UNIT(.MILLI.,.METRE.) );
#430 = ( NAMED_UNIT(*) PLANE_ANGLE_UNIT() SI_UNIT($,.RADIAN.) );
#431 = ( NAMED_UNIT(*) SI_UNIT($,.STERADIAN.) SOLID_ANGLE_UNIT() );
#432 = UNCERTAINTY_MEASURE_WITH_UNIT(LENGTH_MEASURE(1.E-03),#429,
  'distance_accuracy_value','confusion accuracy');
#433 = PRODUCT_RELATED_PRODUCT_CATEGORY('part',$,(#7));
ENDSEC;
END-ISO-10303-21;
