ISO-10303-21;
HEADER;
FILE_DESCRIPTION(('Open CASCADE Model'),'2;1');
FILE_NAME('Open CASCADE Shape Model','2026-07-11T20:16:03',('Author'),(
    'Open CASCADE'),'Open CASCADE STEP processor 8.0','Open CASCADE 8.0'
  ,'Unknown');
FILE_SCHEMA(('AUTOMOTIVE_DESIGN { 1 0 10303 214 1 1 1 1 }'));
ENDSEC;
DATA;
#1 = APPLICATION_PROTOCOL_DEFINITION('international standard',
  'automotive_design',2000,#2);
#2 = APPLICATION_CONTEXT(
  'core data for automotive mechanical design processes');
#3 = SHAPE_DEFINITION_REPRESENTATION(#4,#10);
#4 = PRODUCT_DEFINITION_SHAPE('','',#5);
#5 = PRODUCT_DEFINITION('design','',#6,#9);
#6 = PRODUCT_DEFINITION_FORMATION('','',#7);
#7 = PRODUCT('Open CASCADE STEP translator 8.0 1',
  'Open CASCADE STEP translator 8.0 1','',(#8));
#8 = PRODUCT_CONTEXT('',#2,'mechanical');
#9 = PRODUCT_DEFINITION_CONTEXT('part definition',#2,'design');
#10 = MANIFOLD_SURFACE_SHAPE_REPRESENTATION('',(#11,#15),#1422);
#11 = AXIS2_PLACEMENT_3D('',#12,#13,#14);
#12 = CARTESIAN_POINT('',(0.,0.,0.));
#13 = DIRECTION('',(0.,0.,1.));
#14 = DIRECTION('',(1.,0.,-0.));
#15 = SHELL_BASED_SURFACE_MODEL('',(#16));
#16 = OPEN_SHELL('',(#17,#293,#441,#583,#730,#876,#1020,#1241,#1317,
    #1392));
#17 = ADVANCED_FACE('',(#18),#38,.T.);
#18 = FACE_BOUND('',#19,.T.);
#19 = EDGE_LOOP('',(#20,#107,#126,#206));
#20 = ORIENTED_EDGE('',*,*,#21,.T.);
#21 = EDGE_CURVE('',#22,#24,#26,.T.);
#22 = VERTEX_POINT('',#23);
#23 = CARTESIAN_POINT('',(-1.7997329E-02,55.322583,12.302704));
#24 = VERTEX_POINT('',#25);
#25 = CARTESIAN_POINT('',(3.411780948905E-13,48.659876,7.3803727));
#26 = SURFACE_CURVE('',#27,(#37),.PCURVE_S1.);
#27 = B_SPLINE_CURVE_WITH_KNOTS('',8,(#28,#29,#30,#31,#32,#33,#34,#35,
    #36),.UNSPECIFIED.,.F.,.F.,(9,9),(0.,1.),.PIECEWISE_BEZIER_KNOTS.);
#28 = CARTESIAN_POINT('',(-1.7997329E-02,55.322583,12.302704));
#29 = CARTESIAN_POINT('',(-1.199822E-02,54.425727,11.807304));
#30 = CARTESIAN_POINT('',(-7.3084394E-03,53.53615,11.27706));
#31 = CARTESIAN_POINT('',(-3.8927204E-03,52.658892,10.712409));
#32 = CARTESIAN_POINT('',(-1.6576024E-03,51.799379,10.113717));
#33 = CARTESIAN_POINT('',(-4.4085169E-04,50.963413,9.4812324));
#34 = CARTESIAN_POINT('',(3.040194E-13,50.157145,8.8150227));
#35 = CARTESIAN_POINT('',(3.2208622E-13,49.387047,8.1149056));
#36 = CARTESIAN_POINT('',(3.4118118E-13,48.659876,7.3803727));
#37 = PCURVE('',#38,#102);
#38 = B_SPLINE_SURFACE_WITH_KNOTS('',8,6,(
    (#39,#40,#41,#42,#43,#44,#45)
    ,(#46,#47,#48,#49,#50,#51,#52)
    ,(#53,#54,#55,#56,#57,#58,#59)
    ,(#60,#61,#62,#63,#64,#65,#66)
    ,(#67,#68,#69,#70,#71,#72,#73)
    ,(#74,#75,#76,#77,#78,#79,#80)
    ,(#81,#82,#83,#84,#85,#86,#87)
    ,(#88,#89,#90,#91,#92,#93,#94)
    ,(#95,#96,#97,#98,#99,#100,#101
    )),.UNSPECIFIED.,.F.,.F.,.F.,(9,9),(7,7),(0.,1.),(0.,1.),
  .PIECEWISE_BEZIER_KNOTS.);
#39 = CARTESIAN_POINT('',(32.91203,48.659876,-2.9967504));
#40 = CARTESIAN_POINT('',(28.126588,48.659876,0.35405207));
#41 = CARTESIAN_POINT('',(22.931768,48.659876,3.1202025));
#42 = CARTESIAN_POINT('',(17.416848,48.659876,5.239185));
#43 = CARTESIAN_POINT('',(11.683892,48.659876,6.6666444));
#44 = CARTESIAN_POINT('',(5.8419458,48.659876,7.3803727));
#45 = CARTESIAN_POINT('',(3.3661962E-13,48.659876,7.3803727));
#46 = CARTESIAN_POINT('',(33.33334,49.387047,-2.3950562));
#47 = CARTESIAN_POINT('',(28.48664,49.387047,0.99864025));
#48 = CARTESIAN_POINT('',(23.22532,49.387047,3.8002005));
#49 = CARTESIAN_POINT('',(17.639803,49.387047,5.9463084));
#50 = CARTESIAN_POINT('',(11.833459,49.387047,7.3920408));
#51 = CARTESIAN_POINT('',(5.9167293,49.387047,8.1149056));
#52 = CARTESIAN_POINT('',(3.126388E-13,49.387047,8.1149056));
#53 = CARTESIAN_POINT('',(33.734911,50.157145,-1.8215539));
#54 = CARTESIAN_POINT('',(28.829821,50.157145,1.6130268));
#55 = CARTESIAN_POINT('',(23.505119,50.157145,4.4483378));
#56 = CARTESIAN_POINT('',(17.852312,50.157145,6.6203001));
#57 = CARTESIAN_POINT('',(11.976018,50.157145,8.0834494));
#58 = CARTESIAN_POINT('',(5.9880088,50.157145,8.8150227));
#59 = CARTESIAN_POINT('',(3.0020431E-13,50.157145,8.8150227));
#60 = CARTESIAN_POINT('',(34.116672,50.963413,-1.275574));
#61 = CARTESIAN_POINT('',(29.155996,50.963413,2.1978741));
#62 = CARTESIAN_POINT('',(23.770958,50.963413,5.0652614));
#63 = CARTESIAN_POINT('',(18.054104,50.963413,7.2617835));
#64 = CARTESIAN_POINT('',(12.111237,50.963413,8.7414622));
#65 = CARTESIAN_POINT('',(6.0553953,50.963413,9.4812773));
#66 = CARTESIAN_POINT('',(-4.4085169E-04,50.963413,9.4812324));
#67 = CARTESIAN_POINT('',(34.478454,51.799379,-0.75677527));
#68 = CARTESIAN_POINT('',(29.464958,51.799379,2.7535062));
#69 = CARTESIAN_POINT('',(24.0226,51.799379,5.6512736));
#70 = CARTESIAN_POINT('',(18.244913,51.799379,7.8710356));
#71 = CARTESIAN_POINT('',(12.238823,51.799379,9.3663271));
#72 = CARTESIAN_POINT('',(6.1185724,51.799379,10.113886));
#73 = CARTESIAN_POINT('',(-1.6576024E-03,51.799379,10.113717));
#74 = CARTESIAN_POINT('',(34.820018,52.658892,-0.26507357));
#75 = CARTESIAN_POINT('',(29.756462,52.658892,3.2799829));
#76 = CARTESIAN_POINT('',(24.259795,52.658892,6.2064092));
#77 = CARTESIAN_POINT('',(18.424484,52.658892,8.4480653));
#78 = CARTESIAN_POINT('',(12.358522,52.658892,9.9580273));
#79 = CARTESIAN_POINT('',(6.1772906,52.658892,10.712805));
#80 = CARTESIAN_POINT('',(-3.8927204E-03,52.658892,10.712409));
#81 = CARTESIAN_POINT('',(35.141091,53.53615,0.19942119));
#82 = CARTESIAN_POINT('',(30.030244,53.53615,3.7771664));
#83 = CARTESIAN_POINT('',(24.482293,53.53615,6.7305038));
#84 = CARTESIAN_POINT('',(18.592586,53.53615,8.9926835));
#85 = CARTESIAN_POINT('',(12.470124,53.53615,10.516351));
#86 = CARTESIAN_POINT('',(6.2313626,53.53615,11.277804));
#87 = CARTESIAN_POINT('',(-7.3084394E-03,53.53615,11.27706));
#88 = CARTESIAN_POINT('',(35.441385,54.425727,0.63646124));
#89 = CARTESIAN_POINT('',(30.286042,54.425727,4.2447796));
#90 = CARTESIAN_POINT('',(24.689861,54.425727,7.223254));
#91 = CARTESIAN_POINT('',(18.749018,54.425727,9.5045641));
#92 = CARTESIAN_POINT('',(12.573462,54.425727,11.040954));
#93 = CARTESIAN_POINT('',(6.2806574,54.425727,11.808525));
#94 = CARTESIAN_POINT('',(-1.199822E-02,54.425727,11.807304));
#95 = CARTESIAN_POINT('',(35.72062,55.322583,1.04571));
#96 = CARTESIAN_POINT('',(30.523612,55.322583,4.6824575));
#97 = CARTESIAN_POINT('',(24.882291,55.322583,7.6842707));
#98 = CARTESIAN_POINT('',(18.893613,55.322583,9.9832987));
#99 = CARTESIAN_POINT('',(12.668412,55.322583,11.531413));
#100 = CARTESIAN_POINT('',(6.3250953,55.322583,12.304536));
#101 = CARTESIAN_POINT('',(-1.7997329E-02,55.322583,12.302704));
#102 = DEFINITIONAL_REPRESENTATION('',(#103),#106);
#103 = B_SPLINE_CURVE_WITH_KNOTS('',1,(#104,#105),.UNSPECIFIED.,.F.,.F.,
  (2,2),(0.,1.),.PIECEWISE_BEZIER_KNOTS.);
#104 = CARTESIAN_POINT('',(1.,1.));
#105 = CARTESIAN_POINT('',(0.,1.));
#106 = ( GEOMETRIC_REPRESENTATION_CONTEXT(2) 
PARAMETRIC_REPRESENTATION_CONTEXT() REPRESENTATION_CONTEXT('2D SPACE',''
  ) );
#107 = ORIENTED_EDGE('',*,*,#108,.T.);
#108 = EDGE_CURVE('',#24,#109,#111,.T.);
#109 = VERTEX_POINT('',#110);
#110 = CARTESIAN_POINT('',(28.681271,48.659876,-0.30199338));
#111 = SURFACE_CURVE('',#112,(#120),.PCURVE_S1.);
#112 = B_SPLINE_CURVE_WITH_KNOTS('',6,(#113,#114,#115,#116,#117,#118,
    #119),.UNSPECIFIED.,.F.,.F.,(7,7),(0.,1.),.PIECEWISE_BEZIER_KNOTS.);
#113 = CARTESIAN_POINT('',(3.411801E-13,48.659876,7.3803727));
#114 = CARTESIAN_POINT('',(5.0056665,48.659876,7.3803727));
#115 = CARTESIAN_POINT('',(10.011333,48.659876,6.8563601));
#116 = CARTESIAN_POINT('',(14.948435,48.659876,5.8083333));
#117 = CARTESIAN_POINT('',(19.748378,48.659876,4.2482628));
#118 = CARTESIAN_POINT('',(24.345787,48.659876,2.2000623));
#119 = CARTESIAN_POINT('',(28.681271,48.659876,-0.30199338));
#120 = PCURVE('',#38,#121);
#121 = DEFINITIONAL_REPRESENTATION('',(#122),#125);
#122 = B_SPLINE_CURVE_WITH_KNOTS('',1,(#123,#124),.UNSPECIFIED.,.F.,.F.,
  (2,2),(0.,1.),.PIECEWISE_BEZIER_KNOTS.);
#123 = CARTESIAN_POINT('',(0.,1.));
#124 = CARTESIAN_POINT('',(0.,0.14315082));
#125 = ( GEOMETRIC_REPRESENTATION_CONTEXT(2) 
PARAMETRIC_REPRESENTATION_CONTEXT() REPRESENTATION_CONTEXT('2D SPACE',''
  ) );
#126 = ORIENTED_EDGE('',*,*,#127,.T.);
#127 = EDGE_CURVE('',#109,#128,#130,.T.);
#128 = VERTEX_POINT('',#129);
#129 = CARTESIAN_POINT('',(31.050318,55.322583,4.0139333));
#130 = SURFACE_CURVE('',#131,(#138,#147),.PCURVE_S1.);
#131 = B_SPLINE_CURVE_WITH_KNOTS('',5,(#132,#133,#134,#135,#136,#137),
  .UNSPECIFIED.,.F.,.F.,(6,6),(0.,1.),.PIECEWISE_BEZIER_KNOTS.);
#132 = CARTESIAN_POINT('',(28.681271,48.659876,-0.30199333));
#133 = CARTESIAN_POINT('',(29.2645,49.829435,0.72543978));
#134 = CARTESIAN_POINT('',(29.78793,51.108954,1.6614448));
#135 = CARTESIAN_POINT('',(30.254903,52.459937,2.5181507));
#136 = CARTESIAN_POINT('',(30.673918,53.867607,3.3032899));
#137 = CARTESIAN_POINT('',(31.050318,55.322583,4.0139333));
#138 = PCURVE('',#38,#139);
#139 = DEFINITIONAL_REPRESENTATION('',(#140),#146);
#140 = B_SPLINE_CURVE_WITH_KNOTS('',4,(#141,#142,#143,#144,#145),
  .UNSPECIFIED.,.F.,.F.,(5,5),(0.,1.),.PIECEWISE_BEZIER_KNOTS.);
#141 = CARTESIAN_POINT('',(0.,0.14315082));
#142 = CARTESIAN_POINT('',(0.25130752,0.14345085));
#143 = CARTESIAN_POINT('',(0.49921555,0.14402779));
#144 = CARTESIAN_POINT('',(0.74651388,0.14484542));
#145 = CARTESIAN_POINT('',(1.,0.14544803));
#146 = ( GEOMETRIC_REPRESENTATION_CONTEXT(2) 
PARAMETRIC_REPRESENTATION_CONTEXT() REPRESENTATION_CONTEXT('2D SPACE',''
  ) );
#147 = PCURVE('',#148,#198);
#148 = B_SPLINE_SURFACE_WITH_KNOTS('',6,6,(
    (#149,#150,#151,#152,#153,#154,#155)
    ,(#156,#157,#158,#159,#160,#161,#162)
    ,(#163,#164,#165,#166,#167,#168,#169)
    ,(#170,#171,#172,#173,#174,#175,#176)
    ,(#177,#178,#179,#180,#181,#182,#183)
    ,(#184,#185,#186,#187,#188,#189,#190)
    ,(#191,#192,#193,#194,#195,#196,#197
    )),.UNSPECIFIED.,.F.,.F.,.F.,(7,7),(7,7),(0.,1.),(0.,1.),
  .PIECEWISE_BEZIER_KNOTS.);
#149 = CARTESIAN_POINT('',(39.288957,61.83119,18.05047));
#150 = CARTESIAN_POINT('',(34.844887,61.528555,10.353114));
#151 = CARTESIAN_POINT('',(30.400816,61.225921,2.6557584));
#152 = CARTESIAN_POINT('',(25.027703,60.679565,-3.7073013));
#153 = CARTESIAN_POINT('',(21.512676,60.620651,-12.738953));
#154 = CARTESIAN_POINT('',(17.068605,60.318017,-20.436308));
#155 = CARTESIAN_POINT('',(12.624535,60.015382,-28.133664));
#156 = CARTESIAN_POINT('',(39.755009,59.284394,18.857695));
#157 = CARTESIAN_POINT('',(35.280895,58.944242,11.108303));
#158 = CARTESIAN_POINT('',(30.806781,58.604089,3.3589104));
#159 = CARTESIAN_POINT('',(25.713305,58.101456,-3.5009515));
#160 = CARTESIAN_POINT('',(21.858554,57.923784,-12.139875));
#161 = CARTESIAN_POINT('',(17.38444,57.583631,-19.889267));
#162 = CARTESIAN_POINT('',(12.910326,57.243479,-27.63866));
#163 = CARTESIAN_POINT('',(40.221061,56.737599,19.664921));
#164 = CARTESIAN_POINT('',(35.716904,56.359928,11.863492));
#165 = CARTESIAN_POINT('',(31.212746,55.982258,4.0620624));
#166 = CARTESIAN_POINT('',(26.378262,55.517931,-3.2649508));
#167 = CARTESIAN_POINT('',(22.204431,55.226917,-11.540797));
#168 = CARTESIAN_POINT('',(17.700274,54.849246,-19.342226));
#169 = CARTESIAN_POINT('',(13.196117,54.471575,-27.143656));
#170 = CARTESIAN_POINT('',(40.687113,54.190803,20.472147));
#171 = CARTESIAN_POINT('',(36.152912,53.775615,12.618681));
#172 = CARTESIAN_POINT('',(31.618711,53.360426,4.7652144));
#173 = CARTESIAN_POINT('',(26.974401,52.916352,-2.9301133));
#174 = CARTESIAN_POINT('',(22.550309,52.530049,-10.941719));
#175 = CARTESIAN_POINT('',(18.016108,52.114861,-18.795185));
#176 = CARTESIAN_POINT('',(13.481907,51.699672,-26.648652));
#177 = CARTESIAN_POINT('',(41.153165,51.644007,21.279373));
#178 = CARTESIAN_POINT('',(36.588921,51.191301,13.37387));
#179 = CARTESIAN_POINT('',(32.024676,50.738595,5.4683665));
#180 = CARTESIAN_POINT('',(27.460432,50.285888,-2.437137));
#181 = CARTESIAN_POINT('',(22.896187,49.833182,-10.342641));
#182 = CARTESIAN_POINT('',(18.331943,49.380475,-18.248144));
#183 = CARTESIAN_POINT('',(13.767698,48.927769,-26.153647));
#184 = CARTESIAN_POINT('',(41.619218,49.097212,22.086599));
#185 = CARTESIAN_POINT('',(37.024929,48.606987,14.129059));
#186 = CARTESIAN_POINT('',(32.430641,48.116763,6.1715185));
#187 = CARTESIAN_POINT('',(27.836353,47.626539,-1.786022));
#188 = CARTESIAN_POINT('',(23.242065,47.136314,-9.7435624));
#189 = CARTESIAN_POINT('',(18.647777,46.64609,-17.701103));
#190 = CARTESIAN_POINT('',(14.053489,46.155865,-25.658643));
#191 = CARTESIAN_POINT('',(42.08527,46.550416,22.893825));
#192 = CARTESIAN_POINT('',(37.460938,46.022674,14.884248));
#193 = CARTESIAN_POINT('',(32.836606,45.494932,6.8746705));
#194 = CARTESIAN_POINT('',(28.212275,44.967189,-1.1349069));
#195 = CARTESIAN_POINT('',(23.587943,44.439447,-9.1444844));
#196 = CARTESIAN_POINT('',(18.963611,43.911704,-17.154062));
#197 = CARTESIAN_POINT('',(14.33928,43.383962,-25.163639));
#198 = DEFINITIONAL_REPRESENTATION('',(#199),#205);
#199 = B_SPLINE_CURVE_WITH_KNOTS('',4,(#200,#201,#202,#203,#204),
  .UNSPECIFIED.,.F.,.F.,(5,5),(0.,1.),.PIECEWISE_BEZIER_KNOTS.);
#200 = CARTESIAN_POINT('',(0.77487877,0.46424828));
#201 = CARTESIAN_POINT('',(0.68896896,0.4303264));
#202 = CARTESIAN_POINT('',(0.5904917,0.39845725));
#203 = CARTESIAN_POINT('',(0.48479638,0.36845186));
#204 = CARTESIAN_POINT('',(0.37302996,0.34018701));
#205 = ( GEOMETRIC_REPRESENTATION_CONTEXT(2) 
PARAMETRIC_REPRESENTATION_CONTEXT() REPRESENTATION_CONTEXT('2D SPACE',''
  ) );
#206 = ORIENTED_EDGE('',*,*,#207,.T.);
#207 = EDGE_CURVE('',#128,#22,#208,.T.);
#208 = SURFACE_CURVE('',#209,(#217,#223),.PCURVE_S1.);
#209 = B_SPLINE_CURVE_WITH_KNOTS('',6,(#210,#211,#212,#213,#214,#215,
    #216),.UNSPECIFIED.,.F.,.F.,(7,7),(0.,1.),.PIECEWISE_BEZIER_KNOTS.);
#210 = CARTESIAN_POINT('',(35.72062,55.322583,1.04571));
#211 = CARTESIAN_POINT('',(30.523612,55.322583,4.6824575));
#212 = CARTESIAN_POINT('',(24.882291,55.322583,7.6842707));
#213 = CARTESIAN_POINT('',(18.893613,55.322583,9.9832987));
#214 = CARTESIAN_POINT('',(12.668412,55.322583,11.531413));
#215 = CARTESIAN_POINT('',(6.3250953,55.322583,12.304536));
#216 = CARTESIAN_POINT('',(-1.7997329E-02,55.322583,12.302704));
#217 = PCURVE('',#38,#218);
#218 = DEFINITIONAL_REPRESENTATION('',(#219),#222);
#219 = B_SPLINE_CURVE_WITH_KNOTS('',1,(#220,#221),.UNSPECIFIED.,.F.,.F.,
  (2,2),(0.,1.),.PIECEWISE_BEZIER_KNOTS.);
#220 = CARTESIAN_POINT('',(1.,0.14544803));
#221 = CARTESIAN_POINT('',(1.,1.));
#222 = ( GEOMETRIC_REPRESENTATION_CONTEXT(2) 
PARAMETRIC_REPRESENTATION_CONTEXT() REPRESENTATION_CONTEXT('2D SPACE',''
  ) );
#223 = PCURVE('',#224,#288);
#224 = B_SPLINE_SURFACE_WITH_KNOTS('',8,6,(
    (#225,#226,#227,#228,#229,#230,#231)
    ,(#232,#233,#234,#235,#236,#237,#238)
    ,(#239,#240,#241,#242,#243,#244,#245)
    ,(#246,#247,#248,#249,#250,#251,#252)
    ,(#253,#254,#255,#256,#257,#258,#259)
    ,(#260,#261,#262,#263,#264,#265,#266)
    ,(#267,#268,#269,#270,#271,#272,#273)
    ,(#274,#275,#276,#277,#278,#279,#280)
    ,(#281,#282,#283,#284,#285,#286,#287
    )),.UNSPECIFIED.,.F.,.F.,.F.,(9,9),(7,7),(0.,1.),(0.,1.),
  .PIECEWISE_BEZIER_KNOTS.);
#225 = CARTESIAN_POINT('',(35.72062,55.322583,1.04571));
#226 = CARTESIAN_POINT('',(30.523612,55.322583,4.6824575));
#227 = CARTESIAN_POINT('',(24.882291,55.322583,7.6842707));
#228 = CARTESIAN_POINT('',(18.893613,55.322583,9.9832987));
#229 = CARTESIAN_POINT('',(12.668412,55.322583,11.531413));
#230 = CARTESIAN_POINT('',(6.3250953,55.322583,12.304536));
#231 = CARTESIAN_POINT('',(-1.7997329E-02,55.322583,12.302704));
#232 = CARTESIAN_POINT('',(36.139474,56.667867,1.6595831));
#233 = CARTESIAN_POINT('',(30.879966,56.667867,5.3389745));
#234 = CARTESIAN_POINT('',(25.170937,56.667867,8.3757958));
#235 = CARTESIAN_POINT('',(19.110506,56.667867,10.701401));
#236 = CARTESIAN_POINT('',(12.810836,56.667867,12.267103));
#237 = CARTESIAN_POINT('',(6.3917523,56.667867,13.048552));
#238 = CARTESIAN_POINT('',(-2.6995994E-02,56.667867,13.045804));
#239 = CARTESIAN_POINT('',(36.510946,58.02953,2.2109259));
#240 = CARTESIAN_POINT('',(31.195306,58.02953,5.9281372));
#241 = CARTESIAN_POINT('',(25.425523,58.02953,8.9959206));
#242 = CARTESIAN_POINT('',(19.300766,58.02953,11.344924));
#243 = CARTESIAN_POINT('',(12.934388,58.02953,12.925968));
#244 = CARTESIAN_POINT('',(6.4474815,58.02953,13.71447));
#245 = CARTESIAN_POINT('',(-3.894065E-02,58.02953,13.710505));
#246 = CARTESIAN_POINT('',(36.834097,59.390571,2.6986023));
#247 = CARTESIAN_POINT('',(31.468807,59.390571,6.4487139));
#248 = CARTESIAN_POINT('',(25.645353,59.390571,9.5433316));
#249 = CARTESIAN_POINT('',(19.463833,59.390571,11.91249));
#250 = CARTESIAN_POINT('',(13.03865,59.390571,13.506583));
#251 = CARTESIAN_POINT('',(6.4920142,59.390571,14.300831));
#252 = CARTESIAN_POINT('',(-5.3950328E-02,59.390571,14.295338));
#253 = CARTESIAN_POINT('',(37.108032,60.735965,3.121027));
#254 = CARTESIAN_POINT('',(31.699733,60.735965,6.899028));
#255 = CARTESIAN_POINT('',(25.829865,60.735965,10.016281));
#256 = CARTESIAN_POINT('',(19.599325,60.735965,12.402299));
#257 = CARTESIAN_POINT('',(13.123426,60.735965,14.007122));
#258 = CARTESIAN_POINT('',(6.5253414,60.735965,14.805805));
#259 = CARTESIAN_POINT('',(-7.1849458E-02,60.735965,14.79849));
#260 = CARTESIAN_POINT('',(37.332061,62.052801,3.4765377));
#261 = CARTESIAN_POINT('',(31.887568,62.052801,7.2773474));
#262 = CARTESIAN_POINT('',(25.978718,62.052801,10.412987));
#263 = CARTESIAN_POINT('',(19.707085,62.052801,12.812544));
#264 = CARTESIAN_POINT('',(13.188744,62.052801,14.42577));
#265 = CARTESIAN_POINT('',(6.5476742,62.052801,15.227597));
#266 = CARTESIAN_POINT('',(-9.2248217E-02,62.052801,15.218205));
#267 = CARTESIAN_POINT('',(37.505824,63.330353,3.7636897));
#268 = CARTESIAN_POINT('',(32.032096,63.330353,7.5821904));
#269 = CARTESIAN_POINT('',(26.09185,63.330353,10.731949));
#270 = CARTESIAN_POINT('',(19.787204,63.330353,13.141724));
#271 = CARTESIAN_POINT('',(13.234848,63.330353,14.761046));
#272 = CARTESIAN_POINT('',(6.5594048,63.330353,15.564762));
#273 = CARTESIAN_POINT('',(-0.11461283,63.330353,15.553093));
#274 = CARTESIAN_POINT('',(37.629372,64.5601,3.9814765));
#275 = CARTESIAN_POINT('',(32.133471,64.5601,7.8125558));
#276 = CARTESIAN_POINT('',(26.169515,64.5601,10.972184));
#277 = CARTESIAN_POINT('',(19.840036,64.5601,13.388885));
#278 = CARTESIAN_POINT('',(13.262186,64.5601,15.012039));
#279 = CARTESIAN_POINT('',(6.5610697,64.5601,15.816441));
#280 = CARTESIAN_POINT('',(-0.13832583,64.5601,15.802358));
#281 = CARTESIAN_POINT('',(37.70321,65.735705,4.1294855));
#282 = CARTESIAN_POINT('',(32.192239,65.735705,7.9680822));
#283 = CARTESIAN_POINT('',(26.212296,65.735705,11.133387));
#284 = CARTESIAN_POINT('',(19.866193,65.735705,13.553783));
#285 = CARTESIAN_POINT('',(13.27139,65.735705,15.178567));
#286 = CARTESIAN_POINT('',(6.5533148,65.735705,15.98252));
#287 = CARTESIAN_POINT('',(-0.16273627,65.735705,15.965951));
#288 = DEFINITIONAL_REPRESENTATION('',(#289),#292);
#289 = B_SPLINE_CURVE_WITH_KNOTS('',1,(#290,#291),.UNSPECIFIED.,.F.,.F.,
  (2,2),(0.,1.),.PIECEWISE_BEZIER_KNOTS.);
#290 = CARTESIAN_POINT('',(0.,0.14544803));
#291 = CARTESIAN_POINT('',(0.,1.));
#292 = ( GEOMETRIC_REPRESENTATION_CONTEXT(2) 
PARAMETRIC_REPRESENTATION_CONTEXT() REPRESENTATION_CONTEXT('2D SPACE',''
  ) );
#293 = ADVANCED_FACE('',(#294),#148,.T.);
#294 = FACE_BOUND('',#295,.T.);
#295 = EDGE_LOOP('',(#296,#325,#326,#351,#368));
#296 = ORIENTED_EDGE('',*,*,#297,.F.);
#297 = EDGE_CURVE('',#128,#298,#300,.T.);
#298 = VERTEX_POINT('',#299);
#299 = CARTESIAN_POINT('',(32.283267,61.328821,6.3288025));
#300 = SURFACE_CURVE('',#301,(#307,#316),.PCURVE_S1.);
#301 = B_SPLINE_CURVE_WITH_KNOTS('',4,(#302,#303,#304,#305,#306),
  .UNSPECIFIED.,.F.,.F.,(5,5),(0.,1.),.PIECEWISE_BEZIER_KNOTS.);
#302 = CARTESIAN_POINT('',(31.050318,55.322583,4.0139333));
#303 = CARTESIAN_POINT('',(31.421851,56.758737,4.7153892));
#304 = CARTESIAN_POINT('',(31.748701,58.243875,5.339407));
#305 = CARTESIAN_POINT('',(32.039311,59.7683,5.8839686));
#306 = CARTESIAN_POINT('',(32.283267,61.328821,6.3288025));
#307 = PCURVE('',#148,#308);
#308 = DEFINITIONAL_REPRESENTATION('',(#309),#315);
#309 = B_SPLINE_CURVE_WITH_KNOTS('',4,(#310,#311,#312,#313,#314),
  .UNSPECIFIED.,.F.,.F.,(5,5),(0.,1.),.PIECEWISE_BEZIER_KNOTS.);
#310 = CARTESIAN_POINT('',(0.37302996,0.34018701));
#311 = CARTESIAN_POINT('',(0.2847735,0.31786751));
#312 = CARTESIAN_POINT('',(0.19279229,0.29665576));
#313 = CARTESIAN_POINT('',(9.779921E-02,0.27649847));
#314 = CARTESIAN_POINT('',(-4.163336342344E-17,0.25785213));
#315 = ( GEOMETRIC_REPRESENTATION_CONTEXT(2) 
PARAMETRIC_REPRESENTATION_CONTEXT() REPRESENTATION_CONTEXT('2D SPACE',''
  ) );
#316 = PCURVE('',#224,#317);
#317 = DEFINITIONAL_REPRESENTATION('',(#318),#324);
#318 = B_SPLINE_CURVE_WITH_KNOTS('',4,(#319,#320,#321,#322,#323),
  .UNSPECIFIED.,.F.,.F.,(5,5),(0.,1.),.PIECEWISE_BEZIER_KNOTS.);
#319 = CARTESIAN_POINT('',(0.,0.14544803));
#320 = CARTESIAN_POINT('',(0.1334433,0.14592383));
#321 = CARTESIAN_POINT('',(0.26946574,0.14627765));
#322 = CARTESIAN_POINT('',(0.41005869,0.14629231));
#323 = CARTESIAN_POINT('',(0.55892841,0.14595549));
#324 = ( GEOMETRIC_REPRESENTATION_CONTEXT(2) 
PARAMETRIC_REPRESENTATION_CONTEXT() REPRESENTATION_CONTEXT('2D SPACE',''
  ) );
#325 = ORIENTED_EDGE('',*,*,#127,.F.);
#326 = ORIENTED_EDGE('',*,*,#327,.T.);
#327 = EDGE_CURVE('',#109,#328,#330,.T.);
#328 = VERTEX_POINT('',#329);
#329 = CARTESIAN_POINT('',(20.489666,57.495748,-14.188973));
#330 = SURFACE_CURVE('',#331,(#345),.PCURVE_S1.);
#331 = B_SPLINE_CURVE_WITH_KNOTS('',12,(#332,#333,#334,#335,#336,#337,
    #338,#339,#340,#341,#342,#343,#344),.UNSPECIFIED.,.F.,.F.,(13,13),(
    0.,1.),.PIECEWISE_BEZIER_KNOTS.);
#332 = CARTESIAN_POINT('',(28.681271,48.659876,-0.30199334));
#333 = CARTESIAN_POINT('',(27.989103,49.380538,-1.4878143));
#334 = CARTESIAN_POINT('',(27.297606,50.103769,-2.6669136));
#335 = CARTESIAN_POINT('',(26.606574,50.829514,-3.8389959));
#336 = CARTESIAN_POINT('',(25.916041,51.557783,-5.0041105));
#337 = CARTESIAN_POINT('',(25.226341,52.288663,-6.1627375));
#338 = CARTESIAN_POINT('',(24.538116,53.022323,-7.3157969));
#339 = CARTESIAN_POINT('',(23.85225,53.758994,-8.4645606));
#340 = CARTESIAN_POINT('',(23.169752,54.498941,-9.6104779));
#341 = CARTESIAN_POINT('',(22.491602,55.242422,-10.754954));
#342 = CARTESIAN_POINT('',(21.818597,55.989644,-11.899134));
#343 = CARTESIAN_POINT('',(21.151235,56.74074,-13.043736));
#344 = CARTESIAN_POINT('',(20.489666,57.495748,-14.188973));
#345 = PCURVE('',#148,#346);
#346 = DEFINITIONAL_REPRESENTATION('',(#347),#350);
#347 = B_SPLINE_CURVE_WITH_KNOTS('',1,(#348,#349),.UNSPECIFIED.,.F.,.F.,
  (2,2),(0.,1.),.PIECEWISE_BEZIER_KNOTS.);
#348 = CARTESIAN_POINT('',(0.77487878,0.46424828));
#349 = CARTESIAN_POINT('',(0.18526565,0.71527631));
#350 = ( GEOMETRIC_REPRESENTATION_CONTEXT(2) 
PARAMETRIC_REPRESENTATION_CONTEXT() REPRESENTATION_CONTEXT('2D SPACE',''
  ) );
#351 = ORIENTED_EDGE('',*,*,#352,.F.);
#352 = EDGE_CURVE('',#353,#328,#355,.T.);
#353 = VERTEX_POINT('',#354);
#354 = CARTESIAN_POINT('',(19.917273,60.482595,-15.022518));
#355 = SURFACE_CURVE('',#356,(#361),.PCURVE_S1.);
#356 = B_SPLINE_CURVE_WITH_KNOTS('',3,(#357,#358,#359,#360),
  .UNSPECIFIED.,.F.,.F.,(4,4),(0.,1.),.PIECEWISE_BEZIER_KNOTS.);
#357 = CARTESIAN_POINT('',(19.917273,60.482595,-15.022518));
#358 = CARTESIAN_POINT('',(20.108618,59.486928,-14.74441));
#359 = CARTESIAN_POINT('',(20.299788,58.491415,-14.467078));
#360 = CARTESIAN_POINT('',(20.489666,57.495748,-14.188973));
#361 = PCURVE('',#148,#362);
#362 = DEFINITIONAL_REPRESENTATION('',(#363),#367);
#363 = B_SPLINE_CURVE_WITH_KNOTS('',2,(#364,#365,#366),.UNSPECIFIED.,.F.
  ,.F.,(3,3),(0.,1.),.PIECEWISE_BEZIER_KNOTS.);
#364 = CARTESIAN_POINT('',(1.851852E-13,0.72082039));
#365 = CARTESIAN_POINT('',(9.2604804E-02,0.71800682));
#366 = CARTESIAN_POINT('',(0.18526565,0.71527631));
#367 = ( GEOMETRIC_REPRESENTATION_CONTEXT(2) 
PARAMETRIC_REPRESENTATION_CONTEXT() REPRESENTATION_CONTEXT('2D SPACE',''
  ) );
#368 = ORIENTED_EDGE('',*,*,#369,.F.);
#369 = EDGE_CURVE('',#298,#353,#370,.T.);
#370 = SURFACE_CURVE('',#371,(#379,#385),.PCURVE_S1.);
#371 = B_SPLINE_CURVE_WITH_KNOTS('',6,(#372,#373,#374,#375,#376,#377,
    #378),.UNSPECIFIED.,.F.,.F.,(7,7),(0.,1.),.PIECEWISE_BEZIER_KNOTS.);
#372 = CARTESIAN_POINT('',(39.288957,61.83119,18.05047));
#373 = CARTESIAN_POINT('',(34.844887,61.528555,10.353114));
#374 = CARTESIAN_POINT('',(30.400816,61.225921,2.6557584));
#375 = CARTESIAN_POINT('',(25.027703,60.679565,-3.7073013));
#376 = CARTESIAN_POINT('',(21.512676,60.620651,-12.738953));
#377 = CARTESIAN_POINT('',(17.068605,60.318017,-20.436308));
#378 = CARTESIAN_POINT('',(12.624535,60.015382,-28.133664));
#379 = PCURVE('',#148,#380);
#380 = DEFINITIONAL_REPRESENTATION('',(#381),#384);
#381 = B_SPLINE_CURVE_WITH_KNOTS('',1,(#382,#383),.UNSPECIFIED.,.F.,.F.,
  (2,2),(0.,1.),.PIECEWISE_BEZIER_KNOTS.);
#382 = CARTESIAN_POINT('',(0.,0.25785213));
#383 = CARTESIAN_POINT('',(0.,0.72082039));
#384 = ( GEOMETRIC_REPRESENTATION_CONTEXT(2) 
PARAMETRIC_REPRESENTATION_CONTEXT() REPRESENTATION_CONTEXT('2D SPACE',''
  ) );
#385 = PCURVE('',#386,#436);
#386 = B_SPLINE_SURFACE_WITH_KNOTS('',6,6,(
    (#387,#388,#389,#390,#391,#392,#393)
    ,(#394,#395,#396,#397,#398,#399,#400)
    ,(#401,#402,#403,#404,#405,#406,#407)
    ,(#408,#409,#410,#411,#412,#413,#414)
    ,(#415,#416,#417,#418,#419,#420,#421)
    ,(#422,#423,#424,#425,#426,#427,#428)
    ,(#429,#430,#431,#432,#433,#434,#435
    )),.UNSPECIFIED.,.F.,.F.,.F.,(7,7),(7,7),(0.,1.),(0.,1.),
  .PIECEWISE_BEZIER_KNOTS.);
#387 = CARTESIAN_POINT('',(35.094488,84.75235,10.785436));
#388 = CARTESIAN_POINT('',(30.920809,84.787377,3.5564129));
#389 = CARTESIAN_POINT('',(26.747131,84.822404,-3.6726098));
#390 = CARTESIAN_POINT('',(20.758915,84.381415,-8.2955859));
#391 = CARTESIAN_POINT('',(18.399775,84.892459,-18.130655));
#392 = CARTESIAN_POINT('',(14.226096,84.927486,-25.359678));
#393 = CARTESIAN_POINT('',(10.052418,84.962513,-32.588701));
#394 = CARTESIAN_POINT('',(35.793566,80.932156,11.996275));
#395 = CARTESIAN_POINT('',(31.574822,80.910907,4.6891964));
#396 = CARTESIAN_POINT('',(27.356079,80.889657,-2.6178818));
#397 = CARTESIAN_POINT('',(20.95989,80.297187,-6.797704));
#398 = CARTESIAN_POINT('',(18.918592,80.847157,-17.232038));
#399 = CARTESIAN_POINT('',(14.699848,80.825908,-24.539116));
#400 = CARTESIAN_POINT('',(10.481104,80.804658,-31.846195));
#401 = CARTESIAN_POINT('',(36.492644,77.111963,13.207114));
#402 = CARTESIAN_POINT('',(32.228835,77.034436,5.8219799));
#403 = CARTESIAN_POINT('',(27.965026,76.95691,-1.5631538));
#404 = CARTESIAN_POINT('',(21.320544,76.254849,-5.5291542));
#405 = CARTESIAN_POINT('',(19.437408,76.801856,-16.333421));
#406 = CARTESIAN_POINT('',(15.173599,76.724329,-23.718555));
#407 = CARTESIAN_POINT('',(10.90979,76.646803,-31.103689));
#408 = CARTESIAN_POINT('',(37.191722,73.29177,14.417953));
#409 = CARTESIAN_POINT('',(32.882848,73.157966,6.9547634));
#410 = CARTESIAN_POINT('',(28.573974,73.024162,-0.50842573));
#411 = CARTESIAN_POINT('',(21.965717,72.28715,-4.6692325));
#412 = CARTESIAN_POINT('',(19.956225,72.756555,-15.434804));
#413 = CARTESIAN_POINT('',(15.647351,72.622751,-22.897993));
#414 = CARTESIAN_POINT('',(11.338477,72.488948,-30.361182));
#415 = CARTESIAN_POINT('',(37.8908,69.471576,15.628792));
#416 = CARTESIAN_POINT('',(33.536861,69.281496,8.0875469));
#417 = CARTESIAN_POINT('',(29.182921,69.091415,0.5463023));
#418 = CARTESIAN_POINT('',(22.924443,68.401707,-4.2596357));
#419 = CARTESIAN_POINT('',(20.475042,68.711254,-14.536187));
#420 = CARTESIAN_POINT('',(16.121102,68.521173,-22.077432));
#421 = CARTESIAN_POINT('',(11.767163,68.331093,-29.618676));
#422 = CARTESIAN_POINT('',(38.589879,65.651383,16.839631));
#423 = CARTESIAN_POINT('',(34.190874,65.405025,9.2203304));
#424 = CARTESIAN_POINT('',(29.791869,65.158668,1.6010303));
#425 = CARTESIAN_POINT('',(23.999299,64.546729,-4.0168259));
#426 = CARTESIAN_POINT('',(20.993859,64.665953,-13.63757));
#427 = CARTESIAN_POINT('',(16.594854,64.419595,-21.25687));
#428 = CARTESIAN_POINT('',(12.195849,64.173237,-28.87617));
#429 = CARTESIAN_POINT('',(39.288957,61.83119,18.05047));
#430 = CARTESIAN_POINT('',(34.844887,61.528555,10.353114));
#431 = CARTESIAN_POINT('',(30.400816,61.225921,2.6557584));
#432 = CARTESIAN_POINT('',(25.027703,60.679565,-3.7073013));
#433 = CARTESIAN_POINT('',(21.512676,60.620651,-12.738953));
#434 = CARTESIAN_POINT('',(17.068605,60.318017,-20.436308));
#435 = CARTESIAN_POINT('',(12.624535,60.015382,-28.133664));
#436 = DEFINITIONAL_REPRESENTATION('',(#437),#440);
#437 = B_SPLINE_CURVE_WITH_KNOTS('',1,(#438,#439),.UNSPECIFIED.,.F.,.F.,
  (2,2),(0.,1.),.PIECEWISE_BEZIER_KNOTS.);
#438 = CARTESIAN_POINT('',(1.,0.25785213));
#439 = CARTESIAN_POINT('',(1.,0.72082039));
#440 = ( GEOMETRIC_REPRESENTATION_CONTEXT(2) 
PARAMETRIC_REPRESENTATION_CONTEXT() REPRESENTATION_CONTEXT('2D SPACE',''
  ) );
#441 = ADVANCED_FACE('',(#442),#224,.T.);
#442 = FACE_BOUND('',#443,.T.);
#443 = EDGE_LOOP('',(#444,#465,#466,#467,#496));
#444 = ORIENTED_EDGE('',*,*,#445,.T.);
#445 = EDGE_CURVE('',#446,#22,#448,.T.);
#446 = VERTEX_POINT('',#447);
#447 = CARTESIAN_POINT('',(-0.16273627,65.735705,15.965951));
#448 = SURFACE_CURVE('',#449,(#459),.PCURVE_S1.);
#449 = B_SPLINE_CURVE_WITH_KNOTS('',8,(#450,#451,#452,#453,#454,#455,
    #456,#457,#458),.UNSPECIFIED.,.F.,.F.,(9,9),(0.,1.),
  .PIECEWISE_BEZIER_KNOTS.);
#450 = CARTESIAN_POINT('',(-0.16273627,65.735705,15.965951));
#451 = CARTESIAN_POINT('',(-0.13832583,64.5601,15.802358));
#452 = CARTESIAN_POINT('',(-0.11461283,63.330353,15.553093));
#453 = CARTESIAN_POINT('',(-9.2248217E-02,62.052801,15.218205));
#454 = CARTESIAN_POINT('',(-7.1849458E-02,60.735965,14.79849));
#455 = CARTESIAN_POINT('',(-5.3950328E-02,59.390571,14.295338));
#456 = CARTESIAN_POINT('',(-3.894065E-02,58.02953,13.710505));
#457 = CARTESIAN_POINT('',(-2.6995994E-02,56.667867,13.045804));
#458 = CARTESIAN_POINT('',(-1.7997329E-02,55.322583,12.302704));
#459 = PCURVE('',#224,#460);
#460 = DEFINITIONAL_REPRESENTATION('',(#461),#464);
#461 = B_SPLINE_CURVE_WITH_KNOTS('',1,(#462,#463),.UNSPECIFIED.,.F.,.F.,
  (2,2),(0.,1.),.PIECEWISE_BEZIER_KNOTS.);
#462 = CARTESIAN_POINT('',(1.,1.));
#463 = CARTESIAN_POINT('',(0.,1.));
#464 = ( GEOMETRIC_REPRESENTATION_CONTEXT(2) 
PARAMETRIC_REPRESENTATION_CONTEXT() REPRESENTATION_CONTEXT('2D SPACE',''
  ) );
#465 = ORIENTED_EDGE('',*,*,#207,.F.);
#466 = ORIENTED_EDGE('',*,*,#297,.T.);
#467 = ORIENTED_EDGE('',*,*,#468,.T.);
#468 = EDGE_CURVE('',#298,#469,#471,.T.);
#469 = VERTEX_POINT('',#470);
#470 = CARTESIAN_POINT('',(32.798374,65.735705,7.2346037));
#471 = SURFACE_CURVE('',#472,(#478,#487),.PCURVE_S1.);
#472 = B_SPLINE_CURVE_WITH_KNOTS('',4,(#473,#474,#475,#476,#477),
  .UNSPECIFIED.,.F.,.F.,(5,5),(0.,1.),.PIECEWISE_BEZIER_KNOTS.);
#473 = CARTESIAN_POINT('',(32.283267,61.328821,6.3288025));
#474 = CARTESIAN_POINT('',(32.451792,62.406832,6.6360946));
#475 = CARTESIAN_POINT('',(32.597797,63.501805,6.8955171));
#476 = CARTESIAN_POINT('',(32.717597,64.612986,7.1007597));
#477 = CARTESIAN_POINT('',(32.798374,65.735705,7.2346037));
#478 = PCURVE('',#224,#479);
#479 = DEFINITIONAL_REPRESENTATION('',(#480),#486);
#480 = B_SPLINE_CURVE_WITH_KNOTS('',4,(#481,#482,#483,#484,#485),
  .UNSPECIFIED.,.F.,.F.,(5,5),(0.,1.),.PIECEWISE_BEZIER_KNOTS.);
#481 = CARTESIAN_POINT('',(0.55892841,0.14595549));
#482 = CARTESIAN_POINT('',(0.66176793,0.14572281));
#483 = CARTESIAN_POINT('',(0.76857795,0.14532415));
#484 = CARTESIAN_POINT('',(0.88062326,0.14476314));
#485 = CARTESIAN_POINT('',(1.,0.1441064));
#486 = ( GEOMETRIC_REPRESENTATION_CONTEXT(2) 
PARAMETRIC_REPRESENTATION_CONTEXT() REPRESENTATION_CONTEXT('2D SPACE',''
  ) );
#487 = PCURVE('',#386,#488);
#488 = DEFINITIONAL_REPRESENTATION('',(#489),#495);
#489 = B_SPLINE_CURVE_WITH_KNOTS('',4,(#490,#491,#492,#493,#494),
  .UNSPECIFIED.,.F.,.F.,(5,5),(0.,1.),.PIECEWISE_BEZIER_KNOTS.);
#490 = CARTESIAN_POINT('',(1.,0.25785213));
#491 = CARTESIAN_POINT('',(0.95496006,0.24497121));
#492 = CARTESIAN_POINT('',(0.90903811,0.2328211));
#493 = CARTESIAN_POINT('',(0.86226274,0.22154893));
#494 = CARTESIAN_POINT('',(0.81481408,0.21162654));
#495 = ( GEOMETRIC_REPRESENTATION_CONTEXT(2) 
PARAMETRIC_REPRESENTATION_CONTEXT() REPRESENTATION_CONTEXT('2D SPACE',''
  ) );
#496 = ORIENTED_EDGE('',*,*,#497,.T.);
#497 = EDGE_CURVE('',#469,#446,#498,.T.);
#498 = SURFACE_CURVE('',#499,(#507,#513),.PCURVE_S1.);
#499 = B_SPLINE_CURVE_WITH_KNOTS('',6,(#500,#501,#502,#503,#504,#505,
    #506),.UNSPECIFIED.,.F.,.F.,(7,7),(0.,1.),.PIECEWISE_BEZIER_KNOTS.);
#500 = CARTESIAN_POINT('',(37.70321,65.735705,4.1294855));
#501 = CARTESIAN_POINT('',(32.192239,65.735705,7.9680822));
#502 = CARTESIAN_POINT('',(26.212296,65.735705,11.133387));
#503 = CARTESIAN_POINT('',(19.866193,65.735705,13.553783));
#504 = CARTESIAN_POINT('',(13.27139,65.735705,15.178567));
#505 = CARTESIAN_POINT('',(6.5533148,65.735705,15.98252));
#506 = CARTESIAN_POINT('',(-0.16273627,65.735705,15.965951));
#507 = PCURVE('',#224,#508);
#508 = DEFINITIONAL_REPRESENTATION('',(#509),#512);
#509 = B_SPLINE_CURVE_WITH_KNOTS('',1,(#510,#511),.UNSPECIFIED.,.F.,.F.,
  (2,2),(0.,1.),.PIECEWISE_BEZIER_KNOTS.);
#510 = CARTESIAN_POINT('',(1.,0.1441064));
#511 = CARTESIAN_POINT('',(1.,1.));
#512 = ( GEOMETRIC_REPRESENTATION_CONTEXT(2) 
PARAMETRIC_REPRESENTATION_CONTEXT() REPRESENTATION_CONTEXT('2D SPACE',''
  ) );
#513 = PCURVE('',#514,#578);
#514 = B_SPLINE_SURFACE_WITH_KNOTS('',8,6,(
    (#515,#516,#517,#518,#519,#520,#521)
    ,(#522,#523,#524,#525,#526,#527,#528)
    ,(#529,#530,#531,#532,#533,#534,#535)
    ,(#536,#537,#538,#539,#540,#541,#542)
    ,(#543,#544,#545,#546,#547,#548,#549)
    ,(#550,#551,#552,#553,#554,#555,#556)
    ,(#557,#558,#559,#560,#561,#562,#563)
    ,(#564,#565,#566,#567,#568,#569,#570)
    ,(#571,#572,#573,#574,#575,#576,#577
    )),.UNSPECIFIED.,.F.,.F.,.F.,(9,9),(7,7),(0.,1.),(0.,1.),
  .PIECEWISE_BEZIER_KNOTS.);
#515 = CARTESIAN_POINT('',(37.70321,65.735705,4.1294855));
#516 = CARTESIAN_POINT('',(32.192239,65.735705,7.9680822));
#517 = CARTESIAN_POINT('',(26.212296,65.735705,11.133387));
#518 = CARTESIAN_POINT('',(19.866193,65.735705,13.553783));
#519 = CARTESIAN_POINT('',(13.27139,65.735705,15.178567));
#520 = CARTESIAN_POINT('',(6.5533148,65.735705,15.98252));
#521 = CARTESIAN_POINT('',(-0.16273627,65.735705,15.965951));
#522 = CARTESIAN_POINT('',(37.777047,66.91131,4.2774946));
#523 = CARTESIAN_POINT('',(32.251008,66.91131,8.1236087));
#524 = CARTESIAN_POINT('',(26.255077,66.91131,11.29459));
#525 = CARTESIAN_POINT('',(19.892349,66.91131,13.718681));
#526 = CARTESIAN_POINT('',(13.280594,66.91131,15.345096));
#527 = CARTESIAN_POINT('',(6.54556,66.91131,16.148598));
#528 = CARTESIAN_POINT('',(-0.18714671,66.91131,16.129545));
#529 = CARTESIAN_POINT('',(37.801174,68.032771,4.3557257));
#530 = CARTESIAN_POINT('',(32.26717,68.032771,8.2042963));
#531 = CARTESIAN_POINT('',(26.262975,68.032771,11.376761));
#532 = CARTESIAN_POINT('',(19.89183,68.032771,13.801316));
#533 = CARTESIAN_POINT('',(13.271665,68.032771,15.427162));
#534 = CARTESIAN_POINT('',(6.5283854,68.032771,16.229076));
#535 = CARTESIAN_POINT('',(-0.21225459,68.032771,16.207466));
#536 = CARTESIAN_POINT('',(37.776096,69.093749,4.3637664));
#537 = CARTESIAN_POINT('',(32.241274,69.093749,8.2097838));
#538 = CARTESIAN_POINT('',(26.236572,69.093749,11.379595));
#539 = CARTESIAN_POINT('',(19.865247,69.093749,13.801445));
#540 = CARTESIAN_POINT('',(13.245236,69.093749,15.424583));
#541 = CARTESIAN_POINT('',(6.5024371,69.093749,16.22384));
#542 = CARTESIAN_POINT('',(-0.23740897,69.093749,16.199669));
#543 = CARTESIAN_POINT('',(37.702776,70.090085,4.3017977));
#544 = CARTESIAN_POINT('',(32.174263,70.090085,8.1403503));
#545 = CARTESIAN_POINT('',(26.176782,70.090085,11.303467));
#546 = CARTESIAN_POINT('',(19.813473,70.090085,13.719533));
#547 = CARTESIAN_POINT('',(13.202125,70.090085,15.337913));
#548 = CARTESIAN_POINT('',(6.468471,70.090085,16.133519));
#549 = CARTESIAN_POINT('',(-0.26192542,70.090085,16.106853));
#550 = CARTESIAN_POINT('',(37.58268,71.019772,4.1707498));
#551 = CARTESIAN_POINT('',(32.067509,71.019772,7.9970753));
#552 = CARTESIAN_POINT('',(26.084864,71.019772,11.149595));
#553 = CARTESIAN_POINT('',(19.737636,71.019772,13.556923));
#554 = CARTESIAN_POINT('',(13.143318,71.019772,15.168599));
#555 = CARTESIAN_POINT('',(6.4273177,71.019772,15.95965));
#556 = CARTESIAN_POINT('',(-0.28513626,71.019772,15.93062));
#557 = CARTESIAN_POINT('',(37.417793,71.882881,3.9723918));
#558 = CARTESIAN_POINT('',(31.922816,71.882881,7.78193));
#559 = CARTESIAN_POINT('',(25.962417,71.882881,10.92013));
#560 = CARTESIAN_POINT('',(19.63911,71.882881,13.315918));
#561 = CARTESIAN_POINT('',(13.069946,71.882881,14.919072));
#562 = CARTESIAN_POINT('',(6.3798517,71.882881,15.704757));
#563 = CARTESIAN_POINT('',(-0.30643072,71.882881,15.673559));
#564 = CARTESIAN_POINT('',(37.210601,72.681443,3.7093628));
#565 = CARTESIAN_POINT('',(31.742404,72.681443,7.4978065));
#566 = CARTESIAN_POINT('',(25.811361,72.681443,10.618184));
#567 = CARTESIAN_POINT('',(19.519487,72.681443,12.999814));
#568 = CARTESIAN_POINT('',(12.983255,72.681443,14.592768));
#569 = CARTESIAN_POINT('',(6.3269619,72.681443,15.372376));
#570 = CARTESIAN_POINT('',(-0.32528507,72.681443,15.339258));
#571 = CARTESIAN_POINT('',(36.964057,73.419288,3.385153));
#572 = CARTESIAN_POINT('',(31.528868,73.419288,7.1484959));
#573 = CARTESIAN_POINT('',(25.6339,73.419288,10.247805));
#574 = CARTESIAN_POINT('',(19.380552,73.419288,12.612868));
#575 = CARTESIAN_POINT('',(12.884584,73.419288,14.194099));
#576 = CARTESIAN_POINT('',(6.2695283,73.419288,14.967016));
#577 = CARTESIAN_POINT('',(-0.34128269,73.419288,14.932269));
#578 = DEFINITIONAL_REPRESENTATION('',(#579),#582);
#579 = B_SPLINE_CURVE_WITH_KNOTS('',1,(#580,#581),.UNSPECIFIED.,.F.,.F.,
  (2,2),(0.,1.),.PIECEWISE_BEZIER_KNOTS.);
#580 = CARTESIAN_POINT('',(0.,0.1441064));
#581 = CARTESIAN_POINT('',(0.,1.));
#582 = ( GEOMETRIC_REPRESENTATION_CONTEXT(2) 
PARAMETRIC_REPRESENTATION_CONTEXT() REPRESENTATION_CONTEXT('2D SPACE',''
  ) );
#583 = ADVANCED_FACE('',(#584),#514,.T.);
#584 = FACE_BOUND('',#585,.T.);
#585 = EDGE_LOOP('',(#586,#607,#608,#643));
#586 = ORIENTED_EDGE('',*,*,#587,.T.);
#587 = EDGE_CURVE('',#588,#446,#590,.T.);
#588 = VERTEX_POINT('',#589);
#589 = CARTESIAN_POINT('',(-0.34128269,73.419288,14.932269));
#590 = SURFACE_CURVE('',#591,(#601),.PCURVE_S1.);
#591 = B_SPLINE_CURVE_WITH_KNOTS('',8,(#592,#593,#594,#595,#596,#597,
    #598,#599,#600),.UNSPECIFIED.,.F.,.F.,(9,9),(0.,1.),
  .PIECEWISE_BEZIER_KNOTS.);
#592 = CARTESIAN_POINT('',(-0.34128269,73.419288,14.932269));
#593 = CARTESIAN_POINT('',(-0.32528507,72.681443,15.339258));
#594 = CARTESIAN_POINT('',(-0.30643072,71.882881,15.673559));
#595 = CARTESIAN_POINT('',(-0.28513626,71.019772,15.93062));
#596 = CARTESIAN_POINT('',(-0.26192542,70.090085,16.106853));
#597 = CARTESIAN_POINT('',(-0.23740897,69.093749,16.199669));
#598 = CARTESIAN_POINT('',(-0.21225459,68.032771,16.207466));
#599 = CARTESIAN_POINT('',(-0.18714671,66.91131,16.129545));
#600 = CARTESIAN_POINT('',(-0.16273627,65.735705,15.965951));
#601 = PCURVE('',#514,#602);
#602 = DEFINITIONAL_REPRESENTATION('',(#603),#606);
#603 = B_SPLINE_CURVE_WITH_KNOTS('',1,(#604,#605),.UNSPECIFIED.,.F.,.F.,
  (2,2),(0.,1.),.PIECEWISE_BEZIER_KNOTS.);
#604 = CARTESIAN_POINT('',(1.,1.));
#605 = CARTESIAN_POINT('',(0.,1.));
#606 = ( GEOMETRIC_REPRESENTATION_CONTEXT(2) 
PARAMETRIC_REPRESENTATION_CONTEXT() REPRESENTATION_CONTEXT('2D SPACE',''
  ) );
#607 = ORIENTED_EDGE('',*,*,#497,.F.);
#608 = ORIENTED_EDGE('',*,*,#609,.T.);
#609 = EDGE_CURVE('',#469,#610,#612,.T.);
#610 = VERTEX_POINT('',#611);
#611 = CARTESIAN_POINT('',(32.272874,73.419288,6.3451656));
#612 = SURFACE_CURVE('',#613,(#622,#633),.PCURVE_S1.);
#613 = B_SPLINE_CURVE_WITH_KNOTS('',7,(#614,#615,#616,#617,#618,#619,
    #620,#621),.UNSPECIFIED.,.F.,.F.,(8,8),(0.,1.),
  .PIECEWISE_BEZIER_KNOTS.);
#614 = CARTESIAN_POINT('',(32.798374,65.735705,7.2346037));
#615 = CARTESIAN_POINT('',(32.878685,66.851933,7.3676749));
#616 = CARTESIAN_POINT('',(32.925251,67.977857,7.4389849));
#617 = CARTESIAN_POINT('',(32.929499,69.110811,7.4365257));
#618 = CARTESIAN_POINT('',(32.881871,70.240937,7.3478917));
#619 = CARTESIAN_POINT('',(32.764828,71.36367,7.1467381));
#620 = CARTESIAN_POINT('',(32.559806,72.432548,6.8079165));
#621 = CARTESIAN_POINT('',(32.272874,73.419288,6.3451656));
#622 = PCURVE('',#514,#623);
#623 = DEFINITIONAL_REPRESENTATION('',(#624),#632);
#624 = B_SPLINE_CURVE_WITH_KNOTS('',6,(#625,#626,#627,#628,#629,#630,
    #631),.UNSPECIFIED.,.F.,.F.,(7,7),(0.,1.),.PIECEWISE_BEZIER_KNOTS.);
#625 = CARTESIAN_POINT('',(0.,0.1441064));
#626 = CARTESIAN_POINT('',(0.13846769,0.1433446));
#627 = CARTESIAN_POINT('',(0.2858928,0.14246453));
#628 = CARTESIAN_POINT('',(0.444017,0.14154978));
#629 = CARTESIAN_POINT('',(0.61658808,0.14066482));
#630 = CARTESIAN_POINT('',(0.80497294,0.14004147));
#631 = CARTESIAN_POINT('',(1.,0.13988655));
#632 = ( GEOMETRIC_REPRESENTATION_CONTEXT(2) 
PARAMETRIC_REPRESENTATION_CONTEXT() REPRESENTATION_CONTEXT('2D SPACE',''
  ) );
#633 = PCURVE('',#386,#634);
#634 = DEFINITIONAL_REPRESENTATION('',(#635),#642);
#635 = B_SPLINE_CURVE_WITH_KNOTS('',5,(#636,#637,#638,#639,#640,#641),
  .UNSPECIFIED.,.F.,.F.,(6,6),(0.,1.),.PIECEWISE_BEZIER_KNOTS.);
#636 = CARTESIAN_POINT('',(0.81481408,0.21162654));
#637 = CARTESIAN_POINT('',(0.74876999,0.19781547));
#638 = CARTESIAN_POINT('',(0.68162126,0.18657197));
#639 = CARTESIAN_POINT('',(0.61333165,0.17833118));
#640 = CARTESIAN_POINT('',(0.54631553,0.17682949));
#641 = CARTESIAN_POINT('',(0.4866359,0.18278935));
#642 = ( GEOMETRIC_REPRESENTATION_CONTEXT(2) 
PARAMETRIC_REPRESENTATION_CONTEXT() REPRESENTATION_CONTEXT('2D SPACE',''
  ) );
#643 = ORIENTED_EDGE('',*,*,#644,.T.);
#644 = EDGE_CURVE('',#610,#588,#645,.T.);
#645 = SURFACE_CURVE('',#646,(#654,#660),.PCURVE_S1.);
#646 = B_SPLINE_CURVE_WITH_KNOTS('',6,(#647,#648,#649,#650,#651,#652,
    #653),.UNSPECIFIED.,.F.,.F.,(7,7),(0.,1.),.PIECEWISE_BEZIER_KNOTS.);
#647 = CARTESIAN_POINT('',(36.964057,73.419288,3.385153));
#648 = CARTESIAN_POINT('',(31.528868,73.419288,7.1484959));
#649 = CARTESIAN_POINT('',(25.6339,73.419288,10.247805));
#650 = CARTESIAN_POINT('',(19.380552,73.419288,12.612868));
#651 = CARTESIAN_POINT('',(12.884584,73.419288,14.194099));
#652 = CARTESIAN_POINT('',(6.2695283,73.419288,14.967016));
#653 = CARTESIAN_POINT('',(-0.34128269,73.419288,14.932269));
#654 = PCURVE('',#514,#655);
#655 = DEFINITIONAL_REPRESENTATION('',(#656),#659);
#656 = B_SPLINE_CURVE_WITH_KNOTS('',1,(#657,#658),.UNSPECIFIED.,.F.,.F.,
  (2,2),(0.,1.),.PIECEWISE_BEZIER_KNOTS.);
#657 = CARTESIAN_POINT('',(1.,0.13988655));
#658 = CARTESIAN_POINT('',(1.,1.));
#659 = ( GEOMETRIC_REPRESENTATION_CONTEXT(2) 
PARAMETRIC_REPRESENTATION_CONTEXT() REPRESENTATION_CONTEXT('2D SPACE',''
  ) );
#660 = PCURVE('',#661,#725);
#661 = B_SPLINE_SURFACE_WITH_KNOTS('',8,6,(
    (#662,#663,#664,#665,#666,#667,#668)
    ,(#669,#670,#671,#672,#673,#674,#675)
    ,(#676,#677,#678,#679,#680,#681,#682)
    ,(#683,#684,#685,#686,#687,#688,#689)
    ,(#690,#691,#692,#693,#694,#695,#696)
    ,(#697,#698,#699,#700,#701,#702,#703)
    ,(#704,#705,#706,#707,#708,#709,#710)
    ,(#711,#712,#713,#714,#715,#716,#717)
    ,(#718,#719,#720,#721,#722,#723,#724
    )),.UNSPECIFIED.,.F.,.F.,.F.,(9,9),(7,7),(0.,1.),(0.,1.),
  .PIECEWISE_BEZIER_KNOTS.);
#662 = CARTESIAN_POINT('',(36.964057,73.419288,3.385153));
#663 = CARTESIAN_POINT('',(31.528868,73.419288,7.1484959));
#664 = CARTESIAN_POINT('',(25.6339,73.419288,10.247805));
#665 = CARTESIAN_POINT('',(19.380552,73.419288,12.612868));
#666 = CARTESIAN_POINT('',(12.884584,73.419288,14.194099));
#667 = CARTESIAN_POINT('',(6.2695283,73.419288,14.967016));
#668 = CARTESIAN_POINT('',(-0.34128269,73.419288,14.932269));
#669 = CARTESIAN_POINT('',(36.717514,74.157132,3.0609432));
#670 = CARTESIAN_POINT('',(31.315333,74.157132,6.7991853));
#671 = CARTESIAN_POINT('',(25.456439,74.157132,9.8774265));
#672 = CARTESIAN_POINT('',(19.241617,74.157132,12.225922));
#673 = CARTESIAN_POINT('',(12.785914,74.157132,13.79543));
#674 = CARTESIAN_POINT('',(6.2120948,74.157132,14.561656));
#675 = CARTESIAN_POINT('',(-0.35728032,74.157132,14.525281));
#676 = CARTESIAN_POINT('',(36.431618,74.834257,2.6755526));
#677 = CARTESIAN_POINT('',(31.068674,74.834257,6.3846874));
#678 = CARTESIAN_POINT('',(25.252574,74.834257,9.438615));
#679 = CARTESIAN_POINT('',(19.083368,74.834257,11.768134));
#680 = CARTESIAN_POINT('',(12.675264,74.834257,13.324396));
#681 = CARTESIAN_POINT('',(6.1501177,74.834257,14.083317));
#682 = CARTESIAN_POINT('',(-0.37042123,74.834257,14.045604));
#683 = CARTESIAN_POINT('',(36.109323,75.454492,2.2324714));
#684 = CARTESIAN_POINT('',(30.79149,75.454492,5.9087931));
#685 = CARTESIAN_POINT('',(25.024509,75.454492,8.9354189));
#686 = CARTESIAN_POINT('',(18.90759,75.454492,11.24376));
#687 = CARTESIAN_POINT('',(12.553973,75.454492,12.785408));
#688 = CARTESIAN_POINT('',(6.0844769,75.454492,13.53651));
#689 = CARTESIAN_POINT('',(-0.38028881,75.454492,13.497793));
#690 = CARTESIAN_POINT('',(35.754047,76.023459,1.736041));
#691 = CARTESIAN_POINT('',(30.486755,76.023459,5.3761917));
#692 = CARTESIAN_POINT('',(24.774735,76.023459,8.3728214));
#693 = CARTESIAN_POINT('',(18.716254,76.023459,10.658016));
#694 = CARTESIAN_POINT('',(12.423469,76.023459,12.18385));
#695 = CARTESIAN_POINT('',(6.0160437,76.023459,12.92672));
#696 = CARTESIAN_POINT('',(-0.38657359,76.023459,12.887362));
#697 = CARTESIAN_POINT('',(35.369633,76.548414,1.191435));
#698 = CARTESIAN_POINT('',(30.157789,76.548414,4.7924483));
#699 = CARTESIAN_POINT('',(24.505997,76.548414,7.7567146));
#700 = CARTESIAN_POINT('',(18.511491,76.548414,10.01705));
#701 = CARTESIAN_POINT('',(12.285246,76.548414,11.526049));
#702 = CARTESIAN_POINT('',(5.9456563,76.548414,12.260371));
#703 = CARTESIAN_POINT('',(-0.38909331,76.548414,12.220757));
#704 = CARTESIAN_POINT('',(34.960296,77.038036,0.60459032));
#705 = CARTESIAN_POINT('',(29.808198,77.038036,4.1639285));
#706 = CARTESIAN_POINT('',(24.221245,77.038036,7.0938193));
#707 = CARTESIAN_POINT('',(18.295555,77.038036,9.327856));
#708 = CARTESIAN_POINT('',(12.140828,77.038036,10.819185));
#709 = CARTESIAN_POINT('',(5.8741008,77.038036,11.544738));
#710 = CARTESIAN_POINT('',(-0.38780295,77.038036,11.505255));
#711 = CARTESIAN_POINT('',(34.530534,77.502168,-1.7903758E-02));
#712 = CARTESIAN_POINT('',(29.441814,77.502168,3.4976801));
#713 = CARTESIAN_POINT('',(23.923583,77.502168,6.3915594));
#714 = CARTESIAN_POINT('',(18.070778,77.502168,8.5981439));
#715 = CARTESIAN_POINT('',(11.991751,77.502168,10.071155));
#716 = CARTESIAN_POINT('',(5.8020974,77.502168,10.78781));
#717 = CARTESIAN_POINT('',(-0.38279476,77.502168,10.748837));
#718 = CARTESIAN_POINT('',(34.085053,77.951509,-0.66894805));
#719 = CARTESIAN_POINT('',(29.062615,77.951509,2.8012809));
#720 = CARTESIAN_POINT('',(23.61621,77.951509,5.6579034));
#721 = CARTESIAN_POINT('',(17.839534,77.951509,7.8361753));
#722 = CARTESIAN_POINT('',(11.83953,77.951509,9.2904131));
#723 = CARTESIAN_POINT('',(5.7302933,77.951509,9.9981218));
#724 = CARTESIAN_POINT('',(-0.37428821,77.951509,9.9600152));
#725 = DEFINITIONAL_REPRESENTATION('',(#726),#729);
#726 = B_SPLINE_CURVE_WITH_KNOTS('',1,(#727,#728),.UNSPECIFIED.,.F.,.F.,
  (2,2),(0.,1.),.PIECEWISE_BEZIER_KNOTS.);
#727 = CARTESIAN_POINT('',(0.,0.13988655));
#728 = CARTESIAN_POINT('',(0.,1.));
#729 = ( GEOMETRIC_REPRESENTATION_CONTEXT(2) 
PARAMETRIC_REPRESENTATION_CONTEXT() REPRESENTATION_CONTEXT('2D SPACE',''
  ) );
#730 = ADVANCED_FACE('',(#731),#661,.T.);
#731 = FACE_BOUND('',#732,.T.);
#732 = EDGE_LOOP('',(#733,#754,#755,#789));
#733 = ORIENTED_EDGE('',*,*,#734,.T.);
#734 = EDGE_CURVE('',#735,#588,#737,.T.);
#735 = VERTEX_POINT('',#736);
#736 = CARTESIAN_POINT('',(-0.37428821,77.951509,9.9600152));
#737 = SURFACE_CURVE('',#738,(#748),.PCURVE_S1.);
#738 = B_SPLINE_CURVE_WITH_KNOTS('',8,(#739,#740,#741,#742,#743,#744,
    #745,#746,#747),.UNSPECIFIED.,.F.,.F.,(9,9),(0.,1.),
  .PIECEWISE_BEZIER_KNOTS.);
#739 = CARTESIAN_POINT('',(-0.37428821,77.951509,9.9600152));
#740 = CARTESIAN_POINT('',(-0.38279476,77.502168,10.748837));
#741 = CARTESIAN_POINT('',(-0.38780295,77.038036,11.505255));
#742 = CARTESIAN_POINT('',(-0.38909331,76.548414,12.220757));
#743 = CARTESIAN_POINT('',(-0.38657359,76.023459,12.887362));
#744 = CARTESIAN_POINT('',(-0.38028881,75.454492,13.497793));
#745 = CARTESIAN_POINT('',(-0.37042123,74.834257,14.045604));
#746 = CARTESIAN_POINT('',(-0.35728032,74.157132,14.525281));
#747 = CARTESIAN_POINT('',(-0.34128269,73.419288,14.932269));
#748 = PCURVE('',#661,#749);
#749 = DEFINITIONAL_REPRESENTATION('',(#750),#753);
#750 = B_SPLINE_CURVE_WITH_KNOTS('',1,(#751,#752),.UNSPECIFIED.,.F.,.F.,
  (2,2),(0.,1.),.PIECEWISE_BEZIER_KNOTS.);
#751 = CARTESIAN_POINT('',(1.,1.));
#752 = CARTESIAN_POINT('',(0.,1.));
#753 = ( GEOMETRIC_REPRESENTATION_CONTEXT(2) 
PARAMETRIC_REPRESENTATION_CONTEXT() REPRESENTATION_CONTEXT('2D SPACE',''
  ) );
#754 = ORIENTED_EDGE('',*,*,#644,.F.);
#755 = ORIENTED_EDGE('',*,*,#756,.T.);
#756 = EDGE_CURVE('',#610,#757,#759,.T.);
#757 = VERTEX_POINT('',#758);
#758 = CARTESIAN_POINT('',(29.575257,77.951509,2.1598283));
#759 = SURFACE_CURVE('',#760,(#768,#779),.PCURVE_S1.);
#760 = B_SPLINE_CURVE_WITH_KNOTS('',6,(#761,#762,#763,#764,#765,#766,
    #767),.UNSPECIFIED.,.F.,.F.,(7,7),(0.,1.),.PIECEWISE_BEZIER_KNOTS.);
#761 = CARTESIAN_POINT('',(32.272874,73.419288,6.3451656));
#762 = CARTESIAN_POINT('',(31.983306,74.415094,5.878163));
#763 = CARTESIAN_POINT('',(31.608002,75.325794,5.2813895));
#764 = CARTESIAN_POINT('',(31.150309,76.113072,4.5648994));
#765 = CARTESIAN_POINT('',(30.648585,76.785451,3.7928587));
#766 = CARTESIAN_POINT('',(30.118996,77.389519,2.9857123));
#767 = CARTESIAN_POINT('',(29.575257,77.951509,2.1598283));
#768 = PCURVE('',#661,#769);
#769 = DEFINITIONAL_REPRESENTATION('',(#770),#778);
#770 = B_SPLINE_CURVE_WITH_KNOTS('',6,(#771,#772,#773,#774,#775,#776,
    #777),.UNSPECIFIED.,.F.,.F.,(7,7),(0.,1.),.PIECEWISE_BEZIER_KNOTS.);
#771 = CARTESIAN_POINT('',(0.,0.13988655));
#772 = CARTESIAN_POINT('',(0.16870199,0.13975254));
#773 = CARTESIAN_POINT('',(0.34256201,0.13996518));
#774 = CARTESIAN_POINT('',(0.5161741,0.14065878));
#775 = CARTESIAN_POINT('',(0.68248774,0.14186375));
#776 = CARTESIAN_POINT('',(0.84366278,0.14347381));
#777 = CARTESIAN_POINT('',(1.,0.14538809));
#778 = ( GEOMETRIC_REPRESENTATION_CONTEXT(2) 
PARAMETRIC_REPRESENTATION_CONTEXT() REPRESENTATION_CONTEXT('2D SPACE',''
  ) );
#779 = PCURVE('',#386,#780);
#780 = DEFINITIONAL_REPRESENTATION('',(#781),#788);
#781 = B_SPLINE_CURVE_WITH_KNOTS('',5,(#782,#783,#784,#785,#786,#787),
  .UNSPECIFIED.,.F.,.F.,(6,6),(0.,1.),.PIECEWISE_BEZIER_KNOTS.);
#782 = CARTESIAN_POINT('',(0.4866359,0.18278935));
#783 = CARTESIAN_POINT('',(0.43501193,0.18794474));
#784 = CARTESIAN_POINT('',(0.38859205,0.19862951));
#785 = CARTESIAN_POINT('',(0.35108058,0.21469374));
#786 = CARTESIAN_POINT('',(0.31877914,0.23287167));
#787 = CARTESIAN_POINT('',(0.28919534,0.25233806));
#788 = ( GEOMETRIC_REPRESENTATION_CONTEXT(2) 
PARAMETRIC_REPRESENTATION_CONTEXT() REPRESENTATION_CONTEXT('2D SPACE',''
  ) );
#789 = ORIENTED_EDGE('',*,*,#790,.T.);
#790 = EDGE_CURVE('',#757,#735,#791,.T.);
#791 = SURFACE_CURVE('',#792,(#800,#806),.PCURVE_S1.);
#792 = B_SPLINE_CURVE_WITH_KNOTS('',6,(#793,#794,#795,#796,#797,#798,
    #799),.UNSPECIFIED.,.F.,.F.,(7,7),(0.,1.),.PIECEWISE_BEZIER_KNOTS.);
#793 = CARTESIAN_POINT('',(34.085053,77.951509,-0.66894805));
#794 = CARTESIAN_POINT('',(29.062615,77.951509,2.8012809));
#795 = CARTESIAN_POINT('',(23.61621,77.951509,5.6579034));
#796 = CARTESIAN_POINT('',(17.839534,77.951509,7.8361753));
#797 = CARTESIAN_POINT('',(11.83953,77.951509,9.2904131));
#798 = CARTESIAN_POINT('',(5.7302933,77.951509,9.9981218));
#799 = CARTESIAN_POINT('',(-0.37428821,77.951509,9.9600152));
#800 = PCURVE('',#661,#801);
#801 = DEFINITIONAL_REPRESENTATION('',(#802),#805);
#802 = B_SPLINE_CURVE_WITH_KNOTS('',1,(#803,#804),.UNSPECIFIED.,.F.,.F.,
  (2,2),(0.,1.),.PIECEWISE_BEZIER_KNOTS.);
#803 = CARTESIAN_POINT('',(1.,0.14538809));
#804 = CARTESIAN_POINT('',(1.,1.));
#805 = ( GEOMETRIC_REPRESENTATION_CONTEXT(2) 
PARAMETRIC_REPRESENTATION_CONTEXT() REPRESENTATION_CONTEXT('2D SPACE',''
  ) );
#806 = PCURVE('',#807,#871);
#807 = B_SPLINE_SURFACE_WITH_KNOTS('',8,6,(
    (#808,#809,#810,#811,#812,#813,#814)
    ,(#815,#816,#817,#818,#819,#820,#821)
    ,(#822,#823,#824,#825,#826,#827,#828)
    ,(#829,#830,#831,#832,#833,#834,#835)
    ,(#836,#837,#838,#839,#840,#841,#842)
    ,(#843,#844,#845,#846,#847,#848,#849)
    ,(#850,#851,#852,#853,#854,#855,#856)
    ,(#857,#858,#859,#860,#861,#862,#863)
    ,(#864,#865,#866,#867,#868,#869,#870
    )),.UNSPECIFIED.,.F.,.F.,.F.,(9,9),(7,7),(0.,1.),(0.,1.),
  .PIECEWISE_BEZIER_KNOTS.);
#808 = CARTESIAN_POINT('',(34.085053,77.951509,-0.66894805));
#809 = CARTESIAN_POINT('',(29.062615,77.951509,2.8012809));
#810 = CARTESIAN_POINT('',(23.61621,77.951509,5.6579034));
#811 = CARTESIAN_POINT('',(17.839534,77.951509,7.8361753));
#812 = CARTESIAN_POINT('',(11.83953,77.951509,9.2904131));
#813 = CARTESIAN_POINT('',(5.7302933,77.951509,9.9981218));
#814 = CARTESIAN_POINT('',(-0.37428821,77.951509,9.9600152));
#815 = CARTESIAN_POINT('',(33.639571,78.400851,-1.3199923));
#816 = CARTESIAN_POINT('',(28.683417,78.400851,2.1048818));
#817 = CARTESIAN_POINT('',(23.308836,78.400851,4.9242475));
#818 = CARTESIAN_POINT('',(17.608289,78.400851,7.0742068));
#819 = CARTESIAN_POINT('',(11.68731,78.400851,8.5096708));
#820 = CARTESIAN_POINT('',(5.6584892,78.400851,9.2084338));
#821 = CARTESIAN_POINT('',(-0.36578166,78.400851,9.1711933));
#822 = CARTESIAN_POINT('',(33.178369,78.835402,-1.9995868));
#823 = CARTESIAN_POINT('',(28.291406,78.835402,1.3783319));
#824 = CARTESIAN_POINT('',(22.991751,78.835402,4.1591954));
#825 = CARTESIAN_POINT('',(17.370577,78.835402,6.2799817));
#826 = CARTESIAN_POINT('',(11.531946,78.835402,7.6962155));
#827 = CARTESIAN_POINT('',(5.5868844,78.835402,8.3859858));
#828 = CARTESIAN_POINT('',(-0.35377675,78.835402,8.3499675));
#829 = CARTESIAN_POINT('',(32.70615,79.265862,-2.7006324));
#830 = CARTESIAN_POINT('',(27.89056,79.265862,0.62920931));
#831 = CARTESIAN_POINT('',(22.668153,79.265862,3.3707157));
#832 = CARTESIAN_POINT('',(17.12877,79.265862,5.4617619));
#833 = CARTESIAN_POINT('',(11.374956,79.265862,6.8584986));
#834 = CARTESIAN_POINT('',(5.5161261,79.265862,7.539313));
#835 = CARTESIAN_POINT('',(-0.33849293,79.265862,7.5048507));
#836 = CARTESIAN_POINT('',(32.227818,79.703783,-3.4155201));
#837 = CARTESIAN_POINT('',(27.485012,79.703783,-0.13437784));
#838 = CARTESIAN_POINT('',(22.341338,79.703783,2.5673213));
#839 = CARTESIAN_POINT('',(16.885279,79.703783,4.628361));
#840 = CARTESIAN_POINT('',(11.217838,79.703783,6.0055243));
#841 = CARTESIAN_POINT('',(5.4467887,79.703783,6.6774966));
#842 = CARTESIAN_POINT('',(-0.32027688,79.703783,6.644889));
#843 = CARTESIAN_POINT('',(31.748392,80.161264,-4.1362742));
#844 = CARTESIAN_POINT('',(27.078966,80.161264,-0.90394275));
#845 = CARTESIAN_POINT('',(22.014636,80.161264,1.7579107));
#846 = CARTESIAN_POINT('',(16.642515,80.161264,3.7889805));
#847 = CARTESIAN_POINT('',(11.062052,80.161264,5.1466819));
#848 = CARTESIAN_POINT('',(5.3793665,80.161264,5.8099959));
#849 = CARTESIAN_POINT('',(-0.29959245,80.161264,5.7794941));
#850 = CARTESIAN_POINT('',(31.272905,80.650578,-4.8547268));
#851 = CARTESIAN_POINT('',(26.676626,80.650578,-1.670805));
#852 = CARTESIAN_POINT('',(21.691357,80.650578,0.95157526));
#853 = CARTESIAN_POINT('',(16.402846,80.650578,2.9530116));
#854 = CARTESIAN_POINT('',(10.908994,80.650578,4.2915447));
#855 = CARTESIAN_POINT('',(5.3142738,80.650578,4.9464461));
#856 = CARTESIAN_POINT('',(-0.27700056,80.650578,4.9182444));
#857 = CARTESIAN_POINT('',(30.806308,81.183749,-5.5627156));
#858 = CARTESIAN_POINT('',(26.282109,81.183749,-2.4262985));
#859 = CARTESIAN_POINT('',(21.374725,81.183749,0.15738346));
#860 = CARTESIAN_POINT('',(16.168558,81.183749,2.1298141));
#861 = CARTESIAN_POINT('',(10.759983,81.183749,3.4496469));
#862 = CARTESIAN_POINT('',(5.2518525,81.183749,4.096436));
#863 = CARTESIAN_POINT('',(-0.25312911,81.183749,4.0706647));
#864 = CARTESIAN_POINT('',(30.353365,81.772047,-6.2522928));
#865 = CARTESIAN_POINT('',(25.899373,81.772047,-3.1619902));
#866 = CARTESIAN_POINT('',(21.067829,81.772047,-0.61584541));
#867 = CARTESIAN_POINT('',(15.941827,81.772047,1.3284858));
#868 = CARTESIAN_POINT('',(10.616254,81.772047,2.6302507));
#869 = CARTESIAN_POINT('',(5.1923889,81.772047,3.2692762));
#870 = CARTESIAN_POINT('',(-0.22863274,81.772047,3.2459989));
#871 = DEFINITIONAL_REPRESENTATION('',(#872),#875);
#872 = B_SPLINE_CURVE_WITH_KNOTS('',1,(#873,#874),.UNSPECIFIED.,.F.,.F.,
  (2,2),(0.,1.),.PIECEWISE_BEZIER_KNOTS.);
#873 = CARTESIAN_POINT('',(0.,0.14538809));
#874 = CARTESIAN_POINT('',(0.,1.));
#875 = ( GEOMETRIC_REPRESENTATION_CONTEXT(2) 
PARAMETRIC_REPRESENTATION_CONTEXT() REPRESENTATION_CONTEXT('2D SPACE',''
  ) );
#876 = ADVANCED_FACE('',(#877),#807,.T.);
#877 = FACE_BOUND('',#878,.T.);
#878 = EDGE_LOOP('',(#879,#900,#901,#933));
#879 = ORIENTED_EDGE('',*,*,#880,.T.);
#880 = EDGE_CURVE('',#881,#735,#883,.T.);
#881 = VERTEX_POINT('',#882);
#882 = CARTESIAN_POINT('',(-0.22863274,81.772047,3.2459989));
#883 = SURFACE_CURVE('',#884,(#894),.PCURVE_S1.);
#884 = B_SPLINE_CURVE_WITH_KNOTS('',8,(#885,#886,#887,#888,#889,#890,
    #891,#892,#893),.UNSPECIFIED.,.F.,.F.,(9,9),(0.,1.),
  .PIECEWISE_BEZIER_KNOTS.);
#885 = CARTESIAN_POINT('',(-0.22863274,81.772047,3.2459989));
#886 = CARTESIAN_POINT('',(-0.25312911,81.183749,4.0706647));
#887 = CARTESIAN_POINT('',(-0.27700056,80.650578,4.9182444));
#888 = CARTESIAN_POINT('',(-0.29959245,80.161264,5.7794941));
#889 = CARTESIAN_POINT('',(-0.32027688,79.703783,6.644889));
#890 = CARTESIAN_POINT('',(-0.33849293,79.265862,7.5048507));
#891 = CARTESIAN_POINT('',(-0.35377675,78.835402,8.3499675));
#892 = CARTESIAN_POINT('',(-0.36578166,78.400851,9.1711933));
#893 = CARTESIAN_POINT('',(-0.37428821,77.951509,9.9600152));
#894 = PCURVE('',#807,#895);
#895 = DEFINITIONAL_REPRESENTATION('',(#896),#899);
#896 = B_SPLINE_CURVE_WITH_KNOTS('',1,(#897,#898),.UNSPECIFIED.,.F.,.F.,
  (2,2),(0.,1.),.PIECEWISE_BEZIER_KNOTS.);
#897 = CARTESIAN_POINT('',(1.,1.));
#898 = CARTESIAN_POINT('',(0.,1.));
#899 = ( GEOMETRIC_REPRESENTATION_CONTEXT(2) 
PARAMETRIC_REPRESENTATION_CONTEXT() REPRESENTATION_CONTEXT('2D SPACE',''
  ) );
#900 = ORIENTED_EDGE('',*,*,#790,.F.);
#901 = ORIENTED_EDGE('',*,*,#902,.T.);
#902 = EDGE_CURVE('',#757,#903,#905,.T.);
#903 = VERTEX_POINT('',#904);
#904 = CARTESIAN_POINT('',(25.925539,81.772047,-3.491344));
#905 = SURFACE_CURVE('',#906,(#914,#924),.PCURVE_S1.);
#906 = B_SPLINE_CURVE_WITH_KNOTS('',6,(#907,#908,#909,#910,#911,#912,
    #913),.UNSPECIFIED.,.F.,.F.,(7,7),(0.,1.),.PIECEWISE_BEZIER_KNOTS.);
#907 = CARTESIAN_POINT('',(29.575257,77.951509,2.1598283));
#908 = CARTESIAN_POINT('',(28.958341,78.589133,1.2227963));
#909 = CARTESIAN_POINT('',(28.323173,79.173397,0.26152135));
#910 = CARTESIAN_POINT('',(27.689391,79.749943,-0.7012607));
#911 = CARTESIAN_POINT('',(27.068192,80.355212,-1.6589253));
#912 = CARTESIAN_POINT('',(26.47525,81.023135,-2.5957287));
#913 = CARTESIAN_POINT('',(25.925539,81.772047,-3.491344));
#914 = PCURVE('',#807,#915);
#915 = DEFINITIONAL_REPRESENTATION('',(#916),#923);
#916 = B_SPLINE_CURVE_WITH_KNOTS('',5,(#917,#918,#919,#920,#921,#922),
  .UNSPECIFIED.,.F.,.F.,(6,6),(0.,1.),.PIECEWISE_BEZIER_KNOTS.);
#917 = CARTESIAN_POINT('',(0.,0.14538809));
#918 = CARTESIAN_POINT('',(0.21285258,0.14799438));
#919 = CARTESIAN_POINT('',(0.41646104,0.1511841));
#920 = CARTESIAN_POINT('',(0.61394108,0.15464105));
#921 = CARTESIAN_POINT('',(0.80904771,0.15788011));
#922 = CARTESIAN_POINT('',(1.,0.16049047));
#923 = ( GEOMETRIC_REPRESENTATION_CONTEXT(2) 
PARAMETRIC_REPRESENTATION_CONTEXT() REPRESENTATION_CONTEXT('2D SPACE',''
  ) );
#924 = PCURVE('',#386,#925);
#925 = DEFINITIONAL_REPRESENTATION('',(#926),#932);
#926 = B_SPLINE_CURVE_WITH_KNOTS('',4,(#927,#928,#929,#930,#931),
  .UNSPECIFIED.,.F.,.F.,(5,5),(0.,1.),.PIECEWISE_BEZIER_KNOTS.);
#927 = CARTESIAN_POINT('',(0.28919534,0.25233806));
#928 = CARTESIAN_POINT('',(0.24723886,0.2799458));
#929 = CARTESIAN_POINT('',(0.21116279,0.31005536));
#930 = CARTESIAN_POINT('',(0.17141272,0.33893274));
#931 = CARTESIAN_POINT('',(0.12359032,0.36370993));
#932 = ( GEOMETRIC_REPRESENTATION_CONTEXT(2) 
PARAMETRIC_REPRESENTATION_CONTEXT() REPRESENTATION_CONTEXT('2D SPACE',''
  ) );
#933 = ORIENTED_EDGE('',*,*,#934,.T.);
#934 = EDGE_CURVE('',#903,#881,#935,.T.);
#935 = SURFACE_CURVE('',#936,(#944,#950),.PCURVE_S1.);
#936 = B_SPLINE_CURVE_WITH_KNOTS('',6,(#937,#938,#939,#940,#941,#942,
    #943),.UNSPECIFIED.,.F.,.F.,(7,7),(0.,1.),.PIECEWISE_BEZIER_KNOTS.);
#937 = CARTESIAN_POINT('',(30.353365,81.772047,-6.2522928));
#938 = CARTESIAN_POINT('',(25.899373,81.772047,-3.1619902));
#939 = CARTESIAN_POINT('',(21.067829,81.772047,-0.61584541));
#940 = CARTESIAN_POINT('',(15.941827,81.772047,1.3284858));
#941 = CARTESIAN_POINT('',(10.616254,81.772047,2.6302507));
#942 = CARTESIAN_POINT('',(5.1923889,81.772047,3.2692762));
#943 = CARTESIAN_POINT('',(-0.22863274,81.772047,3.2459989));
#944 = PCURVE('',#807,#945);
#945 = DEFINITIONAL_REPRESENTATION('',(#946),#949);
#946 = B_SPLINE_CURVE_WITH_KNOTS('',1,(#947,#948),.UNSPECIFIED.,.F.,.F.,
  (2,2),(0.,1.),.PIECEWISE_BEZIER_KNOTS.);
#947 = CARTESIAN_POINT('',(1.,0.16049047));
#948 = CARTESIAN_POINT('',(1.,1.));
#949 = ( GEOMETRIC_REPRESENTATION_CONTEXT(2) 
PARAMETRIC_REPRESENTATION_CONTEXT() REPRESENTATION_CONTEXT('2D SPACE',''
  ) );
#950 = PCURVE('',#951,#1015);
#951 = B_SPLINE_SURFACE_WITH_KNOTS('',8,6,(
    (#952,#953,#954,#955,#956,#957,#958)
    ,(#959,#960,#961,#962,#963,#964,#965)
    ,(#966,#967,#968,#969,#970,#971,#972)
    ,(#973,#974,#975,#976,#977,#978,#979)
    ,(#980,#981,#982,#983,#984,#985,#986)
    ,(#987,#988,#989,#990,#991,#992,#993)
    ,(#994,#995,#996,#997,#998,#999,#1000)
    ,(#1001,#1002,#1003,#1004,#1005,#1006,#1007)
    ,(#1008,#1009,#1010,#1011,#1012,#1013,#1014
  )),.UNSPECIFIED.,.F.,.F.,.F.,(9,9),(7,7),(0.,1.),(0.,1.),
  .PIECEWISE_BEZIER_KNOTS.);
#952 = CARTESIAN_POINT('',(30.353365,81.772047,-6.2522928));
#953 = CARTESIAN_POINT('',(25.899373,81.772047,-3.1619902));
#954 = CARTESIAN_POINT('',(21.067829,81.772047,-0.61584541));
#955 = CARTESIAN_POINT('',(15.941827,81.772047,1.3284858));
#956 = CARTESIAN_POINT('',(10.616254,81.772047,2.6302507));
#957 = CARTESIAN_POINT('',(5.1923889,81.772047,3.2692762));
#958 = CARTESIAN_POINT('',(-0.22863274,81.772047,3.2459989));
#959 = CARTESIAN_POINT('',(29.900423,82.360345,-6.9418701));
#960 = CARTESIAN_POINT('',(25.516637,82.360345,-3.8976819));
#961 = CARTESIAN_POINT('',(20.760933,82.360345,-1.3890743));
#962 = CARTESIAN_POINT('',(15.715096,82.360345,0.52715745));
#963 = CARTESIAN_POINT('',(10.472526,82.360345,1.8108545));
#964 = CARTESIAN_POINT('',(5.1329253,82.360345,2.4421163));
#965 = CARTESIAN_POINT('',(-0.20413638,82.360345,2.421333));
#966 = CARTESIAN_POINT('',(29.461135,83.003769,-7.6130358));
#967 = CARTESIAN_POINT('',(25.145681,83.003769,-4.6135719));
#968 = CARTESIAN_POINT('',(20.463773,83.003769,-2.1413402));
#969 = CARTESIAN_POINT('',(15.495922,83.003769,-0.25230169));
#970 = CARTESIAN_POINT('',(10.334081,83.003769,1.01396));
#971 = CARTESIAN_POINT('',(5.0764195,83.003769,1.6378068));
#972 = CARTESIAN_POINT('',(-0.1790151,83.003769,1.6195811));
#973 = CARTESIAN_POINT('',(29.040268,83.713588,-8.2578422));
#974 = CARTESIAN_POINT('',(24.790462,83.713588,-5.3012273));
#975 = CARTESIAN_POINT('',(20.179438,83.713588,-2.863824));
#976 = CARTESIAN_POINT('',(15.286479,83.713588,-1.000794));
#977 = CARTESIAN_POINT('',(10.202154,83.713588,0.24882936));
#978 = CARTESIAN_POINT('',(5.023158,83.713588,0.8656581));
#979 = CARTESIAN_POINT('',(-0.15392359,83.713588,0.84998701));
#980 = CARTESIAN_POINT('',(28.642404,84.500319,-8.8685565));
#981 = CARTESIAN_POINT('',(24.454775,84.500319,-5.9524484));
#982 = CARTESIAN_POINT('',(19.910877,84.500319,-3.5479555));
#983 = CARTESIAN_POINT('',(15.088834,84.500319,-1.7094839));
#984 = CARTESIAN_POINT('',(10.077898,84.500319,-0.47554701));
#985 = CARTESIAN_POINT('',(4.9733718,84.500319,0.13470276));
#986 = CARTESIAN_POINT('',(-0.12954328,84.500319,0.12151385));
#987 = CARTESIAN_POINT('',(28.271846,85.373217,-9.4378694));
#988 = CARTESIAN_POINT('',(24.14218,85.373217,-6.5594881));
#989 = CARTESIAN_POINT('',(19.660853,85.373217,-4.1856407));
#990 = CARTESIAN_POINT('',(14.904909,85.373217,-2.3700292));
#991 = CARTESIAN_POINT('',(9.9623749,85.373217,-1.1506833));
#992 = CARTESIAN_POINT('',(4.9272537,85.373217,-0.54653622));
#993 = CARTESIAN_POINT('',(-0.10654223,85.373217,-0.55738338));
#994 = CARTESIAN_POINT('',(27.932522,86.339703,-9.9591168));
#995 = CARTESIAN_POINT('',(23.855924,86.339703,-7.1152824));
#996 = CARTESIAN_POINT('',(19.431887,86.339703,-4.7694983));
#997 = CARTESIAN_POINT('',(14.736463,86.339703,-2.9748219));
#998 = CARTESIAN_POINT('',(9.8565577,86.339703,-1.76884));
#999 = CARTESIAN_POINT('',(4.8849845,86.339703,-1.1702851));
#1000 = CARTESIAN_POINT('',(-8.5524884E-02,86.339703,-1.1789924));
#1001 = CARTESIAN_POINT('',(27.627905,87.404694,-10.426501));
#1002 = CARTESIAN_POINT('',(23.598892,87.404694,-7.6136802));
#1003 = CARTESIAN_POINT('',(19.226229,87.404694,-5.2930958));
#1004 = CARTESIAN_POINT('',(14.58508,87.404694,-3.517227));
#1005 = CARTESIAN_POINT('',(9.7613446,87.404694,-2.3232624));
#1006 = CARTESIAN_POINT('',(4.8467699,87.404694,-1.729754));
#1007 = CARTESIAN_POINT('',(-6.6971833E-02,87.404694,-1.7365725));
#1008 = CARTESIAN_POINT('',(27.360949,88.569825,-10.835303));
#1009 = CARTESIAN_POINT('',(23.373557,88.569825,-8.0496611));
#1010 = CARTESIAN_POINT('',(19.045835,88.569825,-5.7511708));
#1011 = CARTESIAN_POINT('',(14.452171,88.569825,-3.9918041));
#1012 = CARTESIAN_POINT('',(9.6775849,88.569825,-2.8084004));
#1013 = CARTESIAN_POINT('',(4.8128895,88.569825,-2.2193531));
#1014 = CARTESIAN_POINT('',(-5.1169491E-02,88.569825,-2.2245628));
#1015 = DEFINITIONAL_REPRESENTATION('',(#1016),#1019);
#1016 = B_SPLINE_CURVE_WITH_KNOTS('',1,(#1017,#1018),.UNSPECIFIED.,.F.,
  .F.,(2,2),(0.,1.),.PIECEWISE_BEZIER_KNOTS.);
#1017 = CARTESIAN_POINT('',(0.,0.16049047));
#1018 = CARTESIAN_POINT('',(0.,1.));
#1019 = ( GEOMETRIC_REPRESENTATION_CONTEXT(2) 
PARAMETRIC_REPRESENTATION_CONTEXT() REPRESENTATION_CONTEXT('2D SPACE',''
  ) );
#1020 = ADVANCED_FACE('',(#1021),#951,.T.);
#1021 = FACE_BOUND('',#1022,.T.);
#1022 = EDGE_LOOP('',(#1023,#1044,#1045,#1074,#1154));
#1023 = ORIENTED_EDGE('',*,*,#1024,.T.);
#1024 = EDGE_CURVE('',#1025,#881,#1027,.T.);
#1025 = VERTEX_POINT('',#1026);
#1026 = CARTESIAN_POINT('',(-5.1169491E-02,88.569825,-2.2245628));
#1027 = SURFACE_CURVE('',#1028,(#1038),.PCURVE_S1.);
#1028 = B_SPLINE_CURVE_WITH_KNOTS('',8,(#1029,#1030,#1031,#1032,#1033,
    #1034,#1035,#1036,#1037),.UNSPECIFIED.,.F.,.F.,(9,9),(0.,1.),
  .PIECEWISE_BEZIER_KNOTS.);
#1029 = CARTESIAN_POINT('',(-5.1169491E-02,88.569825,-2.2245628));
#1030 = CARTESIAN_POINT('',(-6.6971833E-02,87.404694,-1.7365725));
#1031 = CARTESIAN_POINT('',(-8.5524884E-02,86.339703,-1.1789924));
#1032 = CARTESIAN_POINT('',(-0.10654223,85.373217,-0.55738338));
#1033 = CARTESIAN_POINT('',(-0.12954328,84.500319,0.12151385));
#1034 = CARTESIAN_POINT('',(-0.15392359,83.713588,0.84998701));
#1035 = CARTESIAN_POINT('',(-0.1790151,83.003769,1.6195811));
#1036 = CARTESIAN_POINT('',(-0.20413638,82.360345,2.421333));
#1037 = CARTESIAN_POINT('',(-0.22863274,81.772047,3.2459989));
#1038 = PCURVE('',#951,#1039);
#1039 = DEFINITIONAL_REPRESENTATION('',(#1040),#1043);
#1040 = B_SPLINE_CURVE_WITH_KNOTS('',1,(#1041,#1042),.UNSPECIFIED.,.F.,
  .F.,(2,2),(0.,1.),.PIECEWISE_BEZIER_KNOTS.);
#1041 = CARTESIAN_POINT('',(1.,1.));
#1042 = CARTESIAN_POINT('',(0.,1.));
#1043 = ( GEOMETRIC_REPRESENTATION_CONTEXT(2) 
PARAMETRIC_REPRESENTATION_CONTEXT() REPRESENTATION_CONTEXT('2D SPACE',''
  ) );
#1044 = ORIENTED_EDGE('',*,*,#934,.F.);
#1045 = ORIENTED_EDGE('',*,*,#1046,.T.);
#1046 = EDGE_CURVE('',#903,#1047,#1049,.T.);
#1047 = VERTEX_POINT('',#1048);
#1048 = CARTESIAN_POINT('',(24.329699,84.703813,-6.2344614));
#1049 = SURFACE_CURVE('',#1050,(#1056,#1065),.PCURVE_S1.);
#1050 = B_SPLINE_CURVE_WITH_KNOTS('',4,(#1051,#1052,#1053,#1054,#1055),
  .UNSPECIFIED.,.F.,.F.,(5,5),(0.,1.),.PIECEWISE_BEZIER_KNOTS.);
#1051 = CARTESIAN_POINT('',(25.925539,81.772047,-3.491344));
#1052 = CARTESIAN_POINT('',(25.463992,82.400846,-4.2433179));
#1053 = CARTESIAN_POINT('',(25.036028,83.093004,-4.963506));
#1054 = CARTESIAN_POINT('',(24.656258,83.864864,-5.6316329));
#1055 = CARTESIAN_POINT('',(24.329699,84.703813,-6.2344614));
#1056 = PCURVE('',#951,#1057);
#1057 = DEFINITIONAL_REPRESENTATION('',(#1058),#1064);
#1058 = B_SPLINE_CURVE_WITH_KNOTS('',4,(#1059,#1060,#1061,#1062,#1063),
  .UNSPECIFIED.,.F.,.F.,(5,5),(0.,1.),.PIECEWISE_BEZIER_KNOTS.);
#1059 = CARTESIAN_POINT('',(0.,0.16049047));
#1060 = CARTESIAN_POINT('',(0.13360569,0.16231689));
#1061 = CARTESIAN_POINT('',(0.26512023,0.16381887));
#1062 = CARTESIAN_POINT('',(0.39364007,0.16480651));
#1063 = CARTESIAN_POINT('',(0.51753822,0.16525193));
#1064 = ( GEOMETRIC_REPRESENTATION_CONTEXT(2) 
PARAMETRIC_REPRESENTATION_CONTEXT() REPRESENTATION_CONTEXT('2D SPACE',''
  ) );
#1065 = PCURVE('',#386,#1066);
#1066 = DEFINITIONAL_REPRESENTATION('',(#1067),#1073);
#1067 = B_SPLINE_CURVE_WITH_KNOTS('',4,(#1068,#1069,#1070,#1071,#1072),
  .UNSPECIFIED.,.F.,.F.,(5,5),(0.,1.),.PIECEWISE_BEZIER_KNOTS.);
#1068 = CARTESIAN_POINT('',(0.12359032,0.36370993));
#1069 = CARTESIAN_POINT('',(9.6821986E-02,0.37757883));
#1070 = CARTESIAN_POINT('',(6.7554552E-02,0.39015375));
#1071 = CARTESIAN_POINT('',(3.5117886E-02,0.40082459));
#1072 = CARTESIAN_POINT('',(-1.249000902703E-16,0.40938328));
#1073 = ( GEOMETRIC_REPRESENTATION_CONTEXT(2) 
PARAMETRIC_REPRESENTATION_CONTEXT() REPRESENTATION_CONTEXT('2D SPACE',''
  ) );
#1074 = ORIENTED_EDGE('',*,*,#1075,.T.);
#1075 = EDGE_CURVE('',#1047,#1076,#1078,.T.);
#1076 = VERTEX_POINT('',#1077);
#1077 = CARTESIAN_POINT('',(23.313508,88.569825,-8.2989765));
#1078 = SURFACE_CURVE('',#1079,(#1086,#1095),.PCURVE_S1.);
#1079 = B_SPLINE_CURVE_WITH_KNOTS('',5,(#1080,#1081,#1082,#1083,#1084,
    #1085),.UNSPECIFIED.,.F.,.F.,(6,6),(0.,1.),
  .PIECEWISE_BEZIER_KNOTS.);
#1080 = CARTESIAN_POINT('',(24.329699,84.703813,-6.2344614));
#1081 = CARTESIAN_POINT('',(24.057531,85.403031,-6.7368857));
#1082 = CARTESIAN_POINT('',(23.81984,86.146048,-7.1971161));
#1083 = CARTESIAN_POINT('',(23.618408,86.927481,-7.6101032));
#1084 = CARTESIAN_POINT('',(23.450833,87.73765,-7.9764268));
#1085 = CARTESIAN_POINT('',(23.313508,88.569825,-8.2989765));
#1086 = PCURVE('',#951,#1087);
#1087 = DEFINITIONAL_REPRESENTATION('',(#1088),#1094);
#1088 = B_SPLINE_CURVE_WITH_KNOTS('',4,(#1089,#1090,#1091,#1092,#1093),
  .UNSPECIFIED.,.F.,.F.,(5,5),(0.,1.),.PIECEWISE_BEZIER_KNOTS.);
#1089 = CARTESIAN_POINT('',(0.51753822,0.16525193));
#1090 = CARTESIAN_POINT('',(0.64661602,0.16571598));
#1091 = CARTESIAN_POINT('',(0.77074764,0.16559103));
#1092 = CARTESIAN_POINT('',(0.88840113,0.16487398));
#1093 = CARTESIAN_POINT('',(1.,0.16373383));
#1094 = ( GEOMETRIC_REPRESENTATION_CONTEXT(2) 
PARAMETRIC_REPRESENTATION_CONTEXT() REPRESENTATION_CONTEXT('2D SPACE',''
  ) );
#1095 = PCURVE('',#1096,#1146);
#1096 = B_SPLINE_SURFACE_WITH_KNOTS('',6,6,(
    (#1097,#1098,#1099,#1100,#1101,#1102,#1103)
    ,(#1104,#1105,#1106,#1107,#1108,#1109,#1110)
    ,(#1111,#1112,#1113,#1114,#1115,#1116,#1117)
    ,(#1118,#1119,#1120,#1121,#1122,#1123,#1124)
    ,(#1125,#1126,#1127,#1128,#1129,#1130,#1131)
    ,(#1132,#1133,#1134,#1135,#1136,#1137,#1138)
    ,(#1139,#1140,#1141,#1142,#1143,#1144,#1145
  )),.UNSPECIFIED.,.F.,.F.,.F.,(7,7),(7,7),(0.,1.),(0.,1.),
  .PIECEWISE_BEZIER_KNOTS.);
#1097 = CARTESIAN_POINT('',(30.900018,107.67351,3.5204019));
#1098 = CARTESIAN_POINT('',(26.996732,108.0462,-3.2402881));
#1099 = CARTESIAN_POINT('',(23.093446,108.41889,-10.000978));
#1100 = CARTESIAN_POINT('',(19.19016,108.79158,-16.761668));
#1101 = CARTESIAN_POINT('',(15.286874,109.16427,-23.522358));
#1102 = CARTESIAN_POINT('',(11.383588,109.53695,-30.283048));
#1103 = CARTESIAN_POINT('',(7.4803014,109.90964,-37.043738));
#1104 = CARTESIAN_POINT('',(31.599097,103.85332,4.7312409));
#1105 = CARTESIAN_POINT('',(27.650745,104.16973,-2.1075046));
#1106 = CARTESIAN_POINT('',(23.702394,104.48614,-8.94625));
#1107 = CARTESIAN_POINT('',(19.754042,104.80255,-15.784995));
#1108 = CARTESIAN_POINT('',(15.805691,105.11896,-22.623741));
#1109 = CARTESIAN_POINT('',(11.857339,105.43538,-29.462486));
#1110 = CARTESIAN_POINT('',(7.9089876,105.75179,-36.301232));
#1111 = CARTESIAN_POINT('',(32.298175,100.03312,5.9420798));
#1112 = CARTESIAN_POINT('',(28.304758,100.29326,-0.97472107));
#1113 = CARTESIAN_POINT('',(24.311341,100.55339,-7.891522));
#1114 = CARTESIAN_POINT('',(20.317924,100.81353,-14.808323));
#1115 = CARTESIAN_POINT('',(16.324507,101.07366,-21.725124));
#1116 = CARTESIAN_POINT('',(12.331091,101.3338,-28.641925));
#1117 = CARTESIAN_POINT('',(8.3376737,101.59393,-35.558726));
#1118 = CARTESIAN_POINT('',(32.997253,96.21293,7.1529188));
#1119 = CARTESIAN_POINT('',(28.958771,96.416788,0.15806243));
#1120 = CARTESIAN_POINT('',(24.920289,96.620646,-6.8367939));
#1121 = CARTESIAN_POINT('',(20.510189,96.727016,-13.297932));
#1122 = CARTESIAN_POINT('',(16.843324,97.028362,-20.826507));
#1123 = CARTESIAN_POINT('',(12.804842,97.23222,-27.821363));
#1124 = CARTESIAN_POINT('',(8.7663598,97.436078,-34.816219));
#1125 = CARTESIAN_POINT('',(33.696331,92.392736,8.3637578));
#1126 = CARTESIAN_POINT('',(29.612784,92.540317,1.2908459));
#1127 = CARTESIAN_POINT('',(25.529236,92.687899,-5.7820659));
#1128 = CARTESIAN_POINT('',(20.516645,92.591759,-11.520682));
#1129 = CARTESIAN_POINT('',(17.362141,92.983061,-19.92789));
#1130 = CARTESIAN_POINT('',(13.278594,93.130642,-27.000801));
#1131 = CARTESIAN_POINT('',(9.195046,93.278223,-34.073713));
#1132 = CARTESIAN_POINT('',(34.395409,88.572543,9.5745967));
#1133 = CARTESIAN_POINT('',(30.266797,88.663847,2.4236294));
#1134 = CARTESIAN_POINT('',(26.138184,88.755151,-4.7273379));
#1135 = CARTESIAN_POINT('',(20.557941,88.465642,-9.7934678));
#1136 = CARTESIAN_POINT('',(17.880958,88.93776,-19.029272));
#1137 = CARTESIAN_POINT('',(13.752345,89.029064,-26.18024));
#1138 = CARTESIAN_POINT('',(9.6237321,89.120368,-33.331207));
#1139 = CARTESIAN_POINT('',(35.094488,84.75235,10.785436));
#1140 = CARTESIAN_POINT('',(30.920809,84.787377,3.5564129));
#1141 = CARTESIAN_POINT('',(26.747131,84.822404,-3.6726098));
#1142 = CARTESIAN_POINT('',(20.758915,84.381415,-8.2955859));
#1143 = CARTESIAN_POINT('',(18.399775,84.892459,-18.130655));
#1144 = CARTESIAN_POINT('',(14.226096,84.927486,-25.359678));
#1145 = CARTESIAN_POINT('',(10.052418,84.962513,-32.588701));
#1146 = DEFINITIONAL_REPRESENTATION('',(#1147),#1153);
#1147 = B_SPLINE_CURVE_WITH_KNOTS('',4,(#1148,#1149,#1150,#1151,#1152),
  .UNSPECIFIED.,.F.,.F.,(5,5),(0.,1.),.PIECEWISE_BEZIER_KNOTS.);
#1148 = CARTESIAN_POINT('',(1.,0.40938328));
#1149 = CARTESIAN_POINT('',(0.96341399,0.41829978));
#1150 = CARTESIAN_POINT('',(0.92388615,0.42492401));
#1151 = CARTESIAN_POINT('',(0.88207963,0.42913144));
#1152 = CARTESIAN_POINT('',(0.83878105,0.43130065));
#1153 = ( GEOMETRIC_REPRESENTATION_CONTEXT(2) 
PARAMETRIC_REPRESENTATION_CONTEXT() REPRESENTATION_CONTEXT('2D SPACE',''
  ) );
#1154 = ORIENTED_EDGE('',*,*,#1155,.T.);
#1155 = EDGE_CURVE('',#1076,#1025,#1156,.T.);
#1156 = SURFACE_CURVE('',#1157,(#1165,#1171),.PCURVE_S1.);
#1157 = B_SPLINE_CURVE_WITH_KNOTS('',6,(#1158,#1159,#1160,#1161,#1162,
    #1163,#1164),.UNSPECIFIED.,.F.,.F.,(7,7),(0.,1.),
  .PIECEWISE_BEZIER_KNOTS.);
#1158 = CARTESIAN_POINT('',(27.360949,88.569825,-10.835303));
#1159 = CARTESIAN_POINT('',(23.373557,88.569825,-8.0496611));
#1160 = CARTESIAN_POINT('',(19.045835,88.569825,-5.7511708));
#1161 = CARTESIAN_POINT('',(14.452171,88.569825,-3.9918041));
#1162 = CARTESIAN_POINT('',(9.6775849,88.569825,-2.8084004));
#1163 = CARTESIAN_POINT('',(4.8128895,88.569825,-2.2193531));
#1164 = CARTESIAN_POINT('',(-5.1169491E-02,88.569825,-2.2245628));
#1165 = PCURVE('',#951,#1166);
#1166 = DEFINITIONAL_REPRESENTATION('',(#1167),#1170);
#1167 = B_SPLINE_CURVE_WITH_KNOTS('',1,(#1168,#1169),.UNSPECIFIED.,.F.,
  .F.,(2,2),(0.,1.),.PIECEWISE_BEZIER_KNOTS.);
#1168 = CARTESIAN_POINT('',(1.,0.16373383));
#1169 = CARTESIAN_POINT('',(1.,1.));
#1170 = ( GEOMETRIC_REPRESENTATION_CONTEXT(2) 
PARAMETRIC_REPRESENTATION_CONTEXT() REPRESENTATION_CONTEXT('2D SPACE',''
  ) );
#1171 = PCURVE('',#1172,#1236);
#1172 = B_SPLINE_SURFACE_WITH_KNOTS('',8,6,(
    (#1173,#1174,#1175,#1176,#1177,#1178,#1179)
    ,(#1180,#1181,#1182,#1183,#1184,#1185,#1186)
    ,(#1187,#1188,#1189,#1190,#1191,#1192,#1193)
    ,(#1194,#1195,#1196,#1197,#1198,#1199,#1200)
    ,(#1201,#1202,#1203,#1204,#1205,#1206,#1207)
    ,(#1208,#1209,#1210,#1211,#1212,#1213,#1214)
    ,(#1215,#1216,#1217,#1218,#1219,#1220,#1221)
    ,(#1222,#1223,#1224,#1225,#1226,#1227,#1228)
    ,(#1229,#1230,#1231,#1232,#1233,#1234,#1235
  )),.UNSPECIFIED.,.F.,.F.,.F.,(9,9),(7,7),(0.,1.),(0.,1.),
  .PIECEWISE_BEZIER_KNOTS.);
#1173 = CARTESIAN_POINT('',(27.360949,88.569825,-10.835303));
#1174 = CARTESIAN_POINT('',(23.373557,88.569825,-8.0496611));
#1175 = CARTESIAN_POINT('',(19.045835,88.569825,-5.7511708));
#1176 = CARTESIAN_POINT('',(14.452171,88.569825,-3.9918041));
#1177 = CARTESIAN_POINT('',(9.6775849,88.569825,-2.8084004));
#1178 = CARTESIAN_POINT('',(4.8128895,88.569825,-2.2193531));
#1179 = CARTESIAN_POINT('',(-5.1169491E-02,88.569825,-2.2245628));
#1180 = CARTESIAN_POINT('',(27.093994,89.734956,-11.244105));
#1181 = CARTESIAN_POINT('',(23.148223,89.734956,-8.4856421));
#1182 = CARTESIAN_POINT('',(18.865441,89.734956,-6.2092459));
#1183 = CARTESIAN_POINT('',(14.319263,89.734956,-4.4663812));
#1184 = CARTESIAN_POINT('',(9.5938253,89.734956,-3.2935385));
#1185 = CARTESIAN_POINT('',(4.7790091,89.734956,-2.7089522));
#1186 = CARTESIAN_POINT('',(-3.5367148E-02,89.734956,-2.712553));
#1187 = CARTESIAN_POINT('',(26.864701,91.000227,-11.594325));
#1188 = CARTESIAN_POINT('',(22.954586,91.000227,-8.8592063));
#1189 = CARTESIAN_POINT('',(18.710313,91.000227,-6.6017984));
#1190 = CARTESIAN_POINT('',(14.204829,91.000227,-4.8731303));
#1191 = CARTESIAN_POINT('',(9.5215192,91.000227,-3.7093922));
#1192 = CARTESIAN_POINT('',(4.749463,91.000227,-3.1286814));
#1193 = CARTESIAN_POINT('',(-2.2315513E-02,91.000227,-3.1309534));
#1194 = CARTESIAN_POINT('',(26.676024,92.367274,-11.881243));
#1195 = CARTESIAN_POINT('',(22.79512,92.367274,-9.1653334));
#1196 = CARTESIAN_POINT('',(18.582406,92.367274,-6.9235659));
#1197 = CARTESIAN_POINT('',(14.110282,92.367274,-5.2066111));
#1198 = CARTESIAN_POINT('',(9.461516,92.367274,-4.0504115));
#1199 = CARTESIAN_POINT('',(4.724531,92.367274,-3.4729507));
#1200 = CARTESIAN_POINT('',(-1.2301002E-02,92.367274,-3.474203));
#1201 = CARTESIAN_POINT('',(26.530402,93.834454,-12.101217));
#1202 = CARTESIAN_POINT('',(22.671894,93.834454,-9.4001335));
#1203 = CARTESIAN_POINT('',(18.483386,93.834454,-7.1704558));
#1204 = CARTESIAN_POINT('',(14.036863,93.834454,-5.462578));
#1205 = CARTESIAN_POINT('',(9.4146168,93.834454,-4.312251));
#1206 = CARTESIAN_POINT('',(4.7045668,93.834454,-3.7373695));
#1207 = CARTESIAN_POINT('',(-5.415863E-03,93.834454,-3.7379209));
#1208 = CARTESIAN_POINT('',(26.429692,95.396069,-12.251895));
#1209 = CARTESIAN_POINT('',(22.586524,95.396069,-9.5610647));
#1210 = CARTESIAN_POINT('',(18.41461,95.396069,-7.3397663));
#1211 = CARTESIAN_POINT('',(13.985646,95.396069,-5.6382021));
#1212 = CARTESIAN_POINT('',(9.3816011,95.396069,-4.4919903));
#1213 = CARTESIAN_POINT('',(4.6900473,95.396069,-3.9189626));
#1214 = CARTESIAN_POINT('',(-1.4878745E-03,95.396069,-3.9191141));
#1215 = CARTESIAN_POINT('',(26.375129,97.041481,-12.332412));
#1216 = CARTESIAN_POINT('',(22.540159,97.041481,-9.6471373));
#1217 = CARTESIAN_POINT('',(18.377121,97.041481,-7.4303924));
#1218 = CARTESIAN_POINT('',(13.95756,97.041481,-5.7322766));
#1219 = CARTESIAN_POINT('',(9.3632678,97.041481,-4.5883355));
#1220 = CARTESIAN_POINT('',(4.6816339,97.041481,-4.016366));
#1221 = CARTESIAN_POINT('',(-7.1054274E-15,97.041481,-4.016366));
#1222 = CARTESIAN_POINT('',(26.367315,98.754106,-12.343571));
#1223 = CARTESIAN_POINT('',(22.533481,98.754106,-9.659092));
#1224 = CARTESIAN_POINT('',(18.371676,98.754106,-7.4430037));
#1225 = CARTESIAN_POINT('',(13.953425,98.754106,-5.7453911));
#1226 = CARTESIAN_POINT('',(9.360494,98.754106,-4.6017888));
#1227 = CARTESIAN_POINT('',(4.680247,98.754106,-4.0299888));
#1228 = CARTESIAN_POINT('',(-5.3290705E-15,98.754106,-4.0299888));
#1229 = CARTESIAN_POINT('',(26.40624,100.51025,-12.287981));
#1230 = CARTESIAN_POINT('',(22.566746,100.51025,-9.5995387));
#1231 = CARTESIAN_POINT('',(18.398798,100.51025,-7.380179));
#1232 = CARTESIAN_POINT('',(13.974023,100.51025,-5.6800602));
#1233 = CARTESIAN_POINT('',(9.3743124,100.51025,-4.5347697));
#1234 = CARTESIAN_POINT('',(4.6871562,100.51025,-3.9621256));
#1235 = CARTESIAN_POINT('',(-7.1054274E-15,100.51025,-3.9621256));
#1236 = DEFINITIONAL_REPRESENTATION('',(#1237),#1240);
#1237 = B_SPLINE_CURVE_WITH_KNOTS('',1,(#1238,#1239),.UNSPECIFIED.,.F.,
  .F.,(2,2),(0.,1.),.PIECEWISE_BEZIER_KNOTS.);
#1238 = CARTESIAN_POINT('',(0.,0.16373383));
#1239 = CARTESIAN_POINT('',(0.,1.));
#1240 = ( GEOMETRIC_REPRESENTATION_CONTEXT(2) 
PARAMETRIC_REPRESENTATION_CONTEXT() REPRESENTATION_CONTEXT('2D SPACE',''
  ) );
#1241 = ADVANCED_FACE('',(#1242),#1172,.T.);
#1242 = FACE_BOUND('',#1243,.T.);
#1243 = EDGE_LOOP('',(#1244,#1278,#1297,#1316));
#1244 = ORIENTED_EDGE('',*,*,#1245,.T.);
#1245 = EDGE_CURVE('',#1076,#1246,#1248,.T.);
#1246 = VERTEX_POINT('',#1247);
#1247 = CARTESIAN_POINT('',(22.948408,100.51025,-10.089394));
#1248 = SURFACE_CURVE('',#1249,(#1257,#1268),.PCURVE_S1.);
#1249 = B_SPLINE_CURVE_WITH_KNOTS('',6,(#1250,#1251,#1252,#1253,#1254,
    #1255,#1256),.UNSPECIFIED.,.F.,.F.,(7,7),(0.,1.),
  .PIECEWISE_BEZIER_KNOTS.);
#1250 = CARTESIAN_POINT('',(23.313508,88.569825,-8.2989765));
#1251 = CARTESIAN_POINT('',(23.004985,90.439449,-9.0236396));
#1252 = CARTESIAN_POINT('',(22.843392,92.415883,-9.5355788));
#1253 = CARTESIAN_POINT('',(22.791751,94.428013,-9.8651875));
#1254 = CARTESIAN_POINT('',(22.804777,96.45366,-10.059477));
#1255 = CARTESIAN_POINT('',(22.860239,98.483809,-10.129046));
#1256 = CARTESIAN_POINT('',(22.948408,100.51025,-10.089394));
#1257 = PCURVE('',#1172,#1258);
#1258 = DEFINITIONAL_REPRESENTATION('',(#1259),#1267);
#1259 = B_SPLINE_CURVE_WITH_KNOTS('',6,(#1260,#1261,#1262,#1263,#1264,
    #1265,#1266),.UNSPECIFIED.,.F.,.F.,(7,7),(0.,1.),
  .PIECEWISE_BEZIER_KNOTS.);
#1260 = CARTESIAN_POINT('',(0.,0.16373383));
#1261 = CARTESIAN_POINT('',(0.20058094,0.1616845));
#1262 = CARTESIAN_POINT('',(0.38350663,0.15839148));
#1263 = CARTESIAN_POINT('',(0.55036569,0.15447386));
#1264 = CARTESIAN_POINT('',(0.7069732,0.15070893));
#1265 = CARTESIAN_POINT('',(0.85575705,0.14777111));
#1266 = CARTESIAN_POINT('',(1.,0.14575152));
#1267 = ( GEOMETRIC_REPRESENTATION_CONTEXT(2) 
PARAMETRIC_REPRESENTATION_CONTEXT() REPRESENTATION_CONTEXT('2D SPACE',''
  ) );
#1268 = PCURVE('',#1096,#1269);
#1269 = DEFINITIONAL_REPRESENTATION('',(#1270),#1277);
#1270 = B_SPLINE_CURVE_WITH_KNOTS('',5,(#1271,#1272,#1273,#1274,#1275,
    #1276),.UNSPECIFIED.,.F.,.F.,(6,6),(0.,1.),
  .PIECEWISE_BEZIER_KNOTS.);
#1271 = CARTESIAN_POINT('',(0.83878105,0.43130065));
#1272 = CARTESIAN_POINT('',(0.74539447,0.43597922));
#1273 = CARTESIAN_POINT('',(0.6454063,0.43165987));
#1274 = CARTESIAN_POINT('',(0.54412717,0.42122412));
#1275 = CARTESIAN_POINT('',(0.44150472,0.40678239));
#1276 = CARTESIAN_POINT('',(0.33823595,0.38880049));
#1277 = ( GEOMETRIC_REPRESENTATION_CONTEXT(2) 
PARAMETRIC_REPRESENTATION_CONTEXT() REPRESENTATION_CONTEXT('2D SPACE',''
  ) );
#1278 = ORIENTED_EDGE('',*,*,#1279,.F.);
#1279 = EDGE_CURVE('',#1280,#1246,#1282,.T.);
#1280 = VERTEX_POINT('',#1281);
#1281 = CARTESIAN_POINT('',(0.,100.51025,-3.9621256));
#1282 = SURFACE_CURVE('',#1283,(#1291),.PCURVE_S1.);
#1283 = B_SPLINE_CURVE_WITH_KNOTS('',6,(#1284,#1285,#1286,#1287,#1288,
    #1289,#1290),.UNSPECIFIED.,.F.,.F.,(7,7),(0.,1.),
  .PIECEWISE_BEZIER_KNOTS.);
#1284 = CARTESIAN_POINT('',(0.,100.51025,-3.9621256));
#1285 = CARTESIAN_POINT('',(4.0039959,100.51025,-3.9621256));
#1286 = CARTESIAN_POINT('',(8.0079919,100.51025,-4.3800071));
#1287 = CARTESIAN_POINT('',(11.957476,100.51025,-5.2157717));
#1288 = CARTESIAN_POINT('',(15.797913,100.51025,-6.4599309));
#1289 = CARTESIAN_POINT('',(19.477311,100.51025,-8.09353));
#1290 = CARTESIAN_POINT('',(22.948407,100.51025,-10.089394));
#1291 = PCURVE('',#1172,#1292);
#1292 = DEFINITIONAL_REPRESENTATION('',(#1293),#1296);
#1293 = B_SPLINE_CURVE_WITH_KNOTS('',1,(#1294,#1295),.UNSPECIFIED.,.F.,
  .F.,(2,2),(0.,1.),.PIECEWISE_BEZIER_KNOTS.);
#1294 = CARTESIAN_POINT('',(1.,1.));
#1295 = CARTESIAN_POINT('',(1.,0.14575154));
#1296 = ( GEOMETRIC_REPRESENTATION_CONTEXT(2) 
PARAMETRIC_REPRESENTATION_CONTEXT() REPRESENTATION_CONTEXT('2D SPACE',''
  ) );
#1297 = ORIENTED_EDGE('',*,*,#1298,.T.);
#1298 = EDGE_CURVE('',#1280,#1025,#1299,.T.);
#1299 = SURFACE_CURVE('',#1300,(#1310),.PCURVE_S1.);
#1300 = B_SPLINE_CURVE_WITH_KNOTS('',8,(#1301,#1302,#1303,#1304,#1305,
    #1306,#1307,#1308,#1309),.UNSPECIFIED.,.F.,.F.,(9,9),(0.,1.),
  .PIECEWISE_BEZIER_KNOTS.);
#1301 = CARTESIAN_POINT('',(0.,100.51025,-3.9621256));
#1302 = CARTESIAN_POINT('',(-5.3290705E-16,98.754106,-4.0299888));
#1303 = CARTESIAN_POINT('',(-1.0152036E-15,97.041481,-4.016366));
#1304 = CARTESIAN_POINT('',(-1.4878745E-03,95.396069,-3.9191141));
#1305 = CARTESIAN_POINT('',(-5.415863E-03,93.834454,-3.7379209));
#1306 = CARTESIAN_POINT('',(-1.2301002E-02,92.367274,-3.474203));
#1307 = CARTESIAN_POINT('',(-2.2315513E-02,91.000227,-3.1309534));
#1308 = CARTESIAN_POINT('',(-3.5367148E-02,89.734956,-2.712553));
#1309 = CARTESIAN_POINT('',(-5.1169491E-02,88.569825,-2.2245628));
#1310 = PCURVE('',#1172,#1311);
#1311 = DEFINITIONAL_REPRESENTATION('',(#1312),#1315);
#1312 = B_SPLINE_CURVE_WITH_KNOTS('',1,(#1313,#1314),.UNSPECIFIED.,.F.,
  .F.,(2,2),(0.,1.),.PIECEWISE_BEZIER_KNOTS.);
#1313 = CARTESIAN_POINT('',(1.,1.));
#1314 = CARTESIAN_POINT('',(0.,1.));
#1315 = ( GEOMETRIC_REPRESENTATION_CONTEXT(2) 
PARAMETRIC_REPRESENTATION_CONTEXT() REPRESENTATION_CONTEXT('2D SPACE',''
  ) );
#1316 = ORIENTED_EDGE('',*,*,#1155,.F.);
#1317 = ADVANCED_FACE('',(#1318),#1096,.T.);
#1318 = FACE_BOUND('',#1319,.T.);
#1319 = EDGE_LOOP('',(#1320,#1344,#1367,#1368,#1369));
#1320 = ORIENTED_EDGE('',*,*,#1321,.F.);
#1321 = EDGE_CURVE('',#1322,#1324,#1326,.T.);
#1322 = VERTEX_POINT('',#1323);
#1323 = CARTESIAN_POINT('',(13.665694,100.75437,-26.261248));
#1324 = VERTEX_POINT('',#1325);
#1325 = CARTESIAN_POINT('',(15.861786,84.853707,-21.823816));
#1326 = SURFACE_CURVE('',#1327,(#1334),.PCURVE_S1.);
#1327 = B_SPLINE_CURVE_WITH_KNOTS('',5,(#1328,#1329,#1330,#1331,#1332,
    #1333),.UNSPECIFIED.,.F.,.F.,(6,6),(0.,1.),
  .PIECEWISE_BEZIER_KNOTS.);
#1328 = CARTESIAN_POINT('',(13.665694,100.75437,-26.261248));
#1329 = CARTESIAN_POINT('',(14.139118,97.574228,-25.373759));
#1330 = CARTESIAN_POINT('',(14.585665,94.394107,-24.486276));
#1331 = CARTESIAN_POINT('',(15.005484,91.213984,-23.598792));
#1332 = CARTESIAN_POINT('',(15.425437,88.033827,-22.711299));
#1333 = CARTESIAN_POINT('',(15.861786,84.853707,-21.823816));
#1334 = PCURVE('',#1096,#1335);
#1335 = DEFINITIONAL_REPRESENTATION('',(#1336),#1343);
#1336 = B_SPLINE_CURVE_WITH_KNOTS('',5,(#1337,#1338,#1339,#1340,#1341,
    #1342),.UNSPECIFIED.,.F.,.F.,(6,6),(0.,1.),
  .PIECEWISE_BEZIER_KNOTS.);
#1337 = CARTESIAN_POINT('',(0.35329945,0.77916512));
#1338 = CARTESIAN_POINT('',(0.48257468,0.77433449));
#1339 = CARTESIAN_POINT('',(0.61185994,0.77011924));
#1340 = CARTESIAN_POINT('',(0.74111619,0.76648033));
#1341 = CARTESIAN_POINT('',(0.87046078,0.76291623));
#1342 = CARTESIAN_POINT('',(1.,0.75915799));
#1343 = ( GEOMETRIC_REPRESENTATION_CONTEXT(2) 
PARAMETRIC_REPRESENTATION_CONTEXT() REPRESENTATION_CONTEXT('2D SPACE',''
  ) );
#1344 = ORIENTED_EDGE('',*,*,#1345,.T.);
#1345 = EDGE_CURVE('',#1322,#1246,#1346,.T.);
#1346 = SURFACE_CURVE('',#1347,(#1361),.PCURVE_S1.);
#1347 = B_SPLINE_CURVE_WITH_KNOTS('',12,(#1348,#1349,#1350,#1351,#1352,
    #1353,#1354,#1355,#1356,#1357,#1358,#1359,#1360),.UNSPECIFIED.,.F.,
  .F.,(13,13),(0.,1.),.PIECEWISE_BEZIER_KNOTS.);
#1348 = CARTESIAN_POINT('',(13.665694,100.75437,-26.261248));
#1349 = CARTESIAN_POINT('',(14.435807,100.7339,-24.906124));
#1350 = CARTESIAN_POINT('',(15.205197,100.71311,-23.550421));
#1351 = CARTESIAN_POINT('',(15.974353,100.69211,-22.19484));
#1352 = CARTESIAN_POINT('',(16.743824,100.67105,-20.840168));
#1353 = CARTESIAN_POINT('',(17.514133,100.65007,-19.487158));
#1354 = CARTESIAN_POINT('',(18.285713,100.62928,-18.136432));
#1355 = CARTESIAN_POINT('',(19.058869,100.60876,-16.788427));
#1356 = CARTESIAN_POINT('',(19.833751,100.58855,-15.443358));
#1357 = CARTESIAN_POINT('',(20.610353,100.56865,-14.101219));
#1358 = CARTESIAN_POINT('',(21.388526,100.54902,-12.761793));
#1359 = CARTESIAN_POINT('',(22.167996,100.52958,-11.424689));
#1360 = CARTESIAN_POINT('',(22.948408,100.51025,-10.089394));
#1361 = PCURVE('',#1096,#1362);
#1362 = DEFINITIONAL_REPRESENTATION('',(#1363),#1366);
#1363 = B_SPLINE_CURVE_WITH_KNOTS('',1,(#1364,#1365),.UNSPECIFIED.,.F.,
  .F.,(2,2),(0.,1.),.PIECEWISE_BEZIER_KNOTS.);
#1364 = CARTESIAN_POINT('',(0.35329945,0.77916512));
#1365 = CARTESIAN_POINT('',(0.33823594,0.38880049));
#1366 = ( GEOMETRIC_REPRESENTATION_CONTEXT(2) 
PARAMETRIC_REPRESENTATION_CONTEXT() REPRESENTATION_CONTEXT('2D SPACE',''
  ) );
#1367 = ORIENTED_EDGE('',*,*,#1245,.F.);
#1368 = ORIENTED_EDGE('',*,*,#1075,.F.);
#1369 = ORIENTED_EDGE('',*,*,#1370,.T.);
#1370 = EDGE_CURVE('',#1047,#1324,#1371,.T.);
#1371 = SURFACE_CURVE('',#1372,(#1380,#1386),.PCURVE_S1.);
#1372 = B_SPLINE_CURVE_WITH_KNOTS('',6,(#1373,#1374,#1375,#1376,#1377,
    #1378,#1379),.UNSPECIFIED.,.F.,.F.,(7,7),(0.,1.),
  .PIECEWISE_BEZIER_KNOTS.);
#1373 = CARTESIAN_POINT('',(35.094488,84.75235,10.785436));
#1374 = CARTESIAN_POINT('',(30.920809,84.787377,3.5564129));
#1375 = CARTESIAN_POINT('',(26.747131,84.822404,-3.6726098));
#1376 = CARTESIAN_POINT('',(20.758915,84.381415,-8.2955859));
#1377 = CARTESIAN_POINT('',(18.399775,84.892459,-18.130655));
#1378 = CARTESIAN_POINT('',(14.226096,84.927486,-25.359678));
#1379 = CARTESIAN_POINT('',(10.052418,84.962513,-32.588701));
#1380 = PCURVE('',#1096,#1381);
#1381 = DEFINITIONAL_REPRESENTATION('',(#1382),#1385);
#1382 = B_SPLINE_CURVE_WITH_KNOTS('',1,(#1383,#1384),.UNSPECIFIED.,.F.,
  .F.,(2,2),(0.,1.),.PIECEWISE_BEZIER_KNOTS.);
#1383 = CARTESIAN_POINT('',(1.,0.40938328));
#1384 = CARTESIAN_POINT('',(1.,0.75915799));
#1385 = ( GEOMETRIC_REPRESENTATION_CONTEXT(2) 
PARAMETRIC_REPRESENTATION_CONTEXT() REPRESENTATION_CONTEXT('2D SPACE',''
  ) );
#1386 = PCURVE('',#386,#1387);
#1387 = DEFINITIONAL_REPRESENTATION('',(#1388),#1391);
#1388 = B_SPLINE_CURVE_WITH_KNOTS('',1,(#1389,#1390),.UNSPECIFIED.,.F.,
  .F.,(2,2),(0.,1.),.PIECEWISE_BEZIER_KNOTS.);
#1389 = CARTESIAN_POINT('',(0.,0.40938328));
#1390 = CARTESIAN_POINT('',(0.,0.75915799));
#1391 = ( GEOMETRIC_REPRESENTATION_CONTEXT(2) 
PARAMETRIC_REPRESENTATION_CONTEXT() REPRESENTATION_CONTEXT('2D SPACE',''
  ) );
#1392 = ADVANCED_FACE('',(#1393),#386,.T.);
#1393 = FACE_BOUND('',#1394,.T.);
#1394 = EDGE_LOOP('',(#1395,#1415,#1416,#1417,#1418,#1419,#1420,#1421));
#1395 = ORIENTED_EDGE('',*,*,#1396,.F.);
#1396 = EDGE_CURVE('',#1324,#353,#1397,.T.);
#1397 = SURFACE_CURVE('',#1398,(#1405),.PCURVE_S1.);
#1398 = B_SPLINE_CURVE_WITH_KNOTS('',5,(#1399,#1400,#1401,#1402,#1403,
    #1404),.UNSPECIFIED.,.F.,.F.,(6,6),(0.,1.),
  .PIECEWISE_BEZIER_KNOTS.);
#1399 = CARTESIAN_POINT('',(15.861786,84.853707,-21.823816));
#1400 = CARTESIAN_POINT('',(16.530592,79.979436,-20.463543));
#1401 = CARTESIAN_POINT('',(17.237619,75.105195,-19.103285));
#1402 = CARTESIAN_POINT('',(18.048121,70.231279,-17.743098));
#1403 = CARTESIAN_POINT('',(18.981237,65.356635,-16.382727));
#1404 = CARTESIAN_POINT('',(19.917273,60.482595,-15.022518));
#1405 = PCURVE('',#386,#1406);
#1406 = DEFINITIONAL_REPRESENTATION('',(#1407),#1414);
#1407 = B_SPLINE_CURVE_WITH_KNOTS('',5,(#1408,#1409,#1410,#1411,#1412,
    #1413),.UNSPECIFIED.,.F.,.F.,(6,6),(0.,1.),
  .PIECEWISE_BEZIER_KNOTS.);
#1408 = CARTESIAN_POINT('',(9.9276143E-13,0.75915799));
#1409 = CARTESIAN_POINT('',(0.19854889,0.75339763));
#1410 = CARTESIAN_POINT('',(0.3975558,0.74718666));
#1411 = CARTESIAN_POINT('',(0.59740657,0.73940951));
#1412 = CARTESIAN_POINT('',(0.79852432,0.72997741));
#1413 = CARTESIAN_POINT('',(1.,0.72082039));
#1414 = ( GEOMETRIC_REPRESENTATION_CONTEXT(2) 
PARAMETRIC_REPRESENTATION_CONTEXT() REPRESENTATION_CONTEXT('2D SPACE',''
  ) );
#1415 = ORIENTED_EDGE('',*,*,#1370,.F.);
#1416 = ORIENTED_EDGE('',*,*,#1046,.F.);
#1417 = ORIENTED_EDGE('',*,*,#902,.F.);
#1418 = ORIENTED_EDGE('',*,*,#756,.F.);
#1419 = ORIENTED_EDGE('',*,*,#609,.F.);
#1420 = ORIENTED_EDGE('',*,*,#468,.F.);
#1421 = ORIENTED_EDGE('',*,*,#369,.T.);
#1422 = ( GEOMETRIC_REPRESENTATION_CONTEXT(3) 
GLOBAL_UNCERTAINTY_ASSIGNED_CONTEXT((#1426)) 
GLOBAL_UNIT_ASSIGNED_CONTEXT((#1423,#1424,#1425)) REPRESENTATION_CONTEXT
('Context #1','3D Context with UNIT and UNCERTAINTY') );
#1423 = ( LENGTH_UNIT() NAMED_UNIT(*) SI_UNIT(.MILLI.,.METRE.) );
#1424 = ( NAMED_UNIT(*) PLANE_ANGLE_UNIT() SI_UNIT($,.RADIAN.) );
#1425 = ( NAMED_UNIT(*) SI_UNIT($,.STERADIAN.) SOLID_ANGLE_UNIT() );
#1426 = UNCERTAINTY_MEASURE_WITH_UNIT(LENGTH_MEASURE(1.E-03),#1423,
  'distance_accuracy_value','confusion accuracy');
#1427 = PRODUCT_RELATED_PRODUCT_CATEGORY('part',$,(#7));
ENDSEC;
END-ISO-10303-21;
