ISO-10303-21;
HEADER;
FILE_DESCRIPTION(('Open CASCADE Model'),'2;1');
FILE_NAME('Open CASCADE Shape Model','2026-07-11T20:16:04',('Author'),(
    'Open CASCADE'),'Open CASCADE STEP processor 8.0','Open CASCADE 8.0'
  ,'Unknown');
FILE_SCHEMA(('AUTOMOTIVE_DESIGN { 1 0 10303 214 1 1 1 1 }'));
ENDSEC;
DATA;
#1 = APPLICATION_PROTOCOL_DEFINITION('international standard',
  'automotive_design',2000,#2);
#2 = APPLICATION_CONTEXT(
  'core data for automotive mechanical design processes');
#3 = SHAPE_DEFINITION_REPRESENTATION(#4,#10);
#4 = PRODUCT_DEFINITION_SHAPE('','',#5);
#5 = PRODUCT_DEFINITION('design','',#6,#9);
#6 = PRODUCT_DEFINITION_FORMATION('','',#7);
#7 = PRODUCT('Open CASCADE STEP translator 8.0 1',
  'Open CASCADE STEP translator 8.0 1','',(#8));
#8 = PRODUCT_CONTEXT('',#2,'mechanical');
#9 = PRODUCT_DEFINITION_CONTEXT('part definition',#2,'design');
#10 = ADVANCED_BREP_SHAPE_REPRESENTATION('',(#11,#15),#858);
#11 = AXIS2_PLACEMENT_3D('',#12,#13,#14);
#12 = CARTESIAN_POINT('',(0.,0.,0.));
#13 = DIRECTION('',(0.,0.,1.));
#14 = DIRECTION('',(1.,0.,-0.));
#15 = MANIFOLD_SOLID_BREP('',#16);
#16 = CLOSED_SHELL('',(#17,#137,#213,#262,#311,#607,#614,#854));
#17 = ADVANCED_FACE('',(#18),#32,.F.);
#18 = FACE_BOUND('',#19,.F.);
#19 = EDGE_LOOP('',(#20,#55,#83,#111));
#20 = ORIENTED_EDGE('',*,*,#21,.F.);
#21 = EDGE_CURVE('',#22,#24,#26,.T.);
#22 = VERTEX_POINT('',#23);
#23 = CARTESIAN_POINT('',(-15.,-15.,-15.));
#24 = VERTEX_POINT('',#25);
#25 = CARTESIAN_POINT('',(-15.,-15.,15.));
#26 = SURFACE_CURVE('',#27,(#31,#43),.PCURVE_S1.);
#27 = LINE('',#28,#29);
#28 = CARTESIAN_POINT('',(-15.,-15.,-15.));
#29 = VECTOR('',#30,1.);
#30 = DIRECTION('',(0.,0.,1.));
#31 = PCURVE('',#32,#37);
#32 = PLANE('',#33);
#33 = AXIS2_PLACEMENT_3D('',#34,#35,#36);
#34 = CARTESIAN_POINT('',(-15.,-15.,-15.));
#35 = DIRECTION('',(1.,0.,-0.));
#36 = DIRECTION('',(0.,0.,1.));
#37 = DEFINITIONAL_REPRESENTATION('',(#38),#42);
#38 = LINE('',#39,#40);
#39 = CARTESIAN_POINT('',(0.,0.));
#40 = VECTOR('',#41,1.);
#41 = DIRECTION('',(1.,0.));
#42 = ( GEOMETRIC_REPRESENTATION_CONTEXT(2) 
PARAMETRIC_REPRESENTATION_CONTEXT() REPRESENTATION_CONTEXT('2D SPACE',''
  ) );
#43 = PCURVE('',#44,#49);
#44 = PLANE('',#45);
#45 = AXIS2_PLACEMENT_3D('',#46,#47,#48);
#46 = CARTESIAN_POINT('',(-15.,-15.,-15.));
#47 = DIRECTION('',(-0.,1.,0.));
#48 = DIRECTION('',(0.,0.,1.));
#49 = DEFINITIONAL_REPRESENTATION('',(#50),#54);
#50 = LINE('',#51,#52);
#51 = CARTESIAN_POINT('',(0.,0.));
#52 = VECTOR('',#53,1.);
#53 = DIRECTION('',(1.,0.));
#54 = ( GEOMETRIC_REPRESENTATION_CONTEXT(2) 
PARAMETRIC_REPRESENTATION_CONTEXT() REPRESENTATION_CONTEXT('2D SPACE',''
  ) );
#55 = ORIENTED_EDGE('',*,*,#56,.T.);
#56 = EDGE_CURVE('',#22,#57,#59,.T.);
#57 = VERTEX_POINT('',#58);
#58 = CARTESIAN_POINT('',(-15.,15.,-15.));
#59 = SURFACE_CURVE('',#60,(#64,#71),.PCURVE_S1.);
#60 = LINE('',#61,#62);
#61 = CARTESIAN_POINT('',(-15.,-15.,-15.));
#62 = VECTOR('',#63,1.);
#63 = DIRECTION('',(-0.,1.,0.));
#64 = PCURVE('',#32,#65);
#65 = DEFINITIONAL_REPRESENTATION('',(#66),#70);
#66 = LINE('',#67,#68);
#67 = CARTESIAN_POINT('',(0.,0.));
#68 = VECTOR('',#69,1.);
#69 = DIRECTION('',(0.,-1.));
#70 = ( GEOMETRIC_REPRESENTATION_CONTEXT(2) 
PARAMETRIC_REPRESENTATION_CONTEXT() REPRESENTATION_CONTEXT('2D SPACE',''
  ) );
#71 = PCURVE('',#72,#77);
#72 = PLANE('',#73);
#73 = AXIS2_PLACEMENT_3D('',#74,#75,#76);
#74 = CARTESIAN_POINT('',(-15.,-15.,-15.));
#75 = DIRECTION('',(0.,0.,1.));
#76 = DIRECTION('',(1.,0.,-0.));
#77 = DEFINITIONAL_REPRESENTATION('',(#78),#82);
#78 = LINE('',#79,#80);
#79 = CARTESIAN_POINT('',(0.,0.));
#80 = VECTOR('',#81,1.);
#81 = DIRECTION('',(0.,1.));
#82 = ( GEOMETRIC_REPRESENTATION_CONTEXT(2) 
PARAMETRIC_REPRESENTATION_CONTEXT() REPRESENTATION_CONTEXT('2D SPACE',''
  ) );
#83 = ORIENTED_EDGE('',*,*,#84,.T.);
#84 = EDGE_CURVE('',#57,#85,#87,.T.);
#85 = VERTEX_POINT('',#86);
#86 = CARTESIAN_POINT('',(-15.,15.,15.));
#87 = SURFACE_CURVE('',#88,(#92,#99),.PCURVE_S1.);
#88 = LINE('',#89,#90);
#89 = CARTESIAN_POINT('',(-15.,15.,-15.));
#90 = VECTOR('',#91,1.);
#91 = DIRECTION('',(0.,0.,1.));
#92 = PCURVE('',#32,#93);
#93 = DEFINITIONAL_REPRESENTATION('',(#94),#98);
#94 = LINE('',#95,#96);
#95 = CARTESIAN_POINT('',(0.,-30.));
#96 = VECTOR('',#97,1.);
#97 = DIRECTION('',(1.,0.));
#98 = ( GEOMETRIC_REPRESENTATION_CONTEXT(2) 
PARAMETRIC_REPRESENTATION_CONTEXT() REPRESENTATION_CONTEXT('2D SPACE',''
  ) );
#99 = PCURVE('',#100,#105);
#100 = PLANE('',#101);
#101 = AXIS2_PLACEMENT_3D('',#102,#103,#104);
#102 = CARTESIAN_POINT('',(-15.,15.,-15.));
#103 = DIRECTION('',(-0.,1.,0.));
#104 = DIRECTION('',(0.,0.,1.));
#105 = DEFINITIONAL_REPRESENTATION('',(#106),#110);
#106 = LINE('',#107,#108);
#107 = CARTESIAN_POINT('',(0.,0.));
#108 = VECTOR('',#109,1.);
#109 = DIRECTION('',(1.,0.));
#110 = ( GEOMETRIC_REPRESENTATION_CONTEXT(2) 
PARAMETRIC_REPRESENTATION_CONTEXT() REPRESENTATION_CONTEXT('2D SPACE',''
  ) );
#111 = ORIENTED_EDGE('',*,*,#112,.F.);
#112 = EDGE_CURVE('',#24,#85,#113,.T.);
#113 = SURFACE_CURVE('',#114,(#118,#125),.PCURVE_S1.);
#114 = LINE('',#115,#116);
#115 = CARTESIAN_POINT('',(-15.,-15.,15.));
#116 = VECTOR('',#117,1.);
#117 = DIRECTION('',(-0.,1.,0.));
#118 = PCURVE('',#32,#119);
#119 = DEFINITIONAL_REPRESENTATION('',(#120),#124);
#120 = LINE('',#121,#122);
#121 = CARTESIAN_POINT('',(30.,0.));
#122 = VECTOR('',#123,1.);
#123 = DIRECTION('',(0.,-1.));
#124 = ( GEOMETRIC_REPRESENTATION_CONTEXT(2) 
PARAMETRIC_REPRESENTATION_CONTEXT() REPRESENTATION_CONTEXT('2D SPACE',''
  ) );
#125 = PCURVE('',#126,#131);
#126 = PLANE('',#127);
#127 = AXIS2_PLACEMENT_3D('',#128,#129,#130);
#128 = CARTESIAN_POINT('',(-15.,-15.,15.));
#129 = DIRECTION('',(0.,0.,1.));
#130 = DIRECTION('',(1.,0.,-0.));
#131 = DEFINITIONAL_REPRESENTATION('',(#132),#136);
#132 = LINE('',#133,#134);
#133 = CARTESIAN_POINT('',(0.,0.));
#134 = VECTOR('',#135,1.);
#135 = DIRECTION('',(0.,1.));
#136 = ( GEOMETRIC_REPRESENTATION_CONTEXT(2) 
PARAMETRIC_REPRESENTATION_CONTEXT() REPRESENTATION_CONTEXT('2D SPACE',''
  ) );
#137 = ADVANCED_FACE('',(#138),#44,.F.);
#138 = FACE_BOUND('',#139,.F.);
#139 = EDGE_LOOP('',(#140,#163,#164,#187));
#140 = ORIENTED_EDGE('',*,*,#141,.F.);
#141 = EDGE_CURVE('',#22,#142,#144,.T.);
#142 = VERTEX_POINT('',#143);
#143 = CARTESIAN_POINT('',(0.,-15.,-15.));
#144 = SURFACE_CURVE('',#145,(#149,#156),.PCURVE_S1.);
#145 = LINE('',#146,#147);
#146 = CARTESIAN_POINT('',(-15.,-15.,-15.));
#147 = VECTOR('',#148,1.);
#148 = DIRECTION('',(1.,0.,-0.));
#149 = PCURVE('',#44,#150);
#150 = DEFINITIONAL_REPRESENTATION('',(#151),#155);
#151 = LINE('',#152,#153);
#152 = CARTESIAN_POINT('',(0.,0.));
#153 = VECTOR('',#154,1.);
#154 = DIRECTION('',(0.,1.));
#155 = ( GEOMETRIC_REPRESENTATION_CONTEXT(2) 
PARAMETRIC_REPRESENTATION_CONTEXT() REPRESENTATION_CONTEXT('2D SPACE',''
  ) );
#156 = PCURVE('',#72,#157);
#157 = DEFINITIONAL_REPRESENTATION('',(#158),#162);
#158 = LINE('',#159,#160);
#159 = CARTESIAN_POINT('',(0.,0.));
#160 = VECTOR('',#161,1.);
#161 = DIRECTION('',(1.,0.));
#162 = ( GEOMETRIC_REPRESENTATION_CONTEXT(2) 
PARAMETRIC_REPRESENTATION_CONTEXT() REPRESENTATION_CONTEXT('2D SPACE',''
  ) );
#163 = ORIENTED_EDGE('',*,*,#21,.T.);
#164 = ORIENTED_EDGE('',*,*,#165,.T.);
#165 = EDGE_CURVE('',#24,#166,#168,.T.);
#166 = VERTEX_POINT('',#167);
#167 = CARTESIAN_POINT('',(0.,-15.,15.));
#168 = SURFACE_CURVE('',#169,(#173,#180),.PCURVE_S1.);
#169 = LINE('',#170,#171);
#170 = CARTESIAN_POINT('',(-15.,-15.,15.));
#171 = VECTOR('',#172,1.);
#172 = DIRECTION('',(1.,0.,-0.));
#173 = PCURVE('',#44,#174);
#174 = DEFINITIONAL_REPRESENTATION('',(#175),#179);
#175 = LINE('',#176,#177);
#176 = CARTESIAN_POINT('',(30.,0.));
#177 = VECTOR('',#178,1.);
#178 = DIRECTION('',(0.,1.));
#179 = ( GEOMETRIC_REPRESENTATION_CONTEXT(2) 
PARAMETRIC_REPRESENTATION_CONTEXT() REPRESENTATION_CONTEXT('2D SPACE',''
  ) );
#180 = PCURVE('',#126,#181);
#181 = DEFINITIONAL_REPRESENTATION('',(#182),#186);
#182 = LINE('',#183,#184);
#183 = CARTESIAN_POINT('',(0.,0.));
#184 = VECTOR('',#185,1.);
#185 = DIRECTION('',(1.,0.));
#186 = ( GEOMETRIC_REPRESENTATION_CONTEXT(2) 
PARAMETRIC_REPRESENTATION_CONTEXT() REPRESENTATION_CONTEXT('2D SPACE',''
  ) );
#187 = ORIENTED_EDGE('',*,*,#188,.F.);
#188 = EDGE_CURVE('',#142,#166,#189,.T.);
#189 = SURFACE_CURVE('',#190,(#194,#201),.PCURVE_S1.);
#190 = LINE('',#191,#192);
#191 = CARTESIAN_POINT('',(0.,-15.,-15.));
#192 = VECTOR('',#193,1.);
#193 = DIRECTION('',(0.,0.,1.));
#194 = PCURVE('',#44,#195);
#195 = DEFINITIONAL_REPRESENTATION('',(#196),#200);
#196 = LINE('',#197,#198);
#197 = CARTESIAN_POINT('',(0.,15.));
#198 = VECTOR('',#199,1.);
#199 = DIRECTION('',(1.,0.));
#200 = ( GEOMETRIC_REPRESENTATION_CONTEXT(2) 
PARAMETRIC_REPRESENTATION_CONTEXT() REPRESENTATION_CONTEXT('2D SPACE',''
  ) );
#201 = PCURVE('',#202,#207);
#202 = PLANE('',#203);
#203 = AXIS2_PLACEMENT_3D('',#204,#205,#206);
#204 = CARTESIAN_POINT('',(0.,-15.,-15.));
#205 = DIRECTION('',(1.,0.,-0.));
#206 = DIRECTION('',(0.,0.,1.));
#207 = DEFINITIONAL_REPRESENTATION('',(#208),#212);
#208 = LINE('',#209,#210);
#209 = CARTESIAN_POINT('',(0.,0.));
#210 = VECTOR('',#211,1.);
#211 = DIRECTION('',(1.,0.));
#212 = ( GEOMETRIC_REPRESENTATION_CONTEXT(2) 
PARAMETRIC_REPRESENTATION_CONTEXT() REPRESENTATION_CONTEXT('2D SPACE',''
  ) );
#213 = ADVANCED_FACE('',(#214),#72,.F.);
#214 = FACE_BOUND('',#215,.F.);
#215 = EDGE_LOOP('',(#216,#217,#218,#241));
#216 = ORIENTED_EDGE('',*,*,#56,.F.);
#217 = ORIENTED_EDGE('',*,*,#141,.T.);
#218 = ORIENTED_EDGE('',*,*,#219,.T.);
#219 = EDGE_CURVE('',#142,#220,#222,.T.);
#220 = VERTEX_POINT('',#221);
#221 = CARTESIAN_POINT('',(0.,15.,-15.));
#222 = SURFACE_CURVE('',#223,(#227,#234),.PCURVE_S1.);
#223 = LINE('',#224,#225);
#224 = CARTESIAN_POINT('',(0.,-15.,-15.));
#225 = VECTOR('',#226,1.);
#226 = DIRECTION('',(-0.,1.,0.));
#227 = PCURVE('',#72,#228);
#228 = DEFINITIONAL_REPRESENTATION('',(#229),#233);
#229 = LINE('',#230,#231);
#230 = CARTESIAN_POINT('',(15.,0.));
#231 = VECTOR('',#232,1.);
#232 = DIRECTION('',(0.,1.));
#233 = ( GEOMETRIC_REPRESENTATION_CONTEXT(2) 
PARAMETRIC_REPRESENTATION_CONTEXT() REPRESENTATION_CONTEXT('2D SPACE',''
  ) );
#234 = PCURVE('',#202,#235);
#235 = DEFINITIONAL_REPRESENTATION('',(#236),#240);
#236 = LINE('',#237,#238);
#237 = CARTESIAN_POINT('',(0.,0.));
#238 = VECTOR('',#239,1.);
#239 = DIRECTION('',(0.,-1.));
#240 = ( GEOMETRIC_REPRESENTATION_CONTEXT(2) 
PARAMETRIC_REPRESENTATION_CONTEXT() REPRESENTATION_CONTEXT('2D SPACE',''
  ) );
#241 = ORIENTED_EDGE('',*,*,#242,.F.);
#242 = EDGE_CURVE('',#57,#220,#243,.T.);
#243 = SURFACE_CURVE('',#244,(#248,#255),.PCURVE_S1.);
#244 = LINE('',#245,#246);
#245 = CARTESIAN_POINT('',(-15.,15.,-15.));
#246 = VECTOR('',#247,1.);
#247 = DIRECTION('',(1.,0.,-0.));
#248 = PCURVE('',#72,#249);
#249 = DEFINITIONAL_REPRESENTATION('',(#250),#254);
#250 = LINE('',#251,#252);
#251 = CARTESIAN_POINT('',(0.,30.));
#252 = VECTOR('',#253,1.);
#253 = DIRECTION('',(1.,0.));
#254 = ( GEOMETRIC_REPRESENTATION_CONTEXT(2) 
PARAMETRIC_REPRESENTATION_CONTEXT() REPRESENTATION_CONTEXT('2D SPACE',''
  ) );
#255 = PCURVE('',#100,#256);
#256 = DEFINITIONAL_REPRESENTATION('',(#257),#261);
#257 = LINE('',#258,#259);
#258 = CARTESIAN_POINT('',(0.,0.));
#259 = VECTOR('',#260,1.);
#260 = DIRECTION('',(0.,1.));
#261 = ( GEOMETRIC_REPRESENTATION_CONTEXT(2) 
PARAMETRIC_REPRESENTATION_CONTEXT() REPRESENTATION_CONTEXT('2D SPACE',''
  ) );
#262 = ADVANCED_FACE('',(#263),#100,.T.);
#263 = FACE_BOUND('',#264,.T.);
#264 = EDGE_LOOP('',(#265,#266,#267,#290));
#265 = ORIENTED_EDGE('',*,*,#242,.F.);
#266 = ORIENTED_EDGE('',*,*,#84,.T.);
#267 = ORIENTED_EDGE('',*,*,#268,.T.);
#268 = EDGE_CURVE('',#85,#269,#271,.T.);
#269 = VERTEX_POINT('',#270);
#270 = CARTESIAN_POINT('',(0.,15.,15.));
#271 = SURFACE_CURVE('',#272,(#276,#283),.PCURVE_S1.);
#272 = LINE('',#273,#274);
#273 = CARTESIAN_POINT('',(-15.,15.,15.));
#274 = VECTOR('',#275,1.);
#275 = DIRECTION('',(1.,0.,-0.));
#276 = PCURVE('',#100,#277);
#277 = DEFINITIONAL_REPRESENTATION('',(#278),#282);
#278 = LINE('',#279,#280);
#279 = CARTESIAN_POINT('',(30.,0.));
#280 = VECTOR('',#281,1.);
#281 = DIRECTION('',(0.,1.));
#282 = ( GEOMETRIC_REPRESENTATION_CONTEXT(2) 
PARAMETRIC_REPRESENTATION_CONTEXT() REPRESENTATION_CONTEXT('2D SPACE',''
  ) );
#283 = PCURVE('',#126,#284);
#284 = DEFINITIONAL_REPRESENTATION('',(#285),#289);
#285 = LINE('',#286,#287);
#286 = CARTESIAN_POINT('',(0.,30.));
#287 = VECTOR('',#288,1.);
#288 = DIRECTION('',(1.,0.));
#289 = ( GEOMETRIC_REPRESENTATION_CONTEXT(2) 
PARAMETRIC_REPRESENTATION_CONTEXT() REPRESENTATION_CONTEXT('2D SPACE',''
  ) );
#290 = ORIENTED_EDGE('',*,*,#291,.F.);
#291 = EDGE_CURVE('',#220,#269,#292,.T.);
#292 = SURFACE_CURVE('',#293,(#297,#304),.PCURVE_S1.);
#293 = LINE('',#294,#295);
#294 = CARTESIAN_POINT('',(0.,15.,-15.));
#295 = VECTOR('',#296,1.);
#296 = DIRECTION('',(0.,0.,1.));
#297 = PCURVE('',#100,#298);
#298 = DEFINITIONAL_REPRESENTATION('',(#299),#303);
#299 = LINE('',#300,#301);
#300 = CARTESIAN_POINT('',(0.,15.));
#301 = VECTOR('',#302,1.);
#302 = DIRECTION('',(1.,0.));
#303 = ( GEOMETRIC_REPRESENTATION_CONTEXT(2) 
PARAMETRIC_REPRESENTATION_CONTEXT() REPRESENTATION_CONTEXT('2D SPACE',''
  ) );
#304 = PCURVE('',#202,#305);
#305 = DEFINITIONAL_REPRESENTATION('',(#306),#310);
#306 = LINE('',#307,#308);
#307 = CARTESIAN_POINT('',(0.,-30.));
#308 = VECTOR('',#309,1.);
#309 = DIRECTION('',(1.,0.));
#310 = ( GEOMETRIC_REPRESENTATION_CONTEXT(2) 
PARAMETRIC_REPRESENTATION_CONTEXT() REPRESENTATION_CONTEXT('2D SPACE',''
  ) );
#311 = ADVANCED_FACE('',(#312,#338),#202,.T.);
#312 = FACE_BOUND('',#313,.T.);
#313 = EDGE_LOOP('',(#314,#315,#316,#317));
#314 = ORIENTED_EDGE('',*,*,#188,.F.);
#315 = ORIENTED_EDGE('',*,*,#219,.T.);
#316 = ORIENTED_EDGE('',*,*,#291,.T.);
#317 = ORIENTED_EDGE('',*,*,#318,.F.);
#318 = EDGE_CURVE('',#166,#269,#319,.T.);
#319 = SURFACE_CURVE('',#320,(#324,#331),.PCURVE_S1.);
#320 = LINE('',#321,#322);
#321 = CARTESIAN_POINT('',(0.,-15.,15.));
#322 = VECTOR('',#323,1.);
#323 = DIRECTION('',(0.,1.,0.));
#324 = PCURVE('',#202,#325);
#325 = DEFINITIONAL_REPRESENTATION('',(#326),#330);
#326 = LINE('',#327,#328);
#327 = CARTESIAN_POINT('',(30.,0.));
#328 = VECTOR('',#329,1.);
#329 = DIRECTION('',(0.,-1.));
#330 = ( GEOMETRIC_REPRESENTATION_CONTEXT(2) 
PARAMETRIC_REPRESENTATION_CONTEXT() REPRESENTATION_CONTEXT('2D SPACE',''
  ) );
#331 = PCURVE('',#126,#332);
#332 = DEFINITIONAL_REPRESENTATION('',(#333),#337);
#333 = LINE('',#334,#335);
#334 = CARTESIAN_POINT('',(15.,0.));
#335 = VECTOR('',#336,1.);
#336 = DIRECTION('',(0.,1.));
#337 = ( GEOMETRIC_REPRESENTATION_CONTEXT(2) 
PARAMETRIC_REPRESENTATION_CONTEXT() REPRESENTATION_CONTEXT('2D SPACE',''
  ) );
#338 = FACE_BOUND('',#339,.T.);
#339 = EDGE_LOOP('',(#340));
#340 = ORIENTED_EDGE('',*,*,#341,.F.);
#341 = EDGE_CURVE('',#342,#342,#344,.T.);
#342 = VERTEX_POINT('',#343);
#343 = CARTESIAN_POINT('',(0.,0.,10.));
#344 = SURFACE_CURVE('',#345,(#350,#357),.PCURVE_S1.);
#345 = CIRCLE('',#346,10.);
#346 = AXIS2_PLACEMENT_3D('',#347,#348,#349);
#347 = CARTESIAN_POINT('',(0.,0.,0.));
#348 = DIRECTION('',(1.,0.,0.));
#349 = DIRECTION('',(-0.,0.,1.));
#350 = PCURVE('',#202,#351);
#351 = DEFINITIONAL_REPRESENTATION('',(#352),#356);
#352 = CIRCLE('',#353,10.);
#353 = AXIS2_PLACEMENT_2D('',#354,#355);
#354 = CARTESIAN_POINT('',(15.,-15.));
#355 = DIRECTION('',(1.,0.));
#356 = ( GEOMETRIC_REPRESENTATION_CONTEXT(2) 
PARAMETRIC_REPRESENTATION_CONTEXT() REPRESENTATION_CONTEXT('2D SPACE',''
  ) );
#357 = PCURVE('',#358,#422);
#358 = ( BOUNDED_SURFACE() B_SPLINE_SURFACE(6,8,(
    (#359,#360,#361,#362,#363,#364,#365,#366,#367)
    ,(#368,#369,#370,#371,#372,#373,#374,#375,#376)
    ,(#377,#378,#379,#380,#381,#382,#383,#384,#385)
    ,(#386,#387,#388,#389,#390,#391,#392,#393,#394)
    ,(#395,#396,#397,#398,#399,#400,#401,#402,#403)
    ,(#404,#405,#406,#407,#408,#409,#410,#411,#412)
    ,(#413,#414,#415,#416,#417,#418,#419,#420,#421
)),.UNSPECIFIED.,.T.,.F.,.F.) B_SPLINE_SURFACE_WITH_KNOTS((7,7),(9,9),(
    0.,6.28318530718),(0.,1.),.PIECEWISE_BEZIER_KNOTS.) 
GEOMETRIC_REPRESENTATION_ITEM() RATIONAL_B_SPLINE_SURFACE((
    (1.669078461068,1.669078461068,1.669078461068,1.669078461069
      ,1.669078461068,1.669078461069,1.669078461068,1.669078461068
      ,1.669078461068)
    ,(1.03672962321,1.03672962321,1.036729623209,1.03672962321
      ,1.036729623209,1.03672962321,1.036729623209,1.03672962321
      ,1.03672962321)
    ,(1.038346699848,1.038346699848,1.038346699847,1.038346699848
      ,1.038346699847,1.038346699848,1.038346699847,1.038346699848
      ,1.038346699848)
    ,(0.853534330196,0.853534330196,0.853534330196,0.853534330196
      ,0.853534330196,0.853534330196,0.853534330196,0.853534330196
      ,0.853534330196)
    ,(1.038346699848,1.038346699848,1.038346699848,1.038346699848
      ,1.038346699847,1.038346699848,1.038346699847,1.038346699848
      ,1.038346699848)
    ,(1.03672962321,1.03672962321,1.03672962321,1.03672962321
      ,1.036729623209,1.03672962321,1.03672962321,1.03672962321
      ,1.03672962321)
    ,(1.669078461068,1.669078461068,1.669078461068,1.669078461069
      ,1.669078461068,1.669078461069,1.669078461068,1.669078461068
,1.669078461068))) REPRESENTATION_ITEM('') SURFACE() );
#359 = CARTESIAN_POINT('',(0.,2.12854803514E-15,10.));
#360 = CARTESIAN_POINT('',(3.75540916461,2.12854803514E-15,10.));
#361 = CARTESIAN_POINT('',(6.414641810436,1.07142857143,10.));
#362 = CARTESIAN_POINT('',(8.406796605725,2.857142857139,10.000000000001
    ));
#363 = CARTESIAN_POINT('',(10.000000000012,5.000000000006,9.999999999997
    ));
#364 = CARTESIAN_POINT('',(11.593203394257,7.142857142852,
    10.000000000002));
#365 = CARTESIAN_POINT('',(13.585358189571,8.928571428573,9.999999999999
    ));
#366 = CARTESIAN_POINT('',(16.244590835389,10.,10.));
#367 = CARTESIAN_POINT('',(20.,10.,10.));
#368 = CARTESIAN_POINT('',(0.,-16.61543075571,10.));
#369 = CARTESIAN_POINT('',(7.915258560206,-16.61543075571,10.));
#370 = CARTESIAN_POINT('',(15.701093259023,-14.72484421057,
    9.999999999999));
#371 = CARTESIAN_POINT('',(24.824823661186,-6.962526216886,
    10.000000000003));
#372 = CARTESIAN_POINT('',(18.317106671248,-5.31772308558,9.999999999995
    ));
#373 = CARTESIAN_POINT('',(28.011230449721,-2.676811931173,
    10.000000000004));
#374 = CARTESIAN_POINT('',(22.871809638155,-6.867701353429,
    9.999999999999));
#375 = CARTESIAN_POINT('',(20.404440230986,-6.615430755711,10.));
#376 = CARTESIAN_POINT('',(20.,-6.615430755711,10.));
#377 = CARTESIAN_POINT('',(0.,-19.00112383245,-10.54548190548));
#378 = CARTESIAN_POINT('',(8.512542136496,-19.00112383245,
    -10.54548190548));
#379 = CARTESIAN_POINT('',(17.034469639936,-16.99292014362,
    -10.54548190548));
#380 = CARTESIAN_POINT('',(27.182172926226,-8.372463573932,
    -10.54548190547));
#381 = CARTESIAN_POINT('',(19.511301639501,-6.799172522245,
    -10.54548190549));
#382 = CARTESIAN_POINT('',(30.368579714761,-4.086749288218,
    -10.54548190547));
#383 = CARTESIAN_POINT('',(24.205186019067,-9.135777286484,
    -10.54548190548));
#384 = CARTESIAN_POINT('',(21.001723807277,-9.001123832456,
    -10.54548190548));
#385 = CARTESIAN_POINT('',(20.,-9.001123832456,-10.54548190548));
#386 = CARTESIAN_POINT('',(0.,-3.329884742172E-14,-27.49116921008));
#387 = CARTESIAN_POINT('',(3.75540916461,-3.329884742172E-14,
    -27.49116921008));
#388 = CARTESIAN_POINT('',(6.414641810435,1.071428571428,-27.49116921008
    ));
#389 = CARTESIAN_POINT('',(8.406796605731,2.857142857146,-27.49116921009
    ));
#390 = CARTESIAN_POINT('',(10.000000000003,4.999999999996,
    -27.49116921007));
#391 = CARTESIAN_POINT('',(11.593203394263,7.142857142861,
    -27.49116921009));
#392 = CARTESIAN_POINT('',(13.585358189569,8.92857142857,-27.49116921008
    ));
#393 = CARTESIAN_POINT('',(16.244590835389,10.,-27.49116921008));
#394 = CARTESIAN_POINT('',(20.,10.,-27.49116921008));
#395 = CARTESIAN_POINT('',(0.,19.001123832456,-10.54548190548));
#396 = CARTESIAN_POINT('',(-1.001723807276,19.001123832456,
    -10.54548190548));
#397 = CARTESIAN_POINT('',(-4.205186019065,19.135777286483,
    -10.54548190548));
#398 = CARTESIAN_POINT('',(-10.36857971477,14.086749288222,
    -10.54548190547));
#399 = CARTESIAN_POINT('',(0.488698360514,16.799172522238,
    -10.54548190549));
#400 = CARTESIAN_POINT('',(-7.182172926242,18.372463573937,
    -10.54548190547));
#401 = CARTESIAN_POINT('',(2.965530360073,26.992920143626,
    -10.54548190548));
#402 = CARTESIAN_POINT('',(11.487457863501,29.001123832456,
    -10.54548190548));
#403 = CARTESIAN_POINT('',(20.,29.001123832456,-10.54548190548));
#404 = CARTESIAN_POINT('',(0.,16.615430755711,10.));
#405 = CARTESIAN_POINT('',(-0.404440230986,16.615430755711,10.));
#406 = CARTESIAN_POINT('',(-2.871809638149,16.867701353429,
    9.999999999999));
#407 = CARTESIAN_POINT('',(-8.011230449744,12.67681193117,
    10.000000000005));
#408 = CARTESIAN_POINT('',(1.682893328784,15.317723085582,9.999999999992
    ));
#409 = CARTESIAN_POINT('',(-4.824823661215,16.962526216885,
    10.000000000006));
#410 = CARTESIAN_POINT('',(4.29890674099,24.724844210572,9.999999999998)
  );
#411 = CARTESIAN_POINT('',(12.084741439792,26.615430755711,10.));
#412 = CARTESIAN_POINT('',(20.,26.615430755711,10.));
#413 = CARTESIAN_POINT('',(0.,2.12854803514E-15,10.));
#414 = CARTESIAN_POINT('',(3.75540916461,2.12854803514E-15,10.));
#415 = CARTESIAN_POINT('',(6.414641810436,1.07142857143,10.));
#416 = CARTESIAN_POINT('',(8.406796605725,2.857142857139,10.000000000001
    ));
#417 = CARTESIAN_POINT('',(10.000000000012,5.000000000006,9.999999999997
    ));
#418 = CARTESIAN_POINT('',(11.593203394257,7.142857142852,
    10.000000000002));
#419 = CARTESIAN_POINT('',(13.585358189571,8.928571428573,9.999999999999
    ));
#420 = CARTESIAN_POINT('',(16.244590835389,10.,10.));
#421 = CARTESIAN_POINT('',(20.,10.,10.));
#422 = DEFINITIONAL_REPRESENTATION('',(#423),#606);
#423 = B_SPLINE_CURVE_WITH_KNOTS('',11,(#424,#425,#426,#427,#428,#429,
    #430,#431,#432,#433,#434,#435,#436,#437,#438,#439,#440,#441,#442,
    #443,#444,#445,#446,#447,#448,#449,#450,#451,#452,#453,#454,#455,
    #456,#457,#458,#459,#460,#461,#462,#463,#464,#465,#466,#467,#468,
    #469,#470,#471,#472,#473,#474,#475,#476,#477,#478,#479,#480,#481,
    #482,#483,#484,#485,#486,#487,#488,#489,#490,#491,#492,#493,#494,
    #495,#496,#497,#498,#499,#500,#501,#502,#503,#504,#505,#506,#507,
    #508,#509,#510,#511,#512,#513,#514,#515,#516,#517,#518,#519,#520,
    #521,#522,#523,#524,#525,#526,#527,#528,#529,#530,#531,#532,#533,
    #534,#535,#536,#537,#538,#539,#540,#541,#542,#543,#544,#545,#546,
    #547,#548,#549,#550,#551,#552,#553,#554,#555,#556,#557,#558,#559,
    #560,#561,#562,#563,#564,#565,#566,#567,#568,#569,#570,#571,#572,
    #573,#574,#575,#576,#577,#578,#579,#580,#581,#582,#583,#584,#585,
    #586,#587,#588,#589,#590,#591,#592,#593,#594,#595,#596,#597,#598,
    #599,#600,#601,#602,#603,#604,#605),.UNSPECIFIED.,.F.,.F.,(12,10,10,
    10,10,10,10,10,10,10,10,10,10,10,10,10,10,10,12),(0.,0.196349540849,
    0.392699081699,0.589048622548,0.785398163397,0.981747704247,
    1.178097245096,1.374446785946,1.570796326795,3.14159265359,
    4.712388980385,4.908738521234,5.105088062083,5.301437602933,
    5.497787143782,5.694136684632,5.890486225481,6.08683576633,
    6.28318530718),.UNSPECIFIED.);
#424 = CARTESIAN_POINT('',(1.387778780781E-17,0.));
#425 = CARTESIAN_POINT('',(1.811196051049E-02,0.));
#426 = CARTESIAN_POINT('',(3.620822894792E-02,0.));
#427 = CARTESIAN_POINT('',(5.428948907341E-02,0.));
#428 = CARTESIAN_POINT('',(7.235592449253E-02,0.));
#429 = CARTESIAN_POINT('',(9.040882527021E-02,0.));
#430 = CARTESIAN_POINT('',(0.108448147631,0.));
#431 = CARTESIAN_POINT('',(0.126474352151,0.));
#432 = CARTESIAN_POINT('',(0.144488568397,0.));
#433 = CARTESIAN_POINT('',(0.16249074432,0.));
#434 = CARTESIAN_POINT('',(0.180481599725,0.));
#435 = CARTESIAN_POINT('',(0.216441555932,0.));
#436 = CARTESIAN_POINT('',(0.234410666784,0.));
#437 = CARTESIAN_POINT('',(0.252369365706,0.));
#438 = CARTESIAN_POINT('',(0.270318277952,0.));
#439 = CARTESIAN_POINT('',(0.288257135397,0.));
#440 = CARTESIAN_POINT('',(0.30618809371,0.));
#441 = CARTESIAN_POINT('',(0.324109159988,0.));
#442 = CARTESIAN_POINT('',(0.342022883981,0.));
#443 = CARTESIAN_POINT('',(0.359928494369,0.));
#444 = CARTESIAN_POINT('',(0.377826758928,0.));
#445 = CARTESIAN_POINT('',(0.413609213629,0.));
#446 = CARTESIAN_POINT('',(0.431493405043,0.));
#447 = CARTESIAN_POINT('',(0.449370984731,0.));
#448 = CARTESIAN_POINT('',(0.467242272113,0.));
#449 = CARTESIAN_POINT('',(0.485107489977,0.));
#450 = CARTESIAN_POINT('',(0.502967296849,0.));
#451 = CARTESIAN_POINT('',(0.520821863456,0.));
#452 = CARTESIAN_POINT('',(0.538671231324,0.));
#453 = CARTESIAN_POINT('',(0.556516201695,0.));
#454 = CARTESIAN_POINT('',(0.574356734088,0.));
#455 = CARTESIAN_POINT('',(0.610029696148,0.));
#456 = CARTESIAN_POINT('',(0.627862118022,0.));
#457 = CARTESIAN_POINT('',(0.645690714146,0.));
#458 = CARTESIAN_POINT('',(0.663516011377,0.));
#459 = CARTESIAN_POINT('',(0.681337743304,0.));
#460 = CARTESIAN_POINT('',(0.699156652632,0.));
#461 = CARTESIAN_POINT('',(0.716972986243,0.));
#462 = CARTESIAN_POINT('',(0.734786483846,0.));
#463 = CARTESIAN_POINT('',(0.752597883376,0.));
#464 = CARTESIAN_POINT('',(0.770407152202,0.));
#465 = CARTESIAN_POINT('',(0.806021930775,0.));
#466 = CARTESIAN_POINT('',(0.823827438318,0.));
#467 = CARTESIAN_POINT('',(0.841631234145,0.));
#468 = CARTESIAN_POINT('',(0.859433627861,0.));
#469 = CARTESIAN_POINT('',(0.877234660412,0.));
#470 = CARTESIAN_POINT('',(0.895034509918,0.));
#471 = CARTESIAN_POINT('',(0.912833468631,0.));
#472 = CARTESIAN_POINT('',(0.930631656197,0.));
#473 = CARTESIAN_POINT('',(0.948429069687,0.));
#474 = CARTESIAN_POINT('',(0.966226032493,0.));
#475 = CARTESIAN_POINT('',(1.001819153544,0.));
#476 = CARTESIAN_POINT('',(1.019615332679,0.));
#477 = CARTESIAN_POINT('',(1.037411198258,0.));
#478 = CARTESIAN_POINT('',(1.05520701556,0.));
#479 = CARTESIAN_POINT('',(1.073002787262,0.));
#480 = CARTESIAN_POINT('',(1.090798590135,0.));
#481 = CARTESIAN_POINT('',(1.108594619483,0.));
#482 = CARTESIAN_POINT('',(1.126390977036,0.));
#483 = CARTESIAN_POINT('',(1.144187645555,0.));
#484 = CARTESIAN_POINT('',(1.16198478387,0.));
#485 = CARTESIAN_POINT('',(1.197580114811,0.));
#486 = CARTESIAN_POINT('',(1.21537831271,0.));
#487 = CARTESIAN_POINT('',(1.233177083968,0.));
#488 = CARTESIAN_POINT('',(1.250976540218,0.));
#489 = CARTESIAN_POINT('',(1.268776737622,0.));
#490 = CARTESIAN_POINT('',(1.286577704848,0.));
#491 = CARTESIAN_POINT('',(1.304379491167,0.));
#492 = CARTESIAN_POINT('',(1.322182167667,0.));
#493 = CARTESIAN_POINT('',(1.339985780486,0.));
#494 = CARTESIAN_POINT('',(1.357790322125,0.));
#495 = CARTESIAN_POINT('',(1.393401383658,0.));
#496 = CARTESIAN_POINT('',(1.411207904675,0.));
#497 = CARTESIAN_POINT('',(1.429015423104,0.));
#498 = CARTESIAN_POINT('',(1.446823984717,0.));
#499 = CARTESIAN_POINT('',(1.464633612445,0.));
#500 = CARTESIAN_POINT('',(1.482444312203,0.));
#501 = CARTESIAN_POINT('',(1.500256092775,0.));
#502 = CARTESIAN_POINT('',(1.518068971151,0.));
#503 = CARTESIAN_POINT('',(1.535882958447,0.));
#504 = CARTESIAN_POINT('',(1.553698046148,0.));
#505 = CARTESIAN_POINT('',(1.714043757668,0.));
#506 = CARTESIAN_POINT('',(1.856643940182,0.));
#507 = CARTESIAN_POINT('',(1.999314106143,0.));
#508 = CARTESIAN_POINT('',(2.142041966818,0.));
#509 = CARTESIAN_POINT('',(2.284808041102,0.));
#510 = CARTESIAN_POINT('',(2.427596882835,0.));
#511 = CARTESIAN_POINT('',(2.570393798105,0.));
#512 = CARTESIAN_POINT('',(2.71319374236,0.));
#513 = CARTESIAN_POINT('',(2.855993299131,0.));
#514 = CARTESIAN_POINT('',(2.998792988383,0.));
#515 = CARTESIAN_POINT('',(3.284392318797,0.));
#516 = CARTESIAN_POINT('',(3.427192008048,0.));
#517 = CARTESIAN_POINT('',(3.56999156482,0.));
#518 = CARTESIAN_POINT('',(3.712791509074,0.));
#519 = CARTESIAN_POINT('',(3.855588424345,0.));
#520 = CARTESIAN_POINT('',(3.998377266077,0.));
#521 = CARTESIAN_POINT('',(4.141143340362,0.));
#522 = CARTESIAN_POINT('',(4.283871201036,0.));
#523 = CARTESIAN_POINT('',(4.426541366997,0.));
#524 = CARTESIAN_POINT('',(4.569141549511,0.));
#525 = CARTESIAN_POINT('',(4.729487261032,0.));
#526 = CARTESIAN_POINT('',(4.747302348733,0.));
#527 = CARTESIAN_POINT('',(4.765116336028,0.));
#528 = CARTESIAN_POINT('',(4.782929214406,0.));
#529 = CARTESIAN_POINT('',(4.800740994975,0.));
#530 = CARTESIAN_POINT('',(4.818551694736,0.));
#531 = CARTESIAN_POINT('',(4.836361322461,0.));
#532 = CARTESIAN_POINT('',(4.854169884076,0.));
#533 = CARTESIAN_POINT('',(4.871977402505,0.));
#534 = CARTESIAN_POINT('',(4.889783923522,0.));
#535 = CARTESIAN_POINT('',(4.925394985055,0.));
#536 = CARTESIAN_POINT('',(4.943199526691,0.));
#537 = CARTESIAN_POINT('',(4.961003139518,0.));
#538 = CARTESIAN_POINT('',(4.978805816003,0.));
#539 = CARTESIAN_POINT('',(4.996607602344,0.));
#540 = CARTESIAN_POINT('',(5.014408569545,0.));
#541 = CARTESIAN_POINT('',(5.03220876697,0.));
#542 = CARTESIAN_POINT('',(5.050008223207,0.));
#543 = CARTESIAN_POINT('',(5.067806994471,0.));
#544 = CARTESIAN_POINT('',(5.085605192368,0.));
#545 = CARTESIAN_POINT('',(5.121200523309,0.));
#546 = CARTESIAN_POINT('',(5.138997661626,0.));
#547 = CARTESIAN_POINT('',(5.156794330139,0.));
#548 = CARTESIAN_POINT('',(5.174590687704,0.));
#549 = CARTESIAN_POINT('',(5.192386717035,0.));
#550 = CARTESIAN_POINT('',(5.210182519927,0.));
#551 = CARTESIAN_POINT('',(5.227978291613,0.));
#552 = CARTESIAN_POINT('',(5.245774108925,0.));
#553 = CARTESIAN_POINT('',(5.2635699745,0.));
#554 = CARTESIAN_POINT('',(5.281366153636,0.));
#555 = CARTESIAN_POINT('',(5.316959274687,0.));
#556 = CARTESIAN_POINT('',(5.334756237492,0.));
#557 = CARTESIAN_POINT('',(5.352553650984,0.));
#558 = CARTESIAN_POINT('',(5.370351838547,0.));
#559 = CARTESIAN_POINT('',(5.388150797264,0.));
#560 = CARTESIAN_POINT('',(5.405950646765,0.));
#561 = CARTESIAN_POINT('',(5.42375167932,0.));
#562 = CARTESIAN_POINT('',(5.441554073033,0.));
#563 = CARTESIAN_POINT('',(5.459357868862,0.));
#564 = CARTESIAN_POINT('',(5.477163376405,0.));
#565 = CARTESIAN_POINT('',(5.512778154978,0.));
#566 = CARTESIAN_POINT('',(5.530587423803,0.));
#567 = CARTESIAN_POINT('',(5.548398823337,0.));
#568 = CARTESIAN_POINT('',(5.566212320931,0.));
#569 = CARTESIAN_POINT('',(5.584028654554,0.));
#570 = CARTESIAN_POINT('',(5.60184756387,0.));
#571 = CARTESIAN_POINT('',(5.619669295807,0.));
#572 = CARTESIAN_POINT('',(5.637494593031,0.));
#573 = CARTESIAN_POINT('',(5.655323189159,0.));
#574 = CARTESIAN_POINT('',(5.673155611031,0.));
#575 = CARTESIAN_POINT('',(5.708828573092,0.));
#576 = CARTESIAN_POINT('',(5.726669105484,0.));
#577 = CARTESIAN_POINT('',(5.744514075857,0.));
#578 = CARTESIAN_POINT('',(5.76236344372,0.));
#579 = CARTESIAN_POINT('',(5.780218010335,0.));
#580 = CARTESIAN_POINT('',(5.798077817198,0.));
#581 = CARTESIAN_POINT('',(5.815943035071,0.));
#582 = CARTESIAN_POINT('',(5.833814322447,0.));
#583 = CARTESIAN_POINT('',(5.851691902137,0.));
#584 = CARTESIAN_POINT('',(5.869576093551,0.));
#585 = CARTESIAN_POINT('',(5.905358548252,0.));
#586 = CARTESIAN_POINT('',(5.923256812809,0.));
#587 = CARTESIAN_POINT('',(5.941162423204,0.));
#588 = CARTESIAN_POINT('',(5.959076147183,0.));
#589 = CARTESIAN_POINT('',(5.97699721348,0.));
#590 = CARTESIAN_POINT('',(5.994928171773,0.));
#591 = CARTESIAN_POINT('',(6.012867029234,0.));
#592 = CARTESIAN_POINT('',(6.030815941471,0.));
#593 = CARTESIAN_POINT('',(6.048774640396,0.));
#594 = CARTESIAN_POINT('',(6.066743751247,0.));
#595 = CARTESIAN_POINT('',(6.102703707455,0.));
#596 = CARTESIAN_POINT('',(6.120694562859,0.));
#597 = CARTESIAN_POINT('',(6.138696738784,0.));
#598 = CARTESIAN_POINT('',(6.156710955027,0.));
#599 = CARTESIAN_POINT('',(6.17473715955,0.));
#600 = CARTESIAN_POINT('',(6.192776481908,0.));
#601 = CARTESIAN_POINT('',(6.210829382688,0.));
#602 = CARTESIAN_POINT('',(6.228895818106,0.));
#603 = CARTESIAN_POINT('',(6.246977078232,0.));
#604 = CARTESIAN_POINT('',(6.265073346669,0.));
#605 = CARTESIAN_POINT('',(6.28318530718,0.));
#606 = ( GEOMETRIC_REPRESENTATION_CONTEXT(2) 
PARAMETRIC_REPRESENTATION_CONTEXT() REPRESENTATION_CONTEXT('2D SPACE',''
  ) );
#607 = ADVANCED_FACE('',(#608),#126,.T.);
#608 = FACE_BOUND('',#609,.T.);
#609 = EDGE_LOOP('',(#610,#611,#612,#613));
#610 = ORIENTED_EDGE('',*,*,#112,.F.);
#611 = ORIENTED_EDGE('',*,*,#165,.T.);
#612 = ORIENTED_EDGE('',*,*,#318,.T.);
#613 = ORIENTED_EDGE('',*,*,#268,.F.);
#614 = ADVANCED_FACE('',(#615),#358,.T.);
#615 = FACE_BOUND('',#616,.T.);
#616 = EDGE_LOOP('',(#617,#618,#647,#853));
#617 = ORIENTED_EDGE('',*,*,#341,.T.);
#618 = ORIENTED_EDGE('',*,*,#619,.T.);
#619 = EDGE_CURVE('',#342,#620,#622,.T.);
#620 = VERTEX_POINT('',#621);
#621 = CARTESIAN_POINT('',(20.,10.,10.));
#622 = SEAM_CURVE('',#623,(#633,#640),.PCURVE_S1.);
#623 = ( BOUNDED_CURVE() B_SPLINE_CURVE(8,(#624,#625,#626,#627,#628,#629
,#630,#631,#632),.UNSPECIFIED.,.F.,.F.) B_SPLINE_CURVE_WITH_KNOTS((9,9),
(0.,1.),.PIECEWISE_BEZIER_KNOTS.) CURVE() GEOMETRIC_REPRESENTATION_ITEM(
) RATIONAL_B_SPLINE_CURVE((1.669078461068,1.669078461068,1.669078461068,
    1.669078461069,1.669078461068,1.669078461069,1.669078461068,
1.669078461068,1.669078461068)) REPRESENTATION_ITEM('') );
#624 = CARTESIAN_POINT('',(0.,2.12854803514E-15,10.));
#625 = CARTESIAN_POINT('',(3.75540916461,2.12854803514E-15,10.));
#626 = CARTESIAN_POINT('',(6.414641810436,1.07142857143,10.));
#627 = CARTESIAN_POINT('',(8.406796605725,2.857142857139,10.000000000001
    ));
#628 = CARTESIAN_POINT('',(10.000000000012,5.000000000006,9.999999999997
    ));
#629 = CARTESIAN_POINT('',(11.593203394257,7.142857142852,
    10.000000000002));
#630 = CARTESIAN_POINT('',(13.585358189571,8.928571428573,9.999999999999
    ));
#631 = CARTESIAN_POINT('',(16.244590835389,10.,10.));
#632 = CARTESIAN_POINT('',(20.,10.,10.));
#633 = PCURVE('',#358,#634);
#634 = DEFINITIONAL_REPRESENTATION('',(#635),#639);
#635 = LINE('',#636,#637);
#636 = CARTESIAN_POINT('',(6.28318530718,0.));
#637 = VECTOR('',#638,1.);
#638 = DIRECTION('',(0.,1.));
#639 = ( GEOMETRIC_REPRESENTATION_CONTEXT(2) 
PARAMETRIC_REPRESENTATION_CONTEXT() REPRESENTATION_CONTEXT('2D SPACE',''
  ) );
#640 = PCURVE('',#358,#641);
#641 = DEFINITIONAL_REPRESENTATION('',(#642),#646);
#642 = LINE('',#643,#644);
#643 = CARTESIAN_POINT('',(0.,0.));
#644 = VECTOR('',#645,1.);
#645 = DIRECTION('',(0.,1.));
#646 = ( GEOMETRIC_REPRESENTATION_CONTEXT(2) 
PARAMETRIC_REPRESENTATION_CONTEXT() REPRESENTATION_CONTEXT('2D SPACE',''
  ) );
#647 = ORIENTED_EDGE('',*,*,#648,.F.);
#648 = EDGE_CURVE('',#620,#620,#649,.T.);
#649 = SURFACE_CURVE('',#650,(#655,#841),.PCURVE_S1.);
#650 = CIRCLE('',#651,10.);
#651 = AXIS2_PLACEMENT_3D('',#652,#653,#654);
#652 = CARTESIAN_POINT('',(20.,10.,0.));
#653 = DIRECTION('',(1.,-1.387778780781E-17,0.));
#654 = DIRECTION('',(0.,0.,1.));
#655 = PCURVE('',#358,#656);
#656 = DEFINITIONAL_REPRESENTATION('',(#657),#840);
#657 = B_SPLINE_CURVE_WITH_KNOTS('',11,(#658,#659,#660,#661,#662,#663,
    #664,#665,#666,#667,#668,#669,#670,#671,#672,#673,#674,#675,#676,
    #677,#678,#679,#680,#681,#682,#683,#684,#685,#686,#687,#688,#689,
    #690,#691,#692,#693,#694,#695,#696,#697,#698,#699,#700,#701,#702,
    #703,#704,#705,#706,#707,#708,#709,#710,#711,#712,#713,#714,#715,
    #716,#717,#718,#719,#720,#721,#722,#723,#724,#725,#726,#727,#728,
    #729,#730,#731,#732,#733,#734,#735,#736,#737,#738,#739,#740,#741,
    #742,#743,#744,#745,#746,#747,#748,#749,#750,#751,#752,#753,#754,
    #755,#756,#757,#758,#759,#760,#761,#762,#763,#764,#765,#766,#767,
    #768,#769,#770,#771,#772,#773,#774,#775,#776,#777,#778,#779,#780,
    #781,#782,#783,#784,#785,#786,#787,#788,#789,#790,#791,#792,#793,
    #794,#795,#796,#797,#798,#799,#800,#801,#802,#803,#804,#805,#806,
    #807,#808,#809,#810,#811,#812,#813,#814,#815,#816,#817,#818,#819,
    #820,#821,#822,#823,#824,#825,#826,#827,#828,#829,#830,#831,#832,
    #833,#834,#835,#836,#837,#838,#839),.UNSPECIFIED.,.F.,.F.,(12,10,10,
    10,10,10,10,10,10,10,10,10,10,10,10,10,10,10,12),(0.,0.196349540849,
    0.392699081699,0.589048622548,0.785398163397,0.981747704247,
    1.178097245096,1.374446785946,1.570796326795,3.14159265359,
    4.712388980385,4.908738521234,5.105088062083,5.301437602933,
    5.497787143782,5.694136684632,5.890486225481,6.08683576633,
    6.28318530718),.UNSPECIFIED.);
#658 = CARTESIAN_POINT('',(0.,1.));
#659 = CARTESIAN_POINT('',(1.811196051049E-02,1.));
#660 = CARTESIAN_POINT('',(3.620822894799E-02,1.));
#661 = CARTESIAN_POINT('',(5.428948907351E-02,1.));
#662 = CARTESIAN_POINT('',(7.235592449291E-02,1.000000000001));
#663 = CARTESIAN_POINT('',(9.040882527041E-02,0.999999999999));
#664 = CARTESIAN_POINT('',(0.108448147632,1.000000000001));
#665 = CARTESIAN_POINT('',(0.126474352151,1.));
#666 = CARTESIAN_POINT('',(0.144488568397,1.));
#667 = CARTESIAN_POINT('',(0.162490744321,1.));
#668 = CARTESIAN_POINT('',(0.180481599725,1.));
#669 = CARTESIAN_POINT('',(0.216441555933,1.));
#670 = CARTESIAN_POINT('',(0.234410666785,1.));
#671 = CARTESIAN_POINT('',(0.252369365706,1.));
#672 = CARTESIAN_POINT('',(0.270318277952,1.));
#673 = CARTESIAN_POINT('',(0.288257135397,1.));
#674 = CARTESIAN_POINT('',(0.30618809371,1.));
#675 = CARTESIAN_POINT('',(0.324109159988,1.));
#676 = CARTESIAN_POINT('',(0.342022883981,1.));
#677 = CARTESIAN_POINT('',(0.359928494369,1.));
#678 = CARTESIAN_POINT('',(0.377826758928,1.));
#679 = CARTESIAN_POINT('',(0.413609213629,1.));
#680 = CARTESIAN_POINT('',(0.431493405043,1.));
#681 = CARTESIAN_POINT('',(0.449370984731,1.));
#682 = CARTESIAN_POINT('',(0.467242272113,1.));
#683 = CARTESIAN_POINT('',(0.485107489977,1.));
#684 = CARTESIAN_POINT('',(0.502967296849,1.));
#685 = CARTESIAN_POINT('',(0.520821863456,1.));
#686 = CARTESIAN_POINT('',(0.538671231325,1.));
#687 = CARTESIAN_POINT('',(0.556516201695,1.));
#688 = CARTESIAN_POINT('',(0.574356734088,1.));
#689 = CARTESIAN_POINT('',(0.610029696148,1.));
#690 = CARTESIAN_POINT('',(0.627862118022,1.));
#691 = CARTESIAN_POINT('',(0.645690714147,1.000000000001));
#692 = CARTESIAN_POINT('',(0.663516011376,0.999999999999));
#693 = CARTESIAN_POINT('',(0.681337743305,1.000000000001));
#694 = CARTESIAN_POINT('',(0.699156652631,0.999999999998));
#695 = CARTESIAN_POINT('',(0.716972986244,1.000000000001));
#696 = CARTESIAN_POINT('',(0.734786483846,0.999999999999));
#697 = CARTESIAN_POINT('',(0.752597883376,1.));
#698 = CARTESIAN_POINT('',(0.770407152202,1.));
#699 = CARTESIAN_POINT('',(0.806021930775,1.));
#700 = CARTESIAN_POINT('',(0.823827438318,1.));
#701 = CARTESIAN_POINT('',(0.841631234146,1.000000000001));
#702 = CARTESIAN_POINT('',(0.859433627861,0.999999999999));
#703 = CARTESIAN_POINT('',(0.877234660413,1.000000000002));
#704 = CARTESIAN_POINT('',(0.895034509918,0.999999999998));
#705 = CARTESIAN_POINT('',(0.912833468631,1.000000000001));
#706 = CARTESIAN_POINT('',(0.930631656197,0.999999999999));
#707 = CARTESIAN_POINT('',(0.948429069687,1.));
#708 = CARTESIAN_POINT('',(0.966226032493,1.));
#709 = CARTESIAN_POINT('',(1.001819153544,1.));
#710 = CARTESIAN_POINT('',(1.019615332679,1.));
#711 = CARTESIAN_POINT('',(1.037411198258,1.));
#712 = CARTESIAN_POINT('',(1.05520701556,0.999999999999));
#713 = CARTESIAN_POINT('',(1.073002787262,1.000000000001));
#714 = CARTESIAN_POINT('',(1.090798590134,0.999999999999));
#715 = CARTESIAN_POINT('',(1.108594619484,1.000000000001));
#716 = CARTESIAN_POINT('',(1.126390977036,1.));
#717 = CARTESIAN_POINT('',(1.144187645555,1.));
#718 = CARTESIAN_POINT('',(1.16198478387,1.));
#719 = CARTESIAN_POINT('',(1.197580114811,1.));
#720 = CARTESIAN_POINT('',(1.21537831271,1.));
#721 = CARTESIAN_POINT('',(1.233177083968,0.999999999999));
#722 = CARTESIAN_POINT('',(1.250976540218,1.000000000001));
#723 = CARTESIAN_POINT('',(1.268776737623,0.999999999998));
#724 = CARTESIAN_POINT('',(1.286577704847,1.000000000002));
#725 = CARTESIAN_POINT('',(1.304379491168,0.999999999999));
#726 = CARTESIAN_POINT('',(1.322182167667,1.000000000001));
#727 = CARTESIAN_POINT('',(1.339985780486,1.));
#728 = CARTESIAN_POINT('',(1.357790322125,1.));
#729 = CARTESIAN_POINT('',(1.393401383658,1.));
#730 = CARTESIAN_POINT('',(1.411207904675,1.));
#731 = CARTESIAN_POINT('',(1.429015423104,0.999999999999));
#732 = CARTESIAN_POINT('',(1.446823984717,1.000000000002));
#733 = CARTESIAN_POINT('',(1.464633612445,0.999999999998));
#734 = CARTESIAN_POINT('',(1.482444312203,1.000000000002));
#735 = CARTESIAN_POINT('',(1.500256092774,0.999999999999));
#736 = CARTESIAN_POINT('',(1.518068971151,1.000000000001));
#737 = CARTESIAN_POINT('',(1.535882958447,1.));
#738 = CARTESIAN_POINT('',(1.553698046148,1.));
#739 = CARTESIAN_POINT('',(1.714043757668,1.));
#740 = CARTESIAN_POINT('',(1.856643940183,1.));
#741 = CARTESIAN_POINT('',(1.999314106143,1.));
#742 = CARTESIAN_POINT('',(2.142041966818,1.));
#743 = CARTESIAN_POINT('',(2.284808041102,1.));
#744 = CARTESIAN_POINT('',(2.427596882835,1.));
#745 = CARTESIAN_POINT('',(2.570393798105,1.));
#746 = CARTESIAN_POINT('',(2.71319374236,1.));
#747 = CARTESIAN_POINT('',(2.855993299131,1.));
#748 = CARTESIAN_POINT('',(2.998792988383,1.));
#749 = CARTESIAN_POINT('',(3.284392318797,1.));
#750 = CARTESIAN_POINT('',(3.427192008048,1.));
#751 = CARTESIAN_POINT('',(3.569991564821,1.));
#752 = CARTESIAN_POINT('',(3.712791509073,1.));
#753 = CARTESIAN_POINT('',(3.855588424347,1.));
#754 = CARTESIAN_POINT('',(3.998377266075,1.));
#755 = CARTESIAN_POINT('',(4.141143340363,1.));
#756 = CARTESIAN_POINT('',(4.283871201035,1.));
#757 = CARTESIAN_POINT('',(4.426541366997,1.));
#758 = CARTESIAN_POINT('',(4.569141549511,1.));
#759 = CARTESIAN_POINT('',(4.729487261032,1.));
#760 = CARTESIAN_POINT('',(4.747302348733,1.));
#761 = CARTESIAN_POINT('',(4.765116336029,1.));
#762 = CARTESIAN_POINT('',(4.782929214404,1.));
#763 = CARTESIAN_POINT('',(4.800740994978,1.));
#764 = CARTESIAN_POINT('',(4.818551694733,1.));
#765 = CARTESIAN_POINT('',(4.836361322464,1.));
#766 = CARTESIAN_POINT('',(4.854169884075,1.));
#767 = CARTESIAN_POINT('',(4.871977402505,1.));
#768 = CARTESIAN_POINT('',(4.889783923521,1.));
#769 = CARTESIAN_POINT('',(4.925394985055,1.));
#770 = CARTESIAN_POINT('',(4.943199526691,1.));
#771 = CARTESIAN_POINT('',(4.961003139519,1.000000000001));
#772 = CARTESIAN_POINT('',(4.978805816001,0.999999999998));
#773 = CARTESIAN_POINT('',(4.996607602346,1.000000000002));
#774 = CARTESIAN_POINT('',(5.014408569543,0.999999999998));
#775 = CARTESIAN_POINT('',(5.032208766971,1.000000000001));
#776 = CARTESIAN_POINT('',(5.050008223206,0.999999999999));
#777 = CARTESIAN_POINT('',(5.067806994472,1.));
#778 = CARTESIAN_POINT('',(5.085605192368,1.));
#779 = CARTESIAN_POINT('',(5.121200523309,1.));
#780 = CARTESIAN_POINT('',(5.138997661626,1.));
#781 = CARTESIAN_POINT('',(5.156794330138,0.999999999999));
#782 = CARTESIAN_POINT('',(5.174590687706,1.000000000002));
#783 = CARTESIAN_POINT('',(5.192386717033,0.999999999998));
#784 = CARTESIAN_POINT('',(5.210182519929,1.000000000002));
#785 = CARTESIAN_POINT('',(5.227978291611,0.999999999998));
#786 = CARTESIAN_POINT('',(5.245774108926,1.000000000001));
#787 = CARTESIAN_POINT('',(5.263569974499,1.));
#788 = CARTESIAN_POINT('',(5.281366153636,1.));
#789 = CARTESIAN_POINT('',(5.316959274687,1.));
#790 = CARTESIAN_POINT('',(5.334756237492,1.));
#791 = CARTESIAN_POINT('',(5.352553650984,1.));
#792 = CARTESIAN_POINT('',(5.370351838547,0.999999999999));
#793 = CARTESIAN_POINT('',(5.388150797263,1.000000000001));
#794 = CARTESIAN_POINT('',(5.405950646766,0.999999999999));
#795 = CARTESIAN_POINT('',(5.423751679319,1.));
#796 = CARTESIAN_POINT('',(5.441554073034,1.));
#797 = CARTESIAN_POINT('',(5.459357868862,1.));
#798 = CARTESIAN_POINT('',(5.477163376405,1.));
#799 = CARTESIAN_POINT('',(5.512778154978,1.));
#800 = CARTESIAN_POINT('',(5.530587423803,1.));
#801 = CARTESIAN_POINT('',(5.548398823337,1.));
#802 = CARTESIAN_POINT('',(5.566212320931,1.));
#803 = CARTESIAN_POINT('',(5.584028654555,1.));
#804 = CARTESIAN_POINT('',(5.60184756387,1.));
#805 = CARTESIAN_POINT('',(5.619669295807,1.));
#806 = CARTESIAN_POINT('',(5.637494593031,1.));
#807 = CARTESIAN_POINT('',(5.655323189159,1.));
#808 = CARTESIAN_POINT('',(5.673155611031,1.));
#809 = CARTESIAN_POINT('',(5.708828573092,1.));
#810 = CARTESIAN_POINT('',(5.726669105484,1.));
#811 = CARTESIAN_POINT('',(5.744514075856,1.));
#812 = CARTESIAN_POINT('',(5.762363443721,1.));
#813 = CARTESIAN_POINT('',(5.780218010333,1.));
#814 = CARTESIAN_POINT('',(5.7980778172,1.));
#815 = CARTESIAN_POINT('',(5.815943035069,1.));
#816 = CARTESIAN_POINT('',(5.833814322448,1.));
#817 = CARTESIAN_POINT('',(5.851691902137,1.));
#818 = CARTESIAN_POINT('',(5.869576093551,1.));
#819 = CARTESIAN_POINT('',(5.905358548252,1.));
#820 = CARTESIAN_POINT('',(5.923256812809,1.));
#821 = CARTESIAN_POINT('',(5.941162423203,1.));
#822 = CARTESIAN_POINT('',(5.959076147184,0.999999999999));
#823 = CARTESIAN_POINT('',(5.976997213478,1.000000000001));
#824 = CARTESIAN_POINT('',(5.994928171775,0.999999999999));
#825 = CARTESIAN_POINT('',(6.012867029233,1.));
#826 = CARTESIAN_POINT('',(6.030815941471,1.));
#827 = CARTESIAN_POINT('',(6.048774640396,1.));
#828 = CARTESIAN_POINT('',(6.066743751247,1.));
#829 = CARTESIAN_POINT('',(6.102703707455,1.));
#830 = CARTESIAN_POINT('',(6.120694562859,1.));
#831 = CARTESIAN_POINT('',(6.138696738783,1.));
#832 = CARTESIAN_POINT('',(6.156710955027,1.));
#833 = CARTESIAN_POINT('',(6.17473715955,1.));
#834 = CARTESIAN_POINT('',(6.192776481908,1.));
#835 = CARTESIAN_POINT('',(6.210829382688,1.));
#836 = CARTESIAN_POINT('',(6.228895818106,1.));
#837 = CARTESIAN_POINT('',(6.246977078232,1.));
#838 = CARTESIAN_POINT('',(6.265073346669,1.));
#839 = CARTESIAN_POINT('',(6.28318530718,1.));
#840 = ( GEOMETRIC_REPRESENTATION_CONTEXT(2) 
PARAMETRIC_REPRESENTATION_CONTEXT() REPRESENTATION_CONTEXT('2D SPACE',''
  ) );
#841 = PCURVE('',#842,#847);
#842 = PLANE('',#843);
#843 = AXIS2_PLACEMENT_3D('',#844,#845,#846);
#844 = CARTESIAN_POINT('',(20.,10.,0.));
#845 = DIRECTION('',(1.,-1.387778780781E-17,0.));
#846 = DIRECTION('',(0.,0.,1.));
#847 = DEFINITIONAL_REPRESENTATION('',(#848),#852);
#848 = CIRCLE('',#849,10.);
#849 = AXIS2_PLACEMENT_2D('',#850,#851);
#850 = CARTESIAN_POINT('',(0.,0.));
#851 = DIRECTION('',(1.,0.));
#852 = ( GEOMETRIC_REPRESENTATION_CONTEXT(2) 
PARAMETRIC_REPRESENTATION_CONTEXT() REPRESENTATION_CONTEXT('2D SPACE',''
  ) );
#853 = ORIENTED_EDGE('',*,*,#619,.F.);
#854 = ADVANCED_FACE('',(#855),#842,.T.);
#855 = FACE_BOUND('',#856,.T.);
#856 = EDGE_LOOP('',(#857));
#857 = ORIENTED_EDGE('',*,*,#648,.T.);
#858 = ( GEOMETRIC_REPRESENTATION_CONTEXT(3) 
GLOBAL_UNCERTAINTY_ASSIGNED_CONTEXT((#862)) GLOBAL_UNIT_ASSIGNED_CONTEXT
((#859,#860,#861)) REPRESENTATION_CONTEXT('Context #1',
  '3D Context with UNIT and UNCERTAINTY') );
#859 = ( LENGTH_UNIT() NAMED_UNIT(*) SI_UNIT(.MILLI.,.METRE.) );
#860 = ( NAMED_UNIT(*) PLANE_ANGLE_UNIT() SI_UNIT($,.RADIAN.) );
#861 = ( NAMED_UNIT(*) SI_UNIT($,.STERADIAN.) SOLID_ANGLE_UNIT() );
#862 = UNCERTAINTY_MEASURE_WITH_UNIT(LENGTH_MEASURE(1.E-07),#859,
  'distance_accuracy_value','confusion accuracy');
#863 = PRODUCT_RELATED_PRODUCT_CATEGORY('part',$,(#7));
ENDSEC;
END-ISO-10303-21;
