ISO-10303-21;
HEADER;
FILE_DESCRIPTION(('Open CASCADE Model'),'2;1');
FILE_NAME('Open CASCADE Shape Model','2026-07-11T20:16:04',('Author'),(
    'Open CASCADE'),'Open CASCADE STEP processor 8.0','Open CASCADE 8.0'
  ,'Unknown');
FILE_SCHEMA(('AUTOMOTIVE_DESIGN { 1 0 10303 214 1 1 1 1 }'));
ENDSEC;
DATA;
#1 = APPLICATION_PROTOCOL_DEFINITION('international standard',
  'automotive_design',2000,#2);
#2 = APPLICATION_CONTEXT(
  'core data for automotive mechanical design processes');
#3 = SHAPE_DEFINITION_REPRESENTATION(#4,#10);
#4 = PRODUCT_DEFINITION_SHAPE('','',#5);
#5 = PRODUCT_DEFINITION('design','',#6,#9);
#6 = PRODUCT_DEFINITION_FORMATION('','',#7);
#7 = PRODUCT('Open CASCADE STEP translator 8.0 1',
  'Open CASCADE STEP translator 8.0 1','',(#8));
#8 = PRODUCT_CONTEXT('',#2,'mechanical');
#9 = PRODUCT_DEFINITION_CONTEXT('part definition',#2,'design');
#10 = ADVANCED_BREP_SHAPE_REPRESENTATION('',(#11,#15),#841);
#11 = AXIS2_PLACEMENT_3D('',#12,#13,#14);
#12 = CARTESIAN_POINT('',(0.,0.,0.));
#13 = DIRECTION('',(0.,0.,1.));
#14 = DIRECTION('',(1.,0.,-0.));
#15 = MANIFOLD_SOLID_BREP('',#16);
#16 = CLOSED_SHELL('',(#17,#137,#213,#262,#311,#547,#585,#640,#644,#837)
  );
#17 = ADVANCED_FACE('',(#18),#32,.F.);
#18 = FACE_BOUND('',#19,.F.);
#19 = EDGE_LOOP('',(#20,#55,#83,#111));
#20 = ORIENTED_EDGE('',*,*,#21,.F.);
#21 = EDGE_CURVE('',#22,#24,#26,.T.);
#22 = VERTEX_POINT('',#23);
#23 = CARTESIAN_POINT('',(-15.,-15.,-15.));
#24 = VERTEX_POINT('',#25);
#25 = CARTESIAN_POINT('',(-15.,-15.,15.));
#26 = SURFACE_CURVE('',#27,(#31,#43),.PCURVE_S1.);
#27 = LINE('',#28,#29);
#28 = CARTESIAN_POINT('',(-15.,-15.,-15.));
#29 = VECTOR('',#30,1.);
#30 = DIRECTION('',(0.,0.,1.));
#31 = PCURVE('',#32,#37);
#32 = PLANE('',#33);
#33 = AXIS2_PLACEMENT_3D('',#34,#35,#36);
#34 = CARTESIAN_POINT('',(-15.,-15.,-15.));
#35 = DIRECTION('',(1.,0.,0.));
#36 = DIRECTION('',(0.,0.,1.));
#37 = DEFINITIONAL_REPRESENTATION('',(#38),#42);
#38 = LINE('',#39,#40);
#39 = CARTESIAN_POINT('',(0.,0.));
#40 = VECTOR('',#41,1.);
#41 = DIRECTION('',(1.,0.));
#42 = ( GEOMETRIC_REPRESENTATION_CONTEXT(2) 
PARAMETRIC_REPRESENTATION_CONTEXT() REPRESENTATION_CONTEXT('2D SPACE',''
  ) );
#43 = PCURVE('',#44,#49);
#44 = PLANE('',#45);
#45 = AXIS2_PLACEMENT_3D('',#46,#47,#48);
#46 = CARTESIAN_POINT('',(-15.,-15.,-15.));
#47 = DIRECTION('',(0.,1.,0.));
#48 = DIRECTION('',(0.,-0.,1.));
#49 = DEFINITIONAL_REPRESENTATION('',(#50),#54);
#50 = LINE('',#51,#52);
#51 = CARTESIAN_POINT('',(0.,0.));
#52 = VECTOR('',#53,1.);
#53 = DIRECTION('',(1.,0.));
#54 = ( GEOMETRIC_REPRESENTATION_CONTEXT(2) 
PARAMETRIC_REPRESENTATION_CONTEXT() REPRESENTATION_CONTEXT('2D SPACE',''
  ) );
#55 = ORIENTED_EDGE('',*,*,#56,.T.);
#56 = EDGE_CURVE('',#22,#57,#59,.T.);
#57 = VERTEX_POINT('',#58);
#58 = CARTESIAN_POINT('',(-15.,15.,-15.));
#59 = SURFACE_CURVE('',#60,(#64,#71),.PCURVE_S1.);
#60 = LINE('',#61,#62);
#61 = CARTESIAN_POINT('',(-15.,-15.,-15.));
#62 = VECTOR('',#63,1.);
#63 = DIRECTION('',(0.,1.,0.));
#64 = PCURVE('',#32,#65);
#65 = DEFINITIONAL_REPRESENTATION('',(#66),#70);
#66 = LINE('',#67,#68);
#67 = CARTESIAN_POINT('',(0.,0.));
#68 = VECTOR('',#69,1.);
#69 = DIRECTION('',(0.,-1.));
#70 = ( GEOMETRIC_REPRESENTATION_CONTEXT(2) 
PARAMETRIC_REPRESENTATION_CONTEXT() REPRESENTATION_CONTEXT('2D SPACE',''
  ) );
#71 = PCURVE('',#72,#77);
#72 = PLANE('',#73);
#73 = AXIS2_PLACEMENT_3D('',#74,#75,#76);
#74 = CARTESIAN_POINT('',(-15.,-15.,-15.));
#75 = DIRECTION('',(0.,0.,1.));
#76 = DIRECTION('',(1.,0.,-0.));
#77 = DEFINITIONAL_REPRESENTATION('',(#78),#82);
#78 = LINE('',#79,#80);
#79 = CARTESIAN_POINT('',(0.,0.));
#80 = VECTOR('',#81,1.);
#81 = DIRECTION('',(0.,1.));
#82 = ( GEOMETRIC_REPRESENTATION_CONTEXT(2) 
PARAMETRIC_REPRESENTATION_CONTEXT() REPRESENTATION_CONTEXT('2D SPACE',''
  ) );
#83 = ORIENTED_EDGE('',*,*,#84,.T.);
#84 = EDGE_CURVE('',#57,#85,#87,.T.);
#85 = VERTEX_POINT('',#86);
#86 = CARTESIAN_POINT('',(-15.,15.,15.));
#87 = SURFACE_CURVE('',#88,(#92,#99),.PCURVE_S1.);
#88 = LINE('',#89,#90);
#89 = CARTESIAN_POINT('',(-15.,15.,-15.));
#90 = VECTOR('',#91,1.);
#91 = DIRECTION('',(0.,0.,1.));
#92 = PCURVE('',#32,#93);
#93 = DEFINITIONAL_REPRESENTATION('',(#94),#98);
#94 = LINE('',#95,#96);
#95 = CARTESIAN_POINT('',(0.,-30.));
#96 = VECTOR('',#97,1.);
#97 = DIRECTION('',(1.,0.));
#98 = ( GEOMETRIC_REPRESENTATION_CONTEXT(2) 
PARAMETRIC_REPRESENTATION_CONTEXT() REPRESENTATION_CONTEXT('2D SPACE',''
  ) );
#99 = PCURVE('',#100,#105);
#100 = PLANE('',#101);
#101 = AXIS2_PLACEMENT_3D('',#102,#103,#104);
#102 = CARTESIAN_POINT('',(-15.,15.,-15.));
#103 = DIRECTION('',(0.,1.,0.));
#104 = DIRECTION('',(0.,-0.,1.));
#105 = DEFINITIONAL_REPRESENTATION('',(#106),#110);
#106 = LINE('',#107,#108);
#107 = CARTESIAN_POINT('',(0.,0.));
#108 = VECTOR('',#109,1.);
#109 = DIRECTION('',(1.,0.));
#110 = ( GEOMETRIC_REPRESENTATION_CONTEXT(2) 
PARAMETRIC_REPRESENTATION_CONTEXT() REPRESENTATION_CONTEXT('2D SPACE',''
  ) );
#111 = ORIENTED_EDGE('',*,*,#112,.F.);
#112 = EDGE_CURVE('',#24,#85,#113,.T.);
#113 = SURFACE_CURVE('',#114,(#118,#125),.PCURVE_S1.);
#114 = LINE('',#115,#116);
#115 = CARTESIAN_POINT('',(-15.,-15.,15.));
#116 = VECTOR('',#117,1.);
#117 = DIRECTION('',(0.,1.,0.));
#118 = PCURVE('',#32,#119);
#119 = DEFINITIONAL_REPRESENTATION('',(#120),#124);
#120 = LINE('',#121,#122);
#121 = CARTESIAN_POINT('',(30.,0.));
#122 = VECTOR('',#123,1.);
#123 = DIRECTION('',(0.,-1.));
#124 = ( GEOMETRIC_REPRESENTATION_CONTEXT(2) 
PARAMETRIC_REPRESENTATION_CONTEXT() REPRESENTATION_CONTEXT('2D SPACE',''
  ) );
#125 = PCURVE('',#126,#131);
#126 = PLANE('',#127);
#127 = AXIS2_PLACEMENT_3D('',#128,#129,#130);
#128 = CARTESIAN_POINT('',(-15.,-15.,15.));
#129 = DIRECTION('',(0.,0.,1.));
#130 = DIRECTION('',(1.,0.,-0.));
#131 = DEFINITIONAL_REPRESENTATION('',(#132),#136);
#132 = LINE('',#133,#134);
#133 = CARTESIAN_POINT('',(0.,0.));
#134 = VECTOR('',#135,1.);
#135 = DIRECTION('',(0.,1.));
#136 = ( GEOMETRIC_REPRESENTATION_CONTEXT(2) 
PARAMETRIC_REPRESENTATION_CONTEXT() REPRESENTATION_CONTEXT('2D SPACE',''
  ) );
#137 = ADVANCED_FACE('',(#138),#44,.F.);
#138 = FACE_BOUND('',#139,.F.);
#139 = EDGE_LOOP('',(#140,#163,#164,#187));
#140 = ORIENTED_EDGE('',*,*,#141,.F.);
#141 = EDGE_CURVE('',#22,#142,#144,.T.);
#142 = VERTEX_POINT('',#143);
#143 = CARTESIAN_POINT('',(0.,-15.,-15.));
#144 = SURFACE_CURVE('',#145,(#149,#156),.PCURVE_S1.);
#145 = LINE('',#146,#147);
#146 = CARTESIAN_POINT('',(-15.,-15.,-15.));
#147 = VECTOR('',#148,1.);
#148 = DIRECTION('',(1.,0.,0.));
#149 = PCURVE('',#44,#150);
#150 = DEFINITIONAL_REPRESENTATION('',(#151),#155);
#151 = LINE('',#152,#153);
#152 = CARTESIAN_POINT('',(0.,0.));
#153 = VECTOR('',#154,1.);
#154 = DIRECTION('',(0.,1.));
#155 = ( GEOMETRIC_REPRESENTATION_CONTEXT(2) 
PARAMETRIC_REPRESENTATION_CONTEXT() REPRESENTATION_CONTEXT('2D SPACE',''
  ) );
#156 = PCURVE('',#72,#157);
#157 = DEFINITIONAL_REPRESENTATION('',(#158),#162);
#158 = LINE('',#159,#160);
#159 = CARTESIAN_POINT('',(0.,0.));
#160 = VECTOR('',#161,1.);
#161 = DIRECTION('',(1.,0.));
#162 = ( GEOMETRIC_REPRESENTATION_CONTEXT(2) 
PARAMETRIC_REPRESENTATION_CONTEXT() REPRESENTATION_CONTEXT('2D SPACE',''
  ) );
#163 = ORIENTED_EDGE('',*,*,#21,.T.);
#164 = ORIENTED_EDGE('',*,*,#165,.T.);
#165 = EDGE_CURVE('',#24,#166,#168,.T.);
#166 = VERTEX_POINT('',#167);
#167 = CARTESIAN_POINT('',(0.,-15.,15.));
#168 = SURFACE_CURVE('',#169,(#173,#180),.PCURVE_S1.);
#169 = LINE('',#170,#171);
#170 = CARTESIAN_POINT('',(-15.,-15.,15.));
#171 = VECTOR('',#172,1.);
#172 = DIRECTION('',(1.,0.,0.));
#173 = PCURVE('',#44,#174);
#174 = DEFINITIONAL_REPRESENTATION('',(#175),#179);
#175 = LINE('',#176,#177);
#176 = CARTESIAN_POINT('',(30.,0.));
#177 = VECTOR('',#178,1.);
#178 = DIRECTION('',(0.,1.));
#179 = ( GEOMETRIC_REPRESENTATION_CONTEXT(2) 
PARAMETRIC_REPRESENTATION_CONTEXT() REPRESENTATION_CONTEXT('2D SPACE',''
  ) );
#180 = PCURVE('',#126,#181);
#181 = DEFINITIONAL_REPRESENTATION('',(#182),#186);
#182 = LINE('',#183,#184);
#183 = CARTESIAN_POINT('',(0.,0.));
#184 = VECTOR('',#185,1.);
#185 = DIRECTION('',(1.,0.));
#186 = ( GEOMETRIC_REPRESENTATION_CONTEXT(2) 
PARAMETRIC_REPRESENTATION_CONTEXT() REPRESENTATION_CONTEXT('2D SPACE',''
  ) );
#187 = ORIENTED_EDGE('',*,*,#188,.F.);
#188 = EDGE_CURVE('',#142,#166,#189,.T.);
#189 = SURFACE_CURVE('',#190,(#194,#201),.PCURVE_S1.);
#190 = LINE('',#191,#192);
#191 = CARTESIAN_POINT('',(0.,-15.,-15.));
#192 = VECTOR('',#193,1.);
#193 = DIRECTION('',(0.,0.,1.));
#194 = PCURVE('',#44,#195);
#195 = DEFINITIONAL_REPRESENTATION('',(#196),#200);
#196 = LINE('',#197,#198);
#197 = CARTESIAN_POINT('',(0.,15.));
#198 = VECTOR('',#199,1.);
#199 = DIRECTION('',(1.,0.));
#200 = ( GEOMETRIC_REPRESENTATION_CONTEXT(2) 
PARAMETRIC_REPRESENTATION_CONTEXT() REPRESENTATION_CONTEXT('2D SPACE',''
  ) );
#201 = PCURVE('',#202,#207);
#202 = PLANE('',#203);
#203 = AXIS2_PLACEMENT_3D('',#204,#205,#206);
#204 = CARTESIAN_POINT('',(0.,-15.,-15.));
#205 = DIRECTION('',(1.,0.,0.));
#206 = DIRECTION('',(0.,0.,1.));
#207 = DEFINITIONAL_REPRESENTATION('',(#208),#212);
#208 = LINE('',#209,#210);
#209 = CARTESIAN_POINT('',(0.,0.));
#210 = VECTOR('',#211,1.);
#211 = DIRECTION('',(1.,0.));
#212 = ( GEOMETRIC_REPRESENTATION_CONTEXT(2) 
PARAMETRIC_REPRESENTATION_CONTEXT() REPRESENTATION_CONTEXT('2D SPACE',''
  ) );
#213 = ADVANCED_FACE('',(#214),#72,.F.);
#214 = FACE_BOUND('',#215,.F.);
#215 = EDGE_LOOP('',(#216,#217,#218,#241));
#216 = ORIENTED_EDGE('',*,*,#56,.F.);
#217 = ORIENTED_EDGE('',*,*,#141,.T.);
#218 = ORIENTED_EDGE('',*,*,#219,.T.);
#219 = EDGE_CURVE('',#142,#220,#222,.T.);
#220 = VERTEX_POINT('',#221);
#221 = CARTESIAN_POINT('',(0.,15.,-15.));
#222 = SURFACE_CURVE('',#223,(#227,#234),.PCURVE_S1.);
#223 = LINE('',#224,#225);
#224 = CARTESIAN_POINT('',(0.,-15.,-15.));
#225 = VECTOR('',#226,1.);
#226 = DIRECTION('',(0.,1.,0.));
#227 = PCURVE('',#72,#228);
#228 = DEFINITIONAL_REPRESENTATION('',(#229),#233);
#229 = LINE('',#230,#231);
#230 = CARTESIAN_POINT('',(15.,0.));
#231 = VECTOR('',#232,1.);
#232 = DIRECTION('',(0.,1.));
#233 = ( GEOMETRIC_REPRESENTATION_CONTEXT(2) 
PARAMETRIC_REPRESENTATION_CONTEXT() REPRESENTATION_CONTEXT('2D SPACE',''
  ) );
#234 = PCURVE('',#202,#235);
#235 = DEFINITIONAL_REPRESENTATION('',(#236),#240);
#236 = LINE('',#237,#238);
#237 = CARTESIAN_POINT('',(0.,0.));
#238 = VECTOR('',#239,1.);
#239 = DIRECTION('',(0.,-1.));
#240 = ( GEOMETRIC_REPRESENTATION_CONTEXT(2) 
PARAMETRIC_REPRESENTATION_CONTEXT() REPRESENTATION_CONTEXT('2D SPACE',''
  ) );
#241 = ORIENTED_EDGE('',*,*,#242,.F.);
#242 = EDGE_CURVE('',#57,#220,#243,.T.);
#243 = SURFACE_CURVE('',#244,(#248,#255),.PCURVE_S1.);
#244 = LINE('',#245,#246);
#245 = CARTESIAN_POINT('',(-15.,15.,-15.));
#246 = VECTOR('',#247,1.);
#247 = DIRECTION('',(1.,0.,0.));
#248 = PCURVE('',#72,#249);
#249 = DEFINITIONAL_REPRESENTATION('',(#250),#254);
#250 = LINE('',#251,#252);
#251 = CARTESIAN_POINT('',(0.,30.));
#252 = VECTOR('',#253,1.);
#253 = DIRECTION('',(1.,0.));
#254 = ( GEOMETRIC_REPRESENTATION_CONTEXT(2) 
PARAMETRIC_REPRESENTATION_CONTEXT() REPRESENTATION_CONTEXT('2D SPACE',''
  ) );
#255 = PCURVE('',#100,#256);
#256 = DEFINITIONAL_REPRESENTATION('',(#257),#261);
#257 = LINE('',#258,#259);
#258 = CARTESIAN_POINT('',(0.,0.));
#259 = VECTOR('',#260,1.);
#260 = DIRECTION('',(0.,1.));
#261 = ( GEOMETRIC_REPRESENTATION_CONTEXT(2) 
PARAMETRIC_REPRESENTATION_CONTEXT() REPRESENTATION_CONTEXT('2D SPACE',''
  ) );
#262 = ADVANCED_FACE('',(#263),#100,.T.);
#263 = FACE_BOUND('',#264,.T.);
#264 = EDGE_LOOP('',(#265,#266,#267,#290));
#265 = ORIENTED_EDGE('',*,*,#242,.F.);
#266 = ORIENTED_EDGE('',*,*,#84,.T.);
#267 = ORIENTED_EDGE('',*,*,#268,.T.);
#268 = EDGE_CURVE('',#85,#269,#271,.T.);
#269 = VERTEX_POINT('',#270);
#270 = CARTESIAN_POINT('',(0.,15.,15.));
#271 = SURFACE_CURVE('',#272,(#276,#283),.PCURVE_S1.);
#272 = LINE('',#273,#274);
#273 = CARTESIAN_POINT('',(-15.,15.,15.));
#274 = VECTOR('',#275,1.);
#275 = DIRECTION('',(1.,0.,0.));
#276 = PCURVE('',#100,#277);
#277 = DEFINITIONAL_REPRESENTATION('',(#278),#282);
#278 = LINE('',#279,#280);
#279 = CARTESIAN_POINT('',(30.,0.));
#280 = VECTOR('',#281,1.);
#281 = DIRECTION('',(0.,1.));
#282 = ( GEOMETRIC_REPRESENTATION_CONTEXT(2) 
PARAMETRIC_REPRESENTATION_CONTEXT() REPRESENTATION_CONTEXT('2D SPACE',''
  ) );
#283 = PCURVE('',#126,#284);
#284 = DEFINITIONAL_REPRESENTATION('',(#285),#289);
#285 = LINE('',#286,#287);
#286 = CARTESIAN_POINT('',(0.,30.));
#287 = VECTOR('',#288,1.);
#288 = DIRECTION('',(1.,0.));
#289 = ( GEOMETRIC_REPRESENTATION_CONTEXT(2) 
PARAMETRIC_REPRESENTATION_CONTEXT() REPRESENTATION_CONTEXT('2D SPACE',''
  ) );
#290 = ORIENTED_EDGE('',*,*,#291,.F.);
#291 = EDGE_CURVE('',#220,#269,#292,.T.);
#292 = SURFACE_CURVE('',#293,(#297,#304),.PCURVE_S1.);
#293 = LINE('',#294,#295);
#294 = CARTESIAN_POINT('',(0.,15.,-15.));
#295 = VECTOR('',#296,1.);
#296 = DIRECTION('',(0.,0.,1.));
#297 = PCURVE('',#100,#298);
#298 = DEFINITIONAL_REPRESENTATION('',(#299),#303);
#299 = LINE('',#300,#301);
#300 = CARTESIAN_POINT('',(0.,15.));
#301 = VECTOR('',#302,1.);
#302 = DIRECTION('',(1.,0.));
#303 = ( GEOMETRIC_REPRESENTATION_CONTEXT(2) 
PARAMETRIC_REPRESENTATION_CONTEXT() REPRESENTATION_CONTEXT('2D SPACE',''
  ) );
#304 = PCURVE('',#202,#305);
#305 = DEFINITIONAL_REPRESENTATION('',(#306),#310);
#306 = LINE('',#307,#308);
#307 = CARTESIAN_POINT('',(0.,-30.));
#308 = VECTOR('',#309,1.);
#309 = DIRECTION('',(1.,0.));
#310 = ( GEOMETRIC_REPRESENTATION_CONTEXT(2) 
PARAMETRIC_REPRESENTATION_CONTEXT() REPRESENTATION_CONTEXT('2D SPACE',''
  ) );
#311 = ADVANCED_FACE('',(#312,#338),#202,.T.);
#312 = FACE_BOUND('',#313,.T.);
#313 = EDGE_LOOP('',(#314,#315,#316,#317));
#314 = ORIENTED_EDGE('',*,*,#188,.F.);
#315 = ORIENTED_EDGE('',*,*,#219,.T.);
#316 = ORIENTED_EDGE('',*,*,#291,.T.);
#317 = ORIENTED_EDGE('',*,*,#318,.F.);
#318 = EDGE_CURVE('',#166,#269,#319,.T.);
#319 = SURFACE_CURVE('',#320,(#324,#331),.PCURVE_S1.);
#320 = LINE('',#321,#322);
#321 = CARTESIAN_POINT('',(0.,-15.,15.));
#322 = VECTOR('',#323,1.);
#323 = DIRECTION('',(0.,1.,0.));
#324 = PCURVE('',#202,#325);
#325 = DEFINITIONAL_REPRESENTATION('',(#326),#330);
#326 = LINE('',#327,#328);
#327 = CARTESIAN_POINT('',(30.,0.));
#328 = VECTOR('',#329,1.);
#329 = DIRECTION('',(0.,-1.));
#330 = ( GEOMETRIC_REPRESENTATION_CONTEXT(2) 
PARAMETRIC_REPRESENTATION_CONTEXT() REPRESENTATION_CONTEXT('2D SPACE',''
  ) );
#331 = PCURVE('',#126,#332);
#332 = DEFINITIONAL_REPRESENTATION('',(#333),#337);
#333 = LINE('',#334,#335);
#334 = CARTESIAN_POINT('',(15.,0.));
#335 = VECTOR('',#336,1.);
#336 = DIRECTION('',(0.,1.));
#337 = ( GEOMETRIC_REPRESENTATION_CONTEXT(2) 
PARAMETRIC_REPRESENTATION_CONTEXT() REPRESENTATION_CONTEXT('2D SPACE',''
  ) );
#338 = FACE_BOUND('',#339,.T.);
#339 = EDGE_LOOP('',(#340));
#340 = ORIENTED_EDGE('',*,*,#341,.F.);
#341 = EDGE_CURVE('',#342,#342,#344,.T.);
#342 = VERTEX_POINT('',#343);
#343 = CARTESIAN_POINT('',(0.,0.,10.));
#344 = SURFACE_CURVE('',#345,(#350,#357),.PCURVE_S1.);
#345 = CIRCLE('',#346,10.);
#346 = AXIS2_PLACEMENT_3D('',#347,#348,#349);
#347 = CARTESIAN_POINT('',(0.,0.,0.));
#348 = DIRECTION('',(1.,0.,-0.));
#349 = DIRECTION('',(0.,0.,1.));
#350 = PCURVE('',#202,#351);
#351 = DEFINITIONAL_REPRESENTATION('',(#352),#356);
#352 = CIRCLE('',#353,10.);
#353 = AXIS2_PLACEMENT_2D('',#354,#355);
#354 = CARTESIAN_POINT('',(15.,-15.));
#355 = DIRECTION('',(1.,0.));
#356 = ( GEOMETRIC_REPRESENTATION_CONTEXT(2) 
PARAMETRIC_REPRESENTATION_CONTEXT() REPRESENTATION_CONTEXT('2D SPACE',''
  ) );
#357 = PCURVE('',#358,#422);
#358 = ( BOUNDED_SURFACE() B_SPLINE_SURFACE(6,8,(
    (#359,#360,#361,#362,#363,#364,#365,#366,#367)
    ,(#368,#369,#370,#371,#372,#373,#374,#375,#376)
    ,(#377,#378,#379,#380,#381,#382,#383,#384,#385)
    ,(#386,#387,#388,#389,#390,#391,#392,#393,#394)
    ,(#395,#396,#397,#398,#399,#400,#401,#402,#403)
    ,(#404,#405,#406,#407,#408,#409,#410,#411,#412)
    ,(#413,#414,#415,#416,#417,#418,#419,#420,#421
)),.UNSPECIFIED.,.T.,.F.,.F.) B_SPLINE_SURFACE_WITH_KNOTS((7,7),(9,9),(
    0.,6.28318530718),(0.,1.),.PIECEWISE_BEZIER_KNOTS.) 
GEOMETRIC_REPRESENTATION_ITEM() RATIONAL_B_SPLINE_SURFACE((
    (1.669078461068,1.669078461068,1.669078461068,1.669078461069
      ,1.669078461068,1.669078461069,1.669078461068,1.669078461068
      ,1.669078461068)
    ,(1.03672962321,1.03672962321,1.036729623209,1.03672962321
      ,1.036729623209,1.03672962321,1.036729623209,1.03672962321
      ,1.03672962321)
    ,(1.038346699848,1.038346699848,1.038346699847,1.038346699848
      ,1.038346699847,1.038346699848,1.038346699847,1.038346699848
      ,1.038346699848)
    ,(0.853534330196,0.853534330196,0.853534330196,0.853534330196
      ,0.853534330196,0.853534330196,0.853534330196,0.853534330196
      ,0.853534330196)
    ,(1.038346699848,1.038346699848,1.038346699848,1.038346699848
      ,1.038346699847,1.038346699848,1.038346699847,1.038346699848
      ,1.038346699848)
    ,(1.03672962321,1.03672962321,1.03672962321,1.03672962321
      ,1.036729623209,1.03672962321,1.03672962321,1.03672962321
      ,1.03672962321)
    ,(1.669078461068,1.669078461068,1.669078461068,1.669078461069
      ,1.669078461068,1.669078461069,1.669078461068,1.669078461068
,1.669078461068))) REPRESENTATION_ITEM('') SURFACE() );
#359 = CARTESIAN_POINT('',(5.321370087849E-16,-2.12854803514E-15,10.));
#360 = CARTESIAN_POINT('',(3.75540916461,-2.12854803514E-15,10.));
#361 = CARTESIAN_POINT('',(6.414641810436,1.07142857143,10.));
#362 = CARTESIAN_POINT('',(8.406796605727,2.857142857139,10.000000000001
    ));
#363 = CARTESIAN_POINT('',(10.000000000008,5.000000000005,9.999999999997
    ));
#364 = CARTESIAN_POINT('',(11.593203394261,7.142857142853,
    10.000000000002));
#365 = CARTESIAN_POINT('',(13.585358189569,8.928571428573,9.999999999999
    ));
#366 = CARTESIAN_POINT('',(16.244590835389,10.,10.));
#367 = CARTESIAN_POINT('',(20.,10.,10.));
#368 = CARTESIAN_POINT('',(8.567117209889E-16,-16.61543075571,10.));
#369 = CARTESIAN_POINT('',(7.915258560206,-16.61543075571,10.));
#370 = CARTESIAN_POINT('',(15.701093259022,-14.72484421057,
    9.999999999999));
#371 = CARTESIAN_POINT('',(24.824823661188,-6.962526216883,
    10.000000000003));
#372 = CARTESIAN_POINT('',(18.317106671246,-5.317723085584,
    9.999999999995));
#373 = CARTESIAN_POINT('',(28.011230449723,-2.676811931171,
    10.000000000004));
#374 = CARTESIAN_POINT('',(22.871809638154,-6.867701353429,
    9.999999999999));
#375 = CARTESIAN_POINT('',(20.404440230986,-6.615430755711,10.));
#376 = CARTESIAN_POINT('',(20.,-6.615430755711,10.));
#377 = CARTESIAN_POINT('',(8.553775148807E-16,-19.00112383245,
    -10.54548190548));
#378 = CARTESIAN_POINT('',(8.512542136496,-19.00112383245,
    -10.54548190548));
#379 = CARTESIAN_POINT('',(17.034469639936,-16.99292014362,
    -10.54548190548));
#380 = CARTESIAN_POINT('',(27.182172926227,-8.372463573932,
    -10.54548190547));
#381 = CARTESIAN_POINT('',(19.511301639501,-6.799172522245,
    -10.54548190548));
#382 = CARTESIAN_POINT('',(30.368579714761,-4.086749288218,
    -10.54548190547));
#383 = CARTESIAN_POINT('',(24.205186019068,-9.135777286484,
    -10.54548190548));
#384 = CARTESIAN_POINT('',(21.001723807276,-9.001123832456,
    -10.54548190548));
#385 = CARTESIAN_POINT('',(20.,-9.001123832456,-10.54548190548));
#386 = CARTESIAN_POINT('',(1.040588981929E-15,-3.329884742172E-14,
    -27.49116921008));
#387 = CARTESIAN_POINT('',(3.75540916461,-3.329884742172E-14,
    -27.49116921008));
#388 = CARTESIAN_POINT('',(6.414641810434,1.071428571427,-27.49116921008
    ));
#389 = CARTESIAN_POINT('',(8.406796605733,2.857142857147,-27.49116921009
    ));
#390 = CARTESIAN_POINT('',(10.,4.999999999993,-27.49116921007));
#391 = CARTESIAN_POINT('',(11.593203394267,7.142857142863,
    -27.49116921009));
#392 = CARTESIAN_POINT('',(13.585358189567,8.928571428569,
    -27.49116921008));
#393 = CARTESIAN_POINT('',(16.244590835389,10.,-27.49116921008));
#394 = CARTESIAN_POINT('',(20.,10.,-27.49116921008));
#395 = CARTESIAN_POINT('',(8.553775148807E-16,19.001123832456,
    -10.54548190548));
#396 = CARTESIAN_POINT('',(-1.001723807276,19.001123832456,
    -10.54548190548));
#397 = CARTESIAN_POINT('',(-4.205186019066,19.135777286482,
    -10.54548190548));
#398 = CARTESIAN_POINT('',(-10.36857971476,14.086749288224,
    -10.54548190548));
#399 = CARTESIAN_POINT('',(0.48869836051,16.799172522237,-10.54548190548
    ));
#400 = CARTESIAN_POINT('',(-7.182172926238,18.372463573937,
    -10.54548190548));
#401 = CARTESIAN_POINT('',(2.96553036007,26.992920143626,-10.54548190548
    ));
#402 = CARTESIAN_POINT('',(11.487457863502,29.001123832456,
    -10.54548190548));
#403 = CARTESIAN_POINT('',(20.,29.001123832456,-10.54548190548));
#404 = CARTESIAN_POINT('',(8.567117209889E-16,16.615430755711,10.));
#405 = CARTESIAN_POINT('',(-0.404440230986,16.615430755711,10.));
#406 = CARTESIAN_POINT('',(-2.87180963815,16.867701353431,9.999999999999
    ));
#407 = CARTESIAN_POINT('',(-8.011230449741,12.676811931165,
    10.000000000005));
#408 = CARTESIAN_POINT('',(1.682893328779,15.31772308559,9.999999999992)
  );
#409 = CARTESIAN_POINT('',(-4.824823661211,16.96252621688,
    10.000000000006));
#410 = CARTESIAN_POINT('',(4.298906740987,24.724844210573,9.999999999998
    ));
#411 = CARTESIAN_POINT('',(12.084741439793,26.615430755711,10.));
#412 = CARTESIAN_POINT('',(20.,26.615430755711,10.));
#413 = CARTESIAN_POINT('',(5.321370087849E-16,-2.12854803514E-15,10.));
#414 = CARTESIAN_POINT('',(3.75540916461,-2.12854803514E-15,10.));
#415 = CARTESIAN_POINT('',(6.414641810436,1.07142857143,10.));
#416 = CARTESIAN_POINT('',(8.406796605727,2.857142857139,10.000000000001
    ));
#417 = CARTESIAN_POINT('',(10.000000000008,5.000000000005,9.999999999997
    ));
#418 = CARTESIAN_POINT('',(11.593203394261,7.142857142853,
    10.000000000002));
#419 = CARTESIAN_POINT('',(13.585358189569,8.928571428573,9.999999999999
    ));
#420 = CARTESIAN_POINT('',(16.244590835389,10.,10.));
#421 = CARTESIAN_POINT('',(20.,10.,10.));
#422 = DEFINITIONAL_REPRESENTATION('',(#423),#546);
#423 = B_SPLINE_CURVE_WITH_KNOTS('',11,(#424,#425,#426,#427,#428,#429,
    #430,#431,#432,#433,#434,#435,#436,#437,#438,#439,#440,#441,#442,
    #443,#444,#445,#446,#447,#448,#449,#450,#451,#452,#453,#454,#455,
    #456,#457,#458,#459,#460,#461,#462,#463,#464,#465,#466,#467,#468,
    #469,#470,#471,#472,#473,#474,#475,#476,#477,#478,#479,#480,#481,
    #482,#483,#484,#485,#486,#487,#488,#489,#490,#491,#492,#493,#494,
    #495,#496,#497,#498,#499,#500,#501,#502,#503,#504,#505,#506,#507,
    #508,#509,#510,#511,#512,#513,#514,#515,#516,#517,#518,#519,#520,
    #521,#522,#523,#524,#525,#526,#527,#528,#529,#530,#531,#532,#533,
    #534,#535,#536,#537,#538,#539,#540,#541,#542,#543,#544,#545),
  .UNSPECIFIED.,.F.,.F.,(12,10,10,10,10,10,10,10,10,10,10,10,12),(0.,
    0.785398163397,1.570796326795,2.356194490192,2.748893571891,
    2.94524311274,3.14159265359,3.337942194439,3.534291735289,
    3.926990816987,4.712388980385,5.497787143782,6.28318530718),
  .UNSPECIFIED.);
#424 = CARTESIAN_POINT('',(1.110223024625E-16,0.));
#425 = CARTESIAN_POINT('',(7.244784204197E-02,0.));
#426 = CARTESIAN_POINT('',(0.144644682608,0.));
#427 = CARTESIAN_POINT('',(0.216628354625,0.));
#428 = CARTESIAN_POINT('',(0.288432955118,0.));
#429 = CARTESIAN_POINT('',(0.360089139006,0.));
#430 = CARTESIAN_POINT('',(0.431624055784,0.));
#431 = CARTESIAN_POINT('',(0.503061569744,0.));
#432 = CARTESIAN_POINT('',(0.57442261695,0.));
#433 = CARTESIAN_POINT('',(0.645725338119,0.));
#434 = CARTESIAN_POINT('',(0.716984985946,0.));
#435 = CARTESIAN_POINT('',(0.859444090491,0.));
#436 = CARTESIAN_POINT('',(0.930643533437,0.));
#437 = CARTESIAN_POINT('',(1.001825824712,0.));
#438 = CARTESIAN_POINT('',(1.073001369341,0.));
#439 = CARTESIAN_POINT('',(1.144178476612,0.));
#440 = CARTESIAN_POINT('',(1.21536339335,0.));
#441 = CARTESIAN_POINT('',(1.286560548773,0.));
#442 = CARTESIAN_POINT('',(1.357772941399,0.));
#443 = CARTESIAN_POINT('',(1.429002371562,0.));
#444 = CARTESIAN_POINT('',(1.500249474229,0.));
#445 = CARTESIAN_POINT('',(1.642778997268,0.));
#446 = CARTESIAN_POINT('',(1.714061458554,0.));
#447 = CARTESIAN_POINT('',(1.785361290275,0.));
#448 = CARTESIAN_POINT('',(1.856678500525,0.));
#449 = CARTESIAN_POINT('',(1.928009928873,0.));
#450 = CARTESIAN_POINT('',(1.99935657346,0.));
#451 = CARTESIAN_POINT('',(2.070713344805,0.));
#452 = CARTESIAN_POINT('',(2.14208107416,0.));
#453 = CARTESIAN_POINT('',(2.213456320033,0.));
#454 = CARTESIAN_POINT('',(2.284837977292,0.));
#455 = CARTESIAN_POINT('',(2.391917953491,0.));
#456 = CARTESIAN_POINT('',(2.42761242602,0.));
#457 = CARTESIAN_POINT('',(2.463308075481,0.));
#458 = CARTESIAN_POINT('',(2.499004787525,0.));
#459 = CARTESIAN_POINT('',(2.534701858589,0.));
#460 = CARTESIAN_POINT('',(2.570400007343,0.));
#461 = CARTESIAN_POINT('',(2.606097708389,0.));
#462 = CARTESIAN_POINT('',(2.641796564357,0.));
#463 = CARTESIAN_POINT('',(2.677495633291,0.));
#464 = CARTESIAN_POINT('',(2.713195283932,0.));
#465 = CARTESIAN_POINT('',(2.766744178426,0.));
#466 = CARTESIAN_POINT('',(2.784593752897,0.));
#467 = CARTESIAN_POINT('',(2.802443447502,0.));
#468 = CARTESIAN_POINT('',(2.820293347272,0.));
#469 = CARTESIAN_POINT('',(2.838143417122,0.));
#470 = CARTESIAN_POINT('',(2.85599355416,0.));
#471 = CARTESIAN_POINT('',(2.8738436526,0.));
#472 = CARTESIAN_POINT('',(2.891693645063,0.));
#473 = CARTESIAN_POINT('',(2.909543516239,0.));
#474 = CARTESIAN_POINT('',(2.92739331633,0.));
#475 = CARTESIAN_POINT('',(2.963093151276,0.));
#476 = CARTESIAN_POINT('',(2.980943063429,0.));
#477 = CARTESIAN_POINT('',(2.998792982839,0.));
#478 = CARTESIAN_POINT('',(3.016642914318,0.));
#479 = CARTESIAN_POINT('',(3.034492857967,0.));
#480 = CARTESIAN_POINT('',(3.052342811649,0.));
#481 = CARTESIAN_POINT('',(3.07019277262,0.));
#482 = CARTESIAN_POINT('',(3.088042738641,0.));
#483 = CARTESIAN_POINT('',(3.105892708245,0.));
#484 = CARTESIAN_POINT('',(3.12374268043,0.));
#485 = CARTESIAN_POINT('',(3.15944262675,0.));
#486 = CARTESIAN_POINT('',(3.177292598934,0.));
#487 = CARTESIAN_POINT('',(3.195142568539,0.));
#488 = CARTESIAN_POINT('',(3.212992534559,0.));
#489 = CARTESIAN_POINT('',(3.230842495532,0.));
#490 = CARTESIAN_POINT('',(3.248692449211,0.));
#491 = CARTESIAN_POINT('',(3.266542392863,0.));
#492 = CARTESIAN_POINT('',(3.28439232434,0.));
#493 = CARTESIAN_POINT('',(3.302242243751,0.));
#494 = CARTESIAN_POINT('',(3.320092155903,0.));
#495 = CARTESIAN_POINT('',(3.35579199085,0.));
#496 = CARTESIAN_POINT('',(3.373641790941,0.));
#497 = CARTESIAN_POINT('',(3.391491662114,0.));
#498 = CARTESIAN_POINT('',(3.409341654583,0.));
#499 = CARTESIAN_POINT('',(3.427191753015,0.));
#500 = CARTESIAN_POINT('',(3.445041890061,0.));
#501 = CARTESIAN_POINT('',(3.462891959904,0.));
#502 = CARTESIAN_POINT('',(3.480741859679,0.));
#503 = CARTESIAN_POINT('',(3.498591554282,0.));
#504 = CARTESIAN_POINT('',(3.516441128754,0.));
#505 = CARTESIAN_POINT('',(3.569990023248,0.));
#506 = CARTESIAN_POINT('',(3.605689673887,0.));
#507 = CARTESIAN_POINT('',(3.641388742826,0.));
#508 = CARTESIAN_POINT('',(3.677087598787,0.));
#509 = CARTESIAN_POINT('',(3.712785299841,0.));
#510 = CARTESIAN_POINT('',(3.748483448586,0.));
#511 = CARTESIAN_POINT('',(3.784180519658,0.));
#512 = CARTESIAN_POINT('',(3.819877231697,0.));
#513 = CARTESIAN_POINT('',(3.85557288116,0.));
#514 = CARTESIAN_POINT('',(3.891267353688,0.));
#515 = CARTESIAN_POINT('',(3.998347329888,0.));
#516 = CARTESIAN_POINT('',(4.069728987151,0.));
#517 = CARTESIAN_POINT('',(4.141104232992,0.));
#518 = CARTESIAN_POINT('',(4.212471962434,0.));
#519 = CARTESIAN_POINT('',(4.283828733686,0.));
#520 = CARTESIAN_POINT('',(4.355175378176,0.));
#521 = CARTESIAN_POINT('',(4.426506806973,0.));
#522 = CARTESIAN_POINT('',(4.497824016628,0.));
#523 = CARTESIAN_POINT('',(4.569123848664,0.));
#524 = CARTESIAN_POINT('',(4.640406309984,0.));
#525 = CARTESIAN_POINT('',(4.782935832878,0.));
#526 = CARTESIAN_POINT('',(4.854182935883,0.));
#527 = CARTESIAN_POINT('',(4.925412364705,0.));
#528 = CARTESIAN_POINT('',(4.996624760324,0.));
#529 = CARTESIAN_POINT('',(5.067821913638,0.));
#530 = CARTESIAN_POINT('',(5.139006827389,0.));
#531 = CARTESIAN_POINT('',(5.21018393946,0.));
#532 = CARTESIAN_POINT('',(5.281359487214,0.));
#533 = CARTESIAN_POINT('',(5.352541768144,0.));
#534 = CARTESIAN_POINT('',(5.423741216667,0.));
#535 = CARTESIAN_POINT('',(5.566200323224,0.));
#536 = CARTESIAN_POINT('',(5.637459981228,0.));
#537 = CARTESIAN_POINT('',(5.708762637923,0.));
#538 = CARTESIAN_POINT('',(5.78012372509,0.));
#539 = CARTESIAN_POINT('',(5.851561283233,0.));
#540 = CARTESIAN_POINT('',(5.923096177419,0.));
#541 = CARTESIAN_POINT('',(5.994752337425,0.));
#542 = CARTESIAN_POINT('',(6.066556955343,0.));
#543 = CARTESIAN_POINT('',(6.138540625465,0.));
#544 = CARTESIAN_POINT('',(6.210737465138,0.));
#545 = CARTESIAN_POINT('',(6.28318530718,0.));
#546 = ( GEOMETRIC_REPRESENTATION_CONTEXT(2) 
PARAMETRIC_REPRESENTATION_CONTEXT() REPRESENTATION_CONTEXT('2D SPACE',''
  ) );
#547 = ADVANCED_FACE('',(#548,#554),#126,.T.);
#548 = FACE_BOUND('',#549,.T.);
#549 = EDGE_LOOP('',(#550,#551,#552,#553));
#550 = ORIENTED_EDGE('',*,*,#112,.F.);
#551 = ORIENTED_EDGE('',*,*,#165,.T.);
#552 = ORIENTED_EDGE('',*,*,#318,.T.);
#553 = ORIENTED_EDGE('',*,*,#268,.F.);
#554 = FACE_BOUND('',#555,.T.);
#555 = EDGE_LOOP('',(#556));
#556 = ORIENTED_EDGE('',*,*,#557,.F.);
#557 = EDGE_CURVE('',#558,#558,#560,.T.);
#558 = VERTEX_POINT('',#559);
#559 = CARTESIAN_POINT('',(-1.5,0.,15.));
#560 = SURFACE_CURVE('',#561,(#566,#573),.PCURVE_S1.);
#561 = CIRCLE('',#562,6.);
#562 = AXIS2_PLACEMENT_3D('',#563,#564,#565);
#563 = CARTESIAN_POINT('',(-7.5,0.,15.));
#564 = DIRECTION('',(0.,0.,1.));
#565 = DIRECTION('',(1.,0.,0.));
#566 = PCURVE('',#126,#567);
#567 = DEFINITIONAL_REPRESENTATION('',(#568),#572);
#568 = CIRCLE('',#569,6.);
#569 = AXIS2_PLACEMENT_2D('',#570,#571);
#570 = CARTESIAN_POINT('',(7.5,15.));
#571 = DIRECTION('',(1.,0.));
#572 = ( GEOMETRIC_REPRESENTATION_CONTEXT(2) 
PARAMETRIC_REPRESENTATION_CONTEXT() REPRESENTATION_CONTEXT('2D SPACE',''
  ) );
#573 = PCURVE('',#574,#579);
#574 = CYLINDRICAL_SURFACE('',#575,6.);
#575 = AXIS2_PLACEMENT_3D('',#576,#577,#578);
#576 = CARTESIAN_POINT('',(-7.5,0.,15.));
#577 = DIRECTION('',(0.,0.,1.));
#578 = DIRECTION('',(1.,0.,0.));
#579 = DEFINITIONAL_REPRESENTATION('',(#580),#584);
#580 = LINE('',#581,#582);
#581 = CARTESIAN_POINT('',(0.,0.));
#582 = VECTOR('',#583,1.);
#583 = DIRECTION('',(1.,0.));
#584 = ( GEOMETRIC_REPRESENTATION_CONTEXT(2) 
PARAMETRIC_REPRESENTATION_CONTEXT() REPRESENTATION_CONTEXT('2D SPACE',''
  ) );
#585 = ADVANCED_FACE('',(#586),#574,.T.);
#586 = FACE_BOUND('',#587,.T.);
#587 = EDGE_LOOP('',(#588,#617,#638,#639));
#588 = ORIENTED_EDGE('',*,*,#589,.F.);
#589 = EDGE_CURVE('',#590,#590,#592,.T.);
#590 = VERTEX_POINT('',#591);
#591 = CARTESIAN_POINT('',(-1.5,0.,25.));
#592 = SURFACE_CURVE('',#593,(#598,#605),.PCURVE_S1.);
#593 = CIRCLE('',#594,6.);
#594 = AXIS2_PLACEMENT_3D('',#595,#596,#597);
#595 = CARTESIAN_POINT('',(-7.5,0.,25.));
#596 = DIRECTION('',(0.,0.,1.));
#597 = DIRECTION('',(1.,0.,0.));
#598 = PCURVE('',#574,#599);
#599 = DEFINITIONAL_REPRESENTATION('',(#600),#604);
#600 = LINE('',#601,#602);
#601 = CARTESIAN_POINT('',(0.,10.));
#602 = VECTOR('',#603,1.);
#603 = DIRECTION('',(1.,0.));
#604 = ( GEOMETRIC_REPRESENTATION_CONTEXT(2) 
PARAMETRIC_REPRESENTATION_CONTEXT() REPRESENTATION_CONTEXT('2D SPACE',''
  ) );
#605 = PCURVE('',#606,#611);
#606 = PLANE('',#607);
#607 = AXIS2_PLACEMENT_3D('',#608,#609,#610);
#608 = CARTESIAN_POINT('',(-7.5,0.,25.));
#609 = DIRECTION('',(0.,0.,1.));
#610 = DIRECTION('',(1.,0.,0.));
#611 = DEFINITIONAL_REPRESENTATION('',(#612),#616);
#612 = CIRCLE('',#613,6.);
#613 = AXIS2_PLACEMENT_2D('',#614,#615);
#614 = CARTESIAN_POINT('',(0.,0.));
#615 = DIRECTION('',(1.,0.));
#616 = ( GEOMETRIC_REPRESENTATION_CONTEXT(2) 
PARAMETRIC_REPRESENTATION_CONTEXT() REPRESENTATION_CONTEXT('2D SPACE',''
  ) );
#617 = ORIENTED_EDGE('',*,*,#618,.F.);
#618 = EDGE_CURVE('',#558,#590,#619,.T.);
#619 = SEAM_CURVE('',#620,(#624,#631),.PCURVE_S1.);
#620 = LINE('',#621,#622);
#621 = CARTESIAN_POINT('',(-1.5,0.,15.));
#622 = VECTOR('',#623,1.);
#623 = DIRECTION('',(0.,0.,1.));
#624 = PCURVE('',#574,#625);
#625 = DEFINITIONAL_REPRESENTATION('',(#626),#630);
#626 = LINE('',#627,#628);
#627 = CARTESIAN_POINT('',(0.,0.));
#628 = VECTOR('',#629,1.);
#629 = DIRECTION('',(0.,1.));
#630 = ( GEOMETRIC_REPRESENTATION_CONTEXT(2) 
PARAMETRIC_REPRESENTATION_CONTEXT() REPRESENTATION_CONTEXT('2D SPACE',''
  ) );
#631 = PCURVE('',#574,#632);
#632 = DEFINITIONAL_REPRESENTATION('',(#633),#637);
#633 = LINE('',#634,#635);
#634 = CARTESIAN_POINT('',(6.28318530718,0.));
#635 = VECTOR('',#636,1.);
#636 = DIRECTION('',(0.,1.));
#637 = ( GEOMETRIC_REPRESENTATION_CONTEXT(2) 
PARAMETRIC_REPRESENTATION_CONTEXT() REPRESENTATION_CONTEXT('2D SPACE',''
  ) );
#638 = ORIENTED_EDGE('',*,*,#557,.T.);
#639 = ORIENTED_EDGE('',*,*,#618,.T.);
#640 = ADVANCED_FACE('',(#641),#606,.T.);
#641 = FACE_BOUND('',#642,.T.);
#642 = EDGE_LOOP('',(#643));
#643 = ORIENTED_EDGE('',*,*,#589,.T.);
#644 = ADVANCED_FACE('',(#645),#358,.T.);
#645 = FACE_BOUND('',#646,.T.);
#646 = EDGE_LOOP('',(#647,#648,#690,#836));
#647 = ORIENTED_EDGE('',*,*,#341,.T.);
#648 = ORIENTED_EDGE('',*,*,#649,.T.);
#649 = EDGE_CURVE('',#342,#650,#652,.T.);
#650 = VERTEX_POINT('',#651);
#651 = CARTESIAN_POINT('',(20.,10.,10.));
#652 = SEAM_CURVE('',#653,(#658,#674),.PCURVE_S1.);
#653 = B_SPLINE_CURVE_WITH_KNOTS('',3,(#654,#655,#656,#657),
  .UNSPECIFIED.,.F.,.F.,(4,4),(0.,1.),.PIECEWISE_BEZIER_KNOTS.);
#654 = CARTESIAN_POINT('',(0.,0.,10.));
#655 = CARTESIAN_POINT('',(10.,-7.105427357601E-15,10.));
#656 = CARTESIAN_POINT('',(10.,10.,10.));
#657 = CARTESIAN_POINT('',(20.,10.,10.));
#658 = PCURVE('',#358,#659);
#659 = DEFINITIONAL_REPRESENTATION('',(#660),#673);
#660 = B_SPLINE_CURVE_WITH_KNOTS('',11,(#661,#662,#663,#664,#665,#666,
    #667,#668,#669,#670,#671,#672),.UNSPECIFIED.,.F.,.F.,(12,12),(0.,1.)
  ,.PIECEWISE_BEZIER_KNOTS.);
#661 = CARTESIAN_POINT('',(6.28318530718,1.110223024625E-16));
#662 = CARTESIAN_POINT('',(6.283185307179,9.077814852287E-02));
#663 = CARTESIAN_POINT('',(6.28318530718,0.181905007514));
#664 = CARTESIAN_POINT('',(6.283185307178,0.273059247832));
#665 = CARTESIAN_POINT('',(6.283185307182,0.362958992449));
#666 = CARTESIAN_POINT('',(6.283185307177,0.455204935214));
#667 = CARTESIAN_POINT('',(6.283185307183,0.544795064786));
#668 = CARTESIAN_POINT('',(6.283185307177,0.637041007551));
#669 = CARTESIAN_POINT('',(6.283185307181,0.726940752169));
#670 = CARTESIAN_POINT('',(6.283185307179,0.818094992486));
#671 = CARTESIAN_POINT('',(6.28318530718,0.909221851477));
#672 = CARTESIAN_POINT('',(6.28318530718,1.));
#673 = ( GEOMETRIC_REPRESENTATION_CONTEXT(2) 
PARAMETRIC_REPRESENTATION_CONTEXT() REPRESENTATION_CONTEXT('2D SPACE',''
  ) );
#674 = PCURVE('',#358,#675);
#675 = DEFINITIONAL_REPRESENTATION('',(#676),#689);
#676 = B_SPLINE_CURVE_WITH_KNOTS('',11,(#677,#678,#679,#680,#681,#682,
    #683,#684,#685,#686,#687,#688),.UNSPECIFIED.,.F.,.F.,(12,12),(0.,1.)
  ,.PIECEWISE_BEZIER_KNOTS.);
#677 = CARTESIAN_POINT('',(0.,1.665334536938E-16));
#678 = CARTESIAN_POINT('',(0.,9.077814852289E-02));
#679 = CARTESIAN_POINT('',(0.,0.181905007514));
#680 = CARTESIAN_POINT('',(0.,0.273059247832));
#681 = CARTESIAN_POINT('',(0.,0.362958992448));
#682 = CARTESIAN_POINT('',(0.,0.455204935216));
#683 = CARTESIAN_POINT('',(0.,0.544795064783));
#684 = CARTESIAN_POINT('',(0.,0.637041007553));
#685 = CARTESIAN_POINT('',(0.,0.726940752167));
#686 = CARTESIAN_POINT('',(0.,0.818094992486));
#687 = CARTESIAN_POINT('',(0.,0.909221851477));
#688 = CARTESIAN_POINT('',(0.,1.));
#689 = ( GEOMETRIC_REPRESENTATION_CONTEXT(2) 
PARAMETRIC_REPRESENTATION_CONTEXT() REPRESENTATION_CONTEXT('2D SPACE',''
  ) );
#690 = ORIENTED_EDGE('',*,*,#691,.F.);
#691 = EDGE_CURVE('',#650,#650,#692,.T.);
#692 = SURFACE_CURVE('',#693,(#698,#824),.PCURVE_S1.);
#693 = CIRCLE('',#694,10.);
#694 = AXIS2_PLACEMENT_3D('',#695,#696,#697);
#695 = CARTESIAN_POINT('',(20.,10.,0.));
#696 = DIRECTION('',(1.,0.,-0.));
#697 = DIRECTION('',(0.,0.,1.));
#698 = PCURVE('',#358,#699);
#699 = DEFINITIONAL_REPRESENTATION('',(#700),#823);
#700 = B_SPLINE_CURVE_WITH_KNOTS('',11,(#701,#702,#703,#704,#705,#706,
    #707,#708,#709,#710,#711,#712,#713,#714,#715,#716,#717,#718,#719,
    #720,#721,#722,#723,#724,#725,#726,#727,#728,#729,#730,#731,#732,
    #733,#734,#735,#736,#737,#738,#739,#740,#741,#742,#743,#744,#745,
    #746,#747,#748,#749,#750,#751,#752,#753,#754,#755,#756,#757,#758,
    #759,#760,#761,#762,#763,#764,#765,#766,#767,#768,#769,#770,#771,
    #772,#773,#774,#775,#776,#777,#778,#779,#780,#781,#782,#783,#784,
    #785,#786,#787,#788,#789,#790,#791,#792,#793,#794,#795,#796,#797,
    #798,#799,#800,#801,#802,#803,#804,#805,#806,#807,#808,#809,#810,
    #811,#812,#813,#814,#815,#816,#817,#818,#819,#820,#821,#822),
  .UNSPECIFIED.,.F.,.F.,(12,10,10,10,10,10,10,10,10,10,10,10,12),(0.,
    0.785398163397,1.570796326795,2.356194490192,2.748893571891,
    2.94524311274,3.14159265359,3.337942194439,3.534291735289,
    3.926990816987,4.712388980385,5.497787143782,6.28318530718),
  .UNSPECIFIED.);
#701 = CARTESIAN_POINT('',(-5.551115123126E-17,1.));
#702 = CARTESIAN_POINT('',(7.244784204198E-02,1.));
#703 = CARTESIAN_POINT('',(0.144644682608,1.));
#704 = CARTESIAN_POINT('',(0.216628354625,1.));
#705 = CARTESIAN_POINT('',(0.288432955117,1.));
#706 = CARTESIAN_POINT('',(0.360089139006,1.000000000001));
#707 = CARTESIAN_POINT('',(0.431624055784,0.999999999999));
#708 = CARTESIAN_POINT('',(0.503061569744,1.));
#709 = CARTESIAN_POINT('',(0.57442261695,1.));
#710 = CARTESIAN_POINT('',(0.645725338119,1.));
#711 = CARTESIAN_POINT('',(0.716984985946,1.));
#712 = CARTESIAN_POINT('',(0.859444090491,1.));
#713 = CARTESIAN_POINT('',(0.930643533437,1.));
#714 = CARTESIAN_POINT('',(1.001825824712,1.));
#715 = CARTESIAN_POINT('',(1.073001369341,1.));
#716 = CARTESIAN_POINT('',(1.144178476612,1.));
#717 = CARTESIAN_POINT('',(1.215363393349,1.));
#718 = CARTESIAN_POINT('',(1.286560548773,1.));
#719 = CARTESIAN_POINT('',(1.357772941399,1.));
#720 = CARTESIAN_POINT('',(1.429002371562,1.));
#721 = CARTESIAN_POINT('',(1.500249474229,1.));
#722 = CARTESIAN_POINT('',(1.642778997268,1.));
#723 = CARTESIAN_POINT('',(1.714061458554,1.));
#724 = CARTESIAN_POINT('',(1.785361290275,1.));
#725 = CARTESIAN_POINT('',(1.856678500524,1.));
#726 = CARTESIAN_POINT('',(1.928009928875,0.999999999999));
#727 = CARTESIAN_POINT('',(1.999356573459,1.000000000001));
#728 = CARTESIAN_POINT('',(2.070713344807,1.));
#729 = CARTESIAN_POINT('',(2.14208107416,1.));
#730 = CARTESIAN_POINT('',(2.213456320033,1.));
#731 = CARTESIAN_POINT('',(2.284837977292,1.));
#732 = CARTESIAN_POINT('',(2.391917953491,1.));
#733 = CARTESIAN_POINT('',(2.42761242602,1.));
#734 = CARTESIAN_POINT('',(2.463308075481,1.));
#735 = CARTESIAN_POINT('',(2.499004787525,1.000000000001));
#736 = CARTESIAN_POINT('',(2.534701858589,0.999999999999));
#737 = CARTESIAN_POINT('',(2.570400007344,1.000000000001));
#738 = CARTESIAN_POINT('',(2.606097708389,0.999999999999));
#739 = CARTESIAN_POINT('',(2.641796564357,1.));
#740 = CARTESIAN_POINT('',(2.677495633291,1.));
#741 = CARTESIAN_POINT('',(2.713195283932,1.));
#742 = CARTESIAN_POINT('',(2.766744178426,1.));
#743 = CARTESIAN_POINT('',(2.784593752897,1.));
#744 = CARTESIAN_POINT('',(2.802443447502,1.));
#745 = CARTESIAN_POINT('',(2.820293347272,0.999999999999));
#746 = CARTESIAN_POINT('',(2.838143417123,1.000000000001));
#747 = CARTESIAN_POINT('',(2.855993554159,0.999999999999));
#748 = CARTESIAN_POINT('',(2.8738436526,1.000000000001));
#749 = CARTESIAN_POINT('',(2.891693645063,1.));
#750 = CARTESIAN_POINT('',(2.909543516239,1.));
#751 = CARTESIAN_POINT('',(2.92739331633,1.));
#752 = CARTESIAN_POINT('',(2.963093151276,1.));
#753 = CARTESIAN_POINT('',(2.980943063429,1.));
#754 = CARTESIAN_POINT('',(2.99879298284,1.));
#755 = CARTESIAN_POINT('',(3.016642914316,1.000000000001));
#756 = CARTESIAN_POINT('',(3.034492857968,0.999999999999));
#757 = CARTESIAN_POINT('',(3.052342811647,1.000000000001));
#758 = CARTESIAN_POINT('',(3.070192772621,1.));
#759 = CARTESIAN_POINT('',(3.088042738641,1.));
#760 = CARTESIAN_POINT('',(3.105892708245,1.));
#761 = CARTESIAN_POINT('',(3.12374268043,1.));
#762 = CARTESIAN_POINT('',(3.15944262675,1.));
#763 = CARTESIAN_POINT('',(3.177292598934,1.));
#764 = CARTESIAN_POINT('',(3.195142568538,1.));
#765 = CARTESIAN_POINT('',(3.21299253456,1.));
#766 = CARTESIAN_POINT('',(3.230842495531,1.));
#767 = CARTESIAN_POINT('',(3.248692449212,1.));
#768 = CARTESIAN_POINT('',(3.266542392863,1.));
#769 = CARTESIAN_POINT('',(3.28439232434,1.));
#770 = CARTESIAN_POINT('',(3.302242243751,1.));
#771 = CARTESIAN_POINT('',(3.320092155903,1.));
#772 = CARTESIAN_POINT('',(3.35579199085,1.));
#773 = CARTESIAN_POINT('',(3.373641790941,1.));
#774 = CARTESIAN_POINT('',(3.391491662115,1.));
#775 = CARTESIAN_POINT('',(3.409341654583,1.));
#776 = CARTESIAN_POINT('',(3.427191753016,1.));
#777 = CARTESIAN_POINT('',(3.445041890061,1.));
#778 = CARTESIAN_POINT('',(3.462891959905,1.));
#779 = CARTESIAN_POINT('',(3.480741859679,1.));
#780 = CARTESIAN_POINT('',(3.498591554282,1.));
#781 = CARTESIAN_POINT('',(3.516441128754,1.));
#782 = CARTESIAN_POINT('',(3.569990023248,1.));
#783 = CARTESIAN_POINT('',(3.605689673887,1.));
#784 = CARTESIAN_POINT('',(3.641388742826,1.));
#785 = CARTESIAN_POINT('',(3.677087598787,0.999999999999));
#786 = CARTESIAN_POINT('',(3.712785299841,1.000000000001));
#787 = CARTESIAN_POINT('',(3.748483448587,0.999999999999));
#788 = CARTESIAN_POINT('',(3.784180519658,1.));
#789 = CARTESIAN_POINT('',(3.819877231697,1.));
#790 = CARTESIAN_POINT('',(3.85557288116,1.));
#791 = CARTESIAN_POINT('',(3.891267353688,1.));
#792 = CARTESIAN_POINT('',(3.998347329888,1.));
#793 = CARTESIAN_POINT('',(4.069728987151,1.));
#794 = CARTESIAN_POINT('',(4.141104232992,1.));
#795 = CARTESIAN_POINT('',(4.212471962435,0.999999999999));
#796 = CARTESIAN_POINT('',(4.283828733686,1.000000000001));
#797 = CARTESIAN_POINT('',(4.355175378176,1.));
#798 = CARTESIAN_POINT('',(4.426506806973,1.));
#799 = CARTESIAN_POINT('',(4.497824016628,1.));
#800 = CARTESIAN_POINT('',(4.569123848664,1.));
#801 = CARTESIAN_POINT('',(4.640406309984,1.));
#802 = CARTESIAN_POINT('',(4.782935832878,1.));
#803 = CARTESIAN_POINT('',(4.854182935883,1.));
#804 = CARTESIAN_POINT('',(4.925412364704,1.));
#805 = CARTESIAN_POINT('',(4.996624760324,1.));
#806 = CARTESIAN_POINT('',(5.067821913637,1.));
#807 = CARTESIAN_POINT('',(5.139006827389,1.));
#808 = CARTESIAN_POINT('',(5.21018393946,1.));
#809 = CARTESIAN_POINT('',(5.281359487214,1.));
#810 = CARTESIAN_POINT('',(5.352541768144,1.));
#811 = CARTESIAN_POINT('',(5.423741216667,1.));
#812 = CARTESIAN_POINT('',(5.566200323224,1.));
#813 = CARTESIAN_POINT('',(5.637459981227,1.));
#814 = CARTESIAN_POINT('',(5.708762637924,0.999999999999));
#815 = CARTESIAN_POINT('',(5.780123725088,1.000000000001));
#816 = CARTESIAN_POINT('',(5.851561283236,0.999999999999));
#817 = CARTESIAN_POINT('',(5.923096177416,1.000000000001));
#818 = CARTESIAN_POINT('',(5.994752337427,0.999999999999));
#819 = CARTESIAN_POINT('',(6.066556955341,1.));
#820 = CARTESIAN_POINT('',(6.138540625466,1.));
#821 = CARTESIAN_POINT('',(6.210737465138,1.));
#822 = CARTESIAN_POINT('',(6.28318530718,1.));
#823 = ( GEOMETRIC_REPRESENTATION_CONTEXT(2) 
PARAMETRIC_REPRESENTATION_CONTEXT() REPRESENTATION_CONTEXT('2D SPACE',''
  ) );
#824 = PCURVE('',#825,#830);
#825 = PLANE('',#826);
#826 = AXIS2_PLACEMENT_3D('',#827,#828,#829);
#827 = CARTESIAN_POINT('',(20.,10.,0.));
#828 = DIRECTION('',(1.,0.,0.));
#829 = DIRECTION('',(0.,0.,1.));
#830 = DEFINITIONAL_REPRESENTATION('',(#831),#835);
#831 = CIRCLE('',#832,10.);
#832 = AXIS2_PLACEMENT_2D('',#833,#834);
#833 = CARTESIAN_POINT('',(0.,0.));
#834 = DIRECTION('',(1.,0.));
#835 = ( GEOMETRIC_REPRESENTATION_CONTEXT(2) 
PARAMETRIC_REPRESENTATION_CONTEXT() REPRESENTATION_CONTEXT('2D SPACE',''
  ) );
#836 = ORIENTED_EDGE('',*,*,#649,.F.);
#837 = ADVANCED_FACE('',(#838),#825,.T.);
#838 = FACE_BOUND('',#839,.T.);
#839 = EDGE_LOOP('',(#840));
#840 = ORIENTED_EDGE('',*,*,#691,.T.);
#841 = ( GEOMETRIC_REPRESENTATION_CONTEXT(3) 
GLOBAL_UNCERTAINTY_ASSIGNED_CONTEXT((#845)) GLOBAL_UNIT_ASSIGNED_CONTEXT
((#842,#843,#844)) REPRESENTATION_CONTEXT('Context #1',
  '3D Context with UNIT and UNCERTAINTY') );
#842 = ( LENGTH_UNIT() NAMED_UNIT(*) SI_UNIT(.MILLI.,.METRE.) );
#843 = ( NAMED_UNIT(*) PLANE_ANGLE_UNIT() SI_UNIT($,.RADIAN.) );
#844 = ( NAMED_UNIT(*) SI_UNIT($,.STERADIAN.) SOLID_ANGLE_UNIT() );
#845 = UNCERTAINTY_MEASURE_WITH_UNIT(LENGTH_MEASURE(2.E-05),#842,
  'distance_accuracy_value','confusion accuracy');
#846 = PRODUCT_RELATED_PRODUCT_CATEGORY('part',$,(#7));
ENDSEC;
END-ISO-10303-21;
