ISO-10303-21;
HEADER;
FILE_DESCRIPTION(('Open CASCADE Model'),'2;1');
FILE_NAME('Open CASCADE Shape Model','2026-07-11T20:16:05',('Author'),(
    'Open CASCADE'),'Open CASCADE STEP processor 8.0','Open CASCADE 8.0'
  ,'Unknown');
FILE_SCHEMA(('AUTOMOTIVE_DESIGN { 1 0 10303 214 1 1 1 1 }'));
ENDSEC;
DATA;
#1 = APPLICATION_PROTOCOL_DEFINITION('international standard',
  'automotive_design',2000,#2);
#2 = APPLICATION_CONTEXT(
  'core data for automotive mechanical design processes');
#3 = SHAPE_DEFINITION_REPRESENTATION(#4,#10);
#4 = PRODUCT_DEFINITION_SHAPE('','',#5);
#5 = PRODUCT_DEFINITION('design','',#6,#9);
#6 = PRODUCT_DEFINITION_FORMATION('','',#7);
#7 = PRODUCT('Open CASCADE STEP translator 8.0 1',
  'Open CASCADE STEP translator 8.0 1','',(#8));
#8 = PRODUCT_CONTEXT('',#2,'mechanical');
#9 = PRODUCT_DEFINITION_CONTEXT('part definition',#2,'design');
#10 = ADVANCED_BREP_SHAPE_REPRESENTATION('',(#11,#15),#1275);
#11 = AXIS2_PLACEMENT_3D('',#12,#13,#14);
#12 = CARTESIAN_POINT('',(0.,0.,0.));
#13 = DIRECTION('',(0.,0.,1.));
#14 = DIRECTION('',(1.,0.,-0.));
#15 = MANIFOLD_SOLID_BREP('',#16);
#16 = CLOSED_SHELL('',(#17,#1148,#1152,#1156,#1211,#1267,#1271));
#17 = ADVANCED_FACE('',(#18,#105,#618),#31,.T.);
#18 = FACE_BOUND('',#19,.T.);
#19 = EDGE_LOOP('',(#20,#54,#77,#104));
#20 = ORIENTED_EDGE('',*,*,#21,.F.);
#21 = EDGE_CURVE('',#22,#22,#24,.T.);
#22 = VERTEX_POINT('',#23);
#23 = CARTESIAN_POINT('',(5.,0.,12.));
#24 = SURFACE_CURVE('',#25,(#30,#42),.PCURVE_S1.);
#25 = CIRCLE('',#26,5.);
#26 = AXIS2_PLACEMENT_3D('',#27,#28,#29);
#27 = CARTESIAN_POINT('',(0.,0.,12.));
#28 = DIRECTION('',(0.,0.,1.));
#29 = DIRECTION('',(1.,0.,-0.));
#30 = PCURVE('',#31,#36);
#31 = CYLINDRICAL_SURFACE('',#32,5.);
#32 = AXIS2_PLACEMENT_3D('',#33,#34,#35);
#33 = CARTESIAN_POINT('',(0.,0.,0.));
#34 = DIRECTION('',(0.,0.,1.));
#35 = DIRECTION('',(1.,0.,-0.));
#36 = DEFINITIONAL_REPRESENTATION('',(#37),#41);
#37 = LINE('',#38,#39);
#38 = CARTESIAN_POINT('',(0.,12.));
#39 = VECTOR('',#40,1.);
#40 = DIRECTION('',(1.,0.));
#41 = ( GEOMETRIC_REPRESENTATION_CONTEXT(2) 
PARAMETRIC_REPRESENTATION_CONTEXT() REPRESENTATION_CONTEXT('2D SPACE',''
  ) );
#42 = PCURVE('',#43,#48);
#43 = PLANE('',#44);
#44 = AXIS2_PLACEMENT_3D('',#45,#46,#47);
#45 = CARTESIAN_POINT('',(0.,0.,12.));
#46 = DIRECTION('',(0.,0.,1.));
#47 = DIRECTION('',(1.,0.,-0.));
#48 = DEFINITIONAL_REPRESENTATION('',(#49),#53);
#49 = CIRCLE('',#50,5.);
#50 = AXIS2_PLACEMENT_2D('',#51,#52);
#51 = CARTESIAN_POINT('',(0.,0.));
#52 = DIRECTION('',(1.,0.));
#53 = ( GEOMETRIC_REPRESENTATION_CONTEXT(2) 
PARAMETRIC_REPRESENTATION_CONTEXT() REPRESENTATION_CONTEXT('2D SPACE',''
  ) );
#54 = ORIENTED_EDGE('',*,*,#55,.F.);
#55 = EDGE_CURVE('',#56,#22,#58,.T.);
#56 = VERTEX_POINT('',#57);
#57 = CARTESIAN_POINT('',(5.,0.,0.));
#58 = SEAM_CURVE('',#59,(#63,#70),.PCURVE_S1.);
#59 = LINE('',#60,#61);
#60 = CARTESIAN_POINT('',(5.,0.,0.));
#61 = VECTOR('',#62,1.);
#62 = DIRECTION('',(0.,0.,1.));
#63 = PCURVE('',#31,#64);
#64 = DEFINITIONAL_REPRESENTATION('',(#65),#69);
#65 = LINE('',#66,#67);
#66 = CARTESIAN_POINT('',(6.28318530718,0.));
#67 = VECTOR('',#68,1.);
#68 = DIRECTION('',(0.,1.));
#69 = ( GEOMETRIC_REPRESENTATION_CONTEXT(2) 
PARAMETRIC_REPRESENTATION_CONTEXT() REPRESENTATION_CONTEXT('2D SPACE',''
  ) );
#70 = PCURVE('',#31,#71);
#71 = DEFINITIONAL_REPRESENTATION('',(#72),#76);
#72 = LINE('',#73,#74);
#73 = CARTESIAN_POINT('',(0.,0.));
#74 = VECTOR('',#75,1.);
#75 = DIRECTION('',(0.,1.));
#76 = ( GEOMETRIC_REPRESENTATION_CONTEXT(2) 
PARAMETRIC_REPRESENTATION_CONTEXT() REPRESENTATION_CONTEXT('2D SPACE',''
  ) );
#77 = ORIENTED_EDGE('',*,*,#78,.T.);
#78 = EDGE_CURVE('',#56,#56,#79,.T.);
#79 = SURFACE_CURVE('',#80,(#85,#92),.PCURVE_S1.);
#80 = CIRCLE('',#81,5.);
#81 = AXIS2_PLACEMENT_3D('',#82,#83,#84);
#82 = CARTESIAN_POINT('',(0.,0.,0.));
#83 = DIRECTION('',(0.,0.,1.));
#84 = DIRECTION('',(1.,0.,-0.));
#85 = PCURVE('',#31,#86);
#86 = DEFINITIONAL_REPRESENTATION('',(#87),#91);
#87 = LINE('',#88,#89);
#88 = CARTESIAN_POINT('',(0.,0.));
#89 = VECTOR('',#90,1.);
#90 = DIRECTION('',(1.,0.));
#91 = ( GEOMETRIC_REPRESENTATION_CONTEXT(2) 
PARAMETRIC_REPRESENTATION_CONTEXT() REPRESENTATION_CONTEXT('2D SPACE',''
  ) );
#92 = PCURVE('',#93,#98);
#93 = PLANE('',#94);
#94 = AXIS2_PLACEMENT_3D('',#95,#96,#97);
#95 = CARTESIAN_POINT('',(0.,0.,0.));
#96 = DIRECTION('',(0.,0.,1.));
#97 = DIRECTION('',(1.,0.,-0.));
#98 = DEFINITIONAL_REPRESENTATION('',(#99),#103);
#99 = CIRCLE('',#100,5.);
#100 = AXIS2_PLACEMENT_2D('',#101,#102);
#101 = CARTESIAN_POINT('',(0.,0.));
#102 = DIRECTION('',(1.,0.));
#103 = ( GEOMETRIC_REPRESENTATION_CONTEXT(2) 
PARAMETRIC_REPRESENTATION_CONTEXT() REPRESENTATION_CONTEXT('2D SPACE',''
  ) );
#104 = ORIENTED_EDGE('',*,*,#55,.T.);
#105 = FACE_BOUND('',#106,.T.);
#106 = EDGE_LOOP('',(#107));
#107 = ORIENTED_EDGE('',*,*,#108,.F.);
#108 = EDGE_CURVE('',#109,#109,#111,.T.);
#109 = VERTEX_POINT('',#110);
#110 = CARTESIAN_POINT('',(3.,3.999999999988,7.));
#111 = SURFACE_CURVE('',#112,(#277,#445),.PCURVE_S1.);
#112 = B_SPLINE_CURVE_WITH_KNOTS('',8,(#113,#114,#115,#116,#117,#118,
    #119,#120,#121,#122,#123,#124,#125,#126,#127,#128,#129,#130,#131,
    #132,#133,#134,#135,#136,#137,#138,#139,#140,#141,#142,#143,#144,
    #145,#146,#147,#148,#149,#150,#151,#152,#153,#154,#155,#156,#157,
    #158,#159,#160,#161,#162,#163,#164,#165,#166,#167,#168,#169,#170,
    #171,#172,#173,#174,#175,#176,#177,#178,#179,#180,#181,#182,#183,
    #184,#185,#186,#187,#188,#189,#190,#191,#192,#193,#194,#195,#196,
    #197,#198,#199,#200,#201,#202,#203,#204,#205,#206,#207,#208,#209,
    #210,#211,#212,#213,#214,#215,#216,#217,#218,#219,#220,#221,#222,
    #223,#224,#225,#226,#227,#228,#229,#230,#231,#232,#233,#234,#235,
    #236,#237,#238,#239,#240,#241,#242,#243,#244,#245,#246,#247,#248,
    #249,#250,#251,#252,#253,#254,#255,#256,#257,#258,#259,#260,#261,
    #262,#263,#264,#265,#266,#267,#268,#269,#270,#271,#272,#273,#274,
    #275,#276),.UNSPECIFIED.,.T.,.F.,(9,7,7,7,7,7,7,7,7,7,7,7,8,7,7,7,7,
    7,7,7,7,7,7,9),(0.,2.254925730753E-02,5.398262814117E-02,
    0.123426245673,0.198139711774,0.250412349501,0.280954901703,
    0.317763173797,0.370289672092,0.427181392303,0.528348004859,
    0.569288442522,0.606961930587,0.629511187895,0.651870009359,
    0.698992554246,0.747814879855,0.780883485388,0.816126741695,
    0.832316145207,0.857864899169,0.937155276064,0.971881298173,1.),
  .UNSPECIFIED.);
#113 = CARTESIAN_POINT('',(3.,3.999999999988,7.));
#114 = CARTESIAN_POINT('',(3.000000024718,4.000000008267,6.924398984168)
  );
#115 = CARTESIAN_POINT('',(2.997822569962,4.001632933407,6.849566504233)
  );
#116 = CARTESIAN_POINT('',(2.993545505365,4.004841221911,6.777557385718)
  );
#117 = CARTESIAN_POINT('',(2.987567854319,4.009313169325,6.709258697708)
  );
#118 = CARTESIAN_POINT('',(2.980298348752,4.014726930651,6.644888479685)
  );
#119 = CARTESIAN_POINT('',(2.97203742173,4.020846090972,6.584206762994)
  );
#120 = CARTESIAN_POINT('',(2.962947582785,4.027541876877,6.52658587537)
  );
#121 = CARTESIAN_POINT('',(2.939149302893,4.044959373858,6.393722596709)
  );
#122 = CARTESIAN_POINT('',(2.923851724587,4.056071832048,6.321637313294)
  );
#123 = CARTESIAN_POINT('',(2.907423701554,4.067898602331,6.25371453845)
  );
#124 = CARTESIAN_POINT('',(2.890061592316,4.080273229533,6.189289753993)
  );
#125 = CARTESIAN_POINT('',(2.871896147702,4.093082216496,6.12790734236)
  );
#126 = CARTESIAN_POINT('',(2.853019551368,4.106243327999,6.069177223743)
  );
#127 = CARTESIAN_POINT('',(2.83349215151,4.119698646893,6.012731339814)
  );
#128 = CARTESIAN_POINT('',(2.768784275157,4.163740777667,5.8379838874));
#129 = CARTESIAN_POINT('',(2.721298590246,4.195258026425,5.727773717992)
  );
#130 = CARTESIAN_POINT('',(2.671237424541,4.22756395881,5.624583033598)
  );
#131 = CARTESIAN_POINT('',(2.618737384819,4.260433209067,5.52714609923)
  );
#132 = CARTESIAN_POINT('',(2.563855101102,4.293700593264,5.43455323071)
  );
#133 = CARTESIAN_POINT('',(2.506581208513,4.327241783837,5.346033394974)
  );
#134 = CARTESIAN_POINT('',(2.446805384466,4.360985852308,5.261110392106)
  );
#135 = CARTESIAN_POINT('',(2.317089154594,4.431360077003,5.091238373759)
  );
#136 = CARTESIAN_POINT('',(2.246785855906,4.467978023126,5.006877471816)
  );
#137 = CARTESIAN_POINT('',(2.173211296454,4.504660932902,4.925672639789)
  );
#138 = CARTESIAN_POINT('',(2.096087275787,4.541331740512,4.847288528844)
  );
#139 = CARTESIAN_POINT('',(2.015076781192,4.577912230823,4.771504964251)
  );
#140 = CARTESIAN_POINT('',(1.929752067309,4.614318197084,4.698174035972)
  );
#141 = CARTESIAN_POINT('',(1.839508761332,4.650452996739,4.62720735541)
  );
#142 = CARTESIAN_POINT('',(1.676203330113,4.711209638699,4.510587418711)
  );
#143 = CARTESIAN_POINT('',(1.606152284452,4.73601276023,4.463764384366)
  );
#144 = CARTESIAN_POINT('',(1.532962906677,4.760579622972,4.418096921611)
  );
#145 = CARTESIAN_POINT('',(1.456216795347,4.784855733708,4.373612277352)
  );
#146 = CARTESIAN_POINT('',(1.375449479397,4.808766691969,4.330377801524)
  );
#147 = CARTESIAN_POINT('',(1.290099069167,4.832213265596,4.288504672453)
  );
#148 = CARTESIAN_POINT('',(1.199341176782,4.855056202908,4.248169945135)
  );
#149 = CARTESIAN_POINT('',(1.044823351908,4.889965432411,4.187154023813)
  );
#150 = CARTESIAN_POINT('',(0.9855903163,4.902545665101,4.165305176729));
#151 = CARTESIAN_POINT('',(0.923814374517,4.914802342285,4.144145821044)
  );
#152 = CARTESIAN_POINT('',(0.859150659025,4.926677531617,4.123761006955)
  );
#153 = CARTESIAN_POINT('',(0.791236142561,4.938089209604,4.104275560049)
  );
#154 = CARTESIAN_POINT('',(0.719660737808,4.948926473738,4.085860688689)
  );
#155 = CARTESIAN_POINT('',(0.643879413491,4.959035262798,4.068757033695)
  );
#156 = CARTESIAN_POINT('',(0.465672272655,4.979232416974,4.034703879214)
  );
#157 = CARTESIAN_POINT('',(0.358513395675,4.989167843399,4.018040717016)
  );
#158 = CARTESIAN_POINT('',(0.241080880844,4.997298831814,4.004469382026)
  );
#159 = CARTESIAN_POINT('',(0.114549959083,5.002582996517,3.995706707058)
  );
#160 = CARTESIAN_POINT('',(-1.797820898389E-02,5.003875542474,
    3.99356026691));
#161 = CARTESIAN_POINT('',(-0.150736619265,5.00050156447,3.999140784925)
  );
#162 = CARTESIAN_POINT('',(-0.27580468252,4.993555859051,4.010732016318)
  );
#163 = CARTESIAN_POINT('',(-0.537189730904,4.973447282623,4.044423831859
    ));
#164 = CARTESIAN_POINT('',(-0.672268227718,4.957615942249,4.071046272296
    ));
#165 = CARTESIAN_POINT('',(-0.795295368849,4.939488157751,4.10173167279)
  );
#166 = CARTESIAN_POINT('',(-0.907597531092,4.919682437753,4.13554203016)
  );
#167 = CARTESIAN_POINT('',(-1.011561847693,4.898839698823,4.171466566832
    ));
#168 = CARTESIAN_POINT('',(-1.108200770586,4.877195990114,4.209158533748
    ));
#169 = CARTESIAN_POINT('',(-1.199047981731,4.854921669272,4.248380223577
    ));
#170 = CARTESIAN_POINT('',(-1.378785970159,4.807108827281,4.33360895563)
  );
#171 = CARTESIAN_POINT('',(-1.466282630085,4.781624755821,4.379603110358
    ));
#172 = CARTESIAN_POINT('',(-1.548905088862,4.755666949917,4.427095702006
    ));
#173 = CARTESIAN_POINT('',(-1.627341853987,4.729343083663,4.475977252312
    ));
#174 = CARTESIAN_POINT('',(-1.702077065789,4.702733388076,4.52618693353)
  );
#175 = CARTESIAN_POINT('',(-1.773506457493,4.675900039228,4.577700638233
    ));
#176 = CARTESIAN_POINT('',(-1.84197854633,4.648890732595,4.630530508034)
  );
#177 = CARTESIAN_POINT('',(-2.024738640144,4.573450418946,4.781124614892
    ));
#178 = CARTESIAN_POINT('',(-2.133056435006,4.524779235889,4.881710812228
    ));
#179 = CARTESIAN_POINT('',(-2.234360354457,4.475900883336,4.986845356377
    ));
#180 = CARTESIAN_POINT('',(-2.329541493723,4.426972170162,5.096939402141
    ));
#181 = CARTESIAN_POINT('',(-2.419169653722,4.378184071968,5.212782300872
    ));
#182 = CARTESIAN_POINT('',(-2.503641910292,4.329753355771,5.335343023715
    ));
#183 = CARTESIAN_POINT('',(-2.583166191711,4.281938267611,5.466028328358
    ));
#184 = CARTESIAN_POINT('',(-2.687863063415,4.21623765852,5.665973990153)
  );
#185 = CARTESIAN_POINT('',(-2.717183911908,4.197495818896,5.725448993695
    ));
#186 = CARTESIAN_POINT('',(-2.745669484704,4.1789630022,5.787022504014)
  );
#187 = CARTESIAN_POINT('',(-2.773296797934,4.160680829371,5.85099227157)
  );
#188 = CARTESIAN_POINT('',(-2.800021043579,4.142706130433,5.917689289855
    ));
#189 = CARTESIAN_POINT('',(-2.825772967375,4.125114905996,5.987514901585
    ));
#190 = CARTESIAN_POINT('',(-2.85044535388,4.108014208976,6.061052899558)
  );
#191 = CARTESIAN_POINT('',(-2.895421605192,4.07642328903,6.211220378853)
  );
#192 = CARTESIAN_POINT('',(-2.915668583901,4.062008600509,6.286304448025
    ));
#193 = CARTESIAN_POINT('',(-2.93476747831,4.048243733239,6.365992258679)
  );
#194 = CARTESIAN_POINT('',(-2.952590385113,4.035249189624,6.451583448829
    ));
#195 = CARTESIAN_POINT('',(-2.968687791096,4.023380136698,6.54428723369)
  );
#196 = CARTESIAN_POINT('',(-2.982328793038,4.013226330732,6.645198391142
    ));
#197 = CARTESIAN_POINT('',(-2.992463449849,4.005646119133,6.755397299477
    ));
#198 = CARTESIAN_POINT('',(-2.997453396146,4.001908686856,6.876415462392
    ));
#199 = CARTESIAN_POINT('',(-3.002153779714,3.998390383363,6.990118975865
    ));
#200 = CARTESIAN_POINT('',(-3.002028462057,3.998466805697,7.107686620671
    ));
#201 = CARTESIAN_POINT('',(-2.996228341196,4.002840187283,7.219018391367
    ));
#202 = CARTESIAN_POINT('',(-2.986368027056,4.010243320603,7.321752671007
    ));
#203 = CARTESIAN_POINT('',(-2.973919569974,4.019506196935,7.415664495387
    ));
#204 = CARTESIAN_POINT('',(-2.959717622223,4.029972170775,7.501463466817
    ));
#205 = CARTESIAN_POINT('',(-2.94420262192,4.041301793502,7.581220188462)
  );
#206 = CARTESIAN_POINT('',(-2.91000025729,4.065998001839,7.733434729883)
  );
#207 = CARTESIAN_POINT('',(-2.891708106791,4.079081668976,7.804379668671
    ));
#208 = CARTESIAN_POINT('',(-2.872383806161,4.092755546094,7.871491671026
    ));
#209 = CARTESIAN_POINT('',(-2.852175921732,4.106888436208,7.935379469642
    ));
#210 = CARTESIAN_POINT('',(-2.83118378351,4.121389251161,7.996460485716)
  );
#211 = CARTESIAN_POINT('',(-2.809476883705,4.136191009924,8.055084106954
    ));
#212 = CARTESIAN_POINT('',(-2.787099807411,4.151245445568,8.111571523371
    ));
#213 = CARTESIAN_POINT('',(-2.715511354587,4.198737051063,8.281246585074
    ));
#214 = CARTESIAN_POINT('',(-2.664140171734,4.23188534563,8.38773029639)
  );
#215 = CARTESIAN_POINT('',(-2.610167849106,4.265667846069,8.487971165625
    ));
#216 = CARTESIAN_POINT('',(-2.553657197924,4.299901301671,8.583051470388
    ));
#217 = CARTESIAN_POINT('',(-2.494601292386,4.334448099548,8.673741054304
    ));
#218 = CARTESIAN_POINT('',(-2.432931421036,4.369201799434,8.760672019908
    ));
#219 = CARTESIAN_POINT('',(-2.368490660618,4.404092205699,8.844263000855
    ));
#220 = CARTESIAN_POINT('',(-2.231109405444,4.475305260454,9.008488507403
    ));
#221 = CARTESIAN_POINT('',(-2.157995743609,4.511605276067,9.088835025708
    ));
#222 = CARTESIAN_POINT('',(-2.081430096123,4.54790072233,9.166364516177)
  );
#223 = CARTESIAN_POINT('',(-2.00107129927,4.584118765171,9.241330520992)
  );
#224 = CARTESIAN_POINT('',(-1.916516720201,4.620179650523,9.313890246107
    ));
#225 = CARTESIAN_POINT('',(-1.827260404553,4.655991989367,9.384133665507
    ));
#226 = CARTESIAN_POINT('',(-1.732575492866,4.691444347322,9.452087745953
    ));
#227 = CARTESIAN_POINT('',(-1.562739633747,4.7500654777,9.562135063499)
  );
#228 = CARTESIAN_POINT('',(-1.491185126035,4.773484700948,9.605457501649
    ));
#229 = CARTESIAN_POINT('',(-1.416307974283,4.796622481518,9.647678058313
    ));
#230 = CARTESIAN_POINT('',(-1.337621619034,4.819416092635,9.68874386098)
  );
#231 = CARTESIAN_POINT('',(-1.254597531689,4.841777639687,9.728555235958
    ));
#232 = CARTESIAN_POINT('',(-1.166604104418,4.863587633392,9.766959491382
    ));
#233 = CARTESIAN_POINT('',(-1.072689248084,4.884672904195,9.803717460269
    ));
#234 = CARTESIAN_POINT('',(-0.863049673626,4.926185326186,9.875450005796
    ));
#235 = CARTESIAN_POINT('',(-0.74745633335,4.9462424519,9.909743226967));
#236 = CARTESIAN_POINT('',(-0.618850653741,4.965404935045,9.942213180354
    ));
#237 = CARTESIAN_POINT('',(-0.473750175623,4.98289938313,9.971607664421)
  );
#238 = CARTESIAN_POINT('',(-0.310750084741,4.996809254608,9.99468502114)
  );
#239 = CARTESIAN_POINT('',(-0.131619568356,5.004559107781,
    10.007569581119));
#240 = CARTESIAN_POINT('',(5.883985530457E-02,5.002982920894,
    10.004991957619));
#241 = CARTESIAN_POINT('',(0.324839525988,4.990141109532,9.983544183));
#242 = CARTESIAN_POINT('',(0.404135245416,4.984704212058,9.974453451763)
  );
#243 = CARTESIAN_POINT('',(0.479184069182,4.978158229388,9.963484268667)
  );
#244 = CARTESIAN_POINT('',(0.55023883633,4.970739675005,9.951017330349)
  );
#245 = CARTESIAN_POINT('',(0.617613207194,4.962635520607,9.93735214017)
  );
#246 = CARTESIAN_POINT('',(0.681675475987,4.953982901521,9.922706370037)
  );
#247 = CARTESIAN_POINT('',(0.742842383389,4.94486882212,9.907215222218)
  );
#248 = CARTESIAN_POINT('',(0.894256156998,4.920275855831,9.865230962561)
  );
#249 = CARTESIAN_POINT('',(0.980409642627,4.904244985094,9.837691843075)
  );
#250 = CARTESIAN_POINT('',(1.061360514421,4.887486613118,9.808694350955)
  );
#251 = CARTESIAN_POINT('',(1.13790354467,4.87016599715,9.778483963686));
#252 = CARTESIAN_POINT('',(1.210583632949,4.852397997679,9.747225596084)
  );
#253 = CARTESIAN_POINT('',(1.279862012585,4.834266989263,9.715034815327)
  );
#254 = CARTESIAN_POINT('',(1.346166180199,4.815832972114,9.681985392941)
  );
#255 = CARTESIAN_POINT('',(1.607386158669,4.739062340257,9.542912446679)
  );
#256 = CARTESIAN_POINT('',(1.778647006299,4.678635924993,9.430124842428)
  );
#257 = CARTESIAN_POINT('',(1.933945185121,4.616963628593,9.310781069855)
  );
#258 = CARTESIAN_POINT('',(2.075133562626,4.554531138479,9.184665692684)
  );
#259 = CARTESIAN_POINT('',(2.205492114467,4.491866135579,9.051660613013)
  );
#260 = CARTESIAN_POINT('',(2.325875023482,4.429306019767,8.910397317824)
  );
#261 = CARTESIAN_POINT('',(2.437684951564,4.367175738115,8.759507738656)
  );
#262 = CARTESIAN_POINT('',(2.586964191478,4.279065760769,8.521490540662)
  );
#263 = CARTESIAN_POINT('',(2.630807127745,4.252448142338,8.446343886242)
  );
#264 = CARTESIAN_POINT('',(2.673094428645,4.226083399626,8.368103878615)
  );
#265 = CARTESIAN_POINT('',(2.713840115746,4.20002919076,8.286344759794)
  );
#266 = CARTESIAN_POINT('',(2.752988723676,4.17438872479,8.20042825734));
#267 = CARTESIAN_POINT('',(2.790435600347,4.14930193223,8.109598426599)
  );
#268 = CARTESIAN_POINT('',(2.82601216358,4.12496161193,8.012817777936));
#269 = CARTESIAN_POINT('',(2.886368953551,4.082885961599,7.82269859905)
  );
#270 = CARTESIAN_POINT('',(2.911138241328,4.065317062442,7.734671811812)
  );
#271 = CARTESIAN_POINT('',(2.934432297445,4.048556392339,7.640326372943)
  );
#272 = CARTESIAN_POINT('',(2.956225215062,4.032649621623,7.536979836663)
  );
#273 = CARTESIAN_POINT('',(2.975569877414,4.018324365998,7.422217944231)
  );
#274 = CARTESIAN_POINT('',(2.991038419122,4.006720761968,7.294814475314)
  );
#275 = CARTESIAN_POINT('',(3.000000650222,3.999999570567,7.153338041446)
  );
#276 = CARTESIAN_POINT('',(3.,4.,7.));
#277 = PCURVE('',#31,#278);
#278 = DEFINITIONAL_REPRESENTATION('',(#279),#444);
#279 = B_SPLINE_CURVE_WITH_KNOTS('',8,(#280,#281,#282,#283,#284,#285,
    #286,#287,#288,#289,#290,#291,#292,#293,#294,#295,#296,#297,#298,
    #299,#300,#301,#302,#303,#304,#305,#306,#307,#308,#309,#310,#311,
    #312,#313,#314,#315,#316,#317,#318,#319,#320,#321,#322,#323,#324,
    #325,#326,#327,#328,#329,#330,#331,#332,#333,#334,#335,#336,#337,
    #338,#339,#340,#341,#342,#343,#344,#345,#346,#347,#348,#349,#350,
    #351,#352,#353,#354,#355,#356,#357,#358,#359,#360,#361,#362,#363,
    #364,#365,#366,#367,#368,#369,#370,#371,#372,#373,#374,#375,#376,
    #377,#378,#379,#380,#381,#382,#383,#384,#385,#386,#387,#388,#389,
    #390,#391,#392,#393,#394,#395,#396,#397,#398,#399,#400,#401,#402,
    #403,#404,#405,#406,#407,#408,#409,#410,#411,#412,#413,#414,#415,
    #416,#417,#418,#419,#420,#421,#422,#423,#424,#425,#426,#427,#428,
    #429,#430,#431,#432,#433,#434,#435,#436,#437,#438,#439,#440,#441,
    #442,#443),.UNSPECIFIED.,.T.,.F.,(9,7,7,7,7,7,7,7,7,7,7,7,8,7,7,7,7,
    7,7,7,7,7,7,9),(0.,2.254925730753E-02,5.398262814117E-02,
    0.123426245673,0.198139711774,0.250412349501,0.280954901703,
    0.317763173797,0.370289672092,0.427181392303,0.528348004859,
    0.569288442522,0.606961930587,0.629511187895,0.651870009359,
    0.698992554246,0.747814879855,0.780883485388,0.816126741695,
    0.832316145207,0.857864899169,0.937155276064,0.971881298173,1.),
  .UNSPECIFIED.);
#280 = CARTESIAN_POINT('',(0.927295218,7.));
#281 = CARTESIAN_POINT('',(0.927295215109,6.924398984168));
#282 = CARTESIAN_POINT('',(0.927839558462,6.849566504233));
#283 = CARTESIAN_POINT('',(0.928908884615,6.777557385718));
#284 = CARTESIAN_POINT('',(0.930401940483,6.709258697708));
#285 = CARTESIAN_POINT('',(0.932214714422,6.644888479685));
#286 = CARTESIAN_POINT('',(0.934270786006,6.584206762994));
#287 = CARTESIAN_POINT('',(0.936528728257,6.52658587537));
#288 = CARTESIAN_POINT('',(0.942426955972,6.393722596709));
#289 = CARTESIAN_POINT('',(0.946208480378,6.321637313294));
#290 = CARTESIAN_POINT('',(0.950256885575,6.25371453845));
#291 = CARTESIAN_POINT('',(0.954520935599,6.189289753993));
#292 = CARTESIAN_POINT('',(0.958966279273,6.12790734236));
#293 = CARTESIAN_POINT('',(0.963568515154,6.069177223743));
#294 = CARTESIAN_POINT('',(0.96831128443,6.012731339814));
#295 = CARTESIAN_POINT('',(0.983966084133,5.8379838874));
#296 = CARTESIAN_POINT('',(0.995363953063,5.727773717992));
#297 = CARTESIAN_POINT('',(1.007278312353,5.624583033598));
#298 = CARTESIAN_POINT('',(1.019664021617,5.52714609923));
#299 = CARTESIAN_POINT('',(1.032496761379,5.43455323071));
#300 = CARTESIAN_POINT('',(1.045768535239,5.346033394974));
#301 = CARTESIAN_POINT('',(1.059495121965,5.261110392106));
#302 = CARTESIAN_POINT('',(1.089010405081,5.091238373759));
#303 = CARTESIAN_POINT('',(1.10486184016,5.006877471816));
#304 = CARTESIAN_POINT('',(1.121299806355,4.925672639789));
#305 = CARTESIAN_POINT('',(1.138373299702,4.847288528844));
#306 = CARTESIAN_POINT('',(1.15614334463,4.771504964251));
#307 = CARTESIAN_POINT('',(1.174689147753,4.698174035972));
#308 = CARTESIAN_POINT('',(1.194125072385,4.62720735541));
#309 = CARTESIAN_POINT('',(1.228973277929,4.510587418711));
#310 = CARTESIAN_POINT('',(1.243834046742,4.463764384366));
#311 = CARTESIAN_POINT('',(1.259270780561,4.418096921611));
#312 = CARTESIAN_POINT('',(1.275364502444,4.373612277352));
#313 = CARTESIAN_POINT('',(1.292204889513,4.330377801524));
#314 = CARTESIAN_POINT('',(1.309900694495,4.288504672453));
#315 = CARTESIAN_POINT('',(1.328612917386,4.248169945135));
#316 = CARTESIAN_POINT('',(1.360295309945,4.187154023813));
#317 = CARTESIAN_POINT('',(1.372405204147,4.165305176729));
#318 = CARTESIAN_POINT('',(1.384999221153,4.144145821044));
#319 = CARTESIAN_POINT('',(1.398145465596,4.123761006955));
#320 = CARTESIAN_POINT('',(1.411915424844,4.104275560049));
#321 = CARTESIAN_POINT('',(1.42639001513,4.085860688689));
#322 = CARTESIAN_POINT('',(1.441677584392,4.068757033695));
#323 = CARTESIAN_POINT('',(1.477547157259,4.034703879214));
#324 = CARTESIAN_POINT('',(1.4990665153,4.018040717016));
#325 = CARTESIAN_POINT('',(1.522597728105,4.004469382026));
#326 = CARTESIAN_POINT('',(1.547907100833,3.995706707058));
#327 = CARTESIAN_POINT('',(1.57438222447,3.99356026691));
#328 = CARTESIAN_POINT('',(1.600922466547,3.999140784925));
#329 = CARTESIAN_POINT('',(1.625969041846,4.010732016318));
#330 = CARTESIAN_POINT('',(1.678400484398,4.044423831859));
#331 = CARTESIAN_POINT('',(1.705579616627,4.071046272296));
#332 = CARTESIAN_POINT('',(1.730434588213,4.10173167279));
#333 = CARTESIAN_POINT('',(1.753224585814,4.13554203016));
#334 = CARTESIAN_POINT('',(1.774421627715,4.171466566832));
#335 = CARTESIAN_POINT('',(1.794220485589,4.209158533748));
#336 = CARTESIAN_POINT('',(1.812924766736,4.248380223577));
#337 = CARTESIAN_POINT('',(1.850122459682,4.33360895563));
#338 = CARTESIAN_POINT('',(1.868343999097,4.379603110358));
#339 = CARTESIAN_POINT('',(1.885658626835,4.427095702006));
#340 = CARTESIAN_POINT('',(1.902200035684,4.475977252312));
#341 = CARTESIAN_POINT('',(1.918061356689,4.52618693353));
#342 = CARTESIAN_POINT('',(1.933318403165,4.577700638233));
#343 = CARTESIAN_POINT('',(1.948037985031,4.630530508034));
#344 = CARTESIAN_POINT('',(1.987581603999,4.781124614892));
#345 = CARTESIAN_POINT('',(2.011320407894,4.881710812228));
#346 = CARTESIAN_POINT('',(2.033802897773,4.986845356377));
#347 = CARTESIAN_POINT('',(2.055194309552,5.096939402141));
#348 = CARTESIAN_POINT('',(2.075592961286,5.212782300872));
#349 = CARTESIAN_POINT('',(2.095060143996,5.335343023715));
#350 = CARTESIAN_POINT('',(2.113615175356,5.466028328358));
#351 = CARTESIAN_POINT('',(2.138336020898,5.665973990153));
#352 = CARTESIAN_POINT('',(2.145295574439,5.725448993695));
#353 = CARTESIAN_POINT('',(2.152091957014,5.787022504014));
#354 = CARTESIAN_POINT('',(2.158717294814,5.85099227157));
#355 = CARTESIAN_POINT('',(2.165158302719,5.917689289855));
#356 = CARTESIAN_POINT('',(2.171395406727,5.987514901585));
#357 = CARTESIAN_POINT('',(2.177399157105,6.061052899558));
#358 = CARTESIAN_POINT('',(2.188391608495,6.211220378853));
#359 = CARTESIAN_POINT('',(2.193362313375,6.286304448025));
#360 = CARTESIAN_POINT('',(2.19807065123,6.365992258679));
#361 = CARTESIAN_POINT('',(2.202481931796,6.451583448829));
#362 = CARTESIAN_POINT('',(2.206481853086,6.54428723369));
#363 = CARTESIAN_POINT('',(2.209882880879,6.645198391142));
#364 = CARTESIAN_POINT('',(2.212414052995,6.755397299477));
#365 = CARTESIAN_POINT('',(2.213660936506,6.876415462392));
#366 = CARTESIAN_POINT('',(2.21483518795,6.990118975865));
#367 = CARTESIAN_POINT('',(2.214805985879,7.107686620671));
#368 = CARTESIAN_POINT('',(2.21335313319,7.219018391367));
#369 = CARTESIAN_POINT('',(2.210887123545,7.321752671007));
#370 = CARTESIAN_POINT('',(2.207783854764,7.415664495387));
#371 = CARTESIAN_POINT('',(2.204255559417,7.501463466817));
#372 = CARTESIAN_POINT('',(2.200413343345,7.581220188462));
#373 = CARTESIAN_POINT('',(2.191976035325,7.733434729883));
#374 = CARTESIAN_POINT('',(2.187478146916,7.804379668671));
#375 = CARTESIAN_POINT('',(2.182743682605,7.871491671026));
#376 = CARTESIAN_POINT('',(2.177811911415,7.935379469642));
#377 = CARTESIAN_POINT('',(2.172709371483,7.996460485716));
#378 = CARTESIAN_POINT('',(2.167454897862,8.055084106954));
#379 = CARTESIAN_POINT('',(2.162061053004,8.111571523371));
#380 = CARTESIAN_POINT('',(2.144879249138,8.281246585074));
#381 = CARTESIAN_POINT('',(2.132652713771,8.38773029639));
#382 = CARTESIAN_POINT('',(2.119920130018,8.487971165625));
#383 = CARTESIAN_POINT('',(2.106708843865,8.583051470388));
#384 = CARTESIAN_POINT('',(2.093028554611,8.673741054304));
#385 = CARTESIAN_POINT('',(2.078874189816,8.760672019908));
#386 = CARTESIAN_POINT('',(2.064220573673,8.844263000855));
#387 = CARTESIAN_POINT('',(2.03327232119,9.008488507403));
#388 = CARTESIAN_POINT('',(2.01694886607,9.088835025708));
#389 = CARTESIAN_POINT('',(2.000007212823,9.166364516177));
#390 = CARTESIAN_POINT('',(1.982385245331,9.241330520992));
#391 = CARTESIAN_POINT('',(1.96400862355,9.313890246107));
#392 = CARTESIAN_POINT('',(1.944782540447,9.384133665507));
#393 = CARTESIAN_POINT('',(1.924568356294,9.452087745953));
#394 = CARTESIAN_POINT('',(1.888634797333,9.562135063499));
#395 = CARTESIAN_POINT('',(1.873578638195,9.605457501649));
#396 = CARTESIAN_POINT('',(1.857908473336,9.647678058313));
#397 = CARTESIAN_POINT('',(1.841529558843,9.68874386098));
#398 = CARTESIAN_POINT('',(1.824339423882,9.728555235958));
#399 = CARTESIAN_POINT('',(1.806215415162,9.766959491382));
#400 = CARTESIAN_POINT('',(1.786970928449,9.803717460269));
#401 = CARTESIAN_POINT('',(1.744228926187,9.875450005796));
#402 = CARTESIAN_POINT('',(1.720771501678,9.909743226967));
#403 = CARTESIAN_POINT('',(1.69477882812,9.942213180354));
#404 = CARTESIAN_POINT('',(1.665576203868,9.971607664421));
#405 = CARTESIAN_POINT('',(1.632898683927,9.99468502114));
#406 = CARTESIAN_POINT('',(1.597114844803,10.007569581119));
#407 = CARTESIAN_POINT('',(1.55905210606,10.004991957619));
#408 = CARTESIAN_POINT('',(1.50579023128,9.983544183));
#409 = CARTESIAN_POINT('',(1.489897046933,9.974453451763));
#410 = CARTESIAN_POINT('',(1.474834465169,9.963484268667));
#411 = CARTESIAN_POINT('',(1.460550128642,9.951017330349));
#412 = CARTESIAN_POINT('',(1.44698111643,9.93735214017));
#413 = CARTESIAN_POINT('',(1.434054354093,9.922706370037));
#414 = CARTESIAN_POINT('',(1.421687023739,9.907215222218));
#415 = CARTESIAN_POINT('',(1.391007427927,9.865230962561));
#416 = CARTESIAN_POINT('',(1.37348550557,9.837691843075));
#417 = CARTESIAN_POINT('',(1.356957495065,9.808694350955));
#418 = CARTESIAN_POINT('',(1.341266752796,9.778483963686));
#419 = CARTESIAN_POINT('',(1.326306734262,9.747225596084));
#420 = CARTESIAN_POINT('',(1.311987393547,9.715034815327));
#421 = CARTESIAN_POINT('',(1.298224951467,9.681985392941));
#422 = CARTESIAN_POINT('',(1.243771478447,9.542912446679));
#423 = CARTESIAN_POINT('',(1.207501257902,9.430124842428));
#424 = CARTESIAN_POINT('',(1.174119075755,9.310781069855));
#425 = CARTESIAN_POINT('',(1.143287609558,9.184665692684));
#426 = CARTESIAN_POINT('',(1.114384405711,9.051660613013));
#427 = CARTESIAN_POINT('',(1.087270890079,8.910397317824));
#428 = CARTESIAN_POINT('',(1.061696671568,8.759507738656));
#429 = CARTESIAN_POINT('',(1.02702815044,8.521490540662));
#430 = CARTESIAN_POINT('',(1.016770869021,8.446343886242));
#431 = CARTESIAN_POINT('',(1.006805443384,8.368103878615));
#432 = CARTESIAN_POINT('',(0.997133942006,8.286344759794));
#433 = CARTESIAN_POINT('',(0.987775403724,8.20042825734));
#434 = CARTESIAN_POINT('',(0.978761440716,8.109598426599));
#435 = CARTESIAN_POINT('',(0.970140535832,8.012817777936));
#436 = CARTESIAN_POINT('',(0.955425505459,7.82269859905));
#437 = CARTESIAN_POINT('',(0.949352214824,7.734671811812));
#438 = CARTESIAN_POINT('',(0.943612956807,7.640326372943));
#439 = CARTESIAN_POINT('',(0.938217087332,7.536979836663));
#440 = CARTESIAN_POINT('',(0.933402978445,7.422217944231));
#441 = CARTESIAN_POINT('',(0.929535558137,7.294814475314));
#442 = CARTESIAN_POINT('',(0.927295063029,7.153338041446));
#443 = CARTESIAN_POINT('',(0.927295218002,7.));
#444 = ( GEOMETRIC_REPRESENTATION_CONTEXT(2) 
PARAMETRIC_REPRESENTATION_CONTEXT() REPRESENTATION_CONTEXT('2D SPACE',''
  ) );
#445 = PCURVE('',#446,#451);
#446 = CYLINDRICAL_SURFACE('',#447,3.);
#447 = AXIS2_PLACEMENT_3D('',#448,#449,#450);
#448 = CARTESIAN_POINT('',(0.,7.,7.));
#449 = DIRECTION('',(0.,-1.,0.));
#450 = DIRECTION('',(1.,0.,0.));
#451 = DEFINITIONAL_REPRESENTATION('',(#452),#617);
#452 = B_SPLINE_CURVE_WITH_KNOTS('',8,(#453,#454,#455,#456,#457,#458,
    #459,#460,#461,#462,#463,#464,#465,#466,#467,#468,#469,#470,#471,
    #472,#473,#474,#475,#476,#477,#478,#479,#480,#481,#482,#483,#484,
    #485,#486,#487,#488,#489,#490,#491,#492,#493,#494,#495,#496,#497,
    #498,#499,#500,#501,#502,#503,#504,#505,#506,#507,#508,#509,#510,
    #511,#512,#513,#514,#515,#516,#517,#518,#519,#520,#521,#522,#523,
    #524,#525,#526,#527,#528,#529,#530,#531,#532,#533,#534,#535,#536,
    #537,#538,#539,#540,#541,#542,#543,#544,#545,#546,#547,#548,#549,
    #550,#551,#552,#553,#554,#555,#556,#557,#558,#559,#560,#561,#562,
    #563,#564,#565,#566,#567,#568,#569,#570,#571,#572,#573,#574,#575,
    #576,#577,#578,#579,#580,#581,#582,#583,#584,#585,#586,#587,#588,
    #589,#590,#591,#592,#593,#594,#595,#596,#597,#598,#599,#600,#601,
    #602,#603,#604,#605,#606,#607,#608,#609,#610,#611,#612,#613,#614,
    #615,#616),.UNSPECIFIED.,.F.,.F.,(9,7,7,7,7,7,7,7,7,7,7,7,8,7,7,7,7,
    7,7,7,7,7,7,9),(0.,2.254925730753E-02,5.398262814117E-02,
    0.123426245673,0.198139711774,0.250412349501,0.280954901703,
    0.317763173797,0.370289672092,0.427181392303,0.528348004859,
    0.569288442522,0.606961930587,0.629511187895,0.651870009359,
    0.698992554246,0.747814879855,0.780883485388,0.816126741695,
    0.832316145207,0.857864899169,0.937155276064,0.971881298173,1.),
  .UNSPECIFIED.);
#453 = CARTESIAN_POINT('',(6.28318530718,3.000000000012));
#454 = CARTESIAN_POINT('',(6.257984955042,2.999999991733));
#455 = CARTESIAN_POINT('',(6.233040874599,2.998367066593));
#456 = CARTESIAN_POINT('',(6.209013236158,2.995158778089));
#457 = CARTESIAN_POINT('',(6.186176246377,2.990686830675));
#458 = CARTESIAN_POINT('',(6.164594720479,2.985273069349));
#459 = CARTESIAN_POINT('',(6.144189014844,2.979153909028));
#460 = CARTESIAN_POINT('',(6.1247486072,2.972458123123));
#461 = CARTESIAN_POINT('',(6.079756088714,2.955040626142));
#462 = CARTESIAN_POINT('',(6.055204782592,2.943928167953));
#463 = CARTESIAN_POINT('',(6.0319261424,2.932101397669));
#464 = CARTESIAN_POINT('',(6.0096990315,2.919726770467));
#465 = CARTESIAN_POINT('',(5.988372935146,2.906917783504));
#466 = CARTESIAN_POINT('',(5.967818834755,2.893756672001));
#467 = CARTESIAN_POINT('',(5.947913748777,2.880301353107));
#468 = CARTESIAN_POINT('',(5.885799529024,2.836259222333));
#469 = CARTESIAN_POINT('',(5.84585187264,2.804741973575));
#470 = CARTESIAN_POINT('',(5.807683306592,2.77243604119));
#471 = CARTESIAN_POINT('',(5.770853598102,2.739566790933));
#472 = CARTESIAN_POINT('',(5.73503398148,2.706299406736));
#473 = CARTESIAN_POINT('',(5.699932879491,2.672758216163));
#474 = CARTESIAN_POINT('',(5.665342710408,2.639014147692));
#475 = CARTESIAN_POINT('',(5.594097586012,2.568639922997));
#476 = CARTESIAN_POINT('',(5.557525239679,2.532021976874));
#477 = CARTESIAN_POINT('',(5.521051930123,2.495339067098));
#478 = CARTESIAN_POINT('',(5.484459374209,2.458668259488));
#479 = CARTESIAN_POINT('',(5.44754660518,2.422087769177));
#480 = CARTESIAN_POINT('',(5.410103539636,2.385681802916));
#481 = CARTESIAN_POINT('',(5.371875723366,2.349547003261));
#482 = CARTESIAN_POINT('',(5.304985692629,2.288790361301));
#483 = CARTESIAN_POINT('',(5.276912144078,2.26398723977));
#484 = CARTESIAN_POINT('',(5.248180918087,2.239420377028));
#485 = CARTESIAN_POINT('',(5.218644137105,2.215144266292));
#486 = CARTESIAN_POINT('',(5.188143415556,2.191233308031));
#487 = CARTESIAN_POINT('',(5.156491139069,2.167786734404));
#488 = CARTESIAN_POINT('',(5.123414345688,2.144943797092));
#489 = CARTESIAN_POINT('',(5.068038343019,2.110034567589));
#490 = CARTESIAN_POINT('',(5.046998764783,2.097454334899));
#491 = CARTESIAN_POINT('',(5.025242819133,2.085197657715));
#492 = CARTESIAN_POINT('',(5.002656755511,2.073322468383));
#493 = CARTESIAN_POINT('',(4.979122034421,2.061910790396));
#494 = CARTESIAN_POINT('',(4.954504386794,2.051073526262));
#495 = CARTESIAN_POINT('',(4.928622626331,2.040964737202));
#496 = CARTESIAN_POINT('',(4.868145594935,2.020767583026));
#497 = CARTESIAN_POINT('',(4.832017569556,2.0108321566));
#498 = CARTESIAN_POINT('',(4.792667375067,2.002701168187));
#499 = CARTESIAN_POINT('',(4.750477701944,1.997417003481));
#500 = CARTESIAN_POINT('',(4.706440016625,1.996124457528));
#501 = CARTESIAN_POINT('',(4.662241947489,1.999498435529));
#502 = CARTESIAN_POINT('',(4.620400230978,2.006444140949));
#503 = CARTESIAN_POINT('',(4.532551234468,2.026552717377));
#504 = CARTESIAN_POINT('',(4.486759304104,2.042384057751));
#505 = CARTESIAN_POINT('',(4.444572457363,2.060511842249));
#506 = CARTESIAN_POINT('',(4.405563909854,2.080317562248));
#507 = CARTESIAN_POINT('',(4.368949438647,2.101160301177));
#508 = CARTESIAN_POINT('',(4.334414690644,2.122804009886));
#509 = CARTESIAN_POINT('',(4.301449854853,2.145078330728));
#510 = CARTESIAN_POINT('',(4.235143021795,2.192891172719));
#511 = CARTESIAN_POINT('',(4.202220949395,2.218375244179));
#512 = CARTESIAN_POINT('',(4.170491519037,2.244333050083));
#513 = CARTESIAN_POINT('',(4.139721852068,2.270656916337));
#514 = CARTESIAN_POINT('',(4.109743867835,2.297266611924));
#515 = CARTESIAN_POINT('',(4.080414682061,2.324099960772));
#516 = CARTESIAN_POINT('',(4.051601142347,2.351109267405));
#517 = CARTESIAN_POINT('',(3.972663990227,2.426549581054));
#518 = CARTESIAN_POINT('',(3.923478144777,2.475220764111));
#519 = CARTESIAN_POINT('',(3.874932788286,2.524099116664));
#520 = CARTESIAN_POINT('',(3.826567536237,2.573027829838));
#521 = CARTESIAN_POINT('',(3.777891481926,2.621815928032));
#522 = CARTESIAN_POINT('',(3.728405173388,2.670246644228));
#523 = CARTESIAN_POINT('',(3.677517049066,2.718061732389));
#524 = CARTESIAN_POINT('',(3.602284388068,2.78376234148));
#525 = CARTESIAN_POINT('',(3.580187361729,2.802504181104));
#526 = CARTESIAN_POINT('',(3.55758497584,2.8210369978));
#527 = CARTESIAN_POINT('',(3.534373690751,2.839319170629));
#528 = CARTESIAN_POINT('',(3.510440692396,2.857293869567));
#529 = CARTESIAN_POINT('',(3.485650876107,2.874885094004));
#530 = CARTESIAN_POINT('',(3.459808994356,2.891985791024));
#531 = CARTESIAN_POINT('',(3.40755622299,2.92357671097));
#532 = CARTESIAN_POINT('',(3.381644455531,2.937991399492));
#533 = CARTESIAN_POINT('',(3.354347379814,2.95175626676));
#534 = CARTESIAN_POINT('',(3.32523401416,2.964750810376));
#535 = CARTESIAN_POINT('',(3.293909410317,2.976619863302));
#536 = CARTESIAN_POINT('',(3.260013945961,2.986773669268));
#537 = CARTESIAN_POINT('',(3.223172791231,2.994353880867));
#538 = CARTESIAN_POINT('',(3.182799159747,2.998091313144));
#539 = CARTESIAN_POINT('',(3.144864155147,3.001609616638));
#540 = CARTESIAN_POINT('',(3.105714473122,3.001533194302));
#541 = CARTESIAN_POINT('',(3.068624715296,2.997159812718));
#542 = CARTESIAN_POINT('',(3.034279803454,2.989756679398));
#543 = CARTESIAN_POINT('',(3.00273210662,2.980493803064));
#544 = CARTESIAN_POINT('',(2.973766624941,2.970027829225));
#545 = CARTESIAN_POINT('',(2.946692745698,2.958698206498));
#546 = CARTESIAN_POINT('',(2.894689751994,2.934001998161));
#547 = CARTESIAN_POINT('',(2.87027978944,2.920918331024));
#548 = CARTESIAN_POINT('',(2.847015142581,2.907244453906));
#549 = CARTESIAN_POINT('',(2.824693528089,2.893111563792));
#550 = CARTESIAN_POINT('',(2.80317662777,2.878610748839));
#551 = CARTESIAN_POINT('',(2.782348202026,2.863808990076));
#552 = CARTESIAN_POINT('',(2.762100124853,2.848754554432));
#553 = CARTESIAN_POINT('',(2.700713924876,2.801262948937));
#554 = CARTESIAN_POINT('',(2.661354114963,2.76811465437));
#555 = CARTESIAN_POINT('',(2.623465919887,2.734332153931));
#556 = CARTESIAN_POINT('',(2.586661145394,2.700098698329));
#557 = CARTESIAN_POINT('',(2.55064669786,2.665551900451));
#558 = CARTESIAN_POINT('',(2.51516445512,2.630798200566));
#559 = CARTESIAN_POINT('',(2.480010765092,2.595907794301));
#560 = CARTESIAN_POINT('',(2.408640441653,2.524694739546));
#561 = CARTESIAN_POINT('',(2.37246009375,2.488394723933));
#562 = CARTESIAN_POINT('',(2.336190383551,2.45209927767));
#563 = CARTESIAN_POINT('',(2.29961983378,2.415881234829));
#564 = CARTESIAN_POINT('',(2.262545165246,2.379820349477));
#565 = CARTESIAN_POINT('',(2.224745979448,2.344008010633));
#566 = CARTESIAN_POINT('',(2.185940654506,2.308555652678));
#567 = CARTESIAN_POINT('',(2.118483559285,2.249934522299));
#568 = CARTESIAN_POINT('',(2.09061312839,2.226515299052));
#569 = CARTESIAN_POINT('',(2.061984291893,2.203377518482));
#570 = CARTESIAN_POINT('',(2.032430259185,2.180583907365));
#571 = CARTESIAN_POINT('',(2.001774924066,2.158222360313));
#572 = CARTESIAN_POINT('',(1.969810660264,2.136412366608));
#573 = CARTESIAN_POINT('',(1.936224307256,2.115327095805));
#574 = CARTESIAN_POINT('',(1.862366994091,2.073814673814));
#575 = CARTESIAN_POINT('',(1.822211045119,2.0537575481));
#576 = CARTESIAN_POINT('',(1.778058024927,2.034595064955));
#577 = CARTESIAN_POINT('',(1.728847285965,2.01710061687));
#578 = CARTESIAN_POINT('',(1.674162226012,2.003190745392));
#579 = CARTESIAN_POINT('',(1.614643202202,1.995440892219));
#580 = CARTESIAN_POINT('',(1.551293447983,1.997017079106));
#581 = CARTESIAN_POINT('',(1.462339221237,2.009858890468));
#582 = CARTESIAN_POINT('',(1.435749035921,2.015295787942));
#583 = CARTESIAN_POINT('',(1.410486538409,2.021841770612));
#584 = CARTESIAN_POINT('',(1.38645817146,2.029260324995));
#585 = CARTESIAN_POINT('',(1.36355723366,2.037364479393));
#586 = CARTESIAN_POINT('',(1.341662196689,2.046017098479));
#587 = CARTESIAN_POINT('',(1.320635022596,2.05513117788));
#588 = CARTESIAN_POINT('',(1.268259459529,2.079724144169));
#589 = CARTESIAN_POINT('',(1.238132549697,2.095755014906));
#590 = CARTESIAN_POINT('',(1.209497925736,2.112513386882));
#591 = CARTESIAN_POINT('',(1.182094462032,2.12983400285));
#592 = CARTESIAN_POINT('',(1.155744688856,2.147602002321));
#593 = CARTESIAN_POINT('',(1.13029772878,2.165733010737));
#594 = CARTESIAN_POINT('',(1.105611213841,2.184167027886));
#595 = CARTESIAN_POINT('',(1.006966572582,2.260937659743));
#596 = CARTESIAN_POINT('',(0.93890665518,2.321364075008));
#597 = CARTESIAN_POINT('',(0.873895400855,2.383036371407));
#598 = CARTESIAN_POINT('',(0.811128608571,2.445468861521));
#599 = CARTESIAN_POINT('',(0.749330576765,2.508133864421));
#600 = CARTESIAN_POINT('',(0.687710088661,2.570693980233));
#601 = CARTESIAN_POINT('',(0.625295775344,2.632824261885));
#602 = CARTESIAN_POINT('',(0.531643555248,2.720934239231));
#603 = CARTESIAN_POINT('',(0.502658466547,2.747551857662));
#604 = CARTESIAN_POINT('',(0.473038497753,2.773916600374));
#605 = CARTESIAN_POINT('',(0.4426245003,2.79997080924));
#606 = CARTESIAN_POINT('',(0.41119260287,2.82561127521));
#607 = CARTESIAN_POINT('',(0.378483580295,2.85069806777));
#608 = CARTESIAN_POINT('',(0.344147060125,2.87503838807));
#609 = CARTESIAN_POINT('',(0.277657000746,2.917114038401));
#610 = CARTESIAN_POINT('',(0.24719275908,2.934682937557));
#611 = CARTESIAN_POINT('',(0.214826470031,2.951443607663));
#612 = CARTESIAN_POINT('',(0.179671051338,2.967350378374));
#613 = CARTESIAN_POINT('',(0.140944016604,2.981675634004));
#614 = CARTESIAN_POINT('',(9.827119291103E-02,2.993279238031));
#615 = CARTESIAN_POINT('',(5.111272209673E-02,3.000000429433));
#616 = CARTESIAN_POINT('',(0.,3.));
#617 = ( GEOMETRIC_REPRESENTATION_CONTEXT(2) 
PARAMETRIC_REPRESENTATION_CONTEXT() REPRESENTATION_CONTEXT('2D SPACE',''
  ) );
#618 = FACE_BOUND('',#619,.T.);
#619 = EDGE_LOOP('',(#620,#899));
#620 = ORIENTED_EDGE('',*,*,#621,.F.);
#621 = EDGE_CURVE('',#622,#624,#626,.T.);
#622 = VERTEX_POINT('',#623);
#623 = CARTESIAN_POINT('',(-3.,-4.,7.));
#624 = VERTEX_POINT('',#625);
#625 = CARTESIAN_POINT('',(3.,-4.,7.));
#626 = SURFACE_CURVE('',#627,(#714,#804),.PCURVE_S1.);
#627 = B_SPLINE_CURVE_WITH_KNOTS('',8,(#628,#629,#630,#631,#632,#633,
    #634,#635,#636,#637,#638,#639,#640,#641,#642,#643,#644,#645,#646,
    #647,#648,#649,#650,#651,#652,#653,#654,#655,#656,#657,#658,#659,
    #660,#661,#662,#663,#664,#665,#666,#667,#668,#669,#670,#671,#672,
    #673,#674,#675,#676,#677,#678,#679,#680,#681,#682,#683,#684,#685,
    #686,#687,#688,#689,#690,#691,#692,#693,#694,#695,#696,#697,#698,
    #699,#700,#701,#702,#703,#704,#705,#706,#707,#708,#709,#710,#711,
    #712,#713),.UNSPECIFIED.,.F.,.F.,(9,7,7,7,7,7,7,7,7,7,7,7,9),(0.,
    3.685593486292E-02,8.823225150334E-02,0.201733210989,0.32384527157,
    0.409277501895,0.459192636749,0.519342750821,0.605186474479,
    0.698169309044,0.863518681107,0.940290502941,1.),.UNSPECIFIED.);
#628 = CARTESIAN_POINT('',(-3.,-4.,7.));
#629 = CARTESIAN_POINT('',(-3.000000024712,-4.000000008235,
    6.924399155959));
#630 = CARTESIAN_POINT('',(-2.997822579886,-4.001632926021,
    6.849566835153));
#631 = CARTESIAN_POINT('',(-2.99354553354,-4.004841200734,6.777557813647
    ));
#632 = CARTESIAN_POINT('',(-2.98756789931,-4.009313135687,6.70925915212)
  );
#633 = CARTESIAN_POINT('',(-2.980298401815,-4.014726891282,
    6.644888893669));
#634 = CARTESIAN_POINT('',(-2.972037470588,-4.020846054921,
    6.584207078052));
#635 = CARTESIAN_POINT('',(-2.962947613551,-4.027541854367,
    6.526586047215));
#636 = CARTESIAN_POINT('',(-2.939149361572,-4.044959330912,
    6.393722923847));
#637 = CARTESIAN_POINT('',(-2.923851834424,-4.056071752369,
    6.321637815094));
#638 = CARTESIAN_POINT('',(-2.907423847261,-4.067898497771,
    6.253715113881));
#639 = CARTESIAN_POINT('',(-2.890061754566,-4.080273114509,6.1892903251)
  );
#640 = CARTESIAN_POINT('',(-2.871896304886,-4.093082106503,
    6.127907843284));
#641 = CARTESIAN_POINT('',(-2.853019680288,-4.106243239001,
    6.069177599388));
#642 = CARTESIAN_POINT('',(-2.83349222794,-4.119698594874,6.012731546448
    ));
#643 = CARTESIAN_POINT('',(-2.76878459995,-4.163740556601,5.8379847642)
  );
#644 = CARTESIAN_POINT('',(-2.721299181561,-4.195257635681,
    5.727775053402));
#645 = CARTESIAN_POINT('',(-2.671238204455,-4.227563460226,
    5.624584579724));
#646 = CARTESIAN_POINT('',(-2.618738262141,-4.260432668058,
    5.527147650132));
#647 = CARTESIAN_POINT('',(-2.563855969311,-4.293700078278,
    5.434554610297));
#648 = CARTESIAN_POINT('',(-2.506581942951,-4.327241366266,
    5.346034454457));
#649 = CARTESIAN_POINT('',(-2.446805839535,-4.360985605417,
    5.261110987851));
#650 = CARTESIAN_POINT('',(-2.317089829804,-4.431359710865,
    5.091239257477));
#651 = CARTESIAN_POINT('',(-2.246787106094,-4.467977374941,
    5.006878955721));
#652 = CARTESIAN_POINT('',(-2.173212996828,-4.504660095541,
    4.925674473397));
#653 = CARTESIAN_POINT('',(-2.096089259274,-4.541330816405,
    4.847290475975));
#654 = CARTESIAN_POINT('',(-2.015078830602,-4.577911333138,
    4.771506791957));
#655 = CARTESIAN_POINT('',(-1.929753898332,-4.614317451525,
    4.698175507571));
#656 = CARTESIAN_POINT('',(-1.839509977408,-4.650452544155,
    4.627208224181));
#657 = CARTESIAN_POINT('',(-1.676204391082,-4.711209244623,
    4.510588175141));
#658 = CARTESIAN_POINT('',(-1.606154271343,-4.736012058989,
    4.463765705571));
#659 = CARTESIAN_POINT('',(-1.532965653437,-4.760578714167,4.4180986046)
  );
#660 = CARTESIAN_POINT('',(-1.456220049974,-4.784854728807,
    4.373614108545));
#661 = CARTESIAN_POINT('',(-1.375452899797,-4.80876571544,4.330379554453
    ));
#662 = CARTESIAN_POINT('',(-1.290102199477,-4.832212456452,
    4.288506104831));
#663 = CARTESIAN_POINT('',(-1.199343333907,-4.855055715083,
    4.248170797771));
#664 = CARTESIAN_POINT('',(-1.044824769372,-4.889965112739,
    4.187154582567));
#665 = CARTESIAN_POINT('',(-0.985592979713,-4.902545101851,
    4.165306154232));
#666 = CARTESIAN_POINT('',(-0.923818048419,-4.914801626454,
    4.144147054966));
#667 = CARTESIAN_POINT('',(-0.859154991071,-4.926676761601,
    4.123762325709));
#668 = CARTESIAN_POINT('',(-0.79124065906,-4.938088489212,4.104276786402
    ));
#669 = CARTESIAN_POINT('',(-0.719664817525,-4.948925908889,
    4.085861645151));
#670 = CARTESIAN_POINT('',(-0.643882169606,-4.959034950039,4.06875756101
    ));
#671 = CARTESIAN_POINT('',(-0.465677001766,-4.979231880812,
    4.034704783067));
#672 = CARTESIAN_POINT('',(-0.358521148254,-4.989167180378,
    4.018041827094));
#673 = CARTESIAN_POINT('',(-0.241089434191,-4.997298402904,
    4.004470091106));
#674 = CARTESIAN_POINT('',(-0.114556916113,-5.002582999842,
    3.995706701557));
#675 = CARTESIAN_POINT('',(1.797495617199E-02,-5.003875838346,
    3.99355977764));
#676 = CARTESIAN_POINT('',(0.15073748013,-5.000501642144,3.999140651398)
  );
#677 = CARTESIAN_POINT('',(0.275807600694,-4.993555634723,4.010732392308
    ));
#678 = CARTESIAN_POINT('',(0.537199393548,-4.973446537883,4.044425079666
    ));
#679 = CARTESIAN_POINT('',(0.672280253709,-4.957614341529,4.071048966563
    ));
#680 = CARTESIAN_POINT('',(0.795308124271,-4.939486128089,4.10173512115)
  );
#681 = CARTESIAN_POINT('',(0.907608765948,-4.919680229822,4.135545820253
    ));
#682 = CARTESIAN_POINT('',(1.011571032327,-4.898837700506,4.171470039382
    ));
#683 = CARTESIAN_POINT('',(1.108207033823,-4.877194453258,4.209161237696
    ));
#684 = CARTESIAN_POINT('',(1.199051130256,-4.854920833224,4.248381713932
    ));
#685 = CARTESIAN_POINT('',(1.378787642909,-4.80710838201,4.333609749345)
  );
#686 = CARTESIAN_POINT('',(1.466285099787,-4.781624020663,4.379604441145
    ));
#687 = CARTESIAN_POINT('',(1.548907816575,-4.755666064496,4.427097331753
    ));
#688 = CARTESIAN_POINT('',(1.627344468516,-4.72934217304,4.475978958847)
  );
#689 = CARTESIAN_POINT('',(1.702079287666,-4.702732564327,4.526188507449
    ));
#690 = CARTESIAN_POINT('',(1.773508076832,-4.675899402998,4.577701879596
    ));
#691 = CARTESIAN_POINT('',(1.841979415195,-4.648890374254,4.630531223359
    ));
#692 = CARTESIAN_POINT('',(2.024740226888,-4.573449763971,4.781125922352
    ));
#693 = CARTESIAN_POINT('',(2.133058782042,-4.524778159926,4.881713054084
    ));
#694 = CARTESIAN_POINT('',(2.234362960823,-4.475899589297,4.986848183173
    ));
#695 = CARTESIAN_POINT('',(2.32954399582,-4.426970839495,5.096942482658)
  );
#696 = CARTESIAN_POINT('',(2.419171781645,-4.378182867654,5.212785282667
    ));
#697 = CARTESIAN_POINT('',(2.503643467653,-4.329752425396,5.335345525273
    ));
#698 = CARTESIAN_POINT('',(2.583167023671,-4.281937745529,5.466029917224
    ));
#699 = CARTESIAN_POINT('',(2.692304894744,-4.213450323719,5.674460292756
    ));
#700 = CARTESIAN_POINT('',(2.725790246616,-4.191986702085,5.742973251376
    ));
#701 = CARTESIAN_POINT('',(2.758173318027,-4.170806531322,5.814323175223
    ));
#702 = CARTESIAN_POINT('',(2.789430148183,-4.149963959938,5.888911751889
    ));
#703 = CARTESIAN_POINT('',(2.819475393579,-4.129557208811,5.967314062018
    ));
#704 = CARTESIAN_POINT('',(2.848178569462,-4.109720584121,6.050206799022
    ));
#705 = CARTESIAN_POINT('',(2.875347823706,-4.090640176728,6.138508638509
    ));
#706 = CARTESIAN_POINT('',(2.92026142517,-4.058651829891,6.308627773917)
  );
#707 = CARTESIAN_POINT('',(2.938328501945,-4.04562113409,6.385892156046)
  );
#708 = CARTESIAN_POINT('',(2.955169020063,-4.033343338706,6.468340001351
    ));
#709 = CARTESIAN_POINT('',(2.970653728434,-4.021937475086,6.557859989042
    ));
#710 = CARTESIAN_POINT('',(2.984068763381,-4.011949661539,6.65586463079)
  );
#711 = CARTESIAN_POINT('',(2.994401226189,-4.004198769528,6.762866975328
    ));
#712 = CARTESIAN_POINT('',(3.000000198727,-3.999999895,6.878784027319));
#713 = CARTESIAN_POINT('',(3.,-3.999999999932,7.));
#714 = PCURVE('',#31,#715);
#715 = DEFINITIONAL_REPRESENTATION('',(#716),#803);
#716 = B_SPLINE_CURVE_WITH_KNOTS('',8,(#717,#718,#719,#720,#721,#722,
    #723,#724,#725,#726,#727,#728,#729,#730,#731,#732,#733,#734,#735,
    #736,#737,#738,#739,#740,#741,#742,#743,#744,#745,#746,#747,#748,
    #749,#750,#751,#752,#753,#754,#755,#756,#757,#758,#759,#760,#761,
    #762,#763,#764,#765,#766,#767,#768,#769,#770,#771,#772,#773,#774,
    #775,#776,#777,#778,#779,#780,#781,#782,#783,#784,#785,#786,#787,
    #788,#789,#790,#791,#792,#793,#794,#795,#796,#797,#798,#799,#800,
    #801,#802),.UNSPECIFIED.,.F.,.F.,(9,7,7,7,7,7,7,7,7,7,7,7,9),(0.,
    3.685593486292E-02,8.823225150334E-02,0.201733210989,0.32384527157,
    0.409277501895,0.459192636749,0.519342750821,0.605186474479,
    0.698169309044,0.863518681107,0.940290502941,1.),.UNSPECIFIED.);
#717 = CARTESIAN_POINT('',(4.068887871591,7.));
#718 = CARTESIAN_POINT('',(4.068887868696,6.924399155959));
#719 = CARTESIAN_POINT('',(4.069432209578,6.849566835153));
#720 = CARTESIAN_POINT('',(4.070501531155,6.777557813647));
#721 = CARTESIAN_POINT('',(4.071994582838,6.70925915212));
#722 = CARTESIAN_POINT('',(4.073807354798,6.644888893669));
#723 = CARTESIAN_POINT('',(4.075863427452,6.584207078052));
#724 = CARTESIAN_POINT('',(4.078121374223,6.526586047215));
#725 = CARTESIAN_POINT('',(4.084019595018,6.393722923847));
#726 = CARTESIAN_POINT('',(4.08780110683,6.321637815094));
#727 = CARTESIAN_POINT('',(4.091849503297,6.253715113881));
#728 = CARTESIAN_POINT('',(4.096113549413,6.1892903251));
#729 = CARTESIAN_POINT('',(4.100558894494,6.127907843284));
#730 = CARTESIAN_POINT('',(4.105161137414,6.069177599388));
#731 = CARTESIAN_POINT('',(4.109903919529,6.012731546448));
#732 = CARTESIAN_POINT('',(4.125558659146,5.8379847642));
#733 = CARTESIAN_POINT('',(4.136956464915,5.727775053402));
#734 = CARTESIAN_POINT('',(4.148870780846,5.624584579724));
#735 = CARTESIAN_POINT('',(4.161256469114,5.527147650132));
#736 = CARTESIAN_POINT('',(4.17408921313,5.434554610297));
#737 = CARTESIAN_POINT('',(4.187361019893,5.346034454457));
#738 = CARTESIAN_POINT('',(4.201087672009,5.261110987851));
#739 = CARTESIAN_POINT('',(4.230602905046,5.091239257477));
#740 = CARTESIAN_POINT('',(4.246454212172,5.006878955721));
#741 = CARTESIAN_POINT('',(4.262892080985,4.925674473397));
#742 = CARTESIAN_POINT('',(4.279965515845,4.847290475975));
#743 = CARTESIAN_POINT('',(4.297735550985,4.771506791957));
#744 = CARTESIAN_POINT('',(4.316281406112,4.698175507571));
#745 = CARTESIAN_POINT('',(4.335717466466,4.627208224181));
#746 = CARTESIAN_POINT('',(4.370565705139,4.510588175141));
#747 = CARTESIAN_POINT('',(4.385426279045,4.463765705571));
#748 = CARTESIAN_POINT('',(4.400862855647,4.4180986046));
#749 = CARTESIAN_POINT('',(4.416956475034,4.373614108545));
#750 = CARTESIAN_POINT('',(4.433796832055,4.330379554453));
#751 = CARTESIAN_POINT('',(4.451492701713,4.288506104831));
#752 = CARTESIAN_POINT('',(4.470205128667,4.248170797771));
#753 = CARTESIAN_POINT('',(4.501887672905,4.187154582567));
#754 = CARTESIAN_POINT('',(4.513997313363,4.165306154232));
#755 = CARTESIAN_POINT('',(4.526591126268,4.144147054966));
#756 = CARTESIAN_POINT('',(4.539737239416,4.123762325709));
#757 = CARTESIAN_POINT('',(4.553507164027,4.104276786402));
#758 = CARTESIAN_POINT('',(4.567981845218,4.085861645151));
#759 = CARTESIAN_POINT('',(4.583269683229,4.06875756101));
#760 = CARTESIAN_POINT('',(4.61913885895,4.034704783067));
#761 = CARTESIAN_POINT('',(4.640657613403,4.018041827094));
#762 = CARTESIAN_POINT('',(4.664188670254,4.004470091106));
#763 = CARTESIAN_POINT('',(4.689498366818,3.995706701557));
#764 = CARTESIAN_POINT('',(4.715974226349,3.99355977764));
#765 = CARTESIAN_POINT('',(4.742515290534,3.999140651398));
#766 = CARTESIAN_POINT('',(4.767562280806,4.010732392308));
#767 = CARTESIAN_POINT('',(4.819995076222,4.044425079666));
#768 = CARTESIAN_POINT('',(4.84717469307,4.071048966563));
#769 = CARTESIAN_POINT('',(4.872029824161,4.10173512115));
#770 = CARTESIAN_POINT('',(4.894819526675,4.135545820253));
#771 = CARTESIAN_POINT('',(4.916016161078,4.171470039382));
#772 = CARTESIAN_POINT('',(4.935814428442,4.209161237696));
#773 = CARTESIAN_POINT('',(4.954518071907,4.248381713932));
#774 = CARTESIAN_POINT('',(4.991715459464,4.333609749345));
#775 = CARTESIAN_POINT('',(5.009937167849,4.379604441145));
#776 = CARTESIAN_POINT('',(5.027251853711,4.427097331753));
#777 = CARTESIAN_POINT('',(5.043793242785,4.475978958847));
#778 = CARTESIAN_POINT('',(5.059654484095,4.526188507449));
#779 = CARTESIAN_POINT('',(5.074911404642,4.577701879596));
#780 = CARTESIAN_POINT('',(5.089630826604,4.630531223359));
#781 = CARTESIAN_POINT('',(5.129174600911,4.781125922352));
#782 = CARTESIAN_POINT('',(5.152913577494,4.881713054084));
#783 = CARTESIAN_POINT('',(5.175396132924,4.986848183173));
#784 = CARTESIAN_POINT('',(5.196787529583,5.096942482658));
#785 = CARTESIAN_POINT('',(5.217186103635,5.212785282667));
#786 = CARTESIAN_POINT('',(5.236653160331,5.335345525273));
#787 = CARTESIAN_POINT('',(5.255208025387,5.466029917224));
#788 = CARTESIAN_POINT('',(5.280977465898,5.674460292756));
#789 = CARTESIAN_POINT('',(5.288931862354,5.742973251376));
#790 = CARTESIAN_POINT('',(5.296670220595,5.814323175223));
#791 = CARTESIAN_POINT('',(5.304183378087,5.888911751889));
#792 = CARTESIAN_POINT('',(5.311446912772,5.967314062018));
#793 = CARTESIAN_POINT('',(5.318424726732,6.050206799022));
#794 = CARTESIAN_POINT('',(5.325064551692,6.138508638509));
#795 = CARTESIAN_POINT('',(5.336092672561,6.308627773917));
#796 = CARTESIAN_POINT('',(5.340547782008,6.385892156046));
#797 = CARTESIAN_POINT('',(5.344715905705,6.468340001351));
#798 = CARTESIAN_POINT('',(5.348562201635,6.557859989042));
#799 = CARTESIAN_POINT('',(5.351907126997,6.65586463079));
#800 = CARTESIAN_POINT('',(5.354490434345,6.762866975328));
#801 = CARTESIAN_POINT('',(5.355890133382,6.878784027319));
#802 = CARTESIAN_POINT('',(5.355890089186,7.));
#803 = ( GEOMETRIC_REPRESENTATION_CONTEXT(2) 
PARAMETRIC_REPRESENTATION_CONTEXT() REPRESENTATION_CONTEXT('2D SPACE',''
  ) );
#804 = PCURVE('',#805,#810);
#805 = CYLINDRICAL_SURFACE('',#806,3.);
#806 = AXIS2_PLACEMENT_3D('',#807,#808,#809);
#807 = CARTESIAN_POINT('',(0.,7.,7.));
#808 = DIRECTION('',(0.,-1.,0.));
#809 = DIRECTION('',(1.,0.,0.));
#810 = DEFINITIONAL_REPRESENTATION('',(#811),#898);
#811 = B_SPLINE_CURVE_WITH_KNOTS('',8,(#812,#813,#814,#815,#816,#817,
    #818,#819,#820,#821,#822,#823,#824,#825,#826,#827,#828,#829,#830,
    #831,#832,#833,#834,#835,#836,#837,#838,#839,#840,#841,#842,#843,
    #844,#845,#846,#847,#848,#849,#850,#851,#852,#853,#854,#855,#856,
    #857,#858,#859,#860,#861,#862,#863,#864,#865,#866,#867,#868,#869,
    #870,#871,#872,#873,#874,#875,#876,#877,#878,#879,#880,#881,#882,
    #883,#884,#885,#886,#887,#888,#889,#890,#891,#892,#893,#894,#895,
    #896,#897),.UNSPECIFIED.,.F.,.F.,(9,7,7,7,7,7,7,7,7,7,7,7,9),(0.,
    3.685593486292E-02,8.823225150334E-02,0.201733210989,0.32384527157,
    0.409277501895,0.459192636749,0.519342750821,0.605186474479,
    0.698169309044,0.863518681107,0.940290502941,1.),.UNSPECIFIED.);
#812 = CARTESIAN_POINT('',(3.14159265359,11.));
#813 = CARTESIAN_POINT('',(3.166792948463,11.000000008235));
#814 = CARTESIAN_POINT('',(3.191736975868,11.001632926022));
#815 = CARTESIAN_POINT('',(3.215764581792,11.004841200734));
#816 = CARTESIAN_POINT('',(3.238601562314,11.009313135687));
#817 = CARTESIAN_POINT('',(3.260183101234,11.014726891282));
#818 = CARTESIAN_POINT('',(3.280588839685,11.020846054921));
#819 = CARTESIAN_POINT('',(3.300029295376,11.027541854367));
#820 = CARTESIAN_POINT('',(3.345021761273,11.044959330912));
#821 = CARTESIAN_POINT('',(3.369573007063,11.056071752369));
#822 = CARTESIAN_POINT('',(3.392851620672,11.067898497771));
#823 = CARTESIAN_POINT('',(3.415078731503,11.080273114509));
#824 = CARTESIAN_POINT('',(3.436404850707,11.093082106503));
#825 = CARTESIAN_POINT('',(3.456958993683,11.106243239001));
#826 = CARTESIAN_POINT('',(3.476864138548,11.119698594874));
#827 = CARTESIAN_POINT('',(3.53897812008,11.1637405566));
#828 = CARTESIAN_POINT('',(3.578925602205,11.195257635681));
#829 = CARTESIAN_POINT('',(3.617094078107,11.227563460226));
#830 = CARTESIAN_POINT('',(3.653923769842,11.260432668058));
#831 = CARTESIAN_POINT('',(3.689743436925,11.293700078278));
#832 = CARTESIAN_POINT('',(3.724844651959,11.327241366266));
#833 = CARTESIAN_POINT('',(3.759435000487,11.360985605417));
#834 = CARTESIAN_POINT('',(3.830680004007,11.431359710865));
#835 = CARTESIAN_POINT('',(3.867252075145,11.467977374941));
#836 = CARTESIAN_POINT('',(3.90372519851,11.504660095541));
#837 = CARTESIAN_POINT('',(3.940317661927,11.541330816405));
#838 = CARTESIAN_POINT('',(3.977230442175,11.577911333138));
#839 = CARTESIAN_POINT('',(4.014673639305,11.614317451525));
#840 = CARTESIAN_POINT('',(4.052901739246,11.650452544155));
#841 = CARTESIAN_POINT('',(4.119791833696,11.711209244623));
#842 = CARTESIAN_POINT('',(4.147865022043,11.736012058989));
#843 = CARTESIAN_POINT('',(4.17659596986,11.760578714167));
#844 = CARTESIAN_POINT('',(4.206132580418,11.784854728807));
#845 = CARTESIAN_POINT('',(4.236633266136,11.80876571544));
#846 = CARTESIAN_POINT('',(4.268285675649,11.832212456452));
#847 = CARTESIAN_POINT('',(4.301362841958,11.855055715083));
#848 = CARTESIAN_POINT('',(4.3567391098,11.889965112739));
#849 = CARTESIAN_POINT('',(4.377778250739,11.902545101851));
#850 = CARTESIAN_POINT('',(4.399533850434,11.914801626454));
#851 = CARTESIAN_POINT('',(4.422119696937,11.926676761601));
#852 = CARTESIAN_POINT('',(4.445654367858,11.938088489212));
#853 = CARTESIAN_POINT('',(4.470272178276,11.948925908889));
#854 = CARTESIAN_POINT('',(4.496154399104,11.959034950039));
#855 = CARTESIAN_POINT('',(4.556630760843,11.979231880812));
#856 = CARTESIAN_POINT('',(4.592757783974,11.989167180378));
#857 = CARTESIAN_POINT('',(4.632107731379,11.997298402906));
#858 = CARTESIAN_POINT('',(4.674297957014,12.00258299984));
#859 = CARTESIAN_POINT('',(4.718336854857,12.003875838348));
#860 = CARTESIAN_POINT('',(4.762536291843,12.000501642143));
#861 = CARTESIAN_POINT('',(4.804378710617,11.993555634723));
#862 = CARTESIAN_POINT('',(4.892229973805,11.973446537883));
#863 = CARTESIAN_POINT('',(4.938022748102,11.957614341529));
#864 = CARTESIAN_POINT('',(4.980209903329,11.93948612809));
#865 = CARTESIAN_POINT('',(5.019217989983,11.919680229821));
#866 = CARTESIAN_POINT('',(5.055831793913,11.898837700508));
#867 = CARTESIAN_POINT('',(5.090365541289,11.877194453257));
#868 = CARTESIAN_POINT('',(5.123329267318,11.854920833224));
#869 = CARTESIAN_POINT('',(5.189635556109,11.80710838201));
#870 = CARTESIAN_POINT('',(5.222557945393,11.781624020663));
#871 = CARTESIAN_POINT('',(5.254287499219,11.755666064496));
#872 = CARTESIAN_POINT('',(5.285057148043,11.72934217304));
#873 = CARTESIAN_POINT('',(5.31503499965,11.702732564327));
#874 = CARTESIAN_POINT('',(5.34436395827,11.675899402998));
#875 = CARTESIAN_POINT('',(5.373177193625,11.648890374254));
#876 = CARTESIAN_POINT('',(5.452114655882,11.573449763971));
#877 = CARTESIAN_POINT('',(5.501300895127,11.524778159926));
#878 = CARTESIAN_POINT('',(5.549846449741,11.475899589297));
#879 = CARTESIAN_POINT('',(5.598211743052,11.426970839495));
#880 = CARTESIAN_POINT('',(5.646887695812,11.378182867654));
#881 = CARTESIAN_POINT('',(5.696373767025,11.329752425396));
#882 = CARTESIAN_POINT('',(5.747261509538,11.281937745529));
#883 = CARTESIAN_POINT('',(5.825686560856,11.21345032372));
#884 = CARTESIAN_POINT('',(5.851095792028,11.191986702085));
#885 = CARTESIAN_POINT('',(5.877196809092,11.170806531322));
#886 = CARTESIAN_POINT('',(5.904129695956,11.149963959938));
#887 = CARTESIAN_POINT('',(5.932088951009,11.129557208811));
#888 = CARTESIAN_POINT('',(5.96130093624,11.109720584121));
#889 = CARTESIAN_POINT('',(5.992071744158,11.090640176728));
#890 = CARTESIAN_POINT('',(6.050721171333,11.058651829891));
#891 = CARTESIAN_POINT('',(6.077159614053,11.045621134091));
#892 = CARTESIAN_POINT('',(6.105191710742,11.033343338705));
#893 = CARTESIAN_POINT('',(6.135441785771,11.021937475088));
#894 = CARTESIAN_POINT('',(6.168372419236,11.011949661537));
#895 = CARTESIAN_POINT('',(6.204141115437,11.004198769529));
#896 = CARTESIAN_POINT('',(6.242779961451,10.999999895));
#897 = CARTESIAN_POINT('',(6.28318530718,10.999999999932));
#898 = ( GEOMETRIC_REPRESENTATION_CONTEXT(2) 
PARAMETRIC_REPRESENTATION_CONTEXT() REPRESENTATION_CONTEXT('2D SPACE',''
  ) );
#899 = ORIENTED_EDGE('',*,*,#900,.F.);
#900 = EDGE_CURVE('',#624,#622,#901,.T.);
#901 = SURFACE_CURVE('',#902,(#982,#1065),.PCURVE_S1.);
#902 = B_SPLINE_CURVE_WITH_KNOTS('',8,(#903,#904,#905,#906,#907,#908,
    #909,#910,#911,#912,#913,#914,#915,#916,#917,#918,#919,#920,#921,
    #922,#923,#924,#925,#926,#927,#928,#929,#930,#931,#932,#933,#934,
    #935,#936,#937,#938,#939,#940,#941,#942,#943,#944,#945,#946,#947,
    #948,#949,#950,#951,#952,#953,#954,#955,#956,#957,#958,#959,#960,
    #961,#962,#963,#964,#965,#966,#967,#968,#969,#970,#971,#972,#973,
    #974,#975,#976,#977,#978,#979,#980,#981),.UNSPECIFIED.,.F.,.F.,(9,7,
    7,7,7,7,7,7,7,7,7,9),(0.,4.994101290091E-02,0.107279853901,
    0.228123506042,0.35332383519,0.438122466479,0.528489542067,
    0.57000007514,0.635512658053,0.838840170371,0.927891572926,1.),
  .UNSPECIFIED.);
#903 = CARTESIAN_POINT('',(3.,-3.999999999932,7.));
#904 = CARTESIAN_POINT('',(3.00000064846,-3.999999604363,7.099280166281)
  );
#905 = CARTESIAN_POINT('',(2.996242330468,-4.002817812975,7.196000502902
    ));
#906 = CARTESIAN_POINT('',(2.989079988051,-4.008191164155,7.287059150689
    ));
#907 = CARTESIAN_POINT('',(2.979438566828,-4.015388026546,7.371711740313
    ));
#908 = CARTESIAN_POINT('',(2.96808769701,-4.023797915239,7.4501228814));
#909 = CARTESIAN_POINT('',(2.955491429198,-4.033056065941,7.523003434059
    ));
#910 = CARTESIAN_POINT('',(2.941859748276,-4.042993455963,7.591643377467
    ));
#911 = CARTESIAN_POINT('',(2.910000329411,-4.065997949762,7.733434409205
    ));
#912 = CARTESIAN_POINT('',(2.891708237966,-4.079081575315,7.804379172634
    ));
#913 = CARTESIAN_POINT('',(2.872383977412,-4.092755425382,7.871491098987
    ));
#914 = CARTESIAN_POINT('',(2.8521761107,-4.106888304866,7.935378899239)
  );
#915 = CARTESIAN_POINT('',(2.83118396567,-4.121389126422,7.996459982784)
  );
#916 = CARTESIAN_POINT('',(2.809477032844,-4.136190909369,8.055083727402
    ));
#917 = CARTESIAN_POINT('',(2.787099895999,-4.1512453868,8.11157131324));
#918 = CARTESIAN_POINT('',(2.715511715382,-4.198736811711,8.281245730122
    ));
#919 = CARTESIAN_POINT('',(2.664140828038,-4.231884924093,8.387728967066
    ));
#920 = CARTESIAN_POINT('',(2.610168717215,-4.265667308036,8.487969608957
    ));
#921 = CARTESIAN_POINT('',(2.553658178806,-4.299900716885,8.583049893372
    ));
#922 = CARTESIAN_POINT('',(2.494602268712,-4.33444754143,8.673739637806)
  );
#923 = CARTESIAN_POINT('',(2.43293225316,-4.369201345177,8.760670923473)
  );
#924 = CARTESIAN_POINT('',(2.368491181003,-4.404091935949,8.844262378905
    ));
#925 = CARTESIAN_POINT('',(2.231110170272,-4.475304864282,9.008487593837
    ));
#926 = CARTESIAN_POINT('',(2.157997165564,-4.511604573145,9.088833478163
    ));
#927 = CARTESIAN_POINT('',(2.081432041285,-4.547899812048,9.166362589981
    ));
#928 = CARTESIAN_POINT('',(2.001073581958,-4.584117757985,9.241328462496
    ));
#929 = CARTESIAN_POINT('',(1.916519094862,-4.620178669462,9.31388830248)
  );
#930 = CARTESIAN_POINT('',(1.827262545663,-4.655991172234,9.384132091775
    ));
#931 = CARTESIAN_POINT('',(1.732576933562,-4.691443849811,9.452086811957
    ));
#932 = CARTESIAN_POINT('',(1.562740877138,-4.750065049549,9.562134259716
    ));
#933 = CARTESIAN_POINT('',(1.491187464249,-4.773483937483,9.605456091715
    ));
#934 = CARTESIAN_POINT('',(1.41631122787,-4.796621491686,9.647676258032)
  );
#935 = CARTESIAN_POINT('',(1.337625495882,-4.819414998652,9.688741899627
    ));
#936 = CARTESIAN_POINT('',(1.25460162925,-4.841776578173,9.72855335818)
  );
#937 = CARTESIAN_POINT('',(1.166607887443,-4.863586756915,9.766957959946
    ));
#938 = CARTESIAN_POINT('',(1.072691893435,-4.884672379612,9.803716553812
    ));
#939 = CARTESIAN_POINT('',(0.863056506902,-4.926183973113,9.875447667714
    ));
#940 = CARTESIAN_POINT('',(0.747470324657,-4.946240042418,9.909739110502
    ));
#941 = CARTESIAN_POINT('',(0.618870791753,-4.965402069416,9.942208338213
    ));
#942 = CARTESIAN_POINT('',(0.473774115993,-4.982896944233,9.971603607223
    ));
#943 = CARTESIAN_POINT('',(0.310774387907,-4.996807797561,9.994682605759
    ));
#944 = CARTESIAN_POINT('',(0.131640185009,-5.004559212373,
    10.007569748198));
#945 = CARTESIAN_POINT('',(-5.882921543558E-02,-5.002983434565,
    10.004992815516));
#946 = CARTESIAN_POINT('',(-0.324843114259,-4.990140935284,9.98354389194
    ));
#947 = CARTESIAN_POINT('',(-0.40414081057,-4.984703807386,9.974452775049
    ));
#948 = CARTESIAN_POINT('',(-0.479190387705,-4.97815763099,9.963483265143
    ));
#949 = CARTESIAN_POINT('',(-0.55024497372,-4.970738973704,9.951016149821
    ));
#950 = CARTESIAN_POINT('',(-0.617618447831,-4.96263483114,9.93735097447)
  );
#951 = CARTESIAN_POINT('',(-0.681679281879,-4.953982340883,
    9.922705417612));
#952 = CARTESIAN_POINT('',(-0.742844381782,-4.944868496454,
    9.907214666246));
#953 = CARTESIAN_POINT('',(-0.89425887796,-4.920275413216,9.865230206953
    ));
#954 = CARTESIAN_POINT('',(-0.980413571962,-4.904244229242,
    9.837690542575));
#955 = CARTESIAN_POINT('',(-1.061364796953,-4.887485684241,
    9.808692738457));
#956 = CARTESIAN_POINT('',(-1.137907612712,-4.870165029943,
    9.778482268191));
#957 = CARTESIAN_POINT('',(-1.21058705803,-4.852397115759,9.747224033952
    ));
#958 = CARTESIAN_POINT('',(-1.279864480704,-4.834266305104,
    9.715033590192));
#959 = CARTESIAN_POINT('',(-1.346167492375,-4.815832587221,
    9.681984695669));
#960 = CARTESIAN_POINT('',(-1.607391489276,-4.739060773654,
    9.542909608719));
#961 = CARTESIAN_POINT('',(-1.77865361324,-4.678633442133,9.430120165914
    ));
#962 = CARTESIAN_POINT('',(-1.933952145282,-4.616960738322,
    9.310775369392));
#963 = CARTESIAN_POINT('',(-2.075139681698,-4.554528242767,9.18465967715
    ));
#964 = CARTESIAN_POINT('',(-2.205497144667,-4.491863579433,
    9.051654937611));
#965 = CARTESIAN_POINT('',(-2.325878523088,-4.429304084616,
    8.910392680119));
#966 = CARTESIAN_POINT('',(-2.437686759885,-4.367174670776,
    8.759504855394));
#967 = CARTESIAN_POINT('',(-2.586964452809,-4.27906560652,8.521490124153
    ));
#968 = CARTESIAN_POINT('',(-2.630807558712,-4.25244787947,8.446343138163
    ));
#969 = CARTESIAN_POINT('',(-2.673094947157,-4.226083073486,
    8.368102896166));
#970 = CARTESIAN_POINT('',(-2.713840647333,-4.200028846644,
    8.286343647504));
#971 = CARTESIAN_POINT('',(-2.752989201879,-4.174388406769,
    8.200427141678));
#972 = CARTESIAN_POINT('',(-2.79043596625,-4.149301682741,8.109597458347
    ));
#973 = CARTESIAN_POINT('',(-2.826012365668,-4.12496147105,8.012817141565
    ));
#974 = CARTESIAN_POINT('',(-2.886369102671,-4.082885857641,
    7.822698129527));
#975 = CARTESIAN_POINT('',(-2.911138502545,-4.065316877034,
    7.734670877446));
#976 = CARTESIAN_POINT('',(-2.934432612385,-4.048556164558,
    7.640325052603));
#977 = CARTESIAN_POINT('',(-2.956225514391,-4.032649401285,
    7.536978266898));
#978 = CARTESIAN_POINT('',(-2.975570100369,-4.018324198795,
    7.422216329009));
#979 = CARTESIAN_POINT('',(-2.991038525346,-4.006720682295,
    7.294813051433));
#980 = CARTESIAN_POINT('',(-3.000000650192,-3.99999957059,7.153337133977
    ));
#981 = CARTESIAN_POINT('',(-3.,-4.,7.));
#982 = PCURVE('',#31,#983);
#983 = DEFINITIONAL_REPRESENTATION('',(#984),#1064);
#984 = B_SPLINE_CURVE_WITH_KNOTS('',8,(#985,#986,#987,#988,#989,#990,
    #991,#992,#993,#994,#995,#996,#997,#998,#999,#1000,#1001,#1002,#1003
    ,#1004,#1005,#1006,#1007,#1008,#1009,#1010,#1011,#1012,#1013,#1014,
    #1015,#1016,#1017,#1018,#1019,#1020,#1021,#1022,#1023,#1024,#1025,
    #1026,#1027,#1028,#1029,#1030,#1031,#1032,#1033,#1034,#1035,#1036,
    #1037,#1038,#1039,#1040,#1041,#1042,#1043,#1044,#1045,#1046,#1047,
    #1048,#1049,#1050,#1051,#1052,#1053,#1054,#1055,#1056,#1057,#1058,
    #1059,#1060,#1061,#1062,#1063),.UNSPECIFIED.,.F.,.F.,(9,7,7,7,7,7,7,
    7,7,7,7,9),(0.,4.994101290091E-02,0.107279853901,0.228123506042,
    0.35332383519,0.438122466479,0.528489542067,0.57000007514,
    0.635512658053,0.838840170371,0.927891572926,1.),.UNSPECIFIED.);
#985 = CARTESIAN_POINT('',(5.355890089186,7.));
#986 = CARTESIAN_POINT('',(5.355890240093,7.099280166281));
#987 = CARTESIAN_POINT('',(5.354950725985,7.196000502902));
#988 = CARTESIAN_POINT('',(5.353159943872,7.287059150689));
#989 = CARTESIAN_POINT('',(5.350753702729,7.371711740313));
#990 = CARTESIAN_POINT('',(5.347928364282,7.4501228814));
#991 = CARTESIAN_POINT('',(5.34480187633,7.523003434059));
#992 = CARTESIAN_POINT('',(5.341428043005,7.591643377467));
#993 = CARTESIAN_POINT('',(5.333568706706,7.733434409205));
#994 = CARTESIAN_POINT('',(5.329070832742,7.804379172634));
#995 = CARTESIAN_POINT('',(5.324336378098,7.871491098987));
#996 = CARTESIAN_POINT('',(5.319404611029,7.935378899239));
#997 = CARTESIAN_POINT('',(5.314302069226,7.996459982784));
#998 = CARTESIAN_POINT('',(5.309047587425,8.055083727402));
#999 = CARTESIAN_POINT('',(5.303653727856,8.11157131324));
#1000 = CARTESIAN_POINT('',(5.286471989322,8.281245730122));
#1001 = CARTESIAN_POINT('',(5.274245523348,8.387728967066));
#1002 = CARTESIAN_POINT('',(5.261512987827,8.487969608957));
#1003 = CARTESIAN_POINT('',(5.248301725785,8.583049893372));
#1004 = CARTESIAN_POINT('',(5.234621433052,8.673739637806));
#1005 = CARTESIAN_POINT('',(5.220467032971,8.760670923473));
#1006 = CARTESIAN_POINT('',(5.205813344491,8.844262378905));
#1007 = CARTESIAN_POINT('',(5.17486514706,9.008487593837));
#1008 = CARTESIAN_POINT('',(5.158541836814,9.088833478163));
#1009 = CARTESIAN_POINT('',(5.141600295803,9.166362589981));
#1010 = CARTESIAN_POINT('',(5.123978397696,9.241328462496));
#1011 = CARTESIAN_POINT('',(5.105601790703,9.31388830248));
#1012 = CARTESIAN_POINT('',(5.08637565217,9.384132091775));
#1013 = CARTESIAN_POINT('',(5.066161314713,9.452086811957));
#1014 = CARTESIAN_POINT('',(5.030227713964,9.562134259716));
#1015 = CARTESIAN_POINT('',(5.015171783573,9.605456091715));
#1016 = CARTESIAN_POINT('',(4.999501806935,9.647676258032));
#1017 = CARTESIAN_POINT('',(4.983123017789,9.688741899627));
#1018 = CARTESIAN_POINT('',(4.965932923574,9.72855335818));
#1019 = CARTESIAN_POINT('',(4.947808845053,9.766957959946));
#1020 = CARTESIAN_POINT('',(4.928564121396,9.803716553812));
#1021 = CARTESIAN_POINT('',(4.885822972967,9.875447667714));
#1022 = CARTESIAN_POINT('',(4.862366994145,9.909739110502));
#1023 = CARTESIAN_POINT('',(4.83637554557,9.942208338213));
#1024 = CARTESIAN_POINT('',(4.80717366646,9.971603607223));
#1025 = CARTESIAN_POINT('',(4.774496192457,9.994682605759));
#1026 = CARTESIAN_POINT('',(4.738711617728,10.007569748198));
#1027 = CARTESIAN_POINT('',(4.700646890102,10.004992815516));
#1028 = CARTESIAN_POINT('',(4.647382166408,9.98354389194));
#1029 = CARTESIAN_POINT('',(4.63148858481,9.974452775049));
#1030 = CARTESIAN_POINT('',(4.616425849856,9.963483265143));
#1031 = CARTESIAN_POINT('',(4.602141547195,9.951016149821));
#1032 = CARTESIAN_POINT('',(4.588572713057,9.93735097447));
#1033 = CARTESIAN_POINT('',(4.575646238295,9.922705417612));
#1034 = CARTESIAN_POINT('',(4.563279272431,9.907214666246));
#1035 = CARTESIAN_POINT('',(4.532599530184,9.865230206953));
#1036 = CARTESIAN_POINT('',(4.515077359177,9.837690542575));
#1037 = CARTESIAN_POINT('',(4.498549272629,9.808692738457));
#1038 = CARTESIAN_POINT('',(4.482858570357,9.778482268191));
#1039 = CARTESIAN_POINT('',(4.46789868063,9.747224033952));
#1040 = CARTESIAN_POINT('',(4.453579535022,9.715033590192));
#1041 = CARTESIAN_POINT('',(4.439817331541,9.681984695669));
#1042 = CARTESIAN_POINT('',(4.385363020828,9.542909608719));
#1043 = CARTESIAN_POINT('',(4.349092503599,9.430120165914));
#1044 = CARTESIAN_POINT('',(4.31571022284,9.310775369392));
#1045 = CARTESIAN_POINT('',(4.284878912123,9.18465967715));
#1046 = CARTESIAN_POINT('',(4.255975931125,9.051654937611));
#1047 = CARTESIAN_POINT('',(4.228862744367,8.910392680119));
#1048 = CARTESIAN_POINT('',(4.203288905194,8.759504855394));
#1049 = CARTESIAN_POINT('',(4.168620743338,8.521490124153));
#1050 = CARTESIAN_POINT('',(4.15836342166,8.446343138163));
#1051 = CARTESIAN_POINT('',(4.148397974481,8.368102896166));
#1052 = CARTESIAN_POINT('',(4.138726468965,8.286343647504));
#1053 = CARTESIAN_POINT('',(4.129367942468,8.200427141678));
#1054 = CARTESIAN_POINT('',(4.120354005738,8.109597458347));
#1055 = CARTESIAN_POINT('',(4.111733140153,8.012817141565));
#1056 = CARTESIAN_POINT('',(4.097018122693,7.822698129527));
#1057 = CARTESIAN_POINT('',(4.090944804352,7.734670877446));
#1058 = CARTESIAN_POINT('',(4.085205532662,7.640325052603));
#1059 = CARTESIAN_POINT('',(4.079809666594,7.536978266898));
#1060 = CARTESIAN_POINT('',(4.074995576295,7.422216329009));
#1061 = CARTESIAN_POINT('',(4.071128185171,7.294813051433));
#1062 = CARTESIAN_POINT('',(4.068887716626,7.153337133977));
#1063 = CARTESIAN_POINT('',(4.068887871591,7.));
#1064 = ( GEOMETRIC_REPRESENTATION_CONTEXT(2) 
PARAMETRIC_REPRESENTATION_CONTEXT() REPRESENTATION_CONTEXT('2D SPACE',''
  ) );
#1065 = PCURVE('',#805,#1066);
#1066 = DEFINITIONAL_REPRESENTATION('',(#1067),#1147);
#1067 = B_SPLINE_CURVE_WITH_KNOTS('',8,(#1068,#1069,#1070,#1071,#1072,
    #1073,#1074,#1075,#1076,#1077,#1078,#1079,#1080,#1081,#1082,#1083,
    #1084,#1085,#1086,#1087,#1088,#1089,#1090,#1091,#1092,#1093,#1094,
    #1095,#1096,#1097,#1098,#1099,#1100,#1101,#1102,#1103,#1104,#1105,
    #1106,#1107,#1108,#1109,#1110,#1111,#1112,#1113,#1114,#1115,#1116,
    #1117,#1118,#1119,#1120,#1121,#1122,#1123,#1124,#1125,#1126,#1127,
    #1128,#1129,#1130,#1131,#1132,#1133,#1134,#1135,#1136,#1137,#1138,
    #1139,#1140,#1141,#1142,#1143,#1144,#1145,#1146),.UNSPECIFIED.,.F.,
  .F.,(9,7,7,7,7,7,7,7,7,7,7,9),(0.,4.994101290091E-02,0.107279853901,
    0.228123506042,0.35332383519,0.438122466479,0.528489542067,
    0.57000007514,0.635512658053,0.838840170371,0.927891572926,1.),
  .UNSPECIFIED.);
#1068 = CARTESIAN_POINT('',(0.,10.999999999932));
#1069 = CARTESIAN_POINT('',(3.309346846897E-02,10.999999604363));
#1070 = CARTESIAN_POINT('',(6.533314283015E-02,11.002817812975));
#1071 = CARTESIAN_POINT('',(9.574243540497E-02,11.008191164155));
#1072 = CARTESIAN_POINT('',(0.124111648153,11.015388026546));
#1073 = CARTESIAN_POINT('',(0.150501537383,11.023797915239));
#1074 = CARTESIAN_POINT('',(0.175140791929,11.033056065941));
#1075 = CARTESIAN_POINT('',(0.198460860868,11.042993455963));
#1076 = CARTESIAN_POINT('',(0.246902792036,11.065997949762));
#1077 = CARTESIAN_POINT('',(0.27131269323,11.079081575315));
#1078 = CARTESIAN_POINT('',(0.294577312134,11.092755425382));
#1079 = CARTESIAN_POINT('',(0.316898925345,11.106888304866));
#1080 = CARTESIAN_POINT('',(0.338415847611,11.121389126422));
#1081 = CARTESIAN_POINT('',(0.359244315685,11.136190909369));
#1082 = CARTESIAN_POINT('',(0.379492452718,11.1512453868));
#1083 = CARTESIAN_POINT('',(0.440878419399,11.19873681171));
#1084 = CARTESIAN_POINT('',(0.480238045298,11.231884924093));
#1085 = CARTESIAN_POINT('',(0.518126140763,11.265667308036));
#1086 = CARTESIAN_POINT('',(0.554930890341,11.299900716885));
#1087 = CARTESIAN_POINT('',(0.590945383317,11.33444754143));
#1088 = CARTESIAN_POINT('',(0.626427740129,11.369201345177));
#1089 = CARTESIAN_POINT('',(0.661581618195,11.404091935949));
#1090 = CARTESIAN_POINT('',(0.732951814728,11.475304864282));
#1091 = CARTESIAN_POINT('',(0.769131860204,11.511604573145));
#1092 = CARTESIAN_POINT('',(0.805401359029,11.547899812048));
#1093 = CARTESIAN_POINT('',(0.841971797258,11.584117757984));
#1094 = CARTESIAN_POINT('',(0.879046467687,11.620178669462));
#1095 = CARTESIAN_POINT('',(0.916845789823,11.655991172234));
#1096 = CARTESIAN_POINT('',(0.955651426793,11.691443849811));
#1097 = CARTESIAN_POINT('',(1.023108600619,11.750065049549));
#1098 = CARTESIAN_POINT('',(1.050978615937,11.773483937483));
#1099 = CARTESIAN_POINT('',(1.079607123255,11.796621491686));
#1100 = CARTESIAN_POINT('',(1.109160947919,11.819414998652));
#1101 = CARTESIAN_POINT('',(1.139816229589,11.841776578173));
#1102 = CARTESIAN_POINT('',(1.171780634703,11.863586756915));
#1103 = CARTESIAN_POINT('',(1.205367414291,11.884672379611));
#1104 = CARTESIAN_POINT('',(1.279223252096,11.926183973113));
#1105 = CARTESIAN_POINT('',(1.319376750139,11.946240042418));
#1106 = CARTESIAN_POINT('',(1.363527745985,11.965402069416));
#1107 = CARTESIAN_POINT('',(1.412737293094,11.982896944232));
#1108 = CARTESIAN_POINT('',(1.467422351873,11.996807797562));
#1109 = CARTESIAN_POINT('',(1.526942597916,12.004559212373));
#1110 = CARTESIAN_POINT('',(1.590295647473,12.002983434565));
#1111 = CARTESIAN_POINT('',(1.679254632203,11.990140935284));
#1112 = CARTESIAN_POINT('',(1.705845485175,11.984703807386));
#1113 = CARTESIAN_POINT('',(1.731108245604,11.97815763099));
#1114 = CARTESIAN_POINT('',(1.755136563393,11.970738973704));
#1115 = CARTESIAN_POINT('',(1.778037208533,11.962634831139));
#1116 = CARTESIAN_POINT('',(1.79993176459,11.953982340883));
#1117 = CARTESIAN_POINT('',(1.820958322183,11.944868496454));
#1118 = CARTESIAN_POINT('',(1.87333413531,11.920275413216));
#1119 = CARTESIAN_POINT('',(1.903461482088,11.904244229242));
#1120 = CARTESIAN_POINT('',(1.932096251161,11.887485684241));
#1121 = CARTESIAN_POINT('',(1.95949965919,11.870165029943));
#1122 = CARTESIAN_POINT('',(1.985849218735,11.852397115759));
#1123 = CARTESIAN_POINT('',(2.01129584263,11.834266305104));
#1124 = CARTESIAN_POINT('',(2.035981935171,11.815832587221));
#1125 = CARTESIAN_POINT('',(2.134628094004,11.739060773654));
#1126 = CARTESIAN_POINT('',(2.202688675368,11.678633442133));
#1127 = CARTESIAN_POINT('',(2.267700242073,11.616960738322));
#1128 = CARTESIAN_POINT('',(2.33046688269,11.554528242767));
#1129 = CARTESIAN_POINT('',(2.392264596712,11.491863579433));
#1130 = CARTESIAN_POINT('',(2.453884493392,11.429304084616));
#1131 = CARTESIAN_POINT('',(2.516298012717,11.367174670776));
#1132 = CARTESIAN_POINT('',(2.609949262234,11.27906560652));
#1133 = CARTESIAN_POINT('',(2.638934474655,11.25244787947));
#1134 = CARTESIAN_POINT('',(2.668554525654,11.226083073486));
#1135 = CARTESIAN_POINT('',(2.698968563655,11.200028846644));
#1136 = CARTESIAN_POINT('',(2.730400454728,11.174388406769));
#1137 = CARTESIAN_POINT('',(2.763109417839,11.149301682741));
#1138 = CARTESIAN_POINT('',(2.797445816024,11.12496147105));
#1139 = CARTESIAN_POINT('',(2.86393581705,11.082885857641));
#1140 = CARTESIAN_POINT('',(2.894400217732,11.065316877034));
#1141 = CARTESIAN_POINT('',(2.926766635423,11.048556164557));
#1142 = CARTESIAN_POINT('',(2.961922133928,11.032649401286));
#1143 = CARTESIAN_POINT('',(3.000649179028,11.018324198794));
#1144 = CARTESIAN_POINT('',(3.043321935302,11.006720682295));
#1145 = CARTESIAN_POINT('',(3.090480233983,10.99999957059));
#1146 = CARTESIAN_POINT('',(3.14159265359,11.));
#1147 = ( GEOMETRIC_REPRESENTATION_CONTEXT(2) 
PARAMETRIC_REPRESENTATION_CONTEXT() REPRESENTATION_CONTEXT('2D SPACE',''
  ) );
#1148 = ADVANCED_FACE('',(#1149),#43,.T.);
#1149 = FACE_BOUND('',#1150,.T.);
#1150 = EDGE_LOOP('',(#1151));
#1151 = ORIENTED_EDGE('',*,*,#21,.T.);
#1152 = ADVANCED_FACE('',(#1153),#93,.F.);
#1153 = FACE_BOUND('',#1154,.T.);
#1154 = EDGE_LOOP('',(#1155));
#1155 = ORIENTED_EDGE('',*,*,#78,.F.);
#1156 = ADVANCED_FACE('',(#1157),#446,.T.);
#1157 = FACE_BOUND('',#1158,.T.);
#1158 = EDGE_LOOP('',(#1159,#1182,#1183,#1184));
#1159 = ORIENTED_EDGE('',*,*,#1160,.T.);
#1160 = EDGE_CURVE('',#1161,#109,#1163,.T.);
#1161 = VERTEX_POINT('',#1162);
#1162 = CARTESIAN_POINT('',(3.,7.,7.));
#1163 = SEAM_CURVE('',#1164,(#1168,#1175),.PCURVE_S1.);
#1164 = LINE('',#1165,#1166);
#1165 = CARTESIAN_POINT('',(3.,7.,7.));
#1166 = VECTOR('',#1167,1.);
#1167 = DIRECTION('',(0.,-1.,0.));
#1168 = PCURVE('',#446,#1169);
#1169 = DEFINITIONAL_REPRESENTATION('',(#1170),#1174);
#1170 = LINE('',#1171,#1172);
#1171 = CARTESIAN_POINT('',(6.28318530718,0.));
#1172 = VECTOR('',#1173,1.);
#1173 = DIRECTION('',(0.,1.));
#1174 = ( GEOMETRIC_REPRESENTATION_CONTEXT(2) 
PARAMETRIC_REPRESENTATION_CONTEXT() REPRESENTATION_CONTEXT('2D SPACE',''
  ) );
#1175 = PCURVE('',#446,#1176);
#1176 = DEFINITIONAL_REPRESENTATION('',(#1177),#1181);
#1177 = LINE('',#1178,#1179);
#1178 = CARTESIAN_POINT('',(0.,0.));
#1179 = VECTOR('',#1180,1.);
#1180 = DIRECTION('',(0.,1.));
#1181 = ( GEOMETRIC_REPRESENTATION_CONTEXT(2) 
PARAMETRIC_REPRESENTATION_CONTEXT() REPRESENTATION_CONTEXT('2D SPACE',''
  ) );
#1182 = ORIENTED_EDGE('',*,*,#108,.T.);
#1183 = ORIENTED_EDGE('',*,*,#1160,.F.);
#1184 = ORIENTED_EDGE('',*,*,#1185,.T.);
#1185 = EDGE_CURVE('',#1161,#1161,#1186,.T.);
#1186 = SURFACE_CURVE('',#1187,(#1192,#1199),.PCURVE_S1.);
#1187 = CIRCLE('',#1188,3.);
#1188 = AXIS2_PLACEMENT_3D('',#1189,#1190,#1191);
#1189 = CARTESIAN_POINT('',(0.,7.,7.));
#1190 = DIRECTION('',(0.,-1.,0.));
#1191 = DIRECTION('',(1.,0.,0.));
#1192 = PCURVE('',#446,#1193);
#1193 = DEFINITIONAL_REPRESENTATION('',(#1194),#1198);
#1194 = LINE('',#1195,#1196);
#1195 = CARTESIAN_POINT('',(0.,0.));
#1196 = VECTOR('',#1197,1.);
#1197 = DIRECTION('',(1.,0.));
#1198 = ( GEOMETRIC_REPRESENTATION_CONTEXT(2) 
PARAMETRIC_REPRESENTATION_CONTEXT() REPRESENTATION_CONTEXT('2D SPACE',''
  ) );
#1199 = PCURVE('',#1200,#1205);
#1200 = PLANE('',#1201);
#1201 = AXIS2_PLACEMENT_3D('',#1202,#1203,#1204);
#1202 = CARTESIAN_POINT('',(0.,7.,7.));
#1203 = DIRECTION('',(0.,-1.,0.));
#1204 = DIRECTION('',(1.,0.,0.));
#1205 = DEFINITIONAL_REPRESENTATION('',(#1206),#1210);
#1206 = CIRCLE('',#1207,3.);
#1207 = AXIS2_PLACEMENT_2D('',#1208,#1209);
#1208 = CARTESIAN_POINT('',(0.,0.));
#1209 = DIRECTION('',(1.,0.));
#1210 = ( GEOMETRIC_REPRESENTATION_CONTEXT(2) 
PARAMETRIC_REPRESENTATION_CONTEXT() REPRESENTATION_CONTEXT('2D SPACE',''
  ) );
#1211 = ADVANCED_FACE('',(#1212),#805,.T.);
#1212 = FACE_BOUND('',#1213,.T.);
#1213 = EDGE_LOOP('',(#1214,#1237,#1264,#1265,#1266));
#1214 = ORIENTED_EDGE('',*,*,#1215,.T.);
#1215 = EDGE_CURVE('',#624,#1216,#1218,.T.);
#1216 = VERTEX_POINT('',#1217);
#1217 = CARTESIAN_POINT('',(3.,-8.,7.));
#1218 = SEAM_CURVE('',#1219,(#1223,#1230),.PCURVE_S1.);
#1219 = LINE('',#1220,#1221);
#1220 = CARTESIAN_POINT('',(3.,7.,7.));
#1221 = VECTOR('',#1222,1.);
#1222 = DIRECTION('',(0.,-1.,0.));
#1223 = PCURVE('',#805,#1224);
#1224 = DEFINITIONAL_REPRESENTATION('',(#1225),#1229);
#1225 = LINE('',#1226,#1227);
#1226 = CARTESIAN_POINT('',(6.28318530718,0.));
#1227 = VECTOR('',#1228,1.);
#1228 = DIRECTION('',(0.,1.));
#1229 = ( GEOMETRIC_REPRESENTATION_CONTEXT(2) 
PARAMETRIC_REPRESENTATION_CONTEXT() REPRESENTATION_CONTEXT('2D SPACE',''
  ) );
#1230 = PCURVE('',#805,#1231);
#1231 = DEFINITIONAL_REPRESENTATION('',(#1232),#1236);
#1232 = LINE('',#1233,#1234);
#1233 = CARTESIAN_POINT('',(0.,0.));
#1234 = VECTOR('',#1235,1.);
#1235 = DIRECTION('',(0.,1.));
#1236 = ( GEOMETRIC_REPRESENTATION_CONTEXT(2) 
PARAMETRIC_REPRESENTATION_CONTEXT() REPRESENTATION_CONTEXT('2D SPACE',''
  ) );
#1237 = ORIENTED_EDGE('',*,*,#1238,.F.);
#1238 = EDGE_CURVE('',#1216,#1216,#1239,.T.);
#1239 = SURFACE_CURVE('',#1240,(#1245,#1252),.PCURVE_S1.);
#1240 = CIRCLE('',#1241,3.);
#1241 = AXIS2_PLACEMENT_3D('',#1242,#1243,#1244);
#1242 = CARTESIAN_POINT('',(0.,-8.,7.));
#1243 = DIRECTION('',(0.,-1.,0.));
#1244 = DIRECTION('',(1.,0.,0.));
#1245 = PCURVE('',#805,#1246);
#1246 = DEFINITIONAL_REPRESENTATION('',(#1247),#1251);
#1247 = LINE('',#1248,#1249);
#1248 = CARTESIAN_POINT('',(0.,15.));
#1249 = VECTOR('',#1250,1.);
#1250 = DIRECTION('',(1.,0.));
#1251 = ( GEOMETRIC_REPRESENTATION_CONTEXT(2) 
PARAMETRIC_REPRESENTATION_CONTEXT() REPRESENTATION_CONTEXT('2D SPACE',''
  ) );
#1252 = PCURVE('',#1253,#1258);
#1253 = PLANE('',#1254);
#1254 = AXIS2_PLACEMENT_3D('',#1255,#1256,#1257);
#1255 = CARTESIAN_POINT('',(0.,-8.,7.));
#1256 = DIRECTION('',(0.,-1.,0.));
#1257 = DIRECTION('',(1.,0.,0.));
#1258 = DEFINITIONAL_REPRESENTATION('',(#1259),#1263);
#1259 = CIRCLE('',#1260,3.);
#1260 = AXIS2_PLACEMENT_2D('',#1261,#1262);
#1261 = CARTESIAN_POINT('',(0.,0.));
#1262 = DIRECTION('',(1.,0.));
#1263 = ( GEOMETRIC_REPRESENTATION_CONTEXT(2) 
PARAMETRIC_REPRESENTATION_CONTEXT() REPRESENTATION_CONTEXT('2D SPACE',''
  ) );
#1264 = ORIENTED_EDGE('',*,*,#1215,.F.);
#1265 = ORIENTED_EDGE('',*,*,#900,.T.);
#1266 = ORIENTED_EDGE('',*,*,#621,.T.);
#1267 = ADVANCED_FACE('',(#1268),#1200,.F.);
#1268 = FACE_BOUND('',#1269,.T.);
#1269 = EDGE_LOOP('',(#1270));
#1270 = ORIENTED_EDGE('',*,*,#1185,.F.);
#1271 = ADVANCED_FACE('',(#1272),#1253,.T.);
#1272 = FACE_BOUND('',#1273,.T.);
#1273 = EDGE_LOOP('',(#1274));
#1274 = ORIENTED_EDGE('',*,*,#1238,.T.);
#1275 = ( GEOMETRIC_REPRESENTATION_CONTEXT(3) 
GLOBAL_UNCERTAINTY_ASSIGNED_CONTEXT((#1279)) 
GLOBAL_UNIT_ASSIGNED_CONTEXT((#1276,#1277,#1278)) REPRESENTATION_CONTEXT
('Context #1','3D Context with UNIT and UNCERTAINTY') );
#1276 = ( LENGTH_UNIT() NAMED_UNIT(*) SI_UNIT(.MILLI.,.METRE.) );
#1277 = ( NAMED_UNIT(*) PLANE_ANGLE_UNIT() SI_UNIT($,.RADIAN.) );
#1278 = ( NAMED_UNIT(*) SI_UNIT($,.STERADIAN.) SOLID_ANGLE_UNIT() );
#1279 = UNCERTAINTY_MEASURE_WITH_UNIT(LENGTH_MEASURE(2.E-04),#1276,
  'distance_accuracy_value','confusion accuracy');
#1280 = PRODUCT_RELATED_PRODUCT_CATEGORY('part',$,(#7));
ENDSEC;
END-ISO-10303-21;
