ISO-10303-21;
HEADER;
FILE_DESCRIPTION(('Open CASCADE Model'),'2;1');
FILE_NAME('Open CASCADE Shape Model','2026-07-11T20:16:05',('Author'),(
    'Open CASCADE'),'Open CASCADE STEP processor 8.0','Open CASCADE 8.0'
  ,'Unknown');
FILE_SCHEMA(('AUTOMOTIVE_DESIGN { 1 0 10303 214 1 1 1 1 }'));
ENDSEC;
DATA;
#1 = APPLICATION_PROTOCOL_DEFINITION('international standard',
  'automotive_design',2000,#2);
#2 = APPLICATION_CONTEXT(
  'core data for automotive mechanical design processes');
#3 = SHAPE_DEFINITION_REPRESENTATION(#4,#10);
#4 = PRODUCT_DEFINITION_SHAPE('','',#5);
#5 = PRODUCT_DEFINITION('design','',#6,#9);
#6 = PRODUCT_DEFINITION_FORMATION('','',#7);
#7 = PRODUCT('Open CASCADE STEP translator 8.0 1',
  'Open CASCADE STEP translator 8.0 1','',(#8));
#8 = PRODUCT_CONTEXT('',#2,'mechanical');
#9 = PRODUCT_DEFINITION_CONTEXT('part definition',#2,'design');
#10 = MANIFOLD_SURFACE_SHAPE_REPRESENTATION('',(#11,#15),#236);
#11 = AXIS2_PLACEMENT_3D('',#12,#13,#14);
#12 = CARTESIAN_POINT('',(0.,0.,0.));
#13 = DIRECTION('',(0.,0.,1.));
#14 = DIRECTION('',(1.,0.,-0.));
#15 = SHELL_BASED_SURFACE_MODEL('',(#16));
#16 = OPEN_SHELL('',(#17,#147,#201));
#17 = ADVANCED_FACE('',(#18),#33,.T.);
#18 = FACE_BOUND('',#19,.T.);
#19 = EDGE_LOOP('',(#20,#78,#117,#133));
#20 = ORIENTED_EDGE('',*,*,#21,.T.);
#21 = EDGE_CURVE('',#22,#24,#26,.T.);
#22 = VERTEX_POINT('',#23);
#23 = CARTESIAN_POINT('',(-514.0541,6.0221,-500.));
#24 = VERTEX_POINT('',#25);
#25 = CARTESIAN_POINT('',(-21.08109,-603.9329,-500.));
#26 = SURFACE_CURVE('',#27,(#32,#55),.PCURVE_S1.);
#27 = B_SPLINE_CURVE_WITH_KNOTS('',3,(#28,#29,#30,#31),.UNSPECIFIED.,.F.
  ,.F.,(4,4),(0.,1.),.PIECEWISE_BEZIER_KNOTS.);
#28 = CARTESIAN_POINT('',(-514.0541,6.0221,-500.));
#29 = CARTESIAN_POINT('',(-403.7838,-238.30326,-439.9777));
#30 = CARTESIAN_POINT('',(-239.4594,-441.6216,-439.9777));
#31 = CARTESIAN_POINT('',(-21.08109,-603.9329,-500.));
#32 = PCURVE('',#33,#50);
#33 = B_SPLINE_SURFACE_WITH_KNOTS('',3,3,(
    (#34,#35,#36,#37)
    ,(#38,#39,#40,#41)
    ,(#42,#43,#44,#45)
    ,(#46,#47,#48,#49
    )),.UNSPECIFIED.,.F.,.F.,.F.,(4,4),(4,4),(0.,1.),(0.,1.),
  .PIECEWISE_BEZIER_KNOTS.);
#34 = CARTESIAN_POINT('',(-514.0541,6.0221,-500.));
#35 = CARTESIAN_POINT('',(-319.4595,161.7553,-500.));
#36 = CARTESIAN_POINT('',(-124.8649,317.4884,-500.));
#37 = CARTESIAN_POINT('',(69.72975,473.2216,-500.));
#38 = CARTESIAN_POINT('',(-403.7838,-238.30326,-439.9777));
#39 = CARTESIAN_POINT('',(-155.1351,-37.2798,-284.2444));
#40 = CARTESIAN_POINT('',(39.45947,118.4534,-284.2444));
#41 = CARTESIAN_POINT('',(234.0541,269.9033,-500.));
#42 = CARTESIAN_POINT('',(-239.4594,-441.6216,-439.9777));
#43 = CARTESIAN_POINT('',(9.189188,-240.59809,-284.2444));
#44 = CARTESIAN_POINT('',(203.7838,-84.8649,-284.2444));
#45 = CARTESIAN_POINT('',(398.3784,66.585,-500.));
#46 = CARTESIAN_POINT('',(-21.08109,-603.9329,-500.));
#47 = CARTESIAN_POINT('',(121.6216,-422.162,-563.26629));
#48 = CARTESIAN_POINT('',(316.2162,-266.42882,-563.26629));
#49 = CARTESIAN_POINT('',(562.7027,-136.73337,-500.));
#50 = DEFINITIONAL_REPRESENTATION('',(#51),#54);
#51 = B_SPLINE_CURVE_WITH_KNOTS('',1,(#52,#53),.UNSPECIFIED.,.F.,.F.,(2,
    2),(0.,1.),.PIECEWISE_BEZIER_KNOTS.);
#52 = CARTESIAN_POINT('',(0.,0.));
#53 = CARTESIAN_POINT('',(1.,0.));
#54 = ( GEOMETRIC_REPRESENTATION_CONTEXT(2) 
PARAMETRIC_REPRESENTATION_CONTEXT() REPRESENTATION_CONTEXT('2D SPACE',''
  ) );
#55 = PCURVE('',#56,#73);
#56 = B_SPLINE_SURFACE_WITH_KNOTS('',3,3,(
    (#57,#58,#59,#60)
    ,(#61,#62,#63,#64)
    ,(#65,#66,#67,#68)
    ,(#69,#70,#71,#72
    )),.UNSPECIFIED.,.F.,.F.,.F.,(4,4),(4,4),(0.,1.),(0.,1.),
  .PIECEWISE_BEZIER_KNOTS.);
#57 = CARTESIAN_POINT('',(-21.08109,-603.9329,-500.));
#58 = CARTESIAN_POINT('',(-17.83785,-506.5996,-743.8738));
#59 = CARTESIAN_POINT('',(-30.81058,-720.7327,-987.7476));
#60 = CARTESIAN_POINT('',(-21.08109,-603.9329,-1.2316214E+03));
#61 = CARTESIAN_POINT('',(-239.4594,-441.6216,-439.9777));
#62 = CARTESIAN_POINT('',(-310.8108,-508.7626,-683.8515));
#63 = CARTESIAN_POINT('',(-310.8108,-508.7626,-927.7253));
#64 = CARTESIAN_POINT('',(-239.4594,-441.6216,-1.1715991E+03));
#65 = CARTESIAN_POINT('',(-403.7838,-238.30326,-439.9777));
#66 = CARTESIAN_POINT('',(-475.1352,-305.4443,-683.8515));
#67 = CARTESIAN_POINT('',(-475.1352,-305.4443,-927.7253));
#68 = CARTESIAN_POINT('',(-403.7838,-238.30326,-1.1715991E+03));
#69 = CARTESIAN_POINT('',(-514.0541,6.0221,-500.));
#70 = CARTESIAN_POINT('',(-514.0541,6.0221,-743.8738));
#71 = CARTESIAN_POINT('',(-514.0541,6.0221,-987.7476));
#72 = CARTESIAN_POINT('',(-514.0541,6.0221,-1.2316214E+03));
#73 = DEFINITIONAL_REPRESENTATION('',(#74),#77);
#74 = B_SPLINE_CURVE_WITH_KNOTS('',1,(#75,#76),.UNSPECIFIED.,.F.,.F.,(2,
    2),(0.,1.),.PIECEWISE_BEZIER_KNOTS.);
#75 = CARTESIAN_POINT('',(1.,0.));
#76 = CARTESIAN_POINT('',(0.,0.));
#77 = ( GEOMETRIC_REPRESENTATION_CONTEXT(2) 
PARAMETRIC_REPRESENTATION_CONTEXT() REPRESENTATION_CONTEXT('2D SPACE',''
  ) );
#78 = ORIENTED_EDGE('',*,*,#79,.T.);
#79 = EDGE_CURVE('',#24,#80,#82,.T.);
#80 = VERTEX_POINT('',#81);
#81 = CARTESIAN_POINT('',(562.7027,-136.73337,-500.));
#82 = SURFACE_CURVE('',#83,(#88,#94),.PCURVE_S1.);
#83 = B_SPLINE_CURVE_WITH_KNOTS('',3,(#84,#85,#86,#87),.UNSPECIFIED.,.F.
  ,.F.,(4,4),(0.,1.),.PIECEWISE_BEZIER_KNOTS.);
#84 = CARTESIAN_POINT('',(-21.08109,-603.9329,-500.));
#85 = CARTESIAN_POINT('',(121.6216,-422.162,-563.26629));
#86 = CARTESIAN_POINT('',(316.2162,-266.42882,-563.26629));
#87 = CARTESIAN_POINT('',(562.7027,-136.73337,-500.));
#88 = PCURVE('',#33,#89);
#89 = DEFINITIONAL_REPRESENTATION('',(#90),#93);
#90 = B_SPLINE_CURVE_WITH_KNOTS('',1,(#91,#92),.UNSPECIFIED.,.F.,.F.,(2,
    2),(0.,1.),.PIECEWISE_BEZIER_KNOTS.);
#91 = CARTESIAN_POINT('',(1.,0.));
#92 = CARTESIAN_POINT('',(1.,1.));
#93 = ( GEOMETRIC_REPRESENTATION_CONTEXT(2) 
PARAMETRIC_REPRESENTATION_CONTEXT() REPRESENTATION_CONTEXT('2D SPACE',''
  ) );
#94 = PCURVE('',#95,#112);
#95 = B_SPLINE_SURFACE_WITH_KNOTS('',3,3,(
    (#96,#97,#98,#99)
    ,(#100,#101,#102,#103)
    ,(#104,#105,#106,#107)
    ,(#108,#109,#110,#111
    )),.UNSPECIFIED.,.F.,.F.,.F.,(4,4),(4,4),(0.,1.),(0.,1.),
  .PIECEWISE_BEZIER_KNOTS.);
#96 = CARTESIAN_POINT('',(562.7027,-136.73337,-1.2316214E+03));
#97 = CARTESIAN_POINT('',(316.2162,-266.42882,-1.2948877E+03));
#98 = CARTESIAN_POINT('',(121.6216,-422.162,-1.2948877E+03));
#99 = CARTESIAN_POINT('',(-21.08109,-603.9329,-1.2316214E+03));
#100 = CARTESIAN_POINT('',(556.2163,-136.73337,-894.1994));
#101 = CARTESIAN_POINT('',(326.9613,-261.09623,-1.0249213E+03));
#102 = CARTESIAN_POINT('',(108.6486,-422.162,-1.0304661E+03));
#103 = CARTESIAN_POINT('',(-30.81058,-720.7327,-987.7476));
#104 = CARTESIAN_POINT('',(588.6487,-136.73337,-712.5107));
#105 = CARTESIAN_POINT('',(252.1991,-237.33227,-779.833));
#106 = CARTESIAN_POINT('',(111.8917,-337.8065,-764.4217));
#107 = CARTESIAN_POINT('',(-17.83785,-506.5996,-743.8738));
#108 = CARTESIAN_POINT('',(562.7027,-136.73337,-500.));
#109 = CARTESIAN_POINT('',(316.2162,-266.42882,-563.26629));
#110 = CARTESIAN_POINT('',(121.6216,-422.162,-563.26629));
#111 = CARTESIAN_POINT('',(-21.08109,-603.9329,-500.));
#112 = DEFINITIONAL_REPRESENTATION('',(#113),#116);
#113 = B_SPLINE_CURVE_WITH_KNOTS('',1,(#114,#115),.UNSPECIFIED.,.F.,.F.,
  (2,2),(0.,1.),.PIECEWISE_BEZIER_KNOTS.);
#114 = CARTESIAN_POINT('',(1.,1.));
#115 = CARTESIAN_POINT('',(1.,0.));
#116 = ( GEOMETRIC_REPRESENTATION_CONTEXT(2) 
PARAMETRIC_REPRESENTATION_CONTEXT() REPRESENTATION_CONTEXT('2D SPACE',''
  ) );
#117 = ORIENTED_EDGE('',*,*,#118,.T.);
#118 = EDGE_CURVE('',#80,#119,#121,.T.);
#119 = VERTEX_POINT('',#120);
#120 = CARTESIAN_POINT('',(69.72975,473.2216,-500.));
#121 = SURFACE_CURVE('',#122,(#127),.PCURVE_S1.);
#122 = B_SPLINE_CURVE_WITH_KNOTS('',3,(#123,#124,#125,#126),
  .UNSPECIFIED.,.F.,.F.,(4,4),(0.,1.),.PIECEWISE_BEZIER_KNOTS.);
#123 = CARTESIAN_POINT('',(562.7027,-136.73337,-500.));
#124 = CARTESIAN_POINT('',(398.3784,66.585,-500.));
#125 = CARTESIAN_POINT('',(234.0541,269.9033,-500.));
#126 = CARTESIAN_POINT('',(69.72975,473.2216,-500.));
#127 = PCURVE('',#33,#128);
#128 = DEFINITIONAL_REPRESENTATION('',(#129),#132);
#129 = B_SPLINE_CURVE_WITH_KNOTS('',1,(#130,#131),.UNSPECIFIED.,.F.,.F.,
  (2,2),(0.,1.),.PIECEWISE_BEZIER_KNOTS.);
#130 = CARTESIAN_POINT('',(1.,1.));
#131 = CARTESIAN_POINT('',(0.,1.));
#132 = ( GEOMETRIC_REPRESENTATION_CONTEXT(2) 
PARAMETRIC_REPRESENTATION_CONTEXT() REPRESENTATION_CONTEXT('2D SPACE',''
  ) );
#133 = ORIENTED_EDGE('',*,*,#134,.T.);
#134 = EDGE_CURVE('',#119,#22,#135,.T.);
#135 = SURFACE_CURVE('',#136,(#141),.PCURVE_S1.);
#136 = B_SPLINE_CURVE_WITH_KNOTS('',3,(#137,#138,#139,#140),
  .UNSPECIFIED.,.F.,.F.,(4,4),(0.,1.),.PIECEWISE_BEZIER_KNOTS.);
#137 = CARTESIAN_POINT('',(69.72975,473.2216,-500.));
#138 = CARTESIAN_POINT('',(-124.8649,317.4884,-500.));
#139 = CARTESIAN_POINT('',(-319.4595,161.7553,-500.));
#140 = CARTESIAN_POINT('',(-514.0541,6.0221,-500.));
#141 = PCURVE('',#33,#142);
#142 = DEFINITIONAL_REPRESENTATION('',(#143),#146);
#143 = B_SPLINE_CURVE_WITH_KNOTS('',1,(#144,#145),.UNSPECIFIED.,.F.,.F.,
  (2,2),(0.,1.),.PIECEWISE_BEZIER_KNOTS.);
#144 = CARTESIAN_POINT('',(0.,1.));
#145 = CARTESIAN_POINT('',(0.,0.));
#146 = ( GEOMETRIC_REPRESENTATION_CONTEXT(2) 
PARAMETRIC_REPRESENTATION_CONTEXT() REPRESENTATION_CONTEXT('2D SPACE',''
  ) );
#147 = ADVANCED_FACE('',(#148),#56,.T.);
#148 = FACE_BOUND('',#149,.T.);
#149 = EDGE_LOOP('',(#150,#164,#180,#200));
#150 = ORIENTED_EDGE('',*,*,#151,.T.);
#151 = EDGE_CURVE('',#22,#152,#154,.T.);
#152 = VERTEX_POINT('',#153);
#153 = CARTESIAN_POINT('',(-514.0541,6.0221,-1.2316214E+03));
#154 = SURFACE_CURVE('',#155,(#158),.PCURVE_S1.);
#155 = B_SPLINE_CURVE_WITH_KNOTS('',1,(#156,#157),.UNSPECIFIED.,.F.,.F.,
  (2,2),(0.,1.),.PIECEWISE_BEZIER_KNOTS.);
#156 = CARTESIAN_POINT('',(-514.0541,6.0221,-500.));
#157 = CARTESIAN_POINT('',(-514.0541,6.0221,-1.2316214E+03));
#158 = PCURVE('',#56,#159);
#159 = DEFINITIONAL_REPRESENTATION('',(#160),#163);
#160 = B_SPLINE_CURVE_WITH_KNOTS('',1,(#161,#162),.UNSPECIFIED.,.F.,.F.,
  (2,2),(0.,1.),.PIECEWISE_BEZIER_KNOTS.);
#161 = CARTESIAN_POINT('',(1.,0.));
#162 = CARTESIAN_POINT('',(1.,1.));
#163 = ( GEOMETRIC_REPRESENTATION_CONTEXT(2) 
PARAMETRIC_REPRESENTATION_CONTEXT() REPRESENTATION_CONTEXT('2D SPACE',''
  ) );
#164 = ORIENTED_EDGE('',*,*,#165,.T.);
#165 = EDGE_CURVE('',#152,#166,#168,.T.);
#166 = VERTEX_POINT('',#167);
#167 = CARTESIAN_POINT('',(-21.08109,-603.9329,-1.2316214E+03));
#168 = SURFACE_CURVE('',#169,(#174),.PCURVE_S1.);
#169 = B_SPLINE_CURVE_WITH_KNOTS('',3,(#170,#171,#172,#173),
  .UNSPECIFIED.,.F.,.F.,(4,4),(0.,1.),.PIECEWISE_BEZIER_KNOTS.);
#170 = CARTESIAN_POINT('',(-514.0541,6.0221,-1.2316214E+03));
#171 = CARTESIAN_POINT('',(-403.7838,-238.30326,-1.1715991E+03));
#172 = CARTESIAN_POINT('',(-239.4594,-441.6216,-1.1715991E+03));
#173 = CARTESIAN_POINT('',(-21.08109,-603.9329,-1.2316214E+03));
#174 = PCURVE('',#56,#175);
#175 = DEFINITIONAL_REPRESENTATION('',(#176),#179);
#176 = B_SPLINE_CURVE_WITH_KNOTS('',1,(#177,#178),.UNSPECIFIED.,.F.,.F.,
  (2,2),(0.,1.),.PIECEWISE_BEZIER_KNOTS.);
#177 = CARTESIAN_POINT('',(1.,1.));
#178 = CARTESIAN_POINT('',(0.,1.));
#179 = ( GEOMETRIC_REPRESENTATION_CONTEXT(2) 
PARAMETRIC_REPRESENTATION_CONTEXT() REPRESENTATION_CONTEXT('2D SPACE',''
  ) );
#180 = ORIENTED_EDGE('',*,*,#181,.T.);
#181 = EDGE_CURVE('',#166,#24,#182,.T.);
#182 = SURFACE_CURVE('',#183,(#188,#194),.PCURVE_S1.);
#183 = B_SPLINE_CURVE_WITH_KNOTS('',3,(#184,#185,#186,#187),
  .UNSPECIFIED.,.F.,.F.,(4,4),(0.,1.),.PIECEWISE_BEZIER_KNOTS.);
#184 = CARTESIAN_POINT('',(-21.08109,-603.9329,-1.2316214E+03));
#185 = CARTESIAN_POINT('',(-30.81058,-720.7327,-987.7476));
#186 = CARTESIAN_POINT('',(-17.83785,-506.5996,-743.8738));
#187 = CARTESIAN_POINT('',(-21.08109,-603.9329,-500.));
#188 = PCURVE('',#56,#189);
#189 = DEFINITIONAL_REPRESENTATION('',(#190),#193);
#190 = B_SPLINE_CURVE_WITH_KNOTS('',1,(#191,#192),.UNSPECIFIED.,.F.,.F.,
  (2,2),(0.,1.),.PIECEWISE_BEZIER_KNOTS.);
#191 = CARTESIAN_POINT('',(0.,1.));
#192 = CARTESIAN_POINT('',(0.,0.));
#193 = ( GEOMETRIC_REPRESENTATION_CONTEXT(2) 
PARAMETRIC_REPRESENTATION_CONTEXT() REPRESENTATION_CONTEXT('2D SPACE',''
  ) );
#194 = PCURVE('',#95,#195);
#195 = DEFINITIONAL_REPRESENTATION('',(#196),#199);
#196 = B_SPLINE_CURVE_WITH_KNOTS('',1,(#197,#198),.UNSPECIFIED.,.F.,.F.,
  (2,2),(0.,1.),.PIECEWISE_BEZIER_KNOTS.);
#197 = CARTESIAN_POINT('',(0.,1.));
#198 = CARTESIAN_POINT('',(1.,1.));
#199 = ( GEOMETRIC_REPRESENTATION_CONTEXT(2) 
PARAMETRIC_REPRESENTATION_CONTEXT() REPRESENTATION_CONTEXT('2D SPACE',''
  ) );
#200 = ORIENTED_EDGE('',*,*,#21,.F.);
#201 = ADVANCED_FACE('',(#202),#95,.T.);
#202 = FACE_BOUND('',#203,.T.);
#203 = EDGE_LOOP('',(#204,#205,#206,#222));
#204 = ORIENTED_EDGE('',*,*,#79,.F.);
#205 = ORIENTED_EDGE('',*,*,#181,.F.);
#206 = ORIENTED_EDGE('',*,*,#207,.T.);
#207 = EDGE_CURVE('',#166,#208,#210,.T.);
#208 = VERTEX_POINT('',#209);
#209 = CARTESIAN_POINT('',(562.7027,-136.73337,-1.2316214E+03));
#210 = SURFACE_CURVE('',#211,(#216),.PCURVE_S1.);
#211 = B_SPLINE_CURVE_WITH_KNOTS('',3,(#212,#213,#214,#215),
  .UNSPECIFIED.,.F.,.F.,(4,4),(0.,1.),.PIECEWISE_BEZIER_KNOTS.);
#212 = CARTESIAN_POINT('',(-21.08109,-603.9329,-1.2316214E+03));
#213 = CARTESIAN_POINT('',(121.6216,-422.162,-1.2948877E+03));
#214 = CARTESIAN_POINT('',(316.2162,-266.42882,-1.2948877E+03));
#215 = CARTESIAN_POINT('',(562.7027,-136.73337,-1.2316214E+03));
#216 = PCURVE('',#95,#217);
#217 = DEFINITIONAL_REPRESENTATION('',(#218),#221);
#218 = B_SPLINE_CURVE_WITH_KNOTS('',1,(#219,#220),.UNSPECIFIED.,.F.,.F.,
  (2,2),(0.,1.),.PIECEWISE_BEZIER_KNOTS.);
#219 = CARTESIAN_POINT('',(0.,1.));
#220 = CARTESIAN_POINT('',(0.,0.));
#221 = ( GEOMETRIC_REPRESENTATION_CONTEXT(2) 
PARAMETRIC_REPRESENTATION_CONTEXT() REPRESENTATION_CONTEXT('2D SPACE',''
  ) );
#222 = ORIENTED_EDGE('',*,*,#223,.T.);
#223 = EDGE_CURVE('',#208,#80,#224,.T.);
#224 = SURFACE_CURVE('',#225,(#230),.PCURVE_S1.);
#225 = B_SPLINE_CURVE_WITH_KNOTS('',3,(#226,#227,#228,#229),
  .UNSPECIFIED.,.F.,.F.,(4,4),(0.,1.),.PIECEWISE_BEZIER_KNOTS.);
#226 = CARTESIAN_POINT('',(562.7027,-136.73337,-1.2316214E+03));
#227 = CARTESIAN_POINT('',(556.2163,-136.73337,-894.1994));
#228 = CARTESIAN_POINT('',(588.6487,-136.73337,-712.5107));
#229 = CARTESIAN_POINT('',(562.7027,-136.73337,-500.));
#230 = PCURVE('',#95,#231);
#231 = DEFINITIONAL_REPRESENTATION('',(#232),#235);
#232 = B_SPLINE_CURVE_WITH_KNOTS('',1,(#233,#234),.UNSPECIFIED.,.F.,.F.,
  (2,2),(0.,1.),.PIECEWISE_BEZIER_KNOTS.);
#233 = CARTESIAN_POINT('',(0.,0.));
#234 = CARTESIAN_POINT('',(1.,0.));
#235 = ( GEOMETRIC_REPRESENTATION_CONTEXT(2) 
PARAMETRIC_REPRESENTATION_CONTEXT() REPRESENTATION_CONTEXT('2D SPACE',''
  ) );
#236 = ( GEOMETRIC_REPRESENTATION_CONTEXT(3) 
GLOBAL_UNCERTAINTY_ASSIGNED_CONTEXT((#240)) GLOBAL_UNIT_ASSIGNED_CONTEXT
((#237,#238,#239)) REPRESENTATION_CONTEXT('Context #1',
  '3D Context with UNIT and UNCERTAINTY') );
#237 = ( LENGTH_UNIT() NAMED_UNIT(*) SI_UNIT(.MILLI.,.METRE.) );
#238 = ( NAMED_UNIT(*) PLANE_ANGLE_UNIT() SI_UNIT($,.RADIAN.) );
#239 = ( NAMED_UNIT(*) SI_UNIT($,.STERADIAN.) SOLID_ANGLE_UNIT() );
#240 = UNCERTAINTY_MEASURE_WITH_UNIT(LENGTH_MEASURE(5.E-02),#237,
  'distance_accuracy_value','confusion accuracy');
#241 = PRODUCT_RELATED_PRODUCT_CATEGORY('part',$,(#7));
ENDSEC;
END-ISO-10303-21;
