ISO-10303-21;
HEADER;
FILE_DESCRIPTION(('Open CASCADE Model'),'2;1');
FILE_NAME('Open CASCADE Shape Model','2026-07-11T20:16:05',('Author'),(
    'Open CASCADE'),'Open CASCADE STEP processor 8.0','Open CASCADE 8.0'
  ,'Unknown');
FILE_SCHEMA(('AUTOMOTIVE_DESIGN { 1 0 10303 214 1 1 1 1 }'));
ENDSEC;
DATA;
#1 = APPLICATION_PROTOCOL_DEFINITION('international standard',
  'automotive_design',2000,#2);
#2 = APPLICATION_CONTEXT(
  'core data for automotive mechanical design processes');
#3 = SHAPE_DEFINITION_REPRESENTATION(#4,#10);
#4 = PRODUCT_DEFINITION_SHAPE('','',#5);
#5 = PRODUCT_DEFINITION('design','',#6,#9);
#6 = PRODUCT_DEFINITION_FORMATION('','',#7);
#7 = PRODUCT('Open CASCADE STEP translator 8.0 1',
  'Open CASCADE STEP translator 8.0 1','',(#8));
#8 = PRODUCT_CONTEXT('',#2,'mechanical');
#9 = PRODUCT_DEFINITION_CONTEXT('part definition',#2,'design');
#10 = MANIFOLD_SURFACE_SHAPE_REPRESENTATION('',(#11,#15),#635);
#11 = AXIS2_PLACEMENT_3D('',#12,#13,#14);
#12 = CARTESIAN_POINT('',(0.,0.,0.));
#13 = DIRECTION('',(0.,0.,1.));
#14 = DIRECTION('',(1.,0.,-0.));
#15 = SHELL_BASED_SURFACE_MODEL('',(#16));
#16 = OPEN_SHELL('',(#17,#262,#497,#600));
#17 = ADVANCED_FACE('',(#18),#31,.T.);
#18 = FACE_BOUND('',#19,.T.);
#19 = EDGE_LOOP('',(#20,#51,#196,#247));
#20 = ORIENTED_EDGE('',*,*,#21,.F.);
#21 = EDGE_CURVE('',#22,#24,#26,.T.);
#22 = VERTEX_POINT('',#23);
#23 = CARTESIAN_POINT('',(976.82164,212.32235,336.90659));
#24 = VERTEX_POINT('',#25);
#25 = CARTESIAN_POINT('',(976.82164,212.32235,180.));
#26 = SURFACE_CURVE('',#27,(#30),.PCURVE_S1.);
#27 = B_SPLINE_CURVE_WITH_KNOTS('',1,(#28,#29),.UNSPECIFIED.,.F.,.F.,(2,
    2),(0.,1.),.PIECEWISE_BEZIER_KNOTS.);
#28 = CARTESIAN_POINT('',(976.82164,212.32235,336.90659));
#29 = CARTESIAN_POINT('',(976.82164,212.32235,180.));
#30 = PCURVE('',#31,#46);
#31 = B_SPLINE_SURFACE_WITH_KNOTS('',6,1,(
    (#32,#33)
    ,(#34,#35)
    ,(#36,#37)
    ,(#38,#39)
    ,(#40,#41)
    ,(#42,#43)
    ,(#44,#45)),.UNSPECIFIED.,.F.,.F.,.F.,(7,7),(2,2),(0.,1.),(0.,1.),
  .PIECEWISE_BEZIER_KNOTS.);
#32 = CARTESIAN_POINT('',(975.11484,220.15502,345.87221));
#33 = CARTESIAN_POINT('',(975.11484,220.15502,175.95417));
#34 = CARTESIAN_POINT('',(987.26158,165.31734,310.14267));
#35 = CARTESIAN_POINT('',(987.26158,165.31734,176.82566));
#36 = CARTESIAN_POINT('',(996.06283,110.66998,281.73449));
#37 = CARTESIAN_POINT('',(996.06283,110.66998,177.51857));
#38 = CARTESIAN_POINT('',(1.0012907E+03,56.138239,258.27385));
#39 = CARTESIAN_POINT('',(1.0012907E+03,56.138239,178.0908));
#40 = CARTESIAN_POINT('',(1.0027862E+03,1.6111418,239.24559));
#41 = CARTESIAN_POINT('',(1.0027862E+03,1.6111418,178.55493));
#42 = CARTESIAN_POINT('',(1.0004268E+03,-53.01797,224.37826));
#43 = CARTESIAN_POINT('',(1.0004268E+03,-53.01797,178.91756));
#44 = CARTESIAN_POINT('',(994.1426,-107.8523,213.57122));
#45 = CARTESIAN_POINT('',(994.1426,-107.8523,179.18116));
#46 = DEFINITIONAL_REPRESENTATION('',(#47),#50);
#47 = B_SPLINE_CURVE_WITH_KNOTS('',1,(#48,#49),.UNSPECIFIED.,.F.,.F.,(2,
    2),(0.,1.),.PIECEWISE_BEZIER_KNOTS.);
#48 = CARTESIAN_POINT('',(2.3810476E-02,2.3810476E-02));
#49 = CARTESIAN_POINT('',(2.3810476E-02,0.97618952));
#50 = ( GEOMETRIC_REPRESENTATION_CONTEXT(2) 
PARAMETRIC_REPRESENTATION_CONTEXT() REPRESENTATION_CONTEXT('2D SPACE',''
  ) );
#51 = ORIENTED_EDGE('',*,*,#52,.T.);
#52 = EDGE_CURVE('',#22,#53,#55,.T.);
#53 = VERTEX_POINT('',#54);
#54 = CARTESIAN_POINT('',(995.00702,-100.02023,214.29236));
#55 = SURFACE_CURVE('',#56,(#63,#69),.PCURVE_S1.);
#56 = B_SPLINE_CURVE_WITH_KNOTS('',5,(#57,#58,#59,#60,#61,#62),
  .UNSPECIFIED.,.F.,.F.,(6,6),(0.,1.),.PIECEWISE_BEZIER_KNOTS.);
#57 = CARTESIAN_POINT('',(976.82164,212.32235,336.90659));
#58 = CARTESIAN_POINT('',(990.24695,149.67625,298.026));
#59 = CARTESIAN_POINT('',(999.09054,87.279937,268.54613));
#60 = CARTESIAN_POINT('',(1.0029724E+03,24.995513,244.84829));
#61 = CARTESIAN_POINT('',(1.0016554E+03,-37.379801,226.88161));
#62 = CARTESIAN_POINT('',(995.00702,-100.02023,214.29236));
#63 = PCURVE('',#31,#64);
#64 = DEFINITIONAL_REPRESENTATION('',(#65),#68);
#65 = B_SPLINE_CURVE_WITH_KNOTS('',1,(#66,#67),.UNSPECIFIED.,.F.,.F.,(2,
    2),(0.,1.),.PIECEWISE_BEZIER_KNOTS.);
#66 = CARTESIAN_POINT('',(2.3810476E-02,2.3810476E-02));
#67 = CARTESIAN_POINT('',(0.97618952,2.3810476E-02));
#68 = ( GEOMETRIC_REPRESENTATION_CONTEXT(2) 
PARAMETRIC_REPRESENTATION_CONTEXT() REPRESENTATION_CONTEXT('2D SPACE',''
  ) );
#69 = PCURVE('',#70,#191);
#70 = B_SPLINE_SURFACE_WITH_KNOTS('',9,11,(
    (#71,#72,#73,#74,#75,#76,#77,#78,#79,#80,#81,#82)
    ,(#83,#84,#85,#86,#87,#88,#89,#90,#91,#92,#93,#94)
    ,(#95,#96,#97,#98,#99,#100,#101,#102,#103,#104,#105,#106)
    ,(#107,#108,#109,#110,#111,#112,#113,#114,#115,#116,#117,#118)
    ,(#119,#120,#121,#122,#123,#124,#125,#126,#127,#128,#129,#130)
    ,(#131,#132,#133,#134,#135,#136,#137,#138,#139,#140,#141,#142)
    ,(#143,#144,#145,#146,#147,#148,#149,#150,#151,#152,#153,#154)
    ,(#155,#156,#157,#158,#159,#160,#161,#162,#163,#164,#165,#166)
    ,(#167,#168,#169,#170,#171,#172,#173,#174,#175,#176,#177,#178)
    ,(#179,#180,#181,#182,#183,#184,#185,#186,#187,#188,#189,#190
  )),.UNSPECIFIED.,.F.,.F.,.F.,(10,10),(12,12),(0.,1.),(0.,1.),
  .PIECEWISE_BEZIER_KNOTS.);
#71 = CARTESIAN_POINT('',(1.1599969E+03,-150.8632,278.51786));
#72 = CARTESIAN_POINT('',(1.1644402E+03,-119.13881,282.83501));
#73 = CARTESIAN_POINT('',(1.1677004E+03,-87.441112,288.45214));
#74 = CARTESIAN_POINT('',(1.1698561E+03,-55.745844,295.37516));
#75 = CARTESIAN_POINT('',(1.1705585E+03,-24.165539,303.69482));
#76 = CARTESIAN_POINT('',(1.1709163E+03,7.5423842,313.24646));
#77 = CARTESIAN_POINT('',(1.1688204E+03,39.039986,324.4663));
#78 = CARTESIAN_POINT('',(1.1668077E+03,70.604304,336.93835));
#79 = CARTESIAN_POINT('',(1.1629847E+03,102.11462,351.17185));
#80 = CARTESIAN_POINT('',(1.1583165E+03,133.59099,367.08423));
#81 = CARTESIAN_POINT('',(1.152522E+03,165.04621,384.96435));
#82 = CARTESIAN_POINT('',(1.1456953E+03,196.47115,405.08253));
#83 = CARTESIAN_POINT('',(1.1398786E+03,-145.59492,275.26671));
#84 = CARTESIAN_POINT('',(1.1441863E+03,-114.29438,279.76003));
#85 = CARTESIAN_POINT('',(1.1473247E+03,-83.029252,285.51748));
#86 = CARTESIAN_POINT('',(1.149376E+03,-51.767041,292.54375));
#87 = CARTESIAN_POINT('',(1.149973E+03,-20.642537,300.92748));
#88 = CARTESIAN_POINT('',(1.1503029E+03,10.652519,310.49503));
#89 = CARTESIAN_POINT('',(1.1480667E+03,41.675015,321.71032));
#90 = CARTESIAN_POINT('',(1.1460908E+03,72.824577,334.099));
#91 = CARTESIAN_POINT('',(1.1422172E+03,103.89488,348.23205));
#92 = CARTESIAN_POINT('',(1.137553E+03,134.94544,363.98118));
#93 = CARTESIAN_POINT('',(1.1317734E+03,165.98304,381.65167));
#94 = CARTESIAN_POINT('',(1.1249825E+03,197.00156,401.50781));
#95 = CARTESIAN_POINT('',(1.1199286E+03,-140.38273,270.89001));
#96 = CARTESIAN_POINT('',(1.1241047E+03,-109.45302,275.55742));
#97 = CARTESIAN_POINT('',(1.1271264E+03,-78.565363,281.45553));
#98 = CARTESIAN_POINT('',(1.1290647E+03,-47.686662,288.59096));
#99 = CARTESIAN_POINT('',(1.1296018E+03,-16.944124,297.0369));
#100 = CARTESIAN_POINT('',(1.1298148E+03,13.960345,306.64474));
#101 = CARTESIAN_POINT('',(1.1275455E+03,44.609062,317.85412));
#102 = CARTESIAN_POINT('',(1.1255322E+03,75.359869,330.18326));
#103 = CARTESIAN_POINT('',(1.1216438E+03,106.07953,344.23646));
#104 = CARTESIAN_POINT('',(1.1169704E+03,136.74708,359.84571));
#105 = CARTESIAN_POINT('',(1.1112048E+03,167.42824,377.33594));
#106 = CARTESIAN_POINT('',(1.1044466E+03,198.09828,396.96346));
#107 = CARTESIAN_POINT('',(1.1002144E+03,-135.24448,265.39838));
#108 = CARTESIAN_POINT('',(1.1042636E+03,-104.63097,270.2373));
#109 = CARTESIAN_POINT('',(1.1071745E+03,-74.069929,276.27383));
#110 = CARTESIAN_POINT('',(1.1089902E+03,-43.490256,283.53354));
#111 = CARTESIAN_POINT('',(1.1095243E+03,-13.163132,292.01123));
#112 = CARTESIAN_POINT('',(1.1094981E+03,17.604451,301.73972));
#113 = CARTESIAN_POINT('',(1.107351E+03,47.645517,312.86661));
#114 = CARTESIAN_POINT('',(1.1051898E+03,78.363261,325.23161));
#115 = CARTESIAN_POINT('',(1.1013382E+03,108.57219,339.17812));
#116 = CARTESIAN_POINT('',(1.0966337E+03,139.01829,354.69351));
#117 = CARTESIAN_POINT('',(1.0908871E+03,169.38205,372.02866));
#118 = CARTESIAN_POINT('',(1.0841576E+03,199.76042,391.46144));
#119 = CARTESIAN_POINT('',(1.0808024E+03,-130.19764,258.80776));
#120 = CARTESIAN_POINT('',(1.08473E+03,-99.844682,263.81484));
#121 = CARTESIAN_POINT('',(1.0875301E+03,-69.537071,269.99556));
#122 = CARTESIAN_POINT('',(1.0892452E+03,-39.289484,277.35556));
#123 = CARTESIAN_POINT('',(1.0897449E+03,-9.0367206,285.93574));
#124 = CARTESIAN_POINT('',(1.089482E+03,21.095797,295.70164));
#125 = CARTESIAN_POINT('',(1.0875417E+03,51.352264,306.85032));
#126 = CARTESIAN_POINT('',(1.0851244E+03,81.345002,319.19147));
#127 = CARTESIAN_POINT('',(1.0813679E+03,111.64264,333.11357));
#128 = CARTESIAN_POINT('',(1.0766276E+03,141.67073,348.52422));
#129 = CARTESIAN_POINT('',(1.0708854E+03,171.82811,365.74329));
#130 = CARTESIAN_POINT('',(1.0641844E+03,201.98247,385.01769));
#131 = CARTESIAN_POINT('',(1.0617578E+03,-125.25934,251.13918));
#132 = CARTESIAN_POINT('',(1.0655694E+03,-95.110329,256.31048));
#133 = CARTESIAN_POINT('',(1.0682674E+03,-65.023079,262.62614));
#134 = CARTESIAN_POINT('',(1.0698949E+03,-34.924443,270.11231));
#135 = CARTESIAN_POINT('',(1.0702834E+03,-5.0549035,278.75748));
#136 = CARTESIAN_POINT('',(1.0700122E+03,25.203305,288.61811));
#137 = CARTESIAN_POINT('',(1.0679471E+03,54.78159,299.75423));
#138 = CARTESIAN_POINT('',(1.065546E+03,85.091551,312.15492));
#139 = CARTESIAN_POINT('',(1.0617781E+03,114.78619,325.99709));
#140 = CARTESIAN_POINT('',(1.0569805E+03,144.8382,341.38375));
#141 = CARTESIAN_POINT('',(1.0512743E+03,174.78053,358.50377));
#142 = CARTESIAN_POINT('',(1.0445947E+03,204.75715,377.65258));
#143 = CARTESIAN_POINT('',(1.043144E+03,-120.44626,242.41853));
#144 = CARTESIAN_POINT('',(1.0468455E+03,-90.443653,247.74972));
#145 = CARTESIAN_POINT('',(1.0494411E+03,-60.49182,254.20824));
#146 = CARTESIAN_POINT('',(1.0509851E+03,-30.606699,261.79719));
#147 = CARTESIAN_POINT('',(1.0513044E+03,-0.69441814,270.56212));
#148 = CARTESIAN_POINT('',(1.0509311E+03,29.049541,280.45873));
#149 = CARTESIAN_POINT('',(1.0488501E+03,58.992092,291.67841));
#150 = CARTESIAN_POINT('',(1.0464703E+03,88.65974,304.05504));
#151 = CARTESIAN_POINT('',(1.0425471E+03,118.58385,317.93803));
#152 = CARTESIAN_POINT('',(1.0378424E+03,148.35405,333.26211));
#153 = CARTESIAN_POINT('',(1.0321143E+03,178.19737,350.32776));
#154 = CARTESIAN_POINT('',(1.0254551E+03,208.07648,369.39102));
#155 = CARTESIAN_POINT('',(1.0250228E+03,-115.77464,232.67623));
#156 = CARTESIAN_POINT('',(1.0286201E+03,-85.860013,238.16281));
#157 = CARTESIAN_POINT('',(1.0311288E+03,-56.003787,244.75447));
#158 = CARTESIAN_POINT('',(1.0325583E+03,-26.18235,252.47223));
#159 = CARTESIAN_POINT('',(1.0329013E+03,3.5770305,261.30881));
#160 = CARTESIAN_POINT('',(1.032267E+03,33.344967,271.32942));
#161 = CARTESIAN_POINT('',(1.0304247E+03,63.076486,282.54936));
#162 = CARTESIAN_POINT('',(1.0277426E+03,92.789799,295.0214));
#163 = CARTESIAN_POINT('',(1.0239572E+03,122.5703,308.88148));
#164 = CARTESIAN_POINT('',(1.019184E+03,152.30045,324.21398));
#165 = CARTESIAN_POINT('',(1.0134734E+03,182.09833,341.25077));
#166 = CARTESIAN_POINT('',(1.0068304E+03,211.93132,360.26218));
#167 = CARTESIAN_POINT('',(1.0074541E+03,-111.26025,221.94692));
#168 = CARTESIAN_POINT('',(1.0109533E+03,-81.374715,227.58412));
#169 = CARTESIAN_POINT('',(1.0133744E+03,-51.546723,234.31115));
#170 = CARTESIAN_POINT('',(1.0147278E+03,-21.760362,242.14262));
#171 = CARTESIAN_POINT('',(1.0150099E+03,7.9848096,251.09076));
#172 = CARTESIAN_POINT('',(1.0142889E+03,37.720294,261.192));
#173 = CARTESIAN_POINT('',(1.0124538E+03,67.433536,272.48234));
#174 = CARTESIAN_POINT('',(1.0097021E+03,97.155483,285.01816));
#175 = CARTESIAN_POINT('',(1.0058926E+03,126.90143,298.90553));
#176 = CARTESIAN_POINT('',(1.0011262E+03,156.6562,314.26384));
#177 = CARTESIAN_POINT('',(995.41416,186.46,331.30256));
#178 = CARTESIAN_POINT('',(988.78257,216.30929,350.29881));
#179 = CARTESIAN_POINT('',(990.49587,-106.91835,210.26908));
#180 = CARTESIAN_POINT('',(993.90391,-77.003606,216.05123));
#181 = CARTESIAN_POINT('',(996.24383,-47.144633,222.91089));
#182 = CARTESIAN_POINT('',(997.52383,-17.328737,230.86006));
#183 = CARTESIAN_POINT('',(997.75474,12.457001,239.91828));
#184 = CARTESIAN_POINT('',(996.94968,42.225699,250.11356));
#185 = CARTESIAN_POINT('',(995.12394,71.990558,261.48654));
#186 = CARTESIAN_POINT('',(992.29488,101.76465,274.09794));
#187 = CARTESIAN_POINT('',(988.48197,131.56061,288.0393));
#188 = CARTESIAN_POINT('',(983.70693,161.39027,303.4469));
#189 = CARTESIAN_POINT('',(977.994,191.26417,320.51898));
#190 = CARTESIAN_POINT('',(971.37026,221.19097,339.53623));
#191 = DEFINITIONAL_REPRESENTATION('',(#192),#195);
#192 = B_SPLINE_CURVE_WITH_KNOTS('',1,(#193,#194),.UNSPECIFIED.,.F.,.F.,
  (2,2),(0.,1.),.PIECEWISE_BEZIER_KNOTS.);
#193 = CARTESIAN_POINT('',(0.97618764,0.97618933));
#194 = CARTESIAN_POINT('',(0.97618764,2.3810667E-02));
#195 = ( GEOMETRIC_REPRESENTATION_CONTEXT(2) 
PARAMETRIC_REPRESENTATION_CONTEXT() REPRESENTATION_CONTEXT('2D SPACE',''
  ) );
#196 = ORIENTED_EDGE('',*,*,#197,.T.);
#197 = EDGE_CURVE('',#53,#198,#200,.T.);
#198 = VERTEX_POINT('',#199);
#199 = CARTESIAN_POINT('',(995.00702,-100.02023,180.));
#200 = SURFACE_CURVE('',#201,(#204,#210),.PCURVE_S1.);
#201 = B_SPLINE_CURVE_WITH_KNOTS('',1,(#202,#203),.UNSPECIFIED.,.F.,.F.,
  (2,2),(0.,1.),.PIECEWISE_BEZIER_KNOTS.);
#202 = CARTESIAN_POINT('',(995.00702,-100.02023,214.29236));
#203 = CARTESIAN_POINT('',(995.00702,-100.02023,180.));
#204 = PCURVE('',#31,#205);
#205 = DEFINITIONAL_REPRESENTATION('',(#206),#209);
#206 = B_SPLINE_CURVE_WITH_KNOTS('',1,(#207,#208),.UNSPECIFIED.,.F.,.F.,
  (2,2),(0.,1.),.PIECEWISE_BEZIER_KNOTS.);
#207 = CARTESIAN_POINT('',(0.97618952,2.3810476E-02));
#208 = CARTESIAN_POINT('',(0.97618952,0.97618952));
#209 = ( GEOMETRIC_REPRESENTATION_CONTEXT(2) 
PARAMETRIC_REPRESENTATION_CONTEXT() REPRESENTATION_CONTEXT('2D SPACE',''
  ) );
#210 = PCURVE('',#211,#242);
#211 = B_SPLINE_SURFACE_WITH_KNOTS('',14,1,(
    (#212,#213)
    ,(#214,#215)
    ,(#216,#217)
    ,(#218,#219)
    ,(#220,#221)
    ,(#222,#223)
    ,(#224,#225)
    ,(#226,#227)
    ,(#228,#229)
    ,(#230,#231)
    ,(#232,#233)
    ,(#234,#235)
    ,(#236,#237)
    ,(#238,#239)
    ,(#240,#241
    )),.UNSPECIFIED.,.F.,.F.,.F.,(15,15),(2,2),(0.,1.),(0.,1.),
  .PIECEWISE_BEZIER_KNOTS.);
#212 = CARTESIAN_POINT('',(988.47405,-98.698673,215.58716));
#213 = CARTESIAN_POINT('',(988.47405,-98.698673,179.13198));
#214 = CARTESIAN_POINT('',(1.0080744E+03,-102.65002,214.26766));
#215 = CARTESIAN_POINT('',(1.0080744E+03,-102.65002,179.16417));
#216 = CARTESIAN_POINT('',(1.0276606E+03,-106.68635,212.99454));
#217 = CARTESIAN_POINT('',(1.0276606E+03,-106.68635,179.19522));
#218 = CARTESIAN_POINT('',(1.047232E+03,-110.80759,211.76753));
#219 = CARTESIAN_POINT('',(1.047232E+03,-110.80759,179.22515));
#220 = CARTESIAN_POINT('',(1.0667883E+03,-115.01368,210.58638));
#221 = CARTESIAN_POINT('',(1.0667883E+03,-115.01368,179.25396));
#222 = CARTESIAN_POINT('',(1.0863287E+03,-119.30457,209.45086));
#223 = CARTESIAN_POINT('',(1.0863287E+03,-119.30457,179.28166));
#224 = CARTESIAN_POINT('',(1.1058529E+03,-123.68018,208.36071));
#225 = CARTESIAN_POINT('',(1.1058529E+03,-123.68018,179.30825));
#226 = CARTESIAN_POINT('',(1.1253602E+03,-128.14043,207.31571));
#227 = CARTESIAN_POINT('',(1.1253602E+03,-128.14043,179.33374));
#228 = CARTESIAN_POINT('',(1.1448503E+03,-132.68525,206.31563));
#229 = CARTESIAN_POINT('',(1.1448503E+03,-132.68525,179.35813));
#230 = CARTESIAN_POINT('',(1.1643224E+03,-137.31455,205.36023));
#231 = CARTESIAN_POINT('',(1.1643224E+03,-137.31455,179.38143));
#232 = CARTESIAN_POINT('',(1.1837762E+03,-142.02826,204.4493));
#233 = CARTESIAN_POINT('',(1.1837762E+03,-142.02826,179.40365));
#234 = CARTESIAN_POINT('',(1.2032111E+03,-146.82627,203.58263));
#235 = CARTESIAN_POINT('',(1.2032111E+03,-146.82627,179.42479));
#236 = CARTESIAN_POINT('',(1.2226267E+03,-151.70849,202.76001));
#237 = CARTESIAN_POINT('',(1.2226267E+03,-151.70849,179.44486));
#238 = CARTESIAN_POINT('',(1.2420223E+03,-156.67482,201.98123));
#239 = CARTESIAN_POINT('',(1.2420223E+03,-156.67482,179.46385));
#240 = CARTESIAN_POINT('',(1.2613976E+03,-161.72515,201.2461));
#241 = CARTESIAN_POINT('',(1.2613976E+03,-161.72515,179.48178));
#242 = DEFINITIONAL_REPRESENTATION('',(#243),#246);
#243 = B_SPLINE_CURVE_WITH_KNOTS('',1,(#244,#245),.UNSPECIFIED.,.F.,.F.,
  (2,2),(0.,1.),.PIECEWISE_BEZIER_KNOTS.);
#244 = CARTESIAN_POINT('',(2.3810476E-02,2.3810476E-02));
#245 = CARTESIAN_POINT('',(2.3810476E-02,0.97618952));
#246 = ( GEOMETRIC_REPRESENTATION_CONTEXT(2) 
PARAMETRIC_REPRESENTATION_CONTEXT() REPRESENTATION_CONTEXT('2D SPACE',''
  ) );
#247 = ORIENTED_EDGE('',*,*,#248,.F.);
#248 = EDGE_CURVE('',#24,#198,#249,.T.);
#249 = SURFACE_CURVE('',#250,(#256),.PCURVE_S1.);
#250 = B_SPLINE_CURVE_WITH_KNOTS('',4,(#251,#252,#253,#254,#255),
  .UNSPECIFIED.,.F.,.F.,(5,5),(0.,1.),.PIECEWISE_BEZIER_KNOTS.);
#251 = CARTESIAN_POINT('',(976.82164,212.32235,180.));
#252 = CARTESIAN_POINT('',(993.60328,134.01473,180.));
#253 = CARTESIAN_POINT('',(1.0027456E+03,56.131198,180.));
#254 = CARTESIAN_POINT('',(1.0033175E+03,-21.719694,180.));
#255 = CARTESIAN_POINT('',(995.00702,-100.02023,180.));
#256 = PCURVE('',#31,#257);
#257 = DEFINITIONAL_REPRESENTATION('',(#258),#261);
#258 = B_SPLINE_CURVE_WITH_KNOTS('',1,(#259,#260),.UNSPECIFIED.,.F.,.F.,
  (2,2),(0.,1.),.PIECEWISE_BEZIER_KNOTS.);
#259 = CARTESIAN_POINT('',(2.3810476E-02,0.97618952));
#260 = CARTESIAN_POINT('',(0.97618952,0.97618952));
#261 = ( GEOMETRIC_REPRESENTATION_CONTEXT(2) 
PARAMETRIC_REPRESENTATION_CONTEXT() REPRESENTATION_CONTEXT('2D SPACE',''
  ) );
#262 = ADVANCED_FACE('',(#263),#211,.T.);
#263 = FACE_BOUND('',#264,.T.);
#264 = EDGE_LOOP('',(#265,#266,#469,#483));
#265 = ORIENTED_EDGE('',*,*,#197,.F.);
#266 = ORIENTED_EDGE('',*,*,#267,.T.);
#267 = EDGE_CURVE('',#53,#268,#270,.T.);
#268 = VERTEX_POINT('',#269);
#269 = CARTESIAN_POINT('',(1.2549378E+03,-160.04597,200.96916));
#270 = SURFACE_CURVE('',#271,(#276,#282),.PCURVE_S1.);
#271 = B_SPLINE_CURVE_WITH_KNOTS('',3,(#272,#273,#274,#275),
  .UNSPECIFIED.,.F.,.F.,(4,4),(0.,1.),.PIECEWISE_BEZIER_KNOTS.);
#272 = CARTESIAN_POINT('',(995.00702,-100.02023,214.29236));
#273 = CARTESIAN_POINT('',(1.0820999E+03,-117.69864,208.63316));
#274 = CARTESIAN_POINT('',(1.1687978E+03,-137.71567,204.21533));
#275 = CARTESIAN_POINT('',(1.2549378E+03,-160.04597,200.96916));
#276 = PCURVE('',#211,#277);
#277 = DEFINITIONAL_REPRESENTATION('',(#278),#281);
#278 = B_SPLINE_CURVE_WITH_KNOTS('',1,(#279,#280),.UNSPECIFIED.,.F.,.F.,
  (2,2),(0.,1.),.PIECEWISE_BEZIER_KNOTS.);
#279 = CARTESIAN_POINT('',(2.3810476E-02,2.3810476E-02));
#280 = CARTESIAN_POINT('',(0.97618952,2.3810476E-02));
#281 = ( GEOMETRIC_REPRESENTATION_CONTEXT(2) 
PARAMETRIC_REPRESENTATION_CONTEXT() REPRESENTATION_CONTEXT('2D SPACE',''
  ) );
#282 = PCURVE('',#283,#464);
#283 = B_SPLINE_SURFACE_WITH_KNOTS('',14,11,(
    (#284,#285,#286,#287,#288,#289,#290,#291,#292,#293,#294,#295)
    ,(#296,#297,#298,#299,#300,#301,#302,#303,#304,#305,#306,#307)
    ,(#308,#309,#310,#311,#312,#313,#314,#315,#316,#317,#318,#319)
    ,(#320,#321,#322,#323,#324,#325,#326,#327,#328,#329,#330,#331)
    ,(#332,#333,#334,#335,#336,#337,#338,#339,#340,#341,#342,#343)
    ,(#344,#345,#346,#347,#348,#349,#350,#351,#352,#353,#354,#355)
    ,(#356,#357,#358,#359,#360,#361,#362,#363,#364,#365,#366,#367)
    ,(#368,#369,#370,#371,#372,#373,#374,#375,#376,#377,#378,#379)
    ,(#380,#381,#382,#383,#384,#385,#386,#387,#388,#389,#390,#391)
    ,(#392,#393,#394,#395,#396,#397,#398,#399,#400,#401,#402,#403)
    ,(#404,#405,#406,#407,#408,#409,#410,#411,#412,#413,#414,#415)
    ,(#416,#417,#418,#419,#420,#421,#422,#423,#424,#425,#426,#427)
    ,(#428,#429,#430,#431,#432,#433,#434,#435,#436,#437,#438,#439)
    ,(#440,#441,#442,#443,#444,#445,#446,#447,#448,#449,#450,#451)
    ,(#452,#453,#454,#455,#456,#457,#458,#459,#460,#461,#462,#463
  )),.UNSPECIFIED.,.F.,.F.,.F.,(15,15),(12,12),(0.,1.),(0.,1.),
  .PIECEWISE_BEZIER_KNOTS.);
#284 = CARTESIAN_POINT('',(1.2614845E+03,-162.16173,199.92303));
#285 = CARTESIAN_POINT('',(1.2611535E+03,-160.49683,202.99371));
#286 = CARTESIAN_POINT('',(1.2608163E+03,-158.81552,206.08331));
#287 = CARTESIAN_POINT('',(1.2604736E+03,-157.11722,209.19272));
#288 = CARTESIAN_POINT('',(1.2601258E+03,-155.4014,212.32275));
#289 = CARTESIAN_POINT('',(1.2597732E+03,-153.66759,215.47406));
#290 = CARTESIAN_POINT('',(1.2594161E+03,-151.91537,218.64725));
#291 = CARTESIAN_POINT('',(1.2590546E+03,-150.14446,221.84278));
#292 = CARTESIAN_POINT('',(1.2586892E+03,-148.35464,225.06097));
#293 = CARTESIAN_POINT('',(1.2583203E+03,-146.54583,228.30208));
#294 = CARTESIAN_POINT('',(1.2579484E+03,-144.71804,231.56624));
#295 = CARTESIAN_POINT('',(1.2575741E+03,-142.87139,234.85348));
#296 = CARTESIAN_POINT('',(1.2418486E+03,-157.11043,200.56377));
#297 = CARTESIAN_POINT('',(1.2425101E+03,-155.44325,203.93318));
#298 = CARTESIAN_POINT('',(1.2431841E+03,-153.80895,207.26475));
#299 = CARTESIAN_POINT('',(1.2438686E+03,-152.20846,210.55676));
#300 = CARTESIAN_POINT('',(1.2445639E+03,-150.64314,213.80751));
#301 = CARTESIAN_POINT('',(1.2452687E+03,-149.11381,217.01566));
#302 = CARTESIAN_POINT('',(1.2459819E+03,-147.62104,220.18014));
#303 = CARTESIAN_POINT('',(1.2467032E+03,-146.16557,223.3));
#304 = CARTESIAN_POINT('',(1.2474332E+03,-144.74813,226.37444));
#305 = CARTESIAN_POINT('',(1.2481712E+03,-143.36894,229.40298));
#306 = CARTESIAN_POINT('',(1.2489144E+03,-142.02744,232.3855));
#307 = CARTESIAN_POINT('',(1.2496625E+03,-140.72373,235.32182));
#308 = CARTESIAN_POINT('',(1.2221917E+03,-152.15702,201.23305));
#309 = CARTESIAN_POINT('',(1.2238486E+03,-150.43463,204.95479));
#310 = CARTESIAN_POINT('',(1.2255365E+03,-148.79444,208.58193));
#311 = CARTESIAN_POINT('',(1.2272549E+03,-147.23908,212.10999));
#312 = CARTESIAN_POINT('',(1.2289848E+03,-145.77054,215.53549));
#313 = CARTESIAN_POINT('',(1.2307759E+03,-144.39502,218.85299));
#314 = CARTESIAN_POINT('',(1.2325226E+03,-143.10463,222.06421));
#315 = CARTESIAN_POINT('',(1.2343751E+03,-141.91773,225.15955));
#316 = CARTESIAN_POINT('',(1.2361671E+03,-140.81364,228.14605));
#317 = CARTESIAN_POINT('',(1.2380324E+03,-139.81516,231.01428));
#318 = CARTESIAN_POINT('',(1.2398976E+03,-138.90737,233.76859));
#319 = CARTESIAN_POINT('',(1.2417701E+03,-138.09359,236.40762));
#320 = CARTESIAN_POINT('',(1.2025127E+03,-147.302,201.93098));
#321 = CARTESIAN_POINT('',(1.2051733E+03,-145.46992,206.05893));
#322 = CARTESIAN_POINT('',(1.2078826E+03,-143.76845,210.03577));
#323 = CARTESIAN_POINT('',(1.2106478E+03,-142.20936,213.85239));
#324 = CARTESIAN_POINT('',(1.2134086E+03,-140.76564,217.51051));
#325 = CARTESIAN_POINT('',(1.2163139E+03,-139.52476,220.98336));
#326 = CARTESIAN_POINT('',(1.2190841E+03,-138.33399,224.3057));
#327 = CARTESIAN_POINT('',(1.2220759E+03,-137.40471,227.42125));
#328 = CARTESIAN_POINT('',(1.2249632E+03,-136.53772,230.37759));
#329 = CARTESIAN_POINT('',(1.2279275E+03,-135.86373,233.14074));
#330 = CARTESIAN_POINT('',(1.2309248E+03,-135.34016,235.71954));
#331 = CARTESIAN_POINT('',(1.2339312E+03,-134.96111,238.11528));
#332 = CARTESIAN_POINT('',(1.1828051E+03,-142.54178,202.65879));
#333 = CARTESIAN_POINT('',(1.1865046E+03,-140.55959,207.24296));
#334 = CARTESIAN_POINT('',(1.1902775E+03,-138.75992,211.61847));
#335 = CARTESIAN_POINT('',(1.1940741E+03,-137.13248,215.78029));
#336 = CARTESIAN_POINT('',(1.1980665E+03,-135.75255,219.69994));
#337 = CARTESIAN_POINT('',(1.2017748E+03,-134.43867,223.42227));
#338 = CARTESIAN_POINT('',(1.2060987E+03,-133.54896,226.84189));
#339 = CARTESIAN_POINT('',(1.209777E+03,-132.59383,230.09191));
#340 = CARTESIAN_POINT('',(1.2141002E+03,-132.08218,233.02627));
#341 = CARTESIAN_POINT('',(1.2181248E+03,-131.64728,235.74589));
#342 = CARTESIAN_POINT('',(1.2222413E+03,-131.44362,238.20569));
#343 = CARTESIAN_POINT('',(1.2264281E+03,-131.46475,240.40655));
#344 = CARTESIAN_POINT('',(1.1630812E+03,-137.88164,203.41531));
#345 = CARTESIAN_POINT('',(1.1678098E+03,-135.68912,208.51094));
#346 = CARTESIAN_POINT('',(1.1726239E+03,-133.72603,213.34188));
#347 = CARTESIAN_POINT('',(1.177528E+03,-132.00392,217.8944));
#348 = CARTESIAN_POINT('',(1.1824507E+03,-130.51317,222.16304));
#349 = CARTESIAN_POINT('',(1.187576E+03,-129.31064,226.12164));
#350 = CARTESIAN_POINT('',(1.1925226E+03,-128.30031,229.79496));
#351 = CARTESIAN_POINT('',(1.1978328E+03,-127.63476,233.12926));
#352 = CARTESIAN_POINT('',(1.2029153E+03,-127.15529,236.17083));
#353 = CARTESIAN_POINT('',(1.2082242E+03,-126.99168,238.87614));
#354 = CARTESIAN_POINT('',(1.2135396E+03,-127.08304,241.26213));
#355 = CARTESIAN_POINT('',(1.2188737E+03,-127.43489,243.32597));
#356 = CARTESIAN_POINT('',(1.14333E+03,-133.31752,204.20205));
#357 = CARTESIAN_POINT('',(1.1491221E+03,-130.87029,209.85937));
#358 = CARTESIAN_POINT('',(1.1550148E+03,-128.7001,215.19575));
#359 = CARTESIAN_POINT('',(1.1610402E+03,-126.83411,220.19076));
#360 = CARTESIAN_POINT('',(1.1670004E+03,-125.20566,224.85298));
#361 = CARTESIAN_POINT('',(1.173413E+03,-124.02992,229.111));
#362 = CARTESIAN_POINT('',(1.1792706E+03,-122.9178,233.06795));
#363 = CARTESIAN_POINT('',(1.1859645E+03,-122.42557,236.55968));
#364 = CARTESIAN_POINT('',(1.1920637E+03,-121.99245,239.74019));
#365 = CARTESIAN_POINT('',(1.1985901E+03,-122.02783,242.49009));
#366 = CARTESIAN_POINT('',(1.2051142E+03,-122.36377,244.85445));
#367 = CARTESIAN_POINT('',(1.2116381E+03,-123.00412,246.83082));
#368 = CARTESIAN_POINT('',(1.1235454E+03,-128.84659,205.02021));
#369 = CARTESIAN_POINT('',(1.1304598E+03,-126.11138,211.28578));
#370 = CARTESIAN_POINT('',(1.1375019E+03,-123.70557,217.17273));
#371 = CARTESIAN_POINT('',(1.1446254E+03,-121.63014,222.66606));
#372 = CARTESIAN_POINT('',(1.1519593E+03,-119.93949,227.73774));
#373 = CARTESIAN_POINT('',(1.1591225E+03,-118.52407,232.40711));
#374 = CARTESIAN_POINT('',(1.1668298E+03,-117.62177,236.59757));
#375 = CARTESIAN_POINT('',(1.1740522E+03,-116.91085,240.39406));
#376 = CARTESIAN_POINT('',(1.1818667E+03,-116.74235,243.68928));
#377 = CARTESIAN_POINT('',(1.1894457E+03,-116.85533,246.55514));
#378 = CARTESIAN_POINT('',(1.1971528E+03,-117.36931,248.95389));
#379 = CARTESIAN_POINT('',(1.2049483E+03,-118.27387,250.8868));
#380 = CARTESIAN_POINT('',(1.1037398E+03,-124.47306,205.86901));
#381 = CARTESIAN_POINT('',(1.1117908E+03,-121.40088,212.79315));
#382 = CARTESIAN_POINT('',(1.11999E+03,-118.70831,219.28166));
#383 = CARTESIAN_POINT('',(1.1282698E+03,-116.38862,225.31942));
#384 = CARTESIAN_POINT('',(1.1368405E+03,-114.53807,230.86516));
#385 = CARTESIAN_POINT('',(1.1450994E+03,-112.94061,235.96495));
#386 = CARTESIAN_POINT('',(1.1541716E+03,-112.03803,240.48656));
#387 = CARTESIAN_POINT('',(1.1624732E+03,-111.23279,244.58705));
#388 = CARTESIAN_POINT('',(1.1716193E+03,-111.15111,248.08535));
#389 = CARTESIAN_POINT('',(1.1804268E+03,-111.34499,251.10204));
#390 = CARTESIAN_POINT('',(1.1893811E+03,-112.00418,253.5807));
#391 = CARTESIAN_POINT('',(1.1984484E+03,-113.11944,255.52182));
#392 = CARTESIAN_POINT('',(1.0839165E+03,-120.19821,206.7486));
#393 = CARTESIAN_POINT('',(1.0931074E+03,-116.73544,214.38191));
#394 = CARTESIAN_POINT('',(1.1024539E+03,-113.69736,221.52412));
#395 = CARTESIAN_POINT('',(1.111982E+03,-111.11427,228.14698));
#396 = CARTESIAN_POINT('',(1.1214917E+03,-108.93367,234.25037));
#397 = CARTESIAN_POINT('',(1.1314975E+03,-107.35084,239.76071));
#398 = CARTESIAN_POINT('',(1.1409772E+03,-106.02338,244.76846));
#399 = CARTESIAN_POINT('',(1.1513647E+03,-105.45786,249.11423));
#400 = CARTESIAN_POINT('',(1.1611385E+03,-105.13608,252.94346));
#401 = CARTESIAN_POINT('',(1.1714291E+03,-105.45428,256.13412));
#402 = CARTESIAN_POINT('',(1.1817261E+03,-106.24082,258.73309));
#403 = CARTESIAN_POINT('',(1.1920441E+03,-107.50363,260.73573));
#404 = CARTESIAN_POINT('',(1.0640596E+03,-116.01575,207.66135));
#405 = CARTESIAN_POINT('',(1.0744563E+03,-112.1331,216.04625));
#406 = CARTESIAN_POINT('',(1.0850271E+03,-108.72408,223.8834));
#407 = CARTESIAN_POINT('',(1.0957948E+03,-105.82235,231.14137));
#408 = CARTESIAN_POINT('',(1.1065647E+03,-103.37059,237.81954));
#409 = CARTESIAN_POINT('',(1.1178288E+03,-101.58179,243.83756));
#410 = CARTESIAN_POINT('',(1.1286119E+03,-100.08659,249.29161));
#411 = CARTESIAN_POINT('',(1.1402723E+03,-99.42799,254.01272));
#412 = CARTESIAN_POINT('',(1.1513798E+03,-99.057492,258.15134));
#413 = CARTESIAN_POINT('',(1.162971E+03,-99.385414,261.58323));
#414 = CARTESIAN_POINT('',(1.1745931E+03,-100.24093,264.35346));
#415 = CARTESIAN_POINT('',(1.1862514E+03,-101.63016,266.45766));
#416 = CARTESIAN_POINT('',(1.0441705E+03,-111.92526,208.60799));
#417 = CARTESIAN_POINT('',(1.055836E+03,-107.5953,217.78505));
#418 = CARTESIAN_POINT('',(1.0677077E+03,-103.79329,226.35609));
#419 = CARTESIAN_POINT('',(1.0796836E+03,-100.5087,234.30044));
#420 = CARTESIAN_POINT('',(1.0920962E+03,-97.882099,241.55871));
#421 = CARTESIAN_POINT('',(1.103992E+03,-95.593823,248.20003));
#422 = CARTESIAN_POINT('',(1.1171661E+03,-94.298479,254.02977));
#423 = CARTESIAN_POINT('',(1.1290882E+03,-93.10517,259.28366));
#424 = CARTESIAN_POINT('',(1.1423556E+03,-92.952654,263.68909));
#425 = CARTESIAN_POINT('',(1.1550372E+03,-93.157619,267.43261));
#426 = CARTESIAN_POINT('',(1.1679495E+03,-94.016687,270.42551));
#427 = CARTESIAN_POINT('',(1.1810381E+03,-95.515298,272.66892));
#428 = CARTESIAN_POINT('',(1.0242791E+03,-107.93727,209.58618));
#429 = CARTESIAN_POINT('',(1.0371638E+03,-103.09267,219.60576));
#430 = CARTESIAN_POINT('',(1.0502595E+03,-98.820198,228.96414));
#431 = CARTESIAN_POINT('',(1.0635788E+03,-95.152884,237.62589));
#432 = CARTESIAN_POINT('',(1.0769537E+03,-92.055253,245.57907));
#433 = CARTESIAN_POINT('',(1.0907924E+03,-89.693627,252.75512));
#434 = CARTESIAN_POINT('',(1.104285E+03,-87.796361,259.21885));
#435 = CARTESIAN_POINT('',(1.118539E+03,-86.771016,264.83673));
#436 = CARTESIAN_POINT('',(1.132404E+03,-86.220125,269.71634));
#437 = CARTESIAN_POINT('',(1.1466919E+03,-86.438853,273.76332));
#438 = CARTESIAN_POINT('',(1.1610482E+03,-87.30841,277.00778));
#439 = CARTESIAN_POINT('',(1.1754627E+03,-88.829086,279.44653));
#440 = CARTESIAN_POINT('',(1.0043501E+03,-104.03819,210.60064));
#441 = CARTESIAN_POINT('',(1.0185417E+03,-98.663748,221.49604));
#442 = CARTESIAN_POINT('',(1.0329663E+03,-93.911827,231.67321));
#443 = CARTESIAN_POINT('',(1.0475983E+03,-89.804363,241.09771));
#444 = CARTESIAN_POINT('',(1.0624264E+03,-86.363835,249.73854));
#445 = CARTESIAN_POINT('',(1.0774285E+03,-83.604792,257.57067));
#446 = CARTESIAN_POINT('',(1.0926077E+03,-81.546682,264.57104));
#447 = CARTESIAN_POINT('',(1.1079501E+03,-80.199537,270.72279));
#448 = CARTESIAN_POINT('',(1.1234356E+03,-79.567785,276.01389));
#449 = CARTESIAN_POINT('',(1.1390739E+03,-79.663614,280.43281));
#450 = CARTESIAN_POINT('',(1.1548308E+03,-80.481489,283.9758));
#451 = CARTESIAN_POINT('',(1.1706944E+03,-82.021589,286.63958));
#452 = CARTESIAN_POINT('',(984.40955,-100.23655,211.64977));
#453 = CARTESIAN_POINT('',(999.89829,-94.284747,223.46131));
#454 = CARTESIAN_POINT('',(1.015638E+03,-89.004552,234.49791));
#455 = CARTESIAN_POINT('',(1.0316026E+03,-84.419956,244.7224));
#456 = CARTESIAN_POINT('',(1.0477743E+03,-80.553335,254.1019));
#457 = CARTESIAN_POINT('',(1.0641409E+03,-77.424423,262.60813));
#458 = CARTESIAN_POINT('',(1.0806925E+03,-75.049622,270.21761));
#459 = CARTESIAN_POINT('',(1.0974195E+03,-73.441595,276.91159));
#460 = CARTESIAN_POINT('',(1.1143112E+03,-72.609104,282.67585));
#461 = CARTESIAN_POINT('',(1.1313546E+03,-72.557057,287.50042));
#462 = CARTESIAN_POINT('',(1.1485336E+03,-73.286718,291.3791));
#463 = CARTESIAN_POINT('',(1.165829E+03,-74.796046,294.30904));
#464 = DEFINITIONAL_REPRESENTATION('',(#465),#468);
#465 = B_SPLINE_CURVE_WITH_KNOTS('',1,(#466,#467),.UNSPECIFIED.,.F.,.F.,
  (2,2),(0.,1.),.PIECEWISE_BEZIER_KNOTS.);
#466 = CARTESIAN_POINT('',(0.97618952,2.3810476E-02));
#467 = CARTESIAN_POINT('',(2.3810476E-02,2.3810476E-02));
#468 = ( GEOMETRIC_REPRESENTATION_CONTEXT(2) 
PARAMETRIC_REPRESENTATION_CONTEXT() REPRESENTATION_CONTEXT('2D SPACE',''
  ) );
#469 = ORIENTED_EDGE('',*,*,#470,.T.);
#470 = EDGE_CURVE('',#268,#471,#473,.T.);
#471 = VERTEX_POINT('',#472);
#472 = CARTESIAN_POINT('',(1.2549378E+03,-160.04597,180.));
#473 = SURFACE_CURVE('',#474,(#477),.PCURVE_S1.);
#474 = B_SPLINE_CURVE_WITH_KNOTS('',1,(#475,#476),.UNSPECIFIED.,.F.,.F.,
  (2,2),(0.,1.),.PIECEWISE_BEZIER_KNOTS.);
#475 = CARTESIAN_POINT('',(1.2549378E+03,-160.04597,200.96916));
#476 = CARTESIAN_POINT('',(1.2549378E+03,-160.04597,180.));
#477 = PCURVE('',#211,#478);
#478 = DEFINITIONAL_REPRESENTATION('',(#479),#482);
#479 = B_SPLINE_CURVE_WITH_KNOTS('',1,(#480,#481),.UNSPECIFIED.,.F.,.F.,
  (2,2),(0.,1.),.PIECEWISE_BEZIER_KNOTS.);
#480 = CARTESIAN_POINT('',(0.97618952,2.3810476E-02));
#481 = CARTESIAN_POINT('',(0.97618952,0.97618952));
#482 = ( GEOMETRIC_REPRESENTATION_CONTEXT(2) 
PARAMETRIC_REPRESENTATION_CONTEXT() REPRESENTATION_CONTEXT('2D SPACE',''
  ) );
#483 = ORIENTED_EDGE('',*,*,#484,.F.);
#484 = EDGE_CURVE('',#198,#471,#485,.T.);
#485 = SURFACE_CURVE('',#486,(#491),.PCURVE_S1.);
#486 = B_SPLINE_CURVE_WITH_KNOTS('',3,(#487,#488,#489,#490),
  .UNSPECIFIED.,.F.,.F.,(4,4),(0.,1.),.PIECEWISE_BEZIER_KNOTS.);
#487 = CARTESIAN_POINT('',(995.00702,-100.02023,180.));
#488 = CARTESIAN_POINT('',(1.0820999E+03,-117.69864,180.));
#489 = CARTESIAN_POINT('',(1.1687978E+03,-137.71567,180.));
#490 = CARTESIAN_POINT('',(1.2549378E+03,-160.04597,180.));
#491 = PCURVE('',#211,#492);
#492 = DEFINITIONAL_REPRESENTATION('',(#493),#496);
#493 = B_SPLINE_CURVE_WITH_KNOTS('',1,(#494,#495),.UNSPECIFIED.,.F.,.F.,
  (2,2),(0.,1.),.PIECEWISE_BEZIER_KNOTS.);
#494 = CARTESIAN_POINT('',(2.3810476E-02,0.97618952));
#495 = CARTESIAN_POINT('',(0.97618952,0.97618952));
#496 = ( GEOMETRIC_REPRESENTATION_CONTEXT(2) 
PARAMETRIC_REPRESENTATION_CONTEXT() REPRESENTATION_CONTEXT('2D SPACE',''
  ) );
#497 = ADVANCED_FACE('',(#498),#70,.T.);
#498 = FACE_BOUND('',#499,.T.);
#499 = EDGE_LOOP('',(#500,#501,#519,#545,#572));
#500 = ORIENTED_EDGE('',*,*,#52,.F.);
#501 = ORIENTED_EDGE('',*,*,#502,.T.);
#502 = EDGE_CURVE('',#22,#503,#505,.T.);
#503 = VERTEX_POINT('',#504);
#504 = CARTESIAN_POINT('',(1.0370891E+03,172.86908,349.10133));
#505 = SURFACE_CURVE('',#506,(#511),.PCURVE_S1.);
#506 = B_SPLINE_CURVE_WITH_KNOTS('',3,(#507,#508,#509,#510),
  .UNSPECIFIED.,.F.,.F.,(4,4),(0.,1.),.PIECEWISE_BEZIER_KNOTS.);
#507 = CARTESIAN_POINT('',(976.82164,212.32235,336.90659));
#508 = CARTESIAN_POINT('',(996.34881,197.76412,341.35792));
#509 = CARTESIAN_POINT('',(1.0164919E+03,184.52364,345.44899));
#510 = CARTESIAN_POINT('',(1.0370891E+03,172.86908,349.10133));
#511 = PCURVE('',#70,#512);
#512 = DEFINITIONAL_REPRESENTATION('',(#513),#518);
#513 = B_SPLINE_CURVE_WITH_KNOTS('',3,(#514,#515,#516,#517),
  .UNSPECIFIED.,.F.,.F.,(4,4),(0.,1.),.PIECEWISE_BEZIER_KNOTS.);
#514 = CARTESIAN_POINT('',(0.97618764,0.97618933));
#515 = CARTESIAN_POINT('',(0.86578497,0.94633041));
#516 = CARTESIAN_POINT('',(0.75503978,0.91835584));
#517 = CARTESIAN_POINT('',(0.64369944,0.89363739));
#518 = ( GEOMETRIC_REPRESENTATION_CONTEXT(2) 
PARAMETRIC_REPRESENTATION_CONTEXT() REPRESENTATION_CONTEXT('2D SPACE',''
  ) );
#519 = ORIENTED_EDGE('',*,*,#520,.T.);
#520 = EDGE_CURVE('',#503,#521,#523,.T.);
#521 = VERTEX_POINT('',#522);
#522 = CARTESIAN_POINT('',(1.1156384E+03,62.460361,322.84037));
#523 = SURFACE_CURVE('',#524,(#530),.PCURVE_S1.);
#524 = B_SPLINE_CURVE_WITH_KNOTS('',4,(#525,#526,#527,#528,#529),
  .UNSPECIFIED.,.F.,.F.,(5,5),(0.,1.),.PIECEWISE_BEZIER_KNOTS.);
#525 = CARTESIAN_POINT('',(1.0370891E+03,172.86908,349.10133));
#526 = CARTESIAN_POINT('',(1.0589759E+03,144.84594,342.3868));
#527 = CARTESIAN_POINT('',(1.0796214E+03,117.31373,335.81272));
#528 = CARTESIAN_POINT('',(1.0988414E+03,89.921949,329.30412));
#529 = CARTESIAN_POINT('',(1.1156384E+03,62.460361,322.84037));
#530 = PCURVE('',#70,#531);
#531 = DEFINITIONAL_REPRESENTATION('',(#532),#544);
#532 = B_SPLINE_CURVE_WITH_KNOTS('',10,(#533,#534,#535,#536,#537,#538,
    #539,#540,#541,#542,#543),.UNSPECIFIED.,.F.,.F.,(11,11),(0.,1.),
  .PIECEWISE_BEZIER_KNOTS.);
#533 = CARTESIAN_POINT('',(0.64369944,0.89363739));
#534 = CARTESIAN_POINT('',(0.60352092,0.86344392));
#535 = CARTESIAN_POINT('',(0.56403154,0.83327948));
#536 = CARTESIAN_POINT('',(0.52522467,0.80315053));
#537 = CARTESIAN_POINT('',(0.48711003,0.77306163));
#538 = CARTESIAN_POINT('',(0.44971775,0.74301432));
#539 = CARTESIAN_POINT('',(0.41309973,0.71300668));
#540 = CARTESIAN_POINT('',(0.3773278,0.68303435));
#541 = CARTESIAN_POINT('',(0.34249924,0.65309031));
#542 = CARTESIAN_POINT('',(0.30874771,0.62316267));
#543 = CARTESIAN_POINT('',(0.27625208,0.59323179));
#544 = ( GEOMETRIC_REPRESENTATION_CONTEXT(2) 
PARAMETRIC_REPRESENTATION_CONTEXT() REPRESENTATION_CONTEXT('2D SPACE',''
  ) );
#545 = ORIENTED_EDGE('',*,*,#546,.T.);
#546 = EDGE_CURVE('',#521,#547,#549,.T.);
#547 = VERTEX_POINT('',#548);
#548 = CARTESIAN_POINT('',(1.1630478E+03,-76.810456,291.0033));
#549 = SURFACE_CURVE('',#550,(#557),.PCURVE_S1.);
#550 = B_SPLINE_CURVE_WITH_KNOTS('',5,(#551,#552,#553,#554,#555,#556),
  .UNSPECIFIED.,.F.,.F.,(6,6),(0.,1.),.PIECEWISE_BEZIER_KNOTS.);
#551 = CARTESIAN_POINT('',(1.1156384E+03,62.460361,322.84037));
#552 = CARTESIAN_POINT('',(1.1323735E+03,35.100182,316.4005));
#553 = CARTESIAN_POINT('',(1.1467743E+03,7.6697307,310.00554));
#554 = CARTESIAN_POINT('',(1.1582672E+03,-19.974409,303.63255));
#555 = CARTESIAN_POINT('',(1.1640001E+03,-48.067862,297.3058));
#556 = CARTESIAN_POINT('',(1.1630478E+03,-76.810456,291.0033));
#557 = PCURVE('',#70,#558);
#558 = DEFINITIONAL_REPRESENTATION('',(#559),#571);
#559 = B_SPLINE_CURVE_WITH_KNOTS('',10,(#560,#561,#562,#563,#564,#565,
    #566,#567,#568,#569,#570),.UNSPECIFIED.,.F.,.F.,(11,11),(0.,1.),
  .PIECEWISE_BEZIER_KNOTS.);
#560 = CARTESIAN_POINT('',(0.27625208,0.59323179));
#561 = CARTESIAN_POINT('',(0.2357816,0.55595548));
#562 = CARTESIAN_POINT('',(0.19725908,0.51867413));
#563 = CARTESIAN_POINT('',(0.16103002,0.48134976));
#564 = CARTESIAN_POINT('',(0.12754868,0.44392563));
#565 = CARTESIAN_POINT('',(9.7404474E-02,0.40631735));
#566 = CARTESIAN_POINT('',(7.1340701E-02,0.36840082));
#567 = CARTESIAN_POINT('',(5.0230939E-02,0.33000182));
#568 = CARTESIAN_POINT('',(3.4947657E-02,0.29090149));
#569 = CARTESIAN_POINT('',(2.6079713E-02,0.25087791));
#570 = CARTESIAN_POINT('',(2.3812361E-02,0.20975384));
#571 = ( GEOMETRIC_REPRESENTATION_CONTEXT(2) 
PARAMETRIC_REPRESENTATION_CONTEXT() REPRESENTATION_CONTEXT('2D SPACE',''
  ) );
#572 = ORIENTED_EDGE('',*,*,#573,.F.);
#573 = EDGE_CURVE('',#53,#547,#574,.T.);
#574 = SURFACE_CURVE('',#575,(#582,#594),.PCURVE_S1.);
#575 = B_SPLINE_CURVE_WITH_KNOTS('',5,(#576,#577,#578,#579,#580,#581),
  .UNSPECIFIED.,.F.,.F.,(6,6),(0.,1.),.PIECEWISE_BEZIER_KNOTS.);
#576 = CARTESIAN_POINT('',(995.00702,-100.02023,214.29236));
#577 = CARTESIAN_POINT('',(1.0266743E+03,-88.276384,238.02562));
#578 = CARTESIAN_POINT('',(1.0595335E+03,-79.824381,257.95006));
#579 = CARTESIAN_POINT('',(1.0932658E+03,-75.005015,273.55257));
#580 = CARTESIAN_POINT('',(1.1278674E+03,-74.010833,284.58448));
#581 = CARTESIAN_POINT('',(1.1630478E+03,-76.810456,291.0033));
#582 = PCURVE('',#70,#583);
#583 = DEFINITIONAL_REPRESENTATION('',(#584),#593);
#584 = B_SPLINE_CURVE_WITH_KNOTS('',7,(#585,#586,#587,#588,#589,#590,
    #591,#592),.UNSPECIFIED.,.F.,.F.,(8,8),(0.,1.),
  .PIECEWISE_BEZIER_KNOTS.);
#585 = CARTESIAN_POINT('',(0.97618764,2.3810667E-02));
#586 = CARTESIAN_POINT('',(0.83871376,6.579394E-02));
#587 = CARTESIAN_POINT('',(0.70206401,0.10376944));
#588 = CARTESIAN_POINT('',(0.56613248,0.13675748));
#589 = CARTESIAN_POINT('',(0.43066647,0.16403079));
#590 = CARTESIAN_POINT('',(0.2953452,0.18524495));
#591 = CARTESIAN_POINT('',(0.15983321,0.2004005));
#592 = CARTESIAN_POINT('',(2.3812361E-02,0.20975384));
#593 = ( GEOMETRIC_REPRESENTATION_CONTEXT(2) 
PARAMETRIC_REPRESENTATION_CONTEXT() REPRESENTATION_CONTEXT('2D SPACE',''
  ) );
#594 = PCURVE('',#283,#595);
#595 = DEFINITIONAL_REPRESENTATION('',(#596),#599);
#596 = B_SPLINE_CURVE_WITH_KNOTS('',1,(#597,#598),.UNSPECIFIED.,.F.,.F.,
  (2,2),(0.,1.),.PIECEWISE_BEZIER_KNOTS.);
#597 = CARTESIAN_POINT('',(0.97618952,2.3810476E-02));
#598 = CARTESIAN_POINT('',(0.97618952,0.97618952));
#599 = ( GEOMETRIC_REPRESENTATION_CONTEXT(2) 
PARAMETRIC_REPRESENTATION_CONTEXT() REPRESENTATION_CONTEXT('2D SPACE',''
  ) );
#600 = ADVANCED_FACE('',(#601),#283,.T.);
#601 = FACE_BOUND('',#602,.T.);
#602 = EDGE_LOOP('',(#603,#617,#618,#619));
#603 = ORIENTED_EDGE('',*,*,#604,.F.);
#604 = EDGE_CURVE('',#268,#605,#607,.T.);
#605 = VERTEX_POINT('',#606);
#606 = CARTESIAN_POINT('',(1.2549378E+03,-142.56747,234.21041));
#607 = SURFACE_CURVE('',#608,(#611),.PCURVE_S1.);
#608 = B_SPLINE_CURVE_WITH_KNOTS('',1,(#609,#610),.UNSPECIFIED.,.F.,.F.,
  (2,2),(0.,1.),.PIECEWISE_BEZIER_KNOTS.);
#609 = CARTESIAN_POINT('',(1.2549378E+03,-160.04597,200.96916));
#610 = CARTESIAN_POINT('',(1.2549378E+03,-142.56747,234.21041));
#611 = PCURVE('',#283,#612);
#612 = DEFINITIONAL_REPRESENTATION('',(#613),#616);
#613 = B_SPLINE_CURVE_WITH_KNOTS('',1,(#614,#615),.UNSPECIFIED.,.F.,.F.,
  (2,2),(0.,1.),.PIECEWISE_BEZIER_KNOTS.);
#614 = CARTESIAN_POINT('',(2.3810476E-02,2.3810476E-02));
#615 = CARTESIAN_POINT('',(2.3810476E-02,0.97618952));
#616 = ( GEOMETRIC_REPRESENTATION_CONTEXT(2) 
PARAMETRIC_REPRESENTATION_CONTEXT() REPRESENTATION_CONTEXT('2D SPACE',''
  ) );
#617 = ORIENTED_EDGE('',*,*,#267,.F.);
#618 = ORIENTED_EDGE('',*,*,#573,.T.);
#619 = ORIENTED_EDGE('',*,*,#620,.F.);
#620 = EDGE_CURVE('',#605,#547,#621,.T.);
#621 = SURFACE_CURVE('',#622,(#629),.PCURVE_S1.);
#622 = B_SPLINE_CURVE_WITH_KNOTS('',5,(#623,#624,#625,#626,#627,#628),
  .UNSPECIFIED.,.F.,.F.,(6,6),(0.,1.),.PIECEWISE_BEZIER_KNOTS.);
#623 = CARTESIAN_POINT('',(1.2549378E+03,-142.56747,234.21041));
#624 = CARTESIAN_POINT('',(1.2330758E+03,-136.07786,236.19703));
#625 = CARTESIAN_POINT('',(1.2115691E+03,-125.7159,243.16371));
#626 = CARTESIAN_POINT('',(1.1924386E+03,-112.06357,254.93417));
#627 = CARTESIAN_POINT('',(1.1770113E+03,-95.738776,271.12431));
#628 = CARTESIAN_POINT('',(1.1630478E+03,-76.810456,291.0033));
#629 = PCURVE('',#283,#630);
#630 = DEFINITIONAL_REPRESENTATION('',(#631),#634);
#631 = B_SPLINE_CURVE_WITH_KNOTS('',1,(#632,#633),.UNSPECIFIED.,.F.,.F.,
  (2,2),(0.,1.),.PIECEWISE_BEZIER_KNOTS.);
#632 = CARTESIAN_POINT('',(2.3810476E-02,0.97618952));
#633 = CARTESIAN_POINT('',(0.97618952,0.97618952));
#634 = ( GEOMETRIC_REPRESENTATION_CONTEXT(2) 
PARAMETRIC_REPRESENTATION_CONTEXT() REPRESENTATION_CONTEXT('2D SPACE',''
  ) );
#635 = ( GEOMETRIC_REPRESENTATION_CONTEXT(3) 
GLOBAL_UNCERTAINTY_ASSIGNED_CONTEXT((#639)) GLOBAL_UNIT_ASSIGNED_CONTEXT
((#636,#637,#638)) REPRESENTATION_CONTEXT('Context #1',
  '3D Context with UNIT and UNCERTAINTY') );
#636 = ( LENGTH_UNIT() NAMED_UNIT(*) SI_UNIT(.MILLI.,.METRE.) );
#637 = ( NAMED_UNIT(*) PLANE_ANGLE_UNIT() SI_UNIT($,.RADIAN.) );
#638 = ( NAMED_UNIT(*) SI_UNIT($,.STERADIAN.) SOLID_ANGLE_UNIT() );
#639 = UNCERTAINTY_MEASURE_WITH_UNIT(LENGTH_MEASURE(1.E-02),#636,
  'distance_accuracy_value','confusion accuracy');
#640 = PRODUCT_RELATED_PRODUCT_CATEGORY('part',$,(#7));
ENDSEC;
END-ISO-10303-21;
