ISO-10303-21;
HEADER;
FILE_DESCRIPTION(('Open CASCADE Model'),'2;1');
FILE_NAME('Open CASCADE Shape Model','2026-07-11T20:16:05',('Author'),(
    'Open CASCADE'),'Open CASCADE STEP processor 8.0','Open CASCADE 8.0'
  ,'Unknown');
FILE_SCHEMA(('AUTOMOTIVE_DESIGN { 1 0 10303 214 1 1 1 1 }'));
ENDSEC;
DATA;
#1 = APPLICATION_PROTOCOL_DEFINITION('international standard',
  'automotive_design',2000,#2);
#2 = APPLICATION_CONTEXT(
  'core data for automotive mechanical design processes');
#3 = SHAPE_DEFINITION_REPRESENTATION(#4,#10);
#4 = PRODUCT_DEFINITION_SHAPE('','',#5);
#5 = PRODUCT_DEFINITION('design','',#6,#9);
#6 = PRODUCT_DEFINITION_FORMATION('','',#7);
#7 = PRODUCT('Open CASCADE STEP translator 8.0 1',
  'Open CASCADE STEP translator 8.0 1','',(#8));
#8 = PRODUCT_CONTEXT('',#2,'mechanical');
#9 = PRODUCT_DEFINITION_CONTEXT('part definition',#2,'design');
#10 = MANIFOLD_SURFACE_SHAPE_REPRESENTATION('',(#11,#15),#594);
#11 = AXIS2_PLACEMENT_3D('',#12,#13,#14);
#12 = CARTESIAN_POINT('',(0.,0.,0.));
#13 = DIRECTION('',(0.,0.,1.));
#14 = DIRECTION('',(1.,0.,-0.));
#15 = SHELL_BASED_SURFACE_MODEL('',(#16));
#16 = OPEN_SHELL('',(#17,#258,#373,#488,#553));
#17 = ADVANCED_FACE('',(#18),#36,.T.);
#18 = FACE_BOUND('',#19,.T.);
#19 = EDGE_LOOP('',(#20,#147,#166,#185));
#20 = ORIENTED_EDGE('',*,*,#21,.T.);
#21 = EDGE_CURVE('',#22,#24,#26,.T.);
#22 = VERTEX_POINT('',#23);
#23 = CARTESIAN_POINT('',(9.4865492,482.79894,840.));
#24 = VERTEX_POINT('',#25);
#25 = CARTESIAN_POINT('',(-248.1337199999,1.36958672E+03,
    -2.22044604925E-13));
#26 = SURFACE_CURVE('',#27,(#35,#91),.PCURVE_S1.);
#27 = B_SPLINE_CURVE_WITH_KNOTS('',6,(#28,#29,#30,#31,#32,#33,#34),
  .UNSPECIFIED.,.F.,.F.,(7,7),(0.,1.),.PIECEWISE_BEZIER_KNOTS.);
#28 = CARTESIAN_POINT('',(9.4865492,482.79894,840.));
#29 = CARTESIAN_POINT('',(-33.450164,630.5969,700.));
#30 = CARTESIAN_POINT('',(-76.386876,778.39486,560.));
#31 = CARTESIAN_POINT('',(-376.24302,1.12333352E+03,658.7146));
#32 = CARTESIAN_POINT('',(-214.8658,1.25507092E+03,108.47384));
#33 = CARTESIAN_POINT('',(-205.19702,1.22178876E+03,140.));
#34 = CARTESIAN_POINT('',(-248.13372,1.36958672E+03,-1.8189894E-12));
#35 = PCURVE('',#36,#86);
#36 = B_SPLINE_SURFACE_WITH_KNOTS('',6,6,(
    (#37,#38,#39,#40,#41,#42,#43)
    ,(#44,#45,#46,#47,#48,#49,#50)
    ,(#51,#52,#53,#54,#55,#56,#57)
    ,(#58,#59,#60,#61,#62,#63,#64)
    ,(#65,#66,#67,#68,#69,#70,#71)
    ,(#72,#73,#74,#75,#76,#77,#78)
    ,(#79,#80,#81,#82,#83,#84,#85
    )),.UNSPECIFIED.,.F.,.F.,.F.,(7,7),(7,7),(0.,1.),(0.,1.),
  .PIECEWISE_BEZIER_KNOTS.);
#37 = CARTESIAN_POINT('',(9.4865492,482.79894,840.));
#38 = CARTESIAN_POINT('',(-95.659924,546.49002,700.));
#39 = CARTESIAN_POINT('',(-210.16386,615.84928,547.54076));
#40 = CARTESIAN_POINT('',(-665.41608,551.59132,465.16122));
#41 = CARTESIAN_POINT('',(-411.09934,737.56328,280.));
#42 = CARTESIAN_POINT('',(-516.24582,801.25436,140.));
#43 = CARTESIAN_POINT('',(-621.3923,864.94544,1.70530256E-13));
#44 = CARTESIAN_POINT('',(-33.450164,630.5969,700.));
#45 = CARTESIAN_POINT('',(-138.596638,694.28798,560.));
#46 = CARTESIAN_POINT('',(-252.7043,763.40718,408.0684));
#47 = CARTESIAN_POINT('',(-707.59434,673.89714,326.29914));
#48 = CARTESIAN_POINT('',(-454.03606,885.36124,140.));
#49 = CARTESIAN_POINT('',(-559.18254,949.05232,-2.842171E-13));
#50 = CARTESIAN_POINT('',(-664.329,1.0127434E+03,-140.));
#51 = CARTESIAN_POINT('',(-76.386876,778.39486,560.));
#52 = CARTESIAN_POINT('',(-187.494352,862.60508,400.56348));
#53 = CARTESIAN_POINT('',(-307.16672,952.00336,229.723));
#54 = CARTESIAN_POINT('',(-767.65562,857.76036,129.1275));
#55 = CARTESIAN_POINT('',(-520.81678,1.11523572E+03,-77.746084));
#56 = CARTESIAN_POINT('',(-631.92426,1.19944592E+03,-237.1826));
#57 = CARTESIAN_POINT('',(-743.03174,1.28365614E+03,-396.61912));
#58 = CARTESIAN_POINT('',(-376.24302,1.12333352E+03,658.7146));
#59 = CARTESIAN_POINT('',(-522.28212,1.16241874E+03,512.33334));
#60 = CARTESIAN_POINT('',(-676.48982,1.20645198E+03,355.0758));
#61 = CARTESIAN_POINT('',(-1.17154816E+03,1.04183188E+03,268.14584));
#62 = CARTESIAN_POINT('',(-960.3994,1.2796744E+03,73.189608));
#63 = CARTESIAN_POINT('',(-1.10643848E+03,1.31875962E+03,-73.191638));
#64 = CARTESIAN_POINT('',(-1.25247758E+03,1.35784484E+03,-219.57288));
#65 = CARTESIAN_POINT('',(-214.8658,1.25507092E+03,108.47384));
#66 = CARTESIAN_POINT('',(-311.24468,1.28858198E+03,-2.9384662));
#67 = CARTESIAN_POINT('',(-415.3959,1.32680102E+03,-124.699434));
#68 = CARTESIAN_POINT('',(-860.43188,1.13135466E+03,-176.050174));
#69 = CARTESIAN_POINT('',(-600.38136,1.38911516E+03,-337.17538));
#70 = CARTESIAN_POINT('',(-696.76026,1.42262622E+03,-448.5877));
#71 = CARTESIAN_POINT('',(-793.13914,1.45613728E+03,-560.));
#72 = CARTESIAN_POINT('',(-205.19702,1.22178876E+03,140.));
#73 = CARTESIAN_POINT('',(-310.34348,1.28547984E+03,-6.252776E-13));
#74 = CARTESIAN_POINT('',(-422.866,1.35363886E+03,-149.821014));
#75 = CARTESIAN_POINT('',(-876.3074,1.16312042E+03,-229.14918));
#76 = CARTESIAN_POINT('',(-625.7829,1.47655308E+03,-420.));
#77 = CARTESIAN_POINT('',(-730.92938,1.54024416E+03,-560.));
#78 = CARTESIAN_POINT('',(-836.07586,1.60393524E+03,-700.));
#79 = CARTESIAN_POINT('',(-248.13372,1.36958672E+03,-5.4569682E-12));
#80 = CARTESIAN_POINT('',(-353.2802,1.4332778E+03,-140.));
#81 = CARTESIAN_POINT('',(-465.40642,1.50119676E+03,-289.29336));
#82 = CARTESIAN_POINT('',(-918.48566,1.28542624E+03,-368.01126));
#83 = CARTESIAN_POINT('',(-668.71962,1.62435104E+03,-560.));
#84 = CARTESIAN_POINT('',(-773.8661,1.68804212E+03,-700.));
#85 = CARTESIAN_POINT('',(-879.01256,1.7517332E+03,-840.));
#86 = DEFINITIONAL_REPRESENTATION('',(#87),#90);
#87 = B_SPLINE_CURVE_WITH_KNOTS('',1,(#88,#89),.UNSPECIFIED.,.F.,.F.,(2,
    2),(0.,1.),.PIECEWISE_BEZIER_KNOTS.);
#88 = CARTESIAN_POINT('',(0.,0.));
#89 = CARTESIAN_POINT('',(1.,0.));
#90 = ( GEOMETRIC_REPRESENTATION_CONTEXT(2) 
PARAMETRIC_REPRESENTATION_CONTEXT() REPRESENTATION_CONTEXT('2D SPACE',''
  ) );
#91 = PCURVE('',#92,#142);
#92 = B_SPLINE_SURFACE_WITH_KNOTS('',6,6,(
    (#93,#94,#95,#96,#97,#98,#99)
    ,(#100,#101,#102,#103,#104,#105,#106)
    ,(#107,#108,#109,#110,#111,#112,#113)
    ,(#114,#115,#116,#117,#118,#119,#120)
    ,(#121,#122,#123,#124,#125,#126,#127)
    ,(#128,#129,#130,#131,#132,#133,#134)
    ,(#135,#136,#137,#138,#139,#140,#141
    )),.UNSPECIFIED.,.F.,.F.,.F.,(7,7),(7,7),(0.,1.),(0.,1.),
  .PIECEWISE_BEZIER_KNOTS.);
#93 = CARTESIAN_POINT('',(9.4865492,482.79894,840.));
#94 = CARTESIAN_POINT('',(-33.450164,630.5969,700.));
#95 = CARTESIAN_POINT('',(-76.386876,778.39486,560.));
#96 = CARTESIAN_POINT('',(-376.24302,1.12333352E+03,658.7146));
#97 = CARTESIAN_POINT('',(-214.8658,1.25507092E+03,108.47384));
#98 = CARTESIAN_POINT('',(-205.19702,1.22178876E+03,140.));
#99 = CARTESIAN_POINT('',(-248.13372,1.36958672E+03,-2.7284842E-12));
#100 = CARTESIAN_POINT('',(87.334084,571.97616,700.));
#101 = CARTESIAN_POINT('',(44.397372,719.77412,560.));
#102 = CARTESIAN_POINT('',(-1.37035944,877.31708,410.76914));
#103 = CARTESIAN_POINT('',(-340.00494,1.20703378E+03,491.76776));
#104 = CARTESIAN_POINT('',(-128.25068,1.3140681E+03,-2.9384662));
#105 = CARTESIAN_POINT('',(-127.34948,1.31096596E+03,9.6633812E-13));
#106 = CARTESIAN_POINT('',(-170.286192,1.45876392E+03,-140.));
#107 = CARTESIAN_POINT('',(165.18162,661.15336,560.));
#108 = CARTESIAN_POINT('',(122.427482,809.16046,419.67166));
#109 = CARTESIAN_POINT('',(74.011308,976.6576,260.8816));
#110 = CARTESIAN_POINT('',(-303.21914,1.29136146E+03,323.83592));
#111 = CARTESIAN_POINT('',(-40.90526,1.37390188E+03,-115.664138));
#112 = CARTESIAN_POINT('',(-48.589068,1.4011889E+03,-141.641706));
#113 = CARTESIAN_POINT('',(-91.343204,1.549196E+03,-281.97004));
#114 = CARTESIAN_POINT('',(15.3064968,1.09403506E+03,432.50446));
#115 = CARTESIAN_POINT('',(-47.9006,1.23799402E+03,291.86814));
#116 = CARTESIAN_POINT('',(-119.600752,1.411188E+03,123.539238));
#117 = CARTESIAN_POINT('',(-556.0626,1.70662174E+03,168.469574));
#118 = CARTESIAN_POINT('',(-263.82464,1.76041092E+03,-215.80394));
#119 = CARTESIAN_POINT('',(-300.72898,1.8138298E+03,-270.6772));
#120 = CARTESIAN_POINT('',(-363.93608,1.95778874E+03,-411.31352));
#121 = CARTESIAN_POINT('',(332.09406,852.3577,259.82682));
#122 = CARTESIAN_POINT('',(287.2878,998.014,123.189014));
#123 = CARTESIAN_POINT('',(231.15744,1.18265034E+03,-50.372208));
#124 = CARTESIAN_POINT('',(-225.68202,1.4645595E+03,-19.1593166));
#125 = CARTESIAN_POINT('',(135.333798,1.49534296E+03,-343.89978));
#126 = CARTESIAN_POINT('',(108.062688,1.58063924E+03,-423.3622));
#127 = CARTESIAN_POINT('',(63.256414,1.72629554E+03,-560.));
#128 = CARTESIAN_POINT('',(398.72422,928.68498,140.));
#129 = CARTESIAN_POINT('',(355.78752,1.07648294E+03,5.6843418E-14));
#130 = CARTESIAN_POINT('',(298.6957,1.27300596E+03,-186.154272));
#131 = CARTESIAN_POINT('',(-195.052634,1.5418348E+03,-176.019554));
#132 = CARTESIAN_POINT('',(218.2098,1.55005684E+03,-448.5877));
#133 = CARTESIAN_POINT('',(184.040662,1.66767478E+03,-560.));
#134 = CARTESIAN_POINT('',(141.103948,1.81547274E+03,-700.));
#135 = CARTESIAN_POINT('',(476.57176,1.01786218E+03,3.6948222E-13));
#136 = CARTESIAN_POINT('',(433.63504,1.16566016E+03,-140.));
#137 = CARTESIAN_POINT('',(373.71222,1.37192818E+03,-335.38512));
#138 = CARTESIAN_POINT('',(-158.814558,1.62553504E+03,-342.96638));
#139 = CARTESIAN_POINT('',(304.8249,1.60905404E+03,-560.));
#140 = CARTESIAN_POINT('',(261.8882,1.756852E+03,-700.));
#141 = CARTESIAN_POINT('',(218.95148,1.90464996E+03,-840.));
#142 = DEFINITIONAL_REPRESENTATION('',(#143),#146);
#143 = B_SPLINE_CURVE_WITH_KNOTS('',1,(#144,#145),.UNSPECIFIED.,.F.,.F.,
  (2,2),(0.,1.),.PIECEWISE_BEZIER_KNOTS.);
#144 = CARTESIAN_POINT('',(0.,0.));
#145 = CARTESIAN_POINT('',(0.,1.));
#146 = ( GEOMETRIC_REPRESENTATION_CONTEXT(2) 
PARAMETRIC_REPRESENTATION_CONTEXT() REPRESENTATION_CONTEXT('2D SPACE',''
  ) );
#147 = ORIENTED_EDGE('',*,*,#148,.T.);
#148 = EDGE_CURVE('',#24,#149,#151,.T.);
#149 = VERTEX_POINT('',#150);
#150 = CARTESIAN_POINT('',(-879.01256,1.7517332E+03,-840.));
#151 = SURFACE_CURVE('',#152,(#160),.PCURVE_S1.);
#152 = B_SPLINE_CURVE_WITH_KNOTS('',6,(#153,#154,#155,#156,#157,#158,
    #159),.UNSPECIFIED.,.F.,.F.,(7,7),(0.,1.),.PIECEWISE_BEZIER_KNOTS.);
#153 = CARTESIAN_POINT('',(-248.13372,1.36958672E+03,-3.6379788E-12));
#154 = CARTESIAN_POINT('',(-353.2802,1.4332778E+03,-140.));
#155 = CARTESIAN_POINT('',(-465.40642,1.50119676E+03,-289.29336));
#156 = CARTESIAN_POINT('',(-918.48566,1.28542624E+03,-368.01126));
#157 = CARTESIAN_POINT('',(-668.71962,1.62435104E+03,-560.));
#158 = CARTESIAN_POINT('',(-773.8661,1.68804212E+03,-700.));
#159 = CARTESIAN_POINT('',(-879.01256,1.7517332E+03,-840.));
#160 = PCURVE('',#36,#161);
#161 = DEFINITIONAL_REPRESENTATION('',(#162),#165);
#162 = B_SPLINE_CURVE_WITH_KNOTS('',1,(#163,#164),.UNSPECIFIED.,.F.,.F.,
  (2,2),(0.,1.),.PIECEWISE_BEZIER_KNOTS.);
#163 = CARTESIAN_POINT('',(1.,0.));
#164 = CARTESIAN_POINT('',(1.,1.));
#165 = ( GEOMETRIC_REPRESENTATION_CONTEXT(2) 
PARAMETRIC_REPRESENTATION_CONTEXT() REPRESENTATION_CONTEXT('2D SPACE',''
  ) );
#166 = ORIENTED_EDGE('',*,*,#167,.F.);
#167 = EDGE_CURVE('',#168,#149,#170,.T.);
#168 = VERTEX_POINT('',#169);
#169 = CARTESIAN_POINT('',(-621.3923,864.94544,0.));
#170 = SURFACE_CURVE('',#171,(#179),.PCURVE_S1.);
#171 = B_SPLINE_CURVE_WITH_KNOTS('',6,(#172,#173,#174,#175,#176,#177,
    #178),.UNSPECIFIED.,.F.,.F.,(7,7),(0.,1.),.PIECEWISE_BEZIER_KNOTS.);
#172 = CARTESIAN_POINT('',(-621.3923,864.94544,0.));
#173 = CARTESIAN_POINT('',(-664.329,1.0127434E+03,-140.));
#174 = CARTESIAN_POINT('',(-743.03174,1.28365614E+03,-396.61912));
#175 = CARTESIAN_POINT('',(-1.25247758E+03,1.35784484E+03,-219.57288));
#176 = CARTESIAN_POINT('',(-793.13914,1.45613728E+03,-560.));
#177 = CARTESIAN_POINT('',(-836.07586,1.60393524E+03,-700.));
#178 = CARTESIAN_POINT('',(-879.01256,1.7517332E+03,-840.));
#179 = PCURVE('',#36,#180);
#180 = DEFINITIONAL_REPRESENTATION('',(#181),#184);
#181 = B_SPLINE_CURVE_WITH_KNOTS('',1,(#182,#183),.UNSPECIFIED.,.F.,.F.,
  (2,2),(0.,1.),.PIECEWISE_BEZIER_KNOTS.);
#182 = CARTESIAN_POINT('',(0.,1.));
#183 = CARTESIAN_POINT('',(1.,1.));
#184 = ( GEOMETRIC_REPRESENTATION_CONTEXT(2) 
PARAMETRIC_REPRESENTATION_CONTEXT() REPRESENTATION_CONTEXT('2D SPACE',''
  ) );
#185 = ORIENTED_EDGE('',*,*,#186,.F.);
#186 = EDGE_CURVE('',#22,#168,#187,.T.);
#187 = SURFACE_CURVE('',#188,(#196,#202),.PCURVE_S1.);
#188 = B_SPLINE_CURVE_WITH_KNOTS('',6,(#189,#190,#191,#192,#193,#194,
    #195),.UNSPECIFIED.,.F.,.F.,(7,7),(0.,1.),.PIECEWISE_BEZIER_KNOTS.);
#189 = CARTESIAN_POINT('',(9.4865492,482.79894,840.));
#190 = CARTESIAN_POINT('',(-95.659924,546.49002,700.));
#191 = CARTESIAN_POINT('',(-210.16386,615.84928,547.54076));
#192 = CARTESIAN_POINT('',(-665.41608,551.59132,465.16122));
#193 = CARTESIAN_POINT('',(-411.09934,737.56328,280.));
#194 = CARTESIAN_POINT('',(-516.24582,801.25436,140.));
#195 = CARTESIAN_POINT('',(-621.3923,864.94544,-5.1159076E-13));
#196 = PCURVE('',#36,#197);
#197 = DEFINITIONAL_REPRESENTATION('',(#198),#201);
#198 = B_SPLINE_CURVE_WITH_KNOTS('',1,(#199,#200),.UNSPECIFIED.,.F.,.F.,
  (2,2),(0.,1.),.PIECEWISE_BEZIER_KNOTS.);
#199 = CARTESIAN_POINT('',(0.,0.));
#200 = CARTESIAN_POINT('',(0.,1.));
#201 = ( GEOMETRIC_REPRESENTATION_CONTEXT(2) 
PARAMETRIC_REPRESENTATION_CONTEXT() REPRESENTATION_CONTEXT('2D SPACE',''
  ) );
#202 = PCURVE('',#203,#253);
#203 = B_SPLINE_SURFACE_WITH_KNOTS('',6,6,(
    (#204,#205,#206,#207,#208,#209,#210)
    ,(#211,#212,#213,#214,#215,#216,#217)
    ,(#218,#219,#220,#221,#222,#223,#224)
    ,(#225,#226,#227,#228,#229,#230,#231)
    ,(#232,#233,#234,#235,#236,#237,#238)
    ,(#239,#240,#241,#242,#243,#244,#245)
    ,(#246,#247,#248,#249,#250,#251,#252
    )),.UNSPECIFIED.,.F.,.F.,.F.,(7,7),(7,7),(0.,1.),(0.,1.),
  .PIECEWISE_BEZIER_KNOTS.);
#204 = CARTESIAN_POINT('',(9.4865492,482.79894,840.));
#205 = CARTESIAN_POINT('',(-95.659924,546.49002,700.));
#206 = CARTESIAN_POINT('',(-210.16386,615.84928,547.54076));
#207 = CARTESIAN_POINT('',(-665.41608,551.59132,465.16122));
#208 = CARTESIAN_POINT('',(-411.09934,737.56328,280.));
#209 = CARTESIAN_POINT('',(-516.24582,801.25436,140.));
#210 = CARTESIAN_POINT('',(-621.3923,864.94544,1.70530256E-13));
#211 = CARTESIAN_POINT('',(-7.1919636,358.78146,700.));
#212 = CARTESIAN_POINT('',(-112.338438,422.47254,560.));
#213 = CARTESIAN_POINT('',(-226.68136,491.73424,407.75516));
#214 = CARTESIAN_POINT('',(-665.2277,409.13876,325.08002));
#215 = CARTESIAN_POINT('',(-427.77786,613.54578,140.));
#216 = CARTESIAN_POINT('',(-532.92434,677.23686,1.98951966E-13));
#217 = CARTESIAN_POINT('',(-638.0708,740.92794,-140.));
#218 = CARTESIAN_POINT('',(-23.870476,234.76396,560.));
#219 = CARTESIAN_POINT('',(-129.01695,298.45504,420.));
#220 = CARTESIAN_POINT('',(-243.19884,367.61922,267.96956));
#221 = CARTESIAN_POINT('',(-665.0393,266.6862,184.998818));
#222 = CARTESIAN_POINT('',(-444.45638,489.5283,5.6843418E-14));
#223 = CARTESIAN_POINT('',(-549.60284,553.21938,-140.));
#224 = CARTESIAN_POINT('',(-654.74932,616.91046,-280.));
#225 = CARTESIAN_POINT('',(-477.5871,303.82004,427.7049));
#226 = CARTESIAN_POINT('',(-559.48784,345.29726,289.15266));
#227 = CARTESIAN_POINT('',(-650.26298,392.15002,138.784406));
#228 = CARTESIAN_POINT('',(-1.03215184E+03,250.6656,56.965824));
#229 = CARTESIAN_POINT('',(-805.19008,469.72892,-126.504024));
#230 = CARTESIAN_POINT('',(-887.09082,511.20614,-265.05626));
#231 = CARTESIAN_POINT('',(-968.99158,552.68336,-403.60848));
#232 = CARTESIAN_POINT('',(-55.427178,0.11576998,295.11198));
#233 = CARTESIAN_POINT('',(-160.817438,61.994108,153.065624));
#234 = CARTESIAN_POINT('',(-274.92106,129.150446,-0.5823622));
#235 = CARTESIAN_POINT('',(-663.59356,-10.270393,-86.19068));
#236 = CARTESIAN_POINT('',(-476.98822,247.62912,-273.07346));
#237 = CARTESIAN_POINT('',(-582.37848,309.50746,-415.11982));
#238 = CARTESIAN_POINT('',(-687.76874,371.3858,-557.16618));
#239 = CARTESIAN_POINT('',(-73.906014,-137.288508,140.));
#240 = CARTESIAN_POINT('',(-179.052488,-73.597426,2.842171E-14));
#241 = CARTESIAN_POINT('',(-292.7513,-4.7258826,-151.387222));
#242 = CARTESIAN_POINT('',(-664.47414,-160.671512,-235.24478));
#243 = CARTESIAN_POINT('',(-494.4919,117.475822,-420.));
#244 = CARTESIAN_POINT('',(-599.63838,181.166904,-560.));
#245 = CARTESIAN_POINT('',(-704.78486,244.85798,-700.));
#246 = CARTESIAN_POINT('',(-90.584526,-261.306,2.842171E-14));
#247 = CARTESIAN_POINT('',(-195.731,-197.614916,-140.));
#248 = CARTESIAN_POINT('',(-309.26878,-128.840914,-291.17282));
#249 = CARTESIAN_POINT('',(-664.28576,-303.12408,-375.32598));
#250 = CARTESIAN_POINT('',(-511.17042,-6.5416696,-560.));
#251 = CARTESIAN_POINT('',(-616.3169,57.149412,-700.));
#252 = CARTESIAN_POINT('',(-721.46336,120.840494,-840.));
#253 = DEFINITIONAL_REPRESENTATION('',(#254),#257);
#254 = B_SPLINE_CURVE_WITH_KNOTS('',1,(#255,#256),.UNSPECIFIED.,.F.,.F.,
  (2,2),(0.,1.),.PIECEWISE_BEZIER_KNOTS.);
#255 = CARTESIAN_POINT('',(0.,0.));
#256 = CARTESIAN_POINT('',(0.,1.));
#257 = ( GEOMETRIC_REPRESENTATION_CONTEXT(2) 
PARAMETRIC_REPRESENTATION_CONTEXT() REPRESENTATION_CONTEXT('2D SPACE',''
  ) );
#258 = ADVANCED_FACE('',(#259),#92,.T.);
#259 = FACE_BOUND('',#260,.T.);
#260 = EDGE_LOOP('',(#261,#336,#355,#372));
#261 = ORIENTED_EDGE('',*,*,#262,.T.);
#262 = EDGE_CURVE('',#22,#263,#265,.T.);
#263 = VERTEX_POINT('',#264);
#264 = CARTESIAN_POINT('',(476.57175999999,1.01786218E+03,
    2.22044604925E-13));
#265 = SURFACE_CURVE('',#266,(#274,#280),.PCURVE_S1.);
#266 = B_SPLINE_CURVE_WITH_KNOTS('',6,(#267,#268,#269,#270,#271,#272,
    #273),.UNSPECIFIED.,.F.,.F.,(7,7),(0.,1.),.PIECEWISE_BEZIER_KNOTS.);
#267 = CARTESIAN_POINT('',(9.4865492,482.79894,840.));
#268 = CARTESIAN_POINT('',(87.334084,571.97616,700.));
#269 = CARTESIAN_POINT('',(165.18162,661.15336,560.));
#270 = CARTESIAN_POINT('',(15.3064968,1.09403506E+03,432.50446));
#271 = CARTESIAN_POINT('',(332.09406,852.3577,259.82682));
#272 = CARTESIAN_POINT('',(398.72422,928.68498,140.));
#273 = CARTESIAN_POINT('',(476.57176,1.01786218E+03,1.70530256E-13));
#274 = PCURVE('',#92,#275);
#275 = DEFINITIONAL_REPRESENTATION('',(#276),#279);
#276 = B_SPLINE_CURVE_WITH_KNOTS('',1,(#277,#278),.UNSPECIFIED.,.F.,.F.,
  (2,2),(0.,1.),.PIECEWISE_BEZIER_KNOTS.);
#277 = CARTESIAN_POINT('',(0.,0.));
#278 = CARTESIAN_POINT('',(1.,0.));
#279 = ( GEOMETRIC_REPRESENTATION_CONTEXT(2) 
PARAMETRIC_REPRESENTATION_CONTEXT() REPRESENTATION_CONTEXT('2D SPACE',''
  ) );
#280 = PCURVE('',#281,#331);
#281 = B_SPLINE_SURFACE_WITH_KNOTS('',6,6,(
    (#282,#283,#284,#285,#286,#287,#288)
    ,(#289,#290,#291,#292,#293,#294,#295)
    ,(#296,#297,#298,#299,#300,#301,#302)
    ,(#303,#304,#305,#306,#307,#308,#309)
    ,(#310,#311,#312,#313,#314,#315,#316)
    ,(#317,#318,#319,#320,#321,#322,#323)
    ,(#324,#325,#326,#327,#328,#329,#330
    )),.UNSPECIFIED.,.F.,.F.,.F.,(7,7),(7,7),(0.,1.),(0.,1.),
  .PIECEWISE_BEZIER_KNOTS.);
#282 = CARTESIAN_POINT('',(9.4865492,482.79894,840.));
#283 = CARTESIAN_POINT('',(107.05543,385.64156,700.));
#284 = CARTESIAN_POINT('',(204.62432,288.48416,560.));
#285 = CARTESIAN_POINT('',(581.53506,521.59368,380.44776));
#286 = CARTESIAN_POINT('',(401.34574,92.592392,277.72762));
#287 = CARTESIAN_POINT('',(497.33096,-2.988014,140.));
#288 = CARTESIAN_POINT('',(594.89984,-100.145406,-3.9790394E-13));
#289 = CARTESIAN_POINT('',(87.334084,571.97616,700.));
#290 = CARTESIAN_POINT('',(184.902966,474.81876,560.));
#291 = CARTESIAN_POINT('',(283.74392,376.39466,418.1747));
#292 = CARTESIAN_POINT('',(666.14482,593.7024,242.12512));
#293 = CARTESIAN_POINT('',(478.92934,182.03243,138.106354));
#294 = CARTESIAN_POINT('',(575.1785,86.189194,-8.5265128E-14));
#295 = CARTESIAN_POINT('',(672.74738,-10.968199,-140.));
#296 = CARTESIAN_POINT('',(165.18162,661.15336,560.));
#297 = CARTESIAN_POINT('',(262.7505,563.99596,420.));
#298 = CARTESIAN_POINT('',(362.86354,464.30514,276.34942));
#299 = CARTESIAN_POINT('',(750.75458,665.81112,103.802468));
#300 = CARTESIAN_POINT('',(556.51292,271.47246,-1.51491662));
#301 = CARTESIAN_POINT('',(653.02602,175.3664,-140.));
#302 = CARTESIAN_POINT('',(750.5949,78.209008,-280.));
#303 = CARTESIAN_POINT('',(15.3064968,1.09403506E+03,432.50446));
#304 = CARTESIAN_POINT('',(93.899704,978.54998,290.4556));
#305 = CARTESIAN_POINT('',(176.309156,859.26474,142.930872));
#306 = CARTESIAN_POINT('',(550.71464,1.02664126E+03,-28.162298));
#307 = CARTESIAN_POINT('',(330.47116,631.30622,-136.827168));
#308 = CARTESIAN_POINT('',(408.27254,516.60964,-277.73984));
#309 = CARTESIAN_POINT('',(486.86574,401.12454,-419.7887));
#310 = CARTESIAN_POINT('',(332.09406,852.3577,259.82682));
#311 = CARTESIAN_POINT('',(426.60344,751.69552,125.329004));
#312 = CARTESIAN_POINT('',(526.20114,645.96646,-16.469968));
#313 = CARTESIAN_POINT('',(922.01292,812.36412,-176.509444));
#314 = CARTESIAN_POINT('',(710.65944,449.18332,-278.9219));
#315 = CARTESIAN_POINT('',(804.64092,349.0468,-412.66224));
#316 = CARTESIAN_POINT('',(899.15028,248.38464,-547.16006));
#317 = CARTESIAN_POINT('',(398.72422,928.68498,140.));
#318 = CARTESIAN_POINT('',(496.2931,831.5276,8.5265128E-14));
#319 = CARTESIAN_POINT('',(600.2224,728.03662,-149.12645));
#320 = CARTESIAN_POINT('',(1.00458384E+03,882.13728,-311.16548));
#321 = CARTESIAN_POINT('',(789.2637,539.79258,-420.37872));
#322 = CARTESIAN_POINT('',(886.56864,442.89802,-560.));
#323 = CARTESIAN_POINT('',(984.13752,345.74062,-700.));
#324 = CARTESIAN_POINT('',(476.57176,1.01786218E+03,3.6948222E-13));
#325 = CARTESIAN_POINT('',(574.14064,920.7048,-140.));
#326 = CARTESIAN_POINT('',(679.34202,815.9471,-290.95174));
#327 = CARTESIAN_POINT('',(1.0891936E+03,954.246,-449.48812));
#328 = CARTESIAN_POINT('',(866.84728,629.23262,-560.));
#329 = CARTESIAN_POINT('',(964.41616,532.07522,-700.));
#330 = CARTESIAN_POINT('',(1.06198506E+03,434.91784,-840.));
#331 = DEFINITIONAL_REPRESENTATION('',(#332),#335);
#332 = B_SPLINE_CURVE_WITH_KNOTS('',1,(#333,#334),.UNSPECIFIED.,.F.,.F.,
  (2,2),(0.,1.),.PIECEWISE_BEZIER_KNOTS.);
#333 = CARTESIAN_POINT('',(0.,0.));
#334 = CARTESIAN_POINT('',(1.,0.));
#335 = ( GEOMETRIC_REPRESENTATION_CONTEXT(2) 
PARAMETRIC_REPRESENTATION_CONTEXT() REPRESENTATION_CONTEXT('2D SPACE',''
  ) );
#336 = ORIENTED_EDGE('',*,*,#337,.T.);
#337 = EDGE_CURVE('',#263,#338,#340,.T.);
#338 = VERTEX_POINT('',#339);
#339 = CARTESIAN_POINT('',(218.95147999999,1.90464996E+03,
    -839.9999999999));
#340 = SURFACE_CURVE('',#341,(#349),.PCURVE_S1.);
#341 = B_SPLINE_CURVE_WITH_KNOTS('',6,(#342,#343,#344,#345,#346,#347,
    #348),.UNSPECIFIED.,.F.,.F.,(7,7),(0.,1.),.PIECEWISE_BEZIER_KNOTS.);
#342 = CARTESIAN_POINT('',(476.57176,1.01786218E+03,4.5474736E-13));
#343 = CARTESIAN_POINT('',(433.63504,1.16566016E+03,-140.));
#344 = CARTESIAN_POINT('',(373.71222,1.37192818E+03,-335.38512));
#345 = CARTESIAN_POINT('',(-158.814558,1.62553504E+03,-342.96638));
#346 = CARTESIAN_POINT('',(304.8249,1.60905404E+03,-560.));
#347 = CARTESIAN_POINT('',(261.8882,1.756852E+03,-700.));
#348 = CARTESIAN_POINT('',(218.95148,1.90464996E+03,-840.));
#349 = PCURVE('',#92,#350);
#350 = DEFINITIONAL_REPRESENTATION('',(#351),#354);
#351 = B_SPLINE_CURVE_WITH_KNOTS('',1,(#352,#353),.UNSPECIFIED.,.F.,.F.,
  (2,2),(0.,1.),.PIECEWISE_BEZIER_KNOTS.);
#352 = CARTESIAN_POINT('',(1.,0.));
#353 = CARTESIAN_POINT('',(1.,1.));
#354 = ( GEOMETRIC_REPRESENTATION_CONTEXT(2) 
PARAMETRIC_REPRESENTATION_CONTEXT() REPRESENTATION_CONTEXT('2D SPACE',''
  ) );
#355 = ORIENTED_EDGE('',*,*,#356,.F.);
#356 = EDGE_CURVE('',#24,#338,#357,.T.);
#357 = SURFACE_CURVE('',#358,(#366),.PCURVE_S1.);
#358 = B_SPLINE_CURVE_WITH_KNOTS('',6,(#359,#360,#361,#362,#363,#364,
    #365),.UNSPECIFIED.,.F.,.F.,(7,7),(0.,1.),.PIECEWISE_BEZIER_KNOTS.);
#359 = CARTESIAN_POINT('',(-248.13372,1.36958672E+03,-9.094947E-13));
#360 = CARTESIAN_POINT('',(-170.286192,1.45876392E+03,-140.));
#361 = CARTESIAN_POINT('',(-91.343204,1.549196E+03,-281.97004));
#362 = CARTESIAN_POINT('',(-363.93608,1.95778874E+03,-411.31352));
#363 = CARTESIAN_POINT('',(63.256414,1.72629554E+03,-560.));
#364 = CARTESIAN_POINT('',(141.103948,1.81547274E+03,-700.));
#365 = CARTESIAN_POINT('',(218.95148,1.90464996E+03,-840.));
#366 = PCURVE('',#92,#367);
#367 = DEFINITIONAL_REPRESENTATION('',(#368),#371);
#368 = B_SPLINE_CURVE_WITH_KNOTS('',1,(#369,#370),.UNSPECIFIED.,.F.,.F.,
  (2,2),(0.,1.),.PIECEWISE_BEZIER_KNOTS.);
#369 = CARTESIAN_POINT('',(0.,1.));
#370 = CARTESIAN_POINT('',(1.,1.));
#371 = ( GEOMETRIC_REPRESENTATION_CONTEXT(2) 
PARAMETRIC_REPRESENTATION_CONTEXT() REPRESENTATION_CONTEXT('2D SPACE',''
  ) );
#372 = ORIENTED_EDGE('',*,*,#21,.F.);
#373 = ADVANCED_FACE('',(#374),#203,.F.);
#374 = FACE_BOUND('',#375,.T.);
#375 = EDGE_LOOP('',(#376,#377,#396,#415));
#376 = ORIENTED_EDGE('',*,*,#186,.T.);
#377 = ORIENTED_EDGE('',*,*,#378,.T.);
#378 = EDGE_CURVE('',#168,#379,#381,.T.);
#379 = VERTEX_POINT('',#380);
#380 = CARTESIAN_POINT('',(-721.46336,120.840494,-840.));
#381 = SURFACE_CURVE('',#382,(#390),.PCURVE_S1.);
#382 = B_SPLINE_CURVE_WITH_KNOTS('',6,(#383,#384,#385,#386,#387,#388,
    #389),.UNSPECIFIED.,.F.,.F.,(7,7),(0.,1.),.PIECEWISE_BEZIER_KNOTS.);
#383 = CARTESIAN_POINT('',(-621.3923,864.94544,0.));
#384 = CARTESIAN_POINT('',(-638.0708,740.92794,-140.));
#385 = CARTESIAN_POINT('',(-654.74932,616.91046,-280.));
#386 = CARTESIAN_POINT('',(-968.99158,552.68336,-403.60848));
#387 = CARTESIAN_POINT('',(-687.76874,371.3858,-557.16618));
#388 = CARTESIAN_POINT('',(-704.78486,244.85798,-700.));
#389 = CARTESIAN_POINT('',(-721.46336,120.840494,-840.));
#390 = PCURVE('',#203,#391);
#391 = DEFINITIONAL_REPRESENTATION('',(#392),#395);
#392 = B_SPLINE_CURVE_WITH_KNOTS('',1,(#393,#394),.UNSPECIFIED.,.F.,.F.,
  (2,2),(0.,1.),.PIECEWISE_BEZIER_KNOTS.);
#393 = CARTESIAN_POINT('',(0.,1.));
#394 = CARTESIAN_POINT('',(1.,1.));
#395 = ( GEOMETRIC_REPRESENTATION_CONTEXT(2) 
PARAMETRIC_REPRESENTATION_CONTEXT() REPRESENTATION_CONTEXT('2D SPACE',''
  ) );
#396 = ORIENTED_EDGE('',*,*,#397,.F.);
#397 = EDGE_CURVE('',#398,#379,#400,.T.);
#398 = VERTEX_POINT('',#399);
#399 = CARTESIAN_POINT('',(-90.584526,-261.306,0.));
#400 = SURFACE_CURVE('',#401,(#409),.PCURVE_S1.);
#401 = B_SPLINE_CURVE_WITH_KNOTS('',6,(#402,#403,#404,#405,#406,#407,
    #408),.UNSPECIFIED.,.F.,.F.,(7,7),(0.,1.),.PIECEWISE_BEZIER_KNOTS.);
#402 = CARTESIAN_POINT('',(-90.584526,-261.306,0.));
#403 = CARTESIAN_POINT('',(-195.731,-197.614916,-140.));
#404 = CARTESIAN_POINT('',(-309.26878,-128.840914,-291.17282));
#405 = CARTESIAN_POINT('',(-664.28576,-303.12408,-375.32598));
#406 = CARTESIAN_POINT('',(-511.17042,-6.5416696,-560.));
#407 = CARTESIAN_POINT('',(-616.3169,57.149412,-700.));
#408 = CARTESIAN_POINT('',(-721.46336,120.840494,-840.));
#409 = PCURVE('',#203,#410);
#410 = DEFINITIONAL_REPRESENTATION('',(#411),#414);
#411 = B_SPLINE_CURVE_WITH_KNOTS('',1,(#412,#413),.UNSPECIFIED.,.F.,.F.,
  (2,2),(0.,1.),.PIECEWISE_BEZIER_KNOTS.);
#412 = CARTESIAN_POINT('',(1.,0.));
#413 = CARTESIAN_POINT('',(1.,1.));
#414 = ( GEOMETRIC_REPRESENTATION_CONTEXT(2) 
PARAMETRIC_REPRESENTATION_CONTEXT() REPRESENTATION_CONTEXT('2D SPACE',''
  ) );
#415 = ORIENTED_EDGE('',*,*,#416,.F.);
#416 = EDGE_CURVE('',#22,#398,#417,.T.);
#417 = SURFACE_CURVE('',#418,(#426,#432),.PCURVE_S1.);
#418 = B_SPLINE_CURVE_WITH_KNOTS('',6,(#419,#420,#421,#422,#423,#424,
    #425),.UNSPECIFIED.,.F.,.F.,(7,7),(0.,1.),.PIECEWISE_BEZIER_KNOTS.);
#419 = CARTESIAN_POINT('',(9.4865492,482.79894,840.));
#420 = CARTESIAN_POINT('',(-7.1919636,358.78146,700.));
#421 = CARTESIAN_POINT('',(-23.870476,234.76396,560.));
#422 = CARTESIAN_POINT('',(-477.5871,303.82004,427.7049));
#423 = CARTESIAN_POINT('',(-55.427178,0.11576998,295.11198));
#424 = CARTESIAN_POINT('',(-73.906014,-137.288508,140.));
#425 = CARTESIAN_POINT('',(-90.584526,-261.306,8.5265128E-14));
#426 = PCURVE('',#203,#427);
#427 = DEFINITIONAL_REPRESENTATION('',(#428),#431);
#428 = B_SPLINE_CURVE_WITH_KNOTS('',1,(#429,#430),.UNSPECIFIED.,.F.,.F.,
  (2,2),(0.,1.),.PIECEWISE_BEZIER_KNOTS.);
#429 = CARTESIAN_POINT('',(0.,0.));
#430 = CARTESIAN_POINT('',(1.,0.));
#431 = ( GEOMETRIC_REPRESENTATION_CONTEXT(2) 
PARAMETRIC_REPRESENTATION_CONTEXT() REPRESENTATION_CONTEXT('2D SPACE',''
  ) );
#432 = PCURVE('',#433,#483);
#433 = B_SPLINE_SURFACE_WITH_KNOTS('',6,6,(
    (#434,#435,#436,#437,#438,#439,#440)
    ,(#441,#442,#443,#444,#445,#446,#447)
    ,(#448,#449,#450,#451,#452,#453,#454)
    ,(#455,#456,#457,#458,#459,#460,#461)
    ,(#462,#463,#464,#465,#466,#467,#468)
    ,(#469,#470,#471,#472,#473,#474,#475)
    ,(#476,#477,#478,#479,#480,#481,#482
    )),.UNSPECIFIED.,.F.,.F.,.F.,(7,7),(7,7),(0.,1.),(0.,1.),
  .PIECEWISE_BEZIER_KNOTS.);
#434 = CARTESIAN_POINT('',(9.4865492,482.79894,840.));
#435 = CARTESIAN_POINT('',(107.05543,385.64156,700.));
#436 = CARTESIAN_POINT('',(204.62432,288.48416,560.));
#437 = CARTESIAN_POINT('',(581.53506,521.59368,380.44776));
#438 = CARTESIAN_POINT('',(401.34574,92.592392,277.72762));
#439 = CARTESIAN_POINT('',(497.33096,-2.988014,140.));
#440 = CARTESIAN_POINT('',(594.89984,-100.145406,-3.9790394E-13));
#441 = CARTESIAN_POINT('',(-7.1919636,358.78146,700.));
#442 = CARTESIAN_POINT('',(90.376918,261.62406,560.));
#443 = CARTESIAN_POINT('',(186.664288,165.74278,421.83882));
#444 = CARTESIAN_POINT('',(475.48808,298.30868,251.0738));
#445 = CARTESIAN_POINT('',(384.40328,-31.162268,138.106354));
#446 = CARTESIAN_POINT('',(480.65244,-127.005504,-1.42108548E-13));
#447 = CARTESIAN_POINT('',(578.22132,-224.1629,-140.));
#448 = CARTESIAN_POINT('',(-23.870476,234.76396,560.));
#449 = CARTESIAN_POINT('',(74.586562,144.21069,427.45522));
#450 = CARTESIAN_POINT('',(170.480574,56.209632,298.58806));
#451 = CARTESIAN_POINT('',(372.10558,94.836046,144.065462));
#452 = CARTESIAN_POINT('',(371.01346,-128.500456,28.305926));
#453 = CARTESIAN_POINT('',(468.41472,-218.0024,-102.723948));
#454 = CARTESIAN_POINT('',(566.87174,-308.55568,-235.26874));
#455 = CARTESIAN_POINT('',(-477.5871,303.82004,427.7049));
#456 = CARTESIAN_POINT('',(-346.50516,198.41155,278.7456));
#457 = CARTESIAN_POINT('',(-219.26778,96.831372,135.302758));
#458 = CARTESIAN_POINT('',(-73.104824,20.058948,-26.847144));
#459 = CARTESIAN_POINT('',(47.532454,-118.602442,-169.268498));
#460 = CARTESIAN_POINT('',(177.822552,-223.22244,-317.09162));
#461 = CARTESIAN_POINT('',(308.90448,-328.63094,-466.05092));
#462 = CARTESIAN_POINT('',(-55.427178,0.11576998,295.11198));
#463 = CARTESIAN_POINT('',(41.84165,-99.272754,152.593318));
#464 = CARTESIAN_POINT('',(133.98443,-193.556846,17.4299378));
#465 = CARTESIAN_POINT('',(158.247326,-364.8529,-129.49211));
#466 = CARTESIAN_POINT('',(334.17602,-397.96398,-275.72014));
#467 = CARTESIAN_POINT('',(430.91696,-496.82684,-417.48134));
#468 = CARTESIAN_POINT('',(528.18578,-596.21536,-560.));
#469 = CARTESIAN_POINT('',(-73.906014,-137.288508,140.));
#470 = CARTESIAN_POINT('',(23.662868,-234.4459,2.842171E-14));
#471 = CARTESIAN_POINT('',(114.824188,-325.22276,-130.805896));
#472 = CARTESIAN_POINT('',(51.30019,-594.8313,-266.42206));
#473 = CARTESIAN_POINT('',(316.63346,-526.1809,-420.37872));
#474 = CARTESIAN_POINT('',(413.9384,-623.07546,-560.));
#475 = CARTESIAN_POINT('',(511.50728,-720.23286,-700.));
#476 = CARTESIAN_POINT('',(-90.584526,-261.306,2.842171E-14));
#477 = CARTESIAN_POINT('',(6.9843546,-358.46338,-140.));
#478 = CARTESIAN_POINT('',(96.864164,-447.96414,-268.96708));
#479 = CARTESIAN_POINT('',(-54.746784,-818.11628,-395.79604));
#480 = CARTESIAN_POINT('',(299.691,-649.93556,-560.));
#481 = CARTESIAN_POINT('',(397.25988,-747.09296,-700.));
#482 = CARTESIAN_POINT('',(494.82876,-844.25036,-840.));
#483 = DEFINITIONAL_REPRESENTATION('',(#484),#487);
#484 = B_SPLINE_CURVE_WITH_KNOTS('',1,(#485,#486),.UNSPECIFIED.,.F.,.F.,
  (2,2),(0.,1.),.PIECEWISE_BEZIER_KNOTS.);
#485 = CARTESIAN_POINT('',(0.,0.));
#486 = CARTESIAN_POINT('',(1.,0.));
#487 = ( GEOMETRIC_REPRESENTATION_CONTEXT(2) 
PARAMETRIC_REPRESENTATION_CONTEXT() REPRESENTATION_CONTEXT('2D SPACE',''
  ) );
#488 = ADVANCED_FACE('',(#489),#281,.F.);
#489 = FACE_BOUND('',#490,.T.);
#490 = EDGE_LOOP('',(#491,#516,#535,#552));
#491 = ORIENTED_EDGE('',*,*,#492,.T.);
#492 = EDGE_CURVE('',#22,#493,#495,.T.);
#493 = VERTEX_POINT('',#494);
#494 = CARTESIAN_POINT('',(594.89984,-100.145406,-2.22044604925E-13));
#495 = SURFACE_CURVE('',#496,(#504,#510),.PCURVE_S1.);
#496 = B_SPLINE_CURVE_WITH_KNOTS('',6,(#497,#498,#499,#500,#501,#502,
    #503),.UNSPECIFIED.,.F.,.F.,(7,7),(0.,1.),.PIECEWISE_BEZIER_KNOTS.);
#497 = CARTESIAN_POINT('',(9.4865492,482.79894,840.));
#498 = CARTESIAN_POINT('',(107.05543,385.64156,700.));
#499 = CARTESIAN_POINT('',(204.62432,288.48416,560.));
#500 = CARTESIAN_POINT('',(581.53506,521.59368,380.44776));
#501 = CARTESIAN_POINT('',(401.34574,92.592392,277.72762));
#502 = CARTESIAN_POINT('',(497.33096,-2.988014,140.));
#503 = CARTESIAN_POINT('',(594.89984,-100.145406,-5.6843418E-14));
#504 = PCURVE('',#281,#505);
#505 = DEFINITIONAL_REPRESENTATION('',(#506),#509);
#506 = B_SPLINE_CURVE_WITH_KNOTS('',1,(#507,#508),.UNSPECIFIED.,.F.,.F.,
  (2,2),(0.,1.),.PIECEWISE_BEZIER_KNOTS.);
#507 = CARTESIAN_POINT('',(0.,0.));
#508 = CARTESIAN_POINT('',(0.,1.));
#509 = ( GEOMETRIC_REPRESENTATION_CONTEXT(2) 
PARAMETRIC_REPRESENTATION_CONTEXT() REPRESENTATION_CONTEXT('2D SPACE',''
  ) );
#510 = PCURVE('',#433,#511);
#511 = DEFINITIONAL_REPRESENTATION('',(#512),#515);
#512 = B_SPLINE_CURVE_WITH_KNOTS('',1,(#513,#514),.UNSPECIFIED.,.F.,.F.,
  (2,2),(0.,1.),.PIECEWISE_BEZIER_KNOTS.);
#513 = CARTESIAN_POINT('',(0.,0.));
#514 = CARTESIAN_POINT('',(0.,1.));
#515 = ( GEOMETRIC_REPRESENTATION_CONTEXT(2) 
PARAMETRIC_REPRESENTATION_CONTEXT() REPRESENTATION_CONTEXT('2D SPACE',''
  ) );
#516 = ORIENTED_EDGE('',*,*,#517,.T.);
#517 = EDGE_CURVE('',#493,#518,#520,.T.);
#518 = VERTEX_POINT('',#519);
#519 = CARTESIAN_POINT('',(1.06198506E+03,434.91784,-840.));
#520 = SURFACE_CURVE('',#521,(#529),.PCURVE_S1.);
#521 = B_SPLINE_CURVE_WITH_KNOTS('',6,(#522,#523,#524,#525,#526,#527,
    #528),.UNSPECIFIED.,.F.,.F.,(7,7),(0.,1.),.PIECEWISE_BEZIER_KNOTS.);
#522 = CARTESIAN_POINT('',(594.89984,-100.145406,-1.13686838E-13));
#523 = CARTESIAN_POINT('',(672.74738,-10.968199,-140.));
#524 = CARTESIAN_POINT('',(750.5949,78.209008,-280.));
#525 = CARTESIAN_POINT('',(486.86574,401.12454,-419.7887));
#526 = CARTESIAN_POINT('',(899.15028,248.38464,-547.16006));
#527 = CARTESIAN_POINT('',(984.13752,345.74062,-700.));
#528 = CARTESIAN_POINT('',(1.06198506E+03,434.91784,-840.));
#529 = PCURVE('',#281,#530);
#530 = DEFINITIONAL_REPRESENTATION('',(#531),#534);
#531 = B_SPLINE_CURVE_WITH_KNOTS('',1,(#532,#533),.UNSPECIFIED.,.F.,.F.,
  (2,2),(0.,1.),.PIECEWISE_BEZIER_KNOTS.);
#532 = CARTESIAN_POINT('',(0.,1.));
#533 = CARTESIAN_POINT('',(1.,1.));
#534 = ( GEOMETRIC_REPRESENTATION_CONTEXT(2) 
PARAMETRIC_REPRESENTATION_CONTEXT() REPRESENTATION_CONTEXT('2D SPACE',''
  ) );
#535 = ORIENTED_EDGE('',*,*,#536,.F.);
#536 = EDGE_CURVE('',#263,#518,#537,.T.);
#537 = SURFACE_CURVE('',#538,(#546),.PCURVE_S1.);
#538 = B_SPLINE_CURVE_WITH_KNOTS('',6,(#539,#540,#541,#542,#543,#544,
    #545),.UNSPECIFIED.,.F.,.F.,(7,7),(0.,1.),.PIECEWISE_BEZIER_KNOTS.);
#539 = CARTESIAN_POINT('',(476.57176,1.01786218E+03,4.5474736E-13));
#540 = CARTESIAN_POINT('',(574.14064,920.7048,-140.));
#541 = CARTESIAN_POINT('',(679.34202,815.9471,-290.95174));
#542 = CARTESIAN_POINT('',(1.0891936E+03,954.246,-449.48812));
#543 = CARTESIAN_POINT('',(866.84728,629.23262,-560.));
#544 = CARTESIAN_POINT('',(964.41616,532.07522,-700.));
#545 = CARTESIAN_POINT('',(1.06198506E+03,434.91784,-840.));
#546 = PCURVE('',#281,#547);
#547 = DEFINITIONAL_REPRESENTATION('',(#548),#551);
#548 = B_SPLINE_CURVE_WITH_KNOTS('',1,(#549,#550),.UNSPECIFIED.,.F.,.F.,
  (2,2),(0.,1.),.PIECEWISE_BEZIER_KNOTS.);
#549 = CARTESIAN_POINT('',(1.,0.));
#550 = CARTESIAN_POINT('',(1.,1.));
#551 = ( GEOMETRIC_REPRESENTATION_CONTEXT(2) 
PARAMETRIC_REPRESENTATION_CONTEXT() REPRESENTATION_CONTEXT('2D SPACE',''
  ) );
#552 = ORIENTED_EDGE('',*,*,#262,.F.);
#553 = ADVANCED_FACE('',(#554),#433,.T.);
#554 = FACE_BOUND('',#555,.T.);
#555 = EDGE_LOOP('',(#556,#557,#576,#593));
#556 = ORIENTED_EDGE('',*,*,#416,.T.);
#557 = ORIENTED_EDGE('',*,*,#558,.T.);
#558 = EDGE_CURVE('',#398,#559,#561,.T.);
#559 = VERTEX_POINT('',#560);
#560 = CARTESIAN_POINT('',(494.82876,-844.25036,-840.));
#561 = SURFACE_CURVE('',#562,(#570),.PCURVE_S1.);
#562 = B_SPLINE_CURVE_WITH_KNOTS('',6,(#563,#564,#565,#566,#567,#568,
    #569),.UNSPECIFIED.,.F.,.F.,(7,7),(0.,1.),.PIECEWISE_BEZIER_KNOTS.);
#563 = CARTESIAN_POINT('',(-90.584526,-261.306,0.));
#564 = CARTESIAN_POINT('',(6.9843546,-358.46338,-140.));
#565 = CARTESIAN_POINT('',(96.864164,-447.96414,-268.96708));
#566 = CARTESIAN_POINT('',(-54.746784,-818.11628,-395.79604));
#567 = CARTESIAN_POINT('',(299.691,-649.93556,-560.));
#568 = CARTESIAN_POINT('',(397.25988,-747.09296,-700.));
#569 = CARTESIAN_POINT('',(494.82876,-844.25036,-840.));
#570 = PCURVE('',#433,#571);
#571 = DEFINITIONAL_REPRESENTATION('',(#572),#575);
#572 = B_SPLINE_CURVE_WITH_KNOTS('',1,(#573,#574),.UNSPECIFIED.,.F.,.F.,
  (2,2),(0.,1.),.PIECEWISE_BEZIER_KNOTS.);
#573 = CARTESIAN_POINT('',(1.,0.));
#574 = CARTESIAN_POINT('',(1.,1.));
#575 = ( GEOMETRIC_REPRESENTATION_CONTEXT(2) 
PARAMETRIC_REPRESENTATION_CONTEXT() REPRESENTATION_CONTEXT('2D SPACE',''
  ) );
#576 = ORIENTED_EDGE('',*,*,#577,.F.);
#577 = EDGE_CURVE('',#493,#559,#578,.T.);
#578 = SURFACE_CURVE('',#579,(#587),.PCURVE_S1.);
#579 = B_SPLINE_CURVE_WITH_KNOTS('',6,(#580,#581,#582,#583,#584,#585,
    #586),.UNSPECIFIED.,.F.,.F.,(7,7),(0.,1.),.PIECEWISE_BEZIER_KNOTS.);
#580 = CARTESIAN_POINT('',(594.89984,-100.145406,-1.13686838E-13));
#581 = CARTESIAN_POINT('',(578.22132,-224.1629,-140.));
#582 = CARTESIAN_POINT('',(566.87174,-308.55568,-235.26874));
#583 = CARTESIAN_POINT('',(308.90448,-328.63094,-466.05092));
#584 = CARTESIAN_POINT('',(528.18578,-596.21536,-560.));
#585 = CARTESIAN_POINT('',(511.50728,-720.23286,-700.));
#586 = CARTESIAN_POINT('',(494.82876,-844.25036,-840.));
#587 = PCURVE('',#433,#588);
#588 = DEFINITIONAL_REPRESENTATION('',(#589),#592);
#589 = B_SPLINE_CURVE_WITH_KNOTS('',1,(#590,#591),.UNSPECIFIED.,.F.,.F.,
  (2,2),(0.,1.),.PIECEWISE_BEZIER_KNOTS.);
#590 = CARTESIAN_POINT('',(0.,1.));
#591 = CARTESIAN_POINT('',(1.,1.));
#592 = ( GEOMETRIC_REPRESENTATION_CONTEXT(2) 
PARAMETRIC_REPRESENTATION_CONTEXT() REPRESENTATION_CONTEXT('2D SPACE',''
  ) );
#593 = ORIENTED_EDGE('',*,*,#492,.F.);
#594 = ( GEOMETRIC_REPRESENTATION_CONTEXT(3) 
GLOBAL_UNCERTAINTY_ASSIGNED_CONTEXT((#598)) GLOBAL_UNIT_ASSIGNED_CONTEXT
((#595,#596,#597)) REPRESENTATION_CONTEXT('Context #1',
  '3D Context with UNIT and UNCERTAINTY') );
#595 = ( LENGTH_UNIT() NAMED_UNIT(*) SI_UNIT(.MILLI.,.METRE.) );
#596 = ( NAMED_UNIT(*) PLANE_ANGLE_UNIT() SI_UNIT($,.RADIAN.) );
#597 = ( NAMED_UNIT(*) SI_UNIT($,.STERADIAN.) SOLID_ANGLE_UNIT() );
#598 = UNCERTAINTY_MEASURE_WITH_UNIT(LENGTH_MEASURE(2.E-03),#595,
  'distance_accuracy_value','confusion accuracy');
#599 = PRODUCT_RELATED_PRODUCT_CATEGORY('part',$,(#7));
ENDSEC;
END-ISO-10303-21;
