ISO-10303-21;
HEADER;
FILE_DESCRIPTION(('Open CASCADE Model'),'2;1');
FILE_NAME('Open CASCADE Shape Model','2026-07-11T20:16:05',('Author'),(
    'Open CASCADE'),'Open CASCADE STEP processor 8.0','Open CASCADE 8.0'
  ,'Unknown');
FILE_SCHEMA(('AUTOMOTIVE_DESIGN { 1 0 10303 214 1 1 1 1 }'));
ENDSEC;
DATA;
#1 = APPLICATION_PROTOCOL_DEFINITION('international standard',
  'automotive_design',2000,#2);
#2 = APPLICATION_CONTEXT(
  'core data for automotive mechanical design processes');
#3 = SHAPE_DEFINITION_REPRESENTATION(#4,#10);
#4 = PRODUCT_DEFINITION_SHAPE('','',#5);
#5 = PRODUCT_DEFINITION('design','',#6,#9);
#6 = PRODUCT_DEFINITION_FORMATION('','',#7);
#7 = PRODUCT('Open CASCADE STEP translator 8.0 1',
  'Open CASCADE STEP translator 8.0 1','',(#8));
#8 = PRODUCT_CONTEXT('',#2,'mechanical');
#9 = PRODUCT_DEFINITION_CONTEXT('part definition',#2,'design');
#10 = ADVANCED_BREP_SHAPE_REPRESENTATION('',(#11,#15),#523);
#11 = AXIS2_PLACEMENT_3D('',#12,#13,#14);
#12 = CARTESIAN_POINT('',(0.,0.,0.));
#13 = DIRECTION('',(0.,0.,1.));
#14 = DIRECTION('',(1.,0.,-0.));
#15 = MANIFOLD_SOLID_BREP('',#16);
#16 = CLOSED_SHELL('',(#17,#426,#513,#518));
#17 = ADVANCED_FACE('',(#18),#33,.T.);
#18 = FACE_BOUND('',#19,.T.);
#19 = EDGE_LOOP('',(#20,#169,#324,#372));
#20 = ORIENTED_EDGE('',*,*,#21,.T.);
#21 = EDGE_CURVE('',#22,#24,#26,.T.);
#22 = VERTEX_POINT('',#23);
#23 = CARTESIAN_POINT('',(-8.881784197001E-15,0.,70.710678118655));
#24 = VERTEX_POINT('',#25);
#25 = CARTESIAN_POINT('',(-8.881784197001E-15,0.,-70.71067811865));
#26 = SURFACE_CURVE('',#27,(#32,#157),.PCURVE_S1.);
#27 = CIRCLE('',#28,100.);
#28 = AXIS2_PLACEMENT_3D('',#29,#30,#31);
#29 = CARTESIAN_POINT('',(-70.71067811865,0.,0.));
#30 = DIRECTION('',(0.,-1.,0.));
#31 = DIRECTION('',(1.,0.,0.));
#32 = PCURVE('',#33,#132);
#33 = ( BOUNDED_SURFACE() B_SPLINE_SURFACE(6,4,(
    (#34,#35,#36,#37,#38,#39,#40,#41,#42,#43,#44,#45,#46,#47)
    ,(#48,#49,#50,#51,#52,#53,#54,#55,#56,#57,#58,#59,#60,#61)
    ,(#62,#63,#64,#65,#66,#67,#68,#69,#70,#71,#72,#73,#74,#75)
    ,(#76,#77,#78,#79,#80,#81,#82,#83,#84,#85,#86,#87,#88,#89)
    ,(#90,#91,#92,#93,#94,#95,#96,#97,#98,#99,#100,#101,#102,#103)
    ,(#104,#105,#106,#107,#108,#109,#110,#111,#112,#113,#114,#115,#116
      ,#117)
    ,(#118,#119,#120,#121,#122,#123,#124,#125,#126,#127,#128,#129,#130
,#131
    )),.UNSPECIFIED.,.F.,.F.,.F.) B_SPLINE_SURFACE_WITH_KNOTS((7,7),(5,3
    ,3,3,5),(0.785398163397,5.497787143782),(0.,0.260869426247,
    0.510869490528,0.760869554809,1.),.UNSPECIFIED.) 
GEOMETRIC_REPRESENTATION_ITEM() RATIONAL_B_SPLINE_SURFACE((
    (1.327536080004,1.327536080004,1.327536080004,1.327536080004
      ,1.327536080004,1.327536080004,1.327536080004,1.327536080004
      ,1.327536080004,1.327536080004,1.327536080004,1.327536080004
      ,1.327536080004,1.327536080004)
    ,(1.062055273611,1.062055273611,1.062055273611,1.062055273611
      ,1.062055273611,1.062055273611,1.062055273611,1.062055273611
      ,1.062055273611,1.062055273611,1.062055273611,1.062055273611
      ,1.062055273611,1.062055273611)
    ,(0.991933133692,0.991933133692,0.991933133692,0.991933133692
      ,0.991933133692,0.991933133692,0.991933133692,0.991933133692
      ,0.991933133692,0.991933133692,0.991933133692,0.991933133692
      ,0.991933133692,0.991933133692)
    ,(0.942113527295,0.942113527295,0.942113527295,0.942113527295
      ,0.942113527295,0.942113527295,0.942113527295,0.942113527295
      ,0.942113527295,0.942113527295,0.942113527295,0.942113527295
      ,0.942113527295,0.942113527295)
    ,(0.991933133692,0.991933133692,0.991933133692,0.991933133692
      ,0.991933133692,0.991933133692,0.991933133692,0.991933133692
      ,0.991933133692,0.991933133692,0.991933133692,0.991933133692
      ,0.991933133692,0.991933133692)
    ,(1.062055273611,1.062055273611,1.062055273611,1.062055273611
      ,1.062055273611,1.062055273611,1.062055273611,1.062055273611
      ,1.062055273611,1.062055273611,1.062055273611,1.062055273611
      ,1.062055273611,1.062055273611)
    ,(1.327536080004,1.327536080004,1.327536080004,1.327536080004
      ,1.327536080004,1.327536080004,1.327536080004,1.327536080004
      ,1.327536080004,1.327536080004,1.327536080004,1.327536080004
,1.327536080004,1.327536080004))) REPRESENTATION_ITEM('') SURFACE() );
#34 = CARTESIAN_POINT('',(-2.676171090423E-14,0.,70.710678118655));
#35 = CARTESIAN_POINT('',(2.608699033563,10.434796134253,70.710678118655
    ));
#36 = CARTESIAN_POINT('',(4.763700595036,20.869547181658,70.710678118655
    ));
#37 = CARTESIAN_POINT('',(6.465030384651,31.304355943141,70.710678118655
    ));
#38 = CARTESIAN_POINT('',(8.908317580341,51.739130434783,70.710678118655
    ));
#39 = CARTESIAN_POINT('',(9.687303087586,61.739130434782,70.710678118655
    ));
#40 = CARTESIAN_POINT('',(10.049621928167,71.739130434783,
    70.710678118655));
#41 = CARTESIAN_POINT('',(9.940926275992,91.739130434782,70.710678118654
    ));
#42 = CARTESIAN_POINT('',(9.469911783239,101.73913043478,70.710678118656
    ));
#43 = CARTESIAN_POINT('',(8.582230623818,111.73913043478,70.710678118654
    ));
#44 = CARTESIAN_POINT('',(6.030246249751,131.30434581385,70.710678118655
    ));
#45 = CARTESIAN_POINT('',(4.401385145671,140.86956968826,70.710678118655
    ));
#46 = CARTESIAN_POINT('',(2.391305186006,150.43477925597,70.710678118655
    ));
#47 = CARTESIAN_POINT('',(-2.676171090423E-14,160.,70.710678118655));
#48 = CARTESIAN_POINT('',(-69.21648284869,0.,139.92716096735));
#49 = CARTESIAN_POINT('',(-66.60778381513,8.310502347029,139.92716096735
    ));
#50 = CARTESIAN_POINT('',(-64.3658869,16.577473089567,139.92716096735));
#51 = CARTESIAN_POINT('',(-62.48253663193,24.815212281034,
    139.92716096735));
#52 = CARTESIAN_POINT('',(-59.49169576223,40.926784141055,
    139.92716096735));
#53 = CARTESIAN_POINT('',(-58.35523486494,48.80129988215,139.92716096735
    ));
#54 = CARTESIAN_POINT('',(-57.54399228787,56.682448656253,
    139.92716096735));
#55 = CARTESIAN_POINT('',(-56.58071828922,72.491500832015,
    139.92716096735));
#56 = CARTESIAN_POINT('',(-56.42863652101,80.419223422663,
    139.92716096735));
#57 = CARTESIAN_POINT('',(-56.61067263092,88.386835846578,
    139.92716096735));
#58 = CARTESIAN_POINT('',(-57.63978794496,104.07956542396,
    139.92716096735));
#59 = CARTESIAN_POINT('',(-58.45746816804,111.80006553588,
    139.92716096734));
#60 = CARTESIAN_POINT('',(-59.5984231927,119.58049391257,139.92716096735
    ));
#61 = CARTESIAN_POINT('',(-61.07336721943,127.42753748296,
    139.92716096735));
#62 = CARTESIAN_POINT('',(-183.1656821286,0.,114.58929010049));
#63 = CARTESIAN_POINT('',(-180.556983095,4.813335687771,114.58929010049)
  );
#64 = CARTESIAN_POINT('',(-178.17203274,9.511549108524,114.58929010049)
  );
#65 = CARTESIAN_POINT('',(-175.9890271453,14.132312863478,
    114.58929010048));
#66 = CARTESIAN_POINT('',(-172.0967636643,23.126714680706,
    114.58929010049));
#67 = CARTESIAN_POINT('',(-170.3718008267,27.502103921634,
    114.58929010049));
#68 = CARTESIAN_POINT('',(-168.8215074022,31.895045976072,
    114.58929010048));
#69 = CARTESIAN_POINT('',(-166.0934791378,40.804655574842,
    114.58929010048));
#70 = CARTESIAN_POINT('',(-164.9156110671,45.320844643947,
    114.58929010049));
#71 = CARTESIAN_POINT('',(-163.9359630657,49.942593085904,
    114.58929010048));
#72 = CARTESIAN_POINT('',(-162.4580207707,59.260155388625,
    114.58929010048));
#73 = CARTESIAN_POINT('',(-161.9402761346,63.943737313159,
    114.58929010049));
#74 = CARTESIAN_POINT('',(-161.6504145915,68.785929315568,
    114.58929010049));
#75 = CARTESIAN_POINT('',(-161.6167783488,73.804384880639,
    114.58929010049));
#76 = CARTESIAN_POINT('',(-243.7444759686,0.,6.787806815814E-13));
#77 = CARTESIAN_POINT('',(-241.1357769351,2.954137559008,
    6.787806815814E-13));
#78 = CARTESIAN_POINT('',(-238.6747751036,5.755093118998,
    8.107658141111E-13));
#79 = CARTESIAN_POINT('',(-236.3324637975,8.452964824885,
    5.845055869173E-13));
#80 = CARTESIAN_POINT('',(-231.9609771638,13.663666717312,
    6.787806815814E-13));
#81 = CARTESIAN_POINT('',(-229.9231491376,16.17881591958,
    7.353457383799E-13));
#82 = CARTESIAN_POINT('',(-227.9799542341,18.717323216448,
    6.787806815814E-13));
#83 = CARTESIAN_POINT('',(-224.3137299533,23.958983306807,
    4.14810416522E-13));
#84 = CARTESIAN_POINT('',(-222.5905232814,26.661499377894,
    9.993160034393E-13));
#85 = CARTESIAN_POINT('',(-220.9932893493,29.504486708226,
    4.713754733204E-13));
#86 = CARTESIAN_POINT('',(-218.182520435,35.432819894218,
    6.787806815814E-13));
#87 = CARTESIAN_POINT('',(-216.9548241034,38.501885508459,
    6.033606058501E-13));
#88 = CARTESIAN_POINT('',(-215.9042977867,41.78202339644,
    6.787806815814E-13));
#89 = CARTESIAN_POINT('',(-215.0686552664,45.296717191217,
    6.787806815814E-13));
#90 = CARTESIAN_POINT('',(-183.1656821286,0.,-114.5892901004));
#91 = CARTESIAN_POINT('',(-180.556983095,4.813335687771,-114.5892901004)
  );
#92 = CARTESIAN_POINT('',(-178.17203274,9.511549108524,-114.5892901004)
  );
#93 = CARTESIAN_POINT('',(-175.9890271453,14.132312863478,
    -114.5892901004));
#94 = CARTESIAN_POINT('',(-172.0967636643,23.126714680706,
    -114.5892901004));
#95 = CARTESIAN_POINT('',(-170.3718008267,27.502103921634,
    -114.5892901004));
#96 = CARTESIAN_POINT('',(-168.8215074021,31.895045976072,
    -114.5892901004));
#97 = CARTESIAN_POINT('',(-166.0934791378,40.804655574842,
    -114.5892901004));
#98 = CARTESIAN_POINT('',(-164.9156110671,45.320844643947,
    -114.5892901004));
#99 = CARTESIAN_POINT('',(-163.9359630657,49.942593085903,
    -114.5892901004));
#100 = CARTESIAN_POINT('',(-162.4580207707,59.260155388625,
    -114.5892901004));
#101 = CARTESIAN_POINT('',(-161.9402761346,63.943737313159,
    -114.5892901004));
#102 = CARTESIAN_POINT('',(-161.6504145915,68.785929315568,
    -114.5892901004));
#103 = CARTESIAN_POINT('',(-161.6167783488,73.804384880639,
    -114.5892901004));
#104 = CARTESIAN_POINT('',(-69.21648284869,0.,-139.9271609673));
#105 = CARTESIAN_POINT('',(-66.60778381513,8.310502347029,
    -139.9271609673));
#106 = CARTESIAN_POINT('',(-64.3658869,16.577473089567,-139.9271609673)
  );
#107 = CARTESIAN_POINT('',(-62.48253663193,24.815212281034,
    -139.9271609673));
#108 = CARTESIAN_POINT('',(-59.49169576223,40.926784141055,
    -139.9271609673));
#109 = CARTESIAN_POINT('',(-58.35523486494,48.80129988215,
    -139.9271609673));
#110 = CARTESIAN_POINT('',(-57.54399228787,56.682448656253,
    -139.9271609673));
#111 = CARTESIAN_POINT('',(-56.58071828922,72.491500832015,
    -139.9271609673));
#112 = CARTESIAN_POINT('',(-56.42863652101,80.419223422662,
    -139.9271609673));
#113 = CARTESIAN_POINT('',(-56.61067263092,88.386835846578,
    -139.9271609673));
#114 = CARTESIAN_POINT('',(-57.63978794496,104.07956542396,
    -139.9271609673));
#115 = CARTESIAN_POINT('',(-58.45746816804,111.80006553588,
    -139.9271609673));
#116 = CARTESIAN_POINT('',(-59.5984231927,119.58049391257,
    -139.9271609673));
#117 = CARTESIAN_POINT('',(-61.07336721943,127.42753748296,
    -139.9271609673));
#118 = CARTESIAN_POINT('',(-5.352342180845E-14,0.,-70.71067811865));
#119 = CARTESIAN_POINT('',(2.608699033563,10.434796134253,
    -70.71067811865));
#120 = CARTESIAN_POINT('',(4.763700595037,20.869547181658,
    -70.71067811865));
#121 = CARTESIAN_POINT('',(6.465030384651,31.304355943141,
    -70.71067811865));
#122 = CARTESIAN_POINT('',(8.90831758034,51.739130434783,-70.71067811865
    ));
#123 = CARTESIAN_POINT('',(9.687303087587,61.739130434782,
    -70.71067811865));
#124 = CARTESIAN_POINT('',(10.049621928166,71.739130434783,
    -70.71067811865));
#125 = CARTESIAN_POINT('',(9.940926275992,91.739130434782,
    -70.71067811865));
#126 = CARTESIAN_POINT('',(9.46991178324,101.73913043478,-70.71067811865
    ));
#127 = CARTESIAN_POINT('',(8.582230623818,111.73913043478,
    -70.71067811865));
#128 = CARTESIAN_POINT('',(6.030246249751,131.30434581385,
    -70.71067811865));
#129 = CARTESIAN_POINT('',(4.401385145671,140.86956968826,
    -70.71067811865));
#130 = CARTESIAN_POINT('',(2.391305186006,150.43477925597,
    -70.71067811865));
#131 = CARTESIAN_POINT('',(-5.352342180845E-14,160.,-70.71067811865));
#132 = DEFINITIONAL_REPRESENTATION('',(#133),#156);
#133 = B_SPLINE_CURVE_WITH_KNOTS('',11,(#134,#135,#136,#137,#138,#139,
    #140,#141,#142,#143,#144,#145,#146,#147,#148,#149,#150,#151,#152,
    #153,#154,#155),.UNSPECIFIED.,.F.,.F.,(12,10,12),(0.785398163397,
    3.14159265359,5.497787143782),.UNSPECIFIED.);
#134 = CARTESIAN_POINT('',(0.785398163397,0.));
#135 = CARTESIAN_POINT('',(1.000222273078,0.));
#136 = CARTESIAN_POINT('',(1.21441256465,0.));
#137 = CARTESIAN_POINT('',(1.428388224969,0.));
#138 = CARTESIAN_POINT('',(1.642374564009,0.));
#139 = CARTESIAN_POINT('',(1.85645075503,0.));
#140 = CARTESIAN_POINT('',(2.070604625648,0.));
#141 = CARTESIAN_POINT('',(2.28479450707,0.));
#142 = CARTESIAN_POINT('',(2.498994219915,0.));
#143 = CARTESIAN_POINT('',(2.713193641161,0.));
#144 = CARTESIAN_POINT('',(2.927393154472,0.));
#145 = CARTESIAN_POINT('',(3.355792152707,0.));
#146 = CARTESIAN_POINT('',(3.569991665814,0.));
#147 = CARTESIAN_POINT('',(3.784191088422,0.));
#148 = CARTESIAN_POINT('',(3.998390796894,0.));
#149 = CARTESIAN_POINT('',(4.212580687063,0.));
#150 = CARTESIAN_POINT('',(4.426734545838,0.));
#151 = CARTESIAN_POINT('',(4.640810747966,0.));
#152 = CARTESIAN_POINT('',(4.854797079922,0.));
#153 = CARTESIAN_POINT('',(5.068772743081,0.));
#154 = CARTESIAN_POINT('',(5.282963034101,0.));
#155 = CARTESIAN_POINT('',(5.497787143782,0.));
#156 = ( GEOMETRIC_REPRESENTATION_CONTEXT(2) 
PARAMETRIC_REPRESENTATION_CONTEXT() REPRESENTATION_CONTEXT('2D SPACE',''
  ) );
#157 = PCURVE('',#158,#163);
#158 = PLANE('',#159);
#159 = AXIS2_PLACEMENT_3D('',#160,#161,#162);
#160 = CARTESIAN_POINT('',(-70.71067811865,0.,0.));
#161 = DIRECTION('',(0.,-1.,0.));
#162 = DIRECTION('',(1.,0.,0.));
#163 = DEFINITIONAL_REPRESENTATION('',(#164),#168);
#164 = CIRCLE('',#165,100.);
#165 = AXIS2_PLACEMENT_2D('',#166,#167);
#166 = CARTESIAN_POINT('',(0.,0.));
#167 = DIRECTION('',(1.,0.));
#168 = ( GEOMETRIC_REPRESENTATION_CONTEXT(2) 
PARAMETRIC_REPRESENTATION_CONTEXT() REPRESENTATION_CONTEXT('2D SPACE',''
  ) );
#169 = ORIENTED_EDGE('',*,*,#170,.T.);
#170 = EDGE_CURVE('',#24,#171,#173,.T.);
#171 = VERTEX_POINT('',#172);
#172 = CARTESIAN_POINT('',(2.224527751547E-15,160.,-70.71067811865));
#173 = SURFACE_CURVE('',#174,(#189,#195),.PCURVE_S1.);
#174 = B_SPLINE_CURVE_WITH_KNOTS('',4,(#175,#176,#177,#178,#179,#180,
    #181,#182,#183,#184,#185,#186,#187,#188),.UNSPECIFIED.,.F.,.F.,(5,3,
    3,3,5),(0.,0.260869426247,0.510869490528,0.760869554809,1.),
  .UNSPECIFIED.);
#175 = CARTESIAN_POINT('',(-5.352342180845E-14,0.,-70.71067811865));
#176 = CARTESIAN_POINT('',(2.608699033563,10.434796134253,
    -70.71067811865));
#177 = CARTESIAN_POINT('',(4.763700595037,20.869547181658,
    -70.71067811865));
#178 = CARTESIAN_POINT('',(6.465030384651,31.304355943141,
    -70.71067811865));
#179 = CARTESIAN_POINT('',(8.90831758034,51.739130434783,-70.71067811865
    ));
#180 = CARTESIAN_POINT('',(9.687303087587,61.739130434782,
    -70.71067811865));
#181 = CARTESIAN_POINT('',(10.049621928166,71.739130434783,
    -70.71067811865));
#182 = CARTESIAN_POINT('',(9.940926275992,91.739130434782,
    -70.71067811865));
#183 = CARTESIAN_POINT('',(9.46991178324,101.73913043478,-70.71067811865
    ));
#184 = CARTESIAN_POINT('',(8.582230623818,111.73913043478,
    -70.71067811865));
#185 = CARTESIAN_POINT('',(6.030246249751,131.30434581385,
    -70.71067811865));
#186 = CARTESIAN_POINT('',(4.401385145671,140.86956968826,
    -70.71067811865));
#187 = CARTESIAN_POINT('',(2.391305186006,150.43477925597,
    -70.71067811865));
#188 = CARTESIAN_POINT('',(-5.352342180845E-14,160.,-70.71067811865));
#189 = PCURVE('',#33,#190);
#190 = DEFINITIONAL_REPRESENTATION('',(#191),#194);
#191 = B_SPLINE_CURVE_WITH_KNOTS('',1,(#192,#193),.UNSPECIFIED.,.F.,.F.,
  (2,2),(0.,1.),.PIECEWISE_BEZIER_KNOTS.);
#192 = CARTESIAN_POINT('',(5.497787143782,0.));
#193 = CARTESIAN_POINT('',(5.497787143782,1.));
#194 = ( GEOMETRIC_REPRESENTATION_CONTEXT(2) 
PARAMETRIC_REPRESENTATION_CONTEXT() REPRESENTATION_CONTEXT('2D SPACE',''
  ) );
#195 = PCURVE('',#196,#295);
#196 = ( BOUNDED_SURFACE() B_SPLINE_SURFACE(6,4,(
    (#197,#198,#199,#200,#201,#202,#203,#204,#205,#206,#207,#208,#209
      ,#210)
    ,(#211,#212,#213,#214,#215,#216,#217,#218,#219,#220,#221,#222,#223
      ,#224)
    ,(#225,#226,#227,#228,#229,#230,#231,#232,#233,#234,#235,#236,#237
      ,#238)
    ,(#239,#240,#241,#242,#243,#244,#245,#246,#247,#248,#249,#250,#251
      ,#252)
    ,(#253,#254,#255,#256,#257,#258,#259,#260,#261,#262,#263,#264,#265
      ,#266)
    ,(#267,#268,#269,#270,#271,#272,#273,#274,#275,#276,#277,#278,#279
      ,#280)
    ,(#281,#282,#283,#284,#285,#286,#287,#288,#289,#290,#291,#292,#293
,#294
    )),.UNSPECIFIED.,.F.,.F.,.F.) B_SPLINE_SURFACE_WITH_KNOTS((7,7),(5,3
    ,3,3,5),(3.926990816987,8.639379797372),(0.,0.260869717724,
    0.510869624984,0.760869532243,1.),.UNSPECIFIED.) 
GEOMETRIC_REPRESENTATION_ITEM() RATIONAL_B_SPLINE_SURFACE((
    (1.327536080004,1.327536080004,1.327536080004,1.327536080004
      ,1.327536080004,1.327536080004,1.327536080004,1.327536080004
      ,1.327536080004,1.327536080004,1.327536080004,1.327536080004
      ,1.327536080004,1.327536080004)
    ,(1.062055273611,1.062055273611,1.062055273611,1.062055273611
      ,1.062055273611,1.062055273611,1.062055273611,1.062055273611
      ,1.062055273611,1.062055273611,1.062055273611,1.062055273611
      ,1.062055273611,1.062055273611)
    ,(0.991933133692,0.991933133692,0.991933133692,0.991933133692
      ,0.991933133692,0.991933133692,0.991933133692,0.991933133692
      ,0.991933133692,0.991933133692,0.991933133692,0.991933133692
      ,0.991933133692,0.991933133692)
    ,(0.942113527295,0.942113527295,0.942113527295,0.942113527295
      ,0.942113527295,0.942113527295,0.942113527295,0.942113527295
      ,0.942113527295,0.942113527295,0.942113527295,0.942113527295
      ,0.942113527295,0.942113527295)
    ,(0.991933133692,0.991933133692,0.991933133692,0.991933133692
      ,0.991933133692,0.991933133692,0.991933133692,0.991933133692
      ,0.991933133692,0.991933133692,0.991933133692,0.991933133692
      ,0.991933133692,0.991933133692)
    ,(1.062055273611,1.062055273611,1.062055273611,1.062055273611
      ,1.062055273611,1.062055273611,1.062055273611,1.062055273611
      ,1.062055273611,1.062055273611,1.062055273611,1.062055273611
      ,1.062055273611,1.062055273611)
    ,(1.327536080004,1.327536080004,1.327536080004,1.327536080004
      ,1.327536080004,1.327536080004,1.327536080004,1.327536080004
      ,1.327536080004,1.327536080004,1.327536080004,1.327536080004
,1.327536080004,1.327536080004))) REPRESENTATION_ITEM('') SURFACE() );
#197 = CARTESIAN_POINT('',(1.7763568394E-14,0.,-70.71067811865));
#198 = CARTESIAN_POINT('',(2.608691561307,10.434766245228,
    -70.71067811865));
#199 = CARTESIAN_POINT('',(4.76371055896,20.869587037353,-70.71067811865
    ));
#200 = CARTESIAN_POINT('',(6.465025900347,31.304338005926,
    -70.71067811865));
#201 = CARTESIAN_POINT('',(8.90831758034,51.739130434783,-70.71067811865
    ));
#202 = CARTESIAN_POINT('',(9.687303087587,61.739130434782,
    -70.71067811865));
#203 = CARTESIAN_POINT('',(10.049621928166,71.739130434783,
    -70.71067811865));
#204 = CARTESIAN_POINT('',(9.940926275992,91.739130434783,
    -70.71067811865));
#205 = CARTESIAN_POINT('',(9.469911783239,101.73913043478,
    -70.71067811865));
#206 = CARTESIAN_POINT('',(8.582230623819,111.73913043478,
    -70.71067811865));
#207 = CARTESIAN_POINT('',(6.030244548248,131.30435261986,
    -70.71067811865));
#208 = CARTESIAN_POINT('',(4.401388926147,140.86955456636,
    -70.71067811865));
#209 = CARTESIAN_POINT('',(2.391302351018,150.43479059593,
    -70.71067811865));
#210 = CARTESIAN_POINT('',(2.57351329789E-14,160.,-70.71067811865));
#211 = CARTESIAN_POINT('',(69.216482848695,0.,-139.9271609673));
#212 = CARTESIAN_POINT('',(71.825174410002,12.559053947707,
    -139.9271609673));
#213 = CARTESIAN_POINT('',(73.893298053997,25.161669243183,
    -139.9271609673));
#214 = CARTESIAN_POINT('',(75.41259291693,37.793478016413,
    -139.9271609673));
#215 = CARTESIAN_POINT('',(77.308330922916,62.551476728511,
    -139.9271609673));
#216 = CARTESIAN_POINT('',(77.729841040123,74.676960987415,
    -139.9271609673));
#217 = CARTESIAN_POINT('',(77.643236144211,86.795812213313,
    -139.9271609673));
#218 = CARTESIAN_POINT('',(76.462570841209,110.98676003755,
    -139.9271609673));
#219 = CARTESIAN_POINT('',(75.368460087492,123.0590374469,
    -139.9271609673));
#220 = CARTESIAN_POINT('',(73.775133878561,135.09142502298,
    -139.9271609673));
#221 = CARTESIAN_POINT('',(69.700278090934,158.52913423229,
    -139.9271609673));
#222 = CARTESIAN_POINT('',(67.260243688562,169.93905600243,
    -139.9271609673));
#223 = CARTESIAN_POINT('',(64.381029643342,181.2890779763,
    -139.9271609673));
#224 = CARTESIAN_POINT('',(61.073367219437,192.57246251703,
    -139.9271609673));
#225 = CARTESIAN_POINT('',(183.16568212864,0.,-114.5892901004));
#226 = CARTESIAN_POINT('',(185.77437368995,16.056210589816,
    -114.5892901004));
#227 = CARTESIAN_POINT('',(187.69944389402,32.227606581651,
    -114.5892901004));
#228 = CARTESIAN_POINT('',(188.91908343038,48.476371422406,
    -114.5892901004));
#229 = CARTESIAN_POINT('',(189.91339882505,80.351546188859,
    -114.5892901004));
#230 = CARTESIAN_POINT('',(189.74640700195,95.976156947932,
    -114.5892901004));
#231 = CARTESIAN_POINT('',(188.92075125853,111.58321489349,
    -114.5892901004));
#232 = CARTESIAN_POINT('',(185.97533168982,142.67360529472,
    -114.5892901004));
#233 = CARTESIAN_POINT('',(183.85543463364,158.15741622561,
    -114.5892901004));
#234 = CARTESIAN_POINT('',(181.10042431338,173.53566778366,
    -114.5892901004));
#235 = CARTESIAN_POINT('',(174.51850984327,203.34854628028,
    -114.5892901004));
#236 = CARTESIAN_POINT('',(170.74305404009,217.79537975337,
    -114.5892901004));
#237 = CARTESIAN_POINT('',(166.43301925373,232.08364592671,
    -114.5892901004));
#238 = CARTESIAN_POINT('',(161.6167783488,246.19561511936,
    -114.5892901004));
#239 = CARTESIAN_POINT('',(243.74447596866,0.,-9.050409087752E-13));
#240 = CARTESIAN_POINT('',(246.35316752996,17.915403393165,
    -9.050409087752E-13));
#241 = CARTESIAN_POINT('',(248.20218625759,35.984069672382,
    -9.050409087752E-13));
#242 = CARTESIAN_POINT('',(249.26252008258,54.155716265073,
    -9.050409087752E-13));
#243 = CARTESIAN_POINT('',(249.77761232448,89.814594152253,
    -6.033606058501E-13));
#244 = CARTESIAN_POINT('',(249.29775531285,107.29944494998,
    -1.300996306364E-12));
#245 = CARTESIAN_POINT('',(248.07919809043,124.76093765311,
    -6.599256626486E-13));
#246 = CARTESIAN_POINT('',(244.19558250529,159.51927756275,
    -1.169011173835E-12));
#247 = CARTESIAN_POINT('',(241.53034684792,176.81676149167,
    -3.771003786563E-13));
#248 = CARTESIAN_POINT('',(238.15775059698,193.97377416133,
    -1.225576230633E-12));
#249 = CARTESIAN_POINT('',(230.24300893694,227.17588284467,
    -1.037026041305E-12));
#250 = CARTESIAN_POINT('',(225.75760327681,243.23722918073,
    -7.919107951783E-13));
#251 = CARTESIAN_POINT('',(220.68690149807,259.0875536286,
    -9.050409087752E-13));
#252 = CARTESIAN_POINT('',(215.06865526646,274.70328280878,
    -9.050409087752E-13));
#253 = CARTESIAN_POINT('',(183.16568212864,0.,114.58929010049));
#254 = CARTESIAN_POINT('',(185.77437368995,16.056210589816,
    114.58929010049));
#255 = CARTESIAN_POINT('',(187.69944389402,32.227606581651,
    114.58929010049));
#256 = CARTESIAN_POINT('',(188.91908343038,48.476371422406,
    114.58929010049));
#257 = CARTESIAN_POINT('',(189.91339882505,80.351546188859,
    114.58929010049));
#258 = CARTESIAN_POINT('',(189.74640700195,95.976156947931,
    114.58929010049));
#259 = CARTESIAN_POINT('',(188.92075125853,111.58321489349,
    114.58929010049));
#260 = CARTESIAN_POINT('',(185.97533168982,142.67360529472,
    114.58929010049));
#261 = CARTESIAN_POINT('',(183.85543463364,158.15741622562,
    114.58929010049));
#262 = CARTESIAN_POINT('',(181.10042431338,173.53566778366,
    114.58929010049));
#263 = CARTESIAN_POINT('',(174.51850984327,203.34854628028,
    114.58929010049));
#264 = CARTESIAN_POINT('',(170.74305404009,217.79537975337,
    114.58929010049));
#265 = CARTESIAN_POINT('',(166.43301925373,232.08364592671,
    114.58929010049));
#266 = CARTESIAN_POINT('',(161.6167783488,246.19561511936,
    114.58929010049));
#267 = CARTESIAN_POINT('',(69.216482848695,0.,139.92716096734));
#268 = CARTESIAN_POINT('',(71.825174410002,12.559053947707,
    139.92716096734));
#269 = CARTESIAN_POINT('',(73.893298053997,25.161669243183,
    139.92716096734));
#270 = CARTESIAN_POINT('',(75.41259291693,37.793478016413,
    139.92716096735));
#271 = CARTESIAN_POINT('',(77.308330922917,62.551476728511,
    139.92716096734));
#272 = CARTESIAN_POINT('',(77.729841040121,74.676960987414,
    139.92716096735));
#273 = CARTESIAN_POINT('',(77.643236144211,86.795812213313,
    139.92716096734));
#274 = CARTESIAN_POINT('',(76.462570841209,110.98676003755,
    139.92716096734));
#275 = CARTESIAN_POINT('',(75.368460087491,123.0590374469,
    139.92716096735));
#276 = CARTESIAN_POINT('',(73.775133878561,135.09142502298,
    139.92716096734));
#277 = CARTESIAN_POINT('',(69.700278090934,158.52913423229,
    139.92716096734));
#278 = CARTESIAN_POINT('',(67.260243688562,169.93905600243,
    139.92716096734));
#279 = CARTESIAN_POINT('',(64.381029643342,181.2890779763,
    139.92716096734));
#280 = CARTESIAN_POINT('',(61.073367219437,192.57246251703,
    139.92716096734));
#281 = CARTESIAN_POINT('',(0.,0.,70.710678118655));
#282 = CARTESIAN_POINT('',(2.608691561307,10.434766245228,
    70.710678118655));
#283 = CARTESIAN_POINT('',(4.76371055896,20.869587037353,70.710678118655
    ));
#284 = CARTESIAN_POINT('',(6.465025900347,31.304338005926,
    70.710678118655));
#285 = CARTESIAN_POINT('',(8.90831758034,51.739130434783,70.710678118655
    ));
#286 = CARTESIAN_POINT('',(9.687303087587,61.739130434782,
    70.710678118654));
#287 = CARTESIAN_POINT('',(10.049621928166,71.739130434783,
    70.710678118655));
#288 = CARTESIAN_POINT('',(9.940926275992,91.739130434783,
    70.710678118654));
#289 = CARTESIAN_POINT('',(9.469911783239,101.73913043478,
    70.710678118656));
#290 = CARTESIAN_POINT('',(8.582230623819,111.73913043478,
    70.710678118654));
#291 = CARTESIAN_POINT('',(6.030244548248,131.30435261986,
    70.710678118655));
#292 = CARTESIAN_POINT('',(4.401388926147,140.86955456636,
    70.710678118655));
#293 = CARTESIAN_POINT('',(2.391302351017,150.43479059593,
    70.710678118655));
#294 = CARTESIAN_POINT('',(1.006139616067E-14,160.,70.710678118655));
#295 = DEFINITIONAL_REPRESENTATION('',(#296),#323);
#296 = B_SPLINE_CURVE_WITH_KNOTS('',7,(#297,#298,#299,#300,#301,#302,
    #303,#304,#305,#306,#307,#308,#309,#310,#311,#312,#313,#314,#315,
    #316,#317,#318,#319,#320,#321,#322),.UNSPECIFIED.,.F.,.F.,(8,6,6,6,8
    ),(0.,0.25,0.5,0.75,1.),.UNSPECIFIED.);
#297 = CARTESIAN_POINT('',(3.926990816987,2.775557561563E-17));
#298 = CARTESIAN_POINT('',(3.926990816987,3.571442791791E-02));
#299 = CARTESIAN_POINT('',(3.926990816987,7.142869581683E-02));
#300 = CARTESIAN_POINT('',(3.926990816987,0.107142936572));
#301 = CARTESIAN_POINT('',(3.926990816987,0.142857233228));
#302 = CARTESIAN_POINT('',(3.926990816987,0.178571607194));
#303 = CARTESIAN_POINT('',(3.926990816987,0.214286006442));
#304 = CARTESIAN_POINT('',(3.926990816987,0.285714580948));
#305 = CARTESIAN_POINT('',(3.926990816987,0.321428786366));
#306 = CARTESIAN_POINT('',(3.926990816987,0.35714312967));
#307 = CARTESIAN_POINT('',(3.926990816987,0.392857327566));
#308 = CARTESIAN_POINT('',(3.926990816987,0.42857161963));
#309 = CARTESIAN_POINT('',(3.926990816987,0.464285879126));
#310 = CARTESIAN_POINT('',(3.926990816987,0.53571440344));
#311 = CARTESIAN_POINT('',(3.926990816987,0.571428664398));
#312 = CARTESIAN_POINT('',(3.926990816987,0.607142938588));
#313 = CARTESIAN_POINT('',(3.926990816987,0.642857195367));
#314 = CARTESIAN_POINT('',(3.926990816987,0.678571446439));
#315 = CARTESIAN_POINT('',(3.926990816987,0.714285728955));
#316 = CARTESIAN_POINT('',(3.926990816987,0.785714239591));
#317 = CARTESIAN_POINT('',(3.926990816987,0.821428550346));
#318 = CARTESIAN_POINT('',(3.926990816987,0.857142866772));
#319 = CARTESIAN_POINT('',(3.926990816987,0.892857156272));
#320 = CARTESIAN_POINT('',(3.926990816987,0.928571413185));
#321 = CARTESIAN_POINT('',(3.926990816987,0.964285668575));
#322 = CARTESIAN_POINT('',(3.926990816987,1.));
#323 = ( GEOMETRIC_REPRESENTATION_CONTEXT(2) 
PARAMETRIC_REPRESENTATION_CONTEXT() REPRESENTATION_CONTEXT('2D SPACE',''
  ) );
#324 = ORIENTED_EDGE('',*,*,#325,.F.);
#325 = EDGE_CURVE('',#326,#171,#328,.T.);
#326 = VERTEX_POINT('',#327);
#327 = CARTESIAN_POINT('',(2.224527751547E-15,160.,70.710678118655));
#328 = SURFACE_CURVE('',#329,(#334,#360),.PCURVE_S1.);
#329 = CIRCLE('',#330,100.);
#330 = AXIS2_PLACEMENT_3D('',#331,#332,#333);
#331 = CARTESIAN_POINT('',(-62.39177481057,126.72438676769,0.));
#332 = DIRECTION('',(0.470588235294,-0.882352941176,0.));
#333 = DIRECTION('',(0.882352941176,0.470588235294,0.));
#334 = PCURVE('',#33,#335);
#335 = DEFINITIONAL_REPRESENTATION('',(#336),#359);
#336 = B_SPLINE_CURVE_WITH_KNOTS('',11,(#337,#338,#339,#340,#341,#342,
    #343,#344,#345,#346,#347,#348,#349,#350,#351,#352,#353,#354,#355,
    #356,#357,#358),.UNSPECIFIED.,.F.,.F.,(12,10,12),(0.785398163397,
    3.14159265359,5.497787143782),.UNSPECIFIED.);
#337 = CARTESIAN_POINT('',(0.785398163397,1.));
#338 = CARTESIAN_POINT('',(1.000222273078,1.));
#339 = CARTESIAN_POINT('',(1.21441256465,1.));
#340 = CARTESIAN_POINT('',(1.428388224969,1.));
#341 = CARTESIAN_POINT('',(1.642374564009,1.));
#342 = CARTESIAN_POINT('',(1.85645075503,1.));
#343 = CARTESIAN_POINT('',(2.070604625648,1.));
#344 = CARTESIAN_POINT('',(2.28479450707,1.));
#345 = CARTESIAN_POINT('',(2.498994219915,1.));
#346 = CARTESIAN_POINT('',(2.713193641161,1.));
#347 = CARTESIAN_POINT('',(2.927393154472,1.));
#348 = CARTESIAN_POINT('',(3.355792152707,1.));
#349 = CARTESIAN_POINT('',(3.569991665814,1.));
#350 = CARTESIAN_POINT('',(3.784191088422,0.999999999999));
#351 = CARTESIAN_POINT('',(3.998390796893,1.000000000001));
#352 = CARTESIAN_POINT('',(4.212580687064,0.999999999998));
#353 = CARTESIAN_POINT('',(4.426734545837,1.000000000001));
#354 = CARTESIAN_POINT('',(4.640810747967,0.999999999999));
#355 = CARTESIAN_POINT('',(4.854797079921,1.000000000001));
#356 = CARTESIAN_POINT('',(5.068772743081,1.));
#357 = CARTESIAN_POINT('',(5.282963034101,1.));
#358 = CARTESIAN_POINT('',(5.497787143782,1.));
#359 = ( GEOMETRIC_REPRESENTATION_CONTEXT(2) 
PARAMETRIC_REPRESENTATION_CONTEXT() REPRESENTATION_CONTEXT('2D SPACE',''
  ) );
#360 = PCURVE('',#361,#366);
#361 = PLANE('',#362);
#362 = AXIS2_PLACEMENT_3D('',#363,#364,#365);
#363 = CARTESIAN_POINT('',(-62.39177481057,126.72438676769,0.));
#364 = DIRECTION('',(0.470588235294,-0.882352941176,0.));
#365 = DIRECTION('',(0.882352941176,0.470588235294,0.));
#366 = DEFINITIONAL_REPRESENTATION('',(#367),#371);
#367 = CIRCLE('',#368,100.);
#368 = AXIS2_PLACEMENT_2D('',#369,#370);
#369 = CARTESIAN_POINT('',(0.,0.));
#370 = DIRECTION('',(1.,0.));
#371 = ( GEOMETRIC_REPRESENTATION_CONTEXT(2) 
PARAMETRIC_REPRESENTATION_CONTEXT() REPRESENTATION_CONTEXT('2D SPACE',''
  ) );
#372 = ORIENTED_EDGE('',*,*,#373,.F.);
#373 = EDGE_CURVE('',#22,#326,#374,.T.);
#374 = SURFACE_CURVE('',#375,(#390,#396),.PCURVE_S1.);
#375 = B_SPLINE_CURVE_WITH_KNOTS('',4,(#376,#377,#378,#379,#380,#381,
    #382,#383,#384,#385,#386,#387,#388,#389),.UNSPECIFIED.,.F.,.F.,(5,3,
    3,3,5),(0.,0.260869426247,0.510869490528,0.760869554809,1.),
  .UNSPECIFIED.);
#376 = CARTESIAN_POINT('',(-2.676171090423E-14,0.,70.710678118655));
#377 = CARTESIAN_POINT('',(2.608699033563,10.434796134253,
    70.710678118655));
#378 = CARTESIAN_POINT('',(4.763700595036,20.869547181658,
    70.710678118655));
#379 = CARTESIAN_POINT('',(6.465030384651,31.304355943141,
    70.710678118655));
#380 = CARTESIAN_POINT('',(8.908317580341,51.739130434783,
    70.710678118655));
#381 = CARTESIAN_POINT('',(9.687303087586,61.739130434782,
    70.710678118655));
#382 = CARTESIAN_POINT('',(10.049621928167,71.739130434783,
    70.710678118655));
#383 = CARTESIAN_POINT('',(9.940926275992,91.739130434782,
    70.710678118654));
#384 = CARTESIAN_POINT('',(9.469911783239,101.73913043478,
    70.710678118656));
#385 = CARTESIAN_POINT('',(8.582230623818,111.73913043478,
    70.710678118654));
#386 = CARTESIAN_POINT('',(6.030246249751,131.30434581385,
    70.710678118655));
#387 = CARTESIAN_POINT('',(4.401385145671,140.86956968826,
    70.710678118655));
#388 = CARTESIAN_POINT('',(2.391305186006,150.43477925597,
    70.710678118655));
#389 = CARTESIAN_POINT('',(-2.676171090423E-14,160.,70.710678118655));
#390 = PCURVE('',#33,#391);
#391 = DEFINITIONAL_REPRESENTATION('',(#392),#395);
#392 = B_SPLINE_CURVE_WITH_KNOTS('',1,(#393,#394),.UNSPECIFIED.,.F.,.F.,
  (2,2),(0.,1.),.PIECEWISE_BEZIER_KNOTS.);
#393 = CARTESIAN_POINT('',(0.785398163397,0.));
#394 = CARTESIAN_POINT('',(0.785398163397,1.));
#395 = ( GEOMETRIC_REPRESENTATION_CONTEXT(2) 
PARAMETRIC_REPRESENTATION_CONTEXT() REPRESENTATION_CONTEXT('2D SPACE',''
  ) );
#396 = PCURVE('',#196,#397);
#397 = DEFINITIONAL_REPRESENTATION('',(#398),#425);
#398 = B_SPLINE_CURVE_WITH_KNOTS('',7,(#399,#400,#401,#402,#403,#404,
    #405,#406,#407,#408,#409,#410,#411,#412,#413,#414,#415,#416,#417,
    #418,#419,#420,#421,#422,#423,#424),.UNSPECIFIED.,.F.,.F.,(8,6,6,6,8
    ),(0.,0.25,0.5,0.75,1.),.UNSPECIFIED.);
#399 = CARTESIAN_POINT('',(8.639379797372,0.));
#400 = CARTESIAN_POINT('',(8.639379797372,3.571442791797E-02));
#401 = CARTESIAN_POINT('',(8.639379797372,7.142869581687E-02));
#402 = CARTESIAN_POINT('',(8.639379797372,0.107142936572));
#403 = CARTESIAN_POINT('',(8.639379797371,0.142857233228));
#404 = CARTESIAN_POINT('',(8.639379797372,0.178571607194));
#405 = CARTESIAN_POINT('',(8.639379797372,0.214286006442));
#406 = CARTESIAN_POINT('',(8.639379797372,0.285714580948));
#407 = CARTESIAN_POINT('',(8.639379797372,0.321428786369));
#408 = CARTESIAN_POINT('',(8.639379797372,0.357143129658));
#409 = CARTESIAN_POINT('',(8.639379797372,0.392857327583));
#410 = CARTESIAN_POINT('',(8.639379797372,0.428571619617));
#411 = CARTESIAN_POINT('',(8.639379797372,0.464285879131));
#412 = CARTESIAN_POINT('',(8.639379797372,0.535714403435));
#413 = CARTESIAN_POINT('',(8.639379797372,0.571428664503));
#414 = CARTESIAN_POINT('',(8.639379797372,0.607142938392));
#415 = CARTESIAN_POINT('',(8.639379797372,0.64285719531));
#416 = CARTESIAN_POINT('',(8.639379797372,0.678571446794));
#417 = CARTESIAN_POINT('',(8.639379797372,0.714285729));
#418 = CARTESIAN_POINT('',(8.639379797372,0.785714239546));
#419 = CARTESIAN_POINT('',(8.639379797372,0.82142855036));
#420 = CARTESIAN_POINT('',(8.639379797372,0.857142866804));
#421 = CARTESIAN_POINT('',(8.639379797372,0.892857156273));
#422 = CARTESIAN_POINT('',(8.639379797372,0.928571413164));
#423 = CARTESIAN_POINT('',(8.639379797372,0.964285668575));
#424 = CARTESIAN_POINT('',(8.639379797372,1.));
#425 = ( GEOMETRIC_REPRESENTATION_CONTEXT(2) 
PARAMETRIC_REPRESENTATION_CONTEXT() REPRESENTATION_CONTEXT('2D SPACE',''
  ) );
#426 = ADVANCED_FACE('',(#427),#196,.T.);
#427 = FACE_BOUND('',#428,.T.);
#428 = EDGE_LOOP('',(#429,#470,#471,#512));
#429 = ORIENTED_EDGE('',*,*,#430,.T.);
#430 = EDGE_CURVE('',#24,#22,#431,.T.);
#431 = SURFACE_CURVE('',#432,(#437,#463),.PCURVE_S1.);
#432 = CIRCLE('',#433,100.);
#433 = AXIS2_PLACEMENT_3D('',#434,#435,#436);
#434 = CARTESIAN_POINT('',(70.710678118655,0.,0.));
#435 = DIRECTION('',(0.,-1.,0.));
#436 = DIRECTION('',(1.,0.,0.));
#437 = PCURVE('',#196,#438);
#438 = DEFINITIONAL_REPRESENTATION('',(#439),#462);
#439 = B_SPLINE_CURVE_WITH_KNOTS('',11,(#440,#441,#442,#443,#444,#445,
    #446,#447,#448,#449,#450,#451,#452,#453,#454,#455,#456,#457,#458,
    #459,#460,#461),.UNSPECIFIED.,.F.,.F.,(12,10,12),(3.926990816987,
    6.28318530718,8.639379797372),.UNSPECIFIED.);
#440 = CARTESIAN_POINT('',(3.926990816987,0.));
#441 = CARTESIAN_POINT('',(4.141814926668,0.));
#442 = CARTESIAN_POINT('',(4.35600521824,0.));
#443 = CARTESIAN_POINT('',(4.569980878557,0.));
#444 = CARTESIAN_POINT('',(4.783967217602,0.));
#445 = CARTESIAN_POINT('',(4.998043408615,0.));
#446 = CARTESIAN_POINT('',(5.212197279243,0.));
#447 = CARTESIAN_POINT('',(5.426387160656,0.));
#448 = CARTESIAN_POINT('',(5.640586873507,0.));
#449 = CARTESIAN_POINT('',(5.85478629475,0.));
#450 = CARTESIAN_POINT('',(6.068985808062,0.));
#451 = CARTESIAN_POINT('',(6.497384806297,0.));
#452 = CARTESIAN_POINT('',(6.711584319402,0.));
#453 = CARTESIAN_POINT('',(6.925783742016,0.));
#454 = CARTESIAN_POINT('',(7.139983450477,0.));
#455 = CARTESIAN_POINT('',(7.354173340661,0.));
#456 = CARTESIAN_POINT('',(7.568327199422,0.));
#457 = CARTESIAN_POINT('',(7.78240340156,0.));
#458 = CARTESIAN_POINT('',(7.99638973351,0.));
#459 = CARTESIAN_POINT('',(8.210365396671,0.));
#460 = CARTESIAN_POINT('',(8.424555687691,0.));
#461 = CARTESIAN_POINT('',(8.639379797372,0.));
#462 = ( GEOMETRIC_REPRESENTATION_CONTEXT(2) 
PARAMETRIC_REPRESENTATION_CONTEXT() REPRESENTATION_CONTEXT('2D SPACE',''
  ) );
#463 = PCURVE('',#158,#464);
#464 = DEFINITIONAL_REPRESENTATION('',(#465),#469);
#465 = CIRCLE('',#466,100.);
#466 = AXIS2_PLACEMENT_2D('',#467,#468);
#467 = CARTESIAN_POINT('',(141.42135623731,0.));
#468 = DIRECTION('',(1.,0.));
#469 = ( GEOMETRIC_REPRESENTATION_CONTEXT(2) 
PARAMETRIC_REPRESENTATION_CONTEXT() REPRESENTATION_CONTEXT('2D SPACE',''
  ) );
#470 = ORIENTED_EDGE('',*,*,#373,.T.);
#471 = ORIENTED_EDGE('',*,*,#472,.F.);
#472 = EDGE_CURVE('',#171,#326,#473,.T.);
#473 = SURFACE_CURVE('',#474,(#479,#505),.PCURVE_S1.);
#474 = CIRCLE('',#475,100.);
#475 = AXIS2_PLACEMENT_3D('',#476,#477,#478);
#476 = CARTESIAN_POINT('',(62.391774810578,193.2756132323,0.));
#477 = DIRECTION('',(0.470588235294,-0.882352941176,0.));
#478 = DIRECTION('',(0.882352941176,0.470588235294,0.));
#479 = PCURVE('',#196,#480);
#480 = DEFINITIONAL_REPRESENTATION('',(#481),#504);
#481 = B_SPLINE_CURVE_WITH_KNOTS('',11,(#482,#483,#484,#485,#486,#487,
    #488,#489,#490,#491,#492,#493,#494,#495,#496,#497,#498,#499,#500,
    #501,#502,#503),.UNSPECIFIED.,.F.,.F.,(12,10,12),(3.926990816987,
    6.28318530718,8.639379797372),.UNSPECIFIED.);
#482 = CARTESIAN_POINT('',(3.926990816987,1.));
#483 = CARTESIAN_POINT('',(4.141814926668,1.));
#484 = CARTESIAN_POINT('',(4.35600521824,1.));
#485 = CARTESIAN_POINT('',(4.569980878557,1.));
#486 = CARTESIAN_POINT('',(4.783967217601,1.000000000001));
#487 = CARTESIAN_POINT('',(4.998043408617,0.999999999999));
#488 = CARTESIAN_POINT('',(5.212197279242,1.000000000001));
#489 = CARTESIAN_POINT('',(5.426387160657,0.999999999999));
#490 = CARTESIAN_POINT('',(5.640586873506,1.));
#491 = CARTESIAN_POINT('',(5.854786294751,1.));
#492 = CARTESIAN_POINT('',(6.068985808062,1.));
#493 = CARTESIAN_POINT('',(6.497384806298,1.));
#494 = CARTESIAN_POINT('',(6.711584319401,1.));
#495 = CARTESIAN_POINT('',(6.925783742017,1.));
#496 = CARTESIAN_POINT('',(7.139983450475,1.));
#497 = CARTESIAN_POINT('',(7.354173340663,1.));
#498 = CARTESIAN_POINT('',(7.56832719942,1.));
#499 = CARTESIAN_POINT('',(7.782403401561,1.));
#500 = CARTESIAN_POINT('',(7.996389733509,1.));
#501 = CARTESIAN_POINT('',(8.210365396672,1.));
#502 = CARTESIAN_POINT('',(8.424555687691,1.));
#503 = CARTESIAN_POINT('',(8.639379797372,1.));
#504 = ( GEOMETRIC_REPRESENTATION_CONTEXT(2) 
PARAMETRIC_REPRESENTATION_CONTEXT() REPRESENTATION_CONTEXT('2D SPACE',''
  ) );
#505 = PCURVE('',#361,#506);
#506 = DEFINITIONAL_REPRESENTATION('',(#507),#511);
#507 = CIRCLE('',#508,100.);
#508 = AXIS2_PLACEMENT_2D('',#509,#510);
#509 = CARTESIAN_POINT('',(141.42135623731,0.));
#510 = DIRECTION('',(1.,0.));
#511 = ( GEOMETRIC_REPRESENTATION_CONTEXT(2) 
PARAMETRIC_REPRESENTATION_CONTEXT() REPRESENTATION_CONTEXT('2D SPACE',''
  ) );
#512 = ORIENTED_EDGE('',*,*,#170,.F.);
#513 = ADVANCED_FACE('',(#514),#158,.F.);
#514 = FACE_BOUND('',#515,.F.);
#515 = EDGE_LOOP('',(#516,#517));
#516 = ORIENTED_EDGE('',*,*,#21,.T.);
#517 = ORIENTED_EDGE('',*,*,#430,.T.);
#518 = ADVANCED_FACE('',(#519),#361,.T.);
#519 = FACE_BOUND('',#520,.T.);
#520 = EDGE_LOOP('',(#521,#522));
#521 = ORIENTED_EDGE('',*,*,#325,.T.);
#522 = ORIENTED_EDGE('',*,*,#472,.T.);
#523 = ( GEOMETRIC_REPRESENTATION_CONTEXT(3) 
GLOBAL_UNCERTAINTY_ASSIGNED_CONTEXT((#527)) GLOBAL_UNIT_ASSIGNED_CONTEXT
((#524,#525,#526)) REPRESENTATION_CONTEXT('Context #1',
  '3D Context with UNIT and UNCERTAINTY') );
#524 = ( LENGTH_UNIT() NAMED_UNIT(*) SI_UNIT(.MILLI.,.METRE.) );
#525 = ( NAMED_UNIT(*) PLANE_ANGLE_UNIT() SI_UNIT($,.RADIAN.) );
#526 = ( NAMED_UNIT(*) SI_UNIT($,.STERADIAN.) SOLID_ANGLE_UNIT() );
#527 = UNCERTAINTY_MEASURE_WITH_UNIT(LENGTH_MEASURE(2.E-06),#524,
  'distance_accuracy_value','confusion accuracy');
#528 = PRODUCT_RELATED_PRODUCT_CATEGORY('part',$,(#7));
ENDSEC;
END-ISO-10303-21;
