ISO-10303-21;
HEADER;
FILE_DESCRIPTION(('Open CASCADE Model'),'2;1');
FILE_NAME('Open CASCADE Shape Model','2026-07-11T20:16:05',('Author'),(
    'Open CASCADE'),'Open CASCADE STEP processor 8.0','Open CASCADE 8.0'
  ,'Unknown');
FILE_SCHEMA(('AUTOMOTIVE_DESIGN { 1 0 10303 214 1 1 1 1 }'));
ENDSEC;
DATA;
#1 = APPLICATION_PROTOCOL_DEFINITION('international standard',
  'automotive_design',2000,#2);
#2 = APPLICATION_CONTEXT(
  'core data for automotive mechanical design processes');
#3 = SHAPE_DEFINITION_REPRESENTATION(#4,#10);
#4 = PRODUCT_DEFINITION_SHAPE('','',#5);
#5 = PRODUCT_DEFINITION('design','',#6,#9);
#6 = PRODUCT_DEFINITION_FORMATION('','',#7);
#7 = PRODUCT('Open CASCADE STEP translator 8.0 1',
  'Open CASCADE STEP translator 8.0 1','',(#8));
#8 = PRODUCT_CONTEXT('',#2,'mechanical');
#9 = PRODUCT_DEFINITION_CONTEXT('part definition',#2,'design');
#10 = MANIFOLD_SURFACE_SHAPE_REPRESENTATION('',(#11,#15),#490);
#11 = AXIS2_PLACEMENT_3D('',#12,#13,#14);
#12 = CARTESIAN_POINT('',(0.,0.,0.));
#13 = DIRECTION('',(0.,0.,1.));
#14 = DIRECTION('',(1.,0.,-0.));
#15 = SHELL_BASED_SURFACE_MODEL('',(#16));
#16 = OPEN_SHELL('',(#17,#230,#415));
#17 = ADVANCED_FACE('',(#18),#38,.T.);
#18 = FACE_BOUND('',#19,.T.);
#19 = EDGE_LOOP('',(#20,#74,#94,#183));
#20 = ORIENTED_EDGE('',*,*,#21,.T.);
#21 = EDGE_CURVE('',#22,#24,#26,.T.);
#22 = VERTEX_POINT('',#23);
#23 = CARTESIAN_POINT('',(-72.49066671535,-19.91607507106,
    1.044909635412E+03));
#24 = VERTEX_POINT('',#25);
#25 = CARTESIAN_POINT('',(-75.23622106383,-514.5405606615,
    1.044909782018E+03));
#26 = SURFACE_CURVE('',#27,(#37),.PCURVE_S1.);
#27 = B_SPLINE_CURVE_WITH_KNOTS('',8,(#28,#29,#30,#31,#32,#33,#34,#35,
    #36),.UNSPECIFIED.,.F.,.F.,(9,9),(0.,1.),.PIECEWISE_BEZIER_KNOTS.);
#28 = CARTESIAN_POINT('',(-72.49066671535,-19.91607507106,
    1.044909635412E+03));
#29 = CARTESIAN_POINT('',(-45.95849138023,-82.50380637614,
    1.044909681974E+03));
#30 = CARTESIAN_POINT('',(-39.05267057222,-140.9290648517,
    1.044896925703E+03));
#31 = CARTESIAN_POINT('',(-45.79931506786,-199.1882103594,
    1.044938996059E+03));
#32 = CARTESIAN_POINT('',(-60.23879850337,-259.6160002243,
    1.044887284427E+03));
#33 = CARTESIAN_POINT('',(-76.33788449425,-322.9100102336,
    1.044912616124E+03));
#34 = CARTESIAN_POINT('',(-88.11784800209,-388.2824369401,
    1.044913016962E+03));
#35 = CARTESIAN_POINT('',(-89.67650519246,-453.4175737321,
    1.044909830594E+03));
#36 = CARTESIAN_POINT('',(-75.23622106383,-514.5405606615,
    1.044909782018E+03));
#37 = PCURVE('',#38,#64);
#38 = B_SPLINE_SURFACE_WITH_KNOTS('',4,4,(
    (#39,#40,#41,#42,#43)
    ,(#44,#45,#46,#47,#48)
    ,(#49,#50,#51,#52,#53)
    ,(#54,#55,#56,#57,#58)
    ,(#59,#60,#61,#62,#63
    )),.UNSPECIFIED.,.F.,.F.,.F.,(5,5),(5,5),(0.,1.),(0.,1.),
  .PIECEWISE_BEZIER_KNOTS.);
#39 = CARTESIAN_POINT('',(-78.37832,-18.92588,1.5E+03));
#40 = CARTESIAN_POINT('',(-54.49875,-0.6332074,1.11957E+03));
#41 = CARTESIAN_POINT('',(-101.1996,-56.00276,676.5835));
#42 = CARTESIAN_POINT('',(-54.49875,-11.01498,203.7321));
#43 = CARTESIAN_POINT('',(-78.37832,-18.92588,0.));
#44 = CARTESIAN_POINT('',(-8.108169,-170.3331,1.5E+03));
#45 = CARTESIAN_POINT('',(-8.108169,-170.3331,1.125E+03));
#46 = CARTESIAN_POINT('',(-8.108169,-170.3331,750.));
#47 = CARTESIAN_POINT('',(-8.108169,-170.3331,375.));
#48 = CARTESIAN_POINT('',(-8.108169,-170.3331,0.));
#49 = CARTESIAN_POINT('',(-78.37832,-294.7034,1.5E+03));
#50 = CARTESIAN_POINT('',(-78.37832,-294.7034,1.125E+03));
#51 = CARTESIAN_POINT('',(-78.37832,-294.7034,750.));
#52 = CARTESIAN_POINT('',(-78.37832,-294.7034,375.));
#53 = CARTESIAN_POINT('',(-78.37832,-294.7034,0.));
#54 = CARTESIAN_POINT('',(-132.4324,-483.9625,1.5E+03));
#55 = CARTESIAN_POINT('',(-132.4324,-483.9625,1.125E+03));
#56 = CARTESIAN_POINT('',(-132.4324,-483.9625,750.));
#57 = CARTESIAN_POINT('',(-132.4324,-483.9625,375.));
#58 = CARTESIAN_POINT('',(-132.4324,-483.9625,0.));
#59 = CARTESIAN_POINT('',(-29.72975,-608.3327,1.5E+03));
#60 = CARTESIAN_POINT('',(-29.72975,-608.3327,1.125E+03));
#61 = CARTESIAN_POINT('',(-29.72975,-608.3327,750.));
#62 = CARTESIAN_POINT('',(-29.72975,-608.3327,375.));
#63 = CARTESIAN_POINT('',(-29.72975,-608.3327,0.));
#64 = DEFINITIONAL_REPRESENTATION('',(#65),#73);
#65 = B_SPLINE_CURVE_WITH_KNOTS('',6,(#66,#67,#68,#69,#70,#71,#72),
  .UNSPECIFIED.,.F.,.F.,(7,7),(0.,1.),.PIECEWISE_BEZIER_KNOTS.);
#66 = CARTESIAN_POINT('',(0.,0.282437));
#67 = CARTESIAN_POINT('',(0.1380211,0.2927767));
#68 = CARTESIAN_POINT('',(0.2761388,0.2994368));
#69 = CARTESIAN_POINT('',(0.4144099,0.302168));
#70 = CARTESIAN_POINT('',(0.5527788,0.3030516));
#71 = CARTESIAN_POINT('',(0.6911482,0.3033091));
#72 = CARTESIAN_POINT('',(0.8294308,0.3033736));
#73 = ( GEOMETRIC_REPRESENTATION_CONTEXT(2) 
PARAMETRIC_REPRESENTATION_CONTEXT() REPRESENTATION_CONTEXT('2D SPACE',''
  ) );
#74 = ORIENTED_EDGE('',*,*,#75,.T.);
#75 = EDGE_CURVE('',#24,#76,#78,.T.);
#76 = VERTEX_POINT('',#77);
#77 = CARTESIAN_POINT('',(-75.23541171945,-514.540535387,322.33820412743
    ));
#78 = SURFACE_CURVE('',#79,(#85),.PCURVE_S1.);
#79 = B_SPLINE_CURVE_WITH_KNOTS('',4,(#80,#81,#82,#83,#84),
  .UNSPECIFIED.,.F.,.F.,(5,5),(0.,1.),.PIECEWISE_BEZIER_KNOTS.);
#80 = CARTESIAN_POINT('',(-75.23622106383,-514.5405606615,
    1.044909782018E+03));
#81 = CARTESIAN_POINT('',(-75.23889568601,-514.540564586,864.25851170981
    ));
#82 = CARTESIAN_POINT('',(-75.24173683112,-514.540570406,683.6035006753)
  );
#83 = CARTESIAN_POINT('',(-75.23697057985,-514.540573741,502.95582855421
    ));
#84 = CARTESIAN_POINT('',(-75.23529587735,-514.5405862363,
    322.33818207525));
#85 = PCURVE('',#38,#86);
#86 = DEFINITIONAL_REPRESENTATION('',(#87),#93);
#87 = B_SPLINE_CURVE_WITH_KNOTS('',4,(#88,#89,#90,#91,#92),
  .UNSPECIFIED.,.F.,.F.,(5,5),(0.,1.),.PIECEWISE_BEZIER_KNOTS.);
#88 = CARTESIAN_POINT('',(0.8294308,0.3033736));
#89 = CARTESIAN_POINT('',(0.829424,0.4237953));
#90 = CARTESIAN_POINT('',(0.8294178,0.5442171));
#91 = CARTESIAN_POINT('',(0.8294242,0.6646388));
#92 = CARTESIAN_POINT('',(0.8294299,0.7850605));
#93 = ( GEOMETRIC_REPRESENTATION_CONTEXT(2) 
PARAMETRIC_REPRESENTATION_CONTEXT() REPRESENTATION_CONTEXT('2D SPACE',''
  ) );
#94 = ORIENTED_EDGE('',*,*,#95,.T.);
#95 = EDGE_CURVE('',#76,#96,#98,.T.);
#96 = VERTEX_POINT('',#97);
#97 = CARTESIAN_POINT('',(-72.20333795963,-23.00868912729,
    307.21756526923));
#98 = SURFACE_CURVE('',#99,(#134,#148),.PCURVE_S1.);
#99 = B_SPLINE_CURVE_WITH_KNOTS('',9,(#100,#101,#102,#103,#104,#105,#106
    ,#107,#108,#109,#110,#111,#112,#113,#114,#115,#116,#117,#118,#119,
    #120,#121,#122,#123,#124,#125,#126,#127,#128,#129,#130,#131,#132,
    #133),.UNSPECIFIED.,.F.,.F.,(10,8,8,8,10),(0.,0.25,0.375,0.5,1.),
  .UNSPECIFIED.);
#100 = CARTESIAN_POINT('',(-75.23529587735,-514.5405862363,
    322.33818207525));
#101 = CARTESIAN_POINT('',(-78.45058806634,-500.9286496595,
    322.64879681789));
#102 = CARTESIAN_POINT('',(-80.88425844149,-487.1221159873,
    322.9586924724));
#103 = CARTESIAN_POINT('',(-82.59704472187,-473.1606102797,
    323.26148177829));
#104 = CARTESIAN_POINT('',(-83.64986670779,-459.0805323202,
    323.55072149681));
#105 = CARTESIAN_POINT('',(-84.1038194337,-444.9150568604,
    323.82005790196));
#106 = CARTESIAN_POINT('',(-84.0201663214,-430.6941338639,
    324.06337227262));
#107 = CARTESIAN_POINT('',(-83.46033233289,-416.4444887507,
    324.27492638346));
#108 = CARTESIAN_POINT('',(-82.4858971235,-402.1896226415,
    324.44950799686));
#109 = CARTESIAN_POINT('',(-80.49493373057,-380.8299075815,
    324.64911053289));
#110 = CARTESIAN_POINT('',(-79.74306018581,-373.7137681105,
    324.70527038112));
#111 = CARTESIAN_POINT('',(-78.91068404428,-366.6039278741,
    324.75047707207));
#112 = CARTESIAN_POINT('',(-78.00553018673,-359.5027208942,
    324.78420032042));
#113 = CARTESIAN_POINT('',(-77.03533189094,-352.4122815293,
    324.80595838253));
#114 = CARTESIAN_POINT('',(-76.00783083175,-345.3345444739,
    324.81531805617));
#115 = CARTESIAN_POINT('',(-74.93077708105,-338.2712447594,
    324.81189468088));
#116 = CARTESIAN_POINT('',(-73.81192910778,-331.2239177529,
    324.79535213758));
#117 = CARTESIAN_POINT('',(-71.50617844806,-317.1638805639,
    324.73545356025));
#118 = CARTESIAN_POINT('',(-70.31921274689,-310.1508375201,
    324.69212244395));
#119 = CARTESIAN_POINT('',(-69.10686030649,-303.1613894302,
    324.63408887734));
#120 = CARTESIAN_POINT('',(-67.8724058432,-296.1707896965,324.5677736862
    ));
#121 = CARTESIAN_POINT('',(-66.63086375941,-289.2225783943,
    324.47965067776));
#122 = CARTESIAN_POINT('',(-65.3828991054,-282.2752280885,
    324.38262184317));
#123 = CARTESIAN_POINT('',(-64.14127765925,-275.3586095539,
    324.26690014378));
#124 = CARTESIAN_POINT('',(-62.91167125702,-268.4601402875,
    324.13645898395));
#125 = CARTESIAN_POINT('',(-56.86633410001,-234.0792254792,
    323.40312967984));
#126 = CARTESIAN_POINT('',(-52.35744769758,-206.9234699806,
    322.55947557064));
#127 = CARTESIAN_POINT('',(-48.68166708355,-180.1452246487,
    321.4400445333));
#128 = CARTESIAN_POINT('',(-46.34809780889,-153.7236179331,
    320.0417367266));
#129 = CARTESIAN_POINT('',(-45.86193243869,-127.586945482,
    318.35326084218));
#130 = CARTESIAN_POINT('',(-47.72002578062,-101.6181913388,
    316.33024923167));
#131 = CARTESIAN_POINT('',(-52.40968878091,-75.66273641909,
    313.88198146113));
#132 = CARTESIAN_POINT('',(-60.4110484541,-49.53349292117,
    310.88233170655));
#133 = CARTESIAN_POINT('',(-72.20332121413,-23.00870332206,
    307.21755540261));
#134 = PCURVE('',#38,#135);
#135 = DEFINITIONAL_REPRESENTATION('',(#136),#147);
#136 = B_SPLINE_CURVE_WITH_KNOTS('',5,(#137,#138,#139,#140,#141,#142,
    #143,#144,#145,#146),.UNSPECIFIED.,.F.,.F.,(6,4,6),(0.,
    0.392873732496,1.),.UNSPECIFIED.);
#137 = CARTESIAN_POINT('',(0.8294299,0.7850605));
#138 = CARTESIAN_POINT('',(0.7640959,0.7844021));
#139 = CARTESIAN_POINT('',(0.698759,0.7836435));
#140 = CARTESIAN_POINT('',(0.6334252,0.7827895));
#141 = CARTESIAN_POINT('',(0.5681036,0.7817227));
#142 = CARTESIAN_POINT('',(0.4018988,0.7775234));
#143 = CARTESIAN_POINT('',(0.3006998,0.7735292));
#144 = CARTESIAN_POINT('',(0.1996813,0.7671021));
#145 = CARTESIAN_POINT('',(9.940803E-02,0.7548876));
#146 = CARTESIAN_POINT('',(0.,0.735827));
#147 = ( GEOMETRIC_REPRESENTATION_CONTEXT(2) 
PARAMETRIC_REPRESENTATION_CONTEXT() REPRESENTATION_CONTEXT('2D SPACE',''
  ) );
#148 = PCURVE('',#149,#166);
#149 = B_SPLINE_SURFACE_WITH_KNOTS('',3,3,(
    (#150,#151,#152,#153)
    ,(#154,#155,#156,#157)
    ,(#158,#159,#160,#161)
    ,(#162,#163,#164,#165
    )),.UNSPECIFIED.,.F.,.F.,.F.,(4,4),(4,4),(0.,1.),(0.,1.),
  .PIECEWISE_BEZIER_KNOTS.);
#150 = CARTESIAN_POINT('',(473.048,537.3995,308.257));
#151 = CARTESIAN_POINT('',(473.048,37.39947,308.257));
#152 = CARTESIAN_POINT('',(473.048,-462.6005,308.257));
#153 = CARTESIAN_POINT('',(473.048,-962.6005,308.257));
#154 = CARTESIAN_POINT('',(9.157142,565.6042,173.8676));
#155 = CARTESIAN_POINT('',(-0.6184503,65.60415,401.1681));
#156 = CARTESIAN_POINT('',(-0.6184503,-434.3958,401.1681));
#157 = CARTESIAN_POINT('',(-5.769476,-934.3958,308.257));
#158 = CARTESIAN_POINT('',(-532.3203,513.3963,115.7982));
#159 = CARTESIAN_POINT('',(-542.0959,13.39632,343.0987));
#160 = CARTESIAN_POINT('',(-542.0959,-486.6037,343.0987));
#161 = CARTESIAN_POINT('',(-547.2469,-986.6037,250.1875));
#162 = CARTESIAN_POINT('',(-950.617,513.3963,134.0486));
#163 = CARTESIAN_POINT('',(-950.617,13.39632,134.0486));
#164 = CARTESIAN_POINT('',(-950.617,-486.6037,134.0486));
#165 = CARTESIAN_POINT('',(-950.617,-986.6037,134.0486));
#166 = DEFINITIONAL_REPRESENTATION('',(#167),#182);
#167 = B_SPLINE_CURVE_WITH_KNOTS('',7,(#168,#169,#170,#171,#172,#173,
    #174,#175,#176,#177,#178,#179,#180,#181),.UNSPECIFIED.,.F.,.F.,(8,6,
    8),(0.,0.5,1.),.UNSPECIFIED.);
#168 = CARTESIAN_POINT('',(0.3725162,0.7045597));
#169 = CARTESIAN_POINT('',(0.378173769036,0.68107357324));
#170 = CARTESIAN_POINT('',(0.380240734663,0.656782709819));
#171 = CARTESIAN_POINT('',(0.37950766696,0.63223462706));
#172 = CARTESIAN_POINT('',(0.376728132114,0.60763202974));
#173 = CARTESIAN_POINT('',(0.372741065831,0.583467680368));
#174 = CARTESIAN_POINT('',(0.368305710723,0.559610681134));
#175 = CARTESIAN_POINT('',(0.36018542791,0.512664110887));
#176 = CARTESIAN_POINT('',(0.356500513657,0.489585018225));
#177 = CARTESIAN_POINT('',(0.3540168097,0.466912299241));
#178 = CARTESIAN_POINT('',(0.35354828319,0.444553895598));
#179 = CARTESIAN_POINT('',(0.355896885289,0.422313509402));
#180 = CARTESIAN_POINT('',(0.361852551165,0.399890603205));
#181 = CARTESIAN_POINT('',(0.3721932,0.3768804));
#182 = ( GEOMETRIC_REPRESENTATION_CONTEXT(2) 
PARAMETRIC_REPRESENTATION_CONTEXT() REPRESENTATION_CONTEXT('2D SPACE',''
  ) );
#183 = ORIENTED_EDGE('',*,*,#184,.T.);
#184 = EDGE_CURVE('',#96,#22,#185,.T.);
#185 = SURFACE_CURVE('',#186,(#192,#198),.PCURVE_S1.);
#186 = B_SPLINE_CURVE_WITH_KNOTS('',4,(#187,#188,#189,#190,#191),
  .UNSPECIFIED.,.F.,.F.,(5,5),(0.,0.45339),.PIECEWISE_BEZIER_KNOTS.);
#187 = CARTESIAN_POINT('',(-72.20332121413,-23.00870332206,
    307.21755540261));
#188 = CARTESIAN_POINT('',(-73.91325363786,-26.61765950206,
    470.13311700486));
#189 = CARTESIAN_POINT('',(-77.02694886108,-29.15073888255,
    659.71754541229));
#190 = CARTESIAN_POINT('',(-74.33605747524,-24.38230935415,
    854.66188790771));
#191 = CARTESIAN_POINT('',(-72.49066671535,-19.91607507106,
    1.044909635412E+03));
#192 = PCURVE('',#38,#193);
#193 = DEFINITIONAL_REPRESENTATION('',(#194),#197);
#194 = B_SPLINE_CURVE_WITH_KNOTS('',1,(#195,#196),.UNSPECIFIED.,.F.,.F.,
  (2,2),(0.,0.45339),.PIECEWISE_BEZIER_KNOTS.);
#195 = CARTESIAN_POINT('',(0.,0.735827));
#196 = CARTESIAN_POINT('',(0.,0.282437));
#197 = ( GEOMETRIC_REPRESENTATION_CONTEXT(2) 
PARAMETRIC_REPRESENTATION_CONTEXT() REPRESENTATION_CONTEXT('2D SPACE',''
  ) );
#198 = PCURVE('',#199,#225);
#199 = B_SPLINE_SURFACE_WITH_KNOTS('',4,4,(
    (#200,#201,#202,#203,#204)
    ,(#205,#206,#207,#208,#209)
    ,(#210,#211,#212,#213,#214)
    ,(#215,#216,#217,#218,#219)
    ,(#220,#221,#222,#223,#224
    )),.UNSPECIFIED.,.F.,.F.,.F.,(5,5),(5,5),(0.,1.),(0.,1.),
  .PIECEWISE_BEZIER_KNOTS.);
#200 = CARTESIAN_POINT('',(-683.7838,-13.51848,1.5E+03));
#201 = CARTESIAN_POINT('',(-683.7838,-13.51848,1.125E+03));
#202 = CARTESIAN_POINT('',(-683.7838,-13.51848,750.));
#203 = CARTESIAN_POINT('',(-683.7838,-13.51848,375.));
#204 = CARTESIAN_POINT('',(-683.7838,-13.51848,0.));
#205 = CARTESIAN_POINT('',(-525.6757,47.3147,1.5E+03));
#206 = CARTESIAN_POINT('',(-466.8672,104.4145,1.125E+03));
#207 = CARTESIAN_POINT('',(-466.8672,104.4145,750.));
#208 = CARTESIAN_POINT('',(-466.8672,104.4145,375.));
#209 = CARTESIAN_POINT('',(-525.6757,47.3147,0.));
#210 = CARTESIAN_POINT('',(-417.7273,-76.76635,1.5E+03));
#211 = CARTESIAN_POINT('',(-358.9188,-19.6665,1.125E+03));
#212 = CARTESIAN_POINT('',(-358.9188,-19.6665,750.));
#213 = CARTESIAN_POINT('',(-358.9188,-19.6665,375.));
#214 = CARTESIAN_POINT('',(-417.7273,-76.76635,0.));
#215 = CARTESIAN_POINT('',(-234.3833,-38.69976,1.5E+03));
#216 = CARTESIAN_POINT('',(-230.924,-57.73305,1.125E+03));
#217 = CARTESIAN_POINT('',(-230.924,-57.73305,750.));
#218 = CARTESIAN_POINT('',(-230.924,-57.73305,375.));
#219 = CARTESIAN_POINT('',(-234.3833,-38.69976,0.));
#220 = CARTESIAN_POINT('',(-78.37832,-18.92588,1.5E+03));
#221 = CARTESIAN_POINT('',(-54.49875,-0.6332074,1.11957E+03));
#222 = CARTESIAN_POINT('',(-101.1996,-56.00276,676.5835));
#223 = CARTESIAN_POINT('',(-54.49875,-11.01498,203.7321));
#224 = CARTESIAN_POINT('',(-78.37832,-18.92588,0.));
#225 = DEFINITIONAL_REPRESENTATION('',(#226),#229);
#226 = B_SPLINE_CURVE_WITH_KNOTS('',1,(#227,#228),.UNSPECIFIED.,.F.,.F.,
  (2,2),(0.,0.45339),.PIECEWISE_BEZIER_KNOTS.);
#227 = CARTESIAN_POINT('',(1.,0.735827));
#228 = CARTESIAN_POINT('',(1.,0.282437));
#229 = ( GEOMETRIC_REPRESENTATION_CONTEXT(2) 
PARAMETRIC_REPRESENTATION_CONTEXT() REPRESENTATION_CONTEXT('2D SPACE',''
  ) );
#230 = ADVANCED_FACE('',(#231),#149,.T.);
#231 = FACE_BOUND('',#232,.T.);
#232 = EDGE_LOOP('',(#233,#254,#270,#286,#306,#414));
#233 = ORIENTED_EDGE('',*,*,#234,.T.);
#234 = EDGE_CURVE('',#76,#235,#237,.T.);
#235 = VERTEX_POINT('',#236);
#236 = CARTESIAN_POINT('',(473.048,-514.5404556316,308.257));
#237 = SURFACE_CURVE('',#238,(#246),.PCURVE_S1.);
#238 = B_SPLINE_CURVE_WITH_KNOTS('',6,(#239,#240,#241,#242,#243,#244,
    #245),.UNSPECIFIED.,.F.,.F.,(7,7),(0.,1.),.PIECEWISE_BEZIER_KNOTS.);
#239 = CARTESIAN_POINT('',(-75.23552756154,-514.5404845378,
    322.33822617961));
#240 = CARTESIAN_POINT('',(17.257426965044,-514.5405436837,
    327.71352900131));
#241 = CARTESIAN_POINT('',(110.04330156828,-514.5370312228,330.012004509
    ));
#242 = CARTESIAN_POINT('',(202.57283139997,-514.5340123376,
    329.2461847657));
#243 = CARTESIAN_POINT('',(294.29006040122,-514.5353412256,
    325.41590544028));
#244 = CARTESIAN_POINT('',(384.63518376347,-514.5404935908,
    318.4545327847));
#245 = CARTESIAN_POINT('',(473.048,-514.5404556316,308.257));
#246 = PCURVE('',#149,#247);
#247 = DEFINITIONAL_REPRESENTATION('',(#248),#253);
#248 = B_SPLINE_CURVE_WITH_KNOTS('',3,(#249,#250,#251,#252),
  .UNSPECIFIED.,.F.,.F.,(4,4),(0.,1.),.PIECEWISE_BEZIER_KNOTS.);
#249 = CARTESIAN_POINT('',(0.3725162,0.7045597));
#250 = CARTESIAN_POINT('',(0.2483627,0.7078627));
#251 = CARTESIAN_POINT('',(0.1240405,0.7082904));
#252 = CARTESIAN_POINT('',(0.,0.7012933));
#253 = ( GEOMETRIC_REPRESENTATION_CONTEXT(2) 
PARAMETRIC_REPRESENTATION_CONTEXT() REPRESENTATION_CONTEXT('2D SPACE',''
  ) );
#254 = ORIENTED_EDGE('',*,*,#255,.T.);
#255 = EDGE_CURVE('',#235,#256,#258,.T.);
#256 = VERTEX_POINT('',#257);
#257 = CARTESIAN_POINT('',(473.048,537.3995,308.257));
#258 = SURFACE_CURVE('',#259,(#264),.PCURVE_S1.);
#259 = B_SPLINE_CURVE_WITH_KNOTS('',3,(#260,#261,#262,#263),
  .UNSPECIFIED.,.F.,.F.,(4,4),(0.,0.7012933),.PIECEWISE_BEZIER_KNOTS.);
#260 = CARTESIAN_POINT('',(473.048,-514.5404556316,308.257));
#261 = CARTESIAN_POINT('',(473.048,-163.8938125688,308.257));
#262 = CARTESIAN_POINT('',(473.048,186.7528289612,308.257));
#263 = CARTESIAN_POINT('',(473.048,537.3995,308.257));
#264 = PCURVE('',#149,#265);
#265 = DEFINITIONAL_REPRESENTATION('',(#266),#269);
#266 = B_SPLINE_CURVE_WITH_KNOTS('',1,(#267,#268),.UNSPECIFIED.,.F.,.F.,
  (2,2),(0.,0.7012933),.PIECEWISE_BEZIER_KNOTS.);
#267 = CARTESIAN_POINT('',(0.,0.7012933));
#268 = CARTESIAN_POINT('',(0.,0.));
#269 = ( GEOMETRIC_REPRESENTATION_CONTEXT(2) 
PARAMETRIC_REPRESENTATION_CONTEXT() REPRESENTATION_CONTEXT('2D SPACE',''
  ) );
#270 = ORIENTED_EDGE('',*,*,#271,.T.);
#271 = EDGE_CURVE('',#256,#272,#274,.T.);
#272 = VERTEX_POINT('',#273);
#273 = CARTESIAN_POINT('',(-606.7781268482,521.50278186744,
    135.11497479171));
#274 = SURFACE_CURVE('',#275,(#280),.PCURVE_S1.);
#275 = B_SPLINE_CURVE_WITH_KNOTS('',3,(#276,#277,#278,#279),
  .UNSPECIFIED.,.F.,.F.,(4,4),(0.,0.7427636),.PIECEWISE_BEZIER_KNOTS.);
#276 = CARTESIAN_POINT('',(473.048,537.3995,308.257));
#277 = CARTESIAN_POINT('',(128.48675630483,558.34892450892,
    208.43744545416));
#278 = CARTESIAN_POINT('',(-258.8788324147,534.934897281,150.72346437013
    ));
#279 = CARTESIAN_POINT('',(-606.7781268482,521.50278186744,
    135.11497479171));
#280 = PCURVE('',#149,#281);
#281 = DEFINITIONAL_REPRESENTATION('',(#282),#285);
#282 = B_SPLINE_CURVE_WITH_KNOTS('',1,(#283,#284),.UNSPECIFIED.,.F.,.F.,
  (2,2),(0.,0.7427636),.PIECEWISE_BEZIER_KNOTS.);
#283 = CARTESIAN_POINT('',(0.,0.));
#284 = CARTESIAN_POINT('',(0.7427636,0.));
#285 = ( GEOMETRIC_REPRESENTATION_CONTEXT(2) 
PARAMETRIC_REPRESENTATION_CONTEXT() REPRESENTATION_CONTEXT('2D SPACE',''
  ) );
#286 = ORIENTED_EDGE('',*,*,#287,.T.);
#287 = EDGE_CURVE('',#272,#288,#290,.T.);
#288 = VERTEX_POINT('',#289);
#289 = CARTESIAN_POINT('',(-606.7780377997,11.643681418469,
    226.71892426067));
#290 = SURFACE_CURVE('',#291,(#298),.PCURVE_S1.);
#291 = B_SPLINE_CURVE_WITH_KNOTS('',5,(#292,#293,#294,#295,#296,#297),
  .UNSPECIFIED.,.F.,.F.,(6,6),(0.,1.),.PIECEWISE_BEZIER_KNOTS.);
#292 = CARTESIAN_POINT('',(-606.7781268482,521.50278186744,
    135.11497479171));
#293 = CARTESIAN_POINT('',(-606.7781512653,419.54631651451,
    161.74518287275));
#294 = CARTESIAN_POINT('',(-606.7790329325,317.58041448346,
    183.98669273116));
#295 = CARTESIAN_POINT('',(-606.7788161852,215.60682921004,
    202.04987430701));
#296 = CARTESIAN_POINT('',(-606.7780414669,113.62735333514,
    216.19864486621));
#297 = CARTESIAN_POINT('',(-606.7780497269,11.643792210378,
    226.71692104126));
#298 = PCURVE('',#149,#299);
#299 = DEFINITIONAL_REPRESENTATION('',(#300),#305);
#300 = B_SPLINE_CURVE_WITH_KNOTS('',3,(#301,#302,#303,#304),
  .UNSPECIFIED.,.F.,.F.,(4,4),(0.,1.),.PIECEWISE_BEZIER_KNOTS.);
#301 = CARTESIAN_POINT('',(0.7427636,0.));
#302 = CARTESIAN_POINT('',(0.7414078,0.113334));
#303 = CARTESIAN_POINT('',(0.7405018,0.2266729));
#304 = CARTESIAN_POINT('',(0.7398192,0.3400128));
#305 = ( GEOMETRIC_REPRESENTATION_CONTEXT(2) 
PARAMETRIC_REPRESENTATION_CONTEXT() REPRESENTATION_CONTEXT('2D SPACE',''
  ) );
#306 = ORIENTED_EDGE('',*,*,#307,.T.);
#307 = EDGE_CURVE('',#288,#96,#308,.T.);
#308 = SURFACE_CURVE('',#309,(#372,#388),.PCURVE_S1.);
#309 = B_SPLINE_CURVE_WITH_KNOTS('',11,(#310,#311,#312,#313,#314,#315,
    #316,#317,#318,#319,#320,#321,#322,#323,#324,#325,#326,#327,#328,
    #329,#330,#331,#332,#333,#334,#335,#336,#337,#338,#339,#340,#341,
    #342,#343,#344,#345,#346,#347,#348,#349,#350,#351,#352,#353,#354,
    #355,#356,#357,#358,#359,#360,#361,#362,#363,#364,#365,#366,#367,
    #368,#369,#370,#371),.UNSPECIFIED.,.F.,.F.,(12,10,10,10,10,10,12),(
    0.,0.25,0.375,0.40625,0.4375,0.5,1.),.UNSPECIFIED.);
#310 = CARTESIAN_POINT('',(-606.7780497269,11.643792210378,
    226.71692104126));
#311 = CARTESIAN_POINT('',(-594.9990768077,13.838161962369,
    229.00319599132));
#312 = CARTESIAN_POINT('',(-583.135841292,15.510071835325,
    231.30670762983));
#313 = CARTESIAN_POINT('',(-571.2033734478,16.659730842276,
    233.62934635947));
#314 = CARTESIAN_POINT('',(-559.2150245412,17.296520141843,
    235.9720453698));
#315 = CARTESIAN_POINT('',(-547.1827175859,17.438762258962,
    238.33443132377));
#316 = CARTESIAN_POINT('',(-535.1172122895,17.113222085764,
    240.71461368668));
#317 = CARTESIAN_POINT('',(-523.0283842018,16.354339661684,
    243.10911269198));
#318 = CARTESIAN_POINT('',(-510.925518056,15.203194733982,
    245.51292595079));
#319 = CARTESIAN_POINT('',(-498.8176153142,13.706203097428,
    247.91973369808));
#320 = CARTESIAN_POINT('',(-486.7137159058,11.913544714245,
    250.32224268149));
#321 = CARTESIAN_POINT('',(-468.5779932997,8.859213063146,
    253.90788169234));
#322 = CARTESIAN_POINT('',(-462.5361063924,7.780219867407,
    255.10006944929));
#323 = CARTESIAN_POINT('',(-456.4987500062,6.646840379798,
    256.28825240343));
#324 = CARTESIAN_POINT('',(-450.4671233134,5.465710091056,
    257.47141346431));
#325 = CARTESIAN_POINT('',(-444.4424585854,4.243533794965,
    258.64851023729));
#326 = CARTESIAN_POINT('',(-438.4260316788,2.987015754125,
    259.81848725004));
#327 = CARTESIAN_POINT('',(-432.4191725209,1.702789865786,
    260.98028818495));
#328 = CARTESIAN_POINT('',(-426.4232755961,0.397349827598,
    262.13286810382));
#329 = CARTESIAN_POINT('',(-420.439810432,-0.923020696552,
    263.27520568079));
#330 = CARTESIAN_POINT('',(-414.4703320853,-2.252317910774,
    264.40631542804));
#331 = CARTESIAN_POINT('',(-407.0280315131,-3.918030174008,
    265.8049960513));
#332 = CARTESIAN_POINT('',(-405.5405463439,-4.25136764917,266.0839705371
    ));
#333 = CARTESIAN_POINT('',(-404.0540635116,-4.584818506248,
    266.36216957003));
#334 = CARTESIAN_POINT('',(-402.5686104085,-4.918301104643,
    266.63957933636));
#335 = CARTESIAN_POINT('',(-401.0842144261,-5.251733803757,
    266.9161860217));
#336 = CARTESIAN_POINT('',(-399.6009029568,-5.585034962993,
    267.19197581279));
#337 = CARTESIAN_POINT('',(-398.1187033921,-5.918122941747,
    267.46693489488));
#338 = CARTESIAN_POINT('',(-396.6376431244,-6.250916099427,
    267.74104945475));
#339 = CARTESIAN_POINT('',(-395.1577495451,-6.583332795428,
    268.01430567795));
#340 = CARTESIAN_POINT('',(-393.6790500465,-6.915291389156,
    268.28668975082));
#341 = CARTESIAN_POINT('',(-390.7240939944,-7.578129090865,
    268.82968596774));
#342 = CARTESIAN_POINT('',(-389.2478706081,-7.909015558141,
    269.10029487343));
#343 = CARTESIAN_POINT('',(-387.7707630849,-8.239767942799,
    269.37039191467));
#344 = CARTESIAN_POINT('',(-386.3106534398,-8.566273362328,
    269.63671194661));
#345 = CARTESIAN_POINT('',(-384.8051036906,-8.902806183121,
    269.91067805401));
#346 = CARTESIAN_POINT('',(-383.3608283548,-9.224583293592,
    270.17269128889));
#347 = CARTESIAN_POINT('',(-381.8596364323,-9.55897695192,
    270.44445872014));
#348 = CARTESIAN_POINT('',(-380.3933100454,-9.884547528684,
    270.70909198765));
#349 = CARTESIAN_POINT('',(-378.9112100182,-10.21301978233,
    270.97589597509));
#350 = CARTESIAN_POINT('',(-377.4325413662,-10.53983729478,
    271.24132548851));
#351 = CARTESIAN_POINT('',(-372.9931181042,-11.5183017706,
    272.03598218977));
#352 = CARTESIAN_POINT('',(-370.0310133866,-12.16747711708,
    272.56319699551));
#353 = CARTESIAN_POINT('',(-367.0663543414,-12.81293443196,
    273.08778116802));
#354 = CARTESIAN_POINT('',(-364.0990793226,-13.45410627079,
    273.60966219371));
#355 = CARTESIAN_POINT('',(-361.1291301564,-14.09044147218,
    274.12876935272));
#356 = CARTESIAN_POINT('',(-358.1564521407,-14.72140515779,
    274.64503371449));
#357 = CARTESIAN_POINT('',(-355.1809940459,-15.3464787324,
    275.15838814394));
#358 = CARTESIAN_POINT('',(-352.2027081143,-15.96515988379,
    275.66876729454));
#359 = CARTESIAN_POINT('',(-349.2215500603,-16.57696258289,
    276.17610761456));
#360 = CARTESIAN_POINT('',(-346.2374790702,-17.18141708362,
    276.68034734256));
#361 = CARTESIAN_POINT('',(-319.3542876624,-22.5512926383,
    281.19005984917));
#362 = CARTESIAN_POINT('',(-295.2692969306,-26.82516032689,
    284.99642183079));
#363 = CARTESIAN_POINT('',(-270.9765101004,-30.36702486526,
    288.56972364745));
#364 = CARTESIAN_POINT('',(-246.4716290528,-33.00847540762,
    291.88677219783));
#365 = CARTESIAN_POINT('',(-221.7662527445,-34.6397859693,
    294.93091411195));
#366 = CARTESIAN_POINT('',(-196.8889233937,-35.20424076489,
    297.69125585167));
#367 = CARTESIAN_POINT('',(-171.8859991672,-34.6923373005,
    300.16215988773));
#368 = CARTESIAN_POINT('',(-146.8223533659,-33.13586722113,
    302.34301695254));
#369 = CARTESIAN_POINT('',(-121.7819001119,-30.60187491193,
    304.23829436876));
#370 = CARTESIAN_POINT('',(-96.86794653327,-27.18649385457,
    305.85786045423));
#371 = CARTESIAN_POINT('',(-72.20337145062,-23.00866073777,
    307.21758500247));
#372 = PCURVE('',#149,#373);
#373 = DEFINITIONAL_REPRESENTATION('',(#374),#387);
#374 = B_SPLINE_CURVE_WITH_KNOTS('',6,(#375,#376,#377,#378,#379,#380,
    #381,#382,#383,#384,#385,#386),.UNSPECIFIED.,.F.,.F.,(7,5,7),(0.,
    0.41233282327,1.),.UNSPECIFIED.);
#375 = CARTESIAN_POINT('',(0.7398192,0.3400128));
#376 = CARTESIAN_POINT('',(0.7143285,0.3365166));
#377 = CARTESIAN_POINT('',(0.6884796,0.3365628));
#378 = CARTESIAN_POINT('',(0.6626518,0.3401195));
#379 = CARTESIAN_POINT('',(0.6370088,0.3461598));
#380 = CARTESIAN_POINT('',(0.611711,0.35281));
#381 = CARTESIAN_POINT('',(0.552065983333,0.36817285));
#382 = CARTESIAN_POINT('',(0.5168055,0.376996833333));
#383 = CARTESIAN_POINT('',(0.4809463,0.38266585));
#384 = CARTESIAN_POINT('',(0.4444855,0.384198566667));
#385 = CARTESIAN_POINT('',(0.407892283333,0.38193365));
#386 = CARTESIAN_POINT('',(0.3721932,0.3768804));
#387 = ( GEOMETRIC_REPRESENTATION_CONTEXT(2) 
PARAMETRIC_REPRESENTATION_CONTEXT() REPRESENTATION_CONTEXT('2D SPACE',''
  ) );
#388 = PCURVE('',#199,#389);
#389 = DEFINITIONAL_REPRESENTATION('',(#390),#413);
#390 = B_SPLINE_CURVE_WITH_KNOTS('',6,(#391,#392,#393,#394,#395,#396,
    #397,#398,#399,#400,#401,#402,#403,#404,#405,#406,#407,#408,#409,
    #410,#411,#412),.UNSPECIFIED.,.F.,.F.,(7,5,5,5,7),(0.,0.25,0.375,0.5
    ,1.),.UNSPECIFIED.);
#391 = CARTESIAN_POINT('',(0.110076,0.8488458));
#392 = CARTESIAN_POINT('',(0.142599928089,0.846044349672));
#393 = CARTESIAN_POINT('',(0.176677546521,0.8431934563));
#394 = CARTESIAN_POINT('',(0.212116204919,0.840269897733));
#395 = CARTESIAN_POINT('',(0.248666427059,0.837259850987));
#396 = CARTESIAN_POINT('',(0.286021910871,0.83415889225));
#397 = CARTESIAN_POINT('',(0.342718337222,0.829378549196));
#398 = CARTESIAN_POINT('',(0.361730245808,0.827763913034));
#399 = CARTESIAN_POINT('',(0.380809001157,0.826127489898));
#400 = CARTESIAN_POINT('',(0.399908350229,0.824468681291));
#401 = CARTESIAN_POINT('',(0.418982039986,0.822786888717));
#402 = CARTESIAN_POINT('',(0.456985594792,0.819376138639));
#403 = CARTESIAN_POINT('',(0.475931118504,0.817644976109));
#404 = CARTESIAN_POINT('',(0.494544542618,0.815904954981));
#405 = CARTESIAN_POINT('',(0.513655279614,0.81408157609));
#406 = CARTESIAN_POINT('',(0.532571198982,0.812222617673));
#407 = CARTESIAN_POINT('',(0.627506274163,0.802599182058));
#408 = CARTESIAN_POINT('',(0.703833098335,0.793869458495));
#409 = CARTESIAN_POINT('',(0.779847783002,0.783784789832));
#410 = CARTESIAN_POINT('',(0.854920167059,0.7712468536));
#411 = CARTESIAN_POINT('',(0.928778809794,0.755210065346));
#412 = CARTESIAN_POINT('',(1.,0.735827));
#413 = ( GEOMETRIC_REPRESENTATION_CONTEXT(2) 
PARAMETRIC_REPRESENTATION_CONTEXT() REPRESENTATION_CONTEXT('2D SPACE',''
  ) );
#414 = ORIENTED_EDGE('',*,*,#95,.F.);
#415 = ADVANCED_FACE('',(#416),#199,.T.);
#416 = FACE_BOUND('',#417,.T.);
#417 = EDGE_LOOP('',(#418,#444,#445,#446,#469));
#418 = ORIENTED_EDGE('',*,*,#419,.T.);
#419 = EDGE_CURVE('',#420,#22,#422,.T.);
#420 = VERTEX_POINT('',#421);
#421 = CARTESIAN_POINT('',(-606.7784868331,15.981222705839,
    1.044909892091E+03));
#422 = SURFACE_CURVE('',#423,(#433),.PCURVE_S1.);
#423 = B_SPLINE_CURVE_WITH_KNOTS('',8,(#424,#425,#426,#427,#428,#429,
    #430,#431,#432),.UNSPECIFIED.,.F.,.F.,(9,9),(0.,1.),
  .PIECEWISE_BEZIER_KNOTS.);
#424 = CARTESIAN_POINT('',(-606.7784868331,15.981222705839,
    1.044909892091E+03));
#425 = CARTESIAN_POINT('',(-527.0219404601,35.912283225629,
    1.044909818408E+03));
#426 = CARTESIAN_POINT('',(-459.3342853759,27.409406578655,
    1.044909842521E+03));
#427 = CARTESIAN_POINT('',(-397.9018642035,5.594737618581,
    1.044921728096E+03));
#428 = CARTESIAN_POINT('',(-338.2021249474,-17.84930245796,
    1.044873944217E+03));
#429 = CARTESIAN_POINT('',(-277.1222535502,-34.92091411099,
    1.044949737392E+03));
#430 = CARTESIAN_POINT('',(-212.7117457592,-41.04139415179,
    1.04489294936E+03));
#431 = CARTESIAN_POINT('',(-144.1012785543,-34.88949174019,
    1.044909805562E+03));
#432 = CARTESIAN_POINT('',(-72.49066671535,-19.91607507106,
    1.044909635412E+03));
#433 = PCURVE('',#199,#434);
#434 = DEFINITIONAL_REPRESENTATION('',(#435),#443);
#435 = B_SPLINE_CURVE_WITH_KNOTS('',6,(#436,#437,#438,#439,#440,#441,
    #442),.UNSPECIFIED.,.F.,.F.,(7,7),(0.,1.),.PIECEWISE_BEZIER_KNOTS.);
#436 = CARTESIAN_POINT('',(0.1016267,0.3033909));
#437 = CARTESIAN_POINT('',(0.2513697,0.3033762));
#438 = CARTESIAN_POINT('',(0.4012475,0.3032811));
#439 = CARTESIAN_POINT('',(0.5511434,0.3027602));
#440 = CARTESIAN_POINT('',(0.7009221,0.3005199));
#441 = CARTESIAN_POINT('',(0.8505098,0.2936358));
#442 = CARTESIAN_POINT('',(1.,0.282437));
#443 = ( GEOMETRIC_REPRESENTATION_CONTEXT(2) 
PARAMETRIC_REPRESENTATION_CONTEXT() REPRESENTATION_CONTEXT('2D SPACE',''
  ) );
#444 = ORIENTED_EDGE('',*,*,#184,.F.);
#445 = ORIENTED_EDGE('',*,*,#307,.F.);
#446 = ORIENTED_EDGE('',*,*,#447,.T.);
#447 = EDGE_CURVE('',#288,#448,#450,.T.);
#448 = VERTEX_POINT('',#449);
#449 = CARTESIAN_POINT('',(-606.7780546772,17.653474415622,
    739.90929300817));
#450 = SURFACE_CURVE('',#451,(#459),.PCURVE_S1.);
#451 = B_SPLINE_CURVE_WITH_KNOTS('',6,(#452,#453,#454,#455,#456,#457,
    #458),.UNSPECIFIED.,.F.,.F.,(7,7),(0.,1.),.PIECEWISE_BEZIER_KNOTS.);
#452 = CARTESIAN_POINT('',(-606.7780258726,11.64357062656,
    226.72092748008));
#453 = CARTESIAN_POINT('',(-606.7780448285,13.994510222208,
    312.01146685777));
#454 = CARTESIAN_POINT('',(-606.78162717,15.538223408661,397.51163562981
    ));
#455 = CARTESIAN_POINT('',(-606.770611783,16.601313032641,
    483.11619499694));
#456 = CARTESIAN_POINT('',(-606.7825055514,17.270027940619,
    568.7522744843));
#457 = CARTESIAN_POINT('',(-606.7780527806,17.622086176093,
    654.36553294152));
#458 = CARTESIAN_POINT('',(-606.7780546772,17.653474415622,
    739.90929300817));
#459 = PCURVE('',#199,#460);
#460 = DEFINITIONAL_REPRESENTATION('',(#461),#468);
#461 = B_SPLINE_CURVE_WITH_KNOTS('',5,(#462,#463,#464,#465,#466,#467),
  .UNSPECIFIED.,.F.,.F.,(6,6),(0.,1.),.PIECEWISE_BEZIER_KNOTS.);
#462 = CARTESIAN_POINT('',(0.110076,0.8488458));
#463 = CARTESIAN_POINT('',(0.1046257,0.7806129));
#464 = CARTESIAN_POINT('',(0.1014344,0.7121717));
#465 = CARTESIAN_POINT('',(9.941803E-02,0.6436607));
#466 = CARTESIAN_POINT('',(9.840538E-02,0.5751569));
#467 = CARTESIAN_POINT('',(9.833101E-02,0.5067226));
#468 = ( GEOMETRIC_REPRESENTATION_CONTEXT(2) 
PARAMETRIC_REPRESENTATION_CONTEXT() REPRESENTATION_CONTEXT('2D SPACE',''
  ) );
#469 = ORIENTED_EDGE('',*,*,#470,.T.);
#470 = EDGE_CURVE('',#448,#420,#471,.T.);
#471 = SURFACE_CURVE('',#472,(#479),.PCURVE_S1.);
#472 = B_SPLINE_CURVE_WITH_KNOTS('',5,(#473,#474,#475,#476,#477,#478),
  .UNSPECIFIED.,.F.,.F.,(6,6),(0.,1.),.PIECEWISE_BEZIER_KNOTS.);
#473 = CARTESIAN_POINT('',(-606.7780546772,17.653474415622,
    739.90929300817));
#474 = CARTESIAN_POINT('',(-606.7780531583,17.675891363359,
    801.00102508422));
#475 = CARTESIAN_POINT('',(-606.776054795,17.529463037349,
    861.99832540461));
#476 = CARTESIAN_POINT('',(-606.778437006,17.213980587031,
    922.96760726593));
#477 = CARTESIAN_POINT('',(-606.7785854998,16.714321362887,
    983.94096906961));
#478 = CARTESIAN_POINT('',(-606.7784868331,15.981222705839,
    1.044909892091E+03));
#479 = PCURVE('',#199,#480);
#480 = DEFINITIONAL_REPRESENTATION('',(#481),#489);
#481 = B_SPLINE_CURVE_WITH_KNOTS('',6,(#482,#483,#484,#485,#486,#487,
    #488),.UNSPECIFIED.,.F.,.F.,(7,7),(0.,1.),.PIECEWISE_BEZIER_KNOTS.);
#482 = CARTESIAN_POINT('',(9.833101E-02,0.5067226));
#483 = CARTESIAN_POINT('',(9.829413E-02,0.4727831));
#484 = CARTESIAN_POINT('',(9.848282E-02,0.4388856));
#485 = CARTESIAN_POINT('',(9.888937E-02,0.4050078));
#486 = CARTESIAN_POINT('',(9.952899E-02,0.3711355));
#487 = CARTESIAN_POINT('',(0.1004264,0.3372622));
#488 = CARTESIAN_POINT('',(0.1016267,0.3033909));
#489 = ( GEOMETRIC_REPRESENTATION_CONTEXT(2) 
PARAMETRIC_REPRESENTATION_CONTEXT() REPRESENTATION_CONTEXT('2D SPACE',''
  ) );
#490 = ( GEOMETRIC_REPRESENTATION_CONTEXT(3) 
GLOBAL_UNCERTAINTY_ASSIGNED_CONTEXT((#494)) GLOBAL_UNIT_ASSIGNED_CONTEXT
((#491,#492,#493)) REPRESENTATION_CONTEXT('Context #1',
  '3D Context with UNIT and UNCERTAINTY') );
#491 = ( LENGTH_UNIT() NAMED_UNIT(*) SI_UNIT(.MILLI.,.METRE.) );
#492 = ( NAMED_UNIT(*) PLANE_ANGLE_UNIT() SI_UNIT($,.RADIAN.) );
#493 = ( NAMED_UNIT(*) SI_UNIT($,.STERADIAN.) SOLID_ANGLE_UNIT() );
#494 = UNCERTAINTY_MEASURE_WITH_UNIT(LENGTH_MEASURE(0.1),#491,
  'distance_accuracy_value','confusion accuracy');
#495 = PRODUCT_RELATED_PRODUCT_CATEGORY('part',$,(#7));
ENDSEC;
END-ISO-10303-21;
