ISO-10303-21;
HEADER;
FILE_DESCRIPTION(('Open CASCADE Model'),'2;1');
FILE_NAME('Open CASCADE Shape Model','2026-07-11T20:15:47',('Author'),(
    'Open CASCADE'),'Open CASCADE STEP processor 8.0','Open CASCADE 8.0'
  ,'Unknown');
FILE_SCHEMA(('AUTOMOTIVE_DESIGN { 1 0 10303 214 1 1 1 1 }'));
ENDSEC;
DATA;
#1 = APPLICATION_PROTOCOL_DEFINITION('international standard',
  'automotive_design',2000,#2);
#2 = APPLICATION_CONTEXT(
  'core data for automotive mechanical design processes');
#3 = SHAPE_DEFINITION_REPRESENTATION(#4,#10);
#4 = PRODUCT_DEFINITION_SHAPE('','',#5);
#5 = PRODUCT_DEFINITION('design','',#6,#9);
#6 = PRODUCT_DEFINITION_FORMATION('','',#7);
#7 = PRODUCT('Open CASCADE STEP translator 8.0 1',
  'Open CASCADE STEP translator 8.0 1','',(#8));
#8 = PRODUCT_CONTEXT('',#2,'mechanical');
#9 = PRODUCT_DEFINITION_CONTEXT('part definition',#2,'design');
#10 = ADVANCED_BREP_SHAPE_REPRESENTATION('',(#11,#15),#571);
#11 = AXIS2_PLACEMENT_3D('',#12,#13,#14);
#12 = CARTESIAN_POINT('',(0.,0.,0.));
#13 = DIRECTION('',(0.,0.,1.));
#14 = DIRECTION('',(1.,0.,-0.));
#15 = MANIFOLD_SOLID_BREP('',#16);
#16 = CLOSED_SHELL('',(#17,#245,#363,#439,#488,#537,#564));
#17 = ADVANCED_FACE('',(#18),#85,.T.);
#18 = FACE_BOUND('',#19,.T.);
#19 = EDGE_LOOP('',(#20,#222,#244));
#20 = ORIENTED_EDGE('',*,*,#21,.F.);
#21 = EDGE_CURVE('',#22,#22,#24,.T.);
#22 = VERTEX_POINT('',#23);
#23 = CARTESIAN_POINT('',(133.48801618913,-5.720186471228,
    68.177921650807));
#24 = SURFACE_CURVE('',#25,(#84,#155),.PCURVE_S1.);
#25 = B_SPLINE_CURVE_WITH_KNOTS('',8,(#26,#27,#28,#29,#30,#31,#32,#33,
    #34,#35,#36,#37,#38,#39,#40,#41,#42,#43,#44,#45,#46,#47,#48,#49,#50,
    #51,#52,#53,#54,#55,#56,#57,#58,#59,#60,#61,#62,#63,#64,#65,#66,#67,
    #68,#69,#70,#71,#72,#73,#74,#75,#76,#77,#78,#79,#80,#81,#82,#83),
  .UNSPECIFIED.,.T.,.F.,(9,7,7,7,7,7,7,7,9),(0.,0.125000004648,
    0.25099904002,0.375999044666,0.500999049312,0.625999053958,
    0.750999058603,0.874999995353,1.),.UNSPECIFIED.);
#26 = CARTESIAN_POINT('',(133.48801618913,-5.720186471227,
    68.177921650807));
#27 = CARTESIAN_POINT('',(129.53446435223,-18.22402457965,
    74.869640831679));
#28 = CARTESIAN_POINT('',(124.10865662243,-30.67303200104,
    80.815093365364));
#29 = CARTESIAN_POINT('',(117.2693181331,-42.8707980498,85.907540020953)
  );
#30 = CARTESIAN_POINT('',(109.1094128643,-54.63587318203,90.067003849334
    ));
#31 = CARTESIAN_POINT('',(99.743687008952,-65.79714100321,
    93.231093906252));
#32 = CARTESIAN_POINT('',(89.310116196312,-76.19511713564,
    95.356594560041));
#33 = CARTESIAN_POINT('',(77.967823471037,-85.68148077101,96.41814145298
    ));
#34 = CARTESIAN_POINT('',(53.751302042372,-102.6380716245,
    96.418141452981));
#35 = CARTESIAN_POINT('',(40.849393669332,-110.1028950475,
    95.339558373784));
#36 = CARTESIAN_POINT('',(27.394397644732,-116.3821329019,
    93.179868516844));
#37 = CARTESIAN_POINT('',(13.584947089799,-121.3748881795,
    89.965319998794));
#38 = CARTESIAN_POINT('',(-0.377055867475,-125.0046620078,
    85.740504332094));
#39 = CARTESIAN_POINT('',(-14.28672111778,-127.221651699,80.569800735592
    ));
#40 = CARTESIAN_POINT('',(-27.93692985397,-128.0007756984,
    74.535653148226));
#41 = CARTESIAN_POINT('',(-54.19516214717,-126.7156740194,
    61.014572052914));
#42 = CARTESIAN_POINT('',(-66.82783717854,-124.6731000004,
    53.530656363663));
#43 = CARTESIAN_POINT('',(-78.81003901716,-121.2348118819,
    45.400461135707));
#44 = CARTESIAN_POINT('',(-89.9612457996,-116.4436769283,36.740334157164
    ));
#45 = CARTESIAN_POINT('',(-100.1182475947,-110.365666906,27.674172078243
    ));
#46 = CARTESIAN_POINT('',(-109.1369872641,-103.0915444974,
    18.333693584604));
#47 = CARTESIAN_POINT('',(-116.8914914114,-94.73478319288,8.857524155819
    ));
#48 = CARTESIAN_POINT('',(-129.6774869093,-76.15193633602,
    -10.06914228307));
#49 = CARTESIAN_POINT('',(-134.7173096813,-65.91374210361,
    -19.53197200796));
#50 = CARTESIAN_POINT('',(-138.300531546,-54.87248802705,-28.84574084832
    ));
#51 = CARTESIAN_POINT('',(-140.3660430779,-43.18660212089,
    -37.87214206072));
#52 = CARTESIAN_POINT('',(-140.8803019693,-31.02344030813,
    -46.48000001892));
#53 = CARTESIAN_POINT('',(-139.8396499113,-18.55955295757,
    -54.54620209611));
#54 = CARTESIAN_POINT('',(-137.2680891552,-5.979554505364,
    -61.95540551687));
#55 = CARTESIAN_POINT('',(-129.1964985744,19.020572852064,
    -75.25448963109));
#56 = CARTESIAN_POINT('',(-123.6912092592,31.456991970799,
    -81.15303607721));
#57 = CARTESIAN_POINT('',(-116.7764483786,43.633395113009,
    -86.19449906019));
#58 = CARTESIAN_POINT('',(-108.5463160178,55.368598495836,
    -90.29963109535));
#59 = CARTESIAN_POINT('',(-99.11658612147,66.491896871134,
    -93.40681848431));
#60 = CARTESIAN_POINT('',(-88.62614219799,76.844372993104,
    -95.47367236476));
#61 = CARTESIAN_POINT('',(-77.23490195288,86.278416114497,
    -96.47569890012));
#62 = CARTESIAN_POINT('',(-53.03395358585,103.05108842751,-96.3567775827
    ));
#63 = CARTESIAN_POINT('',(-40.2084759992,110.40064678029,-95.23575224017
    ));
#64 = CARTESIAN_POINT('',(-26.84630551727,116.57942716786,-93.0516887245
    ));
#65 = CARTESIAN_POINT('',(-13.14162917956,121.4896250439,-89.83082091176
    ));
#66 = CARTESIAN_POINT('',(0.708281619768,125.0571826507,-85.61718949958)
  );
#67 = CARTESIAN_POINT('',(14.503357634281,127.23390743668,
    -80.47396021175));
#68 = CARTESIAN_POINT('',(28.041443324857,127.99566071452,-74.4818363071
    ));
#69 = CARTESIAN_POINT('',(54.090644787877,126.72078919372,
    -61.06839089628));
#70 = CARTESIAN_POINT('',(66.625676588097,124.70567091848,
    -53.65034141096));
#71 = CARTESIAN_POINT('',(78.522258754976,121.31707776034,
    -45.59551172432));
#72 = CARTESIAN_POINT('',(89.604018901674,116.59652023325,
    -37.01731996936));
#73 = CARTESIAN_POINT('',(99.711346209409,110.60798968471,
    -28.03656934621));
#74 = CARTESIAN_POINT('',(108.70309154399,103.43950059771,
    -18.78168997835));
#75 = CARTESIAN_POINT('',(116.45560903053,95.201173432268,
    -9.387882431783));
#76 = CARTESIAN_POINT('',(129.34170722136,76.79791798636,9.463520021259)
  );
#77 = CARTESIAN_POINT('',(134.46201483367,66.606104180579,
    18.933206521423));
#78 = CARTESIAN_POINT('',(138.12912240933,55.603890214985,
    28.260514301874));
#79 = CARTESIAN_POINT('',(140.28070162449,43.949086459382,
    37.306974516422));
#80 = CARTESIAN_POINT('',(140.88197134799,31.808580214047,
    45.941137416203));
#81 = CARTESIAN_POINT('',(139.9280162804,19.358615565798,54.039495923204
    ));
#82 = CARTESIAN_POINT('',(137.44156802605,6.783651637257,61.486202469903
    ));
#83 = CARTESIAN_POINT('',(133.48801618913,-5.720186471227,
    68.177921650806));
#84 = PCURVE('',#85,#94);
#85 = SURFACE_OF_REVOLUTION('',#86,#91);
#86 = ELLIPSE('',#87,150.,100.);
#87 = AXIS2_PLACEMENT_3D('',#88,#89,#90);
#88 = CARTESIAN_POINT('',(0.,0.,0.));
#89 = DIRECTION('',(-0.268535822752,-0.84929415182,0.454519477672));
#90 = DIRECTION('',(0.889920107928,-3.813457647485E-02,0.454519477672));
#91 = AXIS1_PLACEMENT('',#92,#93);
#92 = CARTESIAN_POINT('',(0.,0.,0.));
#93 = DIRECTION('',(-0.368687826495,0.526540784518,0.766044443119));
#94 = DEFINITIONAL_REPRESENTATION('',(#95),#154);
#95 = B_SPLINE_CURVE_WITH_KNOTS('',8,(#96,#97,#98,#99,#100,#101,#102,
    #103,#104,#105,#106,#107,#108,#109,#110,#111,#112,#113,#114,#115,
    #116,#117,#118,#119,#120,#121,#122,#123,#124,#125,#126,#127,#128,
    #129,#130,#131,#132,#133,#134,#135,#136,#137,#138,#139,#140,#141,
    #142,#143,#144,#145,#146,#147,#148,#149,#150,#151,#152,#153),
  .UNSPECIFIED.,.F.,.F.,(9,7,7,7,7,7,7,7,9),(0.,0.125000004648,
    0.25099904002,0.375999044666,0.500999049312,0.625999053958,
    0.750999058603,0.874999995353,1.),.UNSPECIFIED.);
#96 = CARTESIAN_POINT('',(6.28318530718,6.28318530718));
#97 = CARTESIAN_POINT('',(6.185034483293,6.28318530718));
#98 = CARTESIAN_POINT('',(6.086819785131,6.28318530718));
#99 = CARTESIAN_POINT('',(5.988640368902,6.28318530718));
#100 = CARTESIAN_POINT('',(5.890486225466,6.28318530718));
#101 = CARTESIAN_POINT('',(5.792332082082,6.28318530718));
#102 = CARTESIAN_POINT('',(5.694152665822,6.28318530718));
#103 = CARTESIAN_POINT('',(5.59593796767,6.28318530718));
#104 = CARTESIAN_POINT('',(5.398851874414,6.28318530718));
#105 = CARTESIAN_POINT('',(5.299850152009,6.28318530718));
#106 = CARTESIAN_POINT('',(5.200885241387,6.28318530718));
#107 = CARTESIAN_POINT('',(5.101946469425,6.28318530718));
#108 = CARTESIAN_POINT('',(5.003007697481,6.28318530718));
#109 = CARTESIAN_POINT('',(4.904042786848,6.28318530718));
#110 = CARTESIAN_POINT('',(4.805041064446,6.28318530718));
#111 = CARTESIAN_POINT('',(4.607954971191,6.28318530718));
#112 = CARTESIAN_POINT('',(4.509740273034,6.28318530718));
#113 = CARTESIAN_POINT('',(4.411560856787,6.28318530718));
#114 = CARTESIAN_POINT('',(4.313406713382,6.28318530718));
#115 = CARTESIAN_POINT('',(4.215252569966,6.28318530718));
#116 = CARTESIAN_POINT('',(4.117073153726,6.28318530718));
#117 = CARTESIAN_POINT('',(4.018858455567,6.28318530718));
#118 = CARTESIAN_POINT('',(3.822556807794,6.28318530718));
#119 = CARTESIAN_POINT('',(3.724342109635,6.28318530718));
#120 = CARTESIAN_POINT('',(3.626162693392,6.28318530718));
#121 = CARTESIAN_POINT('',(3.52800854998,6.28318530718));
#122 = CARTESIAN_POINT('',(3.429854406573,6.28318530718));
#123 = CARTESIAN_POINT('',(3.331674990327,6.28318530718));
#124 = CARTESIAN_POINT('',(3.23346029217,6.28318530718));
#125 = CARTESIAN_POINT('',(3.037158644396,6.28318530718));
#126 = CARTESIAN_POINT('',(2.938943946237,6.28318530718));
#127 = CARTESIAN_POINT('',(2.840764529995,6.28318530718));
#128 = CARTESIAN_POINT('',(2.742610386584,6.28318530718));
#129 = CARTESIAN_POINT('',(2.644456243174,6.28318530718));
#130 = CARTESIAN_POINT('',(2.54627682693,6.28318530718));
#131 = CARTESIAN_POINT('',(2.448062128772,6.28318530718));
#132 = CARTESIAN_POINT('',(2.251760480999,6.28318530718));
#133 = CARTESIAN_POINT('',(2.153545782839,6.28318530718));
#134 = CARTESIAN_POINT('',(2.055366366599,6.28318530718));
#135 = CARTESIAN_POINT('',(1.957212223185,6.28318530718));
#136 = CARTESIAN_POINT('',(1.859058079777,6.28318530718));
#137 = CARTESIAN_POINT('',(1.760878663532,6.28318530718));
#138 = CARTESIAN_POINT('',(1.662663965375,6.28318530718));
#139 = CARTESIAN_POINT('',(1.467146792268,6.28318530718));
#140 = CARTESIAN_POINT('',(1.369719066589,6.28318530718));
#141 = CARTESIAN_POINT('',(1.272325146281,6.28318530718));
#142 = CARTESIAN_POINT('',(1.174955652448,6.28318530718));
#143 = CARTESIAN_POINT('',(1.077586158597,6.28318530718));
#144 = CARTESIAN_POINT('',(0.980192238301,6.28318530718));
#145 = CARTESIAN_POINT('',(0.882764512617,6.28318530718));
#146 = CARTESIAN_POINT('',(0.68724733951,6.28318530718));
#147 = CARTESIAN_POINT('',(0.589032641354,6.28318530718));
#148 = CARTESIAN_POINT('',(0.490853225107,6.28318530718));
#149 = CARTESIAN_POINT('',(0.392699081701,6.28318530718));
#150 = CARTESIAN_POINT('',(0.294544938287,6.28318530718));
#151 = CARTESIAN_POINT('',(0.196365522045,6.28318530718));
#152 = CARTESIAN_POINT('',(9.815082388661E-02,6.28318530718));
#153 = CARTESIAN_POINT('',(0.,6.28318530718));
#154 = ( GEOMETRIC_REPRESENTATION_CONTEXT(2) 
PARAMETRIC_REPRESENTATION_CONTEXT() REPRESENTATION_CONTEXT('2D SPACE',''
  ) );
#155 = PCURVE('',#156,#161);
#156 = PLANE('',#157);
#157 = AXIS2_PLACEMENT_3D('',#158,#159,#160);
#158 = CARTESIAN_POINT('',(-231.6911861358,-162.231915069,
    8.504801786368E-15));
#159 = DIRECTION('',(-0.368687826495,0.526540784518,0.766044443119));
#160 = DIRECTION('',(0.889920107928,-3.813457647485E-02,0.454519477672)
  );
#161 = DEFINITIONAL_REPRESENTATION('',(#162),#221);
#162 = B_SPLINE_CURVE_WITH_KNOTS('',8,(#163,#164,#165,#166,#167,#168,
    #169,#170,#171,#172,#173,#174,#175,#176,#177,#178,#179,#180,#181,
    #182,#183,#184,#185,#186,#187,#188,#189,#190,#191,#192,#193,#194,
    #195,#196,#197,#198,#199,#200,#201,#202,#203,#204,#205,#206,#207,
    #208,#209,#210,#211,#212,#213,#214,#215,#216,#217,#218,#219,#220),
  .UNSPECIFIED.,.T.,.F.,(9,7,7,7,7,7,7,7,9),(0.,0.125000004648,
    0.25099904002,0.375999044666,0.500999049312,0.625999053958,
    0.750999058603,0.874999995353,1.),.UNSPECIFIED.);
#163 = CARTESIAN_POINT('',(350.,200.));
#164 = CARTESIAN_POINT('',(350.,185.27737641707));
#165 = CARTESIAN_POINT('',(348.34852620518,170.54515949517));
#166 = CARTESIAN_POINT('',(345.04183419478,156.03444454241));
#167 = CARTESIAN_POINT('',(340.11938390132,141.96065083528));
#168 = CARTESIAN_POINT('',(333.64840691857,128.52827788964));
#169 = CARTESIAN_POINT('',(325.72596631788,115.92946860025));
#170 = CARTESIAN_POINT('',(316.47648415048,104.34444979451));
#171 = CARTESIAN_POINT('',(295.57234719771,83.440312841747));
#172 = CARTESIAN_POINT('',(283.88511036781,74.126094402002));
#173 = CARTESIAN_POINT('',(271.16907382389,66.161647092497));
#174 = CARTESIAN_POINT('',(257.6090877902,59.67407198059));
#175 = CARTESIAN_POINT('',(243.40217948913,54.762289354525));
#176 = CARTESIAN_POINT('',(228.75804715338,51.494355070806));
#177 = CARTESIAN_POINT('',(213.89752587577,49.909717190474));
#178 = CARTESIAN_POINT('',(184.33519543416,50.095465235101));
#179 = CARTESIAN_POINT('',(169.61364576168,51.839471071007));
#180 = CARTESIAN_POINT('',(155.12399365866,55.237270721643));
#181 = CARTESIAN_POINT('',(141.08140622216,60.248051521196));
#182 = CARTESIAN_POINT('',(127.68995649783,66.803298306671));
#183 = CARTESIAN_POINT('',(115.14117373445,74.804742656724));
#184 = CARTESIAN_POINT('',(103.61449943457,84.126832588734));
#185 = CARTESIAN_POINT('',(82.924797402665,105.07817647158));
#186 = CARTESIAN_POINT('',(73.748288152659,116.72108242761));
#187 = CARTESIAN_POINT('',(65.905164067731,129.36942086055));
#188 = CARTESIAN_POINT('',(59.518712348243,142.84218674519));
#189 = CARTESIAN_POINT('',(54.684786892746,156.94663110893));
#190 = CARTESIAN_POINT('',(51.46933306426,171.47783605623));
#191 = CARTESIAN_POINT('',(49.910456508058,186.22013862376));
#192 = CARTESIAN_POINT('',(50.0954652351,215.6648045658));
#193 = CARTESIAN_POINT('',(51.839471071008,230.38635423839));
#194 = CARTESIAN_POINT('',(55.237270721642,244.87600634121));
#195 = CARTESIAN_POINT('',(60.248051521191,258.91859377792));
#196 = CARTESIAN_POINT('',(66.803298306675,272.31004350212));
#197 = CARTESIAN_POINT('',(74.804742656724,284.85882626555));
#198 = CARTESIAN_POINT('',(84.126832588733,296.38550056542));
#199 = CARTESIAN_POINT('',(105.07817647154,317.07520259729));
#200 = CARTESIAN_POINT('',(116.72108242776,326.25171184753));
#201 = CARTESIAN_POINT('',(129.36942086032,334.09483593185));
#202 = CARTESIAN_POINT('',(142.84218674537,340.48128765224));
#203 = CARTESIAN_POINT('',(156.94663110888,345.31521310694));
#204 = CARTESIAN_POINT('',(171.47783605622,348.53066693583));
#205 = CARTESIAN_POINT('',(186.22013862377,350.08954349194));
#206 = CARTESIAN_POINT('',(215.54713568858,349.90527410999));
#207 = CARTESIAN_POINT('',(230.15080620049,348.18830304387));
#208 = CARTESIAN_POINT('',(244.52811343325,344.84397218997));
#209 = CARTESIAN_POINT('',(258.46896631689,339.91172463158));
#210 = CARTESIAN_POINT('',(271.77397628396,333.45795403077));
#211 = CARTESIAN_POINT('',(284.25580149407,325.577880967));
#212 = CARTESIAN_POINT('',(295.73875630913,316.39327804682));
#213 = CARTESIAN_POINT('',(316.47648415041,295.65555020555));
#214 = CARTESIAN_POINT('',(325.72596631815,284.0705313995));
#215 = CARTESIAN_POINT('',(333.64840691798,271.47172211094));
#216 = CARTESIAN_POINT('',(340.11938390197,258.03934916396));
#217 = CARTESIAN_POINT('',(345.04183419439,243.96555545821));
#218 = CARTESIAN_POINT('',(348.34852620528,229.45484050454));
#219 = CARTESIAN_POINT('',(350.,214.72262358299));
#220 = CARTESIAN_POINT('',(350.,200.));
#221 = ( GEOMETRIC_REPRESENTATION_CONTEXT(2) 
PARAMETRIC_REPRESENTATION_CONTEXT() REPRESENTATION_CONTEXT('2D SPACE',''
  ) );
#222 = ORIENTED_EDGE('',*,*,#223,.T.);
#223 = EDGE_CURVE('',#22,#224,#226,.T.);
#224 = VERTEX_POINT('',#225);
#225 = CARTESIAN_POINT('',(-36.86878264946,52.654078451836,
    76.604444311898));
#226 = SEAM_CURVE('',#227,(#232,#238),.PCURVE_S1.);
#227 = ELLIPSE('',#228,150.,100.);
#228 = AXIS2_PLACEMENT_3D('',#229,#230,#231);
#229 = CARTESIAN_POINT('',(0.,0.,0.));
#230 = DIRECTION('',(-0.268535822752,-0.84929415182,0.454519477672));
#231 = DIRECTION('',(0.889920107928,-3.813457647485E-02,0.454519477672)
  );
#232 = PCURVE('',#85,#233);
#233 = DEFINITIONAL_REPRESENTATION('',(#234),#237);
#234 = B_SPLINE_CURVE_WITH_KNOTS('',1,(#235,#236),.UNSPECIFIED.,.F.,.F.,
  (2,2),(4.712388980385,7.853981633974),.PIECEWISE_BEZIER_KNOTS.);
#235 = CARTESIAN_POINT('',(0.,4.712388980385));
#236 = CARTESIAN_POINT('',(0.,7.853981633974));
#237 = ( GEOMETRIC_REPRESENTATION_CONTEXT(2) 
PARAMETRIC_REPRESENTATION_CONTEXT() REPRESENTATION_CONTEXT('2D SPACE',''
  ) );
#238 = PCURVE('',#85,#239);
#239 = DEFINITIONAL_REPRESENTATION('',(#240),#243);
#240 = B_SPLINE_CURVE_WITH_KNOTS('',1,(#241,#242),.UNSPECIFIED.,.F.,.F.,
  (2,2),(4.712388980385,7.853981633974),.PIECEWISE_BEZIER_KNOTS.);
#241 = CARTESIAN_POINT('',(6.28318530718,4.712388980385));
#242 = CARTESIAN_POINT('',(6.28318530718,7.853981633974));
#243 = ( GEOMETRIC_REPRESENTATION_CONTEXT(2) 
PARAMETRIC_REPRESENTATION_CONTEXT() REPRESENTATION_CONTEXT('2D SPACE',''
  ) );
#244 = ORIENTED_EDGE('',*,*,#223,.F.);
#245 = ADVANCED_FACE('',(#246,#360),#156,.T.);
#246 = FACE_BOUND('',#247,.T.);
#247 = EDGE_LOOP('',(#248,#278,#306,#334));
#248 = ORIENTED_EDGE('',*,*,#249,.F.);
#249 = EDGE_CURVE('',#250,#252,#254,.T.);
#250 = VERTEX_POINT('',#251);
#251 = CARTESIAN_POINT('',(-231.6911861358,-162.231915069,0.));
#252 = VERTEX_POINT('',#253);
#253 = CARTESIAN_POINT('',(-124.2768570352,177.48574565899,
    -181.8077910688));
#254 = SURFACE_CURVE('',#255,(#259,#266),.PCURVE_S1.);
#255 = LINE('',#256,#257);
#256 = CARTESIAN_POINT('',(-231.6911861358,-162.231915069,
    8.504801786368E-15));
#257 = VECTOR('',#258,1.);
#258 = DIRECTION('',(0.268535822752,0.84929415182,-0.454519477672));
#259 = PCURVE('',#156,#260);
#260 = DEFINITIONAL_REPRESENTATION('',(#261),#265);
#261 = LINE('',#262,#263);
#262 = CARTESIAN_POINT('',(0.,0.));
#263 = VECTOR('',#264,1.);
#264 = DIRECTION('',(1.665334536938E-16,1.));
#265 = ( GEOMETRIC_REPRESENTATION_CONTEXT(2) 
PARAMETRIC_REPRESENTATION_CONTEXT() REPRESENTATION_CONTEXT('2D SPACE',''
  ) );
#266 = PCURVE('',#267,#272);
#267 = PLANE('',#268);
#268 = AXIS2_PLACEMENT_3D('',#269,#270,#271);
#269 = CARTESIAN_POINT('',(-157.9536208369,-267.5400719727,
    -153.2088886237));
#270 = DIRECTION('',(0.889920107928,-3.813457647485E-02,0.454519477672)
  );
#271 = DIRECTION('',(-0.368687826495,0.526540784518,0.766044443119));
#272 = DEFINITIONAL_REPRESENTATION('',(#273),#277);
#273 = LINE('',#274,#275);
#274 = CARTESIAN_POINT('',(200.,0.));
#275 = VECTOR('',#276,1.);
#276 = DIRECTION('',(1.386669559959E-32,-1.));
#277 = ( GEOMETRIC_REPRESENTATION_CONTEXT(2) 
PARAMETRIC_REPRESENTATION_CONTEXT() REPRESENTATION_CONTEXT('2D SPACE',''
  ) );
#278 = ORIENTED_EDGE('',*,*,#279,.T.);
#279 = EDGE_CURVE('',#250,#280,#282,.T.);
#280 = VERTEX_POINT('',#281);
#281 = CARTESIAN_POINT('',(124.2768570352,-177.4857456589,
    181.80779106881));
#282 = SURFACE_CURVE('',#283,(#287,#294),.PCURVE_S1.);
#283 = LINE('',#284,#285);
#284 = CARTESIAN_POINT('',(-231.6911861358,-162.231915069,
    8.504801786368E-15));
#285 = VECTOR('',#286,1.);
#286 = DIRECTION('',(0.889920107928,-3.813457647485E-02,0.454519477672)
  );
#287 = PCURVE('',#156,#288);
#288 = DEFINITIONAL_REPRESENTATION('',(#289),#293);
#289 = LINE('',#290,#291);
#290 = CARTESIAN_POINT('',(0.,0.));
#291 = VECTOR('',#292,1.);
#292 = DIRECTION('',(1.,1.665334536938E-16));
#293 = ( GEOMETRIC_REPRESENTATION_CONTEXT(2) 
PARAMETRIC_REPRESENTATION_CONTEXT() REPRESENTATION_CONTEXT('2D SPACE',''
  ) );
#294 = PCURVE('',#295,#300);
#295 = PLANE('',#296);
#296 = AXIS2_PLACEMENT_3D('',#297,#298,#299);
#297 = CARTESIAN_POINT('',(-157.9536208369,-267.5400719727,
    -153.2088886237));
#298 = DIRECTION('',(0.268535822752,0.84929415182,-0.454519477672));
#299 = DIRECTION('',(-0.368687826495,0.526540784518,0.766044443119));
#300 = DEFINITIONAL_REPRESENTATION('',(#301),#305);
#301 = LINE('',#302,#303);
#302 = CARTESIAN_POINT('',(200.,-1.110223024625E-14));
#303 = VECTOR('',#304,1.);
#304 = DIRECTION('',(-1.110223024625E-16,1.));
#305 = ( GEOMETRIC_REPRESENTATION_CONTEXT(2) 
PARAMETRIC_REPRESENTATION_CONTEXT() REPRESENTATION_CONTEXT('2D SPACE',''
  ) );
#306 = ORIENTED_EDGE('',*,*,#307,.T.);
#307 = EDGE_CURVE('',#280,#308,#310,.T.);
#308 = VERTEX_POINT('',#309);
#309 = CARTESIAN_POINT('',(231.69118613582,162.23191506905,0.));
#310 = SURFACE_CURVE('',#311,(#315,#322),.PCURVE_S1.);
#311 = LINE('',#312,#313);
#312 = CARTESIAN_POINT('',(124.2768570352,-177.4857456589,
    181.80779106881));
#313 = VECTOR('',#314,1.);
#314 = DIRECTION('',(0.268535822752,0.84929415182,-0.454519477672));
#315 = PCURVE('',#156,#316);
#316 = DEFINITIONAL_REPRESENTATION('',(#317),#321);
#317 = LINE('',#318,#319);
#318 = CARTESIAN_POINT('',(400.,3.330669073875E-14));
#319 = VECTOR('',#320,1.);
#320 = DIRECTION('',(1.665334536938E-16,1.));
#321 = ( GEOMETRIC_REPRESENTATION_CONTEXT(2) 
PARAMETRIC_REPRESENTATION_CONTEXT() REPRESENTATION_CONTEXT('2D SPACE',''
  ) );
#322 = PCURVE('',#323,#328);
#323 = PLANE('',#324);
#324 = AXIS2_PLACEMENT_3D('',#325,#326,#327);
#325 = CARTESIAN_POINT('',(198.01442233412,-282.7939025626,
    28.598902445022));
#326 = DIRECTION('',(0.889920107928,-3.813457647485E-02,0.454519477672)
  );
#327 = DIRECTION('',(-0.368687826495,0.526540784518,0.766044443119));
#328 = DEFINITIONAL_REPRESENTATION('',(#329),#333);
#329 = LINE('',#330,#331);
#330 = CARTESIAN_POINT('',(200.,0.));
#331 = VECTOR('',#332,1.);
#332 = DIRECTION('',(1.386669559959E-32,-1.));
#333 = ( GEOMETRIC_REPRESENTATION_CONTEXT(2) 
PARAMETRIC_REPRESENTATION_CONTEXT() REPRESENTATION_CONTEXT('2D SPACE',''
  ) );
#334 = ORIENTED_EDGE('',*,*,#335,.F.);
#335 = EDGE_CURVE('',#252,#308,#336,.T.);
#336 = SURFACE_CURVE('',#337,(#341,#348),.PCURVE_S1.);
#337 = LINE('',#338,#339);
#338 = CARTESIAN_POINT('',(-124.2768570352,177.48574565899,
    -181.8077910688));
#339 = VECTOR('',#340,1.);
#340 = DIRECTION('',(0.889920107928,-3.813457647485E-02,0.454519477672)
  );
#341 = PCURVE('',#156,#342);
#342 = DEFINITIONAL_REPRESENTATION('',(#343),#347);
#343 = LINE('',#344,#345);
#344 = CARTESIAN_POINT('',(3.330669073875E-14,400.));
#345 = VECTOR('',#346,1.);
#346 = DIRECTION('',(1.,1.665334536938E-16));
#347 = ( GEOMETRIC_REPRESENTATION_CONTEXT(2) 
PARAMETRIC_REPRESENTATION_CONTEXT() REPRESENTATION_CONTEXT('2D SPACE',''
  ) );
#348 = PCURVE('',#349,#354);
#349 = PLANE('',#350);
#350 = AXIS2_PLACEMENT_3D('',#351,#352,#353);
#351 = CARTESIAN_POINT('',(-50.53929173627,72.177588755323,
    -335.0166796926));
#352 = DIRECTION('',(0.268535822752,0.84929415182,-0.454519477672));
#353 = DIRECTION('',(-0.368687826495,0.526540784518,0.766044443119));
#354 = DEFINITIONAL_REPRESENTATION('',(#355),#359);
#355 = LINE('',#356,#357);
#356 = CARTESIAN_POINT('',(200.,-1.110223024625E-14));
#357 = VECTOR('',#358,1.);
#358 = DIRECTION('',(-1.110223024625E-16,1.));
#359 = ( GEOMETRIC_REPRESENTATION_CONTEXT(2) 
PARAMETRIC_REPRESENTATION_CONTEXT() REPRESENTATION_CONTEXT('2D SPACE',''
  ) );
#360 = FACE_BOUND('',#361,.T.);
#361 = EDGE_LOOP('',(#362));
#362 = ORIENTED_EDGE('',*,*,#21,.T.);
#363 = ADVANCED_FACE('',(#364),#267,.F.);
#364 = FACE_BOUND('',#365,.F.);
#365 = EDGE_LOOP('',(#366,#389,#417,#438));
#366 = ORIENTED_EDGE('',*,*,#367,.F.);
#367 = EDGE_CURVE('',#368,#250,#370,.T.);
#368 = VERTEX_POINT('',#369);
#369 = CARTESIAN_POINT('',(-157.9536208369,-267.5400719727,
    -153.2088886237));
#370 = SURFACE_CURVE('',#371,(#375,#382),.PCURVE_S1.);
#371 = LINE('',#372,#373);
#372 = CARTESIAN_POINT('',(-157.9536208369,-267.5400719727,
    -153.2088886237));
#373 = VECTOR('',#374,1.);
#374 = DIRECTION('',(-0.368687826495,0.526540784518,0.766044443119));
#375 = PCURVE('',#267,#376);
#376 = DEFINITIONAL_REPRESENTATION('',(#377),#381);
#377 = LINE('',#378,#379);
#378 = CARTESIAN_POINT('',(0.,0.));
#379 = VECTOR('',#380,1.);
#380 = DIRECTION('',(1.,-1.386669559959E-32));
#381 = ( GEOMETRIC_REPRESENTATION_CONTEXT(2) 
PARAMETRIC_REPRESENTATION_CONTEXT() REPRESENTATION_CONTEXT('2D SPACE',''
  ) );
#382 = PCURVE('',#295,#383);
#383 = DEFINITIONAL_REPRESENTATION('',(#384),#388);
#384 = LINE('',#385,#386);
#385 = CARTESIAN_POINT('',(0.,0.));
#386 = VECTOR('',#387,1.);
#387 = DIRECTION('',(1.,-1.110223024625E-16));
#388 = ( GEOMETRIC_REPRESENTATION_CONTEXT(2) 
PARAMETRIC_REPRESENTATION_CONTEXT() REPRESENTATION_CONTEXT('2D SPACE',''
  ) );
#389 = ORIENTED_EDGE('',*,*,#390,.T.);
#390 = EDGE_CURVE('',#368,#391,#393,.T.);
#391 = VERTEX_POINT('',#392);
#392 = CARTESIAN_POINT('',(-50.53929173627,72.177588755323,
    -335.0166796926));
#393 = SURFACE_CURVE('',#394,(#398,#405),.PCURVE_S1.);
#394 = LINE('',#395,#396);
#395 = CARTESIAN_POINT('',(-157.9536208369,-267.5400719727,
    -153.2088886237));
#396 = VECTOR('',#397,1.);
#397 = DIRECTION('',(0.268535822752,0.84929415182,-0.454519477672));
#398 = PCURVE('',#267,#399);
#399 = DEFINITIONAL_REPRESENTATION('',(#400),#404);
#400 = LINE('',#401,#402);
#401 = CARTESIAN_POINT('',(0.,0.));
#402 = VECTOR('',#403,1.);
#403 = DIRECTION('',(1.386669559959E-32,-1.));
#404 = ( GEOMETRIC_REPRESENTATION_CONTEXT(2) 
PARAMETRIC_REPRESENTATION_CONTEXT() REPRESENTATION_CONTEXT('2D SPACE',''
  ) );
#405 = PCURVE('',#406,#411);
#406 = PLANE('',#407);
#407 = AXIS2_PLACEMENT_3D('',#408,#409,#410);
#408 = CARTESIAN_POINT('',(-157.9536208369,-267.5400719727,
    -153.2088886237));
#409 = DIRECTION('',(-0.368687826495,0.526540784518,0.766044443119));
#410 = DIRECTION('',(0.889920107928,-3.813457647485E-02,0.454519477672)
  );
#411 = DEFINITIONAL_REPRESENTATION('',(#412),#416);
#412 = LINE('',#413,#414);
#413 = CARTESIAN_POINT('',(0.,0.));
#414 = VECTOR('',#415,1.);
#415 = DIRECTION('',(1.665334536938E-16,1.));
#416 = ( GEOMETRIC_REPRESENTATION_CONTEXT(2) 
PARAMETRIC_REPRESENTATION_CONTEXT() REPRESENTATION_CONTEXT('2D SPACE',''
  ) );
#417 = ORIENTED_EDGE('',*,*,#418,.T.);
#418 = EDGE_CURVE('',#391,#252,#419,.T.);
#419 = SURFACE_CURVE('',#420,(#424,#431),.PCURVE_S1.);
#420 = LINE('',#421,#422);
#421 = CARTESIAN_POINT('',(-50.53929173627,72.177588755323,
    -335.0166796926));
#422 = VECTOR('',#423,1.);
#423 = DIRECTION('',(-0.368687826495,0.526540784518,0.766044443119));
#424 = PCURVE('',#267,#425);
#425 = DEFINITIONAL_REPRESENTATION('',(#426),#430);
#426 = LINE('',#427,#428);
#427 = CARTESIAN_POINT('',(1.577721810442E-30,-400.));
#428 = VECTOR('',#429,1.);
#429 = DIRECTION('',(1.,-1.386669559959E-32));
#430 = ( GEOMETRIC_REPRESENTATION_CONTEXT(2) 
PARAMETRIC_REPRESENTATION_CONTEXT() REPRESENTATION_CONTEXT('2D SPACE',''
  ) );
#431 = PCURVE('',#349,#432);
#432 = DEFINITIONAL_REPRESENTATION('',(#433),#437);
#433 = LINE('',#434,#435);
#434 = CARTESIAN_POINT('',(0.,0.));
#435 = VECTOR('',#436,1.);
#436 = DIRECTION('',(1.,-1.110223024625E-16));
#437 = ( GEOMETRIC_REPRESENTATION_CONTEXT(2) 
PARAMETRIC_REPRESENTATION_CONTEXT() REPRESENTATION_CONTEXT('2D SPACE',''
  ) );
#438 = ORIENTED_EDGE('',*,*,#249,.F.);
#439 = ADVANCED_FACE('',(#440),#349,.T.);
#440 = FACE_BOUND('',#441,.T.);
#441 = EDGE_LOOP('',(#442,#465,#466,#467));
#442 = ORIENTED_EDGE('',*,*,#443,.F.);
#443 = EDGE_CURVE('',#391,#444,#446,.T.);
#444 = VERTEX_POINT('',#445);
#445 = CARTESIAN_POINT('',(305.42875143475,56.923758165383,
    -153.2088886237));
#446 = SURFACE_CURVE('',#447,(#451,#458),.PCURVE_S1.);
#447 = LINE('',#448,#449);
#448 = CARTESIAN_POINT('',(-50.53929173627,72.177588755323,
    -335.0166796926));
#449 = VECTOR('',#450,1.);
#450 = DIRECTION('',(0.889920107928,-3.813457647485E-02,0.454519477672)
  );
#451 = PCURVE('',#349,#452);
#452 = DEFINITIONAL_REPRESENTATION('',(#453),#457);
#453 = LINE('',#454,#455);
#454 = CARTESIAN_POINT('',(0.,0.));
#455 = VECTOR('',#456,1.);
#456 = DIRECTION('',(-1.110223024625E-16,1.));
#457 = ( GEOMETRIC_REPRESENTATION_CONTEXT(2) 
PARAMETRIC_REPRESENTATION_CONTEXT() REPRESENTATION_CONTEXT('2D SPACE',''
  ) );
#458 = PCURVE('',#406,#459);
#459 = DEFINITIONAL_REPRESENTATION('',(#460),#464);
#460 = LINE('',#461,#462);
#461 = CARTESIAN_POINT('',(3.330669073875E-14,400.));
#462 = VECTOR('',#463,1.);
#463 = DIRECTION('',(1.,1.665334536938E-16));
#464 = ( GEOMETRIC_REPRESENTATION_CONTEXT(2) 
PARAMETRIC_REPRESENTATION_CONTEXT() REPRESENTATION_CONTEXT('2D SPACE',''
  ) );
#465 = ORIENTED_EDGE('',*,*,#418,.T.);
#466 = ORIENTED_EDGE('',*,*,#335,.T.);
#467 = ORIENTED_EDGE('',*,*,#468,.F.);
#468 = EDGE_CURVE('',#444,#308,#469,.T.);
#469 = SURFACE_CURVE('',#470,(#474,#481),.PCURVE_S1.);
#470 = LINE('',#471,#472);
#471 = CARTESIAN_POINT('',(305.42875143475,56.923758165383,
    -153.2088886237));
#472 = VECTOR('',#473,1.);
#473 = DIRECTION('',(-0.368687826495,0.526540784518,0.766044443119));
#474 = PCURVE('',#349,#475);
#475 = DEFINITIONAL_REPRESENTATION('',(#476),#480);
#476 = LINE('',#477,#478);
#477 = CARTESIAN_POINT('',(-2.22044604925E-14,400.));
#478 = VECTOR('',#479,1.);
#479 = DIRECTION('',(1.,-1.110223024625E-16));
#480 = ( GEOMETRIC_REPRESENTATION_CONTEXT(2) 
PARAMETRIC_REPRESENTATION_CONTEXT() REPRESENTATION_CONTEXT('2D SPACE',''
  ) );
#481 = PCURVE('',#323,#482);
#482 = DEFINITIONAL_REPRESENTATION('',(#483),#487);
#483 = LINE('',#484,#485);
#484 = CARTESIAN_POINT('',(1.577721810442E-30,-400.));
#485 = VECTOR('',#486,1.);
#486 = DIRECTION('',(1.,-1.386669559959E-32));
#487 = ( GEOMETRIC_REPRESENTATION_CONTEXT(2) 
PARAMETRIC_REPRESENTATION_CONTEXT() REPRESENTATION_CONTEXT('2D SPACE',''
  ) );
#488 = ADVANCED_FACE('',(#489),#295,.F.);
#489 = FACE_BOUND('',#490,.F.);
#490 = EDGE_LOOP('',(#491,#514,#515,#516));
#491 = ORIENTED_EDGE('',*,*,#492,.F.);
#492 = EDGE_CURVE('',#368,#493,#495,.T.);
#493 = VERTEX_POINT('',#494);
#494 = CARTESIAN_POINT('',(198.01442233412,-282.7939025626,
    28.598902445022));
#495 = SURFACE_CURVE('',#496,(#500,#507),.PCURVE_S1.);
#496 = LINE('',#497,#498);
#497 = CARTESIAN_POINT('',(-157.9536208369,-267.5400719727,
    -153.2088886237));
#498 = VECTOR('',#499,1.);
#499 = DIRECTION('',(0.889920107928,-3.813457647485E-02,0.454519477672)
  );
#500 = PCURVE('',#295,#501);
#501 = DEFINITIONAL_REPRESENTATION('',(#502),#506);
#502 = LINE('',#503,#504);
#503 = CARTESIAN_POINT('',(0.,0.));
#504 = VECTOR('',#505,1.);
#505 = DIRECTION('',(-1.110223024625E-16,1.));
#506 = ( GEOMETRIC_REPRESENTATION_CONTEXT(2) 
PARAMETRIC_REPRESENTATION_CONTEXT() REPRESENTATION_CONTEXT('2D SPACE',''
  ) );
#507 = PCURVE('',#406,#508);
#508 = DEFINITIONAL_REPRESENTATION('',(#509),#513);
#509 = LINE('',#510,#511);
#510 = CARTESIAN_POINT('',(0.,0.));
#511 = VECTOR('',#512,1.);
#512 = DIRECTION('',(1.,1.665334536938E-16));
#513 = ( GEOMETRIC_REPRESENTATION_CONTEXT(2) 
PARAMETRIC_REPRESENTATION_CONTEXT() REPRESENTATION_CONTEXT('2D SPACE',''
  ) );
#514 = ORIENTED_EDGE('',*,*,#367,.T.);
#515 = ORIENTED_EDGE('',*,*,#279,.T.);
#516 = ORIENTED_EDGE('',*,*,#517,.F.);
#517 = EDGE_CURVE('',#493,#280,#518,.T.);
#518 = SURFACE_CURVE('',#519,(#523,#530),.PCURVE_S1.);
#519 = LINE('',#520,#521);
#520 = CARTESIAN_POINT('',(198.01442233412,-282.7939025626,
    28.598902445022));
#521 = VECTOR('',#522,1.);
#522 = DIRECTION('',(-0.368687826495,0.526540784518,0.766044443119));
#523 = PCURVE('',#295,#524);
#524 = DEFINITIONAL_REPRESENTATION('',(#525),#529);
#525 = LINE('',#526,#527);
#526 = CARTESIAN_POINT('',(-2.22044604925E-14,400.));
#527 = VECTOR('',#528,1.);
#528 = DIRECTION('',(1.,-1.110223024625E-16));
#529 = ( GEOMETRIC_REPRESENTATION_CONTEXT(2) 
PARAMETRIC_REPRESENTATION_CONTEXT() REPRESENTATION_CONTEXT('2D SPACE',''
  ) );
#530 = PCURVE('',#323,#531);
#531 = DEFINITIONAL_REPRESENTATION('',(#532),#536);
#532 = LINE('',#533,#534);
#533 = CARTESIAN_POINT('',(0.,0.));
#534 = VECTOR('',#535,1.);
#535 = DIRECTION('',(1.,-1.386669559959E-32));
#536 = ( GEOMETRIC_REPRESENTATION_CONTEXT(2) 
PARAMETRIC_REPRESENTATION_CONTEXT() REPRESENTATION_CONTEXT('2D SPACE',''
  ) );
#537 = ADVANCED_FACE('',(#538),#323,.T.);
#538 = FACE_BOUND('',#539,.T.);
#539 = EDGE_LOOP('',(#540,#541,#562,#563));
#540 = ORIENTED_EDGE('',*,*,#517,.F.);
#541 = ORIENTED_EDGE('',*,*,#542,.T.);
#542 = EDGE_CURVE('',#493,#444,#543,.T.);
#543 = SURFACE_CURVE('',#544,(#548,#555),.PCURVE_S1.);
#544 = LINE('',#545,#546);
#545 = CARTESIAN_POINT('',(198.01442233412,-282.7939025626,
    28.598902445022));
#546 = VECTOR('',#547,1.);
#547 = DIRECTION('',(0.268535822752,0.84929415182,-0.454519477672));
#548 = PCURVE('',#323,#549);
#549 = DEFINITIONAL_REPRESENTATION('',(#550),#554);
#550 = LINE('',#551,#552);
#551 = CARTESIAN_POINT('',(0.,0.));
#552 = VECTOR('',#553,1.);
#553 = DIRECTION('',(1.386669559959E-32,-1.));
#554 = ( GEOMETRIC_REPRESENTATION_CONTEXT(2) 
PARAMETRIC_REPRESENTATION_CONTEXT() REPRESENTATION_CONTEXT('2D SPACE',''
  ) );
#555 = PCURVE('',#406,#556);
#556 = DEFINITIONAL_REPRESENTATION('',(#557),#561);
#557 = LINE('',#558,#559);
#558 = CARTESIAN_POINT('',(400.,3.330669073875E-14));
#559 = VECTOR('',#560,1.);
#560 = DIRECTION('',(1.665334536938E-16,1.));
#561 = ( GEOMETRIC_REPRESENTATION_CONTEXT(2) 
PARAMETRIC_REPRESENTATION_CONTEXT() REPRESENTATION_CONTEXT('2D SPACE',''
  ) );
#562 = ORIENTED_EDGE('',*,*,#468,.T.);
#563 = ORIENTED_EDGE('',*,*,#307,.F.);
#564 = ADVANCED_FACE('',(#565),#406,.F.);
#565 = FACE_BOUND('',#566,.F.);
#566 = EDGE_LOOP('',(#567,#568,#569,#570));
#567 = ORIENTED_EDGE('',*,*,#390,.F.);
#568 = ORIENTED_EDGE('',*,*,#492,.T.);
#569 = ORIENTED_EDGE('',*,*,#542,.T.);
#570 = ORIENTED_EDGE('',*,*,#443,.F.);
#571 = ( GEOMETRIC_REPRESENTATION_CONTEXT(3) 
GLOBAL_UNCERTAINTY_ASSIGNED_CONTEXT((#575)) GLOBAL_UNIT_ASSIGNED_CONTEXT
((#572,#573,#574)) REPRESENTATION_CONTEXT('Context #1',
  '3D Context with UNIT and UNCERTAINTY') );
#572 = ( LENGTH_UNIT() NAMED_UNIT(*) SI_UNIT(.MILLI.,.METRE.) );
#573 = ( NAMED_UNIT(*) PLANE_ANGLE_UNIT() SI_UNIT($,.RADIAN.) );
#574 = ( NAMED_UNIT(*) SI_UNIT($,.STERADIAN.) SOLID_ANGLE_UNIT() );
#575 = UNCERTAINTY_MEASURE_WITH_UNIT(LENGTH_MEASURE(2.E-06),#572,
  'distance_accuracy_value','confusion accuracy');
#576 = PRODUCT_RELATED_PRODUCT_CATEGORY('part',$,(#7));
ENDSEC;
END-ISO-10303-21;
