ISO-10303-21;
HEADER;
FILE_DESCRIPTION(('Open CASCADE Model'),'2;1');
FILE_NAME('Open CASCADE Shape Model','2026-07-11T20:15:47',('Author'),(
    'Open CASCADE'),'Open CASCADE STEP processor 8.0','Open CASCADE 8.0'
  ,'Unknown');
FILE_SCHEMA(('AUTOMOTIVE_DESIGN { 1 0 10303 214 1 1 1 1 }'));
ENDSEC;
DATA;
#1 = APPLICATION_PROTOCOL_DEFINITION('international standard',
  'automotive_design',2000,#2);
#2 = APPLICATION_CONTEXT(
  'core data for automotive mechanical design processes');
#3 = SHAPE_DEFINITION_REPRESENTATION(#4,#10);
#4 = PRODUCT_DEFINITION_SHAPE('','',#5);
#5 = PRODUCT_DEFINITION('design','',#6,#9);
#6 = PRODUCT_DEFINITION_FORMATION('','',#7);
#7 = PRODUCT('Open CASCADE STEP translator 8.0 1',
  'Open CASCADE STEP translator 8.0 1','',(#8));
#8 = PRODUCT_CONTEXT('',#2,'mechanical');
#9 = PRODUCT_DEFINITION_CONTEXT('part definition',#2,'design');
#10 = ADVANCED_BREP_SHAPE_REPRESENTATION('',(#11,#15),#606);
#11 = AXIS2_PLACEMENT_3D('',#12,#13,#14);
#12 = CARTESIAN_POINT('',(0.,0.,0.));
#13 = DIRECTION('',(0.,0.,1.));
#14 = DIRECTION('',(1.,0.,-0.));
#15 = MANIFOLD_SOLID_BREP('',#16);
#16 = CLOSED_SHELL('',(#17,#137,#213,#262,#311,#338,#525,#602));
#17 = ADVANCED_FACE('',(#18),#32,.F.);
#18 = FACE_BOUND('',#19,.F.);
#19 = EDGE_LOOP('',(#20,#55,#83,#111));
#20 = ORIENTED_EDGE('',*,*,#21,.F.);
#21 = EDGE_CURVE('',#22,#24,#26,.T.);
#22 = VERTEX_POINT('',#23);
#23 = CARTESIAN_POINT('',(-150.,-150.,-150.));
#24 = VERTEX_POINT('',#25);
#25 = CARTESIAN_POINT('',(-150.,-150.,150.));
#26 = SURFACE_CURVE('',#27,(#31,#43),.PCURVE_S1.);
#27 = LINE('',#28,#29);
#28 = CARTESIAN_POINT('',(-150.,-150.,-150.));
#29 = VECTOR('',#30,1.);
#30 = DIRECTION('',(0.,0.,1.));
#31 = PCURVE('',#32,#37);
#32 = PLANE('',#33);
#33 = AXIS2_PLACEMENT_3D('',#34,#35,#36);
#34 = CARTESIAN_POINT('',(-150.,-150.,-150.));
#35 = DIRECTION('',(1.,0.,-0.));
#36 = DIRECTION('',(0.,0.,1.));
#37 = DEFINITIONAL_REPRESENTATION('',(#38),#42);
#38 = LINE('',#39,#40);
#39 = CARTESIAN_POINT('',(0.,0.));
#40 = VECTOR('',#41,1.);
#41 = DIRECTION('',(1.,0.));
#42 = ( GEOMETRIC_REPRESENTATION_CONTEXT(2) 
PARAMETRIC_REPRESENTATION_CONTEXT() REPRESENTATION_CONTEXT('2D SPACE',''
  ) );
#43 = PCURVE('',#44,#49);
#44 = PLANE('',#45);
#45 = AXIS2_PLACEMENT_3D('',#46,#47,#48);
#46 = CARTESIAN_POINT('',(-150.,-150.,-150.));
#47 = DIRECTION('',(-0.,1.,0.));
#48 = DIRECTION('',(0.,0.,1.));
#49 = DEFINITIONAL_REPRESENTATION('',(#50),#54);
#50 = LINE('',#51,#52);
#51 = CARTESIAN_POINT('',(0.,0.));
#52 = VECTOR('',#53,1.);
#53 = DIRECTION('',(1.,0.));
#54 = ( GEOMETRIC_REPRESENTATION_CONTEXT(2) 
PARAMETRIC_REPRESENTATION_CONTEXT() REPRESENTATION_CONTEXT('2D SPACE',''
  ) );
#55 = ORIENTED_EDGE('',*,*,#56,.T.);
#56 = EDGE_CURVE('',#22,#57,#59,.T.);
#57 = VERTEX_POINT('',#58);
#58 = CARTESIAN_POINT('',(-150.,150.,-150.));
#59 = SURFACE_CURVE('',#60,(#64,#71),.PCURVE_S1.);
#60 = LINE('',#61,#62);
#61 = CARTESIAN_POINT('',(-150.,-150.,-150.));
#62 = VECTOR('',#63,1.);
#63 = DIRECTION('',(-0.,1.,0.));
#64 = PCURVE('',#32,#65);
#65 = DEFINITIONAL_REPRESENTATION('',(#66),#70);
#66 = LINE('',#67,#68);
#67 = CARTESIAN_POINT('',(0.,0.));
#68 = VECTOR('',#69,1.);
#69 = DIRECTION('',(0.,-1.));
#70 = ( GEOMETRIC_REPRESENTATION_CONTEXT(2) 
PARAMETRIC_REPRESENTATION_CONTEXT() REPRESENTATION_CONTEXT('2D SPACE',''
  ) );
#71 = PCURVE('',#72,#77);
#72 = PLANE('',#73);
#73 = AXIS2_PLACEMENT_3D('',#74,#75,#76);
#74 = CARTESIAN_POINT('',(-150.,-150.,-150.));
#75 = DIRECTION('',(0.,0.,1.));
#76 = DIRECTION('',(1.,0.,-0.));
#77 = DEFINITIONAL_REPRESENTATION('',(#78),#82);
#78 = LINE('',#79,#80);
#79 = CARTESIAN_POINT('',(0.,0.));
#80 = VECTOR('',#81,1.);
#81 = DIRECTION('',(0.,1.));
#82 = ( GEOMETRIC_REPRESENTATION_CONTEXT(2) 
PARAMETRIC_REPRESENTATION_CONTEXT() REPRESENTATION_CONTEXT('2D SPACE',''
  ) );
#83 = ORIENTED_EDGE('',*,*,#84,.T.);
#84 = EDGE_CURVE('',#57,#85,#87,.T.);
#85 = VERTEX_POINT('',#86);
#86 = CARTESIAN_POINT('',(-150.,150.,150.));
#87 = SURFACE_CURVE('',#88,(#92,#99),.PCURVE_S1.);
#88 = LINE('',#89,#90);
#89 = CARTESIAN_POINT('',(-150.,150.,-150.));
#90 = VECTOR('',#91,1.);
#91 = DIRECTION('',(0.,0.,1.));
#92 = PCURVE('',#32,#93);
#93 = DEFINITIONAL_REPRESENTATION('',(#94),#98);
#94 = LINE('',#95,#96);
#95 = CARTESIAN_POINT('',(0.,-300.));
#96 = VECTOR('',#97,1.);
#97 = DIRECTION('',(1.,0.));
#98 = ( GEOMETRIC_REPRESENTATION_CONTEXT(2) 
PARAMETRIC_REPRESENTATION_CONTEXT() REPRESENTATION_CONTEXT('2D SPACE',''
  ) );
#99 = PCURVE('',#100,#105);
#100 = PLANE('',#101);
#101 = AXIS2_PLACEMENT_3D('',#102,#103,#104);
#102 = CARTESIAN_POINT('',(-150.,150.,-150.));
#103 = DIRECTION('',(-0.,1.,0.));
#104 = DIRECTION('',(0.,0.,1.));
#105 = DEFINITIONAL_REPRESENTATION('',(#106),#110);
#106 = LINE('',#107,#108);
#107 = CARTESIAN_POINT('',(0.,0.));
#108 = VECTOR('',#109,1.);
#109 = DIRECTION('',(1.,0.));
#110 = ( GEOMETRIC_REPRESENTATION_CONTEXT(2) 
PARAMETRIC_REPRESENTATION_CONTEXT() REPRESENTATION_CONTEXT('2D SPACE',''
  ) );
#111 = ORIENTED_EDGE('',*,*,#112,.F.);
#112 = EDGE_CURVE('',#24,#85,#113,.T.);
#113 = SURFACE_CURVE('',#114,(#118,#125),.PCURVE_S1.);
#114 = LINE('',#115,#116);
#115 = CARTESIAN_POINT('',(-150.,-150.,150.));
#116 = VECTOR('',#117,1.);
#117 = DIRECTION('',(-0.,1.,0.));
#118 = PCURVE('',#32,#119);
#119 = DEFINITIONAL_REPRESENTATION('',(#120),#124);
#120 = LINE('',#121,#122);
#121 = CARTESIAN_POINT('',(300.,0.));
#122 = VECTOR('',#123,1.);
#123 = DIRECTION('',(0.,-1.));
#124 = ( GEOMETRIC_REPRESENTATION_CONTEXT(2) 
PARAMETRIC_REPRESENTATION_CONTEXT() REPRESENTATION_CONTEXT('2D SPACE',''
  ) );
#125 = PCURVE('',#126,#131);
#126 = PLANE('',#127);
#127 = AXIS2_PLACEMENT_3D('',#128,#129,#130);
#128 = CARTESIAN_POINT('',(-150.,-150.,150.));
#129 = DIRECTION('',(0.,0.,1.));
#130 = DIRECTION('',(1.,0.,-0.));
#131 = DEFINITIONAL_REPRESENTATION('',(#132),#136);
#132 = LINE('',#133,#134);
#133 = CARTESIAN_POINT('',(0.,0.));
#134 = VECTOR('',#135,1.);
#135 = DIRECTION('',(0.,1.));
#136 = ( GEOMETRIC_REPRESENTATION_CONTEXT(2) 
PARAMETRIC_REPRESENTATION_CONTEXT() REPRESENTATION_CONTEXT('2D SPACE',''
  ) );
#137 = ADVANCED_FACE('',(#138),#44,.F.);
#138 = FACE_BOUND('',#139,.F.);
#139 = EDGE_LOOP('',(#140,#163,#164,#187));
#140 = ORIENTED_EDGE('',*,*,#141,.F.);
#141 = EDGE_CURVE('',#22,#142,#144,.T.);
#142 = VERTEX_POINT('',#143);
#143 = CARTESIAN_POINT('',(0.,-150.,-150.));
#144 = SURFACE_CURVE('',#145,(#149,#156),.PCURVE_S1.);
#145 = LINE('',#146,#147);
#146 = CARTESIAN_POINT('',(-150.,-150.,-150.));
#147 = VECTOR('',#148,1.);
#148 = DIRECTION('',(1.,0.,-0.));
#149 = PCURVE('',#44,#150);
#150 = DEFINITIONAL_REPRESENTATION('',(#151),#155);
#151 = LINE('',#152,#153);
#152 = CARTESIAN_POINT('',(0.,0.));
#153 = VECTOR('',#154,1.);
#154 = DIRECTION('',(0.,1.));
#155 = ( GEOMETRIC_REPRESENTATION_CONTEXT(2) 
PARAMETRIC_REPRESENTATION_CONTEXT() REPRESENTATION_CONTEXT('2D SPACE',''
  ) );
#156 = PCURVE('',#72,#157);
#157 = DEFINITIONAL_REPRESENTATION('',(#158),#162);
#158 = LINE('',#159,#160);
#159 = CARTESIAN_POINT('',(0.,0.));
#160 = VECTOR('',#161,1.);
#161 = DIRECTION('',(1.,0.));
#162 = ( GEOMETRIC_REPRESENTATION_CONTEXT(2) 
PARAMETRIC_REPRESENTATION_CONTEXT() REPRESENTATION_CONTEXT('2D SPACE',''
  ) );
#163 = ORIENTED_EDGE('',*,*,#21,.T.);
#164 = ORIENTED_EDGE('',*,*,#165,.T.);
#165 = EDGE_CURVE('',#24,#166,#168,.T.);
#166 = VERTEX_POINT('',#167);
#167 = CARTESIAN_POINT('',(0.,-150.,150.));
#168 = SURFACE_CURVE('',#169,(#173,#180),.PCURVE_S1.);
#169 = LINE('',#170,#171);
#170 = CARTESIAN_POINT('',(-150.,-150.,150.));
#171 = VECTOR('',#172,1.);
#172 = DIRECTION('',(1.,0.,-0.));
#173 = PCURVE('',#44,#174);
#174 = DEFINITIONAL_REPRESENTATION('',(#175),#179);
#175 = LINE('',#176,#177);
#176 = CARTESIAN_POINT('',(300.,0.));
#177 = VECTOR('',#178,1.);
#178 = DIRECTION('',(0.,1.));
#179 = ( GEOMETRIC_REPRESENTATION_CONTEXT(2) 
PARAMETRIC_REPRESENTATION_CONTEXT() REPRESENTATION_CONTEXT('2D SPACE',''
  ) );
#180 = PCURVE('',#126,#181);
#181 = DEFINITIONAL_REPRESENTATION('',(#182),#186);
#182 = LINE('',#183,#184);
#183 = CARTESIAN_POINT('',(0.,0.));
#184 = VECTOR('',#185,1.);
#185 = DIRECTION('',(1.,0.));
#186 = ( GEOMETRIC_REPRESENTATION_CONTEXT(2) 
PARAMETRIC_REPRESENTATION_CONTEXT() REPRESENTATION_CONTEXT('2D SPACE',''
  ) );
#187 = ORIENTED_EDGE('',*,*,#188,.F.);
#188 = EDGE_CURVE('',#142,#166,#189,.T.);
#189 = SURFACE_CURVE('',#190,(#194,#201),.PCURVE_S1.);
#190 = LINE('',#191,#192);
#191 = CARTESIAN_POINT('',(0.,-150.,-150.));
#192 = VECTOR('',#193,1.);
#193 = DIRECTION('',(0.,0.,1.));
#194 = PCURVE('',#44,#195);
#195 = DEFINITIONAL_REPRESENTATION('',(#196),#200);
#196 = LINE('',#197,#198);
#197 = CARTESIAN_POINT('',(0.,150.));
#198 = VECTOR('',#199,1.);
#199 = DIRECTION('',(1.,0.));
#200 = ( GEOMETRIC_REPRESENTATION_CONTEXT(2) 
PARAMETRIC_REPRESENTATION_CONTEXT() REPRESENTATION_CONTEXT('2D SPACE',''
  ) );
#201 = PCURVE('',#202,#207);
#202 = PLANE('',#203);
#203 = AXIS2_PLACEMENT_3D('',#204,#205,#206);
#204 = CARTESIAN_POINT('',(0.,-150.,-150.));
#205 = DIRECTION('',(1.,0.,-0.));
#206 = DIRECTION('',(0.,0.,1.));
#207 = DEFINITIONAL_REPRESENTATION('',(#208),#212);
#208 = LINE('',#209,#210);
#209 = CARTESIAN_POINT('',(0.,0.));
#210 = VECTOR('',#211,1.);
#211 = DIRECTION('',(1.,0.));
#212 = ( GEOMETRIC_REPRESENTATION_CONTEXT(2) 
PARAMETRIC_REPRESENTATION_CONTEXT() REPRESENTATION_CONTEXT('2D SPACE',''
  ) );
#213 = ADVANCED_FACE('',(#214),#126,.T.);
#214 = FACE_BOUND('',#215,.T.);
#215 = EDGE_LOOP('',(#216,#217,#218,#241));
#216 = ORIENTED_EDGE('',*,*,#112,.F.);
#217 = ORIENTED_EDGE('',*,*,#165,.T.);
#218 = ORIENTED_EDGE('',*,*,#219,.T.);
#219 = EDGE_CURVE('',#166,#220,#222,.T.);
#220 = VERTEX_POINT('',#221);
#221 = CARTESIAN_POINT('',(0.,150.,150.));
#222 = SURFACE_CURVE('',#223,(#227,#234),.PCURVE_S1.);
#223 = LINE('',#224,#225);
#224 = CARTESIAN_POINT('',(0.,-150.,150.));
#225 = VECTOR('',#226,1.);
#226 = DIRECTION('',(-0.,1.,0.));
#227 = PCURVE('',#126,#228);
#228 = DEFINITIONAL_REPRESENTATION('',(#229),#233);
#229 = LINE('',#230,#231);
#230 = CARTESIAN_POINT('',(150.,0.));
#231 = VECTOR('',#232,1.);
#232 = DIRECTION('',(0.,1.));
#233 = ( GEOMETRIC_REPRESENTATION_CONTEXT(2) 
PARAMETRIC_REPRESENTATION_CONTEXT() REPRESENTATION_CONTEXT('2D SPACE',''
  ) );
#234 = PCURVE('',#202,#235);
#235 = DEFINITIONAL_REPRESENTATION('',(#236),#240);
#236 = LINE('',#237,#238);
#237 = CARTESIAN_POINT('',(300.,0.));
#238 = VECTOR('',#239,1.);
#239 = DIRECTION('',(0.,-1.));
#240 = ( GEOMETRIC_REPRESENTATION_CONTEXT(2) 
PARAMETRIC_REPRESENTATION_CONTEXT() REPRESENTATION_CONTEXT('2D SPACE',''
  ) );
#241 = ORIENTED_EDGE('',*,*,#242,.F.);
#242 = EDGE_CURVE('',#85,#220,#243,.T.);
#243 = SURFACE_CURVE('',#244,(#248,#255),.PCURVE_S1.);
#244 = LINE('',#245,#246);
#245 = CARTESIAN_POINT('',(-150.,150.,150.));
#246 = VECTOR('',#247,1.);
#247 = DIRECTION('',(1.,0.,-0.));
#248 = PCURVE('',#126,#249);
#249 = DEFINITIONAL_REPRESENTATION('',(#250),#254);
#250 = LINE('',#251,#252);
#251 = CARTESIAN_POINT('',(0.,300.));
#252 = VECTOR('',#253,1.);
#253 = DIRECTION('',(1.,0.));
#254 = ( GEOMETRIC_REPRESENTATION_CONTEXT(2) 
PARAMETRIC_REPRESENTATION_CONTEXT() REPRESENTATION_CONTEXT('2D SPACE',''
  ) );
#255 = PCURVE('',#100,#256);
#256 = DEFINITIONAL_REPRESENTATION('',(#257),#261);
#257 = LINE('',#258,#259);
#258 = CARTESIAN_POINT('',(300.,0.));
#259 = VECTOR('',#260,1.);
#260 = DIRECTION('',(0.,1.));
#261 = ( GEOMETRIC_REPRESENTATION_CONTEXT(2) 
PARAMETRIC_REPRESENTATION_CONTEXT() REPRESENTATION_CONTEXT('2D SPACE',''
  ) );
#262 = ADVANCED_FACE('',(#263),#100,.T.);
#263 = FACE_BOUND('',#264,.T.);
#264 = EDGE_LOOP('',(#265,#288,#289,#290));
#265 = ORIENTED_EDGE('',*,*,#266,.F.);
#266 = EDGE_CURVE('',#57,#267,#269,.T.);
#267 = VERTEX_POINT('',#268);
#268 = CARTESIAN_POINT('',(0.,150.,-150.));
#269 = SURFACE_CURVE('',#270,(#274,#281),.PCURVE_S1.);
#270 = LINE('',#271,#272);
#271 = CARTESIAN_POINT('',(-150.,150.,-150.));
#272 = VECTOR('',#273,1.);
#273 = DIRECTION('',(1.,0.,-0.));
#274 = PCURVE('',#100,#275);
#275 = DEFINITIONAL_REPRESENTATION('',(#276),#280);
#276 = LINE('',#277,#278);
#277 = CARTESIAN_POINT('',(0.,0.));
#278 = VECTOR('',#279,1.);
#279 = DIRECTION('',(0.,1.));
#280 = ( GEOMETRIC_REPRESENTATION_CONTEXT(2) 
PARAMETRIC_REPRESENTATION_CONTEXT() REPRESENTATION_CONTEXT('2D SPACE',''
  ) );
#281 = PCURVE('',#72,#282);
#282 = DEFINITIONAL_REPRESENTATION('',(#283),#287);
#283 = LINE('',#284,#285);
#284 = CARTESIAN_POINT('',(0.,300.));
#285 = VECTOR('',#286,1.);
#286 = DIRECTION('',(1.,0.));
#287 = ( GEOMETRIC_REPRESENTATION_CONTEXT(2) 
PARAMETRIC_REPRESENTATION_CONTEXT() REPRESENTATION_CONTEXT('2D SPACE',''
  ) );
#288 = ORIENTED_EDGE('',*,*,#84,.T.);
#289 = ORIENTED_EDGE('',*,*,#242,.T.);
#290 = ORIENTED_EDGE('',*,*,#291,.F.);
#291 = EDGE_CURVE('',#267,#220,#292,.T.);
#292 = SURFACE_CURVE('',#293,(#297,#304),.PCURVE_S1.);
#293 = LINE('',#294,#295);
#294 = CARTESIAN_POINT('',(0.,150.,-150.));
#295 = VECTOR('',#296,1.);
#296 = DIRECTION('',(0.,0.,1.));
#297 = PCURVE('',#100,#298);
#298 = DEFINITIONAL_REPRESENTATION('',(#299),#303);
#299 = LINE('',#300,#301);
#300 = CARTESIAN_POINT('',(0.,150.));
#301 = VECTOR('',#302,1.);
#302 = DIRECTION('',(1.,0.));
#303 = ( GEOMETRIC_REPRESENTATION_CONTEXT(2) 
PARAMETRIC_REPRESENTATION_CONTEXT() REPRESENTATION_CONTEXT('2D SPACE',''
  ) );
#304 = PCURVE('',#202,#305);
#305 = DEFINITIONAL_REPRESENTATION('',(#306),#310);
#306 = LINE('',#307,#308);
#307 = CARTESIAN_POINT('',(0.,-300.));
#308 = VECTOR('',#309,1.);
#309 = DIRECTION('',(1.,0.));
#310 = ( GEOMETRIC_REPRESENTATION_CONTEXT(2) 
PARAMETRIC_REPRESENTATION_CONTEXT() REPRESENTATION_CONTEXT('2D SPACE',''
  ) );
#311 = ADVANCED_FACE('',(#312),#72,.F.);
#312 = FACE_BOUND('',#313,.F.);
#313 = EDGE_LOOP('',(#314,#315,#316,#337));
#314 = ORIENTED_EDGE('',*,*,#56,.F.);
#315 = ORIENTED_EDGE('',*,*,#141,.T.);
#316 = ORIENTED_EDGE('',*,*,#317,.T.);
#317 = EDGE_CURVE('',#142,#267,#318,.T.);
#318 = SURFACE_CURVE('',#319,(#323,#330),.PCURVE_S1.);
#319 = LINE('',#320,#321);
#320 = CARTESIAN_POINT('',(0.,-150.,-150.));
#321 = VECTOR('',#322,1.);
#322 = DIRECTION('',(-0.,1.,0.));
#323 = PCURVE('',#72,#324);
#324 = DEFINITIONAL_REPRESENTATION('',(#325),#329);
#325 = LINE('',#326,#327);
#326 = CARTESIAN_POINT('',(150.,0.));
#327 = VECTOR('',#328,1.);
#328 = DIRECTION('',(0.,1.));
#329 = ( GEOMETRIC_REPRESENTATION_CONTEXT(2) 
PARAMETRIC_REPRESENTATION_CONTEXT() REPRESENTATION_CONTEXT('2D SPACE',''
  ) );
#330 = PCURVE('',#202,#331);
#331 = DEFINITIONAL_REPRESENTATION('',(#332),#336);
#332 = LINE('',#333,#334);
#333 = CARTESIAN_POINT('',(0.,0.));
#334 = VECTOR('',#335,1.);
#335 = DIRECTION('',(0.,-1.));
#336 = ( GEOMETRIC_REPRESENTATION_CONTEXT(2) 
PARAMETRIC_REPRESENTATION_CONTEXT() REPRESENTATION_CONTEXT('2D SPACE',''
  ) );
#337 = ORIENTED_EDGE('',*,*,#266,.F.);
#338 = ADVANCED_FACE('',(#339,#345),#202,.T.);
#339 = FACE_BOUND('',#340,.T.);
#340 = EDGE_LOOP('',(#341,#342,#343,#344));
#341 = ORIENTED_EDGE('',*,*,#188,.F.);
#342 = ORIENTED_EDGE('',*,*,#317,.T.);
#343 = ORIENTED_EDGE('',*,*,#291,.T.);
#344 = ORIENTED_EDGE('',*,*,#219,.F.);
#345 = FACE_BOUND('',#346,.T.);
#346 = EDGE_LOOP('',(#347));
#347 = ORIENTED_EDGE('',*,*,#348,.F.);
#348 = EDGE_CURVE('',#349,#349,#351,.T.);
#349 = VERTEX_POINT('',#350);
#350 = CARTESIAN_POINT('',(3.552713678801E-14,8.881784197001E-15,50.));
#351 = SURFACE_CURVE('',#352,(#360,#371),.PCURVE_S1.);
#352 = ( BOUNDED_CURVE() B_SPLINE_CURVE(6,(#353,#354,#355,#356,#357,#358
,#359),.UNSPECIFIED.,.T.,.F.) B_SPLINE_CURVE_WITH_KNOTS((1,6,6,1),(
    -6.28318530718,0.,6.28318530718,12.566370614359),.UNSPECIFIED.) 
CURVE() GEOMETRIC_REPRESENTATION_ITEM() RATIONAL_B_SPLINE_CURVE((
    1.669078461068,1.03672962321,1.038346699848,0.853534330196,
1.038346699848,1.03672962321,1.669078461068)) REPRESENTATION_ITEM('') );
#353 = CARTESIAN_POINT('',(3.552713678801E-14,8.881784197001E-15,50.));
#354 = CARTESIAN_POINT('',(-1.7763568394E-14,-83.07715377855,50.));
#355 = CARTESIAN_POINT('',(-1.7763568394E-14,-95.00561916228,
    -52.7274095274));
#356 = CARTESIAN_POINT('',(0.,-1.68753899743E-13,-137.4558460504));
#357 = CARTESIAN_POINT('',(-1.7763568394E-14,95.00561916228,
    -52.7274095274));
#358 = CARTESIAN_POINT('',(0.,83.077153778553,50.));
#359 = CARTESIAN_POINT('',(3.552713678801E-14,8.881784197001E-15,50.));
#360 = PCURVE('',#202,#361);
#361 = DEFINITIONAL_REPRESENTATION('',(#362),#370);
#362 = ( BOUNDED_CURVE() B_SPLINE_CURVE(6,(#363,#364,#365,#366,#367,#368
,#369),.UNSPECIFIED.,.T.,.F.) B_SPLINE_CURVE_WITH_KNOTS((1,6,6,1),(
    -6.28318530718,0.,6.28318530718,12.566370614359),.UNSPECIFIED.) 
CURVE() GEOMETRIC_REPRESENTATION_ITEM() RATIONAL_B_SPLINE_CURVE((
    1.669078461068,1.03672962321,1.038346699848,0.853534330196,
1.038346699848,1.03672962321,1.669078461068)) REPRESENTATION_ITEM('') );
#363 = CARTESIAN_POINT('',(200.,-150.));
#364 = CARTESIAN_POINT('',(200.,-66.92284622144));
#365 = CARTESIAN_POINT('',(97.272590472593,-54.99438083772));
#366 = CARTESIAN_POINT('',(12.544153949577,-150.));
#367 = CARTESIAN_POINT('',(97.272590472593,-245.0056191622));
#368 = CARTESIAN_POINT('',(200.,-233.0771537785));
#369 = CARTESIAN_POINT('',(200.,-150.));
#370 = ( GEOMETRIC_REPRESENTATION_CONTEXT(2) 
PARAMETRIC_REPRESENTATION_CONTEXT() REPRESENTATION_CONTEXT('2D SPACE',''
  ) );
#371 = PCURVE('',#372,#520);
#372 = ( BOUNDED_SURFACE() B_SPLINE_SURFACE(6,11,(
    (#373,#374,#375,#376,#377,#378,#379,#380,#381,#382,#383,#384,#385
      ,#386,#387,#388,#389,#390,#391,#392,#393)
    ,(#394,#395,#396,#397,#398,#399,#400,#401,#402,#403,#404,#405,#406
      ,#407,#408,#409,#410,#411,#412,#413,#414)
    ,(#415,#416,#417,#418,#419,#420,#421,#422,#423,#424,#425,#426,#427
      ,#428,#429,#430,#431,#432,#433,#434,#435)
    ,(#436,#437,#438,#439,#440,#441,#442,#443,#444,#445,#446,#447,#448
      ,#449,#450,#451,#452,#453,#454,#455,#456)
    ,(#457,#458,#459,#460,#461,#462,#463,#464,#465,#466,#467,#468,#469
      ,#470,#471,#472,#473,#474,#475,#476,#477)
    ,(#478,#479,#480,#481,#482,#483,#484,#485,#486,#487,#488,#489,#490
      ,#491,#492,#493,#494,#495,#496,#497,#498)
    ,(#499,#500,#501,#502,#503,#504,#505,#506,#507,#508,#509,#510,#511
      ,#512,#513,#514,#515,#516,#517,#518,#519
)),.UNSPECIFIED.,.T.,.F.,.F.) B_SPLINE_SURFACE_WITH_KNOTS((1,6,6,1),(12,
    9,12),(-6.28318530718,0.,6.28318530718,12.566370614359),(0.,0.5,1.),
.UNSPECIFIED.) GEOMETRIC_REPRESENTATION_ITEM() RATIONAL_B_SPLINE_SURFACE
((
    (1.669078461068,1.669078461068,1.669078461068,1.669078461068
      ,1.669078461068,1.669078461068,1.669078461068,1.669078461068
      ,1.669078461068,1.669078461068,1.669078461068,1.669078461068
      ,1.669078461068,1.669078461068,1.669078461069,1.669078461068
      ,1.669078461069,1.669078461068,1.669078461068,1.669078461068
      ,1.669078461068)
    ,(1.03672962321,1.03672962321,1.03672962321,1.03672962321
      ,1.036729623209,1.03672962321,1.036729623209,1.03672962321
      ,1.03672962321,1.03672962321,1.03672962321,1.03672962321
      ,1.03672962321,1.036729623209,1.03672962321,1.036729623209
      ,1.03672962321,1.036729623209,1.03672962321,1.03672962321
      ,1.03672962321)
    ,(1.038346699848,1.038346699848,1.038346699847,1.038346699848
      ,1.038346699847,1.038346699848,1.038346699847,1.038346699848
      ,1.038346699847,1.038346699848,1.038346699847,1.038346699848
      ,1.038346699847,1.038346699848,1.038346699847,1.038346699848
      ,1.038346699847,1.038346699848,1.038346699847,1.038346699848
      ,1.038346699848)
    ,(0.853534330196,0.853534330196,0.853534330196,0.853534330196
      ,0.853534330196,0.853534330196,0.853534330196,0.853534330196
      ,0.853534330196,0.853534330196,0.853534330196,0.853534330196
      ,0.853534330196,0.853534330196,0.853534330196,0.853534330196
      ,0.853534330196,0.853534330196,0.853534330196,0.853534330196
      ,0.853534330196)
    ,(1.038346699848,1.038346699848,1.038346699848,1.038346699848
      ,1.038346699847,1.038346699848,1.038346699847,1.038346699848
      ,1.038346699847,1.038346699848,1.038346699847,1.038346699848
      ,1.038346699847,1.038346699848,1.038346699847,1.038346699848
      ,1.038346699847,1.038346699848,1.038346699847,1.038346699848
      ,1.038346699848)
    ,(1.03672962321,1.03672962321,1.03672962321,1.03672962321
      ,1.03672962321,1.03672962321,1.03672962321,1.03672962321
      ,1.03672962321,1.03672962321,1.03672962321,1.03672962321
      ,1.03672962321,1.03672962321,1.036729623209,1.03672962321
      ,1.036729623209,1.03672962321,1.03672962321,1.03672962321
      ,1.03672962321)
    ,(1.669078461068,1.669078461068,1.669078461068,1.669078461068
      ,1.669078461068,1.669078461068,1.669078461068,1.669078461068
      ,1.669078461068,1.669078461068,1.669078461068,1.669078461068
      ,1.669078461068,1.669078461068,1.669078461069,1.669078461068
      ,1.669078461069,1.669078461068,1.669078461068,1.669078461068
,1.669078461068))) REPRESENTATION_ITEM('') SURFACE() );
#373 = CARTESIAN_POINT('',(3.552713678801E-14,8.881784197001E-15,50.));
#374 = CARTESIAN_POINT('',(13.636363636365,1.580957587066E-12,
    49.999999999999));
#375 = CARTESIAN_POINT('',(25.909090909087,1.36363636363,50.000000000002
    ));
#376 = CARTESIAN_POINT('',(36.969696969707,3.93939393941,49.999999999995
    ));
#377 = CARTESIAN_POINT('',(46.969696969682,7.57575757573,50.000000000006
    ));
#378 = CARTESIAN_POINT('',(56.060606060622,12.121212121247,
    49.999999999994));
#379 = CARTESIAN_POINT('',(64.393939393927,17.424242424211,
    50.000000000003));
#380 = CARTESIAN_POINT('',(72.12121212122,23.333333333355,50.));
#381 = CARTESIAN_POINT('',(79.393939393936,29.69696969696,
    49.999999999999));
#382 = CARTESIAN_POINT('',(86.363636363637,36.363636363639,
    50.000000000001));
#383 = CARTESIAN_POINT('',(99.999999999999,49.999999999998,
    49.999999999999));
#384 = CARTESIAN_POINT('',(113.63636363636,63.636363636365,
    50.000000000002));
#385 = CARTESIAN_POINT('',(120.60606060605,70.303030303026,
    49.999999999993));
#386 = CARTESIAN_POINT('',(127.87878787881,76.666666666677,
    50.000000000016));
#387 = CARTESIAN_POINT('',(135.60606060602,82.575757575741,
    49.999999999977));
#388 = CARTESIAN_POINT('',(143.93939393943,87.878787878806,
    50.000000000023));
#389 = CARTESIAN_POINT('',(153.03030303026,92.424242424227,
    49.999999999983));
#390 = CARTESIAN_POINT('',(163.03030303032,96.060606060615,
    50.000000000009));
#391 = CARTESIAN_POINT('',(174.09090909089,98.63636363636,
    49.999999999997));
#392 = CARTESIAN_POINT('',(186.36363636363,100.,50.000000000001));
#393 = CARTESIAN_POINT('',(200.,100.,50.));
#394 = CARTESIAN_POINT('',(-1.7763568394E-14,-83.07715377855,50.));
#395 = CARTESIAN_POINT('',(21.188832161687,-83.07715377854,
    50.000000000001));
#396 = CARTESIAN_POINT('',(41.769274812266,-80.95827056239,
    49.999999999997));
#397 = CARTESIAN_POINT('',(61.643704490929,-76.61378345661,
    50.000000000008));
#398 = CARTESIAN_POINT('',(80.432538915648,-70.05936788614,
    49.999999999987));
#399 = CARTESIAN_POINT('',(97.631836227276,-61.30154676037,
    50.000000000016));
#400 = CARTESIAN_POINT('',(111.95711026663,-51.50362873371,
    49.999999999984));
#401 = CARTESIAN_POINT('',(124.38519900538,-41.75415906357,
    50.000000000011));
#402 = CARTESIAN_POINT('',(134.93141979723,-32.24684576986,
    49.999999999994));
#403 = CARTESIAN_POINT('',(144.03997482033,-23.44886277664,
    50.000000000002));
#404 = CARTESIAN_POINT('',(159.81249914028,-7.6763384567,49.999999999998
    ));
#405 = CARTESIAN_POINT('',(171.31270209307,3.823864496079,
    50.000000000003));
#406 = CARTESIAN_POINT('',(176.14354100933,8.359214836209,
    49.999999999988));
#407 = CARTESIAN_POINT('',(180.14277476301,11.579174269724,
    50.000000000026));
#408 = CARTESIAN_POINT('',(183.16923147868,13.647886417869,
    49.999999999961));
#409 = CARTESIAN_POINT('',(185.51062410615,14.456028997122,
    50.000000000041));
#410 = CARTESIAN_POINT('',(186.49314497618,14.789116962414,
    49.999999999969));
#411 = CARTESIAN_POINT('',(187.70431055157,15.50742866455,
    50.000000000017));
#412 = CARTESIAN_POINT('',(189.95109299407,16.314456710348,
    49.999999999993));
#413 = CARTESIAN_POINT('',(193.91610488896,16.922846221446,
    50.000000000002));
#414 = CARTESIAN_POINT('',(200.,16.922846221447,50.));
#415 = CARTESIAN_POINT('',(-1.7763568394E-14,-95.00561916228,
    -52.7274095274));
#416 = CARTESIAN_POINT('',(22.273238105663,-95.00561916227,
    -52.7274095274));
#417 = CARTESIAN_POINT('',(44.046527294612,-92.77829535172,
    -52.72740952741));
#418 = CARTESIAN_POINT('',(65.186472041436,-88.17984878764,
    -52.72740952739));
#419 = CARTESIAN_POINT('',(85.237233511435,-81.20645062204,
    -52.72740952742));
#420 = CARTESIAN_POINT('',(103.60075737404,-71.84380534607,
    -52.72740952738));
#421 = CARTESIAN_POINT('',(118.78637212131,-61.40049794125,
    -52.72740952742));
#422 = CARTESIAN_POINT('',(131.88941803562,-51.09961524084,
    -52.72740952739));
#423 = CARTESIAN_POINT('',(142.90565678489,-41.14092344255,
    -52.72740952741));
#424 = CARTESIAN_POINT('',(152.32131542301,-32.03691969793,
    -52.7274095274));
#425 = CARTESIAN_POINT('',(168.40055606157,-15.95767905937,
    -52.7274095274));
#426 = CARTESIAN_POINT('',(179.59404269573,-4.764192425211,
    -52.7274095274));
#427 = CARTESIAN_POINT('',(184.11777799702,-0.534862836484,
    -52.72740952741));
#428 = CARTESIAN_POINT('',(187.64699379318,2.233718092463,
    -52.72740952739));
#429 = CARTESIAN_POINT('',(189.99849333346,3.751017210304,
    -52.72740952742));
#430 = CARTESIAN_POINT('',(191.47954525279,3.913770411447,
    -52.72740952738));
#431 = CARTESIAN_POINT('',(191.29783957208,3.642034226488,
    -52.72740952742));
#432 = CARTESIAN_POINT('',(191.24707810201,3.941363333543,
    -52.72740952739));
#433 = CARTESIAN_POINT('',(192.22834547644,4.494431921013,
    -52.72740952741));
#434 = CARTESIAN_POINT('',(195.00051083293,4.99438083772,-52.7274095274)
  );
#435 = CARTESIAN_POINT('',(200.,4.99438083772,-52.7274095274));
#436 = CARTESIAN_POINT('',(0.,-1.68753899743E-13,-137.4558460504));
#437 = CARTESIAN_POINT('',(13.636363636365,1.59872115546E-13,
    -137.4558460504));
#438 = CARTESIAN_POINT('',(25.909090909084,1.363636363635,
    -137.4558460504));
#439 = CARTESIAN_POINT('',(36.969696969712,3.939393939397,
    -137.4558460504));
#440 = CARTESIAN_POINT('',(46.969696969673,7.575757575752,
    -137.4558460504));
#441 = CARTESIAN_POINT('',(56.060606060634,12.121212121218,
    -137.4558460504));
#442 = CARTESIAN_POINT('',(64.393939393915,17.424242424237,
    -137.4558460504));
#443 = CARTESIAN_POINT('',(72.121212121227,23.333333333337,
    -137.4558460504));
#444 = CARTESIAN_POINT('',(79.393939393934,29.696969696968,
    -137.4558460504));
#445 = CARTESIAN_POINT('',(86.363636363638,36.363636363637,
    -137.4558460504));
#446 = CARTESIAN_POINT('',(100.,49.999999999999,-137.4558460504));
#447 = CARTESIAN_POINT('',(113.63636363636,63.636363636365,
    -137.4558460504));
#448 = CARTESIAN_POINT('',(120.60606060606,70.303030303024,
    -137.4558460504));
#449 = CARTESIAN_POINT('',(127.87878787879,76.666666666681,
    -137.4558460504));
#450 = CARTESIAN_POINT('',(135.60606060605,82.575757575736,
    -137.4558460503));
#451 = CARTESIAN_POINT('',(143.9393939394,87.878787878812,
    -137.4558460504));
#452 = CARTESIAN_POINT('',(153.03030303029,92.424242424223,
    -137.4558460503));
#453 = CARTESIAN_POINT('',(163.0303030303,96.060606060618,
    -137.4558460504));
#454 = CARTESIAN_POINT('',(174.0909090909,98.636363636358,
    -137.4558460504));
#455 = CARTESIAN_POINT('',(186.36363636363,100.,-137.4558460504));
#456 = CARTESIAN_POINT('',(200.,100.,-137.4558460504));
#457 = CARTESIAN_POINT('',(-1.7763568394E-14,95.00561916228,
    -52.7274095274));
#458 = CARTESIAN_POINT('',(4.999489167065,95.005619162281,-52.7274095274
    ));
#459 = CARTESIAN_POINT('',(7.771654523567,95.505568078985,
    -52.72740952741));
#460 = CARTESIAN_POINT('',(8.752921897964,96.05863666646,-52.72740952739
    ));
#461 = CARTESIAN_POINT('',(8.702160427955,96.357965773509,
    -52.72740952742));
#462 = CARTESIAN_POINT('',(8.520454747161,96.086229588555,
    -52.72740952738));
#463 = CARTESIAN_POINT('',(10.001506666572,96.248982789694,
    -52.72740952743));
#464 = CARTESIAN_POINT('',(12.353006206786,97.76628190754,
    -52.72740952738));
#465 = CARTESIAN_POINT('',(15.882222002989,100.53486283648,
    -52.72740952741));
#466 = CARTESIAN_POINT('',(20.40595730426,104.76419242521,-52.7274095274
    ));
#467 = CARTESIAN_POINT('',(31.599443938425,115.95767905937,
    -52.72740952741));
#468 = CARTESIAN_POINT('',(47.67868457699,132.03691969793,-52.7274095274
    ));
#469 = CARTESIAN_POINT('',(57.094343215095,141.14092344255,
    -52.72740952742));
#470 = CARTESIAN_POINT('',(68.110581964391,151.09961524083,
    -52.72740952737));
#471 = CARTESIAN_POINT('',(81.21362787866,161.40049794126,
    -52.72740952744));
#472 = CARTESIAN_POINT('',(96.399242625973,171.84380534606,
    -52.72740952736));
#473 = CARTESIAN_POINT('',(114.76276648855,181.20645062205,
    -52.72740952744));
#474 = CARTESIAN_POINT('',(134.81352795856,188.17984878763,
    -52.72740952738));
#475 = CARTESIAN_POINT('',(155.95347270538,192.77829535173,
    -52.72740952741));
#476 = CARTESIAN_POINT('',(177.72676189433,195.00561916227,
    -52.7274095274));
#477 = CARTESIAN_POINT('',(200.,195.00561916228,-52.7274095274));
#478 = CARTESIAN_POINT('',(0.,83.077153778553,50.));
#479 = CARTESIAN_POINT('',(6.08389511104,83.077153778552,50.000000000001
    ));
#480 = CARTESIAN_POINT('',(10.048907005915,83.685543289659,
    49.999999999994));
#481 = CARTESIAN_POINT('',(12.295689448466,84.492571335432,
    50.000000000013));
#482 = CARTESIAN_POINT('',(13.506855023744,85.210883037619,
    49.999999999978));
#483 = CARTESIAN_POINT('',(14.489375893937,85.543971002836,
    50.000000000026));
#484 = CARTESIAN_POINT('',(16.830768521239,86.352113582172,
    49.999999999977));
#485 = CARTESIAN_POINT('',(19.857225237042,88.420825730248,
    50.000000000014));
#486 = CARTESIAN_POINT('',(23.856458990638,91.640785163804,
    49.999999999994));
#487 = CARTESIAN_POINT('',(28.687297906935,96.176135503918,
    50.000000000001));
#488 = CARTESIAN_POINT('',(40.187500859716,107.6763384567,50.));
#489 = CARTESIAN_POINT('',(55.960025179663,123.44886277664,
    49.999999999999));
#490 = CARTESIAN_POINT('',(65.068580202757,132.24684576986,
    50.000000000004));
#491 = CARTESIAN_POINT('',(75.614800994624,141.75415906357,
    49.99999999999));
#492 = CARTESIAN_POINT('',(88.042889733352,151.50362873369,
    50.000000000016));
#493 = CARTESIAN_POINT('',(102.36816377273,161.3015467604,49.99999999998
    ));
#494 = CARTESIAN_POINT('',(119.56746108434,170.0593678861,
    50.000000000018));
#495 = CARTESIAN_POINT('',(138.35629550907,176.61378345664,
    49.999999999987));
#496 = CARTESIAN_POINT('',(158.23072518773,180.95827056238,
    50.000000000005));
#497 = CARTESIAN_POINT('',(178.81116783831,183.07715377855,
    49.999999999999));
#498 = CARTESIAN_POINT('',(200.,183.07715377855,50.));
#499 = CARTESIAN_POINT('',(3.552713678801E-14,8.881784197001E-15,50.));
#500 = CARTESIAN_POINT('',(13.636363636365,1.580957587066E-12,
    49.999999999999));
#501 = CARTESIAN_POINT('',(25.909090909087,1.36363636363,50.000000000002
    ));
#502 = CARTESIAN_POINT('',(36.969696969707,3.93939393941,49.999999999995
    ));
#503 = CARTESIAN_POINT('',(46.969696969682,7.57575757573,50.000000000006
    ));
#504 = CARTESIAN_POINT('',(56.060606060622,12.121212121247,
    49.999999999994));
#505 = CARTESIAN_POINT('',(64.393939393927,17.424242424211,
    50.000000000003));
#506 = CARTESIAN_POINT('',(72.12121212122,23.333333333355,50.));
#507 = CARTESIAN_POINT('',(79.393939393936,29.69696969696,
    49.999999999999));
#508 = CARTESIAN_POINT('',(86.363636363637,36.363636363639,
    50.000000000001));
#509 = CARTESIAN_POINT('',(99.999999999999,49.999999999998,
    49.999999999999));
#510 = CARTESIAN_POINT('',(113.63636363636,63.636363636365,
    50.000000000002));
#511 = CARTESIAN_POINT('',(120.60606060605,70.303030303026,
    49.999999999993));
#512 = CARTESIAN_POINT('',(127.87878787881,76.666666666677,
    50.000000000016));
#513 = CARTESIAN_POINT('',(135.60606060602,82.575757575741,
    49.999999999977));
#514 = CARTESIAN_POINT('',(143.93939393943,87.878787878806,
    50.000000000023));
#515 = CARTESIAN_POINT('',(153.03030303026,92.424242424227,
    49.999999999983));
#516 = CARTESIAN_POINT('',(163.03030303032,96.060606060615,
    50.000000000009));
#517 = CARTESIAN_POINT('',(174.09090909089,98.63636363636,
    49.999999999997));
#518 = CARTESIAN_POINT('',(186.36363636363,100.,50.000000000001));
#519 = CARTESIAN_POINT('',(200.,100.,50.));
#520 = DEFINITIONAL_REPRESENTATION('',(#521),#524);
#521 = B_SPLINE_CURVE_WITH_KNOTS('',1,(#522,#523),.UNSPECIFIED.,.F.,.F.,
  (2,2),(0.,6.28318530718),.PIECEWISE_BEZIER_KNOTS.);
#522 = CARTESIAN_POINT('',(0.,0.));
#523 = CARTESIAN_POINT('',(6.28318530718,0.));
#524 = ( GEOMETRIC_REPRESENTATION_CONTEXT(2) 
PARAMETRIC_REPRESENTATION_CONTEXT() REPRESENTATION_CONTEXT('2D SPACE',''
  ) );
#525 = ADVANCED_FACE('',(#526),#372,.T.);
#526 = FACE_BOUND('',#527,.T.);
#527 = EDGE_LOOP('',(#528,#567,#600,#601));
#528 = ORIENTED_EDGE('',*,*,#529,.T.);
#529 = EDGE_CURVE('',#349,#530,#532,.T.);
#530 = VERTEX_POINT('',#531);
#531 = CARTESIAN_POINT('',(200.,100.,50.));
#532 = SEAM_CURVE('',#533,(#555,#561),.PCURVE_S1.);
#533 = ( BOUNDED_CURVE() B_SPLINE_CURVE(11,(#534,#535,#536,#537,#538,
    #539,#540,#541,#542,#543,#544,#545,#546,#547,#548,#549,#550,#551,
#552,#553,#554),.UNSPECIFIED.,.F.,.F.) B_SPLINE_CURVE_WITH_KNOTS((12,9,
12),(0.,0.5,1.),.UNSPECIFIED.) CURVE() GEOMETRIC_REPRESENTATION_ITEM() 
RATIONAL_B_SPLINE_CURVE((1.669078461068,1.669078461068,1.669078461068,
    1.669078461068,1.669078461068,1.669078461068,1.669078461068,
    1.669078461068,1.669078461068,1.669078461068,1.669078461068,
    1.669078461068,1.669078461068,1.669078461068,1.669078461069,
    1.669078461068,1.669078461069,1.669078461068,1.669078461068,
1.669078461068,1.669078461068)) REPRESENTATION_ITEM('') );
#534 = CARTESIAN_POINT('',(3.552713678801E-14,8.881784197001E-15,50.));
#535 = CARTESIAN_POINT('',(13.636363636365,1.580957587066E-12,
    49.999999999999));
#536 = CARTESIAN_POINT('',(25.909090909087,1.36363636363,50.000000000002
    ));
#537 = CARTESIAN_POINT('',(36.969696969707,3.93939393941,49.999999999995
    ));
#538 = CARTESIAN_POINT('',(46.969696969682,7.57575757573,50.000000000006
    ));
#539 = CARTESIAN_POINT('',(56.060606060622,12.121212121247,
    49.999999999994));
#540 = CARTESIAN_POINT('',(64.393939393927,17.424242424211,
    50.000000000003));
#541 = CARTESIAN_POINT('',(72.12121212122,23.333333333355,50.));
#542 = CARTESIAN_POINT('',(79.393939393936,29.69696969696,
    49.999999999999));
#543 = CARTESIAN_POINT('',(86.363636363637,36.363636363639,
    50.000000000001));
#544 = CARTESIAN_POINT('',(99.999999999999,49.999999999998,
    49.999999999999));
#545 = CARTESIAN_POINT('',(113.63636363636,63.636363636365,
    50.000000000002));
#546 = CARTESIAN_POINT('',(120.60606060605,70.303030303026,
    49.999999999993));
#547 = CARTESIAN_POINT('',(127.87878787881,76.666666666677,
    50.000000000016));
#548 = CARTESIAN_POINT('',(135.60606060602,82.575757575741,
    49.999999999977));
#549 = CARTESIAN_POINT('',(143.93939393943,87.878787878806,
    50.000000000023));
#550 = CARTESIAN_POINT('',(153.03030303026,92.424242424227,
    49.999999999983));
#551 = CARTESIAN_POINT('',(163.03030303032,96.060606060615,
    50.000000000009));
#552 = CARTESIAN_POINT('',(174.09090909089,98.63636363636,
    49.999999999997));
#553 = CARTESIAN_POINT('',(186.36363636363,100.,50.000000000001));
#554 = CARTESIAN_POINT('',(200.,100.,50.));
#555 = PCURVE('',#372,#556);
#556 = DEFINITIONAL_REPRESENTATION('',(#557),#560);
#557 = B_SPLINE_CURVE_WITH_KNOTS('',1,(#558,#559),.UNSPECIFIED.,.F.,.F.,
  (2,2),(0.,1.),.PIECEWISE_BEZIER_KNOTS.);
#558 = CARTESIAN_POINT('',(6.28318530718,0.));
#559 = CARTESIAN_POINT('',(6.28318530718,1.));
#560 = ( GEOMETRIC_REPRESENTATION_CONTEXT(2) 
PARAMETRIC_REPRESENTATION_CONTEXT() REPRESENTATION_CONTEXT('2D SPACE',''
  ) );
#561 = PCURVE('',#372,#562);
#562 = DEFINITIONAL_REPRESENTATION('',(#563),#566);
#563 = B_SPLINE_CURVE_WITH_KNOTS('',1,(#564,#565),.UNSPECIFIED.,.F.,.F.,
  (2,2),(0.,1.),.PIECEWISE_BEZIER_KNOTS.);
#564 = CARTESIAN_POINT('',(0.,0.));
#565 = CARTESIAN_POINT('',(0.,1.));
#566 = ( GEOMETRIC_REPRESENTATION_CONTEXT(2) 
PARAMETRIC_REPRESENTATION_CONTEXT() REPRESENTATION_CONTEXT('2D SPACE',''
  ) );
#567 = ORIENTED_EDGE('',*,*,#568,.F.);
#568 = EDGE_CURVE('',#530,#530,#569,.T.);
#569 = SURFACE_CURVE('',#570,(#578,#584),.PCURVE_S1.);
#570 = ( BOUNDED_CURVE() B_SPLINE_CURVE(6,(#571,#572,#573,#574,#575,#576
,#577),.UNSPECIFIED.,.T.,.F.) B_SPLINE_CURVE_WITH_KNOTS((1,6,6,1),(
    -6.28318530718,0.,6.28318530718,12.566370614359),.UNSPECIFIED.) 
CURVE() GEOMETRIC_REPRESENTATION_ITEM() RATIONAL_B_SPLINE_CURVE((
    1.669078461068,1.03672962321,1.038346699848,0.853534330196,
1.038346699848,1.03672962321,1.669078461068)) REPRESENTATION_ITEM('') );
#571 = CARTESIAN_POINT('',(200.,100.,50.));
#572 = CARTESIAN_POINT('',(200.,16.922846221447,50.));
#573 = CARTESIAN_POINT('',(200.,4.99438083772,-52.7274095274));
#574 = CARTESIAN_POINT('',(200.,100.,-137.4558460504));
#575 = CARTESIAN_POINT('',(200.,195.00561916228,-52.7274095274));
#576 = CARTESIAN_POINT('',(200.,183.07715377855,50.));
#577 = CARTESIAN_POINT('',(200.,100.,50.));
#578 = PCURVE('',#372,#579);
#579 = DEFINITIONAL_REPRESENTATION('',(#580),#583);
#580 = B_SPLINE_CURVE_WITH_KNOTS('',1,(#581,#582),.UNSPECIFIED.,.F.,.F.,
  (2,2),(0.,6.28318530718),.PIECEWISE_BEZIER_KNOTS.);
#581 = CARTESIAN_POINT('',(0.,1.));
#582 = CARTESIAN_POINT('',(6.28318530718,1.));
#583 = ( GEOMETRIC_REPRESENTATION_CONTEXT(2) 
PARAMETRIC_REPRESENTATION_CONTEXT() REPRESENTATION_CONTEXT('2D SPACE',''
  ) );
#584 = PCURVE('',#585,#590);
#585 = PLANE('',#586);
#586 = AXIS2_PLACEMENT_3D('',#587,#588,#589);
#587 = CARTESIAN_POINT('',(200.,100.,-2.734880265079E-15));
#588 = DIRECTION('',(1.,0.,0.));
#589 = DIRECTION('',(0.,2.334869823773E-16,1.));
#590 = DEFINITIONAL_REPRESENTATION('',(#591),#599);
#591 = ( BOUNDED_CURVE() B_SPLINE_CURVE(6,(#592,#593,#594,#595,#596,#597
,#598),.UNSPECIFIED.,.T.,.F.) B_SPLINE_CURVE_WITH_KNOTS((1,6,6,1),(
    -6.28318530718,0.,6.28318530718,12.566370614359),.UNSPECIFIED.) 
CURVE() GEOMETRIC_REPRESENTATION_ITEM() RATIONAL_B_SPLINE_CURVE((
    1.669078461068,1.03672962321,1.038346699848,0.853534330196,
1.038346699848,1.03672962321,1.669078461068)) REPRESENTATION_ITEM('') );
#592 = CARTESIAN_POINT('',(50.,-1.674736031154E-14));
#593 = CARTESIAN_POINT('',(50.,83.077153778553));
#594 = CARTESIAN_POINT('',(-52.7274095274,95.00561916228));
#595 = CARTESIAN_POINT('',(-137.4558460504,1.810686700236E-13));
#596 = CARTESIAN_POINT('',(-52.7274095274,-95.00561916228));
#597 = CARTESIAN_POINT('',(50.,-83.07715377855));
#598 = CARTESIAN_POINT('',(50.,-1.674736031154E-14));
#599 = ( GEOMETRIC_REPRESENTATION_CONTEXT(2) 
PARAMETRIC_REPRESENTATION_CONTEXT() REPRESENTATION_CONTEXT('2D SPACE',''
  ) );
#600 = ORIENTED_EDGE('',*,*,#529,.F.);
#601 = ORIENTED_EDGE('',*,*,#348,.T.);
#602 = ADVANCED_FACE('',(#603),#585,.T.);
#603 = FACE_BOUND('',#604,.T.);
#604 = EDGE_LOOP('',(#605));
#605 = ORIENTED_EDGE('',*,*,#568,.T.);
#606 = ( GEOMETRIC_REPRESENTATION_CONTEXT(3) 
GLOBAL_UNCERTAINTY_ASSIGNED_CONTEXT((#610)) GLOBAL_UNIT_ASSIGNED_CONTEXT
((#607,#608,#609)) REPRESENTATION_CONTEXT('Context #1',
  '3D Context with UNIT and UNCERTAINTY') );
#607 = ( LENGTH_UNIT() NAMED_UNIT(*) SI_UNIT(.MILLI.,.METRE.) );
#608 = ( NAMED_UNIT(*) PLANE_ANGLE_UNIT() SI_UNIT($,.RADIAN.) );
#609 = ( NAMED_UNIT(*) SI_UNIT($,.STERADIAN.) SOLID_ANGLE_UNIT() );
#610 = UNCERTAINTY_MEASURE_WITH_UNIT(LENGTH_MEASURE(2.E-05),#607,
  'distance_accuracy_value','confusion accuracy');
#611 = PRODUCT_RELATED_PRODUCT_CATEGORY('part',$,(#7));
ENDSEC;
END-ISO-10303-21;
