ISO-10303-21;
HEADER;
FILE_DESCRIPTION(('Open CASCADE Model'),'2;1');
FILE_NAME('Open CASCADE Shape Model','2026-07-11T20:15:47',('Author'),(
    'Open CASCADE'),'Open CASCADE STEP processor 8.0','Open CASCADE 8.0'
  ,'Unknown');
FILE_SCHEMA(('AUTOMOTIVE_DESIGN { 1 0 10303 214 1 1 1 1 }'));
ENDSEC;
DATA;
#1 = APPLICATION_PROTOCOL_DEFINITION('international standard',
  'automotive_design',2000,#2);
#2 = APPLICATION_CONTEXT(
  'core data for automotive mechanical design processes');
#3 = SHAPE_DEFINITION_REPRESENTATION(#4,#10);
#4 = PRODUCT_DEFINITION_SHAPE('','',#5);
#5 = PRODUCT_DEFINITION('design','',#6,#9);
#6 = PRODUCT_DEFINITION_FORMATION('','',#7);
#7 = PRODUCT('Open CASCADE STEP translator 8.0 1',
  'Open CASCADE STEP translator 8.0 1','',(#8));
#8 = PRODUCT_CONTEXT('',#2,'mechanical');
#9 = PRODUCT_DEFINITION_CONTEXT('part definition',#2,'design');
#10 = ADVANCED_BREP_SHAPE_REPRESENTATION('',(#11,#15),#696);
#11 = AXIS2_PLACEMENT_3D('',#12,#13,#14);
#12 = CARTESIAN_POINT('',(0.,0.,0.));
#13 = DIRECTION('',(0.,0.,1.));
#14 = DIRECTION('',(1.,0.,-0.));
#15 = MANIFOLD_SOLID_BREP('',#16);
#16 = CLOSED_SHELL('',(#17,#602,#684,#688,#692));
#17 = ADVANCED_FACE('',(#18),#32,.T.);
#18 = FACE_BOUND('',#19,.T.);
#19 = EDGE_LOOP('',(#20,#48,#74,#75));
#20 = ORIENTED_EDGE('',*,*,#21,.T.);
#21 = EDGE_CURVE('',#22,#24,#26,.T.);
#22 = VERTEX_POINT('',#23);
#23 = CARTESIAN_POINT('',(80.,50.,12.735091160628));
#24 = VERTEX_POINT('',#25);
#25 = CARTESIAN_POINT('',(80.,50.,100.));
#26 = SEAM_CURVE('',#27,(#31,#42),.PCURVE_S1.);
#27 = LINE('',#28,#29);
#28 = CARTESIAN_POINT('',(80.,50.,0.));
#29 = VECTOR('',#30,1.);
#30 = DIRECTION('',(0.,0.,1.));
#31 = PCURVE('',#32,#37);
#32 = CYLINDRICAL_SURFACE('',#33,30.);
#33 = AXIS2_PLACEMENT_3D('',#34,#35,#36);
#34 = CARTESIAN_POINT('',(50.,50.,0.));
#35 = DIRECTION('',(0.,0.,1.));
#36 = DIRECTION('',(1.,0.,0.));
#37 = DEFINITIONAL_REPRESENTATION('',(#38),#41);
#38 = B_SPLINE_CURVE_WITH_KNOTS('',1,(#39,#40),.UNSPECIFIED.,.F.,.F.,(2,
    2),(0.,100.),.PIECEWISE_BEZIER_KNOTS.);
#39 = CARTESIAN_POINT('',(6.28318530718,0.));
#40 = CARTESIAN_POINT('',(6.28318530718,100.));
#41 = ( GEOMETRIC_REPRESENTATION_CONTEXT(2) 
PARAMETRIC_REPRESENTATION_CONTEXT() REPRESENTATION_CONTEXT('2D SPACE',''
  ) );
#42 = PCURVE('',#32,#43);
#43 = DEFINITIONAL_REPRESENTATION('',(#44),#47);
#44 = B_SPLINE_CURVE_WITH_KNOTS('',1,(#45,#46),.UNSPECIFIED.,.F.,.F.,(2,
    2),(0.,100.),.PIECEWISE_BEZIER_KNOTS.);
#45 = CARTESIAN_POINT('',(0.,0.));
#46 = CARTESIAN_POINT('',(0.,100.));
#47 = ( GEOMETRIC_REPRESENTATION_CONTEXT(2) 
PARAMETRIC_REPRESENTATION_CONTEXT() REPRESENTATION_CONTEXT('2D SPACE',''
  ) );
#48 = ORIENTED_EDGE('',*,*,#49,.F.);
#49 = EDGE_CURVE('',#24,#24,#50,.T.);
#50 = SURFACE_CURVE('',#51,(#56,#62),.PCURVE_S1.);
#51 = CIRCLE('',#52,30.);
#52 = AXIS2_PLACEMENT_3D('',#53,#54,#55);
#53 = CARTESIAN_POINT('',(50.,50.,100.));
#54 = DIRECTION('',(0.,0.,1.));
#55 = DIRECTION('',(1.,0.,-0.));
#56 = PCURVE('',#32,#57);
#57 = DEFINITIONAL_REPRESENTATION('',(#58),#61);
#58 = B_SPLINE_CURVE_WITH_KNOTS('',1,(#59,#60),.UNSPECIFIED.,.F.,.F.,(2,
    2),(0.,6.28318530718),.PIECEWISE_BEZIER_KNOTS.);
#59 = CARTESIAN_POINT('',(0.,100.));
#60 = CARTESIAN_POINT('',(6.28318530718,100.));
#61 = ( GEOMETRIC_REPRESENTATION_CONTEXT(2) 
PARAMETRIC_REPRESENTATION_CONTEXT() REPRESENTATION_CONTEXT('2D SPACE',''
  ) );
#62 = PCURVE('',#63,#68);
#63 = PLANE('',#64);
#64 = AXIS2_PLACEMENT_3D('',#65,#66,#67);
#65 = CARTESIAN_POINT('',(50.,50.,100.));
#66 = DIRECTION('',(0.,0.,1.));
#67 = DIRECTION('',(1.,0.,0.));
#68 = DEFINITIONAL_REPRESENTATION('',(#69),#73);
#69 = CIRCLE('',#70,30.);
#70 = AXIS2_PLACEMENT_2D('',#71,#72);
#71 = CARTESIAN_POINT('',(0.,0.));
#72 = DIRECTION('',(1.,0.));
#73 = ( GEOMETRIC_REPRESENTATION_CONTEXT(2) 
PARAMETRIC_REPRESENTATION_CONTEXT() REPRESENTATION_CONTEXT('2D SPACE',''
  ) );
#74 = ORIENTED_EDGE('',*,*,#21,.F.);
#75 = ORIENTED_EDGE('',*,*,#76,.T.);
#76 = EDGE_CURVE('',#22,#22,#77,.T.);
#77 = SURFACE_CURVE('',#78,(#249,#423),.PCURVE_S1.);
#78 = B_SPLINE_CURVE_WITH_KNOTS('',7,(#79,#80,#81,#82,#83,#84,#85,#86,
    #87,#88,#89,#90,#91,#92,#93,#94,#95,#96,#97,#98,#99,#100,#101,#102,
    #103,#104,#105,#106,#107,#108,#109,#110,#111,#112,#113,#114,#115,
    #116,#117,#118,#119,#120,#121,#122,#123,#124,#125,#126,#127,#128,
    #129,#130,#131,#132,#133,#134,#135,#136,#137,#138,#139,#140,#141,
    #142,#143,#144,#145,#146,#147,#148,#149,#150,#151,#152,#153,#154,
    #155,#156,#157,#158,#159,#160,#161,#162,#163,#164,#165,#166,#167,
    #168,#169,#170,#171,#172,#173,#174,#175,#176,#177,#178,#179,#180,
    #181,#182,#183,#184,#185,#186,#187,#188,#189,#190,#191,#192,#193,
    #194,#195,#196,#197,#198,#199,#200,#201,#202,#203,#204,#205,#206,
    #207,#208,#209,#210,#211,#212,#213,#214,#215,#216,#217,#218,#219,
    #220,#221,#222,#223,#224,#225,#226,#227,#228,#229,#230,#231,#232,
    #233,#234,#235,#236,#237,#238,#239,#240,#241,#242,#243,#244,#245,
    #246,#247,#248),.UNSPECIFIED.,.T.,.F.,(8,6,6,6,6,6,6,6,6,6,6,6,6,6,6
    ,6,6,6,6,6,6,6,6,6,6,6,6,6,8),(0.,2.149511507899E-02,
    6.150625125861E-02,0.107207954782,0.161224122634,0.183733508611,
    0.202842758326,0.213346448874,0.235087949213,0.25682944941,
    0.26733314055,0.286672878344,0.309106787513,0.363005693351,
    0.408851225756,0.448922804954,0.484634359794,0.504568145852,
    0.579167607689,0.663555189894,0.689101401736,0.707136571732,
    0.735152674783,0.753166433591,0.781112644404,0.806553494948,
    0.891088448921,0.961679948237,1.),.UNSPECIFIED.);
#79 = CARTESIAN_POINT('',(80.,50.,12.735091160628));
#80 = CARTESIAN_POINT('',(80.,50.52671854071,12.642216470661));
#81 = CARTESIAN_POINT('',(79.989210654827,51.056673809585,
    12.561193260444));
#82 = CARTESIAN_POINT('',(79.967394459256,51.589377208502,
    12.492383032066));
#83 = CARTESIAN_POINT('',(79.934344726092,52.124355554124,
    12.436040593002));
#84 = CARTESIAN_POINT('',(79.889885226894,52.661141325928,12.39231462828
    ));
#85 = CARTESIAN_POINT('',(79.833869832701,53.199262914232,
    12.361248272654));
#86 = CARTESIAN_POINT('',(79.640187904896,54.741480497226,
    12.308402138738));
#87 = CARTESIAN_POINT('',(79.473953620466,55.746072126448,
    12.317728555032));
#88 = CARTESIAN_POINT('',(79.266856867747,56.749735348842,
    12.370085732921));
#89 = CARTESIAN_POINT('',(79.018491906389,57.749920041244,
    12.463785647028));
#90 = CARTESIAN_POINT('',(78.728758899878,58.743695637247,
    12.596149734043));
#91 = CARTESIAN_POINT('',(78.398081258217,59.727666132289,
    12.763602847178));
#92 = CARTESIAN_POINT('',(77.604750915194,61.806135307015,
    13.188264658521));
#93 = CARTESIAN_POINT('',(77.129721649156,62.897225353922,
    13.455009339019));
#94 = CARTESIAN_POINT('',(76.60268076281,63.969947922719,13.756700845358
    ));
#95 = CARTESIAN_POINT('',(76.023461223862,65.022682716187,
    14.087884146247));
#96 = CARTESIAN_POINT('',(75.391822196693,66.053457041388,
    14.443149095723));
#97 = CARTESIAN_POINT('',(74.707498047014,67.0599819988,14.817202228406)
  );
#98 = CARTESIAN_POINT('',(73.098734812901,69.197622183159,
    15.663088697016));
#99 = CARTESIAN_POINT('',(72.152628042228,70.318930800574,
    16.140664289905));
#100 = CARTESIAN_POINT('',(71.129705416876,71.40121157144,16.62990103183
    ));
#101 = CARTESIAN_POINT('',(70.027164017083,72.44084179728,
    17.123400204801));
#102 = CARTESIAN_POINT('',(68.841828927834,73.432707639301,
    17.613592282447));
#103 = CARTESIAN_POINT('',(67.570457108735,74.369915888528,
    18.092343556556));
#104 = CARTESIAN_POINT('',(65.643181199758,75.607513880944,
    18.741630285619));
#105 = CARTESIAN_POINT('',(65.060763952923,75.960535623872,
    18.929084932651));
#106 = CARTESIAN_POINT('',(64.462753622302,76.301795388672,
    19.112306747464));
#107 = CARTESIAN_POINT('',(63.849110776606,76.630496715995,
    19.290571246165));
#108 = CARTESIAN_POINT('',(63.2198255105,76.945800238686,19.463135584896
    ));
#109 = CARTESIAN_POINT('',(62.574917610197,77.246823166451,
    19.629239756905));
#110 = CARTESIAN_POINT('',(61.353724210315,77.775280740238,
    19.922978146041));
#111 = CARTESIAN_POINT('',(60.781731311181,78.00698706894,20.0526469931)
  );
#112 = CARTESIAN_POINT('',(60.198776356793,78.227059998896,
    20.176567206825));
#113 = CARTESIAN_POINT('',(59.605202485329,78.434822787984,
    20.294205381829));
#114 = CARTESIAN_POINT('',(59.00137766454,78.629618598537,
    20.405044185591));
#115 = CARTESIAN_POINT('',(58.387694718284,78.810809386179,
    20.508584712724));
#116 = CARTESIAN_POINT('',(57.422062091923,79.069549868598,
    20.656987051913));
#117 = CARTESIAN_POINT('',(57.076739954173,79.157016420346,
    20.707269787196));
#118 = CARTESIAN_POINT('',(56.72873435375,79.240057543954,
    20.755109373683));
#119 = CARTESIAN_POINT('',(56.378176893312,79.318563153211,
    20.800423218636));
#120 = CARTESIAN_POINT('',(56.025201364259,79.392429975661,
    20.843133807986));
#121 = CARTESIAN_POINT('',(55.669943746727,79.4615615526,20.883168706332
    ));
#122 = CARTESIAN_POINT('',(54.572759786847,79.658976106216,
    20.997650643515));
#123 = CARTESIAN_POINT('',(53.823561312457,79.771453169589,
    21.06311292568));
#124 = CARTESIAN_POINT('',(53.066736919369,79.862377573553,
    21.116177450867));
#125 = CARTESIAN_POINT('',(52.304112006815,79.931053435522,
    21.156332544749));
#126 = CARTESIAN_POINT('',(51.537536900361,79.977009867897,
    21.183228842149));
#127 = CARTESIAN_POINT('',(50.76887651196,80.,21.196683317938));
#128 = CARTESIAN_POINT('',(49.231123493098,80.,21.196683317938));
#129 = CARTESIAN_POINT('',(48.462463094661,79.977009867391,
    21.183228841856));
#130 = CARTESIAN_POINT('',(47.695887989117,79.931053435487,
    21.156332544729));
#131 = CARTESIAN_POINT('',(46.933263084533,79.862377574221,
    21.116177451254));
#132 = CARTESIAN_POINT('',(46.176438692547,79.771453169963,
    21.063112925897));
#133 = CARTESIAN_POINT('',(45.427240208309,79.658976105344,
    20.99765064301));
#134 = CARTESIAN_POINT('',(44.330056233103,79.461561548971,
    20.883168704227));
#135 = CARTESIAN_POINT('',(43.974798633107,79.392429975941,
    20.843133808134));
#136 = CARTESIAN_POINT('',(43.621823122299,79.318563157038,
    20.800423220836));
#137 = CARTESIAN_POINT('',(43.271265662226,79.240057547169,
    20.755109375541));
#138 = CARTESIAN_POINT('',(42.923260044103,79.157016419095,
    20.707269786489));
#139 = CARTESIAN_POINT('',(42.577937888816,79.069549863437,
    20.656987048953));
#140 = CARTESIAN_POINT('',(41.604789489507,78.808795535727,
    20.507429655289));
#141 = CARTESIAN_POINT('',(40.983825095255,78.625247073173,
    20.402546155686));
#142 = CARTESIAN_POINT('',(40.372965865237,78.427772298974,
    20.290193855068));
#143 = CARTESIAN_POINT('',(39.772616118833,78.21703225261,
    20.170889836546));
#144 = CARTESIAN_POINT('',(39.183154126243,77.993707290247,
    20.045170263008));
#145 = CARTESIAN_POINT('',(38.604932141005,77.758498259906,
    19.913587888434));
#146 = CARTESIAN_POINT('',(37.380961280165,77.226340178054,
    19.617932040071));
#147 = CARTESIAN_POINT('',(36.739125656228,76.925497733404,
    19.452008189589));
#148 = CARTESIAN_POINT('',(36.11281394845,76.610515385344,
    19.279705188706));
#149 = CARTESIAN_POINT('',(35.502041296171,76.282264333306,
    19.101774114519));
#150 = CARTESIAN_POINT('',(34.906793775022,75.941572435244,
    18.918948823909));
#151 = CARTESIAN_POINT('',(34.327028581631,75.589224709405,
    18.731944827189));
#152 = CARTESIAN_POINT('',(32.406776659055,74.353206285993,
    18.083801728944));
#153 = CARTESIAN_POINT('',(31.139463435139,73.41721501511,17.60591622677
    ));
#154 = CARTESIAN_POINT('',(29.95777344261,72.426888760292,
    17.116738728081));
#155 = CARTESIAN_POINT('',(28.858484341077,71.389058239361,
    16.624343891509));
#156 = CARTESIAN_POINT('',(27.838444639966,70.308792784823,
    16.136250197766));
#157 = CARTESIAN_POINT('',(26.894873496237,69.189685991955,
    15.659809410226));
#158 = CARTESIAN_POINT('',(25.286262336695,67.051215073091,
    14.813851791093));
#159 = CARTESIAN_POINT('',(24.600205339479,66.041314238871,
    14.438750367887));
#160 = CARTESIAN_POINT('',(23.967159992061,65.007021040914,
    14.08259093639));
#161 = CARTESIAN_POINT('',(23.386863747511,63.950650928061,
    13.750721191121));
#162 = CARTESIAN_POINT('',(22.859076614609,62.874199029795,
    13.448605662441));
#163 = CARTESIAN_POINT('',(22.383631685761,61.779302774022,
    13.18175190631));
#164 = CARTESIAN_POINT('',(21.590749631951,59.695158988056,
    12.757888876869));
#165 = CARTESIAN_POINT('',(21.26073224711,58.709389197507,
    12.591159987448));
#166 = CARTESIAN_POINT('',(20.971793640001,57.713845637092,
    12.459714724175));
#167 = CARTESIAN_POINT('',(20.724354914616,56.711947808747,
    12.367133655262));
#168 = CARTESIAN_POINT('',(20.518309995519,55.706646629413,
    12.316089320633));
#169 = CARTESIAN_POINT('',(20.353244468895,54.700511669656,
    12.308251956555));
#170 = CARTESIAN_POINT('',(20.117374012377,52.800479583801,12.3763613994
    ));
#171 = CARTESIAN_POINT('',(20.038498847929,51.90814563337,
    12.443218242329));
#172 = CARTESIAN_POINT('',(19.991238436082,51.020673338927,
    12.545026276834));
#173 = CARTESIAN_POINT('',(19.974776630452,50.139826862346,
    12.681267842467));
#174 = CARTESIAN_POINT('',(19.988166808813,49.267396950137,
    12.850692555962));
#175 = CARTESIAN_POINT('',(20.03028923046,48.405307272901,
    13.051322412317));
#176 = CARTESIAN_POINT('',(20.138506999605,47.081502346715,
    13.408404465447));
#177 = CARTESIAN_POINT('',(20.185808228504,46.61093514155,
    13.545277003818));
#178 = CARTESIAN_POINT('',(20.241441941874,46.144084774879,
    13.690744470291));
#179 = CARTESIAN_POINT('',(20.305214714136,45.681024732385,
    13.844420598741));
#180 = CARTESIAN_POINT('',(20.376937349936,45.221844070257,
    14.005895270185));
#181 = CARTESIAN_POINT('',(20.456420560593,44.766647961527,
    14.174736534673));
#182 = CARTESIAN_POINT('',(20.869243632099,42.627416803109,
    15.008235739564));
#183 = CARTESIAN_POINT('',(21.300583963108,40.998901321058,
    15.761998738733));
#184 = CARTESIAN_POINT('',(21.828853466241,39.425840470335,
    16.591683884505));
#185 = CARTESIAN_POINT('',(22.449361834813,37.904966759736,
    17.478820282229));
#186 = CARTESIAN_POINT('',(23.160099442036,36.433424124167,
    18.408413780863));
#187 = CARTESIAN_POINT('',(23.962137937977,35.008790085321,19.368418921)
  );
#188 = CARTESIAN_POINT('',(25.875359449724,32.070548794853,
    21.456330447339));
#189 = CARTESIAN_POINT('',(27.007805149005,30.578228996359,
    22.583744512439));
#190 = CARTESIAN_POINT('',(28.267064231052,29.1415570839,23.72078079697)
  );
#191 = CARTESIAN_POINT('',(29.669793633822,27.757532752938,
    24.858744645011));
#192 = CARTESIAN_POINT('',(31.235850413672,26.433440254867,
    25.982389269847));
#193 = CARTESIAN_POINT('',(32.986301880539,25.187978137354,
    27.066533477766));
#194 = CARTESIAN_POINT('',(35.531294412502,23.710759807531,
    28.377267993879));
#195 = CARTESIAN_POINT('',(36.142300133992,23.377132188948,
    28.675215527754));
#196 = CARTESIAN_POINT('',(36.773711344528,23.054026929554,
    28.965501152394));
#197 = CARTESIAN_POINT('',(37.42629685432,22.742500653122,29.24693320843
    ));
#198 = CARTESIAN_POINT('',(38.100778456321,22.443796248538,
    29.518144245797));
#199 = CARTESIAN_POINT('',(38.79781552636,22.159349224138,
    29.777583513192));
#200 = CARTESIAN_POINT('',(40.026419692821,21.70119890676,30.19712877158
    ));
#201 = CARTESIAN_POINT('',(40.546525731263,21.519470665862,
    30.364062276182));
#202 = CARTESIAN_POINT('',(41.078186702823,21.346318843684,
    30.523575093177));
#203 = CARTESIAN_POINT('',(41.621260489291,21.182455916474,
    30.674925780958));
#204 = CARTESIAN_POINT('',(42.175583899193,21.028598558882,
    30.817367655496));
#205 = CARTESIAN_POINT('',(42.740972676979,20.885468870454,
    30.950150121364));
#206 = CARTESIAN_POINT('',(44.212375079081,20.549252375968,
    31.262611208358));
#207 = CARTESIAN_POINT('',(45.136034829436,20.371828970822,
    31.428064352512));
#208 = CARTESIAN_POINT('',(46.08304197515,20.225573714018,
    31.564838118801));
#209 = CARTESIAN_POINT('',(47.04819556851,20.113568740877,
    31.669786370632));
#210 = CARTESIAN_POINT('',(48.026256201544,20.037964918937,
    31.740694986846));
#211 = CARTESIAN_POINT('',(49.011953869719,20.,31.776302160446));
#212 = CARTESIAN_POINT('',(50.635292661841,20.,31.776302160446));
#213 = CARTESIAN_POINT('',(51.270284319613,20.015695589657,
    31.761581541969));
#214 = CARTESIAN_POINT('',(51.903308455682,20.047059366539,
    31.732165132399));
#215 = CARTESIAN_POINT('',(52.532701299597,20.093870100713,
    31.688278727476));
#216 = CARTESIAN_POINT('',(53.156801603098,20.155711100267,
    31.630347443847));
#217 = CARTESIAN_POINT('',(53.773950415134,20.231968576832,
    31.55899407162));
#218 = CARTESIAN_POINT('',(55.326569194693,20.461239371095,
    31.344788647807));
#219 = CARTESIAN_POINT('',(56.248439030621,20.633170275381,
    31.184411884556));
#220 = CARTESIAN_POINT('',(57.146448907688,20.835052899372,
    30.996525774063));
#221 = CARTESIAN_POINT('',(58.019073864887,21.064214090215,
    30.783899325276));
#222 = CARTESIAN_POINT('',(58.86490680544,21.317860343068,
    30.549437987728));
#223 = CARTESIAN_POINT('',(59.682649865057,21.593060777346,
    30.296169720075));
#224 = CARTESIAN_POINT('',(61.18887711712,22.154072176901,
    29.782402579487));
#225 = CARTESIAN_POINT('',(61.883681619741,22.437205817728,
    29.524142209297));
#226 = CARTESIAN_POINT('',(62.556092281947,22.734513023732,
    29.254173732523));
#227 = CARTESIAN_POINT('',(63.206758902033,23.044571608043,
    28.974033177182));
#228 = CARTESIAN_POINT('',(63.836392952104,23.366148946682,
    28.685076157172));
#229 = CARTESIAN_POINT('',(64.44575244749,23.698195716592,
    28.388485214607));
#230 = CARTESIAN_POINT('',(66.995663589224,25.175055327643,
    27.077776303805));
#231 = CARTESIAN_POINT('',(68.751482636332,26.422557794041,
    25.991604526823));
#232 = CARTESIAN_POINT('',(70.321939558046,27.749135244611,
    24.865610896795));
#233 = CARTESIAN_POINT('',(71.728256322719,29.135907734207,
    23.725190590045));
#234 = CARTESIAN_POINT('',(72.990442819551,30.575519976012,
    22.585698730695));
#235 = CARTESIAN_POINT('',(74.125288002265,32.071004605855,
    21.455860397877));
#236 = CARTESIAN_POINT('',(75.992347736467,34.939342137713,
    19.41789095268));
#237 = CARTESIAN_POINT('',(76.75600132741,36.285440686327,
    18.508402900168));
#238 = CARTESIAN_POINT('',(77.437687367768,37.673463380979,
    17.625684684894));
#239 = CARTESIAN_POINT('',(78.038489764515,39.105537371131,
    16.779801002507));
#240 = CARTESIAN_POINT('',(78.556969954979,40.584091875338,
    15.983205536091));
#241 = CARTESIAN_POINT('',(78.989490917935,42.111859337216,
    15.251108478008));
#242 = CARTESIAN_POINT('',(79.513898924872,44.550241708462,
    14.246950153258));
#243 = CARTESIAN_POINT('',(79.671295822254,45.424539977878,
    13.917237568551));
#244 = CARTESIAN_POINT('',(79.799973640083,46.313750302394,
    13.614732539837));
#245 = CARTESIAN_POINT('',(79.898539411373,47.216713977713,
    13.342679972677));
#246 = CARTESIAN_POINT('',(79.965671907385,48.132520670803,
    13.103902964407));
#247 = CARTESIAN_POINT('',(80.,49.060464330448,12.900756648508));
#248 = CARTESIAN_POINT('',(80.,50.,12.735091160628));
#249 = PCURVE('',#32,#250);
#250 = DEFINITIONAL_REPRESENTATION('',(#251),#422);
#251 = B_SPLINE_CURVE_WITH_KNOTS('',7,(#252,#253,#254,#255,#256,#257,
    #258,#259,#260,#261,#262,#263,#264,#265,#266,#267,#268,#269,#270,
    #271,#272,#273,#274,#275,#276,#277,#278,#279,#280,#281,#282,#283,
    #284,#285,#286,#287,#288,#289,#290,#291,#292,#293,#294,#295,#296,
    #297,#298,#299,#300,#301,#302,#303,#304,#305,#306,#307,#308,#309,
    #310,#311,#312,#313,#314,#315,#316,#317,#318,#319,#320,#321,#322,
    #323,#324,#325,#326,#327,#328,#329,#330,#331,#332,#333,#334,#335,
    #336,#337,#338,#339,#340,#341,#342,#343,#344,#345,#346,#347,#348,
    #349,#350,#351,#352,#353,#354,#355,#356,#357,#358,#359,#360,#361,
    #362,#363,#364,#365,#366,#367,#368,#369,#370,#371,#372,#373,#374,
    #375,#376,#377,#378,#379,#380,#381,#382,#383,#384,#385,#386,#387,
    #388,#389,#390,#391,#392,#393,#394,#395,#396,#397,#398,#399,#400,
    #401,#402,#403,#404,#405,#406,#407,#408,#409,#410,#411,#412,#413,
    #414,#415,#416,#417,#418,#419,#420,#421),.UNSPECIFIED.,.F.,.F.,(8,6,
    6,6,6,6,6,6,6,6,6,6,6,6,6,6,6,6,6,6,6,6,6,6,6,6,6,6,8),(0.,
    2.149511507899E-02,6.150625125861E-02,0.107207954782,0.161224122634,
    0.183733508611,0.202842758326,0.213346448874,0.235087949213,
    0.25682944941,0.26733314055,0.286672878344,0.309106787513,
    0.363005693351,0.408851225756,0.448922804954,0.484634359794,
    0.504568145852,0.579167607689,0.663555189894,0.689101401736,
    0.707136571732,0.735152674783,0.753166433591,0.781112644404,
    0.806553494948,0.891088448921,0.961679948237,1.),.UNSPECIFIED.);
#252 = CARTESIAN_POINT('',(0.,12.735091160628));
#253 = CARTESIAN_POINT('',(1.755728469033E-02,12.642216470661));
#254 = CARTESIAN_POINT('',(3.522246029041E-02,12.561193260444));
#255 = CARTESIAN_POINT('',(5.298808064464E-02,12.492383032066));
#256 = CARTESIAN_POINT('',(7.084769941367E-02,12.436040593002));
#257 = CARTESIAN_POINT('',(8.879546482039E-02,12.39231462828));
#258 = CARTESIAN_POINT('',(0.106825714396,12.361248272654));
#259 = CARTESIAN_POINT('',(0.158636778878,12.308402138738));
#260 = CARTESIAN_POINT('',(0.192552627153,12.317728555032));
#261 = CARTESIAN_POINT('',(0.226670114365,12.370085732921));
#262 = CARTESIAN_POINT('',(0.260972420685,12.463785647028));
#263 = CARTESIAN_POINT('',(0.295432272516,12.596149734043));
#264 = CARTESIAN_POINT('',(0.330005631035,12.763602847178));
#265 = CARTESIAN_POINT('',(0.404163174619,13.188264658521));
#266 = CARTESIAN_POINT('',(0.443788318065,13.455009339019));
#267 = CARTESIAN_POINT('',(0.483560620103,13.756700845358));
#268 = CARTESIAN_POINT('',(0.523534675555,14.087884146247));
#269 = CARTESIAN_POINT('',(0.563759956524,14.443149095723));
#270 = CARTESIAN_POINT('',(0.604283945967,14.817202228406));
#271 = CARTESIAN_POINT('',(0.693463070961,15.663088697016));
#272 = CARTESIAN_POINT('',(0.742291378154,16.140664289905));
#273 = CARTESIAN_POINT('',(0.791803903077,16.62990103183));
#274 = CARTESIAN_POINT('',(0.842162785948,17.123400204801));
#275 = CARTESIAN_POINT('',(0.893529614379,17.613592282447));
#276 = CARTESIAN_POINT('',(0.94606973001,18.092343556556));
#277 = CARTESIAN_POINT('',(1.022417190276,18.741630285619));
#278 = CARTESIAN_POINT('',(1.045111352542,18.929084932651));
#279 = CARTESIAN_POINT('',(1.068049535091,19.112306747463));
#280 = CARTESIAN_POINT('',(1.09123874088,19.290571246165));
#281 = CARTESIAN_POINT('',(1.114686335593,19.463135584896));
#282 = CARTESIAN_POINT('',(1.138400266585,19.629239756905));
#283 = CARTESIAN_POINT('',(1.182754656662,19.922978146041));
#284 = CARTESIAN_POINT('',(1.203320349231,20.0526469931));
#285 = CARTESIAN_POINT('',(1.224081183985,20.176567206825));
#286 = CARTESIAN_POINT('',(1.245032717191,20.294205381829));
#287 = CARTESIAN_POINT('',(1.26617118415,20.405044185591));
#288 = CARTESIAN_POINT('',(1.287493446414,20.508584712724));
#289 = CARTESIAN_POINT('',(1.32081666165,20.656987051913));
#290 = CARTESIAN_POINT('',(1.332689774471,20.707269787196));
#291 = CARTESIAN_POINT('',(1.344613814904,20.755109373683));
#292 = CARTESIAN_POINT('',(1.356586398719,20.800423218636));
#293 = CARTESIAN_POINT('',(1.368605220018,20.843133807986));
#294 = CARTESIAN_POINT('',(1.380668051224,20.883168706332));
#295 = CARTESIAN_POINT('',(1.417828142538,20.997650643515));
#296 = CARTESIAN_POINT('',(1.443070670396,21.06311292568));
#297 = CARTESIAN_POINT('',(1.468461846002,21.116177450867));
#298 = CARTESIAN_POINT('',(1.493965096438,21.156332544749));
#299 = CARTESIAN_POINT('',(1.519545096677,21.183228842149));
#300 = CARTESIAN_POINT('',(1.54516710973,21.196683317938));
#301 = CARTESIAN_POINT('',(1.596425543692,21.196683317938));
#302 = CARTESIAN_POINT('',(1.62204755708,21.183228841856));
#303 = CARTESIAN_POINT('',(1.647627557288,21.156332544729));
#304 = CARTESIAN_POINT('',(1.673130807456,21.116177451254));
#305 = CARTESIAN_POINT('',(1.698521983026,21.063112925897));
#306 = CARTESIAN_POINT('',(1.723764511216,20.99765064301));
#307 = CARTESIAN_POINT('',(1.760924603048,20.883168704227));
#308 = CARTESIAN_POINT('',(1.772987433656,20.843133808134));
#309 = CARTESIAN_POINT('',(1.785006254334,20.800423220836));
#310 = CARTESIAN_POINT('',(1.796978838143,20.755109375541));
#311 = CARTESIAN_POINT('',(1.808902879184,20.707269786489));
#312 = CARTESIAN_POINT('',(1.820775992604,20.656987048953));
#313 = CARTESIAN_POINT('',(1.854358571198,20.507429655289));
#314 = CARTESIAN_POINT('',(1.875935618554,20.402546155686));
#315 = CARTESIAN_POINT('',(1.89732428293,20.290193855068));
#316 = CARTESIAN_POINT('',(1.918521390792,20.170889836546));
#317 = CARTESIAN_POINT('',(1.939523114127,20.045170263008));
#318 = CARTESIAN_POINT('',(1.960324915756,19.913587888434));
#319 = CARTESIAN_POINT('',(2.004813327384,19.617932040071));
#320 = CARTESIAN_POINT('',(2.028432061525,19.452008189589));
#321 = CARTESIAN_POINT('',(2.051786440842,19.279705188706));
#322 = CARTESIAN_POINT('',(2.074884425038,19.101774114519));
#323 = CARTESIAN_POINT('',(2.097733406286,18.918948823909));
#324 = CARTESIAN_POINT('',(2.120340425746,18.731944827189));
#325 = CARTESIAN_POINT('',(2.196462469488,18.083801728944));
#326 = CARTESIAN_POINT('',(2.248870499081,17.60591622677));
#327 = CARTESIAN_POINT('',(2.300112351189,17.116738728081));
#328 = CARTESIAN_POINT('',(2.350352293753,16.624343891509));
#329 = CARTESIAN_POINT('',(2.399750853905,16.136250197766));
#330 = CARTESIAN_POINT('',(2.448469065844,15.659809410226));
#331 = CARTESIAN_POINT('',(2.537667270444,14.813851791093));
#332 = CARTESIAN_POINT('',(2.578316361134,14.438750367887));
#333 = CARTESIAN_POINT('',(2.618665485918,14.08259093639));
#334 = CARTESIAN_POINT('',(2.658762299962,13.750721191121));
#335 = CARTESIAN_POINT('',(2.698656532589,13.448605662441));
#336 = CARTESIAN_POINT('',(2.738403163605,13.18175190631));
#337 = CARTESIAN_POINT('',(2.812732141593,12.757888876869));
#338 = CARTESIAN_POINT('',(2.847355241662,12.591159987448));
#339 = CARTESIAN_POINT('',(2.881864087811,12.459714724175));
#340 = CARTESIAN_POINT('',(2.916214191835,12.367133655262));
#341 = CARTESIAN_POINT('',(2.950377925133,12.316089320633));
#342 = CARTESIAN_POINT('',(2.984338104207,12.308251956555));
#343 = CARTESIAN_POINT('',(3.048158658189,12.3763613994));
#344 = CARTESIAN_POINT('',(3.078000438316,12.443218242329));
#345 = CARTESIAN_POINT('',(3.10759603355,12.545026276834));
#346 = CARTESIAN_POINT('',(3.136931679346,12.681267842467));
#347 = CARTESIAN_POINT('',(3.165989849721,12.850692555962));
#348 = CARTESIAN_POINT('',(3.194745024947,13.051322412317));
#349 = CARTESIAN_POINT('',(3.239019052549,13.408404465447));
#350 = CARTESIAN_POINT('',(3.254780942019,13.545277003818));
#351 = CARTESIAN_POINT('',(3.270448489328,13.690744470291));
#352 = CARTESIAN_POINT('',(3.286024889874,13.844420598741));
#353 = CARTESIAN_POINT('',(3.301512505564,14.005895270185));
#354 = CARTESIAN_POINT('',(3.316912853857,14.174736534673));
#355 = CARTESIAN_POINT('',(3.389536180669,15.008235739564));
#356 = CARTESIAN_POINT('',(3.445561029041,15.761998738733));
#357 = CARTESIAN_POINT('',(3.500690370315,16.591683884504));
#358 = CARTESIAN_POINT('',(3.555247629093,17.47882028223));
#359 = CARTESIAN_POINT('',(3.609549876362,18.408413780863));
#360 = CARTESIAN_POINT('',(3.663932948363,19.368418921));
#361 = CARTESIAN_POINT('',(3.780807422498,21.456330447339));
#362 = CARTESIAN_POINT('',(3.843090898791,22.583744512439));
#363 = CARTESIAN_POINT('',(3.906516511855,23.72078079697));
#364 = CARTESIAN_POINT('',(3.971874828511,24.85874464501));
#365 = CARTESIAN_POINT('',(4.039876124432,25.982389269847));
#366 = CARTESIAN_POINT('',(4.111180539203,27.066533477766));
#367 = CARTESIAN_POINT('',(4.209268713718,28.377267993879));
#368 = CARTESIAN_POINT('',(4.232466036017,28.675215527754));
#369 = CARTESIAN_POINT('',(4.256094927644,28.965501152394));
#370 = CARTESIAN_POINT('',(4.280182242817,29.24693320843));
#371 = CARTESIAN_POINT('',(4.304754313032,29.518144245797));
#372 = CARTESIAN_POINT('',(4.329837365842,29.777583513192));
#373 = CARTESIAN_POINT('',(4.373545614633,30.19712877158));
#374 = CARTESIAN_POINT('',(4.391906329797,30.364062276182));
#375 = CARTESIAN_POINT('',(4.410537716787,30.523575093177));
#376 = CARTESIAN_POINT('',(4.429438011044,30.674925780958));
#377 = CARTESIAN_POINT('',(4.448606113463,30.817367655496));
#378 = CARTESIAN_POINT('',(4.468041648075,30.950150121364));
#379 = CARTESIAN_POINT('',(4.518352532253,31.262611208358));
#380 = CARTESIAN_POINT('',(4.549685003812,31.428064352512));
#381 = CARTESIAN_POINT('',(4.581591560352,31.564838118801));
#382 = CARTESIAN_POINT('',(4.61393715265,31.669786370632));
#383 = CARTESIAN_POINT('',(4.646597518557,31.740694986846));
#384 = CARTESIAN_POINT('',(4.679454109375,31.776302160446));
#385 = CARTESIAN_POINT('',(4.733565402446,31.776302160446));
#386 = CARTESIAN_POINT('',(4.754731790209,31.761581541969));
#387 = CARTESIAN_POINT('',(4.775848106899,31.732165132399));
#388 = CARTESIAN_POINT('',(4.796874334716,31.688278727476));
#389 = CARTESIAN_POINT('',(4.81776971512,31.630347443847));
#390 = CARTESIAN_POINT('',(4.83849198912,31.55899407162));
#391 = CARTESIAN_POINT('',(4.890807168261,31.344788647807));
#392 = CARTESIAN_POINT('',(4.922043734243,31.184411884556));
#393 = CARTESIAN_POINT('',(4.952691879053,30.996525774063));
#394 = CARTESIAN_POINT('',(4.982732415596,30.783899325276));
#395 = CARTESIAN_POINT('',(5.01214078629,30.549437987728));
#396 = CARTESIAN_POINT('',(5.040886423232,30.296169720075));
#397 = CARTESIAN_POINT('',(5.094463515407,29.782402579487));
#398 = CARTESIAN_POINT('',(5.119461249626,29.524142209297));
#399 = CARTESIAN_POINT('',(5.143951515371,29.254173732523));
#400 = CARTESIAN_POINT('',(5.167960202024,28.974033177182));
#401 = CARTESIAN_POINT('',(5.191513294461,28.685076157172));
#402 = CARTESIAN_POINT('',(5.21463728352,28.388485214607));
#403 = CARTESIAN_POINT('',(5.312861296998,27.077776303805));
#404 = CARTESIAN_POINT('',(5.3843483544,25.991604526823));
#405 = CARTESIAN_POINT('',(5.452512533466,24.865610896795));
#406 = CARTESIAN_POINT('',(5.518018152788,23.725190590045));
#407 = CARTESIAN_POINT('',(5.581580232262,22.585698730696));
#408 = CARTESIAN_POINT('',(5.643995046241,21.455860397877));
#409 = CARTESIAN_POINT('',(5.75807724004,19.41789095268));
#410 = CARTESIAN_POINT('',(5.809568873766,18.508402900168));
#411 = CARTESIAN_POINT('',(5.860969780329,17.625684684894));
#412 = CARTESIAN_POINT('',(5.912570615471,16.779801002507));
#413 = CARTESIAN_POINT('',(5.96464335272,15.983205536091));
#414 = CARTESIAN_POINT('',(6.017461913384,15.251108478008));
#415 = CARTESIAN_POINT('',(6.100599766416,14.246950153258));
#416 = CARTESIAN_POINT('',(6.1301947048,13.917237568551));
#417 = CARTESIAN_POINT('',(6.160115203918,13.614732539837));
#418 = CARTESIAN_POINT('',(6.190358934463,13.342679972677));
#419 = CARTESIAN_POINT('',(6.220935996941,13.103902964407));
#420 = CARTESIAN_POINT('',(6.251867451528,12.900756648508));
#421 = CARTESIAN_POINT('',(6.28318530718,12.735091160628));
#422 = ( GEOMETRIC_REPRESENTATION_CONTEXT(2) 
PARAMETRIC_REPRESENTATION_CONTEXT() REPRESENTATION_CONTEXT('2D SPACE',''
  ) );
#423 = PCURVE('',#424,#429);
#424 = CYLINDRICAL_SURFACE('',#425,40.);
#425 = AXIS2_PLACEMENT_3D('',#426,#427,#428);
#426 = CARTESIAN_POINT('',(50.,140.,-30.));
#427 = DIRECTION('',(0.,-0.984807753012,0.173648177667));
#428 = DIRECTION('',(1.,0.,0.));
#429 = DEFINITIONAL_REPRESENTATION('',(#430),#601);
#430 = B_SPLINE_CURVE_WITH_KNOTS('',7,(#431,#432,#433,#434,#435,#436,
    #437,#438,#439,#440,#441,#442,#443,#444,#445,#446,#447,#448,#449,
    #450,#451,#452,#453,#454,#455,#456,#457,#458,#459,#460,#461,#462,
    #463,#464,#465,#466,#467,#468,#469,#470,#471,#472,#473,#474,#475,
    #476,#477,#478,#479,#480,#481,#482,#483,#484,#485,#486,#487,#488,
    #489,#490,#491,#492,#493,#494,#495,#496,#497,#498,#499,#500,#501,
    #502,#503,#504,#505,#506,#507,#508,#509,#510,#511,#512,#513,#514,
    #515,#516,#517,#518,#519,#520,#521,#522,#523,#524,#525,#526,#527,
    #528,#529,#530,#531,#532,#533,#534,#535,#536,#537,#538,#539,#540,
    #541,#542,#543,#544,#545,#546,#547,#548,#549,#550,#551,#552,#553,
    #554,#555,#556,#557,#558,#559,#560,#561,#562,#563,#564,#565,#566,
    #567,#568,#569,#570,#571,#572,#573,#574,#575,#576,#577,#578,#579,
    #580,#581,#582,#583,#584,#585,#586,#587,#588,#589,#590,#591,#592,
    #593,#594,#595,#596,#597,#598,#599,#600),.UNSPECIFIED.,.T.,.F.,(8,6,
    6,6,6,6,6,6,6,6,6,6,6,6,6,6,6,6,6,6,6,6,6,6,6,6,6,6,8),(0.,
    2.149511507899E-02,6.150625125861E-02,0.107207954782,0.161224122634,
    0.183733508611,0.202842758326,0.213346448874,0.235087949213,
    0.25682944941,0.26733314055,0.286672878344,0.309106787513,
    0.363005693351,0.408851225756,0.448922804954,0.484634359794,
    0.504568145852,0.579167607689,0.663555189894,0.689101401736,
    0.707136571732,0.735152674783,0.753166433591,0.781112644404,
    0.806553494948,0.891088448921,0.961679948237,1.),.UNSPECIFIED.);
#431 = CARTESIAN_POINT('',(0.722734247813,96.053568473572));
#432 = CARTESIAN_POINT('',(0.722734247813,95.518724450362));
#433 = CARTESIAN_POINT('',(0.723142036289,94.98275086002));
#434 = CARTESIAN_POINT('',(0.72396663003,94.446191651948));
#435 = CARTESIAN_POINT('',(0.725214605146,93.909557067617));
#436 = CARTESIAN_POINT('',(0.726890098666,93.373333343748));
#437 = CARTESIAN_POINT('',(0.728994810138,92.837992415481));
#438 = CARTESIAN_POINT('',(0.73624330406,91.310027948066));
#439 = CARTESIAN_POINT('',(0.742435669601,90.32231783819));
#440 = CARTESIAN_POINT('',(0.750096038581,89.342994243892));
#441 = CARTESIAN_POINT('',(0.759192552973,88.374275423702));
#442 = CARTESIAN_POINT('',(0.769670363037,87.418582294503));
#443 = CARTESIAN_POINT('',(0.781450366773,86.478638450191));
#444 = CARTESIAN_POINT('',(0.809248980569,84.505487642189));
#445 = CARTESIAN_POINT('',(0.82564247668,83.47729343243));
#446 = CARTESIAN_POINT('',(0.843515990126,82.473256110142));
#447 = CARTESIAN_POINT('',(0.862783893115,81.494024100341));
#448 = CARTESIAN_POINT('',(0.883368457692,80.540600664343));
#449 = CARTESIAN_POINT('',(0.905201652479,79.614320727525));
#450 = CARTESIAN_POINT('',(0.955440432076,77.656042744605));
#451 = CARTESIAN_POINT('',(0.984338893941,76.634699456058));
#452 = CARTESIAN_POINT('',(1.014878138701,75.653816030657));
#453 = CARTESIAN_POINT('',(1.047047058831,74.715675356051));
#454 = CARTESIAN_POINT('',(1.080857900918,73.82399914587));
#455 = CARTESIAN_POINT('',(1.116340771359,72.984163482148));
#456 = CARTESIAN_POINT('',(1.169044369913,71.87811484139));
#457 = CARTESIAN_POINT('',(1.184846960122,71.563007449825));
#458 = CARTESIAN_POINT('',(1.200949093672,71.25874832191));
#459 = CARTESIAN_POINT('',(1.217350185734,70.96599601168));
#460 = CARTESIAN_POINT('',(1.234049869624,70.685448140932));
#461 = CARTESIAN_POINT('',(1.251048099292,70.417842114607));
#462 = CARTESIAN_POINT('',(1.283029597589,69.948420134788));
#463 = CARTESIAN_POINT('',(1.297930868011,69.742750704852));
#464 = CARTESIAN_POINT('',(1.313041719964,69.547539696492));
#465 = CARTESIAN_POINT('',(1.328355040946,69.363360945724));
#466 = CARTESIAN_POINT('',(1.343863934558,69.190771477526));
#467 = CARTESIAN_POINT('',(1.359561705995,69.030313008933));
#468 = CARTESIAN_POINT('',(1.384170609535,68.80127317159));
#469 = CARTESIAN_POINT('',(1.392953464412,68.723866938649));
#470 = CARTESIAN_POINT('',(1.401787815555,68.650394653316));
#471 = CARTESIAN_POINT('',(1.4106710929,68.580950387263));
#472 = CARTESIAN_POINT('',(1.419600752934,68.515622383832));
#473 = CARTESIAN_POINT('',(1.428574278698,68.454493058026));
#474 = CARTESIAN_POINT('',(1.456249047386,68.279957254835));
#475 = CARTESIAN_POINT('',(1.475091989634,68.180556376793));
#476 = CARTESIAN_POINT('',(1.494081529136,68.100227876928));
#477 = CARTESIAN_POINT('',(1.51318192471,68.039568214494));
#478 = CARTESIAN_POINT('',(1.532357906984,67.998980456619));
#479 = CARTESIAN_POINT('',(1.551574413996,67.978675941483));
#480 = CARTESIAN_POINT('',(1.590018239467,67.978675941483));
#481 = CARTESIAN_POINT('',(1.609234746731,67.998980457066));
#482 = CARTESIAN_POINT('',(1.628410728982,68.039568214524));
#483 = CARTESIAN_POINT('',(1.647511124356,68.100227876338));
#484 = CARTESIAN_POINT('',(1.66650066383,68.180556376462));
#485 = CARTESIAN_POINT('',(1.685343606326,68.279957255605));
#486 = CARTESIAN_POINT('',(1.713018375401,68.454493061234));
#487 = CARTESIAN_POINT('',(1.72199190072,68.515622383582));
#488 = CARTESIAN_POINT('',(1.730921560293,68.580950383876));
#489 = CARTESIAN_POINT('',(1.739804837631,68.650394650472));
#490 = CARTESIAN_POINT('',(1.748639189224,68.723866939759));
#491 = CARTESIAN_POINT('',(1.757422044545,68.801273176159));
#492 = CARTESIAN_POINT('',(1.78222248566,69.032095690853));
#493 = CARTESIAN_POINT('',(1.798107235742,69.194642811256));
#494 = CARTESIAN_POINT('',(1.813798374915,69.369607727653));
#495 = CARTESIAN_POINT('',(1.829289025776,69.556429233778));
#496 = CARTESIAN_POINT('',(1.844572100121,69.754530413312));
#497 = CARTESIAN_POINT('',(1.859640284157,69.963317050412));
#498 = CARTESIAN_POINT('',(1.89170693832,70.436050355963));
#499 = CARTESIAN_POINT('',(1.908630733189,70.703509953622));
#500 = CARTESIAN_POINT('',(1.925257852556,70.983786909944));
#501 = CARTESIAN_POINT('',(1.941588323738,71.276153684143));
#502 = CARTESIAN_POINT('',(1.957621857763,71.579922428196));
#503 = CARTESIAN_POINT('',(1.973357949976,71.894444297112));
#504 = CARTESIAN_POINT('',(2.025886839675,72.999135955476));
#505 = CARTESIAN_POINT('',(2.061267377335,73.837923469209));
#506 = CARTESIAN_POINT('',(2.094983536091,74.728259661759));
#507 = CARTESIAN_POINT('',(2.1270650911,75.664819739022));
#508 = CARTESIAN_POINT('',(2.157524041087,76.643916953516));
#509 = CARTESIAN_POINT('',(2.186349172066,77.663288925057));
#510 = CARTESIAN_POINT('',(2.23658811936,79.622372666599));
#511 = CARTESIAN_POINT('',(2.258480325339,80.551795159332));
#512 = CARTESIAN_POINT('',(2.27911570777,81.50852868333));
#513 = CARTESIAN_POINT('',(2.298425350797,82.49122158403));
#514 = CARTESIAN_POINT('',(2.316330593803,83.498857948186));
#515 = CARTESIAN_POINT('',(2.332744859718,84.53078160116));
#516 = CARTESIAN_POINT('',(2.360538961301,86.509659517328));
#517 = CARTESIAN_POINT('',(2.372300249039,87.451501081933));
#518 = CARTESIAN_POINT('',(2.382753541094,88.409094868263));
#519 = CARTESIAN_POINT('',(2.39181956456,89.379695083439));
#520 = CARTESIAN_POINT('',(2.399443585904,90.360859723271));
#521 = CARTESIAN_POINT('',(2.405594132454,91.350348288226));
#522 = CARTESIAN_POINT('',(2.414423469722,93.23334169798));
#523 = CARTESIAN_POINT('',(2.417398514177,94.123728659579));
#524 = CARTESIAN_POINT('',(2.419189645503,95.015397035395));
#525 = CARTESIAN_POINT('',(2.4198141007,95.90651957434));
#526 = CARTESIAN_POINT('',(2.419304756364,96.795115608592));
#527 = CARTESIAN_POINT('',(2.417710463659,97.678947215469));
#528 = CARTESIAN_POINT('',(2.413637560536,99.044647218056));
#529 = CARTESIAN_POINT('',(2.411860118112,99.531833116877));
#530 = CARTESIAN_POINT('',(2.409774057821,100.01685113793));
#531 = CARTESIAN_POINT('',(2.407389447441,100.49956183754));
#532 = CARTESIAN_POINT('',(2.40471665196,100.97980629608));
#533 = CARTESIAN_POINT('',(2.401766354723,101.45740593099));
#534 = CARTESIAN_POINT('',(2.386511234835,103.7088729793));
#535 = CARTESIAN_POINT('',(2.370755885296,105.44353722312));
#536 = CARTESIAN_POINT('',(2.351804441401,107.13677305847));
#537 = CARTESIAN_POINT('',(2.330071043169,108.78859089883));
#538 = CARTESIAN_POINT('',(2.305842040281,110.39919971224));
#539 = CARTESIAN_POINT('',(2.279278320578,111.96889350203));
#540 = CARTESIAN_POINT('',(2.217784197156,115.22505833679));
#541 = CARTESIAN_POINT('',(2.182389879524,116.8904798422));
#542 = CARTESIAN_POINT('',(2.144172070231,118.50276975887));
#543 = CARTESIAN_POINT('',(2.102849920328,120.06337299882));
#544 = CARTESIAN_POINT('',(2.058088707916,121.56246839808));
#545 = CARTESIAN_POINT('',(2.009533682387,122.97726881352));
#546 = CARTESIAN_POINT('',(1.940855199937,124.65965153775));
#547 = CARTESIAN_POINT('',(1.924487536952,125.03994864945));
#548 = CARTESIAN_POINT('',(1.907694442903,125.40855278366));
#549 = CARTESIAN_POINT('',(1.890459290414,125.76421643962));
#550 = CARTESIAN_POINT('',(1.872765943971,126.10547815552));
#551 = CARTESIAN_POINT('',(1.85459873228,126.43065494647));
#552 = CARTESIAN_POINT('',(1.822771397303,126.95469820063));
#553 = CARTESIAN_POINT('',(1.809352860753,127.16265328008));
#554 = CARTESIAN_POINT('',(1.795689934124,127.36087364699));
#555 = CARTESIAN_POINT('',(1.78178565495,127.54852889926));
#556 = CARTESIAN_POINT('',(1.767642934011,127.72478358981));
#557 = CARTESIAN_POINT('',(1.753264514196,127.88879624989));
#558 = CARTESIAN_POINT('',(1.715955074736,128.2741631587));
#559 = CARTESIAN_POINT('',(1.692636252122,128.47762174062));
#560 = CARTESIAN_POINT('',(1.668818224932,128.64540556671));
#561 = CARTESIAN_POINT('',(1.644616044964,128.77393300531));
#562 = CARTESIAN_POINT('',(1.620139925499,128.8607013873));
#563 = CARTESIAN_POINT('',(1.595497480052,128.90427265462));
#564 = CARTESIAN_POINT('',(1.554914010249,128.90427265462));
#565 = CARTESIAN_POINT('',(1.539039220673,128.88625930767));
#566 = CARTESIAN_POINT('',(1.523207070608,128.85026391112));
#567 = CARTESIAN_POINT('',(1.507452645536,128.79654354294));
#568 = CARTESIAN_POINT('',(1.491811360927,128.72558238529));
#569 = CARTESIAN_POINT('',(1.476319319286,128.63809304809));
#570 = CARTESIAN_POINT('',(1.43726876286,128.37510901087));
#571 = CARTESIAN_POINT('',(1.414009940449,128.17794099066));
#572 = CARTESIAN_POINT('',(1.391262166879,127.94649933666));
#573 = CARTESIAN_POINT('',(1.369051749707,127.68389742388));
#574 = CARTESIAN_POINT('',(1.347406569851,127.39339084355));
#575 = CARTESIAN_POINT('',(1.326356314286,127.0783917491));
#576 = CARTESIAN_POINT('',(1.287340066653,126.43668864558));
#577 = CARTESIAN_POINT('',(1.269232943878,126.11300999831));
#578 = CARTESIAN_POINT('',(1.251596313203,125.77334002279));
#579 = CARTESIAN_POINT('',(1.234414718474,125.41934602815));
#580 = CARTESIAN_POINT('',(1.217672247329,125.05247731191));
#581 = CARTESIAN_POINT('',(1.201352503913,124.67397260185));
#582 = CARTESIAN_POINT('',(1.132559740577,122.99194759297));
#583 = CARTESIAN_POINT('',(1.083867083741,121.57478574246));
#584 = CARTESIAN_POINT('',(1.03898775516,120.07283524222));
#585 = CARTESIAN_POINT('',(0.997564394159,118.50909903479));
#586 = CARTESIAN_POINT('',(0.959259586992,116.89348705287));
#587 = CARTESIAN_POINT('',(0.923789836909,115.22452782734));
#588 = CARTESIAN_POINT('',(0.863775404748,112.04587710741));
#589 = CARTESIAN_POINT('',(0.838525428607,110.56229787749));
#590 = CARTESIAN_POINT('',(0.815364640083,109.04207995696));
#591 = CARTESIAN_POINT('',(0.794422781516,107.48487622862));
#592 = CARTESIAN_POINT('',(0.775931691962,105.89045693854));
#593 = CARTESIAN_POINT('',(0.76022607924,104.25877237727));
#594 = CARTESIAN_POINT('',(0.740945682284,101.68306425008));
#595 = CARTESIAN_POINT('',(0.735100935323,100.76479454642));
#596 = CARTESIAN_POINT('',(0.730282497012,99.836563877813));
#597 = CARTESIAN_POINT('',(0.726569109206,98.900076817154));
#598 = CARTESIAN_POINT('',(0.72403172309,97.956720093184));
#599 = CARTESIAN_POINT('',(0.722734247813,97.007597995251));
#600 = CARTESIAN_POINT('',(0.722734247813,96.053568473572));
#601 = ( GEOMETRIC_REPRESENTATION_CONTEXT(2) 
PARAMETRIC_REPRESENTATION_CONTEXT() REPRESENTATION_CONTEXT('2D SPACE',''
  ) );
#602 = ADVANCED_FACE('',(#603,#681),#424,.T.);
#603 = FACE_BOUND('',#604,.T.);
#604 = EDGE_LOOP('',(#605,#628,#654,#655));
#605 = ORIENTED_EDGE('',*,*,#606,.T.);
#606 = EDGE_CURVE('',#607,#609,#611,.T.);
#607 = VERTEX_POINT('',#608);
#608 = CARTESIAN_POINT('',(90.,140.,-30.));
#609 = VERTEX_POINT('',#610);
#610 = CARTESIAN_POINT('',(90.,-17.56924048195,-2.216291573291));
#611 = SEAM_CURVE('',#612,(#616,#622),.PCURVE_S1.);
#612 = LINE('',#613,#614);
#613 = CARTESIAN_POINT('',(90.,140.,-30.));
#614 = VECTOR('',#615,1.);
#615 = DIRECTION('',(0.,-0.984807753012,0.173648177667));
#616 = PCURVE('',#424,#617);
#617 = DEFINITIONAL_REPRESENTATION('',(#618),#621);
#618 = B_SPLINE_CURVE_WITH_KNOTS('',1,(#619,#620),.UNSPECIFIED.,.F.,.F.,
  (2,2),(0.,160.),.PIECEWISE_BEZIER_KNOTS.);
#619 = CARTESIAN_POINT('',(6.28318530718,0.));
#620 = CARTESIAN_POINT('',(6.28318530718,160.));
#621 = ( GEOMETRIC_REPRESENTATION_CONTEXT(2) 
PARAMETRIC_REPRESENTATION_CONTEXT() REPRESENTATION_CONTEXT('2D SPACE',''
  ) );
#622 = PCURVE('',#424,#623);
#623 = DEFINITIONAL_REPRESENTATION('',(#624),#627);
#624 = B_SPLINE_CURVE_WITH_KNOTS('',1,(#625,#626),.UNSPECIFIED.,.F.,.F.,
  (2,2),(0.,160.),.PIECEWISE_BEZIER_KNOTS.);
#625 = CARTESIAN_POINT('',(0.,0.));
#626 = CARTESIAN_POINT('',(0.,160.));
#627 = ( GEOMETRIC_REPRESENTATION_CONTEXT(2) 
PARAMETRIC_REPRESENTATION_CONTEXT() REPRESENTATION_CONTEXT('2D SPACE',''
  ) );
#628 = ORIENTED_EDGE('',*,*,#629,.F.);
#629 = EDGE_CURVE('',#609,#609,#630,.T.);
#630 = SURFACE_CURVE('',#631,(#636,#642),.PCURVE_S1.);
#631 = CIRCLE('',#632,40.);
#632 = AXIS2_PLACEMENT_3D('',#633,#634,#635);
#633 = CARTESIAN_POINT('',(50.,-17.56924048195,-2.216291573291));
#634 = DIRECTION('',(0.,-0.984807753012,0.173648177667));
#635 = DIRECTION('',(1.,0.,0.));
#636 = PCURVE('',#424,#637);
#637 = DEFINITIONAL_REPRESENTATION('',(#638),#641);
#638 = B_SPLINE_CURVE_WITH_KNOTS('',1,(#639,#640),.UNSPECIFIED.,.F.,.F.,
  (2,2),(0.,6.28318530718),.PIECEWISE_BEZIER_KNOTS.);
#639 = CARTESIAN_POINT('',(0.,160.));
#640 = CARTESIAN_POINT('',(6.28318530718,160.));
#641 = ( GEOMETRIC_REPRESENTATION_CONTEXT(2) 
PARAMETRIC_REPRESENTATION_CONTEXT() REPRESENTATION_CONTEXT('2D SPACE',''
  ) );
#642 = PCURVE('',#643,#648);
#643 = PLANE('',#644);
#644 = AXIS2_PLACEMENT_3D('',#645,#646,#647);
#645 = CARTESIAN_POINT('',(50.,-17.56924048195,-2.216291573291));
#646 = DIRECTION('',(0.,-0.984807753012,0.173648177667));
#647 = DIRECTION('',(1.,0.,0.));
#648 = DEFINITIONAL_REPRESENTATION('',(#649),#653);
#649 = CIRCLE('',#650,40.);
#650 = AXIS2_PLACEMENT_2D('',#651,#652);
#651 = CARTESIAN_POINT('',(0.,0.));
#652 = DIRECTION('',(1.,0.));
#653 = ( GEOMETRIC_REPRESENTATION_CONTEXT(2) 
PARAMETRIC_REPRESENTATION_CONTEXT() REPRESENTATION_CONTEXT('2D SPACE',''
  ) );
#654 = ORIENTED_EDGE('',*,*,#606,.F.);
#655 = ORIENTED_EDGE('',*,*,#656,.T.);
#656 = EDGE_CURVE('',#607,#607,#657,.T.);
#657 = SURFACE_CURVE('',#658,(#663,#669),.PCURVE_S1.);
#658 = CIRCLE('',#659,40.);
#659 = AXIS2_PLACEMENT_3D('',#660,#661,#662);
#660 = CARTESIAN_POINT('',(50.,140.,-30.));
#661 = DIRECTION('',(0.,-0.984807753012,0.173648177667));
#662 = DIRECTION('',(1.,0.,0.));
#663 = PCURVE('',#424,#664);
#664 = DEFINITIONAL_REPRESENTATION('',(#665),#668);
#665 = B_SPLINE_CURVE_WITH_KNOTS('',1,(#666,#667),.UNSPECIFIED.,.F.,.F.,
  (2,2),(0.,6.28318530718),.PIECEWISE_BEZIER_KNOTS.);
#666 = CARTESIAN_POINT('',(0.,0.));
#667 = CARTESIAN_POINT('',(6.28318530718,0.));
#668 = ( GEOMETRIC_REPRESENTATION_CONTEXT(2) 
PARAMETRIC_REPRESENTATION_CONTEXT() REPRESENTATION_CONTEXT('2D SPACE',''
  ) );
#669 = PCURVE('',#670,#675);
#670 = PLANE('',#671);
#671 = AXIS2_PLACEMENT_3D('',#672,#673,#674);
#672 = CARTESIAN_POINT('',(50.,140.,-30.));
#673 = DIRECTION('',(0.,-0.984807753012,0.173648177667));
#674 = DIRECTION('',(1.,0.,0.));
#675 = DEFINITIONAL_REPRESENTATION('',(#676),#680);
#676 = CIRCLE('',#677,40.);
#677 = AXIS2_PLACEMENT_2D('',#678,#679);
#678 = CARTESIAN_POINT('',(0.,0.));
#679 = DIRECTION('',(1.,0.));
#680 = ( GEOMETRIC_REPRESENTATION_CONTEXT(2) 
PARAMETRIC_REPRESENTATION_CONTEXT() REPRESENTATION_CONTEXT('2D SPACE',''
  ) );
#681 = FACE_BOUND('',#682,.T.);
#682 = EDGE_LOOP('',(#683));
#683 = ORIENTED_EDGE('',*,*,#76,.F.);
#684 = ADVANCED_FACE('',(#685),#63,.T.);
#685 = FACE_BOUND('',#686,.T.);
#686 = EDGE_LOOP('',(#687));
#687 = ORIENTED_EDGE('',*,*,#49,.T.);
#688 = ADVANCED_FACE('',(#689),#670,.F.);
#689 = FACE_BOUND('',#690,.T.);
#690 = EDGE_LOOP('',(#691));
#691 = ORIENTED_EDGE('',*,*,#656,.F.);
#692 = ADVANCED_FACE('',(#693),#643,.T.);
#693 = FACE_BOUND('',#694,.T.);
#694 = EDGE_LOOP('',(#695));
#695 = ORIENTED_EDGE('',*,*,#629,.T.);
#696 = ( GEOMETRIC_REPRESENTATION_CONTEXT(3) 
GLOBAL_UNCERTAINTY_ASSIGNED_CONTEXT((#700)) GLOBAL_UNIT_ASSIGNED_CONTEXT
((#697,#698,#699)) REPRESENTATION_CONTEXT('Context #1',
  '3D Context with UNIT and UNCERTAINTY') );
#697 = ( LENGTH_UNIT() NAMED_UNIT(*) SI_UNIT(.MILLI.,.METRE.) );
#698 = ( NAMED_UNIT(*) PLANE_ANGLE_UNIT() SI_UNIT($,.RADIAN.) );
#699 = ( NAMED_UNIT(*) SI_UNIT($,.STERADIAN.) SOLID_ANGLE_UNIT() );
#700 = UNCERTAINTY_MEASURE_WITH_UNIT(LENGTH_MEASURE(1.E-06),#697,
  'distance_accuracy_value','confusion accuracy');
#701 = PRODUCT_RELATED_PRODUCT_CATEGORY('part',$,(#7));
ENDSEC;
END-ISO-10303-21;
