ISO-10303-21;
HEADER;
FILE_DESCRIPTION(('Open CASCADE Model'),'2;1');
FILE_NAME('Open CASCADE Shape Model','2026-07-11T20:15:48',('Author'),(
    'Open CASCADE'),'Open CASCADE STEP processor 8.0','Open CASCADE 8.0'
  ,'Unknown');
FILE_SCHEMA(('AUTOMOTIVE_DESIGN { 1 0 10303 214 1 1 1 1 }'));
ENDSEC;
DATA;
#1 = APPLICATION_PROTOCOL_DEFINITION('international standard',
  'automotive_design',2000,#2);
#2 = APPLICATION_CONTEXT(
  'core data for automotive mechanical design processes');
#3 = SHAPE_DEFINITION_REPRESENTATION(#4,#10);
#4 = PRODUCT_DEFINITION_SHAPE('','',#5);
#5 = PRODUCT_DEFINITION('design','',#6,#9);
#6 = PRODUCT_DEFINITION_FORMATION('','',#7);
#7 = PRODUCT('Open CASCADE STEP translator 8.0 1',
  'Open CASCADE STEP translator 8.0 1','',(#8));
#8 = PRODUCT_CONTEXT('',#2,'mechanical');
#9 = PRODUCT_DEFINITION_CONTEXT('part definition',#2,'design');
#10 = ADVANCED_BREP_SHAPE_REPRESENTATION('',(#11,#15),#503);
#11 = AXIS2_PLACEMENT_3D('',#12,#13,#14);
#12 = CARTESIAN_POINT('',(0.,0.,0.));
#13 = DIRECTION('',(0.,0.,1.));
#14 = DIRECTION('',(1.,0.,-0.));
#15 = MANIFOLD_SOLID_BREP('',#16);
#16 = CLOSED_SHELL('',(#17,#227,#333,#434,#438,#491,#495,#499));
#17 = ADVANCED_FACE('',(#18),#32,.T.);
#18 = FACE_BOUND('',#19,.T.);
#19 = EDGE_LOOP('',(#20,#48,#74,#75,#116,#152,#193));
#20 = ORIENTED_EDGE('',*,*,#21,.T.);
#21 = EDGE_CURVE('',#22,#24,#26,.T.);
#22 = VERTEX_POINT('',#23);
#23 = CARTESIAN_POINT('',(30.,-1.077936775504E-14,75.));
#24 = VERTEX_POINT('',#25);
#25 = CARTESIAN_POINT('',(30.,-7.347880794884E-15,150.));
#26 = SEAM_CURVE('',#27,(#31,#42),.PCURVE_S1.);
#27 = LINE('',#28,#29);
#28 = CARTESIAN_POINT('',(30.,-7.347880794884E-15,0.));
#29 = VECTOR('',#30,1.);
#30 = DIRECTION('',(0.,0.,1.));
#31 = PCURVE('',#32,#37);
#32 = CYLINDRICAL_SURFACE('',#33,30.);
#33 = AXIS2_PLACEMENT_3D('',#34,#35,#36);
#34 = CARTESIAN_POINT('',(0.,0.,0.));
#35 = DIRECTION('',(0.,0.,1.));
#36 = DIRECTION('',(1.,0.,0.));
#37 = DEFINITIONAL_REPRESENTATION('',(#38),#41);
#38 = B_SPLINE_CURVE_WITH_KNOTS('',1,(#39,#40),.UNSPECIFIED.,.F.,.F.,(2,
    2),(0.,150.),.PIECEWISE_BEZIER_KNOTS.);
#39 = CARTESIAN_POINT('',(6.28318530718,0.));
#40 = CARTESIAN_POINT('',(6.28318530718,150.));
#41 = ( GEOMETRIC_REPRESENTATION_CONTEXT(2) 
PARAMETRIC_REPRESENTATION_CONTEXT() REPRESENTATION_CONTEXT('2D SPACE',''
  ) );
#42 = PCURVE('',#32,#43);
#43 = DEFINITIONAL_REPRESENTATION('',(#44),#47);
#44 = B_SPLINE_CURVE_WITH_KNOTS('',1,(#45,#46),.UNSPECIFIED.,.F.,.F.,(2,
    2),(0.,150.),.PIECEWISE_BEZIER_KNOTS.);
#45 = CARTESIAN_POINT('',(0.,0.));
#46 = CARTESIAN_POINT('',(0.,150.));
#47 = ( GEOMETRIC_REPRESENTATION_CONTEXT(2) 
PARAMETRIC_REPRESENTATION_CONTEXT() REPRESENTATION_CONTEXT('2D SPACE',''
  ) );
#48 = ORIENTED_EDGE('',*,*,#49,.F.);
#49 = EDGE_CURVE('',#24,#24,#50,.T.);
#50 = SURFACE_CURVE('',#51,(#56,#62),.PCURVE_S1.);
#51 = CIRCLE('',#52,30.);
#52 = AXIS2_PLACEMENT_3D('',#53,#54,#55);
#53 = CARTESIAN_POINT('',(0.,0.,150.));
#54 = DIRECTION('',(0.,0.,1.));
#55 = DIRECTION('',(1.,0.,-0.));
#56 = PCURVE('',#32,#57);
#57 = DEFINITIONAL_REPRESENTATION('',(#58),#61);
#58 = B_SPLINE_CURVE_WITH_KNOTS('',1,(#59,#60),.UNSPECIFIED.,.F.,.F.,(2,
    2),(0.,6.28318530718),.PIECEWISE_BEZIER_KNOTS.);
#59 = CARTESIAN_POINT('',(0.,150.));
#60 = CARTESIAN_POINT('',(6.28318530718,150.));
#61 = ( GEOMETRIC_REPRESENTATION_CONTEXT(2) 
PARAMETRIC_REPRESENTATION_CONTEXT() REPRESENTATION_CONTEXT('2D SPACE',''
  ) );
#62 = PCURVE('',#63,#68);
#63 = PLANE('',#64);
#64 = AXIS2_PLACEMENT_3D('',#65,#66,#67);
#65 = CARTESIAN_POINT('',(0.,0.,150.));
#66 = DIRECTION('',(0.,0.,1.));
#67 = DIRECTION('',(1.,0.,0.));
#68 = DEFINITIONAL_REPRESENTATION('',(#69),#73);
#69 = CIRCLE('',#70,30.);
#70 = AXIS2_PLACEMENT_2D('',#71,#72);
#71 = CARTESIAN_POINT('',(0.,0.));
#72 = DIRECTION('',(1.,0.));
#73 = ( GEOMETRIC_REPRESENTATION_CONTEXT(2) 
PARAMETRIC_REPRESENTATION_CONTEXT() REPRESENTATION_CONTEXT('2D SPACE',''
  ) );
#74 = ORIENTED_EDGE('',*,*,#21,.F.);
#75 = ORIENTED_EDGE('',*,*,#76,.T.);
#76 = EDGE_CURVE('',#22,#77,#79,.T.);
#77 = VERTEX_POINT('',#78);
#78 = CARTESIAN_POINT('',(3.673940397442E-15,30.,105.));
#79 = SURFACE_CURVE('',#80,(#85,#98),.PCURVE_S1.);
#80 = ELLIPSE('',#81,42.426406871193,30.);
#81 = AXIS2_PLACEMENT_3D('',#82,#83,#84);
#82 = CARTESIAN_POINT('',(0.,0.,75.));
#83 = DIRECTION('',(0.,-0.707106781187,0.707106781187));
#84 = DIRECTION('',(0.,0.707106781187,0.707106781187));
#85 = PCURVE('',#32,#86);
#86 = DEFINITIONAL_REPRESENTATION('',(#87),#97);
#87 = B_SPLINE_CURVE_WITH_KNOTS('',8,(#88,#89,#90,#91,#92,#93,#94,#95,
    #96),.UNSPECIFIED.,.F.,.F.,(9,9),(4.712388980385,6.28318530718),
  .PIECEWISE_BEZIER_KNOTS.);
#88 = CARTESIAN_POINT('',(0.,75.));
#89 = CARTESIAN_POINT('',(0.196349540849,80.890486225481));
#90 = CARTESIAN_POINT('',(0.392699081698,86.780973849629));
#91 = CARTESIAN_POINT('',(0.589048622546,92.325397835812));
#92 = CARTESIAN_POINT('',(0.785398163397,97.177762517997));
#93 = CARTESIAN_POINT('',(0.981747704247,101.03454138961));
#94 = CARTESIAN_POINT('',(1.178097245096,103.67817672046));
#95 = CARTESIAN_POINT('',(1.374446785946,105.));
#96 = CARTESIAN_POINT('',(1.570796326795,105.));
#97 = ( GEOMETRIC_REPRESENTATION_CONTEXT(2) 
PARAMETRIC_REPRESENTATION_CONTEXT() REPRESENTATION_CONTEXT('2D SPACE',''
  ) );
#98 = PCURVE('',#99,#104);
#99 = CYLINDRICAL_SURFACE('',#100,30.);
#100 = AXIS2_PLACEMENT_3D('',#101,#102,#103);
#101 = CARTESIAN_POINT('',(0.,75.,75.));
#102 = DIRECTION('',(0.,-1.,1.110223024625E-16));
#103 = DIRECTION('',(1.,0.,0.));
#104 = DEFINITIONAL_REPRESENTATION('',(#105),#115);
#105 = B_SPLINE_CURVE_WITH_KNOTS('',8,(#106,#107,#108,#109,#110,#111,
    #112,#113,#114),.UNSPECIFIED.,.F.,.F.,(9,9),(4.712388980385,
    6.28318530718),.PIECEWISE_BEZIER_KNOTS.);
#106 = CARTESIAN_POINT('',(-8.881784197001E-16,75.));
#107 = CARTESIAN_POINT('',(0.196349540849,69.109513774519));
#108 = CARTESIAN_POINT('',(0.392699081698,63.219026150473));
#109 = CARTESIAN_POINT('',(0.589048622546,57.674602163461));
#110 = CARTESIAN_POINT('',(0.785398163398,52.822237482993));
#111 = CARTESIAN_POINT('',(0.981747704246,48.965458609688));
#112 = CARTESIAN_POINT('',(1.178097245096,46.321823279613));
#113 = CARTESIAN_POINT('',(1.374446785946,45.));
#114 = CARTESIAN_POINT('',(1.570796326795,45.));
#115 = ( GEOMETRIC_REPRESENTATION_CONTEXT(2) 
PARAMETRIC_REPRESENTATION_CONTEXT() REPRESENTATION_CONTEXT('2D SPACE',''
  ) );
#116 = ORIENTED_EDGE('',*,*,#117,.T.);
#117 = EDGE_CURVE('',#77,#118,#120,.T.);
#118 = VERTEX_POINT('',#119);
#119 = CARTESIAN_POINT('',(-30.,3.673940397442E-15,75.));
#120 = SURFACE_CURVE('',#121,(#126,#139),.PCURVE_S1.);
#121 = ELLIPSE('',#122,42.426406871193,30.);
#122 = AXIS2_PLACEMENT_3D('',#123,#124,#125);
#123 = CARTESIAN_POINT('',(0.,0.,75.));
#124 = DIRECTION('',(0.,-0.707106781187,0.707106781187));
#125 = DIRECTION('',(0.,0.707106781187,0.707106781187));
#126 = PCURVE('',#32,#127);
#127 = DEFINITIONAL_REPRESENTATION('',(#128),#138);
#128 = B_SPLINE_CURVE_WITH_KNOTS('',8,(#129,#130,#131,#132,#133,#134,
    #135,#136,#137),.UNSPECIFIED.,.F.,.F.,(9,9),(0.,1.570796326795),
  .PIECEWISE_BEZIER_KNOTS.);
#129 = CARTESIAN_POINT('',(1.570796326795,105.));
#130 = CARTESIAN_POINT('',(1.767145867644,105.));
#131 = CARTESIAN_POINT('',(1.963495408489,103.67817672035));
#132 = CARTESIAN_POINT('',(2.159844949349,101.03454139031));
#133 = CARTESIAN_POINT('',(2.356194490172,97.177762517415));
#134 = CARTESIAN_POINT('',(2.552544031047,92.325397836335));
#135 = CARTESIAN_POINT('',(2.748893571887,86.780973849527));
#136 = CARTESIAN_POINT('',(2.94524311274,80.890486225481));
#137 = CARTESIAN_POINT('',(3.14159265359,75.));
#138 = ( GEOMETRIC_REPRESENTATION_CONTEXT(2) 
PARAMETRIC_REPRESENTATION_CONTEXT() REPRESENTATION_CONTEXT('2D SPACE',''
  ) );
#139 = PCURVE('',#99,#140);
#140 = DEFINITIONAL_REPRESENTATION('',(#141),#151);
#141 = B_SPLINE_CURVE_WITH_KNOTS('',8,(#142,#143,#144,#145,#146,#147,
    #148,#149,#150),.UNSPECIFIED.,.F.,.F.,(9,9),(0.,1.570796326795),
  .PIECEWISE_BEZIER_KNOTS.);
#142 = CARTESIAN_POINT('',(1.570796326795,45.));
#143 = CARTESIAN_POINT('',(1.767145867644,45.));
#144 = CARTESIAN_POINT('',(1.963495408491,46.321823279548));
#145 = CARTESIAN_POINT('',(2.159844949345,48.965458609862));
#146 = CARTESIAN_POINT('',(2.356194490188,52.822237482294));
#147 = CARTESIAN_POINT('',(2.552544031045,57.674602163752));
#148 = CARTESIAN_POINT('',(2.748893571889,63.219026150386));
#149 = CARTESIAN_POINT('',(2.94524311274,69.109513774519));
#150 = CARTESIAN_POINT('',(3.14159265359,75.));
#151 = ( GEOMETRIC_REPRESENTATION_CONTEXT(2) 
PARAMETRIC_REPRESENTATION_CONTEXT() REPRESENTATION_CONTEXT('2D SPACE',''
  ) );
#152 = ORIENTED_EDGE('',*,*,#153,.T.);
#153 = EDGE_CURVE('',#118,#154,#156,.T.);
#154 = VERTEX_POINT('',#155);
#155 = CARTESIAN_POINT('',(-3.673940397442E-15,-30.,105.));
#156 = SURFACE_CURVE('',#157,(#162,#175),.PCURVE_S1.);
#157 = ELLIPSE('',#158,42.426406871193,30.);
#158 = AXIS2_PLACEMENT_3D('',#159,#160,#161);
#159 = CARTESIAN_POINT('',(0.,0.,75.));
#160 = DIRECTION('',(0.,0.707106781187,0.707106781187));
#161 = DIRECTION('',(0.,-0.707106781187,0.707106781187));
#162 = PCURVE('',#32,#163);
#163 = DEFINITIONAL_REPRESENTATION('',(#164),#174);
#164 = B_SPLINE_CURVE_WITH_KNOTS('',8,(#165,#166,#167,#168,#169,#170,
    #171,#172,#173),.UNSPECIFIED.,.F.,.F.,(9,9),(4.712388980385,
    6.28318530718),.PIECEWISE_BEZIER_KNOTS.);
#165 = CARTESIAN_POINT('',(3.14159265359,75.));
#166 = CARTESIAN_POINT('',(3.337942194439,80.890486225481));
#167 = CARTESIAN_POINT('',(3.534291735285,86.780973849527));
#168 = CARTESIAN_POINT('',(3.730641276146,92.325397836219));
#169 = CARTESIAN_POINT('',(3.926990816959,97.177762517706));
#170 = CARTESIAN_POINT('',(4.12334035785,101.03454138996));
#171 = CARTESIAN_POINT('',(4.319689898683,103.67817672043));
#172 = CARTESIAN_POINT('',(4.516039439535,105.));
#173 = CARTESIAN_POINT('',(4.712388980385,105.));
#174 = ( GEOMETRIC_REPRESENTATION_CONTEXT(2) 
PARAMETRIC_REPRESENTATION_CONTEXT() REPRESENTATION_CONTEXT('2D SPACE',''
  ) );
#175 = PCURVE('',#176,#181);
#176 = CYLINDRICAL_SURFACE('',#177,30.);
#177 = AXIS2_PLACEMENT_3D('',#178,#179,#180);
#178 = CARTESIAN_POINT('',(0.,75.,75.));
#179 = DIRECTION('',(0.,-1.,1.110223024625E-16));
#180 = DIRECTION('',(1.,0.,0.));
#181 = DEFINITIONAL_REPRESENTATION('',(#182),#192);
#182 = B_SPLINE_CURVE_WITH_KNOTS('',8,(#183,#184,#185,#186,#187,#188,
    #189,#190,#191),.UNSPECIFIED.,.F.,.F.,(9,9),(4.712388980385,
    6.28318530718),.PIECEWISE_BEZIER_KNOTS.);
#183 = CARTESIAN_POINT('',(3.14159265359,75.));
#184 = CARTESIAN_POINT('',(2.94524311274,80.890486225481));
#185 = CARTESIAN_POINT('',(2.74889357189,86.780973849498));
#186 = CARTESIAN_POINT('',(2.552544031034,92.325397836103));
#187 = CARTESIAN_POINT('',(2.356194490187,97.177762517473));
#188 = CARTESIAN_POINT('',(2.159844949339,101.0345413899));
#189 = CARTESIAN_POINT('',(1.963495408492,103.67817672033));
#190 = CARTESIAN_POINT('',(1.767145867644,105.));
#191 = CARTESIAN_POINT('',(1.570796326795,105.));
#192 = ( GEOMETRIC_REPRESENTATION_CONTEXT(2) 
PARAMETRIC_REPRESENTATION_CONTEXT() REPRESENTATION_CONTEXT('2D SPACE',''
  ) );
#193 = ORIENTED_EDGE('',*,*,#194,.T.);
#194 = EDGE_CURVE('',#154,#22,#195,.T.);
#195 = SURFACE_CURVE('',#196,(#201,#214),.PCURVE_S1.);
#196 = ELLIPSE('',#197,42.426406871193,30.);
#197 = AXIS2_PLACEMENT_3D('',#198,#199,#200);
#198 = CARTESIAN_POINT('',(0.,0.,75.));
#199 = DIRECTION('',(0.,0.707106781187,0.707106781187));
#200 = DIRECTION('',(0.,-0.707106781187,0.707106781187));
#201 = PCURVE('',#32,#202);
#202 = DEFINITIONAL_REPRESENTATION('',(#203),#213);
#203 = B_SPLINE_CURVE_WITH_KNOTS('',8,(#204,#205,#206,#207,#208,#209,
    #210,#211,#212),.UNSPECIFIED.,.F.,.F.,(9,9),(0.,1.570796326795),
  .PIECEWISE_BEZIER_KNOTS.);
#204 = CARTESIAN_POINT('',(4.712388980385,105.));
#205 = CARTESIAN_POINT('',(4.908738521234,105.));
#206 = CARTESIAN_POINT('',(5.105088062084,103.6781767204));
#207 = CARTESIAN_POINT('',(5.301437602933,101.03454139008));
#208 = CARTESIAN_POINT('',(5.497787143783,97.17776251788));
#209 = CARTESIAN_POINT('',(5.69413668463,92.325397835986));
#210 = CARTESIAN_POINT('',(5.890486225482,86.780973849585));
#211 = CARTESIAN_POINT('',(6.08683576633,80.890486225481));
#212 = CARTESIAN_POINT('',(6.28318530718,75.));
#213 = ( GEOMETRIC_REPRESENTATION_CONTEXT(2) 
PARAMETRIC_REPRESENTATION_CONTEXT() REPRESENTATION_CONTEXT('2D SPACE',''
  ) );
#214 = PCURVE('',#176,#215);
#215 = DEFINITIONAL_REPRESENTATION('',(#216),#226);
#216 = B_SPLINE_CURVE_WITH_KNOTS('',8,(#217,#218,#219,#220,#221,#222,
    #223,#224,#225),.UNSPECIFIED.,.F.,.F.,(9,9),(0.,1.570796326795),
  .PIECEWISE_BEZIER_KNOTS.);
#217 = CARTESIAN_POINT('',(1.570796326795,105.));
#218 = CARTESIAN_POINT('',(1.374446785946,105.));
#219 = CARTESIAN_POINT('',(1.178097245095,103.67817672023));
#220 = CARTESIAN_POINT('',(0.981747704249,101.03454139054));
#221 = CARTESIAN_POINT('',(0.785398163395,97.177762516949));
#222 = CARTESIAN_POINT('',(0.58904862255,92.325397836568));
#223 = CARTESIAN_POINT('',(0.392699081698,86.780973849411));
#224 = CARTESIAN_POINT('',(0.196349540849,80.890486225481));
#225 = CARTESIAN_POINT('',(-8.881784197001E-16,75.));
#226 = ( GEOMETRIC_REPRESENTATION_CONTEXT(2) 
PARAMETRIC_REPRESENTATION_CONTEXT() REPRESENTATION_CONTEXT('2D SPACE',''
  ) );
#227 = ADVANCED_FACE('',(#228),#176,.T.);
#228 = FACE_BOUND('',#229,.T.);
#229 = EDGE_LOOP('',(#230,#251,#277,#278,#279,#280));
#230 = ORIENTED_EDGE('',*,*,#231,.T.);
#231 = EDGE_CURVE('',#22,#232,#234,.T.);
#232 = VERTEX_POINT('',#233);
#233 = CARTESIAN_POINT('',(30.,-75.,75.));
#234 = SEAM_CURVE('',#235,(#239,#245),.PCURVE_S1.);
#235 = LINE('',#236,#237);
#236 = CARTESIAN_POINT('',(30.,75.,75.));
#237 = VECTOR('',#238,1.);
#238 = DIRECTION('',(0.,-1.,1.110223024625E-16));
#239 = PCURVE('',#176,#240);
#240 = DEFINITIONAL_REPRESENTATION('',(#241),#244);
#241 = B_SPLINE_CURVE_WITH_KNOTS('',1,(#242,#243),.UNSPECIFIED.,.F.,.F.,
  (2,2),(0.,150.),.PIECEWISE_BEZIER_KNOTS.);
#242 = CARTESIAN_POINT('',(6.28318530718,0.));
#243 = CARTESIAN_POINT('',(6.28318530718,150.));
#244 = ( GEOMETRIC_REPRESENTATION_CONTEXT(2) 
PARAMETRIC_REPRESENTATION_CONTEXT() REPRESENTATION_CONTEXT('2D SPACE',''
  ) );
#245 = PCURVE('',#176,#246);
#246 = DEFINITIONAL_REPRESENTATION('',(#247),#250);
#247 = B_SPLINE_CURVE_WITH_KNOTS('',1,(#248,#249),.UNSPECIFIED.,.F.,.F.,
  (2,2),(0.,150.),.PIECEWISE_BEZIER_KNOTS.);
#248 = CARTESIAN_POINT('',(0.,0.));
#249 = CARTESIAN_POINT('',(0.,150.));
#250 = ( GEOMETRIC_REPRESENTATION_CONTEXT(2) 
PARAMETRIC_REPRESENTATION_CONTEXT() REPRESENTATION_CONTEXT('2D SPACE',''
  ) );
#251 = ORIENTED_EDGE('',*,*,#252,.F.);
#252 = EDGE_CURVE('',#232,#232,#253,.T.);
#253 = SURFACE_CURVE('',#254,(#259,#265),.PCURVE_S1.);
#254 = CIRCLE('',#255,30.);
#255 = AXIS2_PLACEMENT_3D('',#256,#257,#258);
#256 = CARTESIAN_POINT('',(0.,-75.,75.));
#257 = DIRECTION('',(0.,-1.,1.110223024625E-16));
#258 = DIRECTION('',(1.,0.,0.));
#259 = PCURVE('',#176,#260);
#260 = DEFINITIONAL_REPRESENTATION('',(#261),#264);
#261 = B_SPLINE_CURVE_WITH_KNOTS('',1,(#262,#263),.UNSPECIFIED.,.F.,.F.,
  (2,2),(0.,6.28318530718),.PIECEWISE_BEZIER_KNOTS.);
#262 = CARTESIAN_POINT('',(0.,150.));
#263 = CARTESIAN_POINT('',(6.28318530718,150.));
#264 = ( GEOMETRIC_REPRESENTATION_CONTEXT(2) 
PARAMETRIC_REPRESENTATION_CONTEXT() REPRESENTATION_CONTEXT('2D SPACE',''
  ) );
#265 = PCURVE('',#266,#271);
#266 = PLANE('',#267);
#267 = AXIS2_PLACEMENT_3D('',#268,#269,#270);
#268 = CARTESIAN_POINT('',(0.,-75.,75.));
#269 = DIRECTION('',(0.,-1.,1.110223024625E-16));
#270 = DIRECTION('',(1.,0.,0.));
#271 = DEFINITIONAL_REPRESENTATION('',(#272),#276);
#272 = CIRCLE('',#273,30.);
#273 = AXIS2_PLACEMENT_2D('',#274,#275);
#274 = CARTESIAN_POINT('',(0.,0.));
#275 = DIRECTION('',(1.,0.));
#276 = ( GEOMETRIC_REPRESENTATION_CONTEXT(2) 
PARAMETRIC_REPRESENTATION_CONTEXT() REPRESENTATION_CONTEXT('2D SPACE',''
  ) );
#277 = ORIENTED_EDGE('',*,*,#231,.F.);
#278 = ORIENTED_EDGE('',*,*,#194,.F.);
#279 = ORIENTED_EDGE('',*,*,#153,.F.);
#280 = ORIENTED_EDGE('',*,*,#281,.T.);
#281 = EDGE_CURVE('',#118,#22,#282,.T.);
#282 = SURFACE_CURVE('',#283,(#288,#308),.PCURVE_S1.);
#283 = ELLIPSE('',#284,42.426406871193,30.);
#284 = AXIS2_PLACEMENT_3D('',#285,#286,#287);
#285 = CARTESIAN_POINT('',(0.,0.,75.));
#286 = DIRECTION('',(0.,-0.707106781187,0.707106781187));
#287 = DIRECTION('',(0.,0.707106781187,0.707106781187));
#288 = PCURVE('',#176,#289);
#289 = DEFINITIONAL_REPRESENTATION('',(#290),#307);
#290 = B_SPLINE_CURVE_WITH_KNOTS('',8,(#291,#292,#293,#294,#295,#296,
    #297,#298,#299,#300,#301,#302,#303,#304,#305,#306),.UNSPECIFIED.,.F.
  ,.F.,(9,7,9),(1.570796326795,3.14159265359,4.712388980385),
  .UNSPECIFIED.);
#291 = CARTESIAN_POINT('',(3.14159265359,75.));
#292 = CARTESIAN_POINT('',(3.337942194439,80.890486225481));
#293 = CARTESIAN_POINT('',(3.534291735282,86.780973849571));
#294 = CARTESIAN_POINT('',(3.730641276157,92.325397836044));
#295 = CARTESIAN_POINT('',(3.926990816955,97.177762517764));
#296 = CARTESIAN_POINT('',(4.123340357854,101.03454138984));
#297 = CARTESIAN_POINT('',(4.319689898681,103.6781767204));
#298 = CARTESIAN_POINT('',(4.516039439535,105.));
#299 = CARTESIAN_POINT('',(4.908738521234,105.));
#300 = CARTESIAN_POINT('',(5.105088062086,103.67817672035));
#301 = CARTESIAN_POINT('',(5.301437602942,101.03454139031));
#302 = CARTESIAN_POINT('',(5.497787143762,97.177762517415));
#303 = CARTESIAN_POINT('',(5.694136684637,92.325397836219));
#304 = CARTESIAN_POINT('',(5.890486225479,86.780973849527));
#305 = CARTESIAN_POINT('',(6.08683576633,80.890486225481));
#306 = CARTESIAN_POINT('',(6.28318530718,75.));
#307 = ( GEOMETRIC_REPRESENTATION_CONTEXT(2) 
PARAMETRIC_REPRESENTATION_CONTEXT() REPRESENTATION_CONTEXT('2D SPACE',''
  ) );
#308 = PCURVE('',#309,#314);
#309 = CYLINDRICAL_SURFACE('',#310,30.);
#310 = AXIS2_PLACEMENT_3D('',#311,#312,#313);
#311 = CARTESIAN_POINT('',(0.,0.,0.));
#312 = DIRECTION('',(0.,0.,1.));
#313 = DIRECTION('',(1.,0.,0.));
#314 = DEFINITIONAL_REPRESENTATION('',(#315),#332);
#315 = B_SPLINE_CURVE_WITH_KNOTS('',8,(#316,#317,#318,#319,#320,#321,
    #322,#323,#324,#325,#326,#327,#328,#329,#330,#331),.UNSPECIFIED.,.F.
  ,.F.,(9,7,9),(1.570796326795,3.14159265359,4.712388980385),
  .UNSPECIFIED.);
#316 = CARTESIAN_POINT('',(3.14159265359,75.));
#317 = CARTESIAN_POINT('',(3.337942194439,69.109513774519));
#318 = CARTESIAN_POINT('',(3.53429173529,63.219026150458));
#319 = CARTESIAN_POINT('',(3.730641276145,57.674602163519));
#320 = CARTESIAN_POINT('',(3.926990816995,52.822237482731));
#321 = CARTESIAN_POINT('',(4.123340357839,48.965458609746));
#322 = CARTESIAN_POINT('',(4.319689898688,46.32182327957));
#323 = CARTESIAN_POINT('',(4.516039439535,45.));
#324 = CARTESIAN_POINT('',(4.908738521234,45.));
#325 = CARTESIAN_POINT('',(5.105088062082,46.321823279519));
#326 = CARTESIAN_POINT('',(5.30143760294,48.965458609862));
#327 = CARTESIAN_POINT('',(5.497787143777,52.822237482527));
#328 = CARTESIAN_POINT('',(5.694136684639,57.674602163635));
#329 = CARTESIAN_POINT('',(5.89048622548,63.219026150415));
#330 = CARTESIAN_POINT('',(6.08683576633,69.109513774519));
#331 = CARTESIAN_POINT('',(6.28318530718,75.));
#332 = ( GEOMETRIC_REPRESENTATION_CONTEXT(2) 
PARAMETRIC_REPRESENTATION_CONTEXT() REPRESENTATION_CONTEXT('2D SPACE',''
  ) );
#333 = ADVANCED_FACE('',(#334),#99,.T.);
#334 = FACE_BOUND('',#335,.T.);
#335 = EDGE_LOOP('',(#336,#337,#358,#384,#385,#433));
#336 = ORIENTED_EDGE('',*,*,#76,.F.);
#337 = ORIENTED_EDGE('',*,*,#338,.F.);
#338 = EDGE_CURVE('',#339,#22,#341,.T.);
#339 = VERTEX_POINT('',#340);
#340 = CARTESIAN_POINT('',(30.,75.,75.));
#341 = SEAM_CURVE('',#342,(#346,#352),.PCURVE_S1.);
#342 = LINE('',#343,#344);
#343 = CARTESIAN_POINT('',(30.,75.,75.));
#344 = VECTOR('',#345,1.);
#345 = DIRECTION('',(0.,-1.,1.110223024625E-16));
#346 = PCURVE('',#99,#347);
#347 = DEFINITIONAL_REPRESENTATION('',(#348),#351);
#348 = B_SPLINE_CURVE_WITH_KNOTS('',1,(#349,#350),.UNSPECIFIED.,.F.,.F.,
  (2,2),(0.,150.),.PIECEWISE_BEZIER_KNOTS.);
#349 = CARTESIAN_POINT('',(6.28318530718,0.));
#350 = CARTESIAN_POINT('',(6.28318530718,150.));
#351 = ( GEOMETRIC_REPRESENTATION_CONTEXT(2) 
PARAMETRIC_REPRESENTATION_CONTEXT() REPRESENTATION_CONTEXT('2D SPACE',''
  ) );
#352 = PCURVE('',#99,#353);
#353 = DEFINITIONAL_REPRESENTATION('',(#354),#357);
#354 = B_SPLINE_CURVE_WITH_KNOTS('',1,(#355,#356),.UNSPECIFIED.,.F.,.F.,
  (2,2),(0.,150.),.PIECEWISE_BEZIER_KNOTS.);
#355 = CARTESIAN_POINT('',(0.,0.));
#356 = CARTESIAN_POINT('',(0.,150.));
#357 = ( GEOMETRIC_REPRESENTATION_CONTEXT(2) 
PARAMETRIC_REPRESENTATION_CONTEXT() REPRESENTATION_CONTEXT('2D SPACE',''
  ) );
#358 = ORIENTED_EDGE('',*,*,#359,.T.);
#359 = EDGE_CURVE('',#339,#339,#360,.T.);
#360 = SURFACE_CURVE('',#361,(#366,#372),.PCURVE_S1.);
#361 = CIRCLE('',#362,30.);
#362 = AXIS2_PLACEMENT_3D('',#363,#364,#365);
#363 = CARTESIAN_POINT('',(0.,75.,75.));
#364 = DIRECTION('',(0.,-1.,1.110223024625E-16));
#365 = DIRECTION('',(1.,0.,0.));
#366 = PCURVE('',#99,#367);
#367 = DEFINITIONAL_REPRESENTATION('',(#368),#371);
#368 = B_SPLINE_CURVE_WITH_KNOTS('',1,(#369,#370),.UNSPECIFIED.,.F.,.F.,
  (2,2),(0.,6.28318530718),.PIECEWISE_BEZIER_KNOTS.);
#369 = CARTESIAN_POINT('',(0.,0.));
#370 = CARTESIAN_POINT('',(6.28318530718,0.));
#371 = ( GEOMETRIC_REPRESENTATION_CONTEXT(2) 
PARAMETRIC_REPRESENTATION_CONTEXT() REPRESENTATION_CONTEXT('2D SPACE',''
  ) );
#372 = PCURVE('',#373,#378);
#373 = PLANE('',#374);
#374 = AXIS2_PLACEMENT_3D('',#375,#376,#377);
#375 = CARTESIAN_POINT('',(0.,75.,75.));
#376 = DIRECTION('',(0.,-1.,1.110223024625E-16));
#377 = DIRECTION('',(1.,0.,0.));
#378 = DEFINITIONAL_REPRESENTATION('',(#379),#383);
#379 = CIRCLE('',#380,30.);
#380 = AXIS2_PLACEMENT_2D('',#381,#382);
#381 = CARTESIAN_POINT('',(0.,0.));
#382 = DIRECTION('',(1.,0.));
#383 = ( GEOMETRIC_REPRESENTATION_CONTEXT(2) 
PARAMETRIC_REPRESENTATION_CONTEXT() REPRESENTATION_CONTEXT('2D SPACE',''
  ) );
#384 = ORIENTED_EDGE('',*,*,#338,.T.);
#385 = ORIENTED_EDGE('',*,*,#386,.T.);
#386 = EDGE_CURVE('',#22,#118,#387,.T.);
#387 = SURFACE_CURVE('',#388,(#393,#413),.PCURVE_S1.);
#388 = ELLIPSE('',#389,42.426406871193,30.);
#389 = AXIS2_PLACEMENT_3D('',#390,#391,#392);
#390 = CARTESIAN_POINT('',(0.,0.,75.));
#391 = DIRECTION('',(0.,0.707106781187,0.707106781187));
#392 = DIRECTION('',(0.,-0.707106781187,0.707106781187));
#393 = PCURVE('',#99,#394);
#394 = DEFINITIONAL_REPRESENTATION('',(#395),#412);
#395 = B_SPLINE_CURVE_WITH_KNOTS('',8,(#396,#397,#398,#399,#400,#401,
    #402,#403,#404,#405,#406,#407,#408,#409,#410,#411),.UNSPECIFIED.,.F.
  ,.F.,(9,7,9),(1.570796326795,3.14159265359,4.712388980385),
  .UNSPECIFIED.);
#396 = CARTESIAN_POINT('',(6.28318530718,75.));
#397 = CARTESIAN_POINT('',(6.08683576633,69.109513774519));
#398 = CARTESIAN_POINT('',(5.890486225479,63.219026150495));
#399 = CARTESIAN_POINT('',(5.694136684611,57.674602163461));
#400 = CARTESIAN_POINT('',(5.497787143773,52.822237482615));
#401 = CARTESIAN_POINT('',(5.301437602913,48.9654586096));
#402 = CARTESIAN_POINT('',(5.105088062085,46.321823279635));
#403 = CARTESIAN_POINT('',(4.908738521234,45.));
#404 = CARTESIAN_POINT('',(4.516039439535,45.));
#405 = CARTESIAN_POINT('',(4.319689898678,46.321823279599));
#406 = CARTESIAN_POINT('',(4.123340357848,48.965458609775));
#407 = CARTESIAN_POINT('',(3.926990816959,52.822237482585));
#408 = CARTESIAN_POINT('',(3.730641276152,57.674602163577));
#409 = CARTESIAN_POINT('',(3.534291735283,63.219026150458));
#410 = CARTESIAN_POINT('',(3.337942194439,69.109513774519));
#411 = CARTESIAN_POINT('',(3.14159265359,75.));
#412 = ( GEOMETRIC_REPRESENTATION_CONTEXT(2) 
PARAMETRIC_REPRESENTATION_CONTEXT() REPRESENTATION_CONTEXT('2D SPACE',''
  ) );
#413 = PCURVE('',#309,#414);
#414 = DEFINITIONAL_REPRESENTATION('',(#415),#432);
#415 = B_SPLINE_CURVE_WITH_KNOTS('',8,(#416,#417,#418,#419,#420,#421,
    #422,#423,#424,#425,#426,#427,#428,#429,#430,#431),.UNSPECIFIED.,.F.
  ,.F.,(9,7,9),(1.570796326795,3.14159265359,4.712388980385),
  .UNSPECIFIED.);
#416 = CARTESIAN_POINT('',(0.,75.));
#417 = CARTESIAN_POINT('',(0.196349540849,69.109513774519));
#418 = CARTESIAN_POINT('',(0.392699081698,63.219026150473));
#419 = CARTESIAN_POINT('',(0.589048622546,57.674602163461));
#420 = CARTESIAN_POINT('',(0.785398163395,52.822237482993));
#421 = CARTESIAN_POINT('',(0.981747704246,48.965458609688));
#422 = CARTESIAN_POINT('',(1.178097245096,46.321823279613));
#423 = CARTESIAN_POINT('',(1.374446785946,45.));
#424 = CARTESIAN_POINT('',(1.767145867644,45.));
#425 = CARTESIAN_POINT('',(1.963495408489,46.321823279621));
#426 = CARTESIAN_POINT('',(2.159844949349,48.965458609688));
#427 = CARTESIAN_POINT('',(2.356194490172,52.822237482818));
#428 = CARTESIAN_POINT('',(2.552544031047,57.67460216349));
#429 = CARTESIAN_POINT('',(2.748893571887,63.21902615048));
#430 = CARTESIAN_POINT('',(2.94524311274,69.109513774519));
#431 = CARTESIAN_POINT('',(3.14159265359,75.));
#432 = ( GEOMETRIC_REPRESENTATION_CONTEXT(2) 
PARAMETRIC_REPRESENTATION_CONTEXT() REPRESENTATION_CONTEXT('2D SPACE',''
  ) );
#433 = ORIENTED_EDGE('',*,*,#117,.F.);
#434 = ADVANCED_FACE('',(#435),#63,.T.);
#435 = FACE_BOUND('',#436,.T.);
#436 = EDGE_LOOP('',(#437));
#437 = ORIENTED_EDGE('',*,*,#49,.T.);
#438 = ADVANCED_FACE('',(#439),#309,.T.);
#439 = FACE_BOUND('',#440,.T.);
#440 = EDGE_LOOP('',(#441,#442,#463,#489,#490));
#441 = ORIENTED_EDGE('',*,*,#386,.F.);
#442 = ORIENTED_EDGE('',*,*,#443,.F.);
#443 = EDGE_CURVE('',#444,#22,#446,.T.);
#444 = VERTEX_POINT('',#445);
#445 = CARTESIAN_POINT('',(30.,-7.347880794884E-15,0.));
#446 = SEAM_CURVE('',#447,(#451,#457),.PCURVE_S1.);
#447 = LINE('',#448,#449);
#448 = CARTESIAN_POINT('',(30.,-7.347880794884E-15,0.));
#449 = VECTOR('',#450,1.);
#450 = DIRECTION('',(0.,0.,1.));
#451 = PCURVE('',#309,#452);
#452 = DEFINITIONAL_REPRESENTATION('',(#453),#456);
#453 = B_SPLINE_CURVE_WITH_KNOTS('',1,(#454,#455),.UNSPECIFIED.,.F.,.F.,
  (2,2),(0.,150.),.PIECEWISE_BEZIER_KNOTS.);
#454 = CARTESIAN_POINT('',(6.28318530718,0.));
#455 = CARTESIAN_POINT('',(6.28318530718,150.));
#456 = ( GEOMETRIC_REPRESENTATION_CONTEXT(2) 
PARAMETRIC_REPRESENTATION_CONTEXT() REPRESENTATION_CONTEXT('2D SPACE',''
  ) );
#457 = PCURVE('',#309,#458);
#458 = DEFINITIONAL_REPRESENTATION('',(#459),#462);
#459 = B_SPLINE_CURVE_WITH_KNOTS('',1,(#460,#461),.UNSPECIFIED.,.F.,.F.,
  (2,2),(0.,150.),.PIECEWISE_BEZIER_KNOTS.);
#460 = CARTESIAN_POINT('',(0.,0.));
#461 = CARTESIAN_POINT('',(0.,150.));
#462 = ( GEOMETRIC_REPRESENTATION_CONTEXT(2) 
PARAMETRIC_REPRESENTATION_CONTEXT() REPRESENTATION_CONTEXT('2D SPACE',''
  ) );
#463 = ORIENTED_EDGE('',*,*,#464,.T.);
#464 = EDGE_CURVE('',#444,#444,#465,.T.);
#465 = SURFACE_CURVE('',#466,(#471,#477),.PCURVE_S1.);
#466 = CIRCLE('',#467,30.);
#467 = AXIS2_PLACEMENT_3D('',#468,#469,#470);
#468 = CARTESIAN_POINT('',(0.,0.,0.));
#469 = DIRECTION('',(0.,0.,1.));
#470 = DIRECTION('',(1.,0.,-0.));
#471 = PCURVE('',#309,#472);
#472 = DEFINITIONAL_REPRESENTATION('',(#473),#476);
#473 = B_SPLINE_CURVE_WITH_KNOTS('',1,(#474,#475),.UNSPECIFIED.,.F.,.F.,
  (2,2),(0.,6.28318530718),.PIECEWISE_BEZIER_KNOTS.);
#474 = CARTESIAN_POINT('',(0.,0.));
#475 = CARTESIAN_POINT('',(6.28318530718,0.));
#476 = ( GEOMETRIC_REPRESENTATION_CONTEXT(2) 
PARAMETRIC_REPRESENTATION_CONTEXT() REPRESENTATION_CONTEXT('2D SPACE',''
  ) );
#477 = PCURVE('',#478,#483);
#478 = PLANE('',#479);
#479 = AXIS2_PLACEMENT_3D('',#480,#481,#482);
#480 = CARTESIAN_POINT('',(0.,0.,0.));
#481 = DIRECTION('',(0.,0.,1.));
#482 = DIRECTION('',(1.,0.,0.));
#483 = DEFINITIONAL_REPRESENTATION('',(#484),#488);
#484 = CIRCLE('',#485,30.);
#485 = AXIS2_PLACEMENT_2D('',#486,#487);
#486 = CARTESIAN_POINT('',(0.,0.));
#487 = DIRECTION('',(1.,0.));
#488 = ( GEOMETRIC_REPRESENTATION_CONTEXT(2) 
PARAMETRIC_REPRESENTATION_CONTEXT() REPRESENTATION_CONTEXT('2D SPACE',''
  ) );
#489 = ORIENTED_EDGE('',*,*,#443,.T.);
#490 = ORIENTED_EDGE('',*,*,#281,.F.);
#491 = ADVANCED_FACE('',(#492),#266,.T.);
#492 = FACE_BOUND('',#493,.T.);
#493 = EDGE_LOOP('',(#494));
#494 = ORIENTED_EDGE('',*,*,#252,.T.);
#495 = ADVANCED_FACE('',(#496),#373,.F.);
#496 = FACE_BOUND('',#497,.T.);
#497 = EDGE_LOOP('',(#498));
#498 = ORIENTED_EDGE('',*,*,#359,.F.);
#499 = ADVANCED_FACE('',(#500),#478,.F.);
#500 = FACE_BOUND('',#501,.T.);
#501 = EDGE_LOOP('',(#502));
#502 = ORIENTED_EDGE('',*,*,#464,.F.);
#503 = ( GEOMETRIC_REPRESENTATION_CONTEXT(3) 
GLOBAL_UNCERTAINTY_ASSIGNED_CONTEXT((#507)) GLOBAL_UNIT_ASSIGNED_CONTEXT
((#504,#505,#506)) REPRESENTATION_CONTEXT('Context #1',
  '3D Context with UNIT and UNCERTAINTY') );
#504 = ( LENGTH_UNIT() NAMED_UNIT(*) SI_UNIT(.MILLI.,.METRE.) );
#505 = ( NAMED_UNIT(*) PLANE_ANGLE_UNIT() SI_UNIT($,.RADIAN.) );
#506 = ( NAMED_UNIT(*) SI_UNIT($,.STERADIAN.) SOLID_ANGLE_UNIT() );
#507 = UNCERTAINTY_MEASURE_WITH_UNIT(LENGTH_MEASURE(1.E-06),#504,
  'distance_accuracy_value','confusion accuracy');
#508 = PRODUCT_RELATED_PRODUCT_CATEGORY('part',$,(#7));
ENDSEC;
END-ISO-10303-21;
